<svg xmlns="http://www.w3.org/2000/svg" width="1200" height="630" viewBox="0 0 1200 630"><rect x="0" y="0" width="1200" height="630" fill="#18181b"/><path d="M2.594 -0.3281L2.594 -6.734Q9.797 -4.219 15.88 -4.219Q24.5 -4.219 24.5 -9.219Q24.5 -12.47 21.23 -13.86L17.75 -15.19L13.61 -16.77Q6.984 -19.27 4.75 -21.56Q2.516 -23.84 2.516 -28.06Q2.516 -38.52 17.84 -38.52Q24.3 -38.52 30.11 -37.22L30.11 -31.28Q24.08 -33.36 18.41 -33.36Q13.81 -33.36 12.03 -32.41Q10.27 -31.44 10.27 -28.95Q10.27 -27.38 11.12 -26.48Q11.98 -25.59 14.45 -24.69L17.34 -23.56L21.66 -21.97Q27.94 -19.62 30.31 -17.14Q32.73 -14.66 32.73 -10.44Q32.73 -4.547 28.34 -1.781Q23.97 0.9688 14.55 0.9688Q11.02 0.9688 6.609 0.2812L2.594 -0.3281ZM34.69 0M38.45 0L38.45 -40.09L45.97 -40.09L45.97 -23.27Q50.25 -28.52 55.44 -28.52Q63.03 -28.52 63.03 -19.7L63.03 0L55.52 0L55.52 -17.84Q55.52 -20.56 54.85 -21.58Q54.22 -22.59 52.49 -22.59Q49.44 -22.59 45.97 -18.19L45.97 0L38.45 0ZM66.45 0M70.22 0L70.22 -27.88L77.73 -27.88L77.73 0L70.22 0M69.95 -32.95L69.95 -40.09L77.98 -40.09L77.98 -32.95L69.95 -32.95ZM81.48 0M92.76 10.03L85.25 10.03L85.25 -27.88L92.76 -27.88L92.76 -23.27Q96.75 -28.52 101.5 -28.52Q105.9 -28.52 108.5 -24.7Q111.3 -20.92 111.3 -14.7Q111.3 -7.484 107.8 -3.422Q104.3 0.6406 98.14 0.6406Q96.07 0.6406 92.76 0L92.76 10.03M92.76 -4.469Q95.6 -3.984 97 -3.984Q103.3 -3.984 103.3 -13.66Q103.3 -22.62 98.7 -22.62Q95.65 -22.62 92.76 -18.19L92.76 -4.469ZM127.7 0M131.9 0L131.9 -23.19L129 -23.19L129 -27.88L131.9 -27.88L131.9 -29.89Q131.9 -40.73 141.8 -40.73Q144 -40.73 146.4 -40.06L146.4 -35.19Q144.3 -36.03 142.7 -36.03Q139.4 -36.03 139.4 -30.17L139.4 -27.88L144.1 -27.88L144.1 -23.19L139.4 -23.19L139.4 0L131.9 0ZM145 0M172.3 -4.297L172.5 -0.07812Q170.1 0.6406 168.3 0.6406Q163.7 0.6406 162.4 -3L162 -3Q159.3 0.6406 155 0.6406Q151.3 0.6406 149 -1.594Q146.8 -3.859 146.8 -7.516Q146.8 -17.02 160 -17.02L162 -17.02L162 -19.55Q162 -23.89 157.7 -23.89Q153.7 -23.89 149.2 -21.41L149.2 -26.58Q153.8 -28.52 158.9 -28.52Q169.2 -28.52 169.2 -19.81L169.2 -7.469Q169.2 -4.188 171.3 -4.188Q171.7 -4.188 172.3 -4.297M162 -7.031L162 -12.7L160.2 -12.7Q154 -12.7 154 -8.172Q154 -6.578 155 -5.516Q156.1 -4.469 157.7 -4.469Q160.3 -4.469 162 -7.031ZM173.9 0M177.1 -0.9219L177.1 -6.406Q182.9 -4.062 186.9 -4.062Q192.5 -4.062 192.5 -7.109Q192.5 -8.969 188.1 -10.77L185.5 -11.78Q180.3 -13.89 178.7 -15.44Q177.2 -16.98 177.2 -20.08Q177.2 -28.52 188.9 -28.52Q193 -28.52 198 -27.53L198 -22.38Q192.5 -23.81 189.9 -23.81Q184.6 -23.81 184.6 -20.97Q184.6 -19.25 188.7 -17.7L190.9 -16.86Q196.5 -14.75 198.3 -12.95Q200.2 -11.17 200.2 -8.031Q200.2 -4.062 196.7 -1.703Q193.3 0.6406 187.4 0.6406Q182.2 0.6406 177.1 -0.9219ZM202.9 0M219.7 -4.719L219.7 -0.03125Q216.8 0.6406 214.9 0.6406Q207 0.6406 207 -8.5L207 -23.19L203.9 -23.19L203.9 -27.88L207 -27.88L207 -33.34L214.5 -34.2L214.5 -27.88L219.8 -27.88L219.8 -23.19L214.5 -23.19L214.5 -9.5Q214.5 -6.344 215 -5.359Q215.6 -4.391 217.2 -4.391Q218.2 -4.391 219.7 -4.719ZM220.2 0M246.3 -6.219L246.3 -0.9375Q241.7 0.6406 237 0.6406Q230 0.6406 226 -3.359Q222 -7.359 222 -14.33Q222 -20.77 225.5 -24.62Q229 -28.52 234.8 -28.52Q240.8 -28.52 243.6 -24.66Q246.3 -20.83 246.3 -12.44L230 -12.44Q230.8 -4.469 238.3 -4.469Q241.9 -4.469 246.3 -6.219M229.9 -16.69L239 -16.69Q239 -23.81 234.9 -23.81Q230.7 -23.81 229.9 -16.69ZM249.1 0M253.5 0L253.5 -27.88L261 -27.88L261 -23.27Q263.1 -28.52 267.3 -28.52Q267.8 -28.52 268.5 -28.36L268.5 -21.66Q267.1 -22.25 266.1 -22.25Q263.1 -22.25 261 -18.33L261 0L253.5 0Z" fill="#ffffff" transform="translate(64,310.5)"/><image href="https://cdn.jsdelivr.net/gh/twitter/twemoji@latest/assets/svg/1f680.svg" x="347.8" y="261.4" width="52" height="52"/><path d="M1.938 0L1.938 -17.34L7.484 -17.34Q16.25 -17.34 16.25 -9.078Q16.25 -4.766 13.95 -2.375Q11.69 0 7.531 0L1.938 0M4.391 -1.844L7.344 -1.844Q10.52 -1.844 12.06 -3.562Q13.61 -5.297 13.61 -8.844Q13.61 -11.91 12.12 -13.66Q11.23 -14.72 9.969 -15.11Q8.719 -15.5 6.219 -15.5L4.391 -15.5L4.391 -1.844ZM17.33 0M26.92 -7.734Q26.92 -11.28 24.05 -11.28Q21.08 -11.28 20.8 -7.734L26.92 -7.734M29.21 -2.234L29.21 -0.4062Q26.92 0.2969 24.78 0.2969Q21.84 0.2969 20.08 -1.562Q18.34 -3.406 18.34 -6.516Q18.34 -9.5 19.89 -11.25Q21.44 -13.02 24.08 -13.02Q29.27 -13.02 29.27 -6.719L29.27 -6L20.77 -6Q21.09 -1.469 25.33 -1.469Q27.16 -1.469 29.21 -2.234ZM30.67 0M34.78 4.625L32.48 4.625L32.48 -12.73L34.78 -12.73L34.78 -10.34Q36.17 -13.02 38.58 -13.02Q40.58 -13.02 41.78 -11.28Q43 -9.562 43 -6.734Q43 -3.359 41.44 -1.531Q39.87 0.2969 37 0.2969Q35.89 0.2969 34.78 0L34.78 4.625M34.78 -8.234L34.78 -1.75Q36.37 -1.438 37.19 -1.438Q40.5 -1.438 40.5 -6.516Q40.5 -8.594 39.84 -9.781Q39.2 -11 38.08 -11Q36.56 -11 34.78 -8.234ZM44.02 0M48.12 -3.938Q48.12 -3.266 48.25 -2.797Q48.36 -2.328 48.62 -2.016Q48.89 -1.719 49.27 -1.578Q49.66 -1.438 50.14 -1.453L50.14 0.2188Q49.89 0.2969 49.44 0.2969Q48.69 0.2969 47.98 0.03125Q47.31 -0.2188 46.81 -0.7031Q46.34 -1.203 46.08 -1.906Q45.83 -2.609 45.83 -3.516L45.83 -18.5L48.12 -18.5L48.12 -3.938ZM50.44 0M57.03 0.2969Q54.45 0.2969 52.95 -1.516Q51.45 -3.312 51.45 -6.359Q51.45 -9.453 52.95 -11.23Q54.48 -13.02 57.11 -13.02Q59.72 -13.02 61.25 -11.23Q62.77 -9.453 62.77 -6.391Q62.77 -3.25 61.25 -1.484Q59.72 0.2969 57.03 0.2969M57.06 -1.438Q60.27 -1.438 60.27 -6.422Q60.27 -11.28 57.11 -11.28Q53.94 -11.28 53.94 -6.359Q53.94 -1.438 57.06 -1.438ZM63.78 0M68.52 0L64 -12.73L66.34 -12.73L69.81 -2.969L73.61 -12.73L75.64 -12.73L68.92 4.625L66.52 4.625L68.52 0ZM82.45 0M85.66 0L82.58 -12.73L84.84 -12.73L87.14 -3.141L90.08 -12.73L92.38 -12.73L94.95 -3.109L97.62 -12.73L99.62 -12.73L96.04 0L93.73 0L91.03 -9.859L87.98 0L85.66 0ZM99.78 0M101.6 0L101.6 -12.73L103.9 -12.73L103.9 0L101.6 0M101.5 -15.03L101.5 -17.58L104 -17.58L104 -15.03L101.5 -15.03ZM105.7 0M111.9 0.07812Q111.2 0.2969 110.6 0.2969Q107.5 0.2969 107.5 -3.516L107.5 -11L106 -11L106 -12.73L107.5 -12.73L107.5 -15.39L109.8 -15.61L109.8 -12.73L112.6 -12.73L112.6 -11L109.8 -11L109.8 -3.938Q109.8 -2.422 110 -1.922Q110.3 -1.438 111.1 -1.438Q111.6 -1.438 111.9 -1.578L111.9 0.07812ZM112.5 0M114.3 0L114.3 -18.5L116.6 -18.5L116.6 -10.34Q118.4 -13.02 120.9 -13.02Q124.2 -13.02 124.2 -9.141L124.2 0L121.8 0L121.8 -8.391Q121.8 -9.922 121.5 -10.48Q121.2 -11.03 120.3 -11.03Q118.4 -11.03 116.6 -8.234L116.6 0L114.3 0ZM132.5 0M143.4 -0.3906Q141.3 0.2969 139.3 0.2969Q136.7 0.2969 135.1 -1.547Q133.5 -3.406 133.5 -6.344Q133.5 -9.484 135.1 -11.23Q136.8 -13.02 139.7 -13.02Q141.2 -13.02 143.2 -12.59L143.2 -10.67Q141.3 -11.23 140.2 -11.23Q136 -11.23 136 -6.344Q136 -4.062 137.1 -2.812Q138.2 -1.578 140.1 -1.578Q141.5 -1.578 143.4 -2.375L143.4 -0.3906ZM144.5 0M151.1 0.2969Q148.5 0.2969 147 -1.516Q145.5 -3.312 145.5 -6.359Q145.5 -9.453 147 -11.23Q148.5 -13.02 151.2 -13.02Q153.8 -13.02 155.3 -11.23Q156.8 -9.453 156.8 -6.391Q156.8 -3.25 155.3 -1.484Q153.8 0.2969 151.1 0.2969M151.1 -1.438Q154.3 -1.438 154.3 -6.422Q154.3 -11.28 151.2 -11.28Q148 -11.28 148 -6.359Q148 -1.438 151.1 -1.438ZM157.8 0M159.7 0L159.7 -12.73L162 -12.73L162 -10.34Q163.8 -13.02 166.3 -13.02Q169.5 -13.02 169.5 -9.141L169.5 0L167.2 0L167.2 -8.391Q167.2 -9.922 166.9 -10.48Q166.6 -11.03 165.7 -11.03Q163.7 -11.03 162 -8.234L162 0L159.7 0ZM171.2 0M173.2 0L173.2 -11L171.5 -11L171.5 -12.73L173.2 -12.73L173.2 -14.25Q173.2 -18.8 176.9 -18.8Q177.6 -18.8 178.6 -18.5L178.6 -16.66Q177.7 -17.06 177.1 -17.06Q176.2 -17.06 175.9 -16.48Q175.6 -15.92 175.6 -14.5L175.6 -12.73L178.2 -12.73L178.2 -11L175.6 -11L175.6 0L173.2 0ZM177.9 0M179.7 0L179.7 -12.73L182 -12.73L182 0L179.7 0M179.5 -15.03L179.5 -17.58L182.1 -17.58L182.1 -15.03L179.5 -15.03ZM183.8 0M193 -4.484L193 -10.98Q191.4 -11.28 190.6 -11.28Q187.3 -11.28 187.3 -6.203Q187.3 -4.141 187.9 -2.938Q188.6 -1.734 189.7 -1.734Q191.2 -1.734 193 -4.484M193 -2.375Q191.6 0.2969 189.2 0.2969Q187.2 0.2969 186 -1.438Q184.8 -3.172 184.8 -6Q184.8 -9.359 186.3 -11.19Q187.9 -13.02 190.8 -13.02Q191.9 -13.02 193 -12.73L193 -18.5L195.3 -18.5L195.3 0L193 0L193 -2.375ZM197.1 0M206.7 -7.734Q206.7 -11.28 203.8 -11.28Q200.9 -11.28 200.6 -7.734L206.7 -7.734M209 -2.234L209 -0.4062Q206.7 0.2969 204.6 0.2969Q201.6 0.2969 199.9 -1.562Q198.1 -3.406 198.1 -6.516Q198.1 -9.5 199.7 -11.25Q201.2 -13.02 203.9 -13.02Q209.1 -13.02 209.1 -6.719L209.1 -6L200.6 -6Q200.9 -1.469 205.1 -1.469Q207 -1.469 209 -2.234ZM210.5 0M212.3 0L212.3 -12.73L214.6 -12.73L214.6 -10.34Q216.4 -13.02 218.9 -13.02Q222.2 -13.02 222.2 -9.141L222.2 0L219.8 0L219.8 -8.391Q219.8 -9.922 219.5 -10.48Q219.2 -11.03 218.3 -11.03Q216.3 -11.03 214.6 -8.234L214.6 0L212.3 0ZM223.8 0M234.7 -0.3906Q232.7 0.2969 230.6 0.2969Q228 0.2969 226.4 -1.547Q224.8 -3.406 224.8 -6.344Q224.8 -9.484 226.5 -11.23Q228.1 -13.02 231 -13.02Q232.5 -13.02 234.5 -12.59L234.5 -10.67Q232.7 -11.23 231.5 -11.23Q227.4 -11.23 227.4 -6.344Q227.4 -4.062 228.4 -2.812Q229.5 -1.578 231.4 -1.578Q232.8 -1.578 234.7 -2.375L234.7 -0.3906ZM235.8 0M245.4 -7.734Q245.4 -11.28 242.5 -11.28Q239.6 -11.28 239.3 -7.734L245.4 -7.734M247.7 -2.234L247.7 -0.4062Q245.4 0.2969 243.3 0.2969Q240.3 0.2969 238.6 -1.562Q236.8 -3.406 236.8 -6.516Q236.8 -9.5 238.4 -11.25Q239.9 -13.02 242.6 -13.02Q247.8 -13.02 247.8 -6.719L247.8 -6L239.3 -6Q239.6 -1.469 243.8 -1.469Q245.6 -1.469 247.7 -2.234Z" fill="#a1a1aa" transform="translate(64,362.5)"/><image href="https://cdn.jsdelivr.net/gh/twitter/twemoji@latest/assets/svg/2728.svg" x="319.8" y="339.8" width="24" height="24"/><path d="M6.672 0M8.61 0L8.61 -17.34L12.02 -17.34L16.78 -3.922L21.69 -17.34L24.73 -17.34L24.73 0L22.44 0L22.44 -14.09L17.7 -1.156L15.33 -1.156L10.73 -14.14L10.73 0L8.61 0ZM26.67 0M33.27 0.2969Q30.69 0.2969 29.19 -1.516Q27.69 -3.312 27.69 -6.359Q27.69 -9.453 29.19 -11.23Q30.72 -13.02 33.34 -13.02Q35.95 -13.02 37.48 -11.23Q39 -9.453 39 -6.391Q39 -3.25 37.48 -1.484Q35.95 0.2969 33.27 0.2969M33.3 -1.438Q36.5 -1.438 36.5 -6.422Q36.5 -11.28 33.34 -11.28Q30.17 -11.28 30.17 -6.359Q30.17 -1.438 33.3 -1.438ZM40.02 0M41.83 0L41.83 -12.73L44.12 -12.73L44.12 -10.34Q45.97 -13.02 48.44 -13.02Q51.71 -13.02 51.71 -9.141L51.71 0L49.37 0L49.37 -8.391Q49.37 -9.922 49.05 -10.48Q48.73 -11.03 47.84 -11.03Q45.89 -11.03 44.12 -8.234L44.12 0L41.83 0ZM53.36 0M55.17 0L55.17 -12.73L57.47 -12.73L57.47 0L55.17 0M55.05 -15.03L55.05 -17.58L57.59 -17.58L57.59 -15.03L55.05 -15.03ZM59.28 0M65.5 0.07812Q64.81 0.2969 64.2 0.2969Q61.06 0.2969 61.06 -3.516L61.06 -11L59.58 -11L59.58 -12.73L61.06 -12.73L61.06 -15.39L63.38 -15.61L63.38 -12.73L66.19 -12.73L66.19 -11L63.38 -11L63.38 -3.938Q63.38 -2.422 63.63 -1.922Q63.89 -1.438 64.7 -1.438Q65.17 -1.438 65.5 -1.578L65.5 0.07812ZM66.06 0M72.66 0.2969Q70.08 0.2969 68.58 -1.516Q67.08 -3.312 67.08 -6.359Q67.08 -9.453 68.58 -11.23Q70.11 -13.02 72.73 -13.02Q75.34 -13.02 76.87 -11.23Q78.39 -9.453 78.39 -6.391Q78.39 -3.25 76.87 -1.484Q75.34 0.2969 72.66 0.2969M72.69 -1.438Q75.89 -1.438 75.89 -6.422Q75.89 -11.28 72.73 -11.28Q69.56 -11.28 69.56 -6.359Q69.56 -1.438 72.69 -1.438ZM79.41 0M81.22 0L81.22 -12.73L83.52 -12.73L83.52 -10.34Q84.58 -13.02 86.56 -13.02Q86.84 -13.02 87.23 -12.95L87.23 -10.8Q86.64 -11 86.27 -11Q84.92 -11 83.52 -8.391L83.52 0L81.22 0ZM94.08 0M95.89 0L95.89 -12.73L98.19 -12.73L98.19 0L95.89 0M95.77 -15.03L95.77 -17.58L98.31 -17.58L98.31 -15.03L95.77 -15.03ZM100 0M101.8 0L101.8 -12.73L104.1 -12.73L104.1 -10.34Q106 -13.02 108.4 -13.02Q111.7 -13.02 111.7 -9.141L111.7 0L109.4 0L109.4 -8.391Q109.4 -9.922 109 -10.48Q108.7 -11.03 107.8 -11.03Q105.9 -11.03 104.1 -8.234L104.1 0L101.8 0ZM120 0M121.8 0L121.8 -12.73L124.1 -12.73L124.1 -10.34Q125.2 -13.02 127.2 -13.02Q127.5 -13.02 127.8 -12.95L127.8 -10.8Q127.2 -11 126.9 -11Q125.5 -11 124.1 -8.391L124.1 0L121.8 0ZM128 0M137.6 -7.734Q137.6 -11.28 134.7 -11.28Q131.8 -11.28 131.5 -7.734L137.6 -7.734M139.9 -2.234L139.9 -0.4062Q137.6 0.2969 135.5 0.2969Q132.5 0.2969 130.8 -1.562Q129 -3.406 129 -6.516Q129 -9.5 130.6 -11.25Q132.1 -13.02 134.8 -13.02Q140 -13.02 140 -6.719L140 -6L131.5 -6Q131.8 -1.469 136 -1.469Q137.8 -1.469 139.9 -2.234ZM141.4 0M150.4 -1.625Q148.3 0.2969 146.2 0.2969Q144.6 0.2969 143.5 -0.6875Q142.5 -1.656 142.5 -3.219Q142.5 -7.531 149.5 -7.531L150.1 -7.531L150.1 -9.062Q150.1 -11.28 147.7 -11.28Q145.7 -11.28 143.6 -10.16L143.6 -12.06Q145.9 -13.02 148.1 -13.02Q150.3 -13.02 151.4 -12.06Q152.4 -11.12 152.4 -9.062L152.4 -3.297Q152.4 -1.312 153.6 -1.312Q153.8 -1.312 154.1 -1.359L154.2 -0.07812Q153.4 0.2969 152.5 0.2969Q150.9 0.2969 150.4 -1.625M150.1 -2.875L150.1 -6.172L149.3 -6.188Q144.9 -6.188 144.9 -3.609Q144.9 -1.594 147 -1.594Q148.5 -1.594 150.1 -2.875ZM154.7 0M158.8 -3.938Q158.8 -3.266 158.9 -2.797Q159 -2.328 159.3 -2.016Q159.6 -1.719 160 -1.578Q160.3 -1.438 160.8 -1.453L160.8 0.2188Q160.6 0.2969 160.1 0.2969Q159.4 0.2969 158.7 0.03125Q158 -0.2188 157.5 -0.7031Q157 -1.203 156.8 -1.906Q156.5 -2.609 156.5 -3.516L156.5 -18.5L158.8 -18.5L158.8 -3.938ZM161.1 0M162.3 -6.078L162.3 -7.812L173.9 -7.812L173.9 -6.078L162.3 -6.078ZM175.1 0M181.4 0.07812Q180.7 0.2969 180.1 0.2969Q176.9 0.2969 176.9 -3.516L176.9 -11L175.4 -11L175.4 -12.73L176.9 -12.73L176.9 -15.39L179.2 -15.61L179.2 -12.73L182 -12.73L182 -11L179.2 -11L179.2 -3.938Q179.2 -2.422 179.5 -1.922Q179.7 -1.438 180.6 -1.438Q181 -1.438 181.4 -1.578L181.4 0.07812ZM181.9 0M183.7 0L183.7 -12.73L186 -12.73L186 0L183.7 0M183.6 -15.03L183.6 -17.58L186.2 -17.58L186.2 -15.03L183.6 -15.03ZM187.8 0M189.7 0L189.7 -12.73L192 -12.73L192 -10.34Q193 -11.97 193.7 -12.48Q194.5 -13.02 195.7 -13.02Q198.2 -13.02 199.1 -10.34Q200.1 -11.97 200.9 -12.48Q201.6 -13.02 202.8 -13.02Q206.2 -13.02 206.2 -9.266L206.2 0L203.9 0L203.9 -8.891Q203.9 -11.09 202.1 -11.09Q200.6 -11.09 199.1 -8.531L199.1 0L196.7 0L196.7 -8.891Q196.7 -11.09 195 -11.09Q193.5 -11.09 192 -8.531L192 0L189.7 0ZM207.8 0M217.4 -7.734Q217.4 -11.28 214.6 -11.28Q211.6 -11.28 211.3 -7.734L217.4 -7.734M219.7 -2.234L219.7 -0.4062Q217.4 0.2969 215.3 0.2969Q212.4 0.2969 210.6 -1.562Q208.9 -3.406 208.9 -6.516Q208.9 -9.5 210.4 -11.25Q212 -13.02 214.6 -13.02Q219.8 -13.02 219.8 -6.719L219.8 -6L211.3 -6Q211.6 -1.469 215.8 -1.469Q217.7 -1.469 219.7 -2.234Z" fill="#a1a1aa" transform="translate(343.8,362.5)"/><image href="https://cdn.jsdelivr.net/gh/twitter/twemoji@latest/assets/svg/1f4ca.svg" x="571.7" y="339.8" width="24" height="24"/><path d="M6.672 0M8.078 -0.6094L8.078 -3.047Q11.42 -1.406 15 -1.406Q18.7 -1.406 18.7 -4.203Q18.7 -5.453 17.98 -6.094Q17.26 -6.75 15.06 -7.469L12.7 -8.234Q8.172 -9.734 8.172 -13.06Q8.172 -17.78 14.5 -17.78Q17.36 -17.78 20.15 -17.05L20.15 -14.78Q17.25 -15.94 14.34 -15.94Q10.55 -15.94 10.55 -13.36Q10.55 -12.31 11.25 -11.7Q11.97 -11.08 13.87 -10.44L16.28 -9.656Q19.01 -8.766 20.12 -7.625Q21.23 -6.484 21.23 -4.578Q21.23 -2.25 19.53 -0.9062Q17.83 0.4375 14.91 0.4375Q11.77 0.4375 8.078 -0.6094ZM22.69 0M33.55 -0.3906Q31.53 0.2969 29.47 0.2969Q26.91 0.2969 25.3 -1.547Q23.7 -3.406 23.7 -6.344Q23.7 -9.484 25.33 -11.23Q26.97 -13.02 29.88 -13.02Q31.42 -13.02 33.41 -12.59L33.41 -10.67Q31.53 -11.23 30.36 -11.23Q26.23 -11.23 26.23 -6.344Q26.23 -4.062 27.31 -2.812Q28.38 -1.578 30.25 -1.578Q31.7 -1.578 33.55 -2.375L33.55 -0.3906ZM34.69 0M43.77 -1.625Q41.67 0.2969 39.56 0.2969Q37.89 0.2969 36.84 -0.6875Q35.8 -1.656 35.8 -3.219Q35.8 -7.531 42.88 -7.531L43.42 -7.531L43.42 -9.062Q43.42 -11.28 41 -11.28Q39.02 -11.28 36.91 -10.16L36.91 -12.06Q39.23 -13.02 41.39 -13.02Q43.67 -13.02 44.71 -12.06Q45.74 -11.12 45.74 -9.062L45.74 -3.297Q45.74 -1.312 46.96 -1.312Q47.1 -1.312 47.39 -1.359L47.57 -0.07812Q46.77 0.2969 45.81 0.2969Q44.2 0.2969 43.77 -1.625M43.42 -2.875L43.42 -6.172L42.66 -6.188Q38.19 -6.188 38.19 -3.609Q38.19 -1.594 40.34 -1.594Q41.84 -1.594 43.42 -2.875ZM48.03 0M52.14 -3.938Q52.14 -3.266 52.27 -2.797Q52.38 -2.328 52.64 -2.016Q52.91 -1.719 53.28 -1.578Q53.67 -1.438 54.16 -1.453L54.16 0.2188Q53.91 0.2969 53.45 0.2969Q52.7 0.2969 52 0.03125Q51.33 -0.2188 50.83 -0.7031Q50.36 -1.203 50.09 -1.906Q49.84 -2.609 49.84 -3.516L49.84 -18.5L52.14 -18.5L52.14 -3.938ZM54.45 0M64.05 -7.734Q64.05 -11.28 61.17 -11.28Q58.2 -11.28 57.92 -7.734L64.05 -7.734M66.33 -2.234L66.33 -0.4062Q64.05 0.2969 61.91 0.2969Q58.97 0.2969 57.2 -1.562Q55.47 -3.406 55.47 -6.516Q55.47 -9.5 57.02 -11.25Q58.56 -13.02 61.2 -13.02Q66.39 -13.02 66.39 -6.719L66.39 -6L57.89 -6Q58.22 -1.469 62.45 -1.469Q64.28 -1.469 66.33 -2.234ZM74.47 0M83.55 -1.625Q81.45 0.2969 79.34 0.2969Q77.67 0.2969 76.62 -0.6875Q75.58 -1.656 75.58 -3.219Q75.58 -7.531 82.66 -7.531L83.2 -7.531L83.2 -9.062Q83.2 -11.28 80.78 -11.28Q78.8 -11.28 76.69 -10.16L76.69 -12.06Q79.02 -13.02 81.17 -13.02Q83.45 -13.02 84.49 -12.06Q85.52 -11.12 85.52 -9.062L85.52 -3.297Q85.52 -1.312 86.74 -1.312Q86.88 -1.312 87.17 -1.359L87.35 -0.07812Q86.55 0.2969 85.59 0.2969Q83.98 0.2969 83.55 -1.625M83.2 -2.875L83.2 -6.172L82.44 -6.188Q77.97 -6.188 77.97 -3.609Q77.97 -1.594 80.12 -1.594Q81.62 -1.594 83.2 -2.875ZM87.81 0M97.03 0L97.03 -2.375Q95.2 0.2969 92.73 0.2969Q89.48 0.2969 89.48 -3.594L89.48 -12.73L91.78 -12.73L91.78 -4.344Q91.78 -2.797 92.11 -2.25Q92.44 -1.703 93.33 -1.703Q95.3 -1.703 97.03 -4.484L97.03 -12.73L99.34 -12.73L99.34 0L97.03 0ZM101.2 0M107.4 0.07812Q106.7 0.2969 106.1 0.2969Q102.9 0.2969 102.9 -3.516L102.9 -11L101.5 -11L101.5 -12.73L102.9 -12.73L102.9 -15.39L105.3 -15.61L105.3 -12.73L108.1 -12.73L108.1 -11L105.3 -11L105.3 -3.938Q105.3 -2.422 105.5 -1.922Q105.8 -1.438 106.6 -1.438Q107 -1.438 107.4 -1.578L107.4 0.07812ZM107.9 0M114.5 0.2969Q112 0.2969 110.5 -1.516Q109 -3.312 109 -6.359Q109 -9.453 110.5 -11.23Q112 -13.02 114.6 -13.02Q117.2 -13.02 118.7 -11.23Q120.3 -9.453 120.3 -6.391Q120.3 -3.25 118.7 -1.484Q117.2 0.2969 114.5 0.2969M114.6 -1.438Q117.8 -1.438 117.8 -6.422Q117.8 -11.28 114.6 -11.28Q111.4 -11.28 111.4 -6.359Q111.4 -1.438 114.6 -1.438ZM121.3 0M123.1 0L123.1 -12.73L125.4 -12.73L125.4 -10.34Q126.5 -11.97 127.2 -12.48Q127.9 -13.02 129.1 -13.02Q131.6 -13.02 132.5 -10.34Q133.6 -11.97 134.3 -12.48Q135 -13.02 136.2 -13.02Q139.6 -13.02 139.6 -9.266L139.6 0L137.3 0L137.3 -8.891Q137.3 -11.09 135.6 -11.09Q134.1 -11.09 132.5 -8.531L132.5 0L130.2 0L130.2 -8.891Q130.2 -11.09 128.4 -11.09Q126.9 -11.09 125.4 -8.531L125.4 0L123.1 0ZM141.3 0M150.4 -1.625Q148.3 0.2969 146.2 0.2969Q144.5 0.2969 143.4 -0.6875Q142.4 -1.656 142.4 -3.219Q142.4 -7.531 149.5 -7.531L150 -7.531L150 -9.062Q150 -11.28 147.6 -11.28Q145.6 -11.28 143.5 -10.16L143.5 -12.06Q145.8 -13.02 148 -13.02Q150.3 -13.02 151.3 -12.06Q152.3 -11.12 152.3 -9.062L152.3 -3.297Q152.3 -1.312 153.6 -1.312Q153.7 -1.312 154 -1.359L154.2 -0.07812Q153.4 0.2969 152.4 0.2969Q150.8 0.2969 150.4 -1.625M150 -2.875L150 -6.172L149.3 -6.188Q144.8 -6.188 144.8 -3.609Q144.8 -1.594 146.9 -1.594Q148.4 -1.594 150 -2.875ZM154.6 0M160.8 0.07812Q160.2 0.2969 159.5 0.2969Q156.4 0.2969 156.4 -3.516L156.4 -11L154.9 -11L154.9 -12.73L156.4 -12.73L156.4 -15.39L158.7 -15.61L158.7 -12.73L161.5 -12.73L161.5 -11L158.7 -11L158.7 -3.938Q158.7 -2.422 159 -1.922Q159.2 -1.438 160 -1.438Q160.5 -1.438 160.8 -1.578L160.8 0.07812ZM161.4 0M163.2 0L163.2 -12.73L165.5 -12.73L165.5 0L163.2 0M163.1 -15.03L163.1 -17.58L165.6 -17.58L165.6 -15.03L163.1 -15.03ZM167.3 0M178.2 -0.3906Q176.2 0.2969 174.1 0.2969Q171.5 0.2969 169.9 -1.547Q168.3 -3.406 168.3 -6.344Q168.3 -9.484 170 -11.23Q171.6 -13.02 174.5 -13.02Q176.1 -13.02 178 -12.59L178 -10.67Q176.2 -11.23 175 -11.23Q170.9 -11.23 170.9 -6.344Q170.9 -4.062 172 -2.812Q173 -1.578 174.9 -1.578Q176.3 -1.578 178.2 -2.375L178.2 -0.3906ZM179.3 0M188.4 -1.625Q186.3 0.2969 184.2 0.2969Q182.5 0.2969 181.5 -0.6875Q180.4 -1.656 180.4 -3.219Q180.4 -7.531 187.5 -7.531L188.1 -7.531L188.1 -9.062Q188.1 -11.28 185.6 -11.28Q183.7 -11.28 181.5 -10.16L181.5 -12.06Q183.9 -13.02 186 -13.02Q188.3 -13.02 189.3 -12.06Q190.4 -11.12 190.4 -9.062L190.4 -3.297Q190.4 -1.312 191.6 -1.312Q191.7 -1.312 192 -1.359L192.2 -0.07812Q191.4 0.2969 190.4 0.2969Q188.8 0.2969 188.4 -1.625M188.1 -2.875L188.1 -6.172L187.3 -6.188Q182.8 -6.188 182.8 -3.609Q182.8 -1.594 185 -1.594Q186.5 -1.594 188.1 -2.875ZM192.7 0M196.8 -3.938Q196.8 -3.266 196.9 -2.797Q197 -2.328 197.3 -2.016Q197.5 -1.719 197.9 -1.578Q198.3 -1.438 198.8 -1.453L198.8 0.2188Q198.5 0.2969 198.1 0.2969Q197.3 0.2969 196.6 0.03125Q196 -0.2188 195.5 -0.7031Q195 -1.203 194.7 -1.906Q194.5 -2.609 194.5 -3.516L194.5 -18.5L196.8 -18.5L196.8 -3.938ZM199.1 0M203.2 -3.938Q203.2 -3.266 203.3 -2.797Q203.4 -2.328 203.7 -2.016Q204 -1.719 204.3 -1.578Q204.7 -1.438 205.2 -1.453L205.2 0.2188Q205 0.2969 204.5 0.2969Q203.8 0.2969 203.1 0.03125Q202.4 -0.2188 201.9 -0.7031Q201.4 -1.203 201.2 -1.906Q200.9 -2.609 200.9 -3.516L200.9 -18.5L203.2 -18.5L203.2 -3.938ZM205.5 0M210.2 0L205.7 -12.73L208.1 -12.73L211.5 -2.969L215.3 -12.73L217.4 -12.73L210.7 4.625L208.2 4.625L210.2 0Z" fill="#a1a1aa" transform="translate(595.7,362.5)"/><image href="https://cdn.jsdelivr.net/gh/twitter/twemoji@latest/assets/svg/26a1.svg" x="819.9" y="339.8" width="24" height="24"/></svg>