<svg xmlns="http://www.w3.org/2000/svg" width="1200" height="630" viewBox="0 0 1200 630"><rect x="0" y="0" width="1200" height="630" fill="#0d1117"/><rect x="64" y="64" width="48" height="48" fill="#238636" rx="24" ry="24"/><path d="M4.906 0L0.2969 -12.88L3.953 -12.88L7.203 -3.812L10.47 -12.88L13.05 -12.88L8.375 0L4.906 0ZM13.34 0M25.42 -2.875L25.42 -0.4375Q23.28 0.2969 21.12 0.2969Q17.91 0.2969 16.05 -1.547Q14.22 -3.406 14.22 -6.609Q14.22 -9.594 15.81 -11.38Q17.44 -13.16 20.11 -13.16Q22.87 -13.16 24.15 -11.38Q25.42 -9.609 25.42 -5.75L17.87 -5.75Q18.23 -2.062 21.72 -2.062Q23.37 -2.062 25.42 -2.875M17.83 -7.703L22.02 -7.703Q22.02 -11 20.16 -11Q18.19 -11 17.83 -7.703ZM26.69 0M28.72 0L28.72 -12.88L32.19 -12.88L32.19 -10.73Q33.16 -13.16 35.06 -13.16Q35.34 -13.16 35.66 -13.09L35.66 -10Q35 -10.27 34.55 -10.27Q33.16 -10.27 32.19 -8.469L32.19 0L28.72 0ZM36.03 0M48.41 -2.688L48.41 -0.2812Q45.92 0.2969 44.02 0.2969Q40.61 0.2969 38.75 -1.469Q36.91 -3.234 36.91 -6.453Q36.91 -13.16 44.27 -13.16Q46.31 -13.16 48.3 -12.66L48.3 -10.16Q45.86 -10.84 44.52 -10.84Q40.59 -10.84 40.59 -6.453Q40.59 -4.375 41.72 -3.188Q42.86 -2 44.84 -2Q46.25 -2 48.41 -2.688ZM49.38 0M61.45 -2.875L61.45 -0.4375Q59.31 0.2969 57.16 0.2969Q53.94 0.2969 52.08 -1.547Q50.25 -3.406 50.25 -6.609Q50.25 -9.594 51.84 -11.38Q53.47 -13.16 56.14 -13.16Q58.91 -13.16 60.19 -11.38Q61.45 -9.609 61.45 -5.75L53.91 -5.75Q54.27 -2.062 57.75 -2.062Q59.41 -2.062 61.45 -2.875M53.86 -7.703L58.05 -7.703Q58.05 -11 56.19 -11Q54.22 -11 53.86 -7.703ZM62.72 0M69.64 -2.141L69.64 0Q68.86 0.2969 67.97 0.2969Q64.3 0.2969 64.3 -3.922L64.3 -18.5L67.77 -18.5L67.77 -4.391Q67.77 -2.938 68.02 -2.469Q68.27 -2.031 69.03 -2.031Q69.36 -2.031 69.64 -2.141ZM76.55 0M76.55 1.438L80.87 -16.48L83.22 -16.48L78.89 1.438L76.55 1.438ZM89.89 0M91.62 0L91.62 -12.88L95.09 -12.88L95.09 -10.73Q97.08 -13.16 99.47 -13.16Q103 -13.16 103 -9.094L103 0L99.5 0L99.5 -8.234Q99.5 -9.5 99.2 -9.969Q98.91 -10.44 98.11 -10.44Q96.7 -10.44 95.09 -8.391L95.09 0L91.62 0ZM104.5 0M116.6 -2.875L116.6 -0.4375Q114.5 0.2969 112.3 0.2969Q109.1 0.2969 107.2 -1.547Q105.4 -3.406 105.4 -6.609Q105.4 -9.594 107 -11.38Q108.6 -13.16 111.3 -13.16Q114.1 -13.16 115.4 -11.38Q116.6 -9.609 116.6 -5.75L109.1 -5.75Q109.4 -2.062 112.9 -2.062Q114.6 -2.062 116.6 -2.875M109 -7.703L113.2 -7.703Q113.2 -11 111.4 -11Q109.4 -11 109 -7.703ZM117.9 0M118.5 0L122.7 -6.453L118.6 -12.88L122.6 -12.88L125.1 -8.797L127.6 -12.88L130.4 -12.88L126.6 -6.547L130.7 0L126.7 0L124.1 -4.25L121.3 0L118.5 0ZM131.2 0M139 -2.188L139 -0.01562Q137.7 0.2969 136.8 0.2969Q133.1 0.2969 133.1 -3.922L133.1 -10.7L131.7 -10.7L131.7 -12.88L133.1 -12.88L133.1 -15.39L136.6 -15.78L136.6 -12.88L139.1 -12.88L139.1 -10.7L136.6 -10.7L136.6 -4.391Q136.6 -2.938 136.8 -2.469Q137.1 -2.031 137.9 -2.031Q138.3 -2.031 139 -2.188ZM139.2 0M140.7 0L140.7 -3.766L144.5 -3.766L144.5 0L140.7 0ZM145.9 0M144.2 4.438L144.2 2.125Q145.5 2.75 146 2.75Q147 2.75 147.3 2.156Q147.6 1.578 147.6 0L147.6 -12.88L151.1 -12.88L151.1 -0.2188Q151.1 4.906 146.5 4.906Q145.5 4.906 144.2 4.438M147.5 -15.22L147.5 -18.5L151.2 -18.5L151.2 -15.22L147.5 -15.22ZM152.8 0M154.3 -0.4219L154.3 -2.953Q157 -1.875 158.8 -1.875Q161.4 -1.875 161.4 -3.281Q161.4 -4.141 159.3 -4.969L158.2 -5.438Q155.8 -6.406 155 -7.125Q154.3 -7.844 154.3 -9.266Q154.3 -13.16 159.7 -13.16Q161.6 -13.16 163.9 -12.7L163.9 -10.33Q161.4 -11 160.2 -11Q157.7 -11 157.7 -9.688Q157.7 -8.891 159.6 -8.172L160.6 -7.781Q163.2 -6.812 164.1 -5.984Q165 -5.156 165 -3.703Q165 -1.875 163.3 -0.7812Q161.7 0.2969 159 0.2969Q156.6 0.2969 154.3 -0.4219Z" fill="#f0f6fc" transform="translate(126,96.27)"/><path d="M11.06 0L11.06 -29.7L0.9375 -29.7L0.9375 -34.69L28.41 -34.69L28.41 -29.7L18.28 -29.7L18.28 0L11.06 0ZM29.33 0M32.8 0L32.8 -37.02L39.74 -37.02L39.74 -21.47Q43.71 -26.33 48.49 -26.33Q55.49 -26.33 55.49 -18.19L55.49 0L48.55 0L48.55 -16.48Q48.55 -18.98 47.94 -19.92Q47.36 -20.86 45.77 -20.86Q42.95 -20.86 39.74 -16.78L39.74 0L32.8 0ZM58.66 0M82.83 -5.75L82.83 -0.875Q78.54 0.5938 74.22 0.5938Q67.78 0.5938 64.08 -3.094Q60.39 -6.797 60.39 -13.22Q60.39 -19.17 63.61 -22.73Q66.84 -26.33 72.19 -26.33Q77.72 -26.33 80.27 -22.77Q82.83 -19.22 82.83 -11.48L67.7 -11.48Q68.44 -4.125 75.43 -4.125Q78.72 -4.125 82.83 -5.75M67.64 -15.41L76 -15.41Q76 -21.98 72.28 -21.98Q68.34 -21.98 67.64 -15.41ZM98.7 0M102.8 0L102.8 -34.69L117.9 -34.69Q128.5 -34.69 128.5 -26.09Q128.5 -19.22 121.7 -16.2L133.1 0L125 0L115.2 -14.19L109.6 -14.19L109.6 0L102.8 0M109.6 -18.94L113.4 -18.94Q121.2 -18.94 121.2 -25.3Q121.2 -29.94 114.2 -29.94L109.6 -29.94L109.6 -18.94ZM133.4 0M157.5 -5.75L157.5 -0.875Q153.3 0.5938 148.9 0.5938Q142.5 0.5938 138.8 -3.094Q135.1 -6.797 135.1 -13.22Q135.1 -19.17 138.3 -22.73Q141.6 -26.33 146.9 -26.33Q152.4 -26.33 155 -22.77Q157.5 -19.22 157.5 -11.48L142.4 -11.48Q143.2 -4.125 150.1 -4.125Q153.4 -4.125 157.5 -5.75M142.4 -15.41L150.7 -15.41Q150.7 -21.98 147 -21.98Q143.1 -21.98 142.4 -15.41ZM160.1 0M185.3 -3.969L185.5 -0.07812Q183.3 0.5938 181.6 0.5938Q177.3 0.5938 176.1 -2.766L175.8 -2.766Q173.3 0.5938 169.3 0.5938Q165.9 0.5938 163.8 -1.484Q161.7 -3.562 161.7 -6.938Q161.7 -15.7 173.9 -15.7L175.8 -15.7L175.8 -18.05Q175.8 -22.06 171.7 -22.06Q168.1 -22.06 164 -19.77L164 -24.55Q168.2 -26.33 172.9 -26.33Q182.4 -26.33 182.4 -18.28L182.4 -6.891Q182.4 -3.875 184.4 -3.875Q184.7 -3.875 185.3 -3.969M175.8 -6.5L175.8 -11.72L174.1 -11.72Q168.4 -11.72 168.4 -7.547Q168.4 -6.078 169.3 -5.094Q170.3 -4.125 171.8 -4.125Q174.2 -4.125 175.8 -6.5ZM186.8 0M211.5 -5.375L211.5 -0.5625Q206.6 0.5938 202.8 0.5938Q196 0.5938 192.2 -2.938Q188.5 -6.469 188.5 -12.89Q188.5 -26.33 203.3 -26.33Q207.3 -26.33 211.3 -25.31L211.3 -20.3Q206.4 -21.69 203.8 -21.69Q195.9 -21.69 195.9 -12.92Q195.9 -8.75 198.2 -6.375Q200.4 -4.016 204.4 -4.016Q207.2 -4.016 211.5 -5.375ZM213.5 0M229.1 -4.359L229.1 -0.03125Q226.4 0.5938 224.6 0.5938Q217.3 0.5938 217.3 -7.859L217.3 -21.41L214.5 -21.41L214.5 -25.73L217.3 -25.73L217.3 -30.78L224.2 -31.58L224.2 -25.73L229.1 -25.73L229.1 -21.41L224.2 -21.41L224.2 -8.766Q224.2 -5.859 224.7 -4.953Q225.2 -4.062 226.8 -4.062Q227.7 -4.062 229.1 -4.359ZM242.8 0M246.9 0L246.9 -34.69L271.1 -34.69L271.1 -29.94L254.1 -29.94L254.1 -19.39L268.5 -19.39L268.5 -14.61L254.1 -14.61L254.1 0L246.9 0ZM272.1 0M276.2 0L276.2 -25.73L283.1 -25.73L283.1 -21.47Q285.1 -26.33 288.9 -26.33Q289.4 -26.33 290.1 -26.19L290.1 -20Q288.8 -20.53 287.9 -20.53Q285.1 -20.53 283.1 -16.92L283.1 0L276.2 0ZM290.8 0M316 -3.969L316.2 -0.07812Q314 0.5938 312.3 0.5938Q308.1 0.5938 306.8 -2.766L306.5 -2.766Q304 0.5938 300.1 0.5938Q296.6 0.5938 294.5 -1.484Q292.5 -3.562 292.5 -6.938Q292.5 -15.7 304.7 -15.7L306.5 -15.7L306.5 -18.05Q306.5 -22.06 302.5 -22.06Q298.9 -22.06 294.7 -19.77L294.7 -24.55Q299 -26.33 303.6 -26.33Q313.2 -26.33 313.2 -18.28L313.2 -6.891Q313.2 -3.875 315.1 -3.875Q315.5 -3.875 316 -3.969M306.5 -6.5L306.5 -11.72L304.9 -11.72Q299.1 -11.72 299.1 -7.547Q299.1 -6.078 300.1 -5.094Q301 -4.125 302.5 -4.125Q304.9 -4.125 306.5 -6.5ZM317.5 0M321 0L321 -25.73L327.9 -25.73L327.9 -21.47Q331.1 -26.33 335.8 -26.33Q341 -26.33 342.5 -21.41Q345.4 -26.33 350.4 -26.33Q357 -26.33 357 -18.19L357 0L350.1 0L350.1 -16.48Q350.1 -19.06 349.6 -19.95Q349.1 -20.86 347.7 -20.86Q344.8 -20.86 342.5 -16.78L342.5 0L335.6 0L335.6 -16.48Q335.6 -19.06 335.1 -19.95Q334.6 -20.86 333.2 -20.86Q330.2 -20.86 327.9 -16.78L327.9 0L321 0ZM360.2 0M384.4 -5.75L384.4 -0.875Q380.1 0.5938 375.8 0.5938Q369.3 0.5938 365.6 -3.094Q362 -6.797 362 -13.22Q362 -19.17 365.2 -22.73Q368.4 -26.33 373.7 -26.33Q379.3 -26.33 381.8 -22.77Q384.4 -19.22 384.4 -11.48L369.3 -11.48Q370 -4.125 377 -4.125Q380.3 -4.125 384.4 -5.75M369.2 -15.41L377.6 -15.41Q377.6 -21.98 373.8 -21.98Q369.9 -21.98 369.2 -15.41ZM386.9 0M394.6 0L388.4 -25.73L394.6 -25.73L399 -7.719L403.5 -25.73L409.5 -25.73L413.5 -7.625L418.2 -25.73L422.8 -25.73L416.1 0L409.5 0L405.7 -17.66L401.3 0L394.6 0ZM424.3 0M438.8 0.5938Q433 0.5938 429.5 -3.094Q426 -6.797 426 -12.88Q426 -19.02 429.5 -22.67Q433 -26.33 438.9 -26.33Q444.8 -26.33 448.3 -22.67Q451.9 -19.02 451.9 -12.92Q451.9 -6.703 448.3 -3.047Q444.8 0.5938 438.8 0.5938M438.9 -3.75Q441.5 -3.75 443 -6.188Q444.5 -8.656 444.5 -12.92Q444.5 -17.06 443 -19.53Q441.5 -21.98 438.9 -21.98Q436.4 -21.98 434.9 -19.53Q433.4 -17.06 433.4 -12.88Q433.4 -8.719 434.9 -6.234Q436.4 -3.75 438.9 -3.75ZM453.6 0M457.7 0L457.7 -25.73L464.6 -25.73L464.6 -21.47Q466.5 -26.33 470.4 -26.33Q470.9 -26.33 471.5 -26.19L471.5 -20Q470.2 -20.53 469.3 -20.53Q466.5 -20.53 464.6 -16.92L464.6 0L457.7 0ZM472.3 0M475.8 0L475.8 -37.02L482.7 -37.02L482.7 -13.73L483.1 -13.73L491.2 -25.73L497 -25.73L489.5 -14.56L498.8 0L491.4 0L483.1 -12.88L482.7 -12.88L482.7 0L475.8 0ZM512.3 0M516.2 0L516.2 -21.41L513.5 -21.41L513.5 -25.73L516.2 -25.73L516.2 -27.59Q516.2 -37.59 525.4 -37.59Q527.3 -37.59 529.6 -36.98L529.6 -32.48Q527.7 -33.27 526.1 -33.27Q523.2 -33.27 523.2 -27.84L523.2 -25.73L527.5 -25.73L527.5 -21.41L523.2 -21.41L523.2 0L516.2 0ZM528.3 0M542.8 0.5938Q537.1 0.5938 533.5 -3.094Q530 -6.797 530 -12.88Q530 -19.02 533.6 -22.67Q537.1 -26.33 543 -26.33Q548.8 -26.33 552.4 -22.67Q555.9 -19.02 555.9 -12.92Q555.9 -6.703 552.4 -3.047Q548.8 0.5938 542.8 0.5938M542.9 -3.75Q545.5 -3.75 547 -6.188Q548.5 -8.656 548.5 -12.92Q548.5 -17.06 547 -19.53Q545.5 -21.98 543 -21.98Q540.4 -21.98 538.9 -19.53Q537.4 -17.06 537.4 -12.88Q537.4 -8.719 538.9 -6.234Q540.4 -3.75 542.9 -3.75ZM557.6 0M561.7 0L561.7 -25.73L568.6 -25.73L568.6 -21.47Q570.6 -26.33 574.4 -26.33Q574.9 -26.33 575.6 -26.19L575.6 -20Q574.3 -20.53 573.4 -20.53Q570.6 -20.53 568.6 -16.92L568.6 0L561.7 0ZM589.7 0M605.3 -4.359L605.3 -0.03125Q602.6 0.5938 600.8 0.5938Q593.5 0.5938 593.5 -7.859L593.5 -21.41L590.7 -21.41L590.7 -25.73L593.5 -25.73L593.5 -30.78L600.4 -31.58L600.4 -25.73L605.3 -25.73L605.3 -21.41L600.4 -21.41L600.4 -8.766Q600.4 -5.859 600.9 -4.953Q601.4 -4.062 602.9 -4.062Q603.9 -4.062 605.3 -4.359ZM605.7 0M609.1 0L609.1 -37.02L616.1 -37.02L616.1 -21.47Q620 -26.33 624.8 -26.33Q631.8 -26.33 631.8 -18.19L631.8 0L624.9 0L624.9 -16.48Q624.9 -18.98 624.3 -19.92Q623.7 -20.86 622.1 -20.86Q619.3 -20.86 616.1 -16.78L616.1 0L609.1 0ZM635 0M659.2 -5.75L659.2 -0.875Q654.9 0.5938 650.5 0.5938Q644.1 0.5938 640.4 -3.094Q636.7 -6.797 636.7 -13.22Q636.7 -19.17 639.9 -22.73Q643.2 -26.33 648.5 -26.33Q654 -26.33 656.6 -22.77Q659.2 -19.22 659.2 -11.48L644 -11.48Q644.8 -4.125 651.8 -4.125Q655 -4.125 659.2 -5.75M644 -15.41L652.3 -15.41Q652.3 -21.98 648.6 -21.98Q644.7 -21.98 644 -15.41ZM675 0M684.5 0L675.6 -34.69L682.4 -34.69L689 -9.312L695.6 -34.69L701.6 -34.69L707.6 -9.234L714.6 -34.69L719.8 -34.69L710.1 0L703.2 0L697.6 -23.8L691.4 0L684.5 0ZM720.3 0M744.5 -5.75L744.5 -0.875Q740.2 0.5938 735.9 0.5938Q729.5 0.5938 725.8 -3.094Q722.1 -6.797 722.1 -13.22Q722.1 -19.17 725.3 -22.73Q728.5 -26.33 733.9 -26.33Q739.4 -26.33 742 -22.77Q744.5 -19.22 744.5 -11.48L729.4 -11.48Q730.1 -4.125 737.1 -4.125Q740.4 -4.125 744.5 -5.75M729.3 -15.41L737.7 -15.41Q737.7 -21.98 734 -21.98Q730 -21.98 729.3 -15.41ZM747 0M757.5 0L750.5 0L750.5 -37.02L757.5 -37.02L757.5 -21.47Q761.1 -26.33 765.5 -26.33Q769.6 -26.33 772 -22.81Q774.5 -19.31 774.5 -13.58Q774.5 -6.922 771.3 -3.172Q768.1 0.5938 762.4 0.5938Q760.5 0.5938 757.5 0M757.5 -4.125Q760.1 -3.688 761.4 -3.688Q767.1 -3.688 767.1 -12.61Q767.1 -20.89 762.9 -20.89Q760.1 -20.89 757.5 -16.78L757.5 -4.125Z" fill="#f0f6fc" transform="translate(64,189.4)"/><path d="M1.625 -14.45L3.672 -14.45L3.672 -5.328Q3.672 -3.797 3.922 -3.062Q4.172 -2.359 4.875 -1.859Q5.828 -1.172 7.484 -1.172Q9.438 -1.172 10.22 -2.078Q11.02 -3 11.02 -5.266L11.02 -14.45L12.81 -14.45L12.81 -5.297Q12.81 -3.359 12.44 -2.359Q12.05 -1.375 11.03 -0.625Q9.656 0.3594 7.375 0.3594Q4.375 0.3594 3 -1Q1.625 -2.375 1.625 -5.359L1.625 -14.45ZM14.44 0M15.58 -0.375L15.58 -2.141Q17.47 -1.203 19.14 -1.203Q21.38 -1.203 21.38 -2.812Q21.38 -3.828 19.81 -4.344L18.09 -4.906Q15.63 -5.734 15.63 -7.859Q15.63 -10.84 19.7 -10.84Q20.88 -10.84 22.5 -10.53L22.5 -8.922Q21.08 -9.391 19.5 -9.391Q17.53 -9.391 17.53 -8.047Q17.53 -7.125 18.91 -6.672L20.44 -6.172Q23.31 -5.219 23.31 -2.969Q23.31 -1.469 22.17 -0.6094Q21.05 0.25 19.06 0.25Q17.47 0.25 15.58 -0.375ZM24.44 0M32.42 -6.453Q32.42 -9.406 30.03 -9.406Q27.56 -9.406 27.33 -6.453L32.42 -6.453M34.33 -1.859L34.33 -0.3438Q32.44 0.25 30.66 0.25Q28.2 0.25 26.73 -1.297Q25.28 -2.844 25.28 -5.438Q25.28 -7.906 26.56 -9.375Q27.86 -10.84 30.06 -10.84Q34.39 -10.84 34.39 -5.594L34.38 -5L27.3 -5Q27.58 -1.219 31.09 -1.219Q32.63 -1.219 34.33 -1.859ZM35.56 0M43.25 -3.734L43.25 -9.156Q41.92 -9.391 41.25 -9.391Q38.48 -9.391 38.48 -5.172Q38.48 -3.453 39.02 -2.438Q39.56 -1.453 40.5 -1.453Q41.77 -1.453 43.25 -3.734M43.25 -1.984Q42.09 0.25 40.08 0.25Q38.42 0.25 37.41 -1.188Q36.41 -2.641 36.41 -5Q36.41 -7.797 37.7 -9.312Q39.02 -10.84 41.41 -10.84Q42.33 -10.84 43.25 -10.61L43.25 -15.42L45.17 -15.42L45.17 0L43.25 0L43.25 -1.984ZM52.25 0M55.67 -6.859L55.67 -1.453Q57 -1.203 57.69 -1.203Q60.44 -1.203 60.44 -5.438Q60.44 -7.156 59.89 -8.156Q59.36 -9.156 58.42 -9.156Q57.16 -9.156 55.67 -6.859M55.67 -8.609Q56.83 -10.84 58.84 -10.84Q60.5 -10.84 61.52 -9.406Q62.53 -7.969 62.53 -5.609Q62.53 -2.797 61.22 -1.281Q59.92 0.25 57.53 0.25Q56.59 0.25 55.67 0L53.75 0.125L53.75 -15.42L55.67 -15.42L55.67 -8.609ZM63.38 0M67.33 0L63.56 -10.61L65.52 -10.61L68.39 -2.469L71.56 -10.61L73.27 -10.61L67.66 3.859L65.66 3.859L67.33 0ZM78.94 0M80.08 -0.375L80.08 -2.141Q81.97 -1.203 83.64 -1.203Q85.88 -1.203 85.88 -2.812Q85.88 -3.828 84.31 -4.344L82.59 -4.906Q80.13 -5.734 80.13 -7.859Q80.13 -10.84 84.2 -10.84Q85.38 -10.84 87 -10.53L87 -8.922Q85.58 -9.391 84 -9.391Q82.03 -9.391 82.03 -8.047Q82.03 -7.125 83.41 -6.672L84.94 -6.172Q87.81 -5.219 87.81 -2.969Q87.81 -1.469 86.67 -0.6094Q85.55 0.25 83.56 0.25Q81.97 0.25 80.08 -0.375ZM88.94 0M94.42 0.25Q92.28 0.25 91.03 -1.266Q89.78 -2.766 89.78 -5.297Q89.78 -7.875 91.03 -9.359Q92.31 -10.84 94.5 -10.84Q96.67 -10.84 97.94 -9.359Q99.22 -7.875 99.22 -5.328Q99.22 -2.703 97.94 -1.234Q96.67 0.25 94.42 0.25M94.45 -1.203Q97.13 -1.203 97.13 -5.359Q97.13 -9.391 94.5 -9.391Q91.86 -9.391 91.86 -5.297Q91.86 -1.203 94.45 -1.203ZM100.1 0M101.6 0L101.6 -10.61L103.5 -10.61L103.5 -8.609Q104.4 -9.969 105 -10.41Q105.6 -10.84 106.6 -10.84Q108.7 -10.84 109.4 -8.609Q110.3 -9.969 110.9 -10.41Q111.5 -10.84 112.5 -10.84Q115.3 -10.84 115.3 -7.719L115.3 0L113.4 0L113.4 -7.406Q113.4 -9.234 112 -9.234Q110.7 -9.234 109.4 -7.109L109.4 0L107.5 0L107.5 -7.406Q107.5 -9.234 106 -9.234Q104.8 -9.234 103.5 -7.109L103.5 0L101.6 0ZM116.7 0M124.7 -6.453Q124.7 -9.406 122.3 -9.406Q119.8 -9.406 119.6 -6.453L124.7 -6.453M126.6 -1.859L126.6 -0.3438Q124.7 0.25 122.9 0.25Q120.5 0.25 119 -1.297Q117.6 -2.844 117.6 -5.438Q117.6 -7.906 118.8 -9.375Q120.1 -10.84 122.3 -10.84Q126.7 -10.84 126.7 -5.594L126.7 -5L119.6 -5Q119.9 -1.219 123.4 -1.219Q124.9 -1.219 126.6 -1.859ZM133.4 0M138.9 0.25Q136.8 0.25 135.5 -1.266Q134.3 -2.766 134.3 -5.297Q134.3 -7.875 135.5 -9.359Q136.8 -10.84 139 -10.84Q141.1 -10.84 142.4 -9.359Q143.7 -7.875 143.7 -5.328Q143.7 -2.703 142.4 -1.234Q141.1 0.25 138.9 0.25M138.9 -1.203Q141.6 -1.203 141.6 -5.359Q141.6 -9.391 139 -9.391Q136.3 -9.391 136.3 -5.297Q136.3 -1.203 138.9 -1.203ZM144.5 0M146.2 0L146.2 -9.156L144.8 -9.156L144.8 -10.61L146.2 -10.61L146.2 -11.88Q146.2 -15.67 149.3 -15.67Q149.9 -15.67 150.7 -15.41L150.7 -13.88Q150 -14.22 149.5 -14.22Q148.7 -14.22 148.5 -13.73Q148.2 -13.27 148.2 -12.08L148.2 -10.61L150.4 -10.61L150.4 -9.156L148.2 -9.156L148.2 0L146.2 0ZM155.7 0M160.8 0.0625Q160.3 0.25 159.8 0.25Q157.1 0.25 157.1 -2.938L157.1 -9.156L155.9 -9.156L155.9 -10.61L157.1 -10.61L157.1 -12.83L159.1 -13.02L159.1 -10.61L161.4 -10.61L161.4 -9.156L159.1 -9.156L159.1 -3.281Q159.1 -2.016 159.3 -1.609Q159.5 -1.203 160.2 -1.203Q160.6 -1.203 160.8 -1.312L160.8 0.0625ZM161.3 0M162.8 0L162.8 -15.42L164.7 -15.42L164.7 -8.609Q166.3 -10.84 168.3 -10.84Q171 -10.84 171 -7.625L171 0L169.1 0L169.1 -7Q169.1 -8.266 168.8 -8.734Q168.6 -9.188 167.8 -9.188Q166.2 -9.188 164.7 -6.859L164.7 0L162.8 0ZM172.4 0M180.4 -6.453Q180.4 -9.406 178 -9.406Q175.6 -9.406 175.3 -6.453L180.4 -6.453M182.3 -1.859L182.3 -0.3438Q180.4 0.25 178.7 0.25Q176.2 0.25 174.7 -1.297Q173.3 -2.844 173.3 -5.438Q173.3 -7.906 174.6 -9.375Q175.9 -10.84 178.1 -10.84Q182.4 -10.84 182.4 -5.594L182.4 -5L175.3 -5Q175.6 -1.219 179.1 -1.219Q180.6 -1.219 182.3 -1.859ZM189.1 0M191.8 0L189.2 -10.61L191.1 -10.61L193 -2.625L195.5 -10.61L197.4 -10.61L199.5 -2.594L201.8 -10.61L203.4 -10.61L200.5 0L198.5 0L196.3 -8.219L193.7 0L191.8 0ZM203.6 0M209 0.25Q206.9 0.25 205.7 -1.266Q204.4 -2.766 204.4 -5.297Q204.4 -7.875 205.7 -9.359Q206.9 -10.84 209.1 -10.84Q211.3 -10.84 212.6 -9.359Q213.8 -7.875 213.8 -5.328Q213.8 -2.703 212.6 -1.234Q211.3 0.25 209 0.25M209.1 -1.203Q211.8 -1.203 211.8 -5.359Q211.8 -9.391 209.1 -9.391Q206.5 -9.391 206.5 -5.297Q206.5 -1.203 209.1 -1.203ZM214.7 0M216.2 0L216.2 -10.61L218.1 -10.61L218.1 -8.609Q219 -10.84 220.7 -10.84Q220.9 -10.84 221.2 -10.8L221.2 -9Q220.7 -9.156 220.4 -9.156Q219.3 -9.156 218.1 -7L218.1 0L216.2 0ZM221.3 0M224.8 -3.281Q224.8 -2.719 224.9 -2.328Q225 -1.938 225.2 -1.688Q225.4 -1.438 225.7 -1.312Q226 -1.203 226.5 -1.219L226.5 0.1875Q226.2 0.25 225.9 0.25Q225.2 0.25 224.7 0.03125Q224.1 -0.1875 223.7 -0.5938Q223.3 -1 223.1 -1.578Q222.8 -2.172 222.8 -2.938L222.8 -15.42L224.8 -15.42L224.8 -3.281ZM226.7 0M234.4 -3.734L234.4 -9.156Q233.1 -9.391 232.4 -9.391Q229.6 -9.391 229.6 -5.172Q229.6 -3.453 230.2 -2.438Q230.7 -1.453 231.6 -1.453Q232.9 -1.453 234.4 -3.734M234.4 -1.984Q233.2 0.25 231.2 0.25Q229.6 0.25 228.5 -1.188Q227.5 -2.641 227.5 -5Q227.5 -7.797 228.8 -9.312Q230.2 -10.84 232.5 -10.84Q233.5 -10.84 234.4 -10.61L234.4 -15.42L236.3 -15.42L236.3 0L234.4 0L234.4 -1.984ZM237.8 0M239 -10.12L238.5 -15.42L240.9 -15.42L240.5 -10.12L239 -10.12ZM241.6 0M242.8 -0.375L242.8 -2.141Q244.7 -1.203 246.3 -1.203Q248.6 -1.203 248.6 -2.812Q248.6 -3.828 247 -4.344L245.3 -4.906Q242.8 -5.734 242.8 -7.859Q242.8 -10.84 246.9 -10.84Q248.1 -10.84 249.7 -10.53L249.7 -8.922Q248.3 -9.391 246.7 -9.391Q244.7 -9.391 244.7 -8.047Q244.7 -7.125 246.1 -6.672L247.6 -6.172Q250.5 -5.219 250.5 -2.969Q250.5 -1.469 249.4 -0.6094Q248.2 0.25 246.3 0.25Q244.7 0.25 242.8 -0.375ZM257.2 0M260.6 -3.281Q260.6 -2.719 260.7 -2.328Q260.8 -1.938 261 -1.688Q261.3 -1.438 261.6 -1.312Q261.9 -1.203 262.3 -1.219L262.3 0.1875Q262.1 0.25 261.7 0.25Q261.1 0.25 260.5 0.03125Q260 -0.1875 259.5 -0.5938Q259.1 -1 258.9 -1.578Q258.7 -2.172 258.7 -2.938L258.7 -15.42L260.6 -15.42L260.6 -3.281ZM262.6 0M270.1 -1.344Q268.4 0.25 266.6 0.25Q265.2 0.25 264.4 -0.5625Q263.5 -1.375 263.5 -2.672Q263.5 -6.266 269.4 -6.266L269.8 -6.266L269.8 -7.547Q269.8 -9.391 267.8 -9.391Q266.2 -9.391 264.4 -8.453L264.4 -10.05Q266.4 -10.84 268.2 -10.84Q270 -10.84 270.9 -10.05Q271.8 -9.266 271.8 -7.547L271.8 -2.75Q271.8 -1.094 272.8 -1.094Q272.9 -1.094 273.2 -1.141L273.3 -0.0625Q272.6 0.25 271.8 0.25Q270.5 0.25 270.1 -1.344M269.8 -2.391L269.8 -5.141L269.2 -5.156Q265.5 -5.156 265.5 -3.016Q265.5 -1.328 267.3 -1.328Q268.5 -1.328 269.8 -2.391ZM273.7 0M275.2 0L275.2 -10.61L277.1 -10.61L277.1 -8.609Q278 -10.84 279.7 -10.84Q279.9 -10.84 280.2 -10.8L280.2 -9Q279.7 -9.156 279.4 -9.156Q278.3 -9.156 277.1 -7L277.1 0L275.2 0ZM280.3 0M288.1 -4.219L288.1 -9.156Q286.8 -9.391 286.1 -9.391Q283.3 -9.391 283.3 -5.609Q283.3 -3.922 283.9 -2.922Q284.4 -1.922 285.4 -1.922Q286.6 -1.922 288.1 -4.219M288.1 -2.469Q287 -0.25 284.9 -0.25Q283.3 -0.25 282.3 -1.656Q281.2 -3.094 281.2 -5.375Q281.2 -7.984 282.5 -9.406Q283.9 -10.84 286.2 -10.84Q287.2 -10.84 288.1 -10.61L290 -10.61L290 -2.891Q290 -0.3906 289.8 0.7969Q289.5 2 288.8 2.75Q287.5 4.109 284.9 4.109Q283 4.109 281.3 3.531L281.3 1.859Q283.4 2.641 284.9 2.641Q288.1 2.641 288.1 -0.7969L288.1 -2.469ZM291.5 0M299.5 -6.453Q299.5 -9.406 297.1 -9.406Q294.6 -9.406 294.4 -6.453L299.5 -6.453M301.4 -1.859L301.4 -0.3438Q299.5 0.25 297.7 0.25Q295.2 0.25 293.8 -1.297Q292.3 -2.844 292.3 -5.438Q292.3 -7.906 293.6 -9.375Q294.9 -10.84 297.1 -10.84Q301.4 -10.84 301.4 -5.594L301.4 -5L294.3 -5Q294.6 -1.219 298.1 -1.219Q299.7 -1.219 301.4 -1.859ZM302.6 0M303.7 -0.375L303.7 -2.141Q305.6 -1.203 307.3 -1.203Q309.5 -1.203 309.5 -2.812Q309.5 -3.828 308 -4.344L306.2 -4.906Q303.8 -5.734 303.8 -7.859Q303.8 -10.84 307.9 -10.84Q309 -10.84 310.7 -10.53L310.7 -8.922Q309.2 -9.391 307.7 -9.391Q305.7 -9.391 305.7 -8.047Q305.7 -7.125 307.1 -6.672L308.6 -6.172Q311.5 -5.219 311.5 -2.969Q311.5 -1.469 310.3 -0.6094Q309.2 0.25 307.2 0.25Q305.6 0.25 303.7 -0.375ZM312.6 0M317.8 0.0625Q317.2 0.25 316.7 0.25Q314.1 0.25 314.1 -2.938L314.1 -9.156L312.8 -9.156L312.8 -10.61L314.1 -10.61L314.1 -12.83L316 -13.02L316 -10.61L318.3 -10.61L318.3 -9.156L316 -9.156L316 -3.281Q316 -2.016 316.2 -1.609Q316.4 -1.203 317.1 -1.203Q317.5 -1.203 317.8 -1.312L317.8 0.0625ZM323.8 0M332.9 -0.3281Q331.2 0.25 329.5 0.25Q327.3 0.25 326 -1.297Q324.7 -2.828 324.7 -5.281Q324.7 -7.906 326 -9.359Q327.4 -10.84 329.8 -10.84Q331.1 -10.84 332.7 -10.48L332.7 -8.891Q331.2 -9.359 330.2 -9.359Q326.8 -9.359 326.8 -5.281Q326.8 -3.391 327.7 -2.344Q328.5 -1.312 330.1 -1.312Q331.3 -1.312 332.9 -1.984L332.9 -0.3281ZM333.8 0M339.3 0.25Q337.2 0.25 335.9 -1.266Q334.7 -2.766 334.7 -5.297Q334.7 -7.875 335.9 -9.359Q337.2 -10.84 339.4 -10.84Q341.5 -10.84 342.8 -9.359Q344.1 -7.875 344.1 -5.328Q344.1 -2.703 342.8 -1.234Q341.5 0.25 339.3 0.25M339.3 -1.203Q342 -1.203 342 -5.359Q342 -9.391 339.4 -9.391Q336.7 -9.391 336.7 -5.297Q336.7 -1.203 339.3 -1.203ZM344.9 0M346.4 0L346.4 -10.61L348.4 -10.61L348.4 -8.609Q349.2 -9.969 349.9 -10.41Q350.5 -10.84 351.4 -10.84Q353.5 -10.84 354.3 -8.609Q355.2 -9.969 355.8 -10.41Q356.4 -10.84 357.4 -10.84Q360.2 -10.84 360.2 -7.719L360.2 0L358.3 0L358.3 -7.406Q358.3 -9.234 356.8 -9.234Q355.6 -9.234 354.3 -7.109L354.3 0L352.4 0L352.4 -7.406Q352.4 -9.234 350.9 -9.234Q349.7 -9.234 348.4 -7.109L348.4 0L346.4 0ZM361.6 0M365 3.859L363.1 3.859L363.1 -10.61L365 -10.61L365 -8.609Q366.2 -10.84 368.2 -10.84Q369.8 -10.84 370.9 -9.406Q371.9 -7.969 371.9 -5.609Q371.9 -2.797 370.6 -1.281Q369.3 0.25 366.9 0.25Q365.9 0.25 365 0L365 3.859M365 -6.859L365 -1.453Q366.3 -1.203 367 -1.203Q369.8 -1.203 369.8 -5.438Q369.8 -7.156 369.2 -8.156Q368.7 -9.156 367.8 -9.156Q366.5 -9.156 365 -6.859ZM372.7 0M380.3 -1.344Q378.5 0.25 376.8 0.25Q375.4 0.25 374.5 -0.5625Q373.6 -1.375 373.6 -2.672Q373.6 -6.266 379.5 -6.266L380 -6.266L380 -7.547Q380 -9.391 378 -9.391Q376.3 -9.391 374.6 -8.453L374.6 -10.05Q376.5 -10.84 378.3 -10.84Q380.2 -10.84 381.1 -10.05Q381.9 -9.266 381.9 -7.547L381.9 -2.75Q381.9 -1.094 382.9 -1.094Q383.1 -1.094 383.3 -1.141L383.4 -0.0625Q382.8 0.25 382 0.25Q380.7 0.25 380.3 -1.344M380 -2.391L380 -5.141L379.4 -5.156Q375.6 -5.156 375.6 -3.016Q375.6 -1.328 377.4 -1.328Q378.7 -1.328 380 -2.391ZM383.8 0M385.3 0L385.3 -10.61L387.3 -10.61L387.3 -8.609Q388.8 -10.84 390.9 -10.84Q393.6 -10.84 393.6 -7.625L393.6 0L391.6 0L391.6 -7Q391.6 -8.266 391.4 -8.734Q391.1 -9.188 390.4 -9.188Q388.7 -9.188 387.3 -6.859L387.3 0L385.3 0ZM395 0M396.5 0L396.5 -10.61L398.4 -10.61L398.4 0L396.5 0M396.4 -12.53L396.4 -14.66L398.5 -14.66L398.5 -12.53L396.4 -12.53ZM399.9 0M407.9 -6.453Q407.9 -9.406 405.5 -9.406Q403 -9.406 402.8 -6.453L407.9 -6.453M409.8 -1.859L409.8 -0.3438Q407.9 0.25 406.1 0.25Q403.7 0.25 402.2 -1.297Q400.8 -2.844 400.8 -5.438Q400.8 -7.906 402 -9.375Q403.3 -10.84 405.5 -10.84Q409.9 -10.84 409.9 -5.594L409.8 -5L402.8 -5Q403 -1.219 406.6 -1.219Q408.1 -1.219 409.8 -1.859ZM411 0M412.2 -0.375L412.2 -2.141Q414.1 -1.203 415.7 -1.203Q418 -1.203 418 -2.812Q418 -3.828 416.4 -4.344L414.7 -4.906Q412.2 -5.734 412.2 -7.859Q412.2 -10.84 416.3 -10.84Q417.5 -10.84 419.1 -10.53L419.1 -8.922Q417.7 -9.391 416.1 -9.391Q414.1 -9.391 414.1 -8.047Q414.1 -7.125 415.5 -6.672L417 -6.172Q419.9 -5.219 419.9 -2.969Q419.9 -1.469 418.8 -0.6094Q417.6 0.25 415.7 0.25Q414.1 0.25 412.2 -0.375ZM421 0M423 3.422L423 2.703Q423.9 2.438 423.9 0.2031L423.9 0L423 0L423 -2.406L425.4 -2.406L425.4 -0.3281Q425.4 3.422 423 3.422ZM432.9 0M434.5 0L434.5 -14.45L436.5 -14.45L444 -3.297L444 -14.45L445.8 -14.45L445.8 0L443.7 0L436.3 -11.16L436.3 0L434.5 0ZM447.4 0M455.3 -6.453Q455.3 -9.406 453 -9.406Q450.5 -9.406 450.3 -6.453L455.3 -6.453M457.3 -1.859L457.3 -0.3438Q455.4 0.25 453.6 0.25Q451.1 0.25 449.7 -1.297Q448.2 -2.844 448.2 -5.438Q448.2 -7.906 449.5 -9.375Q450.8 -10.84 453 -10.84Q457.3 -10.84 457.3 -5.594L457.3 -5L450.2 -5Q450.5 -1.219 454 -1.219Q455.5 -1.219 457.3 -1.859ZM458.5 0M458.8 0L462.2 -5.609L458.9 -10.61L461.1 -10.61L463.8 -6.625L466.1 -10.61L467.9 -10.61L464.7 -5.266L468.2 0L466 0L463.1 -4.266L460.5 0L458.8 0ZM468.5 0M473.7 0.0625Q473.1 0.25 472.6 0.25Q470 0.25 470 -2.938L470 -9.156L468.7 -9.156L468.7 -10.61L470 -10.61L470 -12.83L471.9 -13.02L471.9 -10.61L474.2 -10.61L474.2 -9.156L471.9 -9.156L471.9 -3.281Q471.9 -2.016 472.1 -1.609Q472.3 -1.203 473 -1.203Q473.4 -1.203 473.7 -1.312L473.7 0.0625ZM474.1 0M476.1 0L476.1 -2.516L478.6 -2.516L478.6 0L476.1 0ZM480.5 0M479.6 3.875L479.6 2.469Q480.2 2.641 480.9 2.641Q481.7 2.641 482 2.125Q482.2 1.625 482.2 0L482.2 -10.61L484.2 -10.61L484.2 0Q484.2 4.094 481 4.094Q480.1 4.094 479.6 3.875M482.1 -12.53L482.1 -14.66L484.2 -14.66L484.2 -12.53L482.1 -12.53ZM485.5 0M486.7 -0.375L486.7 -2.141Q488.6 -1.203 490.2 -1.203Q492.5 -1.203 492.5 -2.812Q492.5 -3.828 490.9 -4.344L489.2 -4.906Q486.7 -5.734 486.7 -7.859Q486.7 -10.84 490.8 -10.84Q492 -10.84 493.6 -10.53L493.6 -8.922Q492.2 -9.391 490.6 -9.391Q488.6 -9.391 488.6 -8.047Q488.6 -7.125 490 -6.672L491.5 -6.172Q494.4 -5.219 494.4 -2.969Q494.4 -1.469 493.3 -0.6094Q492.1 0.25 490.2 0.25Q488.6 0.25 486.7 -0.375ZM501.1 0M509.1 -6.453Q509.1 -9.406 506.7 -9.406Q504.2 -9.406 504 -6.453L509.1 -6.453M511 -1.859L511 -0.3438Q509.1 0.25 507.3 0.25Q504.9 0.25 503.4 -1.297Q501.9 -2.844 501.9 -5.438Q501.9 -7.906 503.2 -9.375Q504.5 -10.84 506.7 -10.84Q511 -10.84 511 -5.594L511 -5L504 -5Q504.2 -1.219 507.7 -1.219Q509.3 -1.219 511 -1.859ZM512.2 0M513.7 0L513.7 -10.61L515.6 -10.61L515.6 -8.609Q517.2 -10.84 519.2 -10.84Q522 -10.84 522 -7.625L522 0L520 0L520 -7Q520 -8.266 519.7 -8.734Q519.5 -9.188 518.7 -9.188Q517.1 -9.188 515.6 -6.859L515.6 0L513.7 0ZM523.3 0M530.9 -1.344Q529.2 0.25 527.4 0.25Q526 0.25 525.1 -0.5625Q524.3 -1.375 524.3 -2.672Q524.3 -6.266 530.2 -6.266L530.6 -6.266L530.6 -7.547Q530.6 -9.391 528.6 -9.391Q527 -9.391 525.2 -8.453L525.2 -10.05Q527.1 -10.84 528.9 -10.84Q530.8 -10.84 531.7 -10.05Q532.5 -9.266 532.5 -7.547L532.5 -2.75Q532.5 -1.094 533.6 -1.094Q533.7 -1.094 533.9 -1.141L534.1 -0.0625Q533.4 0.25 532.6 0.25Q531.3 0.25 530.9 -1.344M530.6 -2.391L530.6 -5.141L530 -5.156Q526.3 -5.156 526.3 -3.016Q526.3 -1.328 528 -1.328Q529.3 -1.328 530.6 -2.391ZM534.5 0M537.9 -6.859L537.9 -1.453Q539.2 -1.203 539.9 -1.203Q542.7 -1.203 542.7 -5.438Q542.7 -7.156 542.1 -8.156Q541.6 -9.156 540.6 -9.156Q539.4 -9.156 537.9 -6.859M537.9 -8.609Q539 -10.84 541.1 -10.84Q542.7 -10.84 543.7 -9.406Q544.7 -7.969 544.7 -5.609Q544.7 -2.797 543.4 -1.281Q542.1 0.25 539.7 0.25Q538.8 0.25 537.9 0L536 0.125L536 -15.42L537.9 -15.42L537.9 -8.609ZM545.6 0M549 -3.281Q549 -2.719 549.1 -2.328Q549.2 -1.938 549.4 -1.688Q549.7 -1.438 550 -1.312Q550.3 -1.203 550.7 -1.219L550.7 0.1875Q550.5 0.25 550.1 0.25Q549.5 0.25 548.9 0.03125Q548.3 -0.1875 547.9 -0.5938Q547.5 -1 547.3 -1.578Q547.1 -2.172 547.1 -2.938L547.1 -15.42L549 -15.42L549 -3.281ZM551 0M558.9 -6.453Q558.9 -9.406 556.5 -9.406Q554.1 -9.406 553.8 -6.453L558.9 -6.453M560.8 -1.859L560.8 -0.3438Q559 0.25 557.2 0.25Q554.7 0.25 553.3 -1.297Q551.8 -2.844 551.8 -5.438Q551.8 -7.906 553.1 -9.375Q554.4 -10.84 556.6 -10.84Q560.9 -10.84 560.9 -5.594L560.9 -5L553.8 -5Q554.1 -1.219 557.6 -1.219Q559.1 -1.219 560.8 -1.859ZM562.1 0M563.2 -0.375L563.2 -2.141Q565.1 -1.203 566.8 -1.203Q569 -1.203 569 -2.812Q569 -3.828 567.5 -4.344L565.7 -4.906Q563.3 -5.734 563.3 -7.859Q563.3 -10.84 567.3 -10.84Q568.5 -10.84 570.1 -10.53L570.1 -8.922Q568.7 -9.391 567.1 -9.391Q565.2 -9.391 565.2 -8.047Q565.2 -7.125 566.5 -6.672L568.1 -6.172Q571 -5.219 571 -2.969Q571 -1.469 569.8 -0.6094Q568.7 0.25 566.7 0.25Q565.1 0.25 563.2 -0.375ZM577.6 0M581.6 0L577.8 -10.61L579.8 -10.61L582.7 -2.469L585.8 -10.61L587.5 -10.61L581.9 3.859L579.9 3.859L581.6 0ZM587.6 0M593.1 0.25Q591 0.25 589.7 -1.266Q588.5 -2.766 588.5 -5.297Q588.5 -7.875 589.7 -9.359Q591 -10.84 593.2 -10.84Q595.4 -10.84 596.6 -9.359Q597.9 -7.875 597.9 -5.328Q597.9 -2.703 596.6 -1.234Q595.4 0.25 593.1 0.25M593.2 -1.203Q595.8 -1.203 595.8 -5.359Q595.8 -9.391 593.2 -9.391Q590.6 -9.391 590.6 -5.297Q590.6 -1.203 593.2 -1.203ZM598.8 0M606.5 0L606.5 -1.984Q604.9 0.25 602.9 0.25Q600.2 0.25 600.2 -2.984L600.2 -10.61L602.1 -10.61L602.1 -3.609Q602.1 -2.328 602.3 -1.875Q602.6 -1.422 603.4 -1.422Q605 -1.422 606.5 -3.734L606.5 -10.61L608.4 -10.61L608.4 0L606.5 0ZM615.5 0M620.6 0.0625Q620.1 0.25 619.6 0.25Q616.9 0.25 616.9 -2.938L616.9 -9.156L615.7 -9.156L615.7 -10.61L616.9 -10.61L616.9 -12.83L618.9 -13.02L618.9 -10.61L621.2 -10.61L621.2 -9.156L618.9 -9.156L618.9 -3.281Q618.9 -2.016 619.1 -1.609Q619.3 -1.203 620 -1.203Q620.4 -1.203 620.6 -1.312L620.6 0.0625ZM621.1 0M626.6 0.25Q624.5 0.25 623.2 -1.266Q622 -2.766 622 -5.297Q622 -7.875 623.2 -9.359Q624.5 -10.84 626.7 -10.84Q628.8 -10.84 630.1 -9.359Q631.4 -7.875 631.4 -5.328Q631.4 -2.703 630.1 -1.234Q628.8 0.25 626.6 0.25M626.6 -1.203Q629.3 -1.203 629.3 -5.359Q629.3 -9.391 626.7 -9.391Q624 -9.391 624 -5.297Q624 -1.203 626.6 -1.203ZM637.8 0M646.8 -0.3281Q645.2 0.25 643.4 0.25Q641.3 0.25 640 -1.297Q638.6 -2.828 638.6 -5.281Q638.6 -7.906 640 -9.359Q641.4 -10.84 643.8 -10.84Q645.1 -10.84 646.7 -10.48L646.7 -8.891Q645.2 -9.359 644.2 -9.359Q640.7 -9.359 640.7 -5.281Q640.7 -3.391 641.6 -2.344Q642.5 -1.312 644.1 -1.312Q645.3 -1.312 646.8 -1.984L646.8 -0.3281ZM647.8 0M649.3 0L649.3 -10.61L651.2 -10.61L651.2 -8.609Q652.1 -10.84 653.8 -10.84Q654 -10.84 654.3 -10.8L654.3 -9Q653.8 -9.156 653.5 -9.156Q652.4 -9.156 651.2 -7L651.2 0L649.3 0ZM654.5 0M662.4 -6.453Q662.4 -9.406 660 -9.406Q657.6 -9.406 657.3 -6.453L662.4 -6.453M664.3 -1.859L664.3 -0.3438Q662.5 0.25 660.7 0.25Q658.2 0.25 656.8 -1.297Q655.3 -2.844 655.3 -5.438Q655.3 -7.906 656.6 -9.375Q657.9 -10.84 660.1 -10.84Q664.4 -10.84 664.4 -5.594L664.4 -5L657.3 -5Q657.6 -1.219 661.1 -1.219Q662.6 -1.219 664.3 -1.859ZM665.6 0M673.1 -1.344Q671.4 0.25 669.6 0.25Q668.3 0.25 667.4 -0.5625Q666.5 -1.375 666.5 -2.672Q666.5 -6.266 672.4 -6.266L672.9 -6.266L672.9 -7.547Q672.9 -9.391 670.8 -9.391Q669.2 -9.391 667.4 -8.453L667.4 -10.05Q669.4 -10.84 671.2 -10.84Q673.1 -10.84 673.9 -10.05Q674.8 -9.266 674.8 -7.547L674.8 -2.75Q674.8 -1.094 675.8 -1.094Q675.9 -1.094 676.2 -1.141L676.3 -0.0625Q675.6 0.25 674.8 0.25Q673.5 0.25 673.1 -1.344M672.9 -2.391L672.9 -5.141L672.2 -5.156Q668.5 -5.156 668.5 -3.016Q668.5 -1.328 670.3 -1.328Q671.5 -1.328 672.9 -2.391ZM676.7 0M681.9 0.0625Q681.3 0.25 680.8 0.25Q678.2 0.25 678.2 -2.938L678.2 -9.156L677 -9.156L677 -10.61L678.2 -10.61L678.2 -12.83L680.1 -13.02L680.1 -10.61L682.5 -10.61L682.5 -9.156L680.1 -9.156L680.1 -3.281Q680.1 -2.016 680.3 -1.609Q680.5 -1.203 681.2 -1.203Q681.6 -1.203 681.9 -1.312L681.9 0.0625ZM682.4 0M690.3 -6.453Q690.3 -9.406 688 -9.406Q685.5 -9.406 685.3 -6.453L690.3 -6.453M692.3 -1.859L692.3 -0.3438Q690.4 0.25 688.6 0.25Q686.1 0.25 684.7 -1.297Q683.2 -2.844 683.2 -5.438Q683.2 -7.906 684.5 -9.375Q685.8 -10.84 688 -10.84Q692.3 -10.84 692.3 -5.594L692.3 -5L685.2 -5Q685.5 -1.219 689 -1.219Q690.5 -1.219 692.3 -1.859ZM699 0M700.7 0L700.7 -9.156L699.3 -9.156L699.3 -10.61L700.7 -10.61L700.7 -11.88Q700.7 -15.67 703.8 -15.67Q704.4 -15.67 705.2 -15.41L705.2 -13.88Q704.5 -14.22 704 -14.22Q703.2 -14.22 703 -13.73Q702.7 -13.27 702.7 -12.08L702.7 -10.61L704.9 -10.61L704.9 -9.156L702.7 -9.156L702.7 0L700.7 0ZM704.6 0M712.3 0L712.3 -1.984Q710.8 0.25 708.7 0.25Q706 0.25 706 -2.984L706 -10.61L707.9 -10.61L707.9 -3.609Q707.9 -2.328 708.2 -1.875Q708.5 -1.422 709.2 -1.422Q710.8 -1.422 712.3 -3.734L712.3 -10.61L714.2 -10.61L714.2 0L712.3 0ZM715.7 0M719.2 -3.281Q719.2 -2.719 719.3 -2.328Q719.4 -1.938 719.6 -1.688Q719.8 -1.438 720.1 -1.312Q720.4 -1.203 720.8 -1.219L720.8 0.1875Q720.6 0.25 720.3 0.25Q719.6 0.25 719 0.03125Q718.5 -0.1875 718.1 -0.5938Q717.7 -1 717.5 -1.578Q717.2 -2.172 717.2 -2.938L717.2 -15.42L719.2 -15.42L719.2 -3.281ZM721.1 0M724.5 -3.281Q724.5 -2.719 724.6 -2.328Q724.7 -1.938 724.9 -1.688Q725.2 -1.438 725.5 -1.312Q725.8 -1.203 726.2 -1.219L726.2 0.1875Q726 0.25 725.6 0.25Q725 0.25 724.4 0.03125Q723.8 -0.1875 723.4 -0.5938Q723 -1 722.8 -1.578Q722.6 -2.172 722.6 -2.938L722.6 -15.42L724.5 -15.42L724.5 -3.281ZM726.5 0M727.5 -5.062L727.5 -6.5L737.1 -6.5L737.1 -5.062L727.5 -5.062ZM738.1 0M739.3 -0.375L739.3 -2.141Q741.2 -1.203 742.8 -1.203Q745.1 -1.203 745.1 -2.812Q745.1 -3.828 743.5 -4.344L741.8 -4.906Q739.3 -5.734 739.3 -7.859Q739.3 -10.84 743.4 -10.84Q744.6 -10.84 746.2 -10.53L746.2 -8.922Q744.8 -9.391 743.2 -9.391Q741.2 -9.391 741.2 -8.047Q741.2 -7.125 742.6 -6.672L744.1 -6.172Q747 -5.219 747 -2.969Q747 -1.469 745.9 -0.6094Q744.7 0.25 742.8 0.25Q741.2 0.25 739.3 -0.375ZM748.1 0M753.3 0.0625Q752.7 0.25 752.2 0.25Q749.6 0.25 749.6 -2.938L749.6 -9.156L748.4 -9.156L748.4 -10.61L749.6 -10.61L749.6 -12.83L751.5 -13.02L751.5 -10.61L753.9 -10.61L753.9 -9.156L751.5 -9.156L751.5 -3.281Q751.5 -2.016 751.8 -1.609Q752 -1.203 752.7 -1.203Q753 -1.203 753.3 -1.312L753.3 0.0625ZM753.8 0M761.4 -1.344Q759.6 0.25 757.9 0.25Q756.5 0.25 755.6 -0.5625Q754.7 -1.375 754.7 -2.672Q754.7 -6.266 760.6 -6.266L761.1 -6.266L761.1 -7.547Q761.1 -9.391 759 -9.391Q757.4 -9.391 755.6 -8.453L755.6 -10.05Q757.6 -10.84 759.4 -10.84Q761.3 -10.84 762.1 -10.05Q763 -9.266 763 -7.547L763 -2.75Q763 -1.094 764 -1.094Q764.1 -1.094 764.4 -1.141L764.5 -0.0625Q763.9 0.25 763.1 0.25Q761.7 0.25 761.4 -1.344M761.1 -2.391L761.1 -5.141L760.4 -5.156Q756.7 -5.156 756.7 -3.016Q756.7 -1.328 758.5 -1.328Q759.8 -1.328 761.1 -2.391ZM764.9 0M774 -0.3281Q772.3 0.25 770.6 0.25Q768.4 0.25 767.1 -1.297Q765.8 -2.828 765.8 -5.281Q765.8 -7.906 767.1 -9.359Q768.5 -10.84 770.9 -10.84Q772.2 -10.84 773.8 -10.48L773.8 -8.891Q772.3 -9.359 771.3 -9.359Q767.9 -9.359 767.9 -5.281Q767.9 -3.391 768.8 -2.344Q769.7 -1.312 771.2 -1.312Q772.4 -1.312 774 -1.984L774 -0.3281ZM774.9 0M776.4 0L776.4 -15.42L778.3 -15.42L778.3 -5.453L781.9 -10.61L783.7 -10.61L780.4 -5.594L784.7 0L782.4 0L778.3 -5.438L778.3 0L776.4 0ZM790.5 0M793.2 0L790.6 -10.61L792.5 -10.61L794.4 -2.625L796.8 -10.61L798.8 -10.61L800.9 -2.594L803.1 -10.61L804.8 -10.61L801.8 0L799.9 0L797.6 -8.219L795.1 0L793.2 0ZM804.9 0M812.9 -6.453Q812.9 -9.406 810.5 -9.406Q808 -9.406 807.8 -6.453L812.9 -6.453M814.8 -1.859L814.8 -0.3438Q812.9 0.25 811.1 0.25Q808.7 0.25 807.2 -1.297Q805.8 -2.844 805.8 -5.438Q805.8 -7.906 807 -9.375Q808.3 -10.84 810.5 -10.84Q814.9 -10.84 814.9 -5.594L814.9 -5L807.8 -5Q808.1 -1.219 811.6 -1.219Q813.1 -1.219 814.8 -1.859ZM816 0M819.5 -6.859L819.5 -1.453Q820.8 -1.203 821.5 -1.203Q824.2 -1.203 824.2 -5.438Q824.2 -7.156 823.7 -8.156Q823.2 -9.156 822.2 -9.156Q821 -9.156 819.5 -6.859M819.5 -8.609Q820.6 -10.84 822.6 -10.84Q824.3 -10.84 825.3 -9.406Q826.3 -7.969 826.3 -5.609Q826.3 -2.797 825 -1.281Q823.7 0.25 821.3 0.25Q820.4 0.25 819.5 0L817.5 0.125L817.5 -15.42L819.5 -15.42L819.5 -8.609ZM832.7 0M840.3 -1.344Q838.6 0.25 836.8 0.25Q835.4 0.25 834.5 -0.5625Q833.7 -1.375 833.7 -2.672Q833.7 -6.266 839.6 -6.266L840 -6.266L840 -7.547Q840 -9.391 838 -9.391Q836.3 -9.391 834.6 -8.453L834.6 -10.05Q836.5 -10.84 838.3 -10.84Q840.2 -10.84 841.1 -10.05Q841.9 -9.266 841.9 -7.547L841.9 -2.75Q841.9 -1.094 843 -1.094Q843.1 -1.094 843.3 -1.141L843.5 -0.0625Q842.8 0.25 842 0.25Q840.7 0.25 840.3 -1.344M840 -2.391L840 -5.141L839.4 -5.156Q835.7 -5.156 835.7 -3.016Q835.7 -1.328 837.4 -1.328Q838.7 -1.328 840 -2.391ZM843.9 0M847.3 3.859L845.4 3.859L845.4 -10.61L847.3 -10.61L847.3 -8.609Q848.4 -10.84 850.5 -10.84Q852.1 -10.84 853.1 -9.406Q854.1 -7.969 854.1 -5.609Q854.1 -2.797 852.8 -1.281Q851.5 0.25 849.1 0.25Q848.2 0.25 847.3 0L847.3 3.859M847.3 -6.859L847.3 -1.453Q848.6 -1.203 849.3 -1.203Q852 -1.203 852 -5.438Q852 -7.156 851.5 -8.156Q851 -9.156 850 -9.156Q848.8 -9.156 847.3 -6.859ZM855 0M858.4 3.859L856.5 3.859L856.5 -10.61L858.4 -10.61L858.4 -8.609Q859.6 -10.84 861.6 -10.84Q863.2 -10.84 864.3 -9.406Q865.3 -7.969 865.3 -5.609Q865.3 -2.797 864 -1.281Q862.7 0.25 860.3 0.25Q859.3 0.25 858.4 0L858.4 3.859M858.4 -6.859L858.4 -1.453Q859.7 -1.203 860.4 -1.203Q863.2 -1.203 863.2 -5.438Q863.2 -7.156 862.6 -8.156Q862.1 -9.156 861.2 -9.156Q859.9 -9.156 858.4 -6.859ZM866.1 0M869.5 -3.281Q869.5 -2.719 869.6 -2.328Q869.7 -1.938 870 -1.688Q870.2 -1.438 870.5 -1.312Q870.8 -1.203 871.2 -1.219L871.2 0.1875Q871 0.25 870.6 0.25Q870 0.25 869.4 0.03125Q868.9 -0.1875 868.4 -0.5938Q868 -1 867.8 -1.578Q867.6 -2.172 867.6 -2.938L867.6 -15.42L869.5 -15.42L869.5 -3.281ZM871.5 0M873 0L873 -10.61L874.9 -10.61L874.9 0L873 0M872.9 -12.53L872.9 -14.66L875 -14.66L875 -12.53L872.9 -12.53ZM876.4 0M885.5 -0.3281Q883.8 0.25 882 0.25Q879.9 0.25 878.6 -1.297Q877.3 -2.828 877.3 -5.281Q877.3 -7.906 878.6 -9.359Q880 -10.84 882.4 -10.84Q883.7 -10.84 885.3 -10.48L885.3 -8.891Q883.8 -9.359 882.8 -9.359Q879.4 -9.359 879.4 -5.281Q879.4 -3.391 880.3 -2.344Q881.1 -1.312 882.7 -1.312Q883.9 -1.312 885.5 -1.984L885.5 -0.3281ZM886.4 0M894 -1.344Q892.2 0.25 890.5 0.25Q889.1 0.25 888.2 -0.5625Q887.3 -1.375 887.3 -2.672Q887.3 -6.266 893.2 -6.266L893.7 -6.266L893.7 -7.547Q893.7 -9.391 891.7 -9.391Q890 -9.391 888.3 -8.453L888.3 -10.05Q890.2 -10.84 892 -10.84Q893.9 -10.84 894.8 -10.05Q895.6 -9.266 895.6 -7.547L895.6 -2.75Q895.6 -1.094 896.6 -1.094Q896.7 -1.094 897 -1.141L897.1 -0.0625Q896.5 0.25 895.7 0.25Q894.3 0.25 894 -1.344M893.7 -2.391L893.7 -5.141L893 -5.156Q889.3 -5.156 889.3 -3.016Q889.3 -1.328 891.1 -1.328Q892.4 -1.328 893.7 -2.391ZM897.5 0M902.7 0.0625Q902.1 0.25 901.6 0.25Q899 0.25 899 -2.938L899 -9.156L897.8 -9.156L897.8 -10.61L899 -10.61L899 -12.83L900.9 -13.02L900.9 -10.61L903.3 -10.61L903.3 -9.156L900.9 -9.156L900.9 -3.281Q900.9 -2.016 901.2 -1.609Q901.4 -1.203 902 -1.203Q902.4 -1.203 902.7 -1.312L902.7 0.0625ZM903.2 0M904.7 0L904.7 -10.61L906.6 -10.61L906.6 0L904.7 0M904.6 -12.53L904.6 -14.66L906.7 -14.66L906.7 -12.53L904.6 -12.53ZM908.1 0M913.6 0.25Q911.5 0.25 910.2 -1.266Q909 -2.766 909 -5.297Q909 -7.875 910.2 -9.359Q911.5 -10.84 913.7 -10.84Q915.9 -10.84 917.1 -9.359Q918.4 -7.875 918.4 -5.328Q918.4 -2.703 917.1 -1.234Q915.9 0.25 913.6 0.25M913.6 -1.203Q916.3 -1.203 916.3 -5.359Q916.3 -9.391 913.7 -9.391Q911 -9.391 911 -5.297Q911 -1.203 913.6 -1.203ZM919.2 0M920.8 0L920.8 -10.61L922.7 -10.61L922.7 -8.609Q924.2 -10.84 926.3 -10.84Q929 -10.84 929 -7.625L929 0L927 0L927 -7Q927 -8.266 926.8 -8.734Q926.5 -9.188 925.8 -9.188Q924.1 -9.188 922.7 -6.859L922.7 0L920.8 0ZM930.4 0M931.5 -0.375L931.5 -2.141Q933.4 -1.203 935.1 -1.203Q937.3 -1.203 937.3 -2.812Q937.3 -3.828 935.8 -4.344L934 -4.906Q931.6 -5.734 931.6 -7.859Q931.6 -10.84 935.6 -10.84Q936.8 -10.84 938.4 -10.53L938.4 -8.922Q937 -9.391 935.4 -9.391Q933.5 -9.391 933.5 -8.047Q933.5 -7.125 934.8 -6.672L936.4 -6.172Q939.2 -5.219 939.2 -2.969Q939.2 -1.469 938.1 -0.6094Q937 0.25 935 0.25Q933.4 0.25 931.5 -0.375ZM940.4 0M942.3 0L942.3 -2.516L944.8 -2.516L944.8 0L942.3 0Z" fill="#8b949e" transform="translate(64,225.2)"/><path d="M3.812 0L3.812 -9.688L0.1406 -9.688L0.1406 -10.84L9.016 -10.84L9.016 -9.688L5.344 -9.688L5.344 0L3.812 0ZM9.156 0M12.11 0L9.297 -7.953L10.77 -7.953L12.92 -1.859L15.3 -7.953L16.56 -7.953L12.36 2.891L10.86 2.891L12.11 0ZM16.66 0M19.23 2.891L17.78 2.891L17.78 -7.953L19.23 -7.953L19.23 -6.453Q20.09 -8.125 21.59 -8.125Q22.84 -8.125 23.59 -7.047Q24.36 -5.984 24.36 -4.203Q24.36 -2.109 23.38 -0.9531Q22.41 0.1875 20.61 0.1875Q19.92 0.1875 19.23 0L19.23 2.891M19.23 -5.156L19.23 -1.094Q20.22 -0.9062 20.73 -0.9062Q22.8 -0.9062 22.8 -4.078Q22.8 -5.375 22.39 -6.109Q21.98 -6.875 21.28 -6.875Q20.34 -6.875 19.23 -5.156ZM25 0M30.98 -4.828Q30.98 -7.047 29.2 -7.047Q27.34 -7.047 27.17 -4.828L30.98 -4.828M32.42 -1.406L32.42 -0.25Q31 0.1875 29.66 0.1875Q27.81 0.1875 26.72 -0.9688Q25.62 -2.125 25.62 -4.078Q25.62 -5.938 26.59 -7.031Q27.58 -8.125 29.22 -8.125Q32.47 -8.125 32.47 -4.203L32.45 -3.75L27.14 -3.75Q27.34 -0.9219 30 -0.9219Q31.14 -0.9219 32.42 -1.406ZM33.34 0M34.22 -0.375L34.22 -1.906Q36.31 -0.875 38.55 -0.875Q40.86 -0.875 40.86 -2.625Q40.86 -3.406 40.41 -3.812Q39.97 -4.219 38.59 -4.672L37.11 -5.156Q34.28 -6.094 34.28 -8.172Q34.28 -11.11 38.23 -11.11Q40.03 -11.11 41.78 -10.66L41.78 -9.234Q39.95 -9.969 38.14 -9.969Q35.77 -9.969 35.77 -8.344Q35.77 -7.703 36.2 -7.312Q36.66 -6.922 37.84 -6.531L39.34 -6.031Q41.06 -5.484 41.75 -4.766Q42.45 -4.047 42.45 -2.859Q42.45 -1.406 41.37 -0.5625Q40.31 0.2656 38.5 0.2656Q36.52 0.2656 34.22 -0.375ZM43.34 0M50.12 -0.2344Q48.86 0.1875 47.58 0.1875Q45.98 0.1875 44.98 -0.9688Q43.97 -2.125 43.97 -3.969Q43.97 -5.922 44.98 -7.031Q46.02 -8.125 47.83 -8.125Q48.8 -8.125 50.03 -7.859L50.03 -6.672Q48.86 -7.031 48.14 -7.031Q45.56 -7.031 45.56 -3.969Q45.56 -2.547 46.23 -1.766Q46.89 -0.9844 48.06 -0.9844Q48.97 -0.9844 50.12 -1.484L50.12 -0.2344ZM50.84 0M51.97 0L51.97 -7.953L53.42 -7.953L53.42 -6.453Q54.08 -8.125 55.31 -8.125Q55.48 -8.125 55.73 -8.094L55.73 -6.75Q55.36 -6.875 55.12 -6.875Q54.3 -6.875 53.42 -5.25L53.42 0L51.97 0ZM55.84 0M56.97 0L56.97 -7.953L58.42 -7.953L58.42 0L56.97 0M56.91 -9.391L56.91 -10.98L58.48 -10.98L58.48 -9.391L56.91 -9.391ZM59.55 0M62.12 2.891L60.67 2.891L60.67 -7.953L62.12 -7.953L62.12 -6.453Q62.98 -8.125 64.48 -8.125Q65.73 -8.125 66.48 -7.047Q67.25 -5.984 67.25 -4.203Q67.25 -2.109 66.27 -0.9531Q65.3 0.1875 63.5 0.1875Q62.81 0.1875 62.12 0L62.12 2.891M62.12 -5.156L62.12 -1.094Q63.11 -0.9062 63.62 -0.9062Q65.69 -0.9062 65.69 -4.078Q65.69 -5.375 65.28 -6.109Q64.87 -6.875 64.17 -6.875Q63.23 -6.875 62.12 -5.156ZM67.89 0M71.77 0.04688Q71.34 0.1875 70.97 0.1875Q69 0.1875 69 -2.203L69 -6.875L68.08 -6.875L68.08 -7.953L69 -7.953L69 -9.609L70.45 -9.75L70.45 -7.953L72.2 -7.953L72.2 -6.875L70.45 -6.875L70.45 -2.469Q70.45 -1.516 70.61 -1.203Q70.77 -0.9062 71.28 -0.9062Q71.58 -0.9062 71.77 -0.9844L71.77 0.04688Z" fill="#8b949e" transform="translate(64,562.2)"/><path d="M1.203 0L1.203 -10.84L3.344 -10.84L6.328 -2.453L9.375 -10.84L11.28 -10.84L11.28 0L9.844 0L9.844 -8.812L6.891 -0.7188L5.406 -0.7188L2.531 -8.844L2.531 0L1.203 0ZM12.5 0M13.41 0L13.41 -1.156L14.73 -1.156L14.73 -9.688L13.41 -9.688L13.41 -10.84L17.58 -10.84L17.58 -9.688L16.25 -9.688L16.25 -1.156L17.58 -1.156L17.58 0L13.41 0ZM18.48 0M22.3 0L22.3 -9.688L18.62 -9.688L18.62 -10.84L27.5 -10.84L27.5 -9.688L23.83 -9.688L23.83 0L22.3 0ZM31.81 0M33.02 0L33.02 -10.84L34.56 -10.84L34.56 -1.156L39.87 -1.156L39.87 0L33.02 0ZM40.16 0M41.28 0L41.28 -7.953L42.73 -7.953L42.73 0L41.28 0M41.22 -9.391L41.22 -10.98L42.8 -10.98L42.8 -9.391L41.22 -9.391ZM43.86 0M50.64 -0.2344Q49.38 0.1875 48.09 0.1875Q46.5 0.1875 45.5 -0.9688Q44.48 -2.125 44.48 -3.969Q44.48 -5.922 45.5 -7.031Q46.53 -8.125 48.34 -8.125Q49.31 -8.125 50.55 -7.859L50.55 -6.672Q49.38 -7.031 48.66 -7.031Q46.08 -7.031 46.08 -3.969Q46.08 -2.547 46.75 -1.766Q47.41 -0.9844 48.58 -0.9844Q49.48 -0.9844 50.64 -1.484L50.64 -0.2344ZM51.36 0M57.34 -4.828Q57.34 -7.047 55.56 -7.047Q53.7 -7.047 53.53 -4.828L57.34 -4.828M58.78 -1.406L58.78 -0.25Q57.36 0.1875 56.02 0.1875Q54.17 0.1875 53.08 -0.9688Q51.98 -2.125 51.98 -4.078Q51.98 -5.938 52.95 -7.031Q53.94 -8.125 55.58 -8.125Q58.83 -8.125 58.83 -4.203L58.81 -3.75L53.5 -3.75Q53.7 -0.9219 56.36 -0.9219Q57.5 -0.9219 58.78 -1.406ZM59.7 0M60.83 0L60.83 -7.953L62.28 -7.953L62.28 -6.453Q63.42 -8.125 64.97 -8.125Q67 -8.125 67 -5.719L67 0L65.56 0L65.56 -5.25Q65.56 -6.203 65.34 -6.547Q65.16 -6.891 64.59 -6.891Q63.38 -6.891 62.28 -5.156L62.28 0L60.83 0ZM68.05 0M68.89 -0.2812L68.89 -1.609Q70.31 -0.9062 71.56 -0.9062Q73.25 -0.9062 73.25 -2.109Q73.25 -2.875 72.08 -3.266L70.8 -3.688Q68.94 -4.297 68.94 -5.891Q68.94 -8.125 72 -8.125Q72.87 -8.125 74.09 -7.891L74.09 -6.688Q73.03 -7.047 71.84 -7.047Q70.37 -7.047 70.37 -6.031Q70.37 -5.344 71.41 -5L72.55 -4.625Q74.7 -3.922 74.7 -2.234Q74.7 -1.109 73.84 -0.4688Q73 0.1875 71.52 0.1875Q70.33 0.1875 68.89 -0.2812ZM75.55 0M81.53 -4.828Q81.53 -7.047 79.75 -7.047Q77.89 -7.047 77.72 -4.828L81.53 -4.828M82.97 -1.406L82.97 -0.25Q81.55 0.1875 80.2 0.1875Q78.36 0.1875 77.27 -0.9688Q76.17 -2.125 76.17 -4.078Q76.17 -5.938 77.14 -7.031Q78.12 -8.125 79.77 -8.125Q83.02 -8.125 83.02 -4.203L83 -3.75L77.69 -3.75Q77.89 -0.9219 80.55 -0.9219Q81.69 -0.9219 82.97 -1.406Z" fill="#8b949e" transform="translate(160.1,562.2)"/><image href="https://cdn.jsdelivr.net/gh/twitter/twemoji@latest/assets/svg/2605.svg" x="268" y="548" width="15" height="15"/><path d="M4.172 0M5.5 0L5.5 -1.266L7.672 -1.266L7.672 -9.266L5.5 -8.719L5.5 -10.03L9.844 -11.11L9.844 -1.266L12.02 -1.266L12.02 0L5.5 0ZM12.52 0M13.08 0L13.08 -1.719Q13.67 -2.766 14.53 -3.641L15.28 -4.422L16.16 -5.297Q17.06 -6.219 17.33 -6.734Q17.61 -7.25 17.61 -8.016Q17.61 -9.719 16 -9.719Q14.95 -9.719 13.36 -8.906L13.36 -10.5Q15.02 -11.11 16.36 -11.11Q18.02 -11.11 18.97 -10.3Q19.91 -9.484 19.91 -8.047Q19.91 -7.109 19.45 -6.359Q19 -5.609 17.81 -4.594L17.09 -3.984Q15.69 -2.797 15.53 -1.719L19.87 -1.719L19.87 0L13.08 0ZM20.86 0M23.5 -5.844Q22.66 -6.531 22.38 -7.031Q22.09 -7.531 22.09 -8.344Q22.09 -9.625 22.94 -10.38Q23.8 -11.11 25.28 -11.11Q26.64 -11.11 27.45 -10.44Q28.27 -9.781 28.27 -8.656Q28.27 -7.094 26.61 -5.953Q27.84 -5.156 28.3 -4.531Q28.75 -3.891 28.75 -2.969Q28.75 -1.531 27.7 -0.625Q26.67 0.2656 25 0.2656Q23.39 0.2656 22.44 -0.5156Q21.48 -1.312 21.48 -2.672Q21.48 -3.641 21.92 -4.328Q22.38 -5.031 23.5 -5.844M25.48 -6.562Q26.39 -7.266 26.39 -8.375Q26.39 -9.75 25.2 -9.75Q23.97 -9.75 23.97 -8.562Q23.97 -7.75 25.09 -6.891Q25.23 -6.781 25.48 -6.562M24.59 -5.125Q23.55 -4.141 23.55 -2.875Q23.55 -1.062 25.22 -1.062Q25.91 -1.062 26.36 -1.469Q26.8 -1.891 26.8 -2.531Q26.8 -3.125 26.55 -3.469Q26.31 -3.797 25.38 -4.516L24.59 -5.125ZM29.2 0M30.28 0L30.28 -11.56L32.45 -11.56L32.45 -4.297L32.59 -4.297L35.13 -8.047L36.92 -8.047L34.58 -4.547L37.48 0L35.17 0L32.59 -4.016L32.45 -4.016L32.45 0L30.28 0Z" fill="#f0f6fc" transform="translate(283,562.2)"/><path d="M1.219 -10.84L2.75 -10.84L2.75 -4Q2.75 -2.844 2.938 -2.297Q3.125 -1.766 3.656 -1.391Q4.375 -0.875 5.625 -0.875Q7.078 -0.875 7.672 -1.562Q8.266 -2.25 8.266 -3.953L8.266 -10.84L9.609 -10.84L9.609 -3.969Q9.609 -2.516 9.328 -1.766Q9.031 -1.031 8.266 -0.4688Q7.25 0.2656 5.531 0.2656Q3.281 0.2656 2.25 -0.75Q1.219 -1.781 1.219 -4.016L1.219 -10.84ZM10.83 0M13.41 2.891L11.95 2.891L11.95 -7.953L13.41 -7.953L13.41 -6.453Q14.27 -8.125 15.77 -8.125Q17.02 -8.125 17.77 -7.047Q18.53 -5.984 18.53 -4.203Q18.53 -2.109 17.55 -0.9531Q16.58 0.1875 14.78 0.1875Q14.09 0.1875 13.41 0L13.41 2.891M13.41 -5.156L13.41 -1.094Q14.39 -0.9062 14.91 -0.9062Q16.97 -0.9062 16.97 -4.078Q16.97 -5.375 16.56 -6.109Q16.16 -6.875 15.45 -6.875Q14.52 -6.875 13.41 -5.156ZM19.17 0M24.94 -2.797L24.94 -6.859Q23.94 -7.047 23.44 -7.047Q21.36 -7.047 21.36 -3.875Q21.36 -2.578 21.77 -1.828Q22.17 -1.078 22.87 -1.078Q23.83 -1.078 24.94 -2.797M24.94 -1.484Q24.08 0.1875 22.56 0.1875Q21.31 0.1875 20.56 -0.8906Q19.8 -1.984 19.8 -3.75Q19.8 -5.844 20.78 -6.984Q21.75 -8.125 23.55 -8.125Q24.25 -8.125 24.94 -7.953L24.94 -11.56L26.37 -11.56L26.37 0L24.94 0L24.94 -1.484ZM27.52 0M33.19 -1.016Q31.87 0.1875 30.56 0.1875Q29.52 0.1875 28.86 -0.4219Q28.22 -1.031 28.22 -2Q28.22 -4.703 32.64 -4.703L32.97 -4.703L32.97 -5.656Q32.97 -7.047 31.45 -7.047Q30.22 -7.047 28.91 -6.344L28.91 -7.531Q30.36 -8.125 31.7 -8.125Q33.12 -8.125 33.77 -7.531Q34.42 -6.953 34.42 -5.656L34.42 -2.062Q34.42 -0.8281 35.17 -0.8281Q35.27 -0.8281 35.45 -0.8438L35.56 -0.04688Q35.06 0.1875 34.47 0.1875Q33.47 0.1875 33.19 -1.016M32.97 -1.797L32.97 -3.859L32.5 -3.875Q29.7 -3.875 29.7 -2.25Q29.7 -1 31.05 -1Q31.98 -1 32.97 -1.797ZM35.86 0M39.73 0.04688Q39.31 0.1875 38.94 0.1875Q36.97 0.1875 36.97 -2.203L36.97 -6.875L36.05 -6.875L36.05 -7.953L36.97 -7.953L36.97 -9.609L38.42 -9.75L38.42 -7.953L40.17 -7.953L40.17 -6.875L38.42 -6.875L38.42 -2.469Q38.42 -1.516 38.58 -1.203Q38.73 -0.9062 39.25 -0.9062Q39.55 -0.9062 39.73 -0.9844L39.73 0.04688ZM40.09 0M46.08 -4.828Q46.08 -7.047 44.3 -7.047Q42.44 -7.047 42.27 -4.828L46.08 -4.828M47.52 -1.406L47.52 -0.25Q46.09 0.1875 44.75 0.1875Q42.91 0.1875 41.81 -0.9688Q40.72 -2.125 40.72 -4.078Q40.72 -5.938 41.69 -7.031Q42.67 -8.125 44.31 -8.125Q47.56 -8.125 47.56 -4.203L47.55 -3.75L42.23 -3.75Q42.44 -0.9219 45.09 -0.9219Q46.23 -0.9219 47.52 -1.406ZM48.44 0M54.2 -2.797L54.2 -6.859Q53.2 -7.047 52.7 -7.047Q50.63 -7.047 50.63 -3.875Q50.63 -2.578 51.03 -1.828Q51.44 -1.078 52.14 -1.078Q53.09 -1.078 54.2 -2.797M54.2 -1.484Q53.34 0.1875 51.83 0.1875Q50.58 0.1875 49.83 -0.8906Q49.06 -1.984 49.06 -3.75Q49.06 -5.844 50.05 -6.984Q51.02 -8.125 52.81 -8.125Q53.52 -8.125 54.2 -7.953L54.2 -11.56L55.64 -11.56L55.64 0L54.2 0L54.2 -1.484ZM60.95 0M61.52 0L61.52 -1.719Q62.11 -2.766 62.97 -3.641L63.72 -4.422L64.59 -5.297Q65.5 -6.219 65.77 -6.734Q66.05 -7.25 66.05 -8.016Q66.05 -9.719 64.44 -9.719Q63.39 -9.719 61.8 -8.906L61.8 -10.5Q63.45 -11.11 64.8 -11.11Q66.45 -11.11 67.41 -10.3Q68.34 -9.484 68.34 -8.047Q68.34 -7.109 67.89 -6.359Q67.44 -5.609 66.25 -4.594L65.53 -3.984Q64.13 -2.797 63.97 -1.719L68.31 -1.719L68.31 0L61.52 0ZM73.47 0M74.59 0L74.59 -11.56L76.05 -11.56L76.05 -6.453Q77.19 -8.125 78.73 -8.125Q80.77 -8.125 80.77 -5.719L80.77 0L79.33 0L79.33 -5.25Q79.33 -6.203 79.11 -6.547Q78.92 -6.891 78.36 -6.891Q77.14 -6.891 76.05 -5.156L76.05 0L74.59 0ZM81.81 0M85.92 0.1875Q84.33 0.1875 83.37 -0.9375Q82.44 -2.078 82.44 -3.984Q82.44 -5.906 83.39 -7.016Q84.34 -8.125 85.98 -8.125Q87.61 -8.125 88.56 -7.016Q89.52 -5.906 89.52 -3.984Q89.52 -2.031 88.56 -0.9219Q87.61 0.1875 85.92 0.1875M85.95 -0.9062Q87.95 -0.9062 87.95 -4.016Q87.95 -7.047 85.98 -7.047Q84 -7.047 84 -3.984Q84 -0.9062 85.95 -0.9062ZM90.16 0M95.92 0L95.92 -1.484Q94.78 0.1875 93.23 0.1875Q91.2 0.1875 91.2 -2.234L91.2 -7.953L92.64 -7.953L92.64 -2.703Q92.64 -1.75 92.84 -1.406Q93.05 -1.062 93.61 -1.062Q94.83 -1.062 95.92 -2.797L95.92 -7.953L97.36 -7.953L97.36 0L95.92 0ZM98.5 0M99.62 0L99.62 -7.953L101.1 -7.953L101.1 -6.453Q101.7 -8.125 103 -8.125Q103.1 -8.125 103.4 -8.094L103.4 -6.75Q103 -6.875 102.8 -6.875Q102 -6.875 101.1 -5.25L101.1 0L99.62 0ZM103.5 0M104.3 -0.2812L104.3 -1.609Q105.8 -0.9062 107 -0.9062Q108.7 -0.9062 108.7 -2.109Q108.7 -2.875 107.5 -3.266L106.2 -3.688Q104.4 -4.297 104.4 -5.891Q104.4 -8.125 107.5 -8.125Q108.3 -8.125 109.5 -7.891L109.5 -6.688Q108.5 -7.047 107.3 -7.047Q105.8 -7.047 105.8 -6.031Q105.8 -5.344 106.9 -5L108 -4.625Q110.2 -3.922 110.2 -2.234Q110.2 -1.109 109.3 -0.4688Q108.5 0.1875 107 0.1875Q105.8 0.1875 104.3 -0.2812ZM115.2 0M120.8 -1.016Q119.5 0.1875 118.2 0.1875Q117.2 0.1875 116.5 -0.4219Q115.9 -1.031 115.9 -2Q115.9 -4.703 120.3 -4.703L120.6 -4.703L120.6 -5.656Q120.6 -7.047 119.1 -7.047Q117.9 -7.047 116.6 -6.344L116.6 -7.531Q118 -8.125 119.4 -8.125Q120.8 -8.125 121.4 -7.531Q122.1 -6.953 122.1 -5.656L122.1 -2.062Q122.1 -0.8281 122.8 -0.8281Q122.9 -0.8281 123.1 -0.8438L123.2 -0.04688Q122.7 0.1875 122.1 0.1875Q121.1 0.1875 120.8 -1.016M120.6 -1.797L120.6 -3.859L120.2 -3.875Q117.4 -3.875 117.4 -2.25Q117.4 -1 118.7 -1Q119.6 -1 120.6 -1.797ZM123.5 0M129.3 -3.172L129.3 -6.859Q128.3 -7.047 127.8 -7.047Q125.7 -7.047 125.7 -4.203Q125.7 -2.938 126.2 -2.188Q126.6 -1.438 127.3 -1.438Q128.2 -1.438 129.3 -3.172M129.3 -1.859Q128.5 -0.1875 127 -0.1875Q125.7 -0.1875 125 -1.25Q124.2 -2.312 124.2 -4.031Q124.2 -5.984 125.2 -7.047Q126.2 -8.125 127.9 -8.125Q128.6 -8.125 129.3 -7.953L130.8 -7.953L130.8 -2.172Q130.8 -0.2969 130.6 0.5938Q130.4 1.5 129.9 2.062Q128.9 3.078 126.9 3.078Q125.5 3.078 124.3 2.641L124.3 1.391Q125.8 1.984 126.9 1.984Q129.3 1.984 129.3 -0.5938L129.3 -1.859ZM131.9 0M136 0.1875Q134.4 0.1875 133.4 -0.9375Q132.5 -2.078 132.5 -3.984Q132.5 -5.906 133.4 -7.016Q134.4 -8.125 136 -8.125Q137.7 -8.125 138.6 -7.016Q139.6 -5.906 139.6 -3.984Q139.6 -2.031 138.6 -0.9219Q137.7 0.1875 136 0.1875M136 -0.9062Q138 -0.9062 138 -4.016Q138 -7.047 136 -7.047Q134 -7.047 134 -3.984Q134 -0.9062 136 -0.9062Z" fill="#8b949e" transform="translate(329.6,562.2)"/></svg>