<svg width="1200" height="630" viewBox="0 0 1200 630" xmlns="http://www.w3.org/2000/svg"><mask id="satori_om-id"><rect x="0" y="0" width="1200" height="630" fill="#fff"/></mask><rect x="0" y="0" width="1200" height="630" fill="#f8fafc"/><mask id="satori_om-id-0"><rect x="20" y="20" width="280" height="590" fill="#fff"/></mask><path x="20" y="20" width="280" height="590" fill="#ef4444" d="M28,20 h264 a8,8 0 0 1 8,8 v574 a8,8 0 0 1 -8,8 h-264 a8,8 0 0 1 -8,-8 v-574 a8,8 0 0 1 8,-8"/><mask id="satori_om-id-1"><rect x="320" y="20" width="560" height="590" fill="#fff"/></mask><path x="320" y="20" width="560" height="590" fill="#22c55e" d="M328,20 h544 a8,8 0 0 1 8,8 v574 a8,8 0 0 1 -8,8 h-544 a8,8 0 0 1 -8,-8 v-574 a8,8 0 0 1 8,-8"/><mask id="satori_om-id-2"><rect x="900" y="20" width="280" height="590" fill="#fff"/></mask><path x="900" y="20" width="280" height="590" fill="#3b82f6" d="M908,20 h264 a8,8 0 0 1 8,8 v574 a8,8 0 0 1 -8,8 h-264 a8,8 0 0 1 -8,-8 v-574 a8,8 0 0 1 8,-8"/></svg>