<svg width="1200" height="630" viewBox="0 0 1200 630" xmlns="http://www.w3.org/2000/svg"><mask id="satori_om-id"><rect x="0" y="0" width="1200" height="630" fill="#fff"/></mask><rect x="0" y="0" width="1200" height="630" fill="#0f172a"/><mask id="satori_om-id-0"><rect x="376" y="259" width="448" height="68" fill="#fff"/></mask><g  ><path fill="white" d="M396.9 313L379.7 313L379.7 272.3L395.9 272.3Q400.3 272.3 403.3 273.6Q406.3 275.0 407.8 277.3Q409.3 279.7 409.3 282.7L409.3 282.7Q409.3 285.1 408.3 286.9Q407.4 288.7 405.7 289.9Q404.1 291.0 402.0 291.5L402.0 291.5L402.0 291.9Q404.3 292.0 406.3 293.2Q408.3 294.4 409.6 296.6Q410.9 298.8 410.9 301.8L410.9 301.8Q410.9 305.0 409.3 307.5Q407.7 310.1 404.6 311.5Q401.5 313 396.9 313L396.9 313ZM388.0 295.1L388.0 306.1L395.3 306.1Q398.9 306.1 400.6 304.7Q402.3 303.3 402.3 301.0L402.3 301.0Q402.3 299.2 401.5 297.9Q400.6 296.6 399.1 295.8Q397.6 295.1 395.5 295.1L395.5 295.1L388.0 295.1ZM388.0 279.1L388.0 289.4L394.6 289.4Q396.4 289.4 397.8 288.7Q399.2 288.1 400.0 286.9Q400.9 285.7 400.9 284.1L400.9 284.1Q400.9 281.9 399.3 280.5Q397.7 279.1 394.8 279.1L394.8 279.1L388.0 279.1ZM427.1 313.4L427.1 313.4Q423.9 313.4 421.5 312.0Q419.1 310.6 417.8 308.0Q416.6 305.5 416.6 301.9L416.6 301.9L416.6 282.4L424.8 282.4L424.8 300.4Q424.8 303.3 426.2 304.9Q427.7 306.5 430.3 306.5L430.3 306.5Q432.0 306.5 433.4 305.8Q434.7 305.0 435.5 303.6Q436.2 302.1 436.2 300.1L436.2 300.1L436.2 282.4L444.4 282.4L444.4 313L436.7 313L436.6 306.6Q435.4 309.6 433.4 311.3L433.4 311.3Q430.9 313.4 427.1 313.4ZM459.6 313L451.4 313L451.4 282.4L459.6 282.4L459.6 313ZM455.5 278.4L455.5 278.4Q453.7 278.4 452.3 277.2Q451.0 276.0 451.0 274.2L451.0 274.2Q451.0 272.5 452.3 271.2Q453.7 270.0 455.5 270.0L455.5 270.0Q457.4 270.0 458.7 271.2Q460.0 272.4 460.0 274.2L460.0 274.2Q460.0 276.0 458.7 277.2Q457.4 278.4 455.5 278.4ZM466.6 272.3L474.8 272.3L474.8 313L466.6 313L466.6 272.3ZM492.9 313.5L492.9 313.5Q489.4 313.5 486.6 311.7Q483.8 309.9 482.1 306.4Q480.5 302.9 480.5 297.8L480.5 297.8Q480.5 292.5 482.2 289.0Q483.9 285.5 486.7 283.8Q489.5 282.0 492.9 282.0L492.9 282.0Q495.5 282.0 497.2 282.9Q498.9 283.8 500.0 285.1Q501.1 286.4 501.6 287.6L501.6 287.6L501.9 287.6L501.9 272.3L510.1 272.3L510.1 313L502 313L502 308.1L501.6 308.1Q501.0 309.3 500.0 310.6Q498.9 311.8 497.2 312.7Q495.4 313.5 492.9 313.5ZM495.5 306.9L495.5 306.9Q497.5 306.9 499.0 305.8Q500.5 304.6 501.3 302.6Q502.0 300.5 502.0 297.7L502.0 297.7Q502.0 295.0 501.3 292.9Q500.5 290.9 499.0 289.7Q497.6 288.6 495.5 288.6L495.5 288.6Q493.3 288.6 491.8 289.8Q490.4 291.0 489.6 293.0Q488.9 295.1 488.9 297.7L488.9 297.7Q488.9 300.4 489.7 302.5Q490.4 304.6 491.9 305.8Q493.3 306.9 495.5 306.9Z M545.4 313.6L545.4 313.6Q540.6 313.6 536.9 312.1Q533.3 310.6 531.3 307.6Q529.3 304.7 529.2 300.4L529.2 300.4L537.3 300.4Q537.4 302.4 538.5 303.8Q539.6 305.2 541.3 305.9Q543.1 306.5 545.4 306.5L545.4 306.5Q547.6 306.5 549.3 305.9Q550.9 305.3 551.8 304.1Q552.8 302.9 552.8 301.4L552.8 301.4Q552.8 300.0 551.9 299.0Q551.1 298.1 549.6 297.4Q548.0 296.7 545.8 296.2L545.8 296.2L541.3 295.1Q536.1 293.8 533.2 291.1Q530.2 288.4 530.2 284.0L530.2 284.0Q530.2 280.3 532.2 277.5Q534.2 274.8 537.7 273.2Q541.1 271.7 545.6 271.7L545.6 271.7Q550.1 271.7 553.4 273.3Q556.8 274.8 558.7 277.5Q560.6 280.3 560.6 283.9L560.6 283.9L552.6 283.9Q552.3 281.4 550.5 280.1Q548.6 278.7 545.5 278.7L545.5 278.7Q543.4 278.7 541.9 279.3Q540.4 279.9 539.6 281.0Q538.8 282.1 538.8 283.4L538.8 283.4Q538.8 284.9 539.7 285.9Q540.6 286.9 542.1 287.6Q543.6 288.2 545.3 288.6L545.3 288.6L549.0 289.5Q551.6 290.1 553.8 291.0Q556.0 292.0 557.7 293.5Q559.3 294.9 560.3 296.9Q561.2 298.8 561.2 301.4L561.2 301.4Q561.2 305.1 559.3 307.8Q557.5 310.6 553.9 312.1Q550.4 313.6 545.4 313.6ZM580.7 313.6L580.7 313.6Q576.1 313.6 572.7 311.6Q569.3 309.6 567.5 306.1Q565.7 302.6 565.7 297.9L565.7 297.9Q565.7 293.1 567.5 289.6Q569.3 286.0 572.7 284.0Q576.1 282.0 580.7 282.0L580.7 282.0Q585.3 282.0 588.6 284.0Q592.0 286.0 593.8 289.6Q595.6 293.1 595.6 297.9L595.6 297.9Q595.6 302.6 593.8 306.1Q592.0 309.6 588.6 311.6Q585.3 313.6 580.7 313.6ZM580.7 307.1L580.7 307.1Q582.9 307.1 584.3 305.9Q585.8 304.7 586.5 302.6Q587.3 300.5 587.3 297.8L587.3 297.8Q587.3 295.1 586.5 293.0Q585.8 290.9 584.3 289.7Q582.9 288.5 580.7 288.5L580.7 288.5Q578.5 288.5 577.0 289.7Q575.6 290.9 574.8 293.0Q574.1 295.1 574.1 297.8L574.1 297.8Q574.1 300.5 574.8 302.6Q575.6 304.7 577.0 305.9Q578.5 307.1 580.7 307.1ZM609.5 313L601.3 313L601.3 282.4L608.9 282.4L609.3 288.4Q609.9 286.7 610.9 285.4L610.9 285.4Q612.2 283.7 614.1 282.8Q615.9 282.0 618.0 282.0L618.0 282.0Q621.3 282.0 623.3 284.0L623.3 284.0Q624.9 285.7 625.9 288.8L625.9 288.8Q626.5 287.0 627.6 285.7L627.6 285.7Q629.1 283.8 631.2 282.9Q633.4 282.0 635.7 282.0L635.7 282.0Q638.5 282.0 640.7 283.2Q642.9 284.4 644.2 286.7Q645.4 289.0 645.4 292.4L645.4 292.4L645.4 313L637.2 313L637.2 293.9Q637.2 291.3 635.8 290.1Q634.4 288.8 632.4 288.8L632.4 288.8Q630.8 288.8 629.7 289.5Q628.6 290.2 628.0 291.4Q627.3 292.6 627.3 294.2L627.3 294.2L627.3 313L619.4 313L619.4 293.7Q619.4 291.5 618.1 290.2Q616.8 288.8 614.7 288.8L614.7 288.8Q613.2 288.8 612.0 289.5Q610.9 290.1 610.2 291.4Q609.5 292.7 609.5 294.5L609.5 294.5L609.5 313ZM666.3 313.6L666.3 313.6Q661.6 313.6 658.2 311.7Q654.8 309.8 653.0 306.2Q651.2 302.7 651.2 297.9L651.2 297.9Q651.2 293.1 653.0 289.6Q654.8 286.0 658.1 284.0Q661.4 282.0 665.8 282.0L665.8 282.0Q668.9 282.0 671.4 283.0Q674.0 284.0 676.0 285.9Q678.0 287.8 679.1 290.7Q680.2 293.6 680.2 297.6L680.2 297.6L680.2 299.8L659.3 299.8Q659.4 302.2 660.2 303.8L660.2 303.8Q661.1 305.6 662.7 306.5Q664.3 307.4 666.4 307.4L666.4 307.4Q667.8 307.4 669.0 307.0Q670.2 306.6 671.0 305.8Q671.9 305.0 672.3 303.8L672.3 303.8L679.7 305.2Q679.0 307.7 677.2 309.6Q675.3 311.5 672.6 312.6Q669.8 313.6 666.3 313.6ZM659.3 294.7L659.3 294.7L672.3 294.7Q672.1 293.2 671.6 291.9L671.6 291.9Q670.9 290.2 669.5 289.2Q668.0 288.2 665.9 288.2L665.9 288.2Q663.8 288.2 662.3 289.2Q660.8 290.2 660.0 291.9L660.0 291.9Q659.5 293.1 659.3 294.7ZM695.3 282.4L701.0 282.4L701.0 288.7L695.3 288.7L695.3 304.1Q695.3 305.5 695.9 306.2Q696.6 306.9 698.1 306.9L698.1 306.9Q698.5 306.9 699.4 306.8Q700.2 306.7 700.7 306.5L700.7 306.5L701.8 312.7Q700.5 313.1 699.1 313.3Q697.8 313.4 696.5 313.4L696.5 313.4Q691.9 313.4 689.5 311.2Q687.1 309.0 687.1 304.8L687.1 304.8L687.1 288.7L682.9 288.7L682.9 282.4L687.1 282.4L687.1 275.2L695.3 275.2L695.3 282.4ZM714.5 295.3L714.5 295.3L714.5 313L706.3 313L706.3 272.3L714.4 272.3L714.4 288.3Q715.5 285.7 717.4 284.1L717.4 284.1Q719.8 282.0 723.7 282.0L723.7 282.0Q726.8 282.0 729.2 283.4Q731.6 284.8 732.9 287.4Q734.2 290.0 734.2 293.6L734.2 293.6L734.2 313L726.0 313L726.0 295.0Q726.0 292.1 724.5 290.5Q723.0 288.9 720.4 288.9L720.4 288.9Q718.7 288.9 717.4 289.7Q716.0 290.4 715.3 291.8Q714.5 293.3 714.5 295.3ZM749.4 313L741.2 313L741.2 282.4L749.4 282.4L749.4 313ZM745.3 278.4L745.3 278.4Q743.4 278.4 742.1 277.2Q740.8 276.0 740.8 274.2L740.8 274.2Q740.8 272.5 742.1 271.2Q743.4 270.0 745.3 270.0L745.3 270.0Q747.1 270.0 748.5 271.2Q749.8 272.4 749.8 274.2L749.8 274.2Q749.8 276.0 748.5 277.2Q747.1 278.4 745.3 278.4ZM764.6 295.3L764.6 295.3L764.6 313L756.4 313L756.4 282.4L764.1 282.4L764.2 288.7Q765.4 285.8 767.4 284.1L767.4 284.1Q769.8 282.0 773.7 282.0L773.7 282.0Q776.9 282.0 779.3 283.4Q781.6 284.8 782.9 287.4Q784.2 290.0 784.2 293.6L784.2 293.6L784.2 313L776.0 313L776.0 295.0Q776.0 292.1 774.5 290.5Q773.1 288.9 770.5 288.9L770.5 288.9Q768.8 288.9 767.4 289.7Q766.1 290.4 765.3 291.8Q764.6 293.3 764.6 295.3ZM804.8 325.1L804.8 325.1Q801.0 325.1 798.1 324.1Q795.3 323.1 793.5 321.4Q791.7 319.8 791.1 317.6L791.1 317.6L798.1 315.6Q798.5 316.5 799.3 317.3Q800.1 318.1 801.4 318.6Q802.8 319.1 804.8 319.1L804.8 319.1Q807.9 319.1 809.7 317.7Q811.5 316.3 811.5 313.2L811.5 313.2L811.5 307.6L810.8 307.6Q810.3 308.8 809.3 310.0Q808.2 311.1 806.5 311.8Q804.9 312.6 802.4 312.6L802.4 312.6Q798.9 312.6 796.1 310.9Q793.3 309.3 791.6 306.0Q789.9 302.7 789.9 297.7L789.9 297.7Q789.9 292.5 791.6 289.0Q793.3 285.5 796.2 283.8Q799.0 282.0 802.4 282.0L802.4 282.0Q805.0 282.0 806.7 282.9Q808.5 283.8 809.5 285.1Q810.6 286.4 811.2 287.6L811.2 287.6L811.5 287.6L811.5 282.4L819.6 282.4L819.6 312.8Q819.6 316.9 817.7 319.6Q815.8 322.4 812.5 323.7Q809.1 325.1 804.8 325.1ZM804.9 306.3L804.9 306.3Q807.0 306.3 808.5 305.3Q810.0 304.3 810.7 302.3Q811.5 300.3 811.5 297.6L811.5 297.6Q811.5 294.9 810.7 292.9Q810.0 290.9 808.5 289.7Q807.0 288.6 804.9 288.6L804.9 288.6Q802.8 288.6 801.3 289.8Q799.9 290.9 799.1 293.0Q798.4 295.0 798.4 297.6L798.4 297.6Q798.4 300.3 799.1 302.2Q799.9 304.2 801.3 305.3Q802.8 306.3 804.9 306.3Z "/></g><mask id="satori_om-id-1"><rect x="369" y="343" width="463" height="29" fill="#fff"/></mask><g  ><path fill="#94a3b8" d="M372.0 366L369.6 366L375.9 348.5L378.5 348.5L384.9 366L382.6 366L380.9 361.1L373.7 361.1L372.0 366ZM374.3 359.2L380.2 359.2L378.9 355.6Q378.6 354.7 378.1 353.2L378.1 353.2Q377.7 352.1 377.2 350.3L377.2 350.3Q376.7 352.1 376.3 353.3L376.3 353.3Q375.9 354.8 375.6 355.6L375.6 355.6L374.3 359.2Z M398.6 366.3L398.6 366.3Q397.3 366.3 396.2 365.9Q395.2 365.5 394.5 364.7Q393.8 363.9 393.6 362.8L393.6 362.8L395.6 362.3Q395.9 363.4 396.6 363.9Q397.4 364.4 398.6 364.4L398.6 364.4Q400.0 364.4 400.8 363.8Q401.6 363.3 401.6 362.4L401.6 362.4Q401.6 361.8 401.1 361.3Q400.6 360.9 399.7 360.6L399.7 360.6L397.5 360.1Q395.7 359.7 394.8 358.8Q394.0 357.9 394.0 356.6L394.0 356.6Q394.0 355.4 394.6 354.6Q395.2 353.7 396.3 353.2Q397.4 352.7 398.8 352.7L398.8 352.7Q400.2 352.7 401.1 353.1Q402.1 353.5 402.7 354.3Q403.2 355.0 403.5 355.9L403.5 355.9L401.6 356.4Q401.4 355.7 400.7 355.1Q400.1 354.5 398.8 354.5L398.8 354.5Q397.7 354.5 396.9 355.1Q396.1 355.6 396.1 356.4L396.1 356.4Q396.1 357.2 396.6 357.6Q397.2 358.0 398.3 358.3L398.3 358.3L400.3 358.8Q402.1 359.2 402.9 360.1Q403.8 361.0 403.8 362.3L403.8 362.3Q403.8 363.5 403.1 364.4Q402.5 365.3 401.3 365.8Q400.1 366.3 398.6 366.3ZM411.3 366.2L411.3 366.2Q409.9 366.2 408.9 365.6Q407.9 365.1 407.4 364.0Q406.8 362.9 406.8 361.2L406.8 361.2L406.8 352.9L408.9 352.9L408.9 361.0Q408.9 362.6 409.7 363.4Q410.5 364.3 411.9 364.3L411.9 364.3Q412.8 364.3 413.6 363.9Q414.3 363.4 414.8 362.7Q415.2 361.9 415.2 360.8L415.2 360.8L415.2 352.9L417.3 352.9L417.3 366L415.3 366L415.3 363.6Q414.7 364.8 413.8 365.4L413.8 365.4Q412.7 366.2 411.3 366.2ZM427.1 366.3L427.1 366.3Q425.9 366.3 425.1 365.9Q424.3 365.4 423.9 364.9Q423.5 364.3 423.3 364.0L423.3 364.0L423.1 364.0L423.1 366L421.0 366L421.0 348.5L423.1 348.5L423.1 355.0L423.3 355.0Q423.5 354.6 423.9 354.1Q424.3 353.6 425.1 353.2Q425.8 352.7 427.1 352.7L427.1 352.7Q428.7 352.7 430.0 353.6Q431.2 354.4 431.9 355.9Q432.6 357.4 432.6 359.5L432.6 359.5Q432.6 361.6 431.9 363.1Q431.2 364.6 430.0 365.4Q428.7 366.3 427.1 366.3ZM426.8 364.4L426.8 364.4Q428.0 364.4 428.8 363.7Q429.7 363.1 430.1 362.0Q430.5 360.8 430.5 359.5L430.5 359.5Q430.5 358.1 430.1 357.0Q429.7 355.9 428.9 355.3Q428.0 354.6 426.8 354.6L426.8 354.6Q425.6 354.6 424.8 355.2Q423.9 355.8 423.5 356.9Q423.1 358.0 423.1 359.5L423.1 359.5Q423.1 360.9 423.5 362.0Q423.9 363.1 424.8 363.8Q425.6 364.4 426.8 364.4ZM438.2 352.9L440.9 352.9L440.9 354.7L438.2 354.7L438.2 362.6Q438.2 363.5 438.5 363.9Q438.9 364.3 439.7 364.3L439.7 364.3Q439.9 364.3 440.2 364.2Q440.5 364.2 440.8 364.1L440.8 364.1L441.2 365.9Q440.9 366.0 440.5 366.1Q440.1 366.2 439.7 366.2L439.7 366.2Q438.0 366.2 437.0 365.3Q436.1 364.4 436.1 362.8L436.1 362.8L436.1 354.7L434.1 354.7L434.1 352.9L436.1 352.9L436.1 349.8L438.2 349.8L438.2 352.9ZM445.7 366L443.6 366L443.6 352.9L445.7 352.9L445.7 366ZM444.6 350.8L444.6 350.8Q444.0 350.8 443.6 350.3Q443.2 349.9 443.2 349.4L443.2 349.4Q443.2 348.8 443.6 348.4Q444.0 348.0 444.6 348.0L444.6 348.0Q445.2 348.0 445.7 348.4Q446.1 348.8 446.1 349.4L446.1 349.4Q446.1 349.9 445.7 350.3Q445.2 350.8 444.6 350.8ZM451.8 352.9L454.5 352.9L454.5 354.7L451.8 354.7L451.8 362.6Q451.8 363.5 452.2 363.9Q452.6 364.3 453.4 364.3L453.4 364.3Q453.6 364.3 453.9 364.2Q454.2 364.2 454.5 364.1L454.5 364.1L454.9 365.9Q454.6 366.0 454.2 366.1Q453.7 366.2 453.3 366.2L453.3 366.2Q451.6 366.2 450.7 365.3Q449.7 364.4 449.7 362.8L449.7 362.8L449.7 354.7L447.8 354.7L447.8 352.9L449.7 352.9L449.7 349.8L451.8 349.8L451.8 352.9ZM457.2 348.5L459.3 348.5L459.3 366L457.2 366L457.2 348.5ZM468.6 366.3L468.6 366.3Q466.7 366.3 465.3 365.4Q463.9 364.6 463.2 363.1Q462.4 361.6 462.4 359.6Q462.4 357.5 463.1 356.0Q463.9 354.5 465.2 353.6Q466.5 352.7 468.3 352.7L468.3 352.7Q469.3 352.7 470.4 353.1Q471.4 353.4 472.2 354.2Q473.0 355.0 473.5 356.2Q474.0 357.5 474.0 359.3L474.0 359.3L474.0 360.2L464.5 360.2Q464.6 361.4 465.0 362.3L465.0 362.3Q465.6 363.4 466.5 363.9Q467.4 364.4 468.6 364.4L468.6 364.4Q469.3 364.4 470.0 364.2Q470.6 364.0 471.1 363.5Q471.5 363.1 471.8 362.4L471.8 362.4L473.8 363.0Q473.5 363.9 472.8 364.7Q472.0 365.4 471.0 365.9Q469.9 366.3 468.6 366.3ZM464.6 358.4L464.6 358.4L471.9 358.4Q471.8 357.5 471.5 356.7L471.5 356.7Q471.1 355.7 470.3 355.2Q469.5 354.6 468.3 354.6Q467.1 354.6 466.3 355.2Q465.4 355.8 465.0 356.7L465.0 356.7Q464.6 357.5 464.6 358.4Z M486.2 352.9L488.9 352.9L488.9 354.7L486.2 354.7L486.2 362.6Q486.2 363.5 486.6 363.9Q487.0 364.3 487.8 364.3L487.8 364.3Q488.0 364.3 488.3 364.2Q488.6 364.2 488.9 364.1L488.9 364.1L489.3 365.9Q489.0 366.0 488.6 366.1Q488.1 366.2 487.7 366.2L487.7 366.2Q486.0 366.2 485.1 365.3Q484.1 364.4 484.1 362.8L484.1 362.8L484.1 354.7L482.2 354.7L482.2 352.9L484.1 352.9L484.1 349.8L486.2 349.8L486.2 352.9ZM493.7 358.1L493.7 358.1L493.7 366L491.6 366L491.6 348.5L493.7 348.5L493.7 355.2Q494.3 354.0 495.1 353.5L495.1 353.5Q496.2 352.7 497.7 352.7L497.7 352.7Q499.0 352.7 500.0 353.3Q501.0 353.8 501.6 354.9Q502.1 356.0 502.1 357.7L502.1 357.7L502.1 366L500.0 366L500.0 357.9Q500.0 356.3 499.2 355.5Q498.4 354.6 497.1 354.6L497.1 354.6Q496.1 354.6 495.4 355.0Q494.6 355.5 494.2 356.2Q493.7 357.0 493.7 358.1ZM509.5 366.3L509.5 366.3Q508.3 366.3 507.2 365.8Q506.2 365.4 505.6 364.5Q505.0 363.6 505.0 362.3L505.0 362.3Q505.0 361.1 505.5 360.4Q505.9 359.7 506.7 359.3Q507.4 358.9 508.3 358.7Q509.2 358.5 510.1 358.4L510.1 358.4Q511.3 358.3 512.0 358.2Q512.8 358.1 513.1 357.9Q513.5 357.7 513.5 357.2L513.5 357.2L513.5 357.2Q513.5 356.3 513.2 355.8Q512.9 355.2 512.3 354.9Q511.7 354.6 510.8 354.6L510.8 354.6Q509.8 354.6 509.1 354.9Q508.5 355.2 508.1 355.6Q507.6 356.1 507.4 356.5L507.4 356.5L505.4 355.8Q505.9 354.6 506.8 354.0Q507.6 353.3 508.7 353.0Q509.7 352.7 510.7 352.7L510.7 352.7Q511.3 352.7 512.2 352.9Q513.0 353.1 513.8 353.5Q514.6 354.0 515.1 354.9Q515.6 355.8 515.6 357.4L515.6 357.4L515.6 366L513.5 366L513.5 364.2L513.4 364.2Q513.2 364.7 512.7 365.2Q512.2 365.6 511.4 366.0Q510.6 366.3 509.5 366.3ZM509.9 364.4L509.9 364.4Q511.0 364.4 511.8 364.0Q512.6 363.5 513.1 362.8Q513.5 362.1 513.5 361.3L513.5 361.3L513.5 359.4Q513.4 359.6 512.9 359.7Q512.5 359.8 511.9 359.9Q511.4 360.0 510.9 360.1Q510.3 360.2 510.0 360.2L510.0 360.2Q509.3 360.3 508.6 360.5Q507.9 360.8 507.6 361.2Q507.2 361.6 507.2 362.4L507.2 362.4Q507.2 363.1 507.5 363.5Q507.9 364.0 508.5 364.2Q509.1 364.4 509.9 364.4ZM521.8 352.9L524.5 352.9L524.5 354.7L521.8 354.7L521.8 362.6Q521.8 363.5 522.1 363.9Q522.5 364.3 523.3 364.3L523.3 364.3Q523.5 364.3 523.8 364.2Q524.1 364.2 524.4 364.1L524.4 364.1L524.8 365.9Q524.5 366.0 524.1 366.1Q523.7 366.2 523.3 366.2L523.3 366.2Q521.6 366.2 520.6 365.3Q519.7 364.4 519.7 362.8L519.7 362.8L519.7 354.7L517.7 354.7L517.7 352.9L519.7 352.9L519.7 349.8L521.8 349.8L521.8 352.9Z M539.4 366.3L539.4 366.3Q537.5 366.3 536.1 365.4Q534.8 364.6 534.0 363.1Q533.3 361.6 533.3 359.6Q533.3 357.5 534 356.0Q534.7 354.5 536.1 353.6Q537.4 352.7 539.2 352.7L539.2 352.7Q540.2 352.7 541.2 353.1Q542.2 353.4 543.1 354.2Q543.9 355.0 544.4 356.2Q544.9 357.5 544.9 359.3L544.9 359.3L544.9 360.2L535.4 360.2Q535.5 361.4 535.9 362.3L535.9 362.3Q536.4 363.4 537.3 363.9Q538.2 364.4 539.4 364.4L539.4 364.4Q540.2 364.4 540.8 364.2Q541.5 364.0 541.9 363.5Q542.4 363.1 542.6 362.4L542.6 362.4L544.7 363.0Q544.4 363.9 543.6 364.7Q542.9 365.4 541.8 365.9Q540.8 366.3 539.4 366.3ZM535.4 358.4L535.4 358.4L542.7 358.4Q542.6 357.5 542.4 356.7L542.4 356.7Q541.9 355.7 541.1 355.2Q540.4 354.6 539.2 354.6Q538.0 354.6 537.1 355.2Q536.3 355.8 535.9 356.7L535.9 356.7Q535.5 357.5 535.4 358.4ZM549.2 366L546.8 366L551.4 359.3L547.1 352.9L549.5 352.9L551.2 355.4Q551.8 356.4 552.3 357.3L552.3 357.3Q552.5 357.6 552.7 358.0L552.7 358.0Q552.9 357.6 553.0 357.3L553.0 357.3Q553.5 356.4 554.1 355.4L554.1 355.4L555.8 352.9L558.2 352.9L553.8 359.4L558.4 366L555.9 366L554.0 363.1Q553.4 362.1 552.9 361.3L552.9 361.3Q552.8 360.9 552.6 360.6L552.6 360.6Q552.4 360.9 552.2 361.3L552.2 361.3Q551.8 362.1 551.2 363.1L551.2 363.1L549.2 366ZM563.1 370.9L561 370.9L561 352.9L563.0 352.9L563.0 355.0L563.3 355.0Q563.5 354.6 563.9 354.1Q564.3 353.6 565.0 353.2Q565.8 352.7 567.1 352.7L567.1 352.7Q568.7 352.7 570.0 353.6Q571.2 354.4 571.9 355.9Q572.6 357.4 572.6 359.5L572.6 359.5Q572.6 361.6 571.9 363.1Q571.2 364.6 570.0 365.4Q568.7 366.3 567.1 366.3L567.1 366.3Q565.8 366.3 565.1 365.9Q564.3 365.4 563.9 364.9Q563.5 364.3 563.3 364.0L563.3 364.0L563.1 364.0L563.1 370.9ZM566.8 364.4L566.8 364.4Q568.0 364.4 568.8 363.7Q569.6 363.1 570.1 362.0Q570.5 360.8 570.5 359.5L570.5 359.5Q570.5 358.1 570.1 357.0Q569.7 355.9 568.8 355.3Q568.0 354.6 566.8 354.6L566.8 354.6Q565.6 354.6 564.7 355.2Q563.9 355.8 563.5 356.9Q563.1 358.0 563.1 359.5L563.1 359.5Q563.1 360.9 563.5 362.0Q563.9 363.1 564.8 363.8Q565.6 364.4 566.8 364.4ZM575.7 348.5L577.8 348.5L577.8 366L575.7 366L575.7 348.5ZM585.2 366.3L585.2 366.3Q583.9 366.3 582.9 365.8Q581.9 365.4 581.3 364.5Q580.7 363.6 580.7 362.3L580.7 362.3Q580.7 361.1 581.2 360.4Q581.6 359.7 582.3 359.3Q583.1 358.9 584.0 358.7Q584.9 358.5 585.8 358.4L585.8 358.4Q587.0 358.3 587.7 358.2Q588.5 358.1 588.8 357.9Q589.2 357.7 589.2 357.2L589.2 357.2L589.2 357.2Q589.2 356.3 588.9 355.8Q588.6 355.2 588.0 354.9Q587.3 354.6 586.4 354.6L586.4 354.6Q585.5 354.6 584.8 354.9Q584.2 355.2 583.7 355.6Q583.3 356.1 583.1 356.5L583.1 356.5L581.1 355.8Q581.6 354.6 582.4 354.0Q583.3 353.3 584.3 353.0Q585.4 352.7 586.4 352.7L586.4 352.7Q587.0 352.7 587.9 352.9Q588.7 353.1 589.5 353.5Q590.3 354.0 590.8 354.9Q591.3 355.8 591.3 357.4L591.3 357.4L591.3 366L589.2 366L589.2 364.2L589.1 364.2Q588.8 364.7 588.4 365.2Q587.9 365.6 587.1 366.0Q586.3 366.3 585.2 366.3ZM585.5 364.4L585.5 364.4Q586.7 364.4 587.5 364.0Q588.3 363.5 588.8 362.8Q589.2 362.1 589.2 361.3L589.2 361.3L589.2 359.4Q589.0 359.6 588.6 359.7Q588.2 359.8 587.6 359.9Q587.1 360.0 586.5 360.1Q586.0 360.2 585.7 360.2L585.7 360.2Q585.0 360.3 584.3 360.5Q583.6 360.8 583.2 361.2Q582.8 361.6 582.8 362.4L582.8 362.4Q582.8 363.1 583.2 363.5Q583.5 364.0 584.1 364.2Q584.8 364.4 585.5 364.4ZM597.1 366L595.0 366L595.0 352.9L597.1 352.9L597.1 366ZM596.1 350.8L596.1 350.8Q595.5 350.8 595.0 350.3Q594.6 349.9 594.6 349.4L594.6 349.4Q594.6 348.8 595.0 348.4Q595.5 348.0 596.1 348.0L596.1 348.0Q596.7 348.0 597.1 348.4Q597.5 348.8 597.5 349.4L597.5 349.4Q597.5 349.9 597.1 350.3Q596.7 350.8 596.1 350.8ZM602.9 358.1L602.9 358.1L602.9 366L600.8 366L600.8 352.9L602.8 352.9L602.8 355.3Q603.4 354.1 604.3 353.5L604.3 353.5Q605.4 352.7 606.8 352.7L606.8 352.7Q608.2 352.7 609.2 353.3Q610.2 353.8 610.7 354.9Q611.3 356.0 611.3 357.7L611.3 357.7L611.3 366L609.2 366L609.2 357.9Q609.2 356.3 608.4 355.5Q607.6 354.6 606.2 354.6L606.2 354.6Q605.3 354.6 604.5 355.0Q603.8 355.5 603.3 356.2Q602.9 357.0 602.9 358.1ZM619.4 366.3L619.4 366.3Q618.1 366.3 617.0 365.9Q616.0 365.5 615.3 364.7Q614.6 363.9 614.4 362.8L614.4 362.8L616.4 362.3Q616.7 363.4 617.5 363.9Q618.2 364.4 619.4 364.4L619.4 364.4Q620.8 364.4 621.6 363.8Q622.4 363.3 622.4 362.4L622.4 362.4Q622.4 361.8 621.9 361.3Q621.5 360.9 620.5 360.6L620.5 360.6L618.3 360.1Q616.5 359.7 615.7 358.8Q614.8 357.9 614.8 356.6L614.8 356.6Q614.8 355.4 615.4 354.6Q616.1 353.7 617.2 353.2Q618.2 352.7 619.6 352.7L619.6 352.7Q621.0 352.7 621.9 353.1Q622.9 353.5 623.5 354.3Q624.1 355.0 624.4 355.9L624.4 355.9L622.4 356.4Q622.2 355.7 621.5 355.1Q620.9 354.5 619.7 354.5L619.7 354.5Q618.5 354.5 617.7 355.1Q616.9 355.6 616.9 356.4L616.9 356.4Q616.9 357.2 617.4 357.6Q618.0 358.0 619.1 358.3L619.1 358.3L621.1 358.8Q622.9 359.2 623.7 360.1Q624.6 361.0 624.6 362.3L624.6 362.3Q624.6 363.5 623.9 364.4Q623.3 365.3 622.1 365.8Q621.0 366.3 619.4 366.3Z M639.4 366L637.3 366L633.4 352.9L635.6 352.9L637.2 358.6Q637.5 359.8 637.9 361.3L637.9 361.3Q638.2 362.4 638.5 363.7L638.5 363.7Q638.7 362.4 639.0 361.3L639.0 361.3Q639.4 359.9 639.7 358.6L639.7 358.6L641.3 352.9L643.5 352.9L645.1 358.6Q645.4 359.8 645.8 361.3L645.8 361.3Q646.0 362.4 646.3 363.7L646.3 363.7Q646.5 362.4 646.8 361.3L646.8 361.3Q647.2 359.8 647.5 358.6L647.5 358.6L649.1 352.9L651.4 352.9L647.4 366L645.3 366L643.6 360.1Q643.3 359.2 643.1 358.2Q642.8 357.3 642.6 356.3L642.6 356.3Q642.5 355.8 642.4 355.3L642.4 355.3Q642.2 355.8 642.1 356.3L642.1 356.3Q641.9 357.3 641.6 358.2Q641.4 359.2 641.1 360.1L641.1 360.1L639.4 366ZM656.1 358.1L656.1 358.1L656.1 366L654.0 366L654.0 348.5L656.1 348.5L656.1 355.2Q656.7 354.0 657.5 353.5L657.5 353.5Q658.6 352.7 660.1 352.7L660.1 352.7Q661.4 352.7 662.4 353.3Q663.4 353.8 664.0 354.9Q664.5 356.0 664.5 357.7L664.5 357.7L664.5 366L662.4 366L662.4 357.9Q662.4 356.3 661.6 355.5Q660.8 354.6 659.4 354.6L659.4 354.6Q658.5 354.6 657.8 355.0Q657.0 355.5 656.6 356.2Q656.1 357.0 656.1 358.1ZM671.9 366.3L671.9 366.3Q670.7 366.3 669.6 365.8Q668.6 365.4 668.0 364.5Q667.4 363.6 667.4 362.3L667.4 362.3Q667.4 361.1 667.9 360.4Q668.3 359.7 669.1 359.3Q669.8 358.9 670.7 358.7Q671.6 358.5 672.5 358.4L672.5 358.4Q673.7 358.3 674.4 358.2Q675.2 358.1 675.5 357.9Q675.9 357.7 675.9 357.2L675.9 357.2L675.9 357.2Q675.9 356.3 675.6 355.8Q675.3 355.2 674.7 354.9Q674.1 354.6 673.1 354.6L673.1 354.6Q672.2 354.6 671.5 354.9Q670.9 355.2 670.5 355.6Q670.0 356.1 669.8 356.5L669.8 356.5L667.8 355.8Q668.3 354.6 669.2 354.0Q670.0 353.3 671.1 353.0Q672.1 352.7 673.1 352.7L673.1 352.7Q673.7 352.7 674.6 352.9Q675.4 353.1 676.2 353.5Q677.0 354.0 677.5 354.9Q678 355.8 678 357.4L678 357.4L678 366L675.9 366L675.9 364.2L675.8 364.2Q675.6 364.7 675.1 365.2Q674.6 365.6 673.8 366.0Q673.0 366.3 671.9 366.3ZM672.3 364.4L672.3 364.4Q673.4 364.4 674.2 364.0Q675.0 363.5 675.5 362.8Q675.9 362.1 675.9 361.3L675.9 361.3L675.9 359.4Q675.8 359.6 675.3 359.7Q674.9 359.8 674.3 359.9Q673.8 360.0 673.3 360.1Q672.7 360.2 672.4 360.2L672.4 360.2Q671.7 360.3 671.0 360.5Q670.3 360.8 669.9 361.2Q669.6 361.6 669.6 362.4L669.6 362.4Q669.6 363.1 669.9 363.5Q670.3 364.0 670.9 364.2Q671.5 364.4 672.3 364.4ZM684.2 352.9L686.9 352.9L686.9 354.7L684.2 354.7L684.2 362.6Q684.2 363.5 684.5 363.9Q684.9 364.3 685.7 364.3L685.7 364.3Q685.9 364.3 686.2 364.2Q686.5 364.2 686.8 364.1L686.8 364.1L687.2 365.9Q686.9 366.0 686.5 366.1Q686.1 366.2 685.7 366.2L685.7 366.2Q684.0 366.2 683.0 365.3Q682.1 364.4 682.1 362.8L682.1 362.8L682.1 354.7L680.1 354.7L680.1 352.9L682.1 352.9L682.1 349.8L684.2 349.8L684.2 352.9Z M698.8 352.9L701.5 352.9L701.5 354.7L698.8 354.7L698.8 362.6Q698.8 363.5 699.1 363.9Q699.5 364.3 700.3 364.3L700.3 364.3Q700.5 364.3 700.8 364.2Q701.1 364.2 701.4 364.1L701.4 364.1L701.8 365.9Q701.5 366.0 701.1 366.1Q700.7 366.2 700.3 366.2L700.3 366.2Q698.6 366.2 697.6 365.3Q696.7 364.4 696.7 362.8L696.7 362.8L696.7 354.7L694.7 354.7L694.7 352.9L696.7 352.9L696.7 349.8L698.8 349.8L698.8 352.9ZM706.3 358.1L706.3 358.1L706.3 366L704.2 366L704.2 348.5L706.3 348.5L706.3 355.2Q706.8 354.0 707.6 353.5L707.6 353.5Q708.7 352.7 710.2 352.7L710.2 352.7Q711.5 352.7 712.5 353.3Q713.5 353.8 714.1 354.9Q714.6 356.0 714.6 357.7L714.6 357.7L714.6 366L712.5 366L712.5 357.9Q712.5 356.3 711.7 355.5Q710.9 354.6 709.6 354.6L709.6 354.6Q708.6 354.6 707.9 355.0Q707.1 355.5 706.7 356.2Q706.3 357.0 706.3 358.1ZM720.5 366L718.3 366L718.3 352.9L720.5 352.9L720.5 366ZM719.4 350.8L719.4 350.8Q718.8 350.8 718.4 350.3Q717.9 349.9 717.9 349.4L717.9 349.4Q717.9 348.8 718.4 348.4Q718.8 348.0 719.4 348.0L719.4 348.0Q720.0 348.0 720.5 348.4Q720.9 348.8 720.9 349.4L720.9 349.4Q720.9 349.9 720.5 350.3Q720.0 350.8 719.4 350.8ZM728.6 366.3L728.6 366.3Q727.3 366.3 726.2 365.9Q725.2 365.5 724.5 364.7Q723.8 363.9 723.6 362.8L723.6 362.8L725.6 362.3Q725.9 363.4 726.6 363.9Q727.4 364.4 728.6 364.4L728.6 364.4Q730.0 364.4 730.8 363.8Q731.6 363.3 731.6 362.4L731.6 362.4Q731.6 361.8 731.1 361.3Q730.6 360.9 729.7 360.6L729.7 360.6L727.5 360.1Q725.7 359.7 724.8 358.8Q724.0 357.9 724.0 356.6L724.0 356.6Q724.0 355.4 724.6 354.6Q725.2 353.7 726.3 353.2Q727.4 352.7 728.8 352.7L728.8 352.7Q730.2 352.7 731.1 353.1Q732.1 353.5 732.7 354.3Q733.2 355.0 733.5 355.9L733.5 355.9L731.6 356.4Q731.4 355.7 730.7 355.1Q730.1 354.5 728.8 354.5L728.8 354.5Q727.7 354.5 726.9 355.1Q726.1 355.6 726.1 356.4L726.1 356.4Q726.1 357.2 726.6 357.6Q727.2 358.0 728.3 358.3L728.3 358.3L730.3 358.8Q732.1 359.2 732.9 360.1Q733.8 361.0 733.8 362.3L733.8 362.3Q733.8 363.5 733.1 364.4Q732.5 365.3 731.3 365.8Q730.1 366.3 728.6 366.3Z M745.7 366L743.6 366L743.6 352.9L745.7 352.9L745.7 366ZM744.6 350.8L744.6 350.8Q744.0 350.8 743.6 350.3Q743.2 349.9 743.2 349.4L743.2 349.4Q743.2 348.8 743.6 348.4Q744.0 348.0 744.6 348.0L744.6 348.0Q745.3 348.0 745.7 348.4Q746.1 348.8 746.1 349.4L746.1 349.4Q746.1 349.9 745.7 350.3Q745.3 350.8 744.6 350.8ZM753.8 366.3L753.8 366.3Q752.5 366.3 751.4 365.9Q750.4 365.5 749.7 364.7Q749.0 363.9 748.8 362.8L748.8 362.8L750.8 362.3Q751.1 363.4 751.9 363.9Q752.6 364.4 753.8 364.4L753.8 364.4Q755.2 364.4 756.0 363.8Q756.8 363.3 756.8 362.4L756.8 362.4Q756.8 361.8 756.3 361.3Q755.9 360.9 754.9 360.6L754.9 360.6L752.7 360.1Q750.9 359.7 750.1 358.8Q749.2 357.9 749.2 356.6L749.2 356.6Q749.2 355.4 749.8 354.6Q750.5 353.7 751.6 353.2Q752.7 352.7 754.1 352.7L754.1 352.7Q755.4 352.7 756.3 353.1Q757.3 353.5 757.9 354.3Q758.5 355.0 758.8 355.9L758.8 355.9L756.9 356.4Q756.6 355.7 756.0 355.1Q755.3 354.5 754.1 354.5L754.1 354.5Q752.9 354.5 752.1 355.1Q751.3 355.6 751.3 356.4L751.3 356.4Q751.3 357.2 751.9 357.6Q752.4 358.0 753.5 358.3L753.5 358.3L755.5 358.8Q757.3 359.2 758.2 360.1Q759.0 361.0 759.0 362.3L759.0 362.3Q759.0 363.5 758.4 364.4Q757.7 365.3 756.5 365.8Q755.4 366.3 753.8 366.3Z M772.5 366.3L772.5 366.3Q771.2 366.3 770.2 365.8Q769.2 365.4 768.6 364.5Q768.0 363.6 768.0 362.3L768.0 362.3Q768.0 361.1 768.5 360.4Q768.9 359.7 769.6 359.3Q770.4 358.9 771.3 358.7Q772.2 358.5 773.1 358.4L773.1 358.4Q774.3 358.3 775.0 358.2Q775.8 358.1 776.1 357.9Q776.5 357.7 776.5 357.2L776.5 357.2L776.5 357.2Q776.5 356.3 776.2 355.8Q775.9 355.2 775.3 354.9Q774.6 354.6 773.7 354.6L773.7 354.6Q772.8 354.6 772.1 354.9Q771.5 355.2 771.0 355.6Q770.6 356.1 770.4 356.5L770.4 356.5L768.4 355.8Q768.9 354.6 769.7 354.0Q770.6 353.3 771.6 353.0Q772.7 352.7 773.7 352.7L773.7 352.7Q774.3 352.7 775.2 352.9Q776.0 353.1 776.8 353.5Q777.6 354.0 778.1 354.9Q778.6 355.8 778.6 357.4L778.6 357.4L778.6 366L776.5 366L776.5 364.2L776.4 364.2Q776.1 364.7 775.7 365.2Q775.2 365.6 774.4 366.0Q773.6 366.3 772.5 366.3ZM772.8 364.4L772.8 364.4Q774.0 364.4 774.8 364.0Q775.6 363.5 776.1 362.8Q776.5 362.1 776.5 361.3L776.5 361.3L776.5 359.4Q776.3 359.6 775.9 359.7Q775.5 359.8 774.9 359.9Q774.4 360.0 773.8 360.1Q773.3 360.2 773.0 360.2L773.0 360.2Q772.3 360.3 771.6 360.5Q770.9 360.8 770.5 361.2Q770.1 361.6 770.1 362.4L770.1 362.4Q770.1 363.1 770.5 363.5Q770.8 364.0 771.4 364.2Q772.1 364.4 772.8 364.4ZM788.4 366.3L788.4 366.3Q787.1 366.3 786.4 365.9Q785.6 365.4 785.2 364.9Q784.8 364.3 784.6 364.0L784.6 364.0L784.3 364.0L784.3 366L782.3 366L782.3 348.5L784.4 348.5L784.4 355.0L784.6 355.0Q784.8 354.6 785.2 354.1Q785.6 353.6 786.3 353.2Q787.1 352.7 788.4 352.7L788.4 352.7Q790.0 352.7 791.2 353.6Q792.5 354.4 793.2 355.9Q793.9 357.4 793.9 359.5L793.9 359.5Q793.9 361.6 793.2 363.1Q792.5 364.6 791.3 365.4Q790.0 366.3 788.4 366.3ZM788.1 364.4L788.1 364.4Q789.3 364.4 790.1 363.7Q790.9 363.1 791.3 362.0Q791.8 360.8 791.8 359.5L791.8 359.5Q791.8 358.1 791.4 357.0Q790.9 355.9 790.1 355.3Q789.3 354.6 788.1 354.6L788.1 354.6Q786.8 354.6 786.0 355.2Q785.2 355.8 784.8 356.9Q784.4 358.0 784.4 359.5L784.4 359.5Q784.4 360.9 784.8 362.0Q785.2 363.1 786.0 363.8Q786.9 364.4 788.1 364.4ZM802.3 366.3L802.3 366.3Q800.5 366.3 799.2 365.4Q797.8 364.6 797.1 363.1Q796.3 361.5 796.3 359.5L796.3 359.5Q796.3 357.5 797.1 356.0Q797.8 354.4 799.2 353.6Q800.5 352.7 802.3 352.7L802.3 352.7Q804.1 352.7 805.5 353.6Q806.8 354.4 807.6 356.0Q808.3 357.5 808.3 359.5L808.3 359.5Q808.3 361.5 807.6 363.1Q806.8 364.6 805.5 365.4Q804.1 366.3 802.3 366.3ZM802.3 364.4L802.3 364.4Q803.6 364.4 804.5 363.7Q805.3 363.0 805.8 361.9Q806.2 360.8 806.2 359.5L806.2 359.5Q806.2 358.2 805.8 357.1Q805.3 356.0 804.5 355.3Q803.6 354.6 802.3 354.6L802.3 354.6Q801 354.6 800.2 355.3Q799.3 356.0 798.9 357.1Q798.5 358.2 798.5 359.5L798.5 359.5Q798.5 360.8 798.9 361.9Q799.3 363.0 800.2 363.7Q801 364.4 802.3 364.4ZM815.8 366.2L815.8 366.2Q814.5 366.2 813.5 365.6Q812.5 365.1 811.9 364.0Q811.4 362.9 811.4 361.2L811.4 361.2L811.4 352.9L813.5 352.9L813.5 361.0Q813.5 362.6 814.3 363.4Q815.1 364.3 816.4 364.3L816.4 364.3Q817.4 364.3 818.1 363.9Q818.9 363.4 819.3 362.7Q819.7 361.9 819.7 360.8L819.7 360.8L819.7 352.9L821.9 352.9L821.9 366L819.8 366L819.8 363.6Q819.3 364.8 818.4 365.4L818.4 365.4Q817.3 366.2 815.8 366.2ZM828.0 352.9L830.7 352.9L830.7 354.7L828.0 354.7L828.0 362.6Q828.0 363.5 828.4 363.9Q828.7 364.3 829.6 364.3L829.6 364.3Q829.8 364.3 830.1 364.2Q830.4 364.2 830.6 364.1L830.6 364.1L831.1 365.9Q830.8 366.0 830.3 366.1Q829.9 366.2 829.5 366.2L829.5 366.2Q827.8 366.2 826.9 365.3Q825.9 364.4 825.9 362.8L825.9 362.8L825.9 354.7L823.9 354.7L823.9 352.9L825.9 352.9L825.9 349.8L828.0 349.8L828.0 352.9Z "/></g></svg>