<svg width="1200" height="630" viewBox="0 0 1200 630" xmlns="http://www.w3.org/2000/svg"><mask id="satori_om-id"><rect x="0" y="0" width="1200" height="630" fill="#fff"/></mask><rect x="0" y="0" width="1200" height="630" fill="#f8fafc"/><defs><clipPath id="satori_bc-id-0"><path x="400" y="190" width="400" height="250" d="M416,190 h368 a16,16 0 0 1 16,16 v218 a16,16 0 0 1 -16,16 h-368 a16,16 0 0 1 -16,-16 v-218 a16,16 0 0 1 16,-16"/></clipPath></defs><mask id="satori_om-id-0"><rect x="403" y="193" width="394" height="244" fill="#fff"/><path width="400" height="250" fill="none" stroke="#000" stroke-width="6" d="M404.686,194.686 A16,16 0 0 1 416,190 h368 a16,16 0 0 1 16,16 v218 a16,16 0 0 1 -16,16 h-368 a16,16 0 0 1 -16,-16 v-218 A16,16 0 0 1 404.686,194.686"/></mask><path x="400" y="190" width="400" height="250" fill="white" d="M416,190 h368 a16,16 0 0 1 16,16 v218 a16,16 0 0 1 -16,16 h-368 a16,16 0 0 1 -16,-16 v-218 a16,16 0 0 1 16,-16"/><path width="400" height="250" clip-path="url(#satori_bc-id-0)" fill="none" stroke="#334155" stroke-width="6" d="M404.686,194.686 A16,16 0 0 1 416,190 h368 a16,16 0 0 1 16,16 v218 a16,16 0 0 1 -16,16 h-368 a16,16 0 0 1 -16,-16 v-218 A16,16 0 0 1 404.686,194.686"/><mask id="satori_om-id-0-0"><rect x="435" y="225" width="330" height="29" fill="#fff"/></mask><g  ><path fill="#334155" d="M444.2 248.2L444.2 248.2Q441.9 248.2 440.1 247.2Q438.2 246.1 437.2 244.1Q436.1 242.1 436.1 239.3L436.1 239.3Q436.1 236.4 437.2 234.4Q438.2 232.4 440.1 231.4Q441.9 230.3 444.2 230.3L444.2 230.3Q445.7 230.3 447.0 230.7Q448.3 231.1 449.3 231.9Q450.3 232.7 450.9 233.9Q451.5 235.0 451.7 236.5L451.7 236.5L448.1 236.5Q448.0 235.8 447.7 235.2Q447.3 234.7 446.8 234.3Q446.3 233.9 445.7 233.7Q445.0 233.5 444.3 233.5L444.3 233.5Q442.9 233.5 441.9 234.2Q440.9 234.8 440.3 236.1Q439.7 237.4 439.7 239.3L439.7 239.3Q439.7 241.2 440.3 242.5Q440.9 243.7 441.9 244.4Q442.9 245.1 444.3 245.1L444.3 245.1Q445.0 245.1 445.7 244.9Q446.3 244.6 446.8 244.3Q447.3 243.9 447.7 243.3Q448.0 242.7 448.1 242.0L448.1 242.0L451.7 242.0Q451.6 243.2 451.0 244.4Q450.4 245.5 449.5 246.3Q448.5 247.2 447.2 247.7Q445.9 248.2 444.2 248.2ZM457.9 248.3L457.9 248.3Q456.7 248.3 455.7 247.8Q454.7 247.4 454.1 246.5Q453.6 245.6 453.6 244.3L453.6 244.3Q453.6 243.2 454.0 242.5Q454.4 241.8 455.1 241.3Q455.8 240.9 456.6 240.6Q457.5 240.4 458.5 240.3L458.5 240.3Q459.6 240.2 460.3 240.1Q461.0 240.0 461.3 239.8Q461.7 239.6 461.7 239.1L461.7 239.1L461.7 239.1Q461.7 238.5 461.4 238.1Q461.2 237.7 460.7 237.5Q460.3 237.3 459.6 237.3L459.6 237.3Q458.9 237.3 458.4 237.5Q457.9 237.7 457.6 238.1Q457.3 238.4 457.1 238.8L457.1 238.8L453.9 238.3Q454.3 237.2 455.1 236.4Q455.8 235.6 457.0 235.2Q458.2 234.7 459.6 234.7L459.6 234.7Q460.7 234.7 461.7 235.0Q462.7 235.2 463.5 235.8Q464.3 236.3 464.7 237.1Q465.2 238.0 465.2 239.2L465.2 239.2L465.2 248L461.9 248L461.9 246.2L461.7 246.2Q461.4 246.8 460.9 247.3Q460.4 247.7 459.6 248.0Q458.9 248.3 457.9 248.3ZM458.9 245.8L458.9 245.8Q459.7 245.8 460.4 245.5Q461.0 245.1 461.3 244.6Q461.7 244.0 461.7 243.3L461.7 243.3L461.7 241.9Q461.5 242.0 461.2 242.1Q460.9 242.2 460.5 242.3Q460.1 242.3 459.8 242.4Q459.4 242.5 459.1 242.5L459.1 242.5Q458.4 242.6 458.0 242.8Q457.5 243.0 457.2 243.4Q456.9 243.7 456.9 244.2L456.9 244.2Q456.9 244.7 457.2 245.1Q457.4 245.4 457.9 245.6Q458.3 245.8 458.9 245.8ZM471.7 248L468.2 248L468.2 234.9L471.6 234.9L471.6 237.2L471.7 237.2Q472.1 236.0 472.9 235.3Q473.8 234.7 474.9 234.7L474.9 234.7Q475.2 234.7 475.5 234.8Q475.8 234.8 476.0 234.8L476.0 234.8L476.0 238.0Q475.8 237.9 475.3 237.9Q474.9 237.8 474.5 237.8L474.5 237.8Q473.7 237.8 473.1 238.2Q472.4 238.5 472.1 239.1Q471.7 239.7 471.7 240.5L471.7 240.5L471.7 248ZM482.7 248.2L482.7 248.2Q481.2 248.2 480.0 247.4Q478.8 246.7 478.1 245.2Q477.4 243.7 477.4 241.5L477.4 241.5Q477.4 239.2 478.1 237.7Q478.9 236.2 480.1 235.5Q481.3 234.7 482.7 234.7L482.7 234.7Q483.8 234.7 484.6 235.1Q485.3 235.5 485.8 236.0Q486.2 236.6 486.5 237.1L486.5 237.1L486.6 237.1L486.6 230.5L490.1 230.5L490.1 248L486.6 248L486.6 245.9L486.5 245.9Q486.2 246.4 485.8 247.0Q485.3 247.5 484.6 247.9Q483.8 248.2 482.7 248.2ZM483.8 245.4L483.8 245.4Q484.7 245.4 485.4 244.9Q486.0 244.4 486.3 243.5Q486.6 242.6 486.6 241.5L486.6 241.5Q486.6 240.3 486.3 239.4Q486 238.5 485.4 238.0Q484.7 237.5 483.8 237.5L483.8 237.5Q482.9 237.5 482.3 238.1Q481.7 238.6 481.3 239.4Q481.0 240.3 481.0 241.5L481.0 241.5Q481.0 242.6 481.3 243.5Q481.7 244.4 482.3 244.9Q482.9 245.4 483.8 245.4Z M503.5 233.5L498.2 233.5L498.2 230.5L512.4 230.5L512.4 233.5L507.1 233.5L507.1 248L503.5 248L503.5 233.5ZM518.3 248L514.8 248L514.8 234.9L518.3 234.9L518.3 248ZM516.6 233.2L516.6 233.2Q515.8 233.2 515.2 232.7Q514.6 232.1 514.6 231.4L514.6 231.4Q514.6 230.6 515.2 230.1Q515.8 229.6 516.6 229.6L516.6 229.6Q517.3 229.6 517.9 230.1Q518.5 230.6 518.5 231.4L518.5 231.4Q518.5 232.1 517.9 232.7Q517.3 233.2 516.6 233.2ZM525.4 234.9L527.8 234.9L527.8 237.6L525.4 237.6L525.4 244.2Q525.4 244.8 525.6 245.1Q525.9 245.4 526.5 245.4L526.5 245.4Q526.7 245.4 527.1 245.3Q527.5 245.3 527.7 245.2L527.7 245.2L528.2 247.9Q527.6 248.0 527.0 248.1Q526.4 248.2 525.9 248.2L525.9 248.2Q523.9 248.2 522.9 247.2Q521.8 246.3 521.8 244.5L521.8 244.5L521.8 237.6L520.0 237.6L520.0 234.9L521.8 234.9L521.8 231.8L525.4 231.8L525.4 234.9ZM530.1 230.5L533.6 230.5L533.6 248L530.1 248L530.1 230.5ZM542.5 248.3L542.5 248.3Q540.5 248.3 539.1 247.4Q537.6 246.6 536.8 245.1Q536.0 243.6 536.0 241.5L536.0 241.5Q536.0 239.5 536.8 238.0Q537.6 236.4 539.0 235.6Q540.4 234.7 542.3 234.7L542.3 234.7Q543.6 234.7 544.7 235.1Q545.8 235.6 546.7 236.4Q547.5 237.2 548.0 238.4Q548.5 239.7 548.5 241.4L548.5 241.4L548.5 242.4L539.5 242.4Q539.6 243.4 539.9 244.1L539.9 244.1Q540.3 244.8 541.0 245.2Q541.7 245.6 542.6 245.6L542.6 245.6Q543.2 245.6 543.7 245.4Q544.2 245.3 544.6 244.9Q544.9 244.6 545.1 244.1L545.1 244.1L548.3 244.7Q548.0 245.7 547.2 246.6Q546.4 247.4 545.2 247.8Q544.0 248.3 542.5 248.3ZM539.5 240.2L539.5 240.2L545.1 240.2Q545.0 239.5 544.8 239.0L544.8 239.0Q544.5 238.2 543.9 237.8Q543.3 237.4 542.4 237.4L542.4 237.4Q541.5 237.4 540.8 237.8Q540.2 238.2 539.8 238.9L539.8 238.9Q539.6 239.5 539.5 240.2Z "/></g><mask id="satori_om-id-0-1"><rect x="435" y="262" width="330" height="19" fill="#fff"/></mask><g  ><path fill="#64748b" d="M441.1 278.2L441.1 278.2Q439.6 278.2 438.5 277.4Q437.3 276.7 436.6 275.4Q436.0 274.0 436.0 272.2L436.0 272.2Q436.0 270.3 436.6 269.0Q437.3 267.7 438.5 266.9Q439.6 266.2 441.1 266.2L441.1 266.2Q442 266.2 442.8 266.5Q443.6 266.7 444.2 267.2Q444.8 267.7 445.2 268.4Q445.7 269.1 445.8 270.0L445.8 270.0L444.3 270.0Q444.2 269.4 443.9 269.0Q443.6 268.5 443.2 268.2Q442.7 267.9 442.2 267.7Q441.7 267.6 441.1 267.6L441.1 267.6Q440.1 267.6 439.2 268.1Q438.4 268.6 437.9 269.7Q437.4 270.7 437.4 272.2L437.4 272.2Q437.4 273.7 437.9 274.7Q438.4 275.7 439.2 276.3Q440.1 276.8 441.1 276.8L441.1 276.8Q441.7 276.8 442.2 276.6Q442.7 276.5 443.2 276.2Q443.6 275.8 443.9 275.4Q444.2 274.9 444.3 274.3L444.3 274.3L445.8 274.3Q445.7 275.2 445.2 275.9Q444.8 276.6 444.2 277.1Q443.6 277.6 442.8 277.9Q442.0 278.2 441.1 278.2ZM450.4 278.2L450.4 278.2Q449.5 278.2 448.9 277.9Q448.2 277.6 447.8 277.0Q447.4 276.4 447.4 275.5L447.4 275.5Q447.4 274.8 447.7 274.3Q448.0 273.8 448.5 273.6Q449.0 273.3 449.6 273.2Q450.2 273.0 450.8 272.9L450.8 272.9Q451.6 272.8 452.1 272.8Q452.6 272.7 452.8 272.6Q453.0 272.5 453.0 272.1L453.0 272.1L453.0 272.1Q453.0 271.6 452.8 271.2Q452.6 270.8 452.2 270.6Q451.8 270.4 451.2 270.4L451.2 270.4Q450.6 270.4 450.1 270.6Q449.7 270.8 449.4 271.1Q449.1 271.4 449.0 271.7L449.0 271.7L447.6 271.2Q448.0 270.4 448.5 270.0Q449.1 269.5 449.8 269.3Q450.5 269.2 451.2 269.2L451.2 269.2Q451.6 269.2 452.2 269.3Q452.7 269.4 453.2 269.7Q453.8 270.0 454.1 270.6Q454.4 271.2 454.4 272.2L454.4 272.2L454.4 278L453.1 278L453.1 276.8L453.0 276.8Q452.8 277.1 452.5 277.4Q452.2 277.8 451.6 278.0Q451.1 278.2 450.4 278.2ZM450.6 277.0L450.6 277.0Q451.4 277.0 451.9 276.7Q452.5 276.4 452.8 275.9Q453.0 275.4 453.0 274.8L453.0 274.8L453.0 273.6Q452.9 273.7 452.7 273.8Q452.4 273.9 452.0 274.0Q451.6 274.0 451.3 274.1Q450.9 274.1 450.7 274.1L450.7 274.1Q450.2 274.2 449.8 274.3Q449.3 274.5 449.1 274.8Q448.8 275.1 448.8 275.6L448.8 275.6Q448.8 276.0 449.0 276.3Q449.3 276.6 449.7 276.8Q450.1 277.0 450.6 277.0ZM458.3 278L456.9 278L456.9 269.3L458.3 269.3L458.3 270.6L458.4 270.6Q458.6 269.9 459.2 269.5Q459.8 269.1 460.6 269.1L460.6 269.1Q460.8 269.1 461.0 269.1Q461.2 269.2 461.3 269.2L461.3 269.2L461.3 270.6Q461.3 270.6 461.0 270.5Q460.8 270.5 460.5 270.5L460.5 270.5Q459.9 270.5 459.4 270.8Q458.9 271.0 458.6 271.5Q458.3 271.9 458.3 272.5L458.3 272.5L458.3 278ZM466.2 278.2L466.2 278.2Q465.1 278.2 464.3 277.6Q463.4 277.1 463.0 276.1Q462.5 275.0 462.5 273.7L462.5 273.7Q462.5 272.3 463.0 271.3Q463.5 270.3 464.3 269.7Q465.1 269.2 466.2 269.2L466.2 269.2Q467.1 269.2 467.6 269.4Q468.1 269.7 468.3 270.1Q468.6 270.4 468.7 270.7L468.7 270.7L468.9 270.7L468.9 266.4L470.3 266.4L470.3 278L468.9 278L468.9 276.6L468.7 276.6Q468.6 276.9 468.3 277.3Q468.0 277.6 467.5 277.9Q467.0 278.2 466.2 278.2ZM466.4 276.9L466.4 276.9Q467.2 276.9 467.8 276.5Q468.3 276.1 468.6 275.4Q468.9 274.6 468.9 273.6L468.9 273.6Q468.9 272.7 468.6 271.9Q468.3 271.2 467.8 270.8Q467.2 270.4 466.4 270.4L466.4 270.4Q465.6 270.4 465.0 270.8Q464.5 271.3 464.2 272.0Q463.9 272.7 463.9 273.6L463.9 273.6Q463.9 274.6 464.2 275.3Q464.5 276.0 465.0 276.5Q465.6 276.9 466.4 276.9Z M480.5 278.2L480.5 278.2Q479.4 278.2 478.6 277.6Q477.7 277.1 477.3 276.1Q476.8 275.0 476.8 273.7L476.8 273.7Q476.8 272.3 477.3 271.3Q477.8 270.3 478.6 269.7Q479.4 269.2 480.5 269.2L480.5 269.2Q481.4 269.2 481.9 269.4Q482.4 269.7 482.6 270.1Q482.9 270.4 483.0 270.7L483.0 270.7L483.1 270.7L483.1 266.4L484.6 266.4L484.6 278L483.2 278L483.2 276.6L483.0 276.6Q482.9 276.9 482.6 277.3Q482.3 277.6 481.8 277.9Q481.3 278.2 480.5 278.2ZM480.7 276.9L480.7 276.9Q481.5 276.9 482.1 276.5Q482.6 276.1 482.9 275.4Q483.2 274.6 483.2 273.6L483.2 273.6Q483.2 272.7 482.9 271.9Q482.6 271.2 482.1 270.8Q481.5 270.4 480.7 270.4L480.7 270.4Q479.9 270.4 479.3 270.8Q478.8 271.3 478.5 272.0Q478.2 272.7 478.2 273.6L478.2 273.6Q478.2 274.6 478.5 275.3Q478.8 276.0 479.3 276.5Q479.9 276.9 480.7 276.9ZM490.7 278.2L490.7 278.2Q489.4 278.2 488.5 277.6Q487.6 277.1 487.1 276.1Q486.6 275.0 486.6 273.7Q486.6 272.4 487.1 271.3Q487.6 270.3 488.5 269.7Q489.3 269.2 490.5 269.2L490.5 269.2Q491.2 269.2 491.9 269.4Q492.6 269.6 493.1 270.1Q493.7 270.6 494.0 271.5Q494.3 272.3 494.3 273.5L494.3 273.5L494.3 274.1L488.0 274.1Q488.1 275.0 488.4 275.6L488.4 275.6Q488.7 276.2 489.3 276.6Q489.9 276.9 490.7 276.9L490.7 276.9Q491.2 276.9 491.6 276.8Q492.1 276.6 492.4 276.3Q492.7 276.0 492.8 275.6L492.8 275.6L494.2 276.0Q494.0 276.6 493.5 277.1Q493.0 277.6 492.3 277.9Q491.6 278.2 490.7 278.2ZM488.0 272.9L488.0 272.9L492.9 272.9Q492.9 272.3 492.7 271.8L492.7 271.8Q492.4 271.2 491.9 270.8Q491.3 270.4 490.5 270.4Q489.7 270.4 489.2 270.8Q488.6 271.2 488.3 271.8L488.3 271.8Q488.1 272.3 488.0 272.9ZM499.3 278.2L499.3 278.2Q498.4 278.2 497.7 277.9Q497.0 277.7 496.6 277.1Q496.1 276.6 496.0 275.9L496.0 275.9L497.3 275.6Q497.5 276.3 498.0 276.6Q498.5 277.0 499.3 277.0L499.3 277.0Q500.2 277.0 500.8 276.6Q501.3 276.2 501.3 275.6L501.3 275.6Q501.3 275.2 501.0 274.9Q500.7 274.6 500.0 274.4L500.0 274.4L498.6 274.1Q497.4 273.8 496.8 273.2Q496.2 272.6 496.2 271.7L496.2 271.7Q496.2 271.0 496.6 270.4Q497.1 269.8 497.8 269.5Q498.5 269.2 499.5 269.2L499.5 269.2Q500.4 269.2 501.0 269.4Q501.6 269.7 502.0 270.2Q502.4 270.6 502.6 271.3L502.6 271.3L501.3 271.6Q501.1 271.1 500.7 270.7Q500.3 270.4 499.5 270.4L499.5 270.4Q498.7 270.4 498.2 270.7Q497.6 271.1 497.6 271.6L497.6 271.6Q497.6 272.1 498 272.4Q498.4 272.7 499.1 272.9L499.1 272.9L500.4 273.2Q501.6 273.5 502.2 274.1Q502.8 274.6 502.8 275.5L502.8 275.5Q502.8 276.3 502.3 276.9Q501.9 277.5 501.1 277.8Q500.3 278.2 499.3 278.2ZM508.4 278.2L508.4 278.2Q507.2 278.2 506.3 277.6Q505.4 277.1 504.9 276.0Q504.4 275.0 504.4 273.7L504.4 273.7Q504.4 272.3 504.9 271.3Q505.4 270.3 506.3 269.7Q507.2 269.2 508.4 269.2L508.4 269.2Q509.0 269.2 509.5 269.3Q510.1 269.5 510.6 269.8Q511.0 270.1 511.4 270.6Q511.7 271 511.9 271.6L511.9 271.6L510.5 272.0Q510.4 271.6 510.3 271.3Q510.1 271.1 509.8 270.8Q509.5 270.6 509.1 270.5Q508.8 270.4 508.4 270.4L508.4 270.4Q507.5 270.4 506.9 270.9Q506.4 271.3 506.1 272.1Q505.8 272.8 505.8 273.7L505.8 273.7Q505.8 274.5 506.1 275.3Q506.4 276.0 506.9 276.5Q507.5 276.9 508.4 276.9L508.4 276.9Q508.8 276.9 509.2 276.8Q509.5 276.7 509.8 276.5Q510.1 276.3 510.3 276.0Q510.5 275.7 510.6 275.3L510.6 275.3L511.9 275.7Q511.8 276.3 511.4 276.7Q511.1 277.2 510.6 277.5Q510.1 277.9 509.6 278.0Q509.0 278.2 508.4 278.2ZM515.3 278L513.9 278L513.9 269.3L515.3 269.3L515.3 270.6L515.4 270.6Q515.6 269.9 516.3 269.5Q516.9 269.1 517.7 269.1L517.7 269.1Q517.8 269.1 518.0 269.1Q518.2 269.2 518.4 269.2L518.4 269.2L518.4 270.6Q518.3 270.6 518.1 270.5Q517.8 270.5 517.5 270.5L517.5 270.5Q516.9 270.5 516.4 270.8Q515.9 271.0 515.6 271.5Q515.3 271.9 515.3 272.5L515.3 272.5L515.3 278ZM521.4 278L520.0 278L520.0 269.3L521.4 269.3L521.4 278ZM520.7 267.8L520.7 267.8Q520.3 267.8 520.0 267.6Q519.7 267.3 519.7 266.9L519.7 266.9Q519.7 266.5 520.0 266.2Q520.3 266.0 520.7 266.0L520.7 266.0Q521.1 266.0 521.4 266.2Q521.7 266.5 521.7 266.9L521.7 266.9Q521.7 267.3 521.4 267.6Q521.1 267.8 520.7 267.8ZM525.2 281.3L523.8 281.3L523.8 269.3L525.2 269.3L525.2 270.7L525.4 270.7Q525.5 270.4 525.8 270.1Q526.0 269.7 526.5 269.4Q527.0 269.2 527.9 269.2L527.9 269.2Q529.0 269.2 529.8 269.7Q530.6 270.3 531.1 271.3Q531.6 272.3 531.6 273.7L531.6 273.7Q531.6 275.0 531.1 276.1Q530.6 277.1 529.8 277.6Q529.0 278.2 527.9 278.2L527.9 278.2Q527.1 278.2 526.6 277.9Q526.0 277.6 525.8 277.3Q525.5 276.9 525.4 276.6L525.4 276.6L525.2 276.6L525.2 281.3ZM527.7 276.9L527.7 276.9Q528.5 276.9 529.1 276.5Q529.6 276.0 529.9 275.3Q530.2 274.6 530.2 273.6L530.2 273.6Q530.2 272.7 529.9 272.0Q529.6 271.3 529.1 270.8Q528.5 270.4 527.7 270.4L527.7 270.4Q526.9 270.4 526.3 270.8Q525.8 271.2 525.5 271.9Q525.2 272.7 525.2 273.6L525.2 273.6Q525.2 274.6 525.5 275.4Q525.8 276.1 526.3 276.5Q526.9 276.9 527.7 276.9ZM535.3 269.3L537.1 269.3L537.1 270.5L535.3 270.5L535.3 275.7Q535.3 276.3 535.5 276.6Q535.8 276.9 536.3 276.9L536.3 276.9Q536.4 276.9 536.6 276.8Q536.9 276.8 537.0 276.8L537.0 276.8L537.3 278.0Q537.1 278.0 536.8 278.1Q536.5 278.1 536.3 278.1L536.3 278.1Q535.1 278.1 534.5 277.5Q533.9 276.9 533.9 275.8L533.9 275.8L533.9 270.5L532.6 270.5L532.6 269.3L533.9 269.3L533.9 267.2L535.3 267.2L535.3 269.3ZM540.3 278L538.9 278L538.9 269.3L540.3 269.3L540.3 278ZM539.6 267.8L539.6 267.8Q539.2 267.8 538.9 267.6Q538.6 267.3 538.6 266.9L538.6 266.9Q538.6 266.5 538.9 266.2Q539.2 266.0 539.6 266.0L539.6 266.0Q540.0 266.0 540.3 266.2Q540.6 266.5 540.6 266.9L540.6 266.9Q540.6 267.3 540.3 267.6Q540.0 267.8 539.6 267.8ZM546.3 278.2L546.3 278.2Q545.1 278.2 544.2 277.6Q543.3 277.1 542.8 276.0Q542.3 275.0 542.3 273.7L542.3 273.7Q542.3 272.3 542.8 271.3Q543.3 270.3 544.2 269.7Q545.1 269.2 546.3 269.2L546.3 269.2Q547.5 269.2 548.4 269.7Q549.3 270.3 549.8 271.3Q550.3 272.3 550.3 273.7L550.3 273.7Q550.3 275.0 549.8 276.0Q549.3 277.1 548.4 277.6Q547.5 278.2 546.3 278.2ZM546.3 276.9L546.3 276.9Q547.2 276.9 547.8 276.5Q548.3 276.0 548.6 275.3Q548.9 274.5 548.9 273.7L548.9 273.7Q548.9 272.8 548.6 272.1Q548.3 271.3 547.8 270.9Q547.2 270.4 546.3 270.4L546.3 270.4Q545.4 270.4 544.9 270.9Q544.3 271.3 544.0 272.1Q543.8 272.8 543.8 273.7L543.8 273.7Q543.8 274.5 544.0 275.3Q544.3 276.0 544.9 276.5Q545.4 276.9 546.3 276.9ZM553.7 272.8L553.7 272.8L553.7 278L552.3 278L552.3 269.3L553.7 269.3L553.7 270.9Q554.1 270.1 554.6 269.7L554.6 269.7Q555.4 269.2 556.4 269.2L556.4 269.2Q557.3 269.2 557.9 269.5Q558.6 269.9 558.9 270.6Q559.3 271.3 559.3 272.5L559.3 272.5L559.3 278L557.9 278L557.9 272.6Q557.9 271.6 557.4 271.0Q556.9 270.4 555.9 270.4L555.9 270.4Q555.3 270.4 554.8 270.7Q554.3 271.0 554.0 271.5Q553.7 272.0 553.7 272.8Z M567.9 269.3L569.7 269.3L569.7 270.5L567.9 270.5L567.9 275.7Q567.9 276.3 568.2 276.6Q568.4 276.9 569.0 276.9L569.0 276.9Q569.1 276.9 569.3 276.8Q569.5 276.8 569.7 276.8L569.7 276.8L570.0 278.0Q569.8 278.0 569.5 278.1Q569.2 278.1 568.9 278.1L568.9 278.1Q567.8 278.1 567.2 277.5Q566.5 276.9 566.5 275.8L566.5 275.8L566.5 270.5L565.2 270.5L565.2 269.3L566.5 269.3L566.5 267.2L567.9 267.2L567.9 269.3ZM575.2 278.2L575.2 278.2Q573.9 278.2 573.0 277.6Q572.1 277.1 571.6 276.1Q571.1 275.0 571.1 273.7Q571.1 272.4 571.6 271.3Q572.1 270.3 573.0 269.7Q573.8 269.2 575.0 269.2L575.0 269.2Q575.7 269.2 576.4 269.4Q577.1 269.6 577.6 270.1Q578.2 270.6 578.5 271.5Q578.8 272.3 578.8 273.5L578.8 273.5L578.8 274.1L572.5 274.1Q572.6 275.0 572.9 275.6L572.9 275.6Q573.2 276.2 573.8 276.6Q574.4 276.9 575.2 276.9L575.2 276.9Q575.7 276.9 576.1 276.8Q576.6 276.6 576.9 276.3Q577.2 276.0 577.3 275.6L577.3 275.6L578.7 276.0Q578.5 276.6 578.0 277.1Q577.5 277.6 576.8 277.9Q576.1 278.2 575.2 278.2ZM572.5 272.9L572.5 272.9L577.4 272.9Q577.4 272.3 577.2 271.8L577.2 271.8Q576.9 271.2 576.4 270.8Q575.8 270.4 575.0 270.4Q574.2 270.4 573.7 270.8Q573.1 271.2 572.8 271.8L572.8 271.8Q572.6 272.3 572.5 272.9ZM581.8 278L580.1 278L583.2 273.5L580.3 269.3L581.9 269.3L583.0 271.0Q583.5 271.6 583.8 272.2L583.8 272.2Q583.9 272.4 584.0 272.7L584.0 272.7Q584.2 272.4 584.3 272.2L584.3 272.2Q584.6 271.6 585.0 271.0L585.0 271.0L586.1 269.3L587.7 269.3L584.8 273.6L587.8 278L586.2 278L584.9 276.0Q584.5 275.4 584.2 274.8L584.2 274.8Q584.1 274.6 584.0 274.4L584.0 274.4Q583.9 274.6 583.7 274.8L583.7 274.8Q583.5 275.4 583.0 276.0L583.0 276.0L581.8 278ZM591.2 269.3L593.0 269.3L593.0 270.5L591.2 270.5L591.2 275.7Q591.2 276.3 591.5 276.6Q591.7 276.9 592.3 276.9L592.3 276.9Q592.4 276.9 592.6 276.8Q592.8 276.8 593.0 276.8L593.0 276.8L593.3 278.0Q593.0 278.0 592.8 278.1Q592.5 278.1 592.2 278.1L592.2 278.1Q591.1 278.1 590.5 277.5Q589.8 276.9 589.8 275.8L589.8 275.8L589.8 270.5L588.5 270.5L588.5 269.3L589.8 269.3L589.8 267.2L591.2 267.2L591.2 269.3Z M600.7 272.8L600.7 272.8L600.7 278L599.3 278L599.3 266.4L600.7 266.4L600.7 270.8Q601.1 270.0 601.6 269.7L601.6 269.7Q602.4 269.2 603.4 269.2L603.4 269.2Q604.2 269.2 604.9 269.5Q605.6 269.9 605.9 270.6Q606.3 271.3 606.3 272.5L606.3 272.5L606.3 278L604.9 278L604.9 272.6Q604.9 271.6 604.4 271.0Q603.8 270.4 602.9 270.4L602.9 270.4Q602.3 270.4 601.8 270.7Q601.3 271.0 601.0 271.5Q600.7 272.0 600.7 272.8ZM612.5 278.2L612.5 278.2Q611.2 278.2 610.3 277.6Q609.4 277.1 608.9 276.1Q608.4 275.0 608.4 273.7Q608.4 272.4 608.8 271.3Q609.3 270.3 610.2 269.7Q611.1 269.2 612.3 269.2L612.3 269.2Q613.0 269.2 613.7 269.4Q614.3 269.6 614.9 270.1Q615.4 270.6 615.8 271.5Q616.1 272.3 616.1 273.5L616.1 273.5L616.1 274.1L609.8 274.1Q609.8 275.0 610.1 275.6L610.1 275.6Q610.5 276.2 611.1 276.6Q611.7 276.9 612.5 276.9L612.5 276.9Q613.0 276.9 613.4 276.8Q613.8 276.6 614.1 276.3Q614.4 276.0 614.6 275.6L614.6 275.6L616.0 276.0Q615.8 276.6 615.3 277.1Q614.8 277.6 614.1 277.9Q613.4 278.2 612.5 278.2ZM609.8 272.9L609.8 272.9L614.7 272.9Q614.6 272.3 614.4 271.8L614.4 271.8Q614.1 271.2 613.6 270.8Q613.1 270.4 612.3 270.4Q611.5 270.4 610.9 270.8Q610.4 271.2 610.1 271.8L610.1 271.8Q609.8 272.3 609.8 272.9ZM619.5 278L618.1 278L618.1 269.3L619.5 269.3L619.5 270.6L619.6 270.6Q619.8 269.9 620.4 269.5Q621.0 269.1 621.8 269.1L621.8 269.1Q622.0 269.1 622.2 269.1Q622.4 269.2 622.5 269.2L622.5 269.2L622.5 270.6Q622.5 270.6 622.2 270.5Q622.0 270.5 621.7 270.5L621.7 270.5Q621.1 270.5 620.6 270.8Q620.1 271.0 619.8 271.5Q619.5 271.9 619.5 272.5L619.5 272.5L619.5 278ZM627.8 278.2L627.8 278.2Q626.5 278.2 625.6 277.6Q624.7 277.1 624.2 276.1Q623.7 275.0 623.7 273.7Q623.7 272.4 624.2 271.3Q624.7 270.3 625.6 269.7Q626.5 269.2 627.6 269.2L627.6 269.2Q628.3 269.2 629.0 269.4Q629.7 269.6 630.2 270.1Q630.8 270.6 631.1 271.5Q631.4 272.3 631.4 273.5L631.4 273.5L631.4 274.1L625.1 274.1Q625.2 275.0 625.5 275.6L625.5 275.6Q625.8 276.2 626.4 276.6Q627.0 276.9 627.8 276.9L627.8 276.9Q628.3 276.9 628.8 276.8Q629.2 276.6 629.5 276.3Q629.8 276.0 629.9 275.6L629.9 275.6L631.3 276.0Q631.1 276.6 630.6 277.1Q630.1 277.6 629.4 277.9Q628.7 278.2 627.8 278.2ZM625.1 272.9L625.1 272.9L630.0 272.9Q630.0 272.3 629.8 271.8L629.8 271.8Q629.5 271.2 629.0 270.8Q628.4 270.4 627.6 270.4Q626.9 270.4 626.3 270.8Q625.7 271.2 625.4 271.8L625.4 271.8Q625.2 272.3 625.1 272.9Z "/></g></svg>