<svg width="1200" height="630" viewBox="0 0 1200 630" xmlns="http://www.w3.org/2000/svg"><mask id="satori_om-id"><rect x="0" y="0" width="1200" height="630" fill="#fff"/></mask><rect x="0" y="0" width="1200" height="630" fill="#f8fafc"/><mask id="satori_ms-id-0-0" maskUnits="userSpaceOnUse"><rect x="0" y="0" width="1200" height="630" fill="#fff"/><path x="400" y="190" width="400" height="250" fill="#000"  stroke-width="0" d="M416,190 h368 a16,16 0 0 1 16,16 v218 a16,16 0 0 1 -16,16 h-368 a16,16 0 0 1 -16,-16 v-218 a16,16 0 0 1 16,-16"/></mask><defs><filter id="satori_s-id-0-0" x="-156.25%" y="-250%" width="412.5%" height="600%"><feGaussianBlur stdDeviation="25" result="b"/><feFlood flood-color="rgba(0,0,0,0.15)" in="SourceGraphic" result="f"/><feComposite in="f" in2="b" operator="in"/></filter></defs><g mask="url(#satori_ms-id-0-0)" filter="url(#satori_s-id-0-0)" opacity="1"><path x="400" y="215" width="400" height="250" fill="#fff" stroke="#fff" stroke-width="0" d="M416,215 h368 a16,16 0 0 1 16,16 v218 a16,16 0 0 1 -16,16 h-368 a16,16 0 0 1 -16,-16 v-218 a16,16 0 0 1 16,-16"/></g><mask id="satori_om-id-0"><rect x="400" y="190" width="400" height="250" fill="#fff"/></mask><path x="400" y="190" width="400" height="250" fill="white" d="M416,190 h368 a16,16 0 0 1 16,16 v218 a16,16 0 0 1 -16,16 h-368 a16,16 0 0 1 -16,-16 v-218 a16,16 0 0 1 16,-16"/></svg>