<svg width="1200" height="630" viewBox="0 0 1200 630" xmlns="http://www.w3.org/2000/svg"><mask id="satori_om-id"><rect x="0" y="0" width="1200" height="630" fill="#fff"/></mask><rect x="0" y="0" width="1200" height="630" fill="#0f172a"/><mask id="satori_om-id-0"><rect x="1080" y="20" width="100" height="100" fill="#fff"/></mask><path x="1080" y="20" width="100" height="100" fill="#ef4444" d="M1092,20 h76 a12,12 0 0 1 12,12 v76 a12,12 0 0 1 -12,12 h-76 a12,12 0 0 1 -12,-12 v-76 a12,12 0 0 1 12,-12"/><mask id="satori_om-id-1"><rect x="20" y="510" width="100" height="100" fill="#fff"/></mask><path x="20" y="510" width="100" height="100" fill="#3b82f6" d="M32,510 h76 a12,12 0 0 1 12,12 v76 a12,12 0 0 1 -12,12 h-76 a12,12 0 0 1 -12,-12 v-76 a12,12 0 0 1 12,-12"/></svg>