<svg width="1200" height="630" viewBox="0 0 1200 630" xmlns="http://www.w3.org/2000/svg"><mask id="satori_om-id"><rect x="0" y="0" width="1200" height="630" fill="#fff"/></mask><rect x="0" y="0" width="1200" height="630" fill="white"/><clipPath id="satori_cp-id-0"><path x="450" y="215" width="300" height="200" d="M466,215 h268 a16,16 0 0 1 16,16 v168 a16,16 0 0 1 -16,16 h-268 a16,16 0 0 1 -16,-16 v-168 a16,16 0 0 1 16,-16"/></clipPath><mask id="satori_om-id-0"><rect x="450" y="215" width="300" height="200" fill="#fff"/></mask><path x="450" y="215" width="300" height="200" fill="#3b82f6" d="M466,215 h268 a16,16 0 0 1 16,16 v168 a16,16 0 0 1 -16,16 h-268 a16,16 0 0 1 -16,-16 v-168 a16,16 0 0 1 16,-16"/><mask id="satori_om-id-0-0"><rect x="450" y="215" width="400" height="400" fill="#fff" mask="url(#satori_om-id-0)"/></mask><path x="450" y="215" width="400" height="400" fill="#ef4444" d="M500,215 h300 a50,50 0 0 1 50,50 v300 a50,50 0 0 1 -50,50 h-300 a50,50 0 0 1 -50,-50 v-300 a50,50 0 0 1 50,-50" clip-path="url(#satori_cp-id-0)" mask="url(#satori_om-id-0)"/></svg>