<svg xmlns="http://www.w3.org/2000/svg" width="1200" height="630" viewBox="0 0 1200 630"><rect x="0" y="0" width="1200" height="630" fill="#020617"/><rect x="64" y="64" width="105.2" height="24.8" fill="#f43f5e"/><path d="M1.188 0L1.188 -10.12L8.609 -10.12L8.609 -8.734L3.281 -8.734L3.281 -5.906L7.844 -5.906L7.844 -4.547L3.281 -4.547L3.281 -1.438L8.922 -1.438L8.922 0L1.188 0ZM9.344 0M10.36 0L10.36 -7.5L12.37 -7.5L12.37 -6.266Q13.53 -7.672 14.92 -7.672Q16.97 -7.672 16.97 -5.312L16.97 0L14.95 0L14.95 -4.812Q14.95 -5.531 14.77 -5.812Q14.59 -6.078 14.14 -6.078Q13.31 -6.078 12.37 -4.891L12.37 0L10.36 0ZM17.89 0M23.41 -6.297Q22.66 -6.438 22.27 -6.438Q20.59 -6.438 20.59 -3.906Q20.59 -1.578 21.81 -1.578Q22.64 -1.578 23.41 -2.781L23.41 -6.297M23.41 -1.422Q22.34 0 21.06 0Q19.89 0 19.16 -1.016Q18.44 -2.031 18.44 -3.641Q18.44 -5.516 19.37 -6.594Q20.33 -7.672 21.97 -7.672Q22.52 -7.672 23.41 -7.5L25.44 -7.5L25.44 -1.781Q25.44 -0.0625 25.22 0.7031Q25.02 1.453 24.41 1.984Q23.41 2.875 21.56 2.875Q20.25 2.875 18.73 2.328L18.73 0.8438Q20.22 1.438 21.3 1.438Q22.41 1.438 22.91 0.9531Q23.41 0.4844 23.41 -0.5938L23.41 -1.422ZM26.44 0M27.45 0L27.45 -7.5L29.47 -7.5L29.47 0L27.45 0M27.38 -8.875L27.38 -10.8L29.55 -10.8L29.55 -8.875L27.38 -8.875ZM30.48 0M31.5 0L31.5 -7.5L33.52 -7.5L33.52 -6.266Q34.67 -7.672 36.06 -7.672Q38.11 -7.672 38.11 -5.312L38.11 0L36.09 0L36.09 -4.812Q36.09 -5.531 35.91 -5.812Q35.73 -6.078 35.28 -6.078Q34.45 -6.078 33.52 -4.891L33.52 0L31.5 0ZM39.03 0M46.08 -1.672L46.08 -0.25Q44.83 0.1719 43.58 0.1719Q41.69 0.1719 40.61 -0.9062Q39.53 -1.984 39.53 -3.859Q39.53 -5.594 40.47 -6.625Q41.42 -7.672 42.97 -7.672Q44.59 -7.672 45.33 -6.641Q46.08 -5.609 46.08 -3.344L41.67 -3.344Q41.88 -1.203 43.92 -1.203Q44.89 -1.203 46.08 -1.672M41.66 -4.484L44.09 -4.484Q44.09 -6.406 43 -6.406Q41.86 -6.406 41.66 -4.484ZM46.81 0M53.86 -1.672L53.86 -0.25Q52.61 0.1719 51.36 0.1719Q49.47 0.1719 48.39 -0.9062Q47.31 -1.984 47.31 -3.859Q47.31 -5.594 48.25 -6.625Q49.2 -7.672 50.75 -7.672Q52.37 -7.672 53.11 -6.641Q53.86 -5.609 53.86 -3.344L49.45 -3.344Q49.66 -1.203 51.7 -1.203Q52.67 -1.203 53.86 -1.672M49.44 -4.484L51.87 -4.484Q51.87 -6.406 50.78 -6.406Q49.64 -6.406 49.44 -4.484ZM54.59 0M55.78 0L55.78 -7.5L57.8 -7.5L57.8 -6.266Q58.37 -7.672 59.48 -7.672Q59.64 -7.672 59.83 -7.641L59.83 -5.828Q59.44 -5.984 59.19 -5.984Q58.37 -5.984 57.8 -4.938L57.8 0L55.78 0ZM60.05 0M61.06 0L61.06 -7.5L63.08 -7.5L63.08 0L61.06 0M60.98 -8.875L60.98 -10.8L63.16 -10.8L63.16 -8.875L60.98 -8.875ZM64.09 0M65.11 0L65.11 -7.5L67.12 -7.5L67.12 -6.266Q68.28 -7.672 69.67 -7.672Q71.72 -7.672 71.72 -5.312L71.72 0L69.7 0L69.7 -4.812Q69.7 -5.531 69.52 -5.812Q69.34 -6.078 68.89 -6.078Q68.06 -6.078 67.12 -4.891L67.12 0L65.11 0ZM72.64 0M78.16 -6.297Q77.41 -6.438 77.02 -6.438Q75.34 -6.438 75.34 -3.906Q75.34 -1.578 76.56 -1.578Q77.39 -1.578 78.16 -2.781L78.16 -6.297M78.16 -1.422Q77.09 0 75.81 0Q74.64 0 73.91 -1.016Q73.19 -2.031 73.19 -3.641Q73.19 -5.516 74.12 -6.594Q75.08 -7.672 76.72 -7.672Q77.27 -7.672 78.16 -7.5L80.19 -7.5L80.19 -1.781Q80.19 -0.0625 79.97 0.7031Q79.77 1.453 79.16 1.984Q78.16 2.875 76.31 2.875Q75 2.875 73.48 2.328L73.48 0.8438Q74.97 1.438 76.05 1.438Q77.16 1.438 77.66 0.9531Q78.16 0.4844 78.16 -0.5938L78.16 -1.422Z" fill="#ffffff" transform="translate(76,81.23)"/><rect x="181.2" y="64" width="98.23" height="24.8" fill="#1e293b"/><path d="M1.438 0L1.438 -1.016L3.594 -1.016L3.594 -9L1.438 -8.453L1.438 -9.5L4.953 -10.38L4.953 -1.016L7.109 -1.016L7.109 0L1.438 0ZM7.781 0M8.484 0L8.484 -1.188Q8.937 -2.266 10.05 -3.438L10.8 -4.188L11.45 -4.875Q12.78 -6.219 12.78 -7.516Q12.78 -9.359 11.13 -9.359Q10.16 -9.359 8.734 -8.547L8.734 -9.734Q10.08 -10.38 11.33 -10.38Q12.64 -10.38 13.42 -9.594Q14.22 -8.828 14.22 -7.531Q14.22 -6.641 13.81 -5.953Q13.41 -5.266 12.28 -4.234L11.81 -3.812Q10.39 -2.516 10.11 -1.188L14.16 -1.188L14.16 0L8.484 0ZM19.45 0M20.5 0L20.5 -7.422L21.86 -7.422L21.86 -6.031Q22.47 -6.984 22.91 -7.281Q23.33 -7.594 24 -7.594Q25.47 -7.594 26 -6.031Q26.63 -6.984 27.05 -7.281Q27.47 -7.594 28.16 -7.594Q30.14 -7.594 30.14 -5.406L30.14 0L28.8 0L28.8 -5.188Q28.8 -6.469 27.78 -6.469Q26.91 -6.469 26 -4.984L26 0L24.66 0L24.66 -5.188Q24.66 -6.469 23.63 -6.469Q22.75 -6.469 21.86 -4.984L21.86 0L20.5 0ZM31.11 0M32.13 0L32.13 -7.5L34.14 -7.5L34.14 0L32.13 0M32.05 -8.875L32.05 -10.8L34.22 -10.8L34.22 -8.875L32.05 -8.875ZM35.16 0M36.17 0L36.17 -7.5L38.19 -7.5L38.19 -6.266Q39.34 -7.672 40.73 -7.672Q42.78 -7.672 42.78 -5.312L42.78 0L40.77 0L40.77 -4.812Q40.77 -5.531 40.58 -5.812Q40.41 -6.078 39.95 -6.078Q39.13 -6.078 38.19 -4.891L38.19 0L36.17 0ZM47.59 0M48.78 0L48.78 -7.5L50.8 -7.5L50.8 -6.266Q51.37 -7.672 52.48 -7.672Q52.64 -7.672 52.83 -7.641L52.83 -5.828Q52.44 -5.984 52.19 -5.984Q51.37 -5.984 50.8 -4.938L50.8 0L48.78 0ZM53.05 0M60.09 -1.672L60.09 -0.25Q58.84 0.1719 57.59 0.1719Q55.7 0.1719 54.62 -0.9062Q53.55 -1.984 53.55 -3.859Q53.55 -5.594 54.48 -6.625Q55.44 -7.672 56.98 -7.672Q58.61 -7.672 59.34 -6.641Q60.09 -5.609 60.09 -3.344L55.69 -3.344Q55.89 -1.203 57.94 -1.203Q58.91 -1.203 60.09 -1.672M55.67 -4.484L58.11 -4.484Q58.11 -6.406 57.02 -6.406Q55.87 -6.406 55.67 -4.484ZM60.83 0M66.13 -0.9375Q64.91 0.1719 63.67 0.1719Q62.69 0.1719 62.09 -0.3906Q61.48 -0.9688 61.48 -1.875Q61.48 -4.391 65.61 -4.391L65.92 -4.391L65.92 -5.281Q65.92 -6.578 64.5 -6.578Q63.34 -6.578 62.13 -5.922L62.13 -7.031Q63.48 -7.594 64.73 -7.594Q66.06 -7.594 66.67 -7.031Q67.27 -6.484 67.27 -5.281L67.27 -1.922Q67.27 -0.7656 67.98 -0.7656Q68.06 -0.7656 68.23 -0.7969L68.33 -0.04688Q67.88 0.1719 67.31 0.1719Q66.38 0.1719 66.13 -0.9375M65.92 -1.672L65.92 -3.594L65.48 -3.609Q62.88 -3.609 62.88 -2.109Q62.88 -0.9375 64.13 -0.9375Q65 -0.9375 65.92 -1.672ZM68.61 0M73.98 -2.609L73.98 -6.406Q73.06 -6.578 72.59 -6.578Q70.66 -6.578 70.66 -3.609Q70.66 -2.406 71.03 -1.703Q71.41 -1.016 72.06 -1.016Q72.95 -1.016 73.98 -2.609M73.98 -1.391Q73.19 0.1719 71.78 0.1719Q70.61 0.1719 69.91 -0.8281Q69.2 -1.844 69.2 -3.5Q69.2 -5.453 70.11 -6.516Q71.02 -7.594 72.7 -7.594Q73.34 -7.594 73.98 -7.422L73.98 -10.8L75.34 -10.8L75.34 0L73.98 0L73.98 -1.391Z" fill="#cbd5e1" transform="translate(193.2,81.23)"/><path d="M11.86 0L0.7344 -43.36L9.266 -43.36L17.48 -11.62L25.69 -43.36L33.22 -43.36L40.69 -11.55L49.52 -43.36L55.92 -43.36L43.89 0L35.25 0L28.22 -29.73L20.48 0L11.86 0ZM56.62 0M60.97 0L60.97 -46.27L69.64 -46.27L69.64 -26.84Q74.58 -32.91 80.56 -32.91Q89.33 -32.91 89.33 -22.73L89.33 0L80.66 0L80.66 -20.59Q80.66 -23.73 79.89 -24.91Q79.16 -26.08 77.16 -26.08Q73.64 -26.08 69.64 -20.98L69.64 0L60.97 0ZM93.28 0M105.6 0L94.02 -32.17L103.2 -32.17L110.6 -11.38L119.4 -32.17L125.9 -32.17L107.1 11.58L98.3 11.58L105.6 0ZM143.3 0M155.2 0L144.1 -43.36L152.6 -43.36L160.8 -11.62L169 -43.36L176.5 -43.36L184 -11.55L192.8 -43.36L199.2 -43.36L187.2 0L178.6 0L171.5 -29.73L163.8 0L155.2 0ZM200 0M230.2 -7.172L230.2 -1.078Q224.8 0.7344 219.4 0.7344Q211.3 0.7344 206.7 -3.875Q202.1 -8.5 202.1 -16.53Q202.1 -23.97 206.1 -28.42Q210.2 -32.91 216.9 -32.91Q223.8 -32.91 227 -28.45Q230.2 -24.03 230.2 -14.36L211.3 -14.36Q212.2 -5.156 220.9 -5.156Q225 -5.156 230.2 -7.172M211.2 -19.25L221.6 -19.25Q221.6 -27.48 217 -27.48Q212 -27.48 211.2 -19.25ZM250 0M255.1 0L255.1 -43.36L267 -43.36L275.6 -12.86L284.4 -43.36L294.9 -43.36L294.9 0L286.6 0L286.6 -32.72L277.9 -2.906L270.7 -2.906L262.2 -33.17L262.2 0L255.1 0ZM300 0M304.3 0L304.3 -32.17L313 -32.17L313 0L304.3 0M304 -38.03L304 -46.27L313.3 -46.27L313.3 -38.03L304 -38.03ZM317.3 0M341 -27.02Q337.7 -27.56 336.1 -27.56Q328.9 -27.56 328.9 -16.73Q328.9 -6.766 334.1 -6.766Q337.7 -6.766 341 -11.92L341 -27.02M341 -6.062Q336.4 0 330.9 0Q325.9 0 322.8 -4.344Q319.7 -8.672 319.7 -15.59Q319.7 -23.61 323.7 -28.25Q327.8 -32.91 334.8 -32.91Q337.2 -32.91 341 -32.17L349.6 -32.17L349.6 -7.625Q349.6 -0.2656 348.8 2.984Q347.9 6.234 345.3 8.531Q340.9 12.31 333.1 12.31Q327.4 12.31 321 9.984L321 3.609Q327.3 6.156 331.9 6.156Q336.7 6.156 338.8 4.109Q341 2.047 341 -2.547L341 -6.062ZM354 0M359 0L359 -32.17L367.7 -32.17L367.7 -26.84Q370.2 -32.91 374.9 -32.91Q375.6 -32.91 376.4 -32.72L376.4 -24.98Q374.8 -25.67 373.6 -25.67Q370.2 -25.67 367.7 -21.16L367.7 0L359 0ZM377.3 0M408.9 -4.953L409.1 -0.09375Q406.3 0.7344 404.2 0.7344Q398.9 0.7344 397.3 -3.453L396.9 -3.453Q393.8 0.7344 388.9 0.7344Q384.6 0.7344 382 -1.844Q379.3 -4.453 379.3 -8.672Q379.3 -19.62 394.6 -19.62L396.9 -19.62L396.9 -22.56Q396.9 -27.56 391.9 -27.56Q387.4 -27.56 382.2 -24.7L382.2 -30.67Q387.5 -32.91 393.3 -32.91Q405.3 -32.91 405.3 -22.86L405.3 -8.609Q405.3 -4.828 407.7 -4.828Q408.2 -4.828 408.9 -4.953M396.9 -8.109L396.9 -14.66L394.9 -14.66Q387.7 -14.66 387.7 -9.438Q387.7 -7.594 388.9 -6.359Q390.1 -5.156 392 -5.156Q395 -5.156 396.9 -8.109ZM410.7 0M430.2 -5.453L430.2 -0.03125Q426.8 0.7344 424.6 0.7344Q415.5 0.7344 415.5 -9.812L415.5 -26.75L411.9 -26.75L411.9 -32.17L415.5 -32.17L415.5 -38.47L424.1 -39.47L424.1 -32.17L430.3 -32.17L430.3 -26.75L424.1 -26.75L424.1 -10.95Q424.1 -7.328 424.7 -6.188Q425.4 -5.062 427.3 -5.062Q428.5 -5.062 430.2 -5.453ZM430.7 0M460.9 -7.172L460.9 -1.078Q455.5 0.7344 450.1 0.7344Q442.1 0.7344 437.5 -3.875Q432.9 -8.5 432.9 -16.53Q432.9 -23.97 436.9 -28.42Q440.9 -32.91 447.6 -32.91Q454.5 -32.91 457.7 -28.45Q460.9 -24.03 460.9 -14.36L442 -14.36Q442.9 -5.156 451.6 -5.156Q455.8 -5.156 460.9 -7.172M441.9 -19.25L452.4 -19.25Q452.4 -27.48 447.7 -27.48Q442.8 -27.48 441.9 -19.25ZM464.1 0M487.7 -5.328Q483.1 0.7344 477.6 0.7344Q472.6 0.7344 469.5 -3.641Q466.4 -8.031 466.4 -15.2Q466.4 -23.53 470.4 -28.22Q474.4 -32.91 481.5 -32.91Q483.9 -32.91 487.7 -32.17L487.7 -46.27L496.4 -46.27L496.4 0L487.7 0L487.7 -5.328M487.7 -27.02Q484.5 -27.56 482.8 -27.56Q475.6 -27.56 475.6 -16.41Q475.6 -6.062 480.9 -6.062Q484.4 -6.062 487.7 -11.19L487.7 -27.02ZM517.4 0M536.9 -5.453L536.9 -0.03125Q533.5 0.7344 531.3 0.7344Q522.1 0.7344 522.1 -9.812L522.1 -26.75L518.6 -26.75L518.6 -32.17L522.1 -32.17L522.1 -38.47L530.8 -39.47L530.8 -32.17L537 -32.17L537 -26.75L530.8 -26.75L530.8 -10.95Q530.8 -7.328 531.4 -6.188Q532.1 -5.062 534 -5.062Q535.1 -5.062 536.9 -5.453ZM537.4 0M555.5 0.7344Q548.3 0.7344 543.9 -3.875Q539.5 -8.5 539.5 -16.08Q539.5 -23.77 543.9 -28.33Q548.3 -32.91 555.7 -32.91Q563 -32.91 567.4 -28.33Q571.9 -23.77 571.9 -16.14Q571.9 -8.375 567.4 -3.812Q563 0.7344 555.5 0.7344M555.6 -4.688Q558.9 -4.688 560.8 -7.734Q562.7 -10.81 562.7 -16.14Q562.7 -21.33 560.8 -24.41Q558.9 -27.48 555.7 -27.48Q552.5 -27.48 550.6 -24.41Q548.8 -21.33 548.8 -16.08Q548.8 -10.91 550.6 -7.797Q552.5 -4.688 555.6 -4.688ZM590.7 0M595.8 0L595.8 -43.36L613.4 -43.36Q619 -43.36 621.7 -42.66Q624.4 -41.98 626.3 -39.94Q629 -37.09 629 -31.84Q629 -17 610.9 -17L604.6 -17L604.6 0L595.8 0M604.6 -22.94L608.9 -22.94Q619.7 -22.94 619.7 -30.97Q619.7 -34.55 617.6 -35.98Q615.5 -37.41 610.6 -37.41L604.6 -37.41L604.6 -22.94ZM630.7 0M648.9 0.7344Q641.6 0.7344 637.2 -3.875Q632.9 -8.5 632.9 -16.08Q632.9 -23.77 637.3 -28.33Q641.7 -32.91 649 -32.91Q656.4 -32.91 660.8 -28.33Q665.2 -23.77 665.2 -16.14Q665.2 -8.375 660.8 -3.812Q656.4 0.7344 648.9 0.7344M649 -4.688Q652.2 -4.688 654.1 -7.734Q656 -10.81 656 -16.14Q656 -21.33 654.1 -24.41Q652.2 -27.48 649 -27.48Q645.8 -27.48 644 -24.41Q642.1 -21.33 642.1 -16.08Q642.1 -10.91 644 -7.797Q645.8 -4.688 649 -4.688ZM667.4 0M671 -1.062L671 -7.391Q677.7 -4.688 682.3 -4.688Q688.8 -4.688 688.8 -8.203Q688.8 -10.34 683.7 -12.42L680.7 -13.59Q674.7 -16.03 672.9 -17.81Q671.1 -19.59 671.1 -23.17Q671.1 -32.91 684.7 -32.91Q689.3 -32.91 695.2 -31.77L695.2 -25.81Q688.7 -27.48 685.8 -27.48Q679.7 -27.48 679.7 -24.2Q679.7 -22.2 684.4 -20.42L686.9 -19.45Q693.4 -17.02 695.5 -14.94Q697.7 -12.89 697.7 -9.266Q697.7 -4.688 693.7 -1.969Q689.7 0.7344 682.9 0.7344Q676.9 0.7344 671 -1.062ZM700.8 0M720.2 -5.453L720.2 -0.03125Q716.9 0.7344 714.7 0.7344Q705.5 0.7344 705.5 -9.812L705.5 -26.75L702 -26.75L702 -32.17L705.5 -32.17L705.5 -38.47L714.2 -39.47L714.2 -32.17L720.3 -32.17L720.3 -26.75L714.2 -26.75L714.2 -10.95Q714.2 -7.328 714.8 -6.188Q715.4 -5.062 717.3 -5.062Q718.5 -5.062 720.2 -5.453ZM720.7 0M744.4 -27.02Q741.1 -27.56 739.5 -27.56Q732.3 -27.56 732.3 -16.73Q732.3 -6.766 737.5 -6.766Q741.1 -6.766 744.4 -11.92L744.4 -27.02M744.4 -6.062Q739.8 0 734.3 0Q729.3 0 726.2 -4.344Q723.1 -8.672 723.1 -15.59Q723.1 -23.61 727.1 -28.25Q731.2 -32.91 738.2 -32.91Q740.6 -32.91 744.4 -32.17L753 -32.17L753 -7.625Q753 -0.2656 752.2 2.984Q751.3 6.234 748.7 8.531Q744.3 12.31 736.5 12.31Q730.8 12.31 724.4 9.984L724.4 3.609Q730.7 6.156 735.3 6.156Q740.1 6.156 742.2 4.109Q744.4 2.047 744.4 -2.547L744.4 -6.062ZM757.4 0M762.5 0L762.5 -32.17L771.1 -32.17L771.1 -26.84Q773.6 -32.91 778.3 -32.91Q779 -32.91 779.8 -32.72L779.8 -24.98Q778.2 -25.67 777.1 -25.67Q773.6 -25.67 771.1 -21.16L771.1 0L762.5 0ZM780.7 0M810.9 -7.172L810.9 -1.078Q805.6 0.7344 800.2 0.7344Q792.1 0.7344 787.5 -3.875Q782.9 -8.5 782.9 -16.53Q782.9 -23.97 786.9 -28.42Q791 -32.91 797.6 -32.91Q804.5 -32.91 807.8 -28.45Q810.9 -24.03 810.9 -14.36L792 -14.36Q793 -5.156 801.7 -5.156Q805.8 -5.156 810.9 -7.172M792 -19.25L802.4 -19.25Q802.4 -27.48 797.8 -27.48Q792.8 -27.48 792 -19.25ZM814.1 0M817.7 -1.062L817.7 -7.391Q824.4 -4.688 829 -4.688Q835.5 -4.688 835.5 -8.203Q835.5 -10.34 830.4 -12.42L827.5 -13.59Q821.5 -16.03 819.6 -17.81Q817.9 -19.59 817.9 -23.17Q817.9 -32.91 831.4 -32.91Q836 -32.91 841.9 -31.77L841.9 -25.81Q835.5 -27.48 832.5 -27.48Q826.4 -27.48 826.4 -24.2Q826.4 -22.2 831.1 -20.42L833.7 -19.45Q840.1 -17.02 842.3 -14.94Q844.5 -12.89 844.5 -9.266Q844.5 -4.688 840.4 -1.969Q836.4 0.7344 829.6 0.7344Q823.6 0.7344 817.7 -1.062Z" fill="#ffffff" transform="translate(64,313.7)"/><path d="M1.938 0L1.938 -17.34L4.391 -17.34L4.391 -1.844L12.91 -1.844L12.91 0L1.938 0ZM13.34 0M22.94 -7.734Q22.94 -11.28 20.06 -11.28Q17.09 -11.28 16.81 -7.734L22.94 -7.734M25.22 -2.234L25.22 -0.4062Q22.94 0.2969 20.8 0.2969Q17.86 0.2969 16.09 -1.562Q14.36 -3.406 14.36 -6.516Q14.36 -9.5 15.91 -11.25Q17.45 -13.02 20.09 -13.02Q25.28 -13.02 25.28 -6.719L25.28 -6L16.78 -6Q17.11 -1.469 21.34 -1.469Q23.17 -1.469 25.22 -2.234ZM26.69 0M28.05 -0.4531L28.05 -2.562Q30.33 -1.438 32.33 -1.438Q35.02 -1.438 35.02 -3.375Q35.02 -4.594 33.14 -5.219L31.08 -5.891Q28.13 -6.875 28.13 -9.438Q28.13 -13.02 33 -13.02Q34.41 -13.02 36.36 -12.64L36.36 -10.7Q34.66 -11.28 32.77 -11.28Q30.41 -11.28 30.41 -9.656Q30.41 -8.562 32.06 -8L33.89 -7.406Q37.33 -6.266 37.33 -3.562Q37.33 -1.766 35.97 -0.7344Q34.61 0.2969 32.25 0.2969Q30.33 0.2969 28.05 -0.4531ZM38.69 0M40.05 -0.4531L40.05 -2.562Q42.33 -1.438 44.33 -1.438Q47.02 -1.438 47.02 -3.375Q47.02 -4.594 45.14 -5.219L43.08 -5.891Q40.13 -6.875 40.13 -9.438Q40.13 -13.02 45 -13.02Q46.41 -13.02 48.36 -12.64L48.36 -10.7Q46.66 -11.28 44.77 -11.28Q42.41 -11.28 42.41 -9.656Q42.41 -8.562 44.06 -8L45.89 -7.406Q49.33 -6.266 49.33 -3.562Q49.33 -1.766 47.97 -0.7344Q46.61 0.2969 44.25 0.2969Q42.33 0.2969 40.05 -0.4531ZM50.69 0M57.28 0.2969Q54.7 0.2969 53.2 -1.516Q51.7 -3.312 51.7 -6.359Q51.7 -9.453 53.2 -11.23Q54.73 -13.02 57.36 -13.02Q59.97 -13.02 61.5 -11.23Q63.02 -9.453 63.02 -6.391Q63.02 -3.25 61.5 -1.484Q59.97 0.2969 57.28 0.2969M57.31 -1.438Q60.52 -1.438 60.52 -6.422Q60.52 -11.28 57.36 -11.28Q54.19 -11.28 54.19 -6.359Q54.19 -1.438 57.31 -1.438ZM64.03 0M65.84 0L65.84 -12.73L68.14 -12.73L68.14 -10.34Q69.98 -13.02 72.45 -13.02Q75.72 -13.02 75.72 -9.141L75.72 0L73.39 0L73.39 -8.391Q73.39 -9.922 73.06 -10.48Q72.75 -11.03 71.86 -11.03Q69.91 -11.03 68.14 -8.234L68.14 0L65.84 0ZM77.38 0M78.73 -0.4531L78.73 -2.562Q81.02 -1.438 83.02 -1.438Q85.7 -1.438 85.7 -3.375Q85.7 -4.594 83.83 -5.219L81.77 -5.891Q78.81 -6.875 78.81 -9.438Q78.81 -13.02 83.69 -13.02Q85.09 -13.02 87.05 -12.64L87.05 -10.7Q85.34 -11.28 83.45 -11.28Q81.09 -11.28 81.09 -9.656Q81.09 -8.562 82.75 -8L84.58 -7.406Q88.02 -6.266 88.02 -3.562Q88.02 -1.766 86.66 -0.7344Q85.3 0.2969 82.94 0.2969Q81.02 0.2969 78.73 -0.4531ZM96.05 0M98.09 0L98.09 -11L96.41 -11L96.41 -12.73L98.09 -12.73L98.09 -14.25Q98.09 -18.8 101.7 -18.8Q102.5 -18.8 103.4 -18.5L103.4 -16.66Q102.6 -17.06 102 -17.06Q101.1 -17.06 100.8 -16.48Q100.4 -15.92 100.4 -14.5L100.4 -12.73L103.1 -12.73L103.1 -11L100.4 -11L100.4 0L98.09 0ZM102.7 0M104.5 0L104.5 -12.73L106.8 -12.73L106.8 -10.34Q107.9 -13.02 109.9 -13.02Q110.2 -13.02 110.5 -12.95L110.5 -10.8Q110 -11 109.6 -11Q108.2 -11 106.8 -8.391L106.8 0L104.5 0ZM110.7 0M117.3 0.2969Q114.7 0.2969 113.2 -1.516Q111.7 -3.312 111.7 -6.359Q111.7 -9.453 113.2 -11.23Q114.8 -13.02 117.4 -13.02Q120 -13.02 121.5 -11.23Q123 -9.453 123 -6.391Q123 -3.25 121.5 -1.484Q120 0.2969 117.3 0.2969M117.3 -1.438Q120.5 -1.438 120.5 -6.422Q120.5 -11.28 117.4 -11.28Q114.2 -11.28 114.2 -6.359Q114.2 -1.438 117.3 -1.438ZM124.1 0M125.9 0L125.9 -12.73L128.2 -12.73L128.2 -10.34Q129.3 -11.97 130 -12.48Q130.7 -13.02 131.9 -13.02Q134.4 -13.02 135.3 -10.34Q136.4 -11.97 137.1 -12.48Q137.8 -13.02 139 -13.02Q142.4 -13.02 142.4 -9.266L142.4 0L140.1 0L140.1 -8.891Q140.1 -11.09 138.3 -11.09Q136.8 -11.09 135.3 -8.531L135.3 0L133 0L133 -8.891Q133 -11.09 131.2 -11.09Q129.7 -11.09 128.2 -8.531L128.2 0L125.9 0ZM150.7 0M152.5 0L152.5 -12.73L154.8 -12.73L154.8 -10.34Q155.9 -11.97 156.6 -12.48Q157.4 -13.02 158.5 -13.02Q161.1 -13.02 162 -10.34Q163 -11.97 163.8 -12.48Q164.5 -13.02 165.6 -13.02Q169.1 -13.02 169.1 -9.266L169.1 0L166.8 0L166.8 -8.891Q166.8 -11.09 165 -11.09Q163.5 -11.09 162 -8.531L162 0L159.6 0L159.6 -8.891Q159.6 -11.09 157.9 -11.09Q156.4 -11.09 154.8 -8.531L154.8 0L152.5 0ZM170.7 0M177.3 0.2969Q174.8 0.2969 173.3 -1.516Q171.8 -3.312 171.8 -6.359Q171.8 -9.453 173.3 -11.23Q174.8 -13.02 177.4 -13.02Q180 -13.02 181.5 -11.23Q183.1 -9.453 183.1 -6.391Q183.1 -3.25 181.5 -1.484Q180 0.2969 177.3 0.2969M177.4 -1.438Q180.6 -1.438 180.6 -6.422Q180.6 -11.28 177.4 -11.28Q174.2 -11.28 174.2 -6.359Q174.2 -1.438 177.4 -1.438ZM184.1 0M188.8 0L184.3 -12.73L186.6 -12.73L190.2 -2.828L193.9 -12.73L195.9 -12.73L191.1 0L188.8 0ZM196.1 0M197.9 0L197.9 -12.73L200.2 -12.73L200.2 0L197.9 0M197.8 -15.03L197.8 -17.58L200.3 -17.58L200.3 -15.03L197.8 -15.03ZM202 0M203.8 0L203.8 -12.73L206.1 -12.73L206.1 -10.34Q208 -13.02 210.4 -13.02Q213.7 -13.02 213.7 -9.141L213.7 0L211.4 0L211.4 -8.391Q211.4 -9.922 211 -10.48Q210.7 -11.03 209.8 -11.03Q207.9 -11.03 206.1 -8.234L206.1 0L203.8 0ZM215.3 0M224.7 -5.062L224.7 -10.98Q223.1 -11.28 222.3 -11.28Q218.9 -11.28 218.9 -6.734Q218.9 -4.703 219.6 -3.5Q220.2 -2.312 221.4 -2.312Q222.9 -2.312 224.7 -5.062M224.7 -2.969Q223.3 -0.2969 220.9 -0.2969Q218.9 -0.2969 217.7 -2Q216.4 -3.703 216.4 -6.453Q216.4 -9.578 218 -11.28Q219.6 -13.02 222.4 -13.02Q223.5 -13.02 224.7 -12.73L227 -12.73L227 -3.469Q227 -0.4688 226.6 0.9688Q226.3 2.391 225.5 3.312Q224 4.922 220.8 4.922Q218.6 4.922 216.5 4.234L216.5 2.234Q219 3.172 220.8 3.172Q224.7 3.172 224.7 -0.9688L224.7 -2.969ZM235.4 0M236.6 0L236.6 -2.031Q237.4 -3.891 239.3 -5.891L240.5 -7.172L241.7 -8.344Q243.9 -10.67 243.9 -12.88Q243.9 -16.06 241.1 -16.06Q239.4 -16.06 237 -14.66L237 -16.69Q239.3 -17.78 241.4 -17.78Q243.7 -17.78 245 -16.45Q246.4 -15.14 246.4 -12.91Q246.4 -11.38 245.7 -10.2Q245 -9.031 243.1 -7.266L242.3 -6.547Q239.8 -4.328 239.3 -2.031L246.3 -2.031L246.3 0L236.6 0ZM248.7 0M254.8 0L254.8 -15.5L248.9 -15.5L248.9 -17.34L263.1 -17.34L263.1 -15.5L257.3 -15.5L257.3 0L254.8 0ZM263.4 0M265.3 0L265.3 -17.34L270.8 -17.34Q274.3 -17.34 275.7 -16.45Q277.1 -15.58 277.1 -13.42Q277.1 -10.25 273.3 -9.031Q277.8 -7.797 277.8 -4.344Q277.8 -2.672 276.8 -1.531Q276.1 -0.625 275 -0.3125Q273.9 0 271.5 0L265.3 0M267.8 -1.844L269.6 -1.844Q273 -1.844 274.1 -2.344Q275.2 -2.859 275.2 -4.5Q275.2 -6.281 273.8 -7.219Q272.4 -8.172 269.8 -8.172L267.8 -8.172L267.8 -1.844M267.8 -9.734L269.9 -9.734Q274.6 -9.734 274.6 -13.02Q274.6 -14.47 273.6 -14.98Q272.7 -15.5 270 -15.5L267.8 -15.5L267.8 -9.734ZM286 0M292.6 0.2969Q290.1 0.2969 288.6 -1.516Q287.1 -3.312 287.1 -6.359Q287.1 -9.453 288.6 -11.23Q290.1 -13.02 292.7 -13.02Q295.3 -13.02 296.9 -11.23Q298.4 -9.453 298.4 -6.391Q298.4 -3.25 296.9 -1.484Q295.3 0.2969 292.6 0.2969M292.7 -1.438Q295.9 -1.438 295.9 -6.422Q295.9 -11.28 292.7 -11.28Q289.5 -11.28 289.5 -6.359Q289.5 -1.438 292.7 -1.438ZM299.4 0M301.4 0L301.4 -11L299.8 -11L299.8 -12.73L301.4 -12.73L301.4 -14.25Q301.4 -18.8 305.1 -18.8Q305.8 -18.8 306.8 -18.5L306.8 -16.66Q305.9 -17.06 305.3 -17.06Q304.4 -17.06 304.1 -16.48Q303.8 -15.92 303.8 -14.5L303.8 -12.73L306.4 -12.73L306.4 -11L303.8 -11L303.8 0L301.4 0ZM312.7 0M322 -4.484L322 -10.98Q320.4 -11.28 319.6 -11.28Q316.2 -11.28 316.2 -6.203Q316.2 -4.141 316.9 -2.938Q317.5 -1.734 318.7 -1.734Q320.2 -1.734 322 -4.484M322 -2.375Q320.6 0.2969 318.2 0.2969Q316.2 0.2969 315 -1.438Q313.8 -3.172 313.8 -6Q313.8 -9.359 315.3 -11.19Q316.9 -13.02 319.8 -13.02Q320.9 -13.02 322 -12.73L322 -18.5L324.3 -18.5L324.3 0L322 0L322 -2.375ZM326.1 0M335.2 -1.625Q333.1 0.2969 331 0.2969Q329.3 0.2969 328.2 -0.6875Q327.2 -1.656 327.2 -3.219Q327.2 -7.531 334.3 -7.531L334.8 -7.531L334.8 -9.062Q334.8 -11.28 332.4 -11.28Q330.4 -11.28 328.3 -10.16L328.3 -12.06Q330.6 -13.02 332.8 -13.02Q335.1 -13.02 336.1 -12.06Q337.1 -11.12 337.1 -9.062L337.1 -3.297Q337.1 -1.312 338.3 -1.312Q338.5 -1.312 338.8 -1.359L339 -0.07812Q338.2 0.2969 337.2 0.2969Q335.6 0.2969 335.2 -1.625M334.8 -2.875L334.8 -6.172L334 -6.188Q329.6 -6.188 329.6 -3.609Q329.6 -1.594 331.7 -1.594Q333.2 -1.594 334.8 -2.875ZM339.4 0M345.6 0.07812Q345 0.2969 344.3 0.2969Q341.2 0.2969 341.2 -3.516L341.2 -11L339.7 -11L339.7 -12.73L341.2 -12.73L341.2 -15.39L343.5 -15.61L343.5 -12.73L346.3 -12.73L346.3 -11L343.5 -11L343.5 -3.938Q343.5 -2.422 343.8 -1.922Q344 -1.438 344.8 -1.438Q345.3 -1.438 345.6 -1.578L345.6 0.07812ZM346.2 0M355.3 -1.625Q353.2 0.2969 351.1 0.2969Q349.4 0.2969 348.4 -0.6875Q347.3 -1.656 347.3 -3.219Q347.3 -7.531 354.4 -7.531L354.9 -7.531L354.9 -9.062Q354.9 -11.28 352.5 -11.28Q350.5 -11.28 348.4 -10.16L348.4 -12.06Q350.8 -13.02 352.9 -13.02Q355.2 -13.02 356.2 -12.06Q357.3 -11.12 357.3 -9.062L357.3 -3.297Q357.3 -1.312 358.5 -1.312Q358.6 -1.312 358.9 -1.359L359.1 -0.07812Q358.3 0.2969 357.3 0.2969Q355.7 0.2969 355.3 -1.625M354.9 -2.875L354.9 -6.172L354.2 -6.188Q349.7 -6.188 349.7 -3.609Q349.7 -1.594 351.9 -1.594Q353.4 -1.594 354.9 -2.875ZM366.2 0M369.4 0L366.3 -12.73L368.6 -12.73L370.9 -3.141L373.8 -12.73L376.1 -12.73L378.7 -3.109L381.4 -12.73L383.4 -12.73L379.8 0L377.5 0L374.8 -9.859L371.7 0L369.4 0ZM383.5 0M385.4 0L385.4 -12.73L387.7 -12.73L387.7 0L385.4 0M385.2 -15.03L385.2 -17.58L387.8 -17.58L387.8 -15.03L385.2 -15.03ZM389.5 0M395.7 0.07812Q395 0.2969 394.4 0.2969Q391.2 0.2969 391.2 -3.516L391.2 -11L389.8 -11L389.8 -12.73L391.2 -12.73L391.2 -15.39L393.6 -15.61L393.6 -12.73L396.4 -12.73L396.4 -11L393.6 -11L393.6 -3.938Q393.6 -2.422 393.8 -1.922Q394.1 -1.438 394.9 -1.438Q395.4 -1.438 395.7 -1.578L395.7 0.07812ZM396.2 0M398.1 0L398.1 -18.5L400.4 -18.5L400.4 -10.34Q402.2 -13.02 404.7 -13.02Q407.9 -13.02 407.9 -9.141L407.9 0L405.6 0L405.6 -8.391Q405.6 -9.922 405.3 -10.48Q405 -11.03 404.1 -11.03Q402.1 -11.03 400.4 -8.234L400.4 0L398.1 0ZM416.3 0M417.1 0L417.1 -1.734L424.4 -11L417.5 -11L417.5 -12.73L427.3 -12.73L427.3 -11L420 -1.734L427.4 -1.734L427.4 0L417.1 0ZM428.3 0M437.9 -7.734Q437.9 -11.28 435 -11.28Q432 -11.28 431.7 -7.734L437.9 -7.734M440.1 -2.234L440.1 -0.4062Q437.9 0.2969 435.7 0.2969Q432.8 0.2969 431 -1.562Q429.3 -3.406 429.3 -6.516Q429.3 -9.5 430.8 -11.25Q432.4 -13.02 435 -13.02Q440.2 -13.02 440.2 -6.719L440.2 -6L431.7 -6Q432 -1.469 436.3 -1.469Q438.1 -1.469 440.1 -2.234ZM441.6 0M443.4 0L443.4 -12.73L445.7 -12.73L445.7 -10.34Q446.8 -13.02 448.8 -13.02Q449 -13.02 449.4 -12.95L449.4 -10.8Q448.8 -11 448.5 -11Q447.1 -11 445.7 -8.391L445.7 0L443.4 0ZM449.6 0M456.2 0.2969Q453.6 0.2969 452.1 -1.516Q450.6 -3.312 450.6 -6.359Q450.6 -9.453 452.1 -11.23Q453.7 -13.02 456.3 -13.02Q458.9 -13.02 460.4 -11.23Q461.9 -9.453 461.9 -6.391Q461.9 -3.25 460.4 -1.484Q458.9 0.2969 456.2 0.2969M456.2 -1.438Q459.4 -1.438 459.4 -6.422Q459.4 -11.28 456.3 -11.28Q453.1 -11.28 453.1 -6.359Q453.1 -1.438 456.2 -1.438ZM469.6 0M478.8 -4.484L478.8 -10.98Q477.2 -11.28 476.5 -11.28Q473.1 -11.28 473.1 -6.203Q473.1 -4.141 473.8 -2.938Q474.4 -1.734 475.6 -1.734Q477.1 -1.734 478.8 -4.484M478.8 -2.375Q477.5 0.2969 475 0.2969Q473.1 0.2969 471.8 -1.438Q470.6 -3.172 470.6 -6Q470.6 -9.359 472.2 -11.19Q473.8 -13.02 476.6 -13.02Q477.8 -13.02 478.8 -12.73L478.8 -18.5L481.2 -18.5L481.2 0L478.8 0L478.8 -2.375ZM483 0M489.6 0.2969Q487 0.2969 485.5 -1.516Q484 -3.312 484 -6.359Q484 -9.453 485.5 -11.23Q487 -13.02 489.6 -13.02Q492.2 -13.02 493.8 -11.23Q495.3 -9.453 495.3 -6.391Q495.3 -3.25 493.8 -1.484Q492.2 0.2969 489.6 0.2969M489.6 -1.438Q492.8 -1.438 492.8 -6.422Q492.8 -11.28 489.6 -11.28Q486.5 -11.28 486.5 -6.359Q486.5 -1.438 489.6 -1.438ZM496.3 0M499.5 0L496.4 -12.73L498.7 -12.73L501 -3.141L503.9 -12.73L506.2 -12.73L508.8 -3.109L511.5 -12.73L513.5 -12.73L509.9 0L507.6 0L504.9 -9.859L501.8 0L499.5 0ZM513.6 0M515.5 0L515.5 -12.73L517.7 -12.73L517.7 -10.34Q519.6 -13.02 522.1 -13.02Q525.3 -13.02 525.3 -9.141L525.3 0L523 0L523 -8.391Q523 -9.922 522.7 -10.48Q522.4 -11.03 521.5 -11.03Q519.5 -11.03 517.7 -8.234L517.7 0L515.5 0ZM527 0M533.2 0.07812Q532.5 0.2969 531.9 0.2969Q528.8 0.2969 528.8 -3.516L528.8 -11L527.3 -11L527.3 -12.73L528.8 -12.73L528.8 -15.39L531.1 -15.61L531.1 -12.73L533.9 -12.73L533.9 -11L531.1 -11L531.1 -3.938Q531.1 -2.422 531.3 -1.922Q531.6 -1.438 532.4 -1.438Q532.9 -1.438 533.2 -1.578L533.2 0.07812ZM533.8 0M535.6 0L535.6 -12.73L537.9 -12.73L537.9 0L535.6 0M535.5 -15.03L535.5 -17.58L538 -17.58L538 -15.03L535.5 -15.03ZM539.7 0M541.5 0L541.5 -12.73L543.8 -12.73L543.8 -10.34Q544.9 -11.97 545.6 -12.48Q546.3 -13.02 547.5 -13.02Q550 -13.02 550.9 -10.34Q552 -11.97 552.7 -12.48Q553.4 -13.02 554.6 -13.02Q558 -13.02 558 -9.266L558 0L555.7 0L555.7 -8.891Q555.7 -11.09 554 -11.09Q552.5 -11.09 550.9 -8.531L550.9 0L548.6 0L548.6 -8.891Q548.6 -11.09 546.8 -11.09Q545.3 -11.09 543.8 -8.531L543.8 0L541.5 0ZM559.7 0M569.3 -7.734Q569.3 -11.28 566.4 -11.28Q563.4 -11.28 563.2 -7.734L569.3 -7.734M571.6 -2.234L571.6 -0.4062Q569.3 0.2969 567.1 0.2969Q564.2 0.2969 562.4 -1.562Q560.7 -3.406 560.7 -6.516Q560.7 -9.5 562.2 -11.25Q563.8 -13.02 566.4 -13.02Q571.6 -13.02 571.6 -6.719L571.6 -6L563.1 -6Q563.5 -1.469 567.7 -1.469Q569.5 -1.469 571.6 -2.234Z" fill="#94a3b8" transform="translate(64,362)"/><rect x="64" y="518" width="48" height="48" fill="#e11d48"/><path d="M0.7969 -0.1094L0.7969 -2.078Q3.016 -1.297 4.891 -1.297Q7.547 -1.297 7.547 -2.844Q7.547 -3.844 6.531 -4.266L5.469 -4.672L4.188 -5.156Q2.156 -5.938 1.469 -6.641Q0.7812 -7.344 0.7812 -8.641Q0.7812 -11.86 5.5 -11.86Q7.484 -11.86 9.266 -11.45L9.266 -9.625Q7.406 -10.27 5.672 -10.27Q4.25 -10.27 3.703 -9.969Q3.156 -9.672 3.156 -8.906Q3.156 -8.422 3.422 -8.156Q3.688 -7.875 4.453 -7.594L5.344 -7.25L6.672 -6.766Q8.594 -6.047 9.328 -5.281Q10.08 -4.516 10.08 -3.219Q10.08 -1.406 8.719 -0.5469Q7.375 0.2969 4.484 0.2969Q3.391 0.2969 2.031 0.09375L0.7969 -0.1094ZM10.67 0M19.08 -1.328L19.14 -0.03125Q18.41 0.2031 17.84 0.2031Q16.42 0.2031 16.02 -0.9219L15.91 -0.9219Q15.08 0.2031 13.75 0.2031Q12.61 0.2031 11.91 -0.5Q11.22 -1.188 11.22 -2.312Q11.22 -5.234 15.3 -5.234L15.91 -5.234L15.91 -6.016Q15.91 -7.359 14.56 -7.359Q13.36 -7.359 11.97 -6.594L11.97 -8.188Q13.39 -8.781 14.94 -8.781Q18.12 -8.781 18.12 -6.094L18.12 -2.297Q18.12 -1.297 18.77 -1.297Q18.89 -1.297 19.08 -1.328M15.91 -2.172L15.91 -3.906L15.36 -3.906Q13.44 -3.906 13.44 -2.516Q13.44 -2.031 13.75 -1.703Q14.08 -1.375 14.58 -1.375Q15.37 -1.375 15.91 -2.172ZM19.58 0M20.94 0L20.94 -8.578L23.25 -8.578L23.25 -7.156Q23.89 -8.781 25.17 -8.781Q25.34 -8.781 25.56 -8.734L25.56 -6.672Q25.13 -6.844 24.83 -6.844Q23.89 -6.844 23.25 -5.641L23.25 0L20.94 0ZM25.81 0M34.22 -1.328L34.28 -0.03125Q33.55 0.2031 32.98 0.2031Q31.56 0.2031 31.16 -0.9219L31.05 -0.9219Q30.22 0.2031 28.89 0.2031Q27.75 0.2031 27.05 -0.5Q26.36 -1.188 26.36 -2.312Q26.36 -5.234 30.44 -5.234L31.05 -5.234L31.05 -6.016Q31.05 -7.359 29.7 -7.359Q28.5 -7.359 27.11 -6.594L27.11 -8.188Q28.53 -8.781 30.08 -8.781Q33.27 -8.781 33.27 -6.094L33.27 -2.297Q33.27 -1.297 33.91 -1.297Q34.03 -1.297 34.22 -1.328M31.05 -2.172L31.05 -3.906L30.5 -3.906Q28.58 -3.906 28.58 -2.516Q28.58 -2.031 28.89 -1.703Q29.22 -1.375 29.72 -1.375Q30.52 -1.375 31.05 -2.172ZM34.72 0M35.87 0L35.87 -12.34L38.19 -12.34L38.19 -7.156Q39.52 -8.781 41.11 -8.781Q43.44 -8.781 43.44 -6.062L43.44 0L41.12 0L41.12 -5.5Q41.12 -6.328 40.92 -6.641Q40.73 -6.953 40.2 -6.953Q39.27 -6.953 38.19 -5.594L38.19 0L35.87 0ZM48.95 0M59.93 -2.234L59.93 -0.4688Q58.27 0.2969 55.77 0.2969Q52.78 0.2969 51.19 -1.281Q49.58 -2.859 49.58 -5.781Q49.58 -8.766 51.2 -10.31Q52.81 -11.86 55.94 -11.86Q57.95 -11.86 59.84 -11.41L59.84 -9.531Q57.7 -10.27 56.14 -10.27Q52.14 -10.27 52.14 -5.812Q52.14 -1.375 56.38 -1.375Q58.2 -1.375 59.93 -2.234ZM60.52 0M61.67 0L61.67 -12.34L63.98 -12.34L63.98 -7.156Q65.31 -8.781 66.91 -8.781Q69.23 -8.781 69.23 -6.062L69.23 0L66.92 0L66.92 -5.5Q66.92 -6.328 66.72 -6.641Q66.53 -6.953 66 -6.953Q65.06 -6.953 63.98 -5.594L63.98 0L61.67 0ZM70.3 0M78.36 -1.922L78.36 -0.2969Q76.92 0.2031 75.48 0.2031Q73.34 0.2031 72.11 -1.031Q70.87 -2.266 70.87 -4.406Q70.87 -6.391 71.95 -7.578Q73.03 -8.781 74.81 -8.781Q76.66 -8.781 77.5 -7.594Q78.36 -6.406 78.36 -3.828L73.31 -3.828Q73.56 -1.375 75.89 -1.375Q76.98 -1.375 78.36 -1.922M73.3 -5.141L76.08 -5.141Q76.08 -7.328 74.84 -7.328Q73.53 -7.328 73.3 -5.141ZM79.2 0M80.36 0L80.36 -8.578L82.67 -8.578L82.67 -7.156Q84 -8.781 85.59 -8.781Q87.92 -8.781 87.92 -6.062L87.92 0L85.61 0L85.61 -5.5Q85.61 -6.328 85.41 -6.641Q85.22 -6.953 84.69 -6.953Q83.75 -6.953 82.67 -5.594L82.67 0L80.36 0Z" fill="#ffffff" transform="translate(128,539.1)"/><path d="M1.125 0L1.125 -10.12L3.125 -10.12L5.906 -2.297L8.75 -10.12L10.53 -10.12L10.53 0L9.188 0L9.188 -8.219L6.438 -0.6719L5.047 -0.6719L2.359 -8.25L2.359 0L1.125 0ZM11.66 0M16.95 -0.9375Q15.73 0.1719 14.5 0.1719Q13.52 0.1719 12.92 -0.3906Q12.31 -0.9688 12.31 -1.875Q12.31 -4.391 16.44 -4.391L16.75 -4.391L16.75 -5.281Q16.75 -6.578 15.33 -6.578Q14.17 -6.578 12.95 -5.922L12.95 -7.031Q14.31 -7.594 15.56 -7.594Q16.89 -7.594 17.5 -7.031Q18.09 -6.484 18.09 -5.281L18.09 -1.922Q18.09 -0.7656 18.81 -0.7656Q18.89 -0.7656 19.06 -0.7969L19.16 -0.04688Q18.7 0.1719 18.14 0.1719Q17.2 0.1719 16.95 -0.9375M16.75 -1.672L16.75 -3.594L16.31 -3.609Q13.7 -3.609 13.7 -2.109Q13.7 -0.9375 14.95 -0.9375Q15.83 -0.9375 16.75 -1.672ZM19.44 0M20.63 0L20.63 -7.5L22.64 -7.5L22.64 -6.266Q23.22 -7.672 24.33 -7.672Q24.48 -7.672 24.67 -7.641L24.67 -5.828Q24.28 -5.984 24.03 -5.984Q23.22 -5.984 22.64 -4.938L22.64 0L20.63 0ZM24.89 0M31.22 -0.2188Q30.05 0.1719 28.84 0.1719Q27.36 0.1719 26.42 -0.9062Q25.48 -1.984 25.48 -3.703Q25.48 -5.531 26.42 -6.562Q27.39 -7.594 29.08 -7.594Q29.98 -7.594 31.14 -7.344L31.14 -6.219Q30.05 -6.562 29.36 -6.562Q26.97 -6.562 26.97 -3.703Q26.97 -2.375 27.58 -1.641Q28.2 -0.9219 29.3 -0.9219Q30.14 -0.9219 31.22 -1.391L31.22 -0.2188ZM31.89 0M32.94 0L32.94 -10.8L34.3 -10.8L34.3 -6.031Q35.36 -7.594 36.8 -7.594Q38.7 -7.594 38.7 -5.328L38.7 0L37.36 0L37.36 -4.891Q37.36 -5.797 37.16 -6.109Q36.98 -6.438 36.45 -6.438Q35.31 -6.438 34.3 -4.812L34.3 0L32.94 0ZM43.56 0M45 0L45 -1.016L47.16 -1.016L47.16 -9L45 -8.453L45 -9.5L48.52 -10.38L48.52 -1.016L50.67 -1.016L50.67 0L45 0ZM51.34 0M52.45 0.04688L52.45 -1.156Q53.47 -0.7656 54.37 -0.7656Q54.94 -0.7656 55.34 -0.9219Q55.75 -1.094 56 -1.391Q56.27 -1.688 56.39 -2.094Q56.52 -2.5 56.52 -2.969Q56.52 -3.453 56.36 -3.844Q56.22 -4.234 55.89 -4.516Q55.56 -4.781 55.05 -4.922Q54.53 -5.078 53.8 -5.078L52.62 -5.078L52.62 -10.12L57.75 -10.12L57.75 -8.938L53.81 -8.938L53.81 -6.109L54.25 -6.109Q55.14 -6.109 55.83 -5.906Q56.52 -5.688 56.98 -5.297Q57.45 -4.906 57.7 -4.312Q57.95 -3.734 57.95 -2.969Q57.95 -2.109 57.64 -1.484Q57.34 -0.875 56.81 -0.5Q56.31 -0.1094 55.62 0.07812Q54.95 0.25 54.19 0.25Q53.81 0.25 53.37 0.2031Q52.95 0.1562 52.45 0.04688ZM59.12 0M60.5 2.391L60.5 1.891Q61.16 1.703 61.16 0.1406L61.16 0L60.5 0L60.5 -1.688L62.19 -1.688L62.19 -0.2188Q62.19 2.391 60.5 2.391ZM67.45 0M68.16 0L68.16 -1.188Q68.61 -2.266 69.72 -3.438L70.47 -4.188L71.13 -4.875Q72.45 -6.219 72.45 -7.516Q72.45 -9.359 70.8 -9.359Q69.83 -9.359 68.41 -8.547L68.41 -9.734Q69.75 -10.38 71 -10.38Q72.31 -10.38 73.09 -9.594Q73.89 -8.828 73.89 -7.531Q73.89 -6.641 73.48 -5.953Q73.08 -5.266 71.95 -4.234L71.48 -3.812Q70.06 -2.516 69.78 -1.188L73.83 -1.188L73.83 0L68.16 0ZM75.23 0M79.13 0.25Q75.78 0.25 75.78 -5.062Q75.78 -10.38 79.13 -10.38Q82.42 -10.38 82.47 -5.062Q82.47 0.25 79.13 0.25M77.42 -2.703Q77.83 -0.7656 79.13 -0.7656Q81.08 -0.7656 81.08 -5.031Q81.08 -5.438 81.05 -5.812Q81.03 -6.203 80.98 -6.562L77.42 -2.703M80.84 -7.422Q80.42 -9.359 79.13 -9.359Q77.19 -9.359 77.19 -5.062Q77.19 -4.656 77.2 -4.281Q77.22 -3.906 77.27 -3.562L80.84 -7.422ZM83.02 0M83.72 0L83.72 -1.188Q84.17 -2.266 85.28 -3.438L86.03 -4.188L86.69 -4.875Q88.02 -6.219 88.02 -7.516Q88.02 -9.359 86.36 -9.359Q85.39 -9.359 83.97 -8.547L83.97 -9.734Q85.31 -10.38 86.56 -10.38Q87.87 -10.38 88.66 -9.594Q89.45 -8.828 89.45 -7.531Q89.45 -6.641 89.05 -5.953Q88.64 -5.266 87.52 -4.234L87.05 -3.812Q85.62 -2.516 85.34 -1.188L89.39 -1.188L89.39 0L83.72 0ZM90.8 0M92.83 -5.312Q93.73 -6.5 95.12 -6.5Q96.37 -6.5 97.09 -5.641Q97.81 -4.812 97.81 -3.328Q97.81 -1.609 97 -0.6719Q96.2 0.25 94.69 0.25Q93.14 0.25 92.25 -1.078Q91.37 -2.406 91.37 -4.719Q91.37 -7.391 92.44 -8.875Q93.48 -10.38 95.37 -10.38Q96.27 -10.38 97.27 -10L97.27 -8.812Q96.06 -9.359 95.37 -9.359Q92.83 -9.359 92.83 -5.312M96.48 -3.016Q96.48 -5.531 94.8 -5.531Q93.92 -5.531 93.41 -4.938Q92.87 -4.344 92.87 -3.359Q92.87 -2.219 93.42 -1.484Q93.97 -0.7656 94.8 -0.7656Q96.48 -0.7656 96.48 -3.016Z" fill="#64748b" transform="translate(128,556.4)"/></svg>