<svg xmlns="http://www.w3.org/2000/svg" width="1200" height="630" viewBox="0 0 1200 630"><defs><linearGradient id="lg1" x1="11.875%" y1="-22.619%" x2="88.125%" y2="122.619%" color-interpolation="linearRGB"><stop offset="0%" stop-color="rgba(12,10,26,1)"/><stop offset="40%" stop-color="rgba(26,5,51,1)"/><stop offset="100%" stop-color="rgba(45,10,78,1)"/></linearGradient></defs><rect x="0" y="0" width="1200" height="630" fill="url(#lg1)"/><image href="data:image/svg+xml,%3Csvg xmlns=&apos;http://www.w3.org/2000/svg&apos; viewBox=&apos;0 0 24 24&apos;%3E%3Cpath fill=&apos;%23c084fc&apos; d=&apos;M12 2C8.13 2 5 5.13 5 9c0 5.25 7 13 7 13s7-7.75 7-13c0-3.87-3.13-7-7-7zm0 9.5a2.5 2.5 0 1 1 0-5 2.5 2.5 0 0 1 0 5z&apos;/%3E%3C/svg%3E" x="64" y="64" width="18" height="18" preserveAspectRatio="none"/><path d="M0 1.594L0 0.2031Q1.188 0.5469 2.25 0.5469Q3.219 0.5469 3.578 0.1719Q3.938 -0.1875 3.938 -1.172L3.938 -8.062L2.297 -8.062L2.297 -9.391L5.891 -9.391L5.891 -1.375Q5.891 0.3281 5.047 1.109Q4.203 1.875 2.328 1.875Q1.219 1.875 0 1.594ZM7.234 0M8.25 -9.391L10.2 -9.391L10.2 -3.641Q10.2 -2.281 10.66 -1.672Q11.09 -1.062 12.09 -1.062Q13.91 -1.062 13.91 -3.484L13.91 -9.391L15.59 -9.391L15.59 -3.625Q15.59 -2.328 15.36 -1.641Q15.11 -0.9531 14.45 -0.4531Q13.56 0.2344 12.05 0.2344Q10.45 0.2344 9.468 -0.5Q8.796 -1.016 8.515 -1.703Q8.25 -2.406 8.25 -3.641L8.25 -9.391ZM16.62 0M17.72 0L17.72 -9.391L19.44 -9.391L23.34 -2.984L23.34 -9.391L24.92 -9.391L24.92 0L23.17 0L19.3 -6.422L19.3 0L17.72 0ZM26.02 0M27.11 0L27.11 -9.391L34 -9.391L34 -8.109L29.06 -8.109L29.06 -5.484L33.3 -5.484L33.3 -4.234L29.06 -4.234L29.06 -1.328L34.31 -1.328L34.31 0L27.11 0ZM38.3 0M39.45 0L39.45 -1.094L41.33 -1.094L41.33 -8.031L39.45 -7.562L39.45 -8.688L43.2 -9.625L43.2 -1.094L45.09 -1.094L45.09 0L39.45 0ZM45.53 0M46.02 0L46.02 -1.484Q46.53 -2.391 47.28 -3.156L47.94 -3.828L48.69 -4.594Q49.47 -5.391 49.7 -5.828Q49.94 -6.281 49.94 -6.953Q49.94 -8.422 48.55 -8.422Q47.64 -8.422 46.27 -7.719L46.27 -9.094Q47.7 -9.625 48.86 -9.625Q50.3 -9.625 51.13 -8.922Q51.94 -8.219 51.94 -6.969Q51.94 -6.156 51.55 -5.516Q51.16 -4.859 50.13 -3.984L49.5 -3.453Q48.28 -2.422 48.14 -1.484L51.91 -1.484L51.91 0L46.02 0ZM52.77 0M53.33 -3.406L53.33 -4.484L59.44 -4.484L59.44 -3.406L53.33 -3.406ZM60 0M61.16 0L61.16 -1.094L63.03 -1.094L63.03 -8.031L61.16 -7.562L61.16 -8.688L64.91 -9.625L64.91 -1.094L66.8 -1.094L66.8 0L61.16 0ZM67.23 0M67.44 -2.5L67.44 -3.922L71.44 -9.391L73.16 -9.391L73.16 -3.922L74.02 -3.922L74.02 -2.5L73.16 -2.5L73.16 0L71.5 0L71.5 -2.5L67.44 -2.5M68.94 -3.922L71.55 -3.922L71.55 -7.594L68.94 -3.922ZM74.47 0M76.03 0L75.25 0L75.25 -2.031L77.3 -2.031L77.3 -0.4531Q77.3 2.219 75.25 2.219L75.25 1.516Q76.03 1.516 76.03 0.2031L76.03 0ZM81.69 0M82.17 0L82.17 -1.484Q82.69 -2.391 83.44 -3.156L84.09 -3.828L84.84 -4.594Q85.63 -5.391 85.86 -5.828Q86.09 -6.281 86.09 -6.953Q86.09 -8.422 84.7 -8.422Q83.8 -8.422 82.42 -7.719L82.42 -9.094Q83.86 -9.625 85.02 -9.625Q86.45 -9.625 87.28 -8.922Q88.09 -8.219 88.09 -6.969Q88.09 -6.156 87.7 -5.516Q87.31 -4.859 86.28 -3.984L85.66 -3.453Q84.44 -2.422 84.3 -1.484L88.06 -1.484L88.06 0L82.17 0ZM88.92 0M92.55 0.2344Q91.12 0.2344 90.28 -1.125Q89.44 -2.484 89.44 -4.703Q89.44 -6.938 90.28 -8.281Q91.12 -9.625 92.55 -9.625Q93.94 -9.625 94.8 -8.281Q95.66 -6.938 95.66 -4.703Q95.66 -2.453 94.8 -1.109Q93.95 0.2344 92.55 0.2344M92.55 -0.9375Q93.87 -0.9375 93.87 -4.703Q93.87 -5.219 93.84 -5.656L91.31 -2.906Q91.58 -0.9375 92.55 -0.9375M92.55 -8.453Q91.2 -8.453 91.2 -4.703Q91.2 -4.203 91.22 -3.766L93.77 -6.5Q93.5 -8.453 92.55 -8.453ZM96.16 0M96.64 0L96.64 -1.484Q97.16 -2.391 97.91 -3.156L98.56 -3.828L99.31 -4.594Q100.1 -5.391 100.3 -5.828Q100.6 -6.281 100.6 -6.953Q100.6 -8.422 99.17 -8.422Q98.27 -8.422 96.89 -7.719L96.89 -9.094Q98.33 -9.625 99.48 -9.625Q100.9 -9.625 101.8 -8.922Q102.6 -8.219 102.6 -6.969Q102.6 -6.156 102.2 -5.516Q101.8 -4.859 100.8 -3.984L100.1 -3.453Q98.91 -2.422 98.77 -1.484L102.5 -1.484L102.5 0L96.64 0ZM103.4 0M109.7 -9.344L109.7 -7.969Q108.5 -8.469 107.9 -8.469Q106.8 -8.469 106.3 -7.625Q105.7 -6.781 105.7 -5.281L105.7 -5.125Q106.5 -6.047 107.5 -6.047Q108.7 -6.047 109.4 -5.266Q110.1 -4.469 110.1 -3.141Q110.1 -1.516 109.3 -0.6406Q108.6 0.2344 107.1 0.2344Q105.5 0.2344 104.6 -0.9844Q103.7 -2.219 103.7 -4.406Q103.7 -6.812 104.8 -8.219Q105.9 -9.625 107.7 -9.625Q108.5 -9.625 109.7 -9.344M108.4 -2.922Q108.4 -4.891 107.2 -4.891Q106.5 -4.891 106.2 -4.359Q105.8 -3.828 105.8 -2.953Q105.8 -2.016 106.2 -1.484Q106.5 -0.9375 107.2 -0.9375Q108.4 -0.9375 108.4 -2.922ZM114.2 0M115 -4.938L115 -6.969L117 -6.969L117 -4.938L115 -4.938ZM121.5 0M122.5 0L122.5 -9.391L127.1 -9.391Q130 -9.391 130 -7.312Q130 -5.609 127.7 -4.906Q130.4 -4.266 130.4 -2.328Q130.4 -1.203 129.6 -0.5938Q128.8 0 127.4 0L122.5 0M124.4 -5.484L126.2 -5.484Q127 -5.484 127.5 -5.891Q128 -6.297 128 -7Q128 -7.641 127.6 -7.875Q127.2 -8.109 126.1 -8.109L124.4 -8.109L124.4 -5.484M124.4 -1.328L126.2 -1.328Q127.4 -1.328 127.9 -1.594Q128.3 -1.859 128.3 -2.547Q128.3 -3.281 127.7 -3.75Q127.1 -4.234 126.1 -4.234L124.4 -4.234L124.4 -1.328ZM130.8 0M131.9 0L131.9 -9.391L138.8 -9.391L138.8 -8.109L133.9 -8.109L133.9 -5.484L138.1 -5.484L138.1 -4.234L133.9 -4.234L133.9 -1.328L139.1 -1.328L139.1 0L131.9 0ZM139.5 0M140.6 0L140.6 -9.391L144.7 -9.391Q147.6 -9.391 147.6 -7.062Q147.6 -5.203 145.7 -4.391L148.8 0L146.6 0L144 -3.844L142.5 -3.844L142.5 0L140.6 0M142.5 -5.125L143.5 -5.125Q145.6 -5.125 145.6 -6.844Q145.6 -8.109 143.7 -8.109L142.5 -8.109L142.5 -5.125ZM148.9 0M150 0L150 -9.391L152 -9.391L152 -1.328L156.7 -1.328L156.7 0L150 0ZM156.8 0M157.5 0L157.5 -1.328L158.8 -1.328L158.8 -8.062L157.5 -8.062L157.5 -9.391L162.1 -9.391L162.1 -8.062L160.8 -8.062L160.8 -1.328L162.1 -1.328L162.1 0L157.5 0ZM162.7 0M163.8 0L163.8 -9.391L165.5 -9.391L169.5 -2.984L169.5 -9.391L171 -9.391L171 0L169.3 0L165.4 -6.422L165.4 0L163.8 0Z" fill="#c084fc" transform="translate(92,77.48)"/><path d="M3.594 -0.4531L3.594 -9.312Q13.58 -5.844 21.97 -5.844Q33.92 -5.844 33.92 -12.77Q33.92 -17.27 29.39 -19.2L24.58 -21.03L18.84 -23.2Q9.672 -26.69 6.578 -29.84Q3.484 -33.02 3.484 -38.84Q3.484 -53.33 24.72 -53.33Q33.64 -53.33 41.7 -51.55L41.7 -43.31Q33.33 -46.2 25.48 -46.2Q19.12 -46.2 16.67 -44.86Q14.2 -43.53 14.2 -40.08Q14.2 -37.91 15.41 -36.67Q16.59 -35.44 20 -34.17L24.02 -32.62L29.98 -30.41Q38.67 -27.17 41.98 -23.73Q45.31 -20.28 45.31 -14.45Q45.31 -6.297 39.23 -2.469Q33.19 1.344 20.14 1.344Q15.27 1.344 9.141 0.3906L3.594 -0.4531ZM48.03 0M62.76 0L48.91 -38.61L59.87 -38.61L68.81 -13.64L79.42 -38.61L87.15 -38.61L64.65 13.89L54.05 13.89L62.76 0ZM88.08 0M92.41 -1.266L92.41 -8.859Q100.5 -5.625 106 -5.625Q113.8 -5.625 113.8 -9.844Q113.8 -12.41 107.6 -14.91L104.1 -16.31Q96.91 -19.23 94.72 -21.38Q92.58 -23.52 92.58 -27.81Q92.58 -39.48 108.9 -39.48Q114.4 -39.48 121.4 -38.11L121.4 -30.97Q113.7 -32.98 110.1 -32.98Q102.8 -32.98 102.8 -29.05Q102.8 -26.66 108.5 -24.5L111.5 -23.34Q119.3 -20.42 121.9 -17.94Q124.5 -15.47 124.5 -11.11Q124.5 -5.625 119.7 -2.359Q114.8 0.875 106.7 0.875Q99.5 0.875 92.41 -1.266ZM128.1 0M151.5 -6.547L151.5 -0.03125Q147.5 0.875 144.8 0.875Q133.8 0.875 133.8 -11.78L133.8 -32.09L129.6 -32.09L129.6 -38.61L133.8 -38.61L133.8 -46.16L144.2 -47.36L144.2 -38.61L151.6 -38.61L151.6 -32.09L144.2 -32.09L144.2 -13.16Q144.2 -8.797 145 -7.422Q145.7 -6.078 148 -6.078Q149.4 -6.078 151.5 -6.547ZM152.1 0M188.4 -8.609L188.4 -1.297Q181.9 0.875 175.4 0.875Q165.8 0.875 160.2 -4.641Q154.7 -10.2 154.7 -19.83Q154.7 -28.77 159.5 -34.11Q164.4 -39.48 172.4 -39.48Q180.7 -39.48 184.5 -34.14Q188.4 -28.83 188.4 -17.23L165.7 -17.23Q166.8 -6.188 177.2 -6.188Q182.2 -6.188 188.4 -8.609M165.6 -23.09L178.1 -23.09Q178.1 -32.98 172.5 -32.98Q166.6 -32.98 165.6 -23.09ZM192.2 0M197.4 0L197.4 -38.61L207.8 -38.61L207.8 -32.2Q212.5 -39.48 219.6 -39.48Q227.3 -39.48 229.6 -32.09Q233.9 -39.48 241.5 -39.48Q251.4 -39.48 251.4 -27.28L251.4 0L241 0L241 -24.72Q241 -28.58 240.2 -29.92Q239.5 -31.3 237.4 -31.3Q233 -31.3 229.6 -25.17L229.6 0L219.2 0L219.2 -24.72Q219.2 -28.58 218.5 -29.92Q217.7 -31.3 215.6 -31.3Q211.2 -31.3 207.8 -25.17L207.8 0L197.4 0ZM256.2 0M260.5 -1.266L260.5 -8.859Q268.6 -5.625 274.1 -5.625Q281.9 -5.625 281.9 -9.844Q281.9 -12.41 275.7 -14.91L272.2 -16.31Q265 -19.23 262.8 -21.38Q260.7 -23.52 260.7 -27.81Q260.7 -39.48 277 -39.48Q282.5 -39.48 289.5 -38.11L289.5 -30.97Q281.8 -32.98 278.2 -32.98Q270.9 -32.98 270.9 -29.05Q270.9 -26.66 276.6 -24.5L279.6 -23.34Q287.4 -20.42 290 -17.94Q292.6 -15.47 292.6 -11.11Q292.6 -5.625 287.8 -2.359Q282.9 0.875 274.8 0.875Q267.6 0.875 260.5 -1.266ZM316.2 0M365.7 -10.06L365.7 -2.078Q358.1 1.297 346.8 1.297Q333.4 1.297 326.2 -5.766Q319 -12.88 319 -26.02Q319 -39.45 326.3 -46.38Q333.6 -53.33 347.6 -53.33Q356.7 -53.33 365.2 -51.33L365.2 -42.86Q355.6 -46.2 348.6 -46.2Q330.5 -46.2 330.5 -26.16Q330.5 -6.188 349.6 -6.188Q357.8 -6.188 365.7 -10.06ZM368.2 0M390 0.875Q381.3 0.875 376.1 -4.641Q370.8 -10.2 370.8 -19.3Q370.8 -28.52 376.1 -34Q381.4 -39.48 390.2 -39.48Q399 -39.48 404.3 -34Q409.6 -28.52 409.6 -19.38Q409.6 -10.06 404.3 -4.578Q399 0.875 390 0.875M390.1 -5.625Q394.1 -5.625 396.3 -9.281Q398.6 -12.97 398.6 -19.38Q398.6 -25.59 396.3 -29.28Q394 -32.98 390.2 -32.98Q386.4 -32.98 384.1 -29.28Q381.9 -25.59 381.9 -19.3Q381.9 -13.08 384.1 -9.359Q386.4 -5.625 390.1 -5.625ZM412.2 0M417.4 0L417.4 -38.61L427.8 -38.61L427.8 -32.2Q433.8 -39.48 440.9 -39.48Q451.4 -39.48 451.4 -27.28L451.4 0L441 0L441 -24.72Q441 -28.48 440.1 -29.89Q439.2 -31.3 436.8 -31.3Q432.6 -31.3 427.8 -25.17L427.8 0L417.4 0ZM456.2 0M462 0L462 -32.09L458 -32.09L458 -38.61L462 -38.61L462 -41.38Q462 -56.39 475.7 -56.39Q478.7 -56.39 482.1 -55.48L482.1 -48.73Q479.2 -49.89 476.9 -49.89Q472.4 -49.89 472.4 -41.77L472.4 -38.61L478.9 -38.61L478.9 -32.09L472.4 -32.09L472.4 0L462 0Z" fill="#ffffff" transform="translate(64,174)"/><path d="M1.328 0L1.328 -1.688L3.266 -1.688L3.266 -14.22L1.328 -14.22L1.328 -15.91L7.438 -15.91L7.438 -14.22L5.516 -14.22L5.516 -1.688L7.438 -1.688L7.438 0L1.328 0ZM8.781 0M10.44 0L10.44 -11.67L12.55 -11.67L12.55 -9.469Q14.23 -11.92 16.5 -11.92Q19.48 -11.92 19.48 -8.375L19.48 0L17.36 0L17.36 -7.688Q17.36 -9.094 17.06 -9.609Q16.78 -10.11 15.95 -10.11Q14.16 -10.11 12.55 -7.547L12.55 0L10.44 0ZM21.02 0M22.89 0L22.89 -10.08L21.34 -10.08L21.34 -11.67L22.89 -11.67L22.89 -13.06Q22.89 -17.23 26.23 -17.23Q26.91 -17.23 27.78 -16.95L27.78 -15.27Q27 -15.64 26.44 -15.64Q25.64 -15.64 25.33 -15.11Q25.02 -14.59 25.02 -13.28L25.02 -11.67L27.44 -11.67L27.44 -10.08L25.02 -10.08L25.02 0L22.89 0ZM27.12 0M28.78 0L28.78 -11.67L30.89 -11.67L30.89 -9.469Q31.86 -11.92 33.69 -11.92Q33.94 -11.92 34.3 -11.88L34.3 -9.891Q33.75 -10.08 33.41 -10.08Q32.19 -10.08 30.89 -7.688L30.89 0L28.78 0ZM34.45 0M42.77 -1.484Q40.86 0.2656 38.92 0.2656Q37.39 0.2656 36.44 -0.625Q35.47 -1.516 35.47 -2.938Q35.47 -6.891 41.97 -6.891L42.45 -6.891L42.45 -8.297Q42.45 -10.33 40.23 -10.33Q38.42 -10.33 36.48 -9.297L36.48 -11.05Q38.63 -11.92 40.59 -11.92Q42.69 -11.92 43.63 -11.05Q44.57 -10.19 44.57 -8.297L44.57 -3.016Q44.57 -1.203 45.68 -1.203Q45.83 -1.203 46.09 -1.25L46.25 -0.07812Q45.51 0.2656 44.64 0.2656Q43.17 0.2656 42.77 -1.484M42.45 -2.625L42.45 -5.656L41.77 -5.672Q37.67 -5.672 37.67 -3.312Q37.67 -1.469 39.63 -1.469Q41.02 -1.469 42.45 -2.625ZM46.69 0M47.94 -0.4062L47.94 -2.359Q50.02 -1.328 51.86 -1.328Q54.31 -1.328 54.31 -3.094Q54.31 -4.219 52.61 -4.781L50.72 -5.406Q48 -6.312 48 -8.641Q48 -11.92 52.48 -11.92Q53.77 -11.92 55.55 -11.58L55.55 -9.812Q54 -10.33 52.25 -10.33Q50.09 -10.33 50.09 -8.859Q50.09 -7.844 51.61 -7.344L53.3 -6.797Q56.44 -5.75 56.44 -3.266Q56.44 -1.625 55.2 -0.6719Q53.95 0.2656 51.78 0.2656Q50.03 0.2656 47.94 -0.4062ZM57.69 0M63.38 0.0625Q62.77 0.2656 62.2 0.2656Q59.33 0.2656 59.33 -3.219L59.33 -10.08L57.95 -10.08L57.95 -11.67L59.33 -11.67L59.33 -14.11L61.44 -14.31L61.44 -11.67L64.02 -11.67L64.02 -10.08L61.44 -10.08L61.44 -3.609Q61.44 -2.219 61.67 -1.766Q61.91 -1.328 62.66 -1.328Q63.09 -1.328 63.38 -1.438L63.38 0.0625ZM63.91 0M65.56 0L65.56 -11.67L67.67 -11.67L67.67 -9.469Q68.64 -11.92 70.47 -11.92Q70.72 -11.92 71.08 -11.88L71.08 -9.891Q70.53 -10.08 70.19 -10.08Q68.97 -10.08 67.67 -7.688L67.67 0L65.56 0ZM71.23 0M79.69 0L79.69 -2.188Q78.02 0.2656 75.75 0.2656Q72.77 0.2656 72.77 -3.281L72.77 -11.67L74.88 -11.67L74.88 -3.969Q74.88 -2.562 75.17 -2.062Q75.47 -1.562 76.3 -1.562Q78.09 -1.562 79.69 -4.109L79.69 -11.67L81.81 -11.67L81.81 0L79.69 0ZM83.47 0M93.42 -0.3594Q91.56 0.2656 89.67 0.2656Q87.34 0.2656 85.86 -1.422Q84.39 -3.109 84.39 -5.812Q84.39 -8.688 85.89 -10.3Q87.39 -11.92 90.05 -11.92Q91.47 -11.92 93.28 -11.53L93.28 -9.781Q91.56 -10.3 90.5 -10.3Q86.72 -10.3 86.72 -5.812Q86.72 -3.734 87.7 -2.578Q88.67 -1.438 90.39 -1.438Q91.73 -1.438 93.42 -2.188L93.42 -0.3594ZM94.47 0M100.2 0.0625Q99.55 0.2656 98.98 0.2656Q96.11 0.2656 96.11 -3.219L96.11 -10.08L94.73 -10.08L94.73 -11.67L96.11 -11.67L96.11 -14.11L98.22 -14.31L98.22 -11.67L100.8 -11.67L100.8 -10.08L98.22 -10.08L98.22 -3.609Q98.22 -2.219 98.45 -1.766Q98.69 -1.328 99.44 -1.328Q99.87 -1.328 100.2 -1.438L100.2 0.0625ZM100.7 0M109.1 0L109.1 -2.188Q107.5 0.2656 105.2 0.2656Q102.2 0.2656 102.2 -3.281L102.2 -11.67L104.3 -11.67L104.3 -3.969Q104.3 -2.562 104.6 -2.062Q104.9 -1.562 105.7 -1.562Q107.5 -1.562 109.1 -4.109L109.1 -11.67L111.3 -11.67L111.3 0L109.1 0ZM112.9 0M114.6 0L114.6 -11.67L116.7 -11.67L116.7 -9.469Q117.7 -11.92 119.5 -11.92Q119.7 -11.92 120.1 -11.88L120.1 -9.891Q119.5 -10.08 119.2 -10.08Q118 -10.08 116.7 -7.688L116.7 0L114.6 0ZM120.2 0M129 -7.094Q129 -10.34 126.4 -10.34Q123.7 -10.34 123.4 -7.094L129 -7.094M131.1 -2.047L131.1 -0.375Q129 0.2656 127.1 0.2656Q124.4 0.2656 122.8 -1.422Q121.2 -3.125 121.2 -5.969Q121.2 -8.703 122.6 -10.31Q124 -11.92 126.4 -11.92Q131.2 -11.92 131.2 -6.156L131.2 -5.5L123.4 -5.5Q123.7 -1.344 127.6 -1.344Q129.2 -1.344 131.1 -2.047ZM132.5 0M134.6 3.766L134.6 2.969Q135.7 2.672 135.7 0.2188L135.7 0L134.6 0L134.6 -2.656L137.3 -2.656L137.3 -0.3594Q137.3 3.766 134.6 3.766ZM145.6 0M154 -4.109L154 -10.06Q152.6 -10.33 151.8 -10.33Q148.8 -10.33 148.8 -5.688Q148.8 -3.797 149.4 -2.688Q150 -1.594 151 -1.594Q152.4 -1.594 154 -4.109M154 -2.188Q152.8 0.2656 150.5 0.2656Q148.7 0.2656 147.6 -1.312Q146.5 -2.906 146.5 -5.5Q146.5 -8.578 147.9 -10.25Q149.4 -11.92 152 -11.92Q153 -11.92 154 -11.67L154 -16.97L156.1 -16.97L156.1 0L154 0L154 -2.188ZM157.8 0M159.5 0L159.5 -11.67L161.6 -11.67L161.6 0L159.5 0M159.3 -13.78L159.3 -16.11L161.7 -16.11L161.7 -13.78L159.3 -13.78ZM163.2 0M164.5 -0.4062L164.5 -2.359Q166.5 -1.328 168.4 -1.328Q170.8 -1.328 170.8 -3.094Q170.8 -4.219 169.1 -4.781L167.2 -5.406Q164.5 -6.312 164.5 -8.641Q164.5 -11.92 169 -11.92Q170.3 -11.92 172.1 -11.58L172.1 -9.812Q170.5 -10.33 168.8 -10.33Q166.6 -10.33 166.6 -8.859Q166.6 -7.844 168.1 -7.344L169.8 -6.797Q173 -5.75 173 -3.266Q173 -1.625 171.7 -0.6719Q170.5 0.2656 168.3 0.2656Q166.6 0.2656 164.5 -0.4062ZM174.2 0M179.9 0.0625Q179.3 0.2656 178.7 0.2656Q175.9 0.2656 175.9 -3.219L175.9 -10.08L174.5 -10.08L174.5 -11.67L175.9 -11.67L175.9 -14.11L178 -14.31L178 -11.67L180.5 -11.67L180.5 -10.08L178 -10.08L178 -3.609Q178 -2.219 178.2 -1.766Q178.4 -1.328 179.2 -1.328Q179.6 -1.328 179.9 -1.438L179.9 0.0625ZM180.4 0M182.1 0L182.1 -11.67L184.2 -11.67L184.2 -9.469Q185.2 -11.92 187 -11.92Q187.2 -11.92 187.6 -11.88L187.6 -9.891Q187.1 -10.08 186.7 -10.08Q185.5 -10.08 184.2 -7.688L184.2 0L182.1 0ZM187.8 0M189.4 0L189.4 -11.67L191.5 -11.67L191.5 0L189.4 0M189.3 -13.78L189.3 -16.11L191.6 -16.11L191.6 -13.78L189.3 -13.78ZM193.2 0M197 -7.547L197 -1.594Q198.4 -1.328 199.2 -1.328Q202.2 -1.328 202.2 -5.969Q202.2 -7.875 201.6 -8.969Q201 -10.08 200 -10.08Q198.6 -10.08 197 -7.547M197 -9.469Q198.2 -11.92 200.4 -11.92Q202.3 -11.92 203.4 -10.34Q204.5 -8.766 204.5 -6.172Q204.5 -3.078 203 -1.406Q201.6 0.2656 199 0.2656Q198 0.2656 197 0L194.8 0.125L194.8 -16.97L197 -16.97L197 -9.469ZM205.4 0M213.9 0L213.9 -2.188Q212.2 0.2656 209.9 0.2656Q207 0.2656 207 -3.281L207 -11.67L209.1 -11.67L209.1 -3.969Q209.1 -2.562 209.4 -2.062Q209.7 -1.562 210.5 -1.562Q212.3 -1.562 213.9 -4.109L213.9 -11.67L216 -11.67L216 0L213.9 0ZM217.7 0M223.3 0.0625Q222.7 0.2656 222.2 0.2656Q219.3 0.2656 219.3 -3.219L219.3 -10.08L217.9 -10.08L217.9 -11.67L219.3 -11.67L219.3 -14.11L221.4 -14.31L221.4 -11.67L224 -11.67L224 -10.08L221.4 -10.08L221.4 -3.609Q221.4 -2.219 221.6 -1.766Q221.9 -1.328 222.6 -1.328Q223.1 -1.328 223.3 -1.438L223.3 0.0625ZM223.9 0M232.7 -7.094Q232.7 -10.34 230 -10.34Q227.3 -10.34 227.1 -7.094L232.7 -7.094M234.8 -2.047L234.8 -0.375Q232.7 0.2656 230.7 0.2656Q228 0.2656 226.4 -1.422Q224.8 -3.125 224.8 -5.969Q224.8 -8.703 226.2 -10.31Q227.6 -11.92 230.1 -11.92Q234.8 -11.92 234.8 -6.156L234.8 -5.5L227 -5.5Q227.3 -1.344 231.2 -1.344Q232.9 -1.344 234.8 -2.047ZM236.1 0M244.6 -4.109L244.6 -10.06Q243.1 -10.33 242.4 -10.33Q239.3 -10.33 239.3 -5.688Q239.3 -3.797 239.9 -2.688Q240.5 -1.594 241.5 -1.594Q242.9 -1.594 244.6 -4.109M244.6 -2.188Q243.3 0.2656 241.1 0.2656Q239.3 0.2656 238.1 -1.312Q237 -2.906 237 -5.5Q237 -8.578 238.5 -10.25Q239.9 -11.92 242.5 -11.92Q243.5 -11.92 244.6 -11.67L244.6 -16.97L246.7 -16.97L246.7 0L244.6 0L244.6 -2.188ZM254.5 0M255.7 -0.4062L255.7 -2.359Q257.8 -1.328 259.6 -1.328Q262.1 -1.328 262.1 -3.094Q262.1 -4.219 260.4 -4.781L258.5 -5.406Q255.8 -6.312 255.8 -8.641Q255.8 -11.92 260.3 -11.92Q261.5 -11.92 263.3 -11.58L263.3 -9.812Q261.8 -10.33 260 -10.33Q257.9 -10.33 257.9 -8.859Q257.9 -7.844 259.4 -7.344L261.1 -6.797Q264.2 -5.75 264.2 -3.266Q264.2 -1.625 263 -0.6719Q261.7 0.2656 259.5 0.2656Q257.8 0.2656 255.7 -0.4062ZM265.5 0M269.8 0L265.7 -11.67L267.8 -11.67L271 -2.719L274.5 -11.67L276.3 -11.67L270.2 4.25L268 4.25L269.8 0ZM276.5 0M277.7 -0.4062L277.7 -2.359Q279.8 -1.328 281.6 -1.328Q284.1 -1.328 284.1 -3.094Q284.1 -4.219 282.4 -4.781L280.5 -5.406Q277.8 -6.312 277.8 -8.641Q277.8 -11.92 282.3 -11.92Q283.5 -11.92 285.3 -11.58L285.3 -9.812Q283.8 -10.33 282 -10.33Q279.9 -10.33 279.9 -8.859Q279.9 -7.844 281.4 -7.344L283.1 -6.797Q286.2 -5.75 286.2 -3.266Q286.2 -1.625 285 -0.6719Q283.7 0.2656 281.5 0.2656Q279.8 0.2656 277.7 -0.4062ZM287.5 0M293.1 0.0625Q292.5 0.2656 292 0.2656Q289.1 0.2656 289.1 -3.219L289.1 -10.08L287.7 -10.08L287.7 -11.67L289.1 -11.67L289.1 -14.11L291.2 -14.31L291.2 -11.67L293.8 -11.67L293.8 -10.08L291.2 -10.08L291.2 -3.609Q291.2 -2.219 291.4 -1.766Q291.7 -1.328 292.4 -1.328Q292.9 -1.328 293.1 -1.438L293.1 0.0625ZM293.7 0M302.5 -7.094Q302.5 -10.34 299.8 -10.34Q297.1 -10.34 296.9 -7.094L302.5 -7.094M304.6 -2.047L304.6 -0.375Q302.5 0.2656 300.5 0.2656Q297.8 0.2656 296.2 -1.422Q294.6 -3.125 294.6 -5.969Q294.6 -8.703 296 -10.31Q297.4 -11.92 299.9 -11.92Q304.6 -11.92 304.6 -6.156L304.6 -5.5L296.8 -5.5Q297.1 -1.344 301 -1.344Q302.7 -1.344 304.6 -2.047ZM305.9 0M307.6 0L307.6 -11.67L309.7 -11.67L309.7 -9.469Q310.7 -10.97 311.3 -11.44Q312 -11.92 313.1 -11.92Q315.4 -11.92 316.2 -9.469Q317.2 -10.97 317.8 -11.44Q318.5 -11.92 319.6 -11.92Q322.7 -11.92 322.7 -8.484L322.7 0L320.6 0L320.6 -8.156Q320.6 -10.16 319 -10.16Q317.6 -10.16 316.2 -7.828L316.2 0L314.1 0L314.1 -8.156Q314.1 -10.16 312.5 -10.16Q311.1 -10.16 309.7 -7.828L309.7 0L307.6 0ZM324.2 0M325.5 -0.4062L325.5 -2.359Q327.6 -1.328 329.4 -1.328Q331.9 -1.328 331.9 -3.094Q331.9 -4.219 330.2 -4.781L328.3 -5.406Q325.5 -6.312 325.5 -8.641Q325.5 -11.92 330 -11.92Q331.3 -11.92 333.1 -11.58L333.1 -9.812Q331.5 -10.33 329.8 -10.33Q327.6 -10.33 327.6 -8.859Q327.6 -7.844 329.2 -7.344L330.8 -6.797Q334 -5.75 334 -3.266Q334 -1.625 332.8 -0.6719Q331.5 0.2656 329.3 0.2656Q327.6 0.2656 325.5 -0.4062ZM335.2 0M337.4 3.766L337.4 2.969Q338.4 2.672 338.4 0.2188L338.4 0L337.4 0L337.4 -2.656L340 -2.656L340 -0.3594Q340 3.766 337.4 3.766ZM348.3 0M356.6 -1.484Q354.7 0.2656 352.8 0.2656Q351.3 0.2656 350.3 -0.625Q349.3 -1.516 349.3 -2.938Q349.3 -6.891 355.8 -6.891L356.3 -6.891L356.3 -8.297Q356.3 -10.33 354.1 -10.33Q352.3 -10.33 350.3 -9.297L350.3 -11.05Q352.5 -11.92 354.5 -11.92Q356.5 -11.92 357.5 -11.05Q358.4 -10.19 358.4 -8.297L358.4 -3.016Q358.4 -1.203 359.5 -1.203Q359.7 -1.203 360 -1.25L360.1 -0.07812Q359.4 0.2656 358.5 0.2656Q357 0.2656 356.6 -1.484M356.3 -2.625L356.3 -5.656L355.6 -5.672Q351.5 -5.672 351.5 -3.312Q351.5 -1.469 353.5 -1.469Q354.9 -1.469 356.3 -2.625ZM360.5 0M362.2 0L362.2 -11.67L364.3 -11.67L364.3 -9.469Q366 -11.92 368.3 -11.92Q371.2 -11.92 371.2 -8.375L371.2 0L369.1 0L369.1 -7.688Q369.1 -9.094 368.8 -9.609Q368.5 -10.11 367.7 -10.11Q365.9 -10.11 364.3 -7.547L364.3 0L362.2 0ZM372.8 0M381.2 -4.109L381.2 -10.06Q379.8 -10.33 379 -10.33Q376 -10.33 376 -5.688Q376 -3.797 376.6 -2.688Q377.2 -1.594 378.2 -1.594Q379.6 -1.594 381.2 -4.109M381.2 -2.188Q380 0.2656 377.8 0.2656Q375.9 0.2656 374.8 -1.312Q373.7 -2.906 373.7 -5.5Q373.7 -8.578 375.1 -10.25Q376.6 -11.92 379.2 -11.92Q380.2 -11.92 381.2 -11.67L381.2 -16.97L383.4 -16.97L383.4 0L381.2 0L381.2 -2.188ZM391.1 0M394.9 4.25L392.8 4.25L392.8 -11.67L394.9 -11.67L394.9 -9.469Q396.2 -11.92 398.4 -11.92Q400.2 -11.92 401.3 -10.34Q402.4 -8.766 402.4 -6.172Q402.4 -3.078 401 -1.406Q399.6 0.2656 396.9 0.2656Q395.9 0.2656 394.9 0L394.9 4.25M394.9 -7.547L394.9 -1.594Q396.4 -1.328 397.1 -1.328Q400.1 -1.328 400.1 -5.969Q400.1 -7.875 399.5 -8.969Q399 -10.08 397.9 -10.08Q396.5 -10.08 394.9 -7.547ZM403.4 0M407.1 -3.609Q407.1 -3 407.2 -2.562Q407.3 -2.125 407.6 -1.844Q407.8 -1.578 408.2 -1.453Q408.5 -1.328 409 -1.328L409 0.2031Q408.7 0.2656 408.3 0.2656Q407.6 0.2656 407 0.03125Q406.4 -0.2031 405.9 -0.6406Q405.5 -1.094 405.3 -1.734Q405 -2.391 405 -3.219L405 -16.97L407.1 -16.97L407.1 -3.609ZM409.2 0M417.6 -1.484Q415.7 0.2656 413.7 0.2656Q412.2 0.2656 411.2 -0.625Q410.3 -1.516 410.3 -2.938Q410.3 -6.891 416.8 -6.891L417.2 -6.891L417.2 -8.297Q417.2 -10.33 415 -10.33Q413.2 -10.33 411.3 -9.297L411.3 -11.05Q413.4 -11.92 415.4 -11.92Q417.5 -11.92 418.4 -11.05Q419.4 -10.19 419.4 -8.297L419.4 -3.016Q419.4 -1.203 420.5 -1.203Q420.6 -1.203 420.9 -1.25L421.1 -0.07812Q420.3 0.2656 419.4 0.2656Q418 0.2656 417.6 -1.484M417.2 -2.625L417.2 -5.656L416.6 -5.672Q412.5 -5.672 412.5 -3.312Q412.5 -1.469 414.4 -1.469Q415.8 -1.469 417.2 -2.625ZM421.5 0M427.2 0.0625Q426.6 0.2656 426 0.2656Q423.1 0.2656 423.1 -3.219L423.1 -10.08L421.7 -10.08L421.7 -11.67L423.1 -11.67L423.1 -14.11L425.2 -14.31L425.2 -11.67L427.8 -11.67L427.8 -10.08L425.2 -10.08L425.2 -3.609Q425.2 -2.219 425.5 -1.766Q425.7 -1.328 426.5 -1.328Q426.9 -1.328 427.2 -1.438L427.2 0.0625ZM427.7 0M429.6 0L429.6 -10.08L428 -10.08L428 -11.67L429.6 -11.67L429.6 -13.06Q429.6 -17.23 432.9 -17.23Q433.6 -17.23 434.5 -16.95L434.5 -15.27Q433.7 -15.64 433.1 -15.64Q432.3 -15.64 432 -15.11Q431.7 -14.59 431.7 -13.28L431.7 -11.67L434.1 -11.67L434.1 -10.08L431.7 -10.08L431.7 0L429.6 0ZM433.8 0M439.8 0.2656Q437.5 0.2656 436.1 -1.391Q434.7 -3.047 434.7 -5.828Q434.7 -8.656 436.1 -10.3Q437.5 -11.92 439.9 -11.92Q442.3 -11.92 443.7 -10.3Q445.1 -8.672 445.1 -5.859Q445.1 -2.969 443.7 -1.359Q442.3 0.2656 439.8 0.2656M439.9 -1.328Q442.8 -1.328 442.8 -5.891Q442.8 -10.33 439.9 -10.33Q437 -10.33 437 -5.828Q437 -1.328 439.9 -1.328ZM446 0M447.7 0L447.7 -11.67L449.8 -11.67L449.8 -9.469Q450.8 -11.92 452.6 -11.92Q452.9 -11.92 453.2 -11.88L453.2 -9.891Q452.7 -10.08 452.3 -10.08Q451.1 -10.08 449.8 -7.688L449.8 0L447.7 0ZM453.4 0M455 0L455 -11.67L457.1 -11.67L457.1 -9.469Q458.1 -10.97 458.8 -11.44Q459.5 -11.92 460.5 -11.92Q462.8 -11.92 463.7 -9.469Q464.6 -10.97 465.3 -11.44Q466 -11.92 467 -11.92Q470.2 -11.92 470.2 -8.484L470.2 0L468.1 0L468 -8.156Q468 -10.16 466.5 -10.16Q465.1 -10.16 463.7 -7.828L463.7 0L461.5 0L461.5 -8.156Q461.5 -10.16 459.9 -10.16Q458.6 -10.16 457.1 -7.828L457.1 0L455 0ZM477.8 0M486.6 -7.094Q486.6 -10.34 484 -10.34Q481.3 -10.34 481 -7.094L486.6 -7.094M488.7 -2.047L488.7 -0.375Q486.6 0.2656 484.6 0.2656Q482 0.2656 480.3 -1.422Q478.7 -3.125 478.7 -5.969Q478.7 -8.703 480.2 -10.31Q481.6 -11.92 484 -11.92Q488.8 -11.92 488.8 -6.156L488.8 -5.5L481 -5.5Q481.3 -1.344 485.1 -1.344Q486.8 -1.344 488.7 -2.047ZM490 0M491.7 0L491.7 -11.67L493.8 -11.67L493.8 -9.469Q495.5 -11.92 497.8 -11.92Q500.7 -11.92 500.7 -8.375L500.7 0L498.6 0L498.6 -7.688Q498.6 -9.094 498.3 -9.609Q498 -10.11 497.2 -10.11Q495.4 -10.11 493.8 -7.547L493.8 0L491.7 0ZM502.3 0M510.8 -4.641L510.8 -10.06Q509.3 -10.33 508.6 -10.33Q505.6 -10.33 505.6 -6.172Q505.6 -4.312 506.2 -3.219Q506.8 -2.109 507.8 -2.109Q509.2 -2.109 510.8 -4.641M510.8 -2.719Q509.5 -0.2656 507.3 -0.2656Q505.5 -0.2656 504.4 -1.828Q503.3 -3.391 503.3 -5.906Q503.3 -8.781 504.7 -10.34Q506.2 -11.92 508.8 -11.92Q509.8 -11.92 510.8 -11.67L512.9 -11.67L512.9 -3.188Q512.9 -0.4375 512.6 0.875Q512.4 2.188 511.6 3.031Q510.2 4.516 507.3 4.516Q505.2 4.516 503.4 3.875L503.4 2.047Q505.6 2.906 507.3 2.906Q510.8 2.906 510.8 -0.875L510.8 -2.719ZM514.5 0M516.2 0L516.2 -11.67L518.3 -11.67L518.3 0L516.2 0M516.1 -13.78L516.1 -16.11L518.4 -16.11L518.4 -13.78L516.1 -13.78ZM519.9 0M521.6 0L521.6 -11.67L523.7 -11.67L523.7 -9.469Q525.4 -11.92 527.7 -11.92Q530.6 -11.92 530.6 -8.375L530.6 0L528.5 0L528.5 -7.688Q528.5 -9.094 528.2 -9.609Q527.9 -10.11 527.1 -10.11Q525.3 -10.11 523.7 -7.547L523.7 0L521.6 0ZM532.2 0M541 -7.094Q541 -10.34 538.3 -10.34Q535.6 -10.34 535.4 -7.094L541 -7.094M543.1 -2.047L543.1 -0.375Q541 0.2656 539 0.2656Q536.3 0.2656 534.7 -1.422Q533.1 -3.125 533.1 -5.969Q533.1 -8.703 534.5 -10.31Q535.9 -11.92 538.4 -11.92Q543.1 -11.92 543.1 -6.156L543.1 -5.5L535.3 -5.5Q535.6 -1.344 539.5 -1.344Q541.2 -1.344 543.1 -2.047ZM544.4 0M553.2 -7.094Q553.2 -10.34 550.6 -10.34Q547.8 -10.34 547.6 -7.094L553.2 -7.094M555.3 -2.047L555.3 -0.375Q553.2 0.2656 551.2 0.2656Q548.5 0.2656 546.9 -1.422Q545.3 -3.125 545.3 -5.969Q545.3 -8.703 546.8 -10.31Q548.2 -11.92 550.6 -11.92Q555.4 -11.92 555.4 -6.156L555.3 -5.5L547.5 -5.5Q547.9 -1.344 551.7 -1.344Q553.4 -1.344 555.3 -2.047ZM556.6 0M558.3 0L558.3 -11.67L560.4 -11.67L560.4 -9.469Q561.4 -11.92 563.2 -11.92Q563.5 -11.92 563.8 -11.88L563.8 -9.891Q563.3 -10.08 562.9 -10.08Q561.7 -10.08 560.4 -7.688L560.4 0L558.3 0ZM564 0M565.6 0L565.6 -11.67L567.7 -11.67L567.7 0L565.6 0M565.5 -13.78L565.5 -16.11L567.8 -16.11L567.8 -13.78L565.5 -13.78ZM569.4 0M571 0L571 -11.67L573.2 -11.67L573.2 -9.469Q574.8 -11.92 577.1 -11.92Q580.1 -11.92 580.1 -8.375L580.1 0L578 0L578 -7.688Q578 -9.094 577.7 -9.609Q577.4 -10.11 576.6 -10.11Q574.8 -10.11 573.2 -7.547L573.2 0L571 0ZM581.6 0M590.2 -4.641L590.2 -10.06Q588.7 -10.33 588 -10.33Q584.9 -10.33 584.9 -6.172Q584.9 -4.312 585.5 -3.219Q586.1 -2.109 587.1 -2.109Q588.5 -2.109 590.2 -4.641M590.2 -2.719Q588.9 -0.2656 586.7 -0.2656Q584.9 -0.2656 583.7 -1.828Q582.6 -3.391 582.6 -5.906Q582.6 -8.781 584 -10.34Q585.5 -11.92 588.1 -11.92Q589.1 -11.92 590.2 -11.67L592.3 -11.67L592.3 -3.188Q592.3 -0.4375 592 0.875Q591.7 2.188 590.9 3.031Q589.5 4.516 586.6 4.516Q584.6 4.516 582.7 3.875L582.7 2.047Q584.9 2.906 586.6 2.906Q590.2 2.906 590.2 -0.875L590.2 -2.719Z" fill="#a78bfa" transform="translate(64,229.2)"/><rect x="64" y="523" width="156.2" height="42" fill="#c084fc" rx="8" ry="8"/><path d="M10.58 -5.266L10.58 -0.25Q8.531 0.2656 6.828 0.2656Q5 0.2656 3.922 -0.07812Q2.844 -0.4219 2.047 -1.25Q0.5938 -2.812 0.5938 -5.438Q0.5938 -7.953 1.953 -9.484Q2.75 -10.38 3.828 -10.73Q4.922 -11.11 6.688 -11.11Q8.812 -11.11 10.58 -10.69L10.58 -8.922Q8.344 -9.625 6.719 -9.625Q4.891 -9.625 3.938 -8.547Q2.984 -7.484 2.984 -5.406Q2.984 -3.406 4 -2.328Q5.031 -1.25 6.922 -1.25Q7.453 -1.25 8.328 -1.359L8.328 -3.781L6.5 -3.781L6.5 -5.266L10.58 -5.266ZM11.67 0M19.22 -1.797L19.22 -0.2656Q17.89 0.1875 16.53 0.1875Q14.52 0.1875 13.36 -0.9688Q12.22 -2.125 12.22 -4.125Q12.22 -5.984 13.22 -7.109Q14.23 -8.219 15.89 -8.219Q17.62 -8.219 18.42 -7.109Q19.22 -6 19.22 -3.594L14.5 -3.594Q14.72 -1.297 16.91 -1.297Q17.94 -1.297 19.22 -1.797M14.48 -4.812L17.09 -4.812Q17.09 -6.875 15.92 -6.875Q14.7 -6.875 14.48 -4.812ZM20.02 0M24.89 -1.359L24.89 0Q24.05 0.1875 23.5 0.1875Q21.2 0.1875 21.2 -2.453L21.2 -6.688L20.33 -6.688L20.33 -8.047L21.2 -8.047L21.2 -9.609L23.37 -9.859L23.37 -8.047L24.91 -8.047L24.91 -6.688L23.37 -6.688L23.37 -2.734Q23.37 -1.828 23.53 -1.547Q23.67 -1.266 24.16 -1.266Q24.45 -1.266 24.89 -1.359ZM29.19 0M32.64 0L32.64 -9.281L29.48 -9.281L29.48 -10.84L38.06 -10.84L38.06 -9.281L34.91 -9.281L34.91 0L32.64 0ZM38.34 0M39.42 0L39.42 -8.047L41.59 -8.047L41.59 0L39.42 0M39.36 -9.5L39.36 -11.56L41.67 -11.56L41.67 -9.5L39.36 -9.5ZM42.69 0M50.42 -1.672L50.42 -0.1719Q48.88 0.1875 47.67 0.1875Q45.55 0.1875 44.39 -0.9219Q43.23 -2.016 43.23 -4.031Q43.23 -8.219 47.84 -8.219Q49.11 -8.219 50.36 -7.906L50.36 -6.344Q48.83 -6.781 47.98 -6.781Q45.53 -6.781 45.53 -4.031Q45.53 -2.734 46.23 -2Q46.95 -1.25 48.2 -1.25Q49.08 -1.25 50.42 -1.672ZM51.03 0M52.11 0L52.11 -11.56L54.28 -11.56L54.28 -4.297L54.42 -4.297L56.95 -8.047L58.75 -8.047L56.41 -4.547L59.31 0L57 0L54.42 -4.016L54.28 -4.016L54.28 0L52.11 0ZM59.38 0M66.92 -1.797L66.92 -0.2656Q65.59 0.1875 64.23 0.1875Q62.22 0.1875 61.06 -0.9688Q59.92 -2.125 59.92 -4.125Q59.92 -5.984 60.92 -7.109Q61.94 -8.219 63.59 -8.219Q65.33 -8.219 66.12 -7.109Q66.92 -6 66.92 -3.594L62.2 -3.594Q62.42 -1.297 64.61 -1.297Q65.64 -1.297 66.92 -1.797M62.19 -4.812L64.8 -4.812Q64.8 -6.875 63.62 -6.875Q62.41 -6.875 62.19 -4.812ZM67.72 0M72.59 -1.359L72.59 0Q71.75 0.1875 71.2 0.1875Q68.91 0.1875 68.91 -2.453L68.91 -6.688L68.03 -6.688L68.03 -8.047L68.91 -8.047L68.91 -9.609L71.08 -9.859L71.08 -8.047L72.61 -8.047L72.61 -6.688L71.08 -6.688L71.08 -2.734Q71.08 -1.828 71.23 -1.547Q71.37 -1.266 71.86 -1.266Q72.16 -1.266 72.59 -1.359ZM72.72 0M73.62 -0.2656L73.62 -1.844Q75.3 -1.172 76.45 -1.172Q78.08 -1.172 78.08 -2.047Q78.08 -2.578 76.8 -3.109L76.06 -3.406Q74.56 -4 74.11 -4.453Q73.66 -4.906 73.66 -5.797Q73.66 -8.219 77.05 -8.219Q78.2 -8.219 79.67 -7.938L79.67 -6.453Q78.06 -6.875 77.31 -6.875Q75.8 -6.875 75.8 -6.047Q75.8 -5.547 76.97 -5.109L77.61 -4.859Q79.22 -4.25 79.75 -3.734Q80.31 -3.219 80.31 -2.312Q80.31 -1.172 79.3 -0.4844Q78.3 0.1875 76.59 0.1875Q75.09 0.1875 73.62 -0.2656ZM85.23 0M86.7 -4.984L95.29 -4.984L94.03 -7.5L99.5 -4.344L94.03 -1.188L95.29 -3.719L86.7 -3.719L86.7 -4.984Z" fill="#0c0a1a" transform="translate(92,549.2)"/><rect x="232.7" y="522.5" width="162.2" height="43" fill="none" stroke="rgba(192,132,252,0.3)" stroke-width="1" rx="8" ry="8"/><path d="M3.953 0L0.1875 -10.84L2.594 -10.84L5.438 -2.75L8.156 -10.84L9.828 -10.84L6.203 0L3.953 0ZM10 0M11.08 0L11.08 -8.047L13.25 -8.047L13.25 0L11.08 0M11.02 -9.5L11.02 -11.56L13.33 -11.56L13.33 -9.5L11.02 -9.5ZM14.34 0M21.89 -1.797L21.89 -0.2656Q20.56 0.1875 19.2 0.1875Q17.19 0.1875 16.03 -0.9688Q14.89 -2.125 14.89 -4.125Q14.89 -5.984 15.89 -7.109Q16.91 -8.219 18.56 -8.219Q20.3 -8.219 21.09 -7.109Q21.89 -6 21.89 -3.594L17.17 -3.594Q17.39 -1.297 19.58 -1.297Q20.61 -1.297 21.89 -1.797M17.16 -4.812L19.77 -4.812Q19.77 -6.875 18.59 -6.875Q17.37 -6.875 17.16 -4.812ZM22.69 0M25.09 0L23.14 -8.047L25.09 -8.047L26.45 -2.406L27.86 -8.047L29.73 -8.047L30.98 -2.375L32.45 -8.047L33.91 -8.047L31.81 0L29.73 0L28.55 -5.516L27.17 0L25.09 0ZM38.53 0M39.28 -0.09375L39.28 -1.938Q41.36 -1.219 43.11 -1.219Q45.59 -1.219 45.59 -2.656Q45.59 -3.594 44.66 -4L43.66 -4.375L42.45 -4.828Q40.55 -5.562 39.91 -6.219Q39.25 -6.875 39.25 -8.094Q39.25 -11.11 43.69 -11.11Q45.55 -11.11 47.22 -10.73L47.22 -9.031Q45.47 -9.625 43.84 -9.625Q42.52 -9.625 42 -9.344Q41.48 -9.062 41.48 -8.344Q41.48 -7.891 41.73 -7.641Q41.98 -7.391 42.7 -7.125L43.53 -6.797L44.78 -6.328Q46.59 -5.656 47.28 -4.938Q47.97 -4.219 47.97 -3.016Q47.97 -1.312 46.7 -0.5156Q45.45 0.2812 42.73 0.2812Q41.7 0.2812 40.44 0.07812L39.28 -0.09375ZM48.53 0M51.78 2.891L49.61 2.891L49.61 -8.047L51.78 -8.047L51.78 -6.703Q52.94 -8.219 54.31 -8.219Q55.56 -8.219 56.34 -7.125Q57.11 -6.031 57.11 -4.234Q57.11 -2.156 56.11 -0.9844Q55.11 0.1875 53.34 0.1875Q52.75 0.1875 51.78 0L51.78 2.891M51.78 -1.297Q52.61 -1.156 53 -1.156Q54.81 -1.156 54.81 -3.938Q54.81 -6.531 53.5 -6.531Q52.63 -6.531 51.78 -5.25L51.78 -1.297ZM57.69 0M65.23 -1.797L65.23 -0.2656Q63.91 0.1875 62.55 0.1875Q60.53 0.1875 59.38 -0.9688Q58.23 -2.125 58.23 -4.125Q58.23 -5.984 59.23 -7.109Q60.25 -8.219 61.91 -8.219Q63.64 -8.219 64.44 -7.109Q65.23 -6 65.23 -3.594L60.52 -3.594Q60.73 -1.297 62.92 -1.297Q63.95 -1.297 65.23 -1.797M60.5 -4.812L63.11 -4.812Q63.11 -6.875 61.94 -6.875Q60.72 -6.875 60.5 -4.812ZM66.03 0M73.91 -1.234L73.97 -0.01562Q73.28 0.1875 72.75 0.1875Q71.42 0.1875 71.03 -0.8594L70.94 -0.8594Q70.16 0.1875 68.92 0.1875Q67.84 0.1875 67.19 -0.4688Q66.53 -1.109 66.53 -2.172Q66.53 -4.906 70.36 -4.906L70.94 -4.906L70.94 -5.641Q70.94 -6.891 69.67 -6.891Q68.55 -6.891 67.25 -6.172L67.25 -7.672Q68.58 -8.219 70.03 -8.219Q73.02 -8.219 73.02 -5.719L73.02 -2.156Q73.02 -1.203 73.63 -1.203Q73.73 -1.203 73.91 -1.234M70.94 -2.031L70.94 -3.656L70.42 -3.656Q68.61 -3.656 68.61 -2.359Q68.61 -1.891 68.92 -1.594Q69.22 -1.297 69.69 -1.297Q70.44 -1.297 70.94 -2.031ZM74.38 0M75.45 0L75.45 -11.56L77.62 -11.56L77.62 -4.297L77.77 -4.297L80.3 -8.047L82.09 -8.047L79.75 -4.547L82.66 0L80.34 0L77.77 -4.016L77.62 -4.016L77.62 0L75.45 0ZM82.72 0M90.27 -1.797L90.27 -0.2656Q88.94 0.1875 87.58 0.1875Q85.56 0.1875 84.41 -0.9688Q83.27 -2.125 83.27 -4.125Q83.27 -5.984 84.27 -7.109Q85.28 -8.219 86.94 -8.219Q88.67 -8.219 89.47 -7.109Q90.27 -6 90.27 -3.594L85.55 -3.594Q85.77 -1.297 87.95 -1.297Q88.98 -1.297 90.27 -1.797M85.53 -4.812L88.14 -4.812Q88.14 -6.875 86.97 -6.875Q85.75 -6.875 85.53 -4.812ZM91.06 0M92.33 0L92.33 -8.047L94.5 -8.047L94.5 -6.703Q95.11 -8.219 96.3 -8.219Q96.47 -8.219 96.67 -8.188L96.67 -6.25Q96.25 -6.422 95.98 -6.422Q95.11 -6.422 94.5 -5.281L94.5 0L92.33 0ZM96.91 0M97.81 -0.2656L97.81 -1.844Q99.48 -1.172 100.6 -1.172Q102.3 -1.172 102.3 -2.047Q102.3 -2.578 101 -3.109L100.3 -3.406Q98.75 -4 98.3 -4.453Q97.84 -4.906 97.84 -5.797Q97.84 -8.219 101.2 -8.219Q102.4 -8.219 103.9 -7.938L103.9 -6.453Q102.3 -6.875 101.5 -6.875Q99.98 -6.875 99.98 -6.047Q99.98 -5.547 101.2 -5.109L101.8 -4.859Q103.4 -4.25 103.9 -3.734Q104.5 -3.219 104.5 -2.312Q104.5 -1.172 103.5 -0.4844Q102.5 0.1875 100.8 0.1875Q99.28 0.1875 97.81 -0.2656Z" fill="#c084fc" transform="translate(261.2,549.2)"/><image href="data:image/svg+xml,%3Csvg xmlns=&apos;http://www.w3.org/2000/svg&apos; viewBox=&apos;0 0 24 24&apos;%3E%3Cpath fill=&apos;%239333ea&apos; d=&apos;M16 11c1.66 0 2.99-1.34 2.99-3S17.66 5 16 5c-1.66 0-3 1.34-3 3s1.34 3 3 3zm-8 0c1.66 0 2.99-1.34 2.99-3S9.66 5 8 5C6.34 5 5 6.34 5 8s1.34 3 3 3zm0 2c-2.33 0-7 1.17-7 3.5V19h14v-2.5c0-2.33-4.67-3.5-7-3.5zm8 0c-.29 0-.62.02-.97.05 1.16.84 1.97 1.97 1.97 3.45V19h6v-2.5c0-2.33-4.67-3.5-7-3.5z&apos;/%3E%3C/svg%3E" x="948.3" y="535" width="18" height="18" preserveAspectRatio="none"/><path d="M0.9375 -0.07812L0.9375 -1.594Q2.453 -1.016 3.172 -1.016Q4.875 -1.016 4.875 -2.656Q4.875 -3.797 4.281 -4.266Q3.688 -4.719 2.219 -4.719L1.875 -4.719L1.875 -5.922Q3.406 -5.922 4 -6.312Q4.594 -6.688 4.594 -7.672Q4.594 -9.109 3.125 -9.109Q2.031 -9.109 1.078 -8.531L1.078 -9.922Q2.188 -10.38 3.547 -10.38Q5.031 -10.38 5.844 -9.734Q6.656 -9.094 6.656 -7.938Q6.656 -6.172 4.422 -5.422Q6.984 -4.844 6.984 -2.688Q6.984 -1.375 5.969 -0.5469Q4.969 0.25 3.328 0.25Q2.188 0.25 0.9375 -0.07812ZM7.781 0M8.484 0L8.484 -1.188Q8.937 -2.266 10.05 -3.438L10.8 -4.188L11.45 -4.875Q12.78 -6.219 12.78 -7.516Q12.78 -9.359 11.13 -9.359Q10.16 -9.359 8.734 -8.547L8.734 -9.734Q10.08 -10.38 11.33 -10.38Q12.64 -10.38 13.42 -9.594Q14.22 -8.828 14.22 -7.531Q14.22 -6.641 13.81 -5.953Q13.41 -5.266 12.28 -4.234L11.81 -3.812Q10.39 -2.516 10.11 -1.188L14.16 -1.188L14.16 0L8.484 0ZM19.45 0M20.25 -0.2656L20.25 -1.5Q21.58 -0.8438 22.73 -0.8438Q24.31 -0.8438 24.31 -1.969Q24.31 -2.688 23.22 -3.047L22.02 -3.438Q20.28 -4.016 20.28 -5.5Q20.28 -7.594 23.14 -7.594Q23.95 -7.594 25.09 -7.375L25.09 -6.234Q24.11 -6.578 23 -6.578Q21.63 -6.578 21.63 -5.641Q21.63 -4.984 22.58 -4.672L23.66 -4.328Q25.66 -3.656 25.66 -2.078Q25.66 -1.031 24.88 -0.4375Q24.08 0.1719 22.69 0.1719Q21.58 0.1719 20.25 -0.2656ZM26.45 0M29.48 2.703L27.47 2.703L27.47 -7.5L29.48 -7.5L29.48 -6.266Q30.56 -7.672 31.84 -7.672Q33.02 -7.672 33.73 -6.656Q34.47 -5.641 34.47 -3.953Q34.47 -2.016 33.53 -0.9219Q32.59 0.1719 30.94 0.1719Q30.39 0.1719 29.48 0L29.48 2.703M29.48 -1.203Q30.25 -1.078 30.63 -1.078Q32.31 -1.078 32.31 -3.672Q32.31 -6.094 31.09 -6.094Q30.27 -6.094 29.48 -4.891L29.48 -1.203ZM35 0M42.05 -1.672L42.05 -0.25Q40.8 0.1719 39.55 0.1719Q37.66 0.1719 36.58 -0.9062Q35.5 -1.984 35.5 -3.859Q35.5 -5.594 36.44 -6.625Q37.39 -7.672 38.94 -7.672Q40.56 -7.672 41.3 -6.641Q42.05 -5.609 42.05 -3.344L37.64 -3.344Q37.84 -1.203 39.89 -1.203Q40.86 -1.203 42.05 -1.672M37.62 -4.484L40.06 -4.484Q40.06 -6.406 38.97 -6.406Q37.83 -6.406 37.62 -4.484ZM42.78 0M48.08 -0.9375Q46.86 0.1719 45.63 0.1719Q44.64 0.1719 44.05 -0.3906Q43.44 -0.9688 43.44 -1.875Q43.44 -4.391 47.56 -4.391L47.88 -4.391L47.88 -5.281Q47.88 -6.578 46.45 -6.578Q45.3 -6.578 44.08 -5.922L44.08 -7.031Q45.44 -7.594 46.69 -7.594Q48.02 -7.594 48.63 -7.031Q49.22 -6.484 49.22 -5.281L49.22 -1.922Q49.22 -0.7656 49.94 -0.7656Q50.02 -0.7656 50.19 -0.7969L50.28 -0.04688Q49.83 0.1719 49.27 0.1719Q48.33 0.1719 48.08 -0.9375M47.88 -1.672L47.88 -3.594L47.44 -3.609Q44.83 -3.609 44.83 -2.109Q44.83 -0.9375 46.08 -0.9375Q46.95 -0.9375 47.88 -1.672ZM50.56 0M51.58 0L51.58 -10.8L53.59 -10.8L53.59 -4L53.73 -4L56.09 -7.5L57.77 -7.5L55.58 -4.25L58.28 0L56.12 0L53.73 -3.75L53.59 -3.75L53.59 0L51.58 0ZM58.34 0M65.39 -1.672L65.39 -0.25Q64.14 0.1719 62.89 0.1719Q61 0.1719 59.92 -0.9062Q58.84 -1.984 58.84 -3.859Q58.84 -5.594 59.78 -6.625Q60.73 -7.672 62.28 -7.672Q63.91 -7.672 64.64 -6.641Q65.39 -5.609 65.39 -3.344L60.98 -3.344Q61.19 -1.203 63.23 -1.203Q64.2 -1.203 65.39 -1.672M60.97 -4.484L63.41 -4.484Q63.41 -6.406 62.31 -6.406Q61.17 -6.406 60.97 -4.484ZM66.12 0M67.31 0L67.31 -7.5L69.33 -7.5L69.33 -6.266Q69.91 -7.672 71.02 -7.672Q71.17 -7.672 71.36 -7.641L71.36 -5.828Q70.97 -5.984 70.72 -5.984Q69.91 -5.984 69.33 -4.938L69.33 0L67.31 0ZM71.58 0M72.38 -0.2656L72.38 -1.5Q73.7 -0.8438 74.86 -0.8438Q76.44 -0.8438 76.44 -1.969Q76.44 -2.688 75.34 -3.047L74.14 -3.438Q72.41 -4.016 72.41 -5.5Q72.41 -7.594 75.27 -7.594Q76.08 -7.594 77.22 -7.375L77.22 -6.234Q76.23 -6.578 75.13 -6.578Q73.75 -6.578 73.75 -5.641Q73.75 -4.984 74.7 -4.672L75.78 -4.328Q77.78 -3.656 77.78 -2.078Q77.78 -1.031 77 -0.4375Q76.2 0.1719 74.81 0.1719Q73.7 0.1719 72.38 -0.2656Z" fill="#a78bfa" transform="translate(972.3,548.8)"/><image href="data:image/svg+xml,%3Csvg xmlns=&apos;http://www.w3.org/2000/svg&apos; viewBox=&apos;0 0 24 24&apos;%3E%3Cpath fill=&apos;%239333ea&apos; d=&apos;M11.99 2C6.47 2 2 6.48 2 12s4.47 10 9.99 10C17.52 22 22 17.52 22 12S17.52 2 11.99 2zM12 20c-4.42 0-8-3.58-8-8s3.58-8 8-8 8 3.59 8 8-3.58 8-8 8zm.5-13H11v6l5.25 3.15.75-1.23-4.5-2.67z&apos;/%3E%3C/svg%3E" x="1068" y="535" width="18" height="18" preserveAspectRatio="none"/><path d="M0.9375 -0.07812L0.9375 -1.594Q2.453 -1.016 3.172 -1.016Q4.875 -1.016 4.875 -2.656Q4.875 -3.797 4.281 -4.266Q3.688 -4.719 2.219 -4.719L1.875 -4.719L1.875 -5.922Q3.406 -5.922 4 -6.312Q4.594 -6.688 4.594 -7.672Q4.594 -9.109 3.125 -9.109Q2.031 -9.109 1.078 -8.531L1.078 -9.922Q2.188 -10.38 3.547 -10.38Q5.031 -10.38 5.844 -9.734Q6.656 -9.094 6.656 -7.938Q6.656 -6.172 4.422 -5.422Q6.984 -4.844 6.984 -2.688Q6.984 -1.375 5.969 -0.5469Q4.969 0.25 3.328 0.25Q2.188 0.25 0.9375 -0.07812ZM11.67 0M17.05 -2.609L17.05 -6.406Q16.12 -6.578 15.66 -6.578Q13.72 -6.578 13.72 -3.609Q13.72 -2.406 14.09 -1.703Q14.47 -1.016 15.12 -1.016Q16.02 -1.016 17.05 -2.609M17.05 -1.391Q16.25 0.1719 14.84 0.1719Q13.67 0.1719 12.97 -0.8281Q12.27 -1.844 12.27 -3.5Q12.27 -5.453 13.17 -6.516Q14.08 -7.594 15.77 -7.594Q16.41 -7.594 17.05 -7.422L17.05 -10.8L18.41 -10.8L18.41 0L17.05 0L17.05 -1.391ZM19.45 0M24.75 -0.9375Q23.53 0.1719 22.3 0.1719Q21.31 0.1719 20.72 -0.3906Q20.11 -0.9688 20.11 -1.875Q20.11 -4.391 24.23 -4.391L24.55 -4.391L24.55 -5.281Q24.55 -6.578 23.13 -6.578Q21.97 -6.578 20.75 -5.922L20.75 -7.031Q22.11 -7.594 23.36 -7.594Q24.69 -7.594 25.3 -7.031Q25.89 -6.484 25.89 -5.281L25.89 -1.922Q25.89 -0.7656 26.61 -0.7656Q26.69 -0.7656 26.86 -0.7969L26.95 -0.04688Q26.5 0.1719 25.94 0.1719Q25 0.1719 24.75 -0.9375M24.55 -1.672L24.55 -3.594L24.11 -3.609Q21.5 -3.609 21.5 -2.109Q21.5 -0.9375 22.75 -0.9375Q23.63 -0.9375 24.55 -1.672ZM27.23 0M30.09 0L27.41 -7.5L29.53 -7.5L31.28 -2.656L33.34 -7.5L34.84 -7.5L30.47 2.703L28.41 2.703L30.09 0ZM35.02 0M35.81 -0.2656L35.81 -1.5Q37.14 -0.8438 38.3 -0.8438Q39.87 -0.8438 39.87 -1.969Q39.87 -2.688 38.78 -3.047L37.58 -3.438Q35.84 -4.016 35.84 -5.5Q35.84 -7.594 38.7 -7.594Q39.52 -7.594 40.66 -7.375L40.66 -6.234Q39.67 -6.578 38.56 -6.578Q37.19 -6.578 37.19 -5.641Q37.19 -4.984 38.14 -4.672L39.22 -4.328Q41.22 -3.656 41.22 -2.078Q41.22 -1.031 40.44 -0.4375Q39.64 0.1719 38.25 0.1719Q37.14 0.1719 35.81 -0.2656Z" fill="#a78bfa" transform="translate(1092,548.8)"/></svg>