<svg xmlns="http://www.w3.org/2000/svg" width="1200" height="630" viewBox="0 0 1200 630"><defs><linearGradient id="lg1" x1="11.875%" y1="-22.619%" x2="88.125%" y2="122.619%"><stop offset="0%" stop-color="rgba(12,10,26,1)"/><stop offset="40%" stop-color="rgba(26,5,51,1)"/><stop offset="100%" stop-color="rgba(45,10,78,1)"/></linearGradient></defs><rect x="0" y="0" width="1200" height="630" fill="url(#lg1)"/><path d="M0 1.719L0 0.2188Q1.266 0.5938 2.422 0.5938Q3.453 0.5938 3.844 0.1875Q4.25 -0.2031 4.25 -1.266L4.25 -8.688L2.469 -8.688L2.469 -10.12L6.344 -10.12L6.344 -1.484Q6.344 0.3594 5.438 1.188Q4.516 2.031 2.5 2.031Q1.312 2.031 0 1.719ZM7.781 0M8.875 -10.12L10.98 -10.12L10.98 -3.922Q10.98 -2.453 11.45 -1.797Q11.94 -1.141 13.02 -1.141Q14.95 -1.141 14.95 -3.766L14.95 -10.12L16.8 -10.12L16.8 -3.906Q16.8 -2.5 16.53 -1.766Q16.27 -1.031 15.55 -0.5Q14.59 0.25 12.97 0.25Q11.25 0.25 10.19 -0.5469Q9.453 -1.094 9.156 -1.828Q8.875 -2.578 8.875 -3.922L8.875 -10.12ZM17.89 0M19.08 0L19.08 -10.12L20.92 -10.12L25.12 -3.203L25.12 -10.12L26.81 -10.12L26.81 0L24.94 0L20.77 -6.906L20.77 0L19.08 0ZM28 0M29.19 0L29.19 -10.12L36.61 -10.12L36.61 -8.734L31.28 -8.734L31.28 -5.906L35.84 -5.906L35.84 -4.547L31.28 -4.547L31.28 -1.438L36.92 -1.438L36.92 0L29.19 0ZM41.23 0M42.48 0L42.48 -1.188L44.5 -1.188L44.5 -8.641L42.48 -8.141L42.48 -9.359L46.53 -10.38L46.53 -1.188L48.55 -1.188L48.55 0L42.48 0ZM49.02 0M49.55 0L49.55 -1.594Q50.09 -2.578 50.91 -3.406L51.59 -4.125L52.41 -4.938Q53.25 -5.812 53.5 -6.281Q53.77 -6.766 53.77 -7.484Q53.77 -9.062 52.27 -9.062Q51.28 -9.062 49.8 -8.312L49.8 -9.797Q51.34 -10.38 52.59 -10.38Q54.16 -10.38 55.03 -9.609Q55.92 -8.844 55.92 -7.5Q55.92 -6.625 55.48 -5.938Q55.06 -5.234 53.95 -4.281L53.28 -3.719Q51.97 -2.609 51.83 -1.594L55.89 -1.594L55.89 0L49.55 0ZM56.8 0M57.41 -3.672L57.41 -4.828L63.97 -4.828L63.97 -3.672L57.41 -3.672ZM64.58 0M65.83 0L65.83 -1.188L67.84 -1.188L67.84 -8.641L65.83 -8.141L65.83 -9.359L69.88 -10.38L69.88 -1.188L71.89 -1.188L71.89 0L65.83 0ZM72.36 0M72.58 -2.703L72.58 -4.219L76.88 -10.12L78.73 -10.12L78.73 -4.219L79.66 -4.219L79.66 -2.703L78.73 -2.703L78.73 0L76.95 0L76.95 -2.703L72.58 -2.703M74.2 -4.219L77 -4.219L77 -8.188L74.2 -4.219ZM80.14 0M81.83 0L80.98 0L80.98 -2.188L83.19 -2.188L83.19 -0.5Q83.19 2.391 80.98 2.391L80.98 1.641Q81.83 1.641 81.83 0.2188L81.83 0ZM87.92 0M88.45 0L88.45 -1.594Q89 -2.578 89.81 -3.406L90.5 -4.125L91.31 -4.938Q92.16 -5.812 92.41 -6.281Q92.67 -6.766 92.67 -7.484Q92.67 -9.062 91.17 -9.062Q90.19 -9.062 88.7 -8.312L88.7 -9.797Q90.25 -10.38 91.5 -10.38Q93.06 -10.38 93.94 -9.609Q94.83 -8.844 94.83 -7.5Q94.83 -6.625 94.39 -5.938Q93.97 -5.234 92.86 -4.281L92.19 -3.719Q90.87 -2.609 90.73 -1.594L94.8 -1.594L94.8 0L88.45 0ZM95.7 0M99.59 0.25Q98.08 0.25 97.16 -1.203Q96.25 -2.672 96.25 -5.062Q96.25 -7.469 97.17 -8.922Q98.08 -10.38 99.59 -10.38Q101.1 -10.38 102 -8.922Q103 -7.484 103 -5.062Q103 -2.641 102 -1.188Q101.1 0.25 99.59 0.25M99.59 -1.016Q101 -1.016 101 -5.062Q101 -5.609 101 -6.078L98.28 -3.125Q98.56 -1.016 99.59 -1.016M99.59 -9.109Q98.17 -9.109 98.17 -5.062Q98.17 -4.516 98.19 -4.047L100.9 -7Q100.6 -9.109 99.59 -9.109ZM103.5 0M104 0L104 -1.594Q104.6 -2.578 105.4 -3.406L106.1 -4.125L106.9 -4.938Q107.7 -5.812 108 -6.281Q108.2 -6.766 108.2 -7.484Q108.2 -9.062 106.7 -9.062Q105.8 -9.062 104.3 -8.312L104.3 -9.797Q105.8 -10.38 107.1 -10.38Q108.6 -10.38 109.5 -9.609Q110.4 -8.844 110.4 -7.5Q110.4 -6.625 110 -5.938Q109.5 -5.234 108.4 -4.281L107.8 -3.719Q106.4 -2.609 106.3 -1.594L110.4 -1.594L110.4 0L104 0ZM111.3 0M118 -10.06L118 -8.578Q116.7 -9.109 116.1 -9.109Q115 -9.109 114.4 -8.203Q113.7 -7.312 113.7 -5.688L113.7 -5.531Q114.6 -6.516 115.7 -6.516Q117 -6.516 117.8 -5.672Q118.5 -4.812 118.5 -3.375Q118.5 -1.641 117.7 -0.6875Q116.8 0.25 115.3 0.25Q113.6 0.25 112.6 -1.062Q111.6 -2.391 111.6 -4.75Q111.6 -7.328 112.8 -8.844Q114 -10.38 116 -10.38Q116.8 -10.38 118 -10.06M116.7 -3.141Q116.7 -5.266 115.3 -5.266Q114.7 -5.266 114.2 -4.703Q113.8 -4.125 113.8 -3.172Q113.8 -2.172 114.2 -1.594Q114.6 -1.016 115.3 -1.016Q116.7 -1.016 116.7 -3.141ZM122.9 0M123.8 -5.312L123.8 -7.5L126 -7.5L126 -5.312L123.8 -5.312ZM130.7 0M131.9 0L131.9 -10.12L136.8 -10.12Q139.9 -10.12 139.9 -7.875Q139.9 -6.047 137.5 -5.281Q140.3 -4.594 140.3 -2.5Q140.3 -1.297 139.5 -0.6406Q138.7 0 137.1 0L131.9 0M133.9 -5.906L135.8 -5.906Q136.7 -5.906 137.2 -6.344Q137.8 -6.781 137.8 -7.531Q137.8 -8.219 137.3 -8.484Q136.9 -8.734 135.8 -8.734L133.9 -8.734L133.9 -5.906M133.9 -1.438L135.8 -1.438Q137.1 -1.438 137.6 -1.719Q138.1 -2 138.1 -2.75Q138.1 -3.531 137.5 -4.047Q136.8 -4.547 135.7 -4.547L133.9 -4.547L133.9 -1.438ZM140.8 0M142 0L142 -10.12L149.4 -10.12L149.4 -8.734L144.1 -8.734L144.1 -5.906L148.7 -5.906L148.7 -4.547L144.1 -4.547L144.1 -1.438L149.8 -1.438L149.8 0L142 0ZM150.2 0M151.4 0L151.4 -10.12L155.8 -10.12Q158.8 -10.12 158.8 -7.609Q158.8 -5.609 156.9 -4.719L160.2 0L157.8 0L155 -4.141L153.3 -4.141L153.3 0L151.4 0M153.3 -5.531L154.4 -5.531Q156.7 -5.531 156.7 -7.375Q156.7 -8.734 154.7 -8.734L153.3 -8.734L153.3 -5.531ZM160.3 0M161.5 0L161.5 -10.12L163.6 -10.12L163.6 -1.438L168.7 -1.438L168.7 0L161.5 0ZM168.8 0M169.5 0L169.5 -1.438L171 -1.438L171 -8.688L169.5 -8.688L169.5 -10.12L174.5 -10.12L174.5 -8.688L173 -8.688L173 -1.438L174.5 -1.438L174.5 0L169.5 0ZM175.2 0M176.4 0L176.4 -10.12L178.2 -10.12L182.4 -3.203L182.4 -10.12L184.1 -10.12L184.1 0L182.2 0L178 -6.906L178 0L176.4 0Z" fill="#c084fc" transform="translate(64,77.23)"/><path d="M3.391 -0.4375L3.391 -8.797Q12.81 -5.516 20.75 -5.516Q32.05 -5.516 32.05 -12.05Q32.05 -16.3 27.77 -18.12L23.2 -19.86L17.8 -21.92Q9.125 -25.2 6.203 -28.19Q3.281 -31.17 3.281 -36.69Q3.281 -50.38 23.34 -50.38Q31.78 -50.38 39.38 -48.67L39.38 -40.91Q31.48 -43.62 24.08 -43.62Q18.06 -43.62 15.73 -42.38Q13.42 -41.11 13.42 -37.86Q13.42 -35.8 14.55 -34.62Q15.67 -33.47 18.89 -32.28L22.67 -30.81L28.33 -28.72Q36.53 -25.67 39.64 -22.41Q42.8 -19.16 42.8 -13.64Q42.8 -5.938 37.06 -2.328Q31.34 1.266 19.03 1.266Q14.41 1.266 8.641 0.3594L3.391 -0.4375ZM45.36 0M59.27 0L46.19 -36.45L56.55 -36.45L64.98 -12.89L75.02 -36.45L82.31 -36.45L61.06 13.11L51.03 13.11L59.27 0ZM83.17 0M87.25 -1.203L87.25 -8.375Q94.89 -5.312 100.1 -5.312Q107.4 -5.312 107.4 -9.297Q107.4 -11.72 101.6 -14.08L98.31 -15.41Q91.5 -18.16 89.45 -20.19Q87.42 -22.22 87.42 -26.27Q87.42 -37.28 102.8 -37.28Q108.1 -37.28 114.7 -36L114.7 -29.25Q107.4 -31.14 104 -31.14Q97.12 -31.14 97.12 -27.42Q97.12 -25.17 102.5 -23.14L105.3 -22.05Q112.6 -19.3 115.1 -16.94Q117.6 -14.61 117.6 -10.5Q117.6 -5.312 113 -2.219Q108.4 0.8281 100.7 0.8281Q93.97 0.8281 87.25 -1.203ZM121 0M143.1 -6.172L143.1 -0.03125Q139.3 0.8281 136.8 0.8281Q126.4 0.8281 126.4 -11.12L126.4 -30.31L122.4 -30.31L122.4 -36.45L126.4 -36.45L126.4 -43.59L136.2 -44.72L136.2 -36.45L143.2 -36.45L143.2 -30.31L136.2 -30.31L136.2 -12.42Q136.2 -8.297 136.9 -7Q137.6 -5.75 139.8 -5.75Q141.1 -5.75 143.1 -6.172ZM143.6 0M177.9 -8.141L177.9 -1.234Q171.8 0.8281 165.7 0.8281Q156.5 0.8281 151.3 -4.391Q146.1 -9.625 146.1 -18.73Q146.1 -27.16 150.6 -32.2Q155.2 -37.28 162.8 -37.28Q170.6 -37.28 174.2 -32.23Q177.9 -27.23 177.9 -16.27L156.4 -16.27Q157.5 -5.844 167.4 -5.844Q172 -5.844 177.9 -8.141M156.3 -21.81L168.2 -21.81Q168.2 -31.14 162.9 -31.14Q157.3 -31.14 156.3 -21.81ZM181.4 0M186.4 0L186.4 -36.45L196.2 -36.45L196.2 -30.42Q200.6 -37.28 207.4 -37.28Q214.6 -37.28 216.8 -30.31Q220.8 -37.28 228 -37.28Q237.4 -37.28 237.4 -25.77L237.4 0L227.6 0L227.6 -23.34Q227.6 -27 226.9 -28.25Q226.2 -29.55 224.2 -29.55Q220 -29.55 216.8 -23.78L216.8 0L207 0L207 -23.34Q207 -27 206.3 -28.25Q205.6 -29.55 203.6 -29.55Q199.4 -29.55 196.2 -23.78L196.2 0L186.4 0ZM241.9 0M246 -1.203L246 -8.375Q253.6 -5.312 258.8 -5.312Q266.2 -5.312 266.2 -9.297Q266.2 -11.72 260.4 -14.08L257 -15.41Q250.2 -18.16 248.2 -20.19Q246.2 -22.22 246.2 -26.27Q246.2 -37.28 261.5 -37.28Q266.8 -37.28 273.4 -36L273.4 -29.25Q266.1 -31.14 262.7 -31.14Q255.9 -31.14 255.9 -27.42Q255.9 -25.17 261.2 -23.14L264 -22.05Q271.4 -19.3 273.8 -16.94Q276.3 -14.61 276.3 -10.5Q276.3 -5.312 271.7 -2.219Q267.2 0.8281 259.5 0.8281Q252.7 0.8281 246 -1.203ZM298.6 0M345.3 -9.5L345.3 -1.953Q338.2 1.234 327.5 1.234Q314.9 1.234 308.1 -5.453Q301.3 -12.16 301.3 -24.58Q301.3 -37.25 308.1 -43.8Q315 -50.38 328.3 -50.38Q336.9 -50.38 344.9 -48.48L344.9 -40.47Q335.8 -43.62 329.2 -43.62Q312.1 -43.62 312.1 -24.7Q312.1 -5.844 330.1 -5.844Q337.9 -5.844 345.3 -9.5ZM347.7 0M368.3 0.8281Q360.1 0.8281 355.1 -4.391Q350.2 -9.625 350.2 -18.23Q350.2 -26.92 355.2 -32.11Q360.1 -37.28 368.5 -37.28Q376.8 -37.28 381.8 -32.11Q386.8 -26.92 386.8 -18.3Q386.8 -9.5 381.8 -4.312Q376.8 0.8281 368.3 0.8281M368.4 -5.312Q372.1 -5.312 374.2 -8.766Q376.4 -12.25 376.4 -18.3Q376.4 -24.17 374.2 -27.66Q372.1 -31.14 368.5 -31.14Q364.9 -31.14 362.7 -27.66Q360.6 -24.17 360.6 -18.23Q360.6 -12.36 362.7 -8.828Q364.9 -5.312 368.4 -5.312ZM389.2 0M394.2 0L394.2 -36.45L404 -36.45L404 -30.42Q409.6 -37.28 416.4 -37.28Q426.3 -37.28 426.3 -25.77L426.3 0L416.5 0L416.5 -23.34Q416.5 -26.89 415.6 -28.22Q414.8 -29.55 412.5 -29.55Q408.6 -29.55 404 -23.78L404 0L394.2 0ZM430.8 0M436.3 0L436.3 -30.31L432.5 -30.31L432.5 -36.45L436.3 -36.45L436.3 -39.08Q436.3 -53.27 449.3 -53.27Q452 -53.27 455.2 -52.39L455.2 -46.02Q452.5 -47.11 450.3 -47.11Q446.1 -47.11 446.1 -39.45L446.1 -36.45L452.3 -36.45L452.3 -30.31L446.1 -30.31L446.1 0L436.3 0ZM472.3 0M478.1 0L478.1 -49.14L514.1 -49.14L514.1 -42.41L488.3 -42.41L488.3 -28.69L510.4 -28.69L510.4 -22.11L488.3 -22.11L488.3 -6.969L515.7 -6.969L515.7 0L478.1 0ZM517.7 0M544.5 0L544.5 -6.047Q538.9 0.8281 532.1 0.8281Q522.2 0.8281 522.2 -10.69L522.2 -36.45L532 -36.45L532 -13.11Q532 -9.562 532.8 -8.234Q533.7 -6.906 536 -6.906Q539.9 -6.906 544.5 -12.69L544.5 -36.45L554.3 -36.45L554.3 0L544.5 0ZM559.2 0M565 0L565 -36.45L574.8 -36.45L574.8 -30.42Q577.5 -37.28 582.9 -37.28Q583.7 -37.28 584.6 -37.09L584.6 -28.33Q582.8 -29.09 581.5 -29.09Q577.5 -29.09 574.8 -23.97L574.8 0L565 0ZM585.7 0M606.2 0.8281Q598.1 0.8281 593.1 -4.391Q588.1 -9.625 588.1 -18.23Q588.1 -26.92 593.1 -32.11Q598.1 -37.28 606.4 -37.28Q614.8 -37.28 619.7 -32.11Q624.8 -26.92 624.8 -18.3Q624.8 -9.5 619.7 -4.312Q614.8 0.8281 606.2 0.8281M606.4 -5.312Q610.1 -5.312 612.2 -8.766Q614.3 -12.25 614.3 -18.3Q614.3 -24.17 612.2 -27.66Q610.1 -31.14 606.4 -31.14Q602.8 -31.14 600.7 -27.66Q598.6 -24.17 598.6 -18.23Q598.6 -12.36 600.7 -8.828Q602.8 -5.312 606.4 -5.312ZM627.2 0M642 13.11L632.1 13.11L632.1 -36.45L642 -36.45L642 -30.42Q647.2 -37.28 653.4 -37.28Q659.1 -37.28 662.6 -32.31Q666.1 -27.36 666.1 -19.22Q666.1 -9.797 661.6 -4.484Q657 0.8281 649 0.8281Q646.3 0.8281 642 0L642 13.11M642 -5.844Q645.7 -5.219 647.5 -5.219Q655.7 -5.219 655.7 -17.86Q655.7 -29.58 649.7 -29.58Q645.7 -29.58 642 -23.78L642 -5.844ZM668.7 0M703 -8.141L703 -1.234Q696.9 0.8281 690.8 0.8281Q681.7 0.8281 676.4 -4.391Q671.2 -9.625 671.2 -18.73Q671.2 -27.16 675.7 -32.2Q680.3 -37.28 687.9 -37.28Q695.7 -37.28 699.3 -32.23Q703 -27.23 703 -16.27L681.5 -16.27Q682.6 -5.844 692.5 -5.844Q697.2 -5.844 703 -8.141M681.5 -21.81L693.3 -21.81Q693.3 -31.14 688 -31.14Q682.5 -31.14 681.5 -21.81Z" fill="#ffffff" transform="translate(64,169.1)"/><path d="M1.453 0L1.453 -1.844L3.562 -1.844L3.562 -15.5L1.453 -15.5L1.453 -17.34L8.125 -17.34L8.125 -15.5L6.016 -15.5L6.016 -1.844L8.125 -1.844L8.125 0L1.453 0ZM9.578 0M11.39 0L11.39 -12.73L13.69 -12.73L13.69 -10.34Q15.53 -13.02 18 -13.02Q21.27 -13.02 21.27 -9.141L21.27 0L18.94 0L18.94 -8.391Q18.94 -9.922 18.61 -10.48Q18.3 -11.03 17.41 -11.03Q15.45 -11.03 13.69 -8.234L13.69 0L11.39 0ZM22.92 0M24.97 0L24.97 -11L23.28 -11L23.28 -12.73L24.97 -12.73L24.97 -14.25Q24.97 -18.8 28.62 -18.8Q29.36 -18.8 30.31 -18.5L30.31 -16.66Q29.45 -17.06 28.84 -17.06Q27.97 -17.06 27.64 -16.48Q27.3 -15.92 27.3 -14.5L27.3 -12.73L29.94 -12.73L29.94 -11L27.3 -11L27.3 0L24.97 0ZM29.59 0M31.41 0L31.41 -12.73L33.7 -12.73L33.7 -10.34Q34.77 -13.02 36.75 -13.02Q37.03 -13.02 37.42 -12.95L37.42 -10.8Q36.83 -11 36.45 -11Q35.11 -11 33.7 -8.391L33.7 0L31.41 0ZM37.59 0M46.67 -1.625Q44.58 0.2969 42.47 0.2969Q40.8 0.2969 39.75 -0.6875Q38.7 -1.656 38.7 -3.219Q38.7 -7.531 45.78 -7.531L46.33 -7.531L46.33 -9.062Q46.33 -11.28 43.91 -11.28Q41.92 -11.28 39.81 -10.16L39.81 -12.06Q42.14 -13.02 44.3 -13.02Q46.58 -13.02 47.61 -12.06Q48.64 -11.12 48.64 -9.062L48.64 -3.297Q48.64 -1.312 49.86 -1.312Q50 -1.312 50.29 -1.359L50.47 -0.07812Q49.67 0.2969 48.71 0.2969Q47.11 0.2969 46.67 -1.625M46.33 -2.875L46.33 -6.172L45.56 -6.188Q41.09 -6.188 41.09 -3.609Q41.09 -1.594 43.25 -1.594Q44.75 -1.594 46.33 -2.875ZM50.94 0M52.3 -0.4531L52.3 -2.562Q54.58 -1.438 56.58 -1.438Q59.27 -1.438 59.27 -3.375Q59.27 -4.594 57.39 -5.219L55.33 -5.891Q52.38 -6.875 52.38 -9.438Q52.38 -13.02 57.25 -13.02Q58.66 -13.02 60.61 -12.64L60.61 -10.7Q58.91 -11.28 57.02 -11.28Q54.66 -11.28 54.66 -9.656Q54.66 -8.562 56.31 -8L58.14 -7.406Q61.58 -6.266 61.58 -3.562Q61.58 -1.766 60.22 -0.7344Q58.86 0.2969 56.5 0.2969Q54.58 0.2969 52.3 -0.4531ZM62.94 0M69.16 0.07812Q68.47 0.2969 67.86 0.2969Q64.72 0.2969 64.72 -3.516L64.72 -11L63.23 -11L63.23 -12.73L64.72 -12.73L64.72 -15.39L67.03 -15.61L67.03 -12.73L69.84 -12.73L69.84 -11L67.03 -11L67.03 -3.938Q67.03 -2.422 67.28 -1.922Q67.55 -1.438 68.36 -1.438Q68.83 -1.438 69.16 -1.578L69.16 0.07812ZM69.72 0M71.53 0L71.53 -12.73L73.83 -12.73L73.83 -10.34Q74.89 -13.02 76.87 -13.02Q77.16 -13.02 77.55 -12.95L77.55 -10.8Q76.95 -11 76.58 -11Q75.23 -11 73.83 -8.391L73.83 0L71.53 0ZM77.72 0M86.94 0L86.94 -2.375Q85.11 0.2969 82.64 0.2969Q79.39 0.2969 79.39 -3.594L79.39 -12.73L81.69 -12.73L81.69 -4.344Q81.69 -2.797 82.02 -2.25Q82.34 -1.703 83.23 -1.703Q85.2 -1.703 86.94 -4.484L86.94 -12.73L89.25 -12.73L89.25 0L86.94 0ZM91.06 0M101.9 -0.3906Q99.91 0.2969 97.84 0.2969Q95.28 0.2969 93.67 -1.547Q92.08 -3.406 92.08 -6.344Q92.08 -9.484 93.7 -11.23Q95.34 -13.02 98.25 -13.02Q99.8 -13.02 101.8 -12.59L101.8 -10.67Q99.91 -11.23 98.73 -11.23Q94.61 -11.23 94.61 -6.344Q94.61 -4.062 95.69 -2.812Q96.75 -1.578 98.62 -1.578Q100.1 -1.578 101.9 -2.375L101.9 -0.3906ZM103.1 0M109.3 0.07812Q108.6 0.2969 108 0.2969Q104.8 0.2969 104.8 -3.516L104.8 -11L103.4 -11L103.4 -12.73L104.8 -12.73L104.8 -15.39L107.2 -15.61L107.2 -12.73L110 -12.73L110 -11L107.2 -11L107.2 -3.938Q107.2 -2.422 107.4 -1.922Q107.7 -1.438 108.5 -1.438Q109 -1.438 109.3 -1.578L109.3 0.07812ZM109.8 0M119.1 0L119.1 -2.375Q117.2 0.2969 114.8 0.2969Q111.5 0.2969 111.5 -3.594L111.5 -12.73L113.8 -12.73L113.8 -4.344Q113.8 -2.797 114.1 -2.25Q114.5 -1.703 115.4 -1.703Q117.3 -1.703 119.1 -4.484L119.1 -12.73L121.4 -12.73L121.4 0L119.1 0ZM123.2 0M125 0L125 -12.73L127.3 -12.73L127.3 -10.34Q128.4 -13.02 130.3 -13.02Q130.6 -13.02 131 -12.95L131 -10.8Q130.4 -11 130 -11Q128.7 -11 127.3 -8.391L127.3 0L125 0ZM131.2 0M140.8 -7.734Q140.8 -11.28 137.9 -11.28Q134.9 -11.28 134.7 -7.734L140.8 -7.734M143.1 -2.234L143.1 -0.4062Q140.8 0.2969 138.6 0.2969Q135.7 0.2969 133.9 -1.562Q132.2 -3.406 132.2 -6.516Q132.2 -9.5 133.7 -11.25Q135.3 -13.02 137.9 -13.02Q143.1 -13.02 143.1 -6.719L143.1 -6L134.6 -6Q135 -1.469 139.2 -1.469Q141 -1.469 143.1 -2.234ZM144.5 0M146.9 4.109L146.9 3.234Q148 2.922 148 0.2344L148 0L146.9 0L146.9 -2.891L149.8 -2.891L149.8 -0.3906Q149.8 4.109 146.9 4.109ZM158.8 0M168 -4.484L168 -10.98Q166.4 -11.28 165.6 -11.28Q162.3 -11.28 162.3 -6.203Q162.3 -4.141 163 -2.938Q163.6 -1.734 164.7 -1.734Q166.2 -1.734 168 -4.484M168 -2.375Q166.6 0.2969 164.2 0.2969Q162.2 0.2969 161 -1.438Q159.8 -3.172 159.8 -6Q159.8 -9.359 161.4 -11.19Q162.9 -13.02 165.8 -13.02Q166.9 -13.02 168 -12.73L168 -18.5L170.3 -18.5L170.3 0L168 0L168 -2.375ZM172.1 0M174 0L174 -12.73L176.2 -12.73L176.2 0L174 0M173.8 -15.03L173.8 -17.58L176.4 -17.58L176.4 -15.03L173.8 -15.03ZM178.1 0M179.4 -0.4531L179.4 -2.562Q181.7 -1.438 183.7 -1.438Q186.4 -1.438 186.4 -3.375Q186.4 -4.594 184.5 -5.219L182.5 -5.891Q179.5 -6.875 179.5 -9.438Q179.5 -13.02 184.4 -13.02Q185.8 -13.02 187.7 -12.64L187.7 -10.7Q186 -11.28 184.1 -11.28Q181.8 -11.28 181.8 -9.656Q181.8 -8.562 183.4 -8L185.3 -7.406Q188.7 -6.266 188.7 -3.562Q188.7 -1.766 187.3 -0.7344Q186 0.2969 183.6 0.2969Q181.7 0.2969 179.4 -0.4531ZM190.1 0M196.3 0.07812Q195.6 0.2969 195 0.2969Q191.8 0.2969 191.8 -3.516L191.8 -11L190.4 -11L190.4 -12.73L191.8 -12.73L191.8 -15.39L194.2 -15.61L194.2 -12.73L197 -12.73L197 -11L194.2 -11L194.2 -3.938Q194.2 -2.422 194.4 -1.922Q194.7 -1.438 195.5 -1.438Q196 -1.438 196.3 -1.578L196.3 0.07812ZM196.8 0M198.7 0L198.7 -12.73L201 -12.73L201 -10.34Q202 -13.02 204 -13.02Q204.3 -13.02 204.7 -12.95L204.7 -10.8Q204.1 -11 203.7 -11Q202.4 -11 201 -8.391L201 0L198.7 0ZM204.8 0M206.7 0L206.7 -12.73L209 -12.73L209 0L206.7 0M206.5 -15.03L206.5 -17.58L209.1 -17.58L209.1 -15.03L206.5 -15.03ZM210.8 0M214.9 -8.234L214.9 -1.75Q216.5 -1.438 217.3 -1.438Q220.6 -1.438 220.6 -6.516Q220.6 -8.594 219.9 -9.781Q219.3 -11 218.2 -11Q216.7 -11 214.9 -8.234M214.9 -10.34Q216.3 -13.02 218.7 -13.02Q220.7 -13.02 221.9 -11.28Q223.1 -9.562 223.1 -6.734Q223.1 -3.359 221.5 -1.531Q220 0.2969 217.1 0.2969Q216 0.2969 214.9 0L212.6 0.1406L212.6 -18.5L214.9 -18.5L214.9 -10.34ZM224.1 0M233.3 0L233.3 -2.375Q231.5 0.2969 229 0.2969Q225.8 0.2969 225.8 -3.594L225.8 -12.73L228.1 -12.73L228.1 -4.344Q228.1 -2.797 228.4 -2.25Q228.7 -1.703 229.6 -1.703Q231.6 -1.703 233.3 -4.484L233.3 -12.73L235.6 -12.73L235.6 0L233.3 0ZM237.5 0M243.7 0.07812Q243 0.2969 242.4 0.2969Q239.2 0.2969 239.2 -3.516L239.2 -11L237.8 -11L237.8 -12.73L239.2 -12.73L239.2 -15.39L241.5 -15.61L241.5 -12.73L244.4 -12.73L244.4 -11L241.5 -11L241.5 -3.938Q241.5 -2.422 241.8 -1.922Q242.1 -1.438 242.9 -1.438Q243.3 -1.438 243.7 -1.578L243.7 0.07812ZM244.2 0M253.8 -7.734Q253.8 -11.28 251 -11.28Q248 -11.28 247.7 -7.734L253.8 -7.734M256.1 -2.234L256.1 -0.4062Q253.8 0.2969 251.7 0.2969Q248.8 0.2969 247 -1.562Q245.3 -3.406 245.3 -6.516Q245.3 -9.5 246.8 -11.25Q248.3 -13.02 251 -13.02Q256.2 -13.02 256.2 -6.719L256.2 -6L247.7 -6Q248 -1.469 252.2 -1.469Q254.1 -1.469 256.1 -2.234ZM257.6 0M266.8 -4.484L266.8 -10.98Q265.2 -11.28 264.4 -11.28Q261.1 -11.28 261.1 -6.203Q261.1 -4.141 261.7 -2.938Q262.4 -1.734 263.5 -1.734Q265 -1.734 266.8 -4.484M266.8 -2.375Q265.4 0.2969 263 0.2969Q261 0.2969 259.8 -1.438Q258.6 -3.172 258.6 -6Q258.6 -9.359 260.1 -11.19Q261.7 -13.02 264.6 -13.02Q265.7 -13.02 266.8 -12.73L266.8 -18.5L269.1 -18.5L269.1 0L266.8 0L266.8 -2.375ZM277.6 0M279 -0.4531L279 -2.562Q281.2 -1.438 283.2 -1.438Q285.9 -1.438 285.9 -3.375Q285.9 -4.594 284 -5.219L282 -5.891Q279 -6.875 279 -9.438Q279 -13.02 283.9 -13.02Q285.3 -13.02 287.3 -12.64L287.3 -10.7Q285.6 -11.28 283.7 -11.28Q281.3 -11.28 281.3 -9.656Q281.3 -8.562 283 -8L284.8 -7.406Q288.2 -6.266 288.2 -3.562Q288.2 -1.766 286.9 -0.7344Q285.5 0.2969 283.2 0.2969Q281.2 0.2969 279 -0.4531ZM289.6 0M294.3 0L289.8 -12.73L292.2 -12.73L295.6 -2.969L299.4 -12.73L301.5 -12.73L294.7 4.625L292.3 4.625L294.3 0ZM301.6 0M303 -0.4531L303 -2.562Q305.2 -1.438 307.2 -1.438Q309.9 -1.438 309.9 -3.375Q309.9 -4.594 308 -5.219L306 -5.891Q303 -6.875 303 -9.438Q303 -13.02 307.9 -13.02Q309.3 -13.02 311.3 -12.64L311.3 -10.7Q309.6 -11.28 307.7 -11.28Q305.3 -11.28 305.3 -9.656Q305.3 -8.562 307 -8L308.8 -7.406Q312.2 -6.266 312.2 -3.562Q312.2 -1.766 310.9 -0.7344Q309.5 0.2969 307.2 0.2969Q305.2 0.2969 303 -0.4531ZM313.6 0M319.8 0.07812Q319.1 0.2969 318.5 0.2969Q315.4 0.2969 315.4 -3.516L315.4 -11L313.9 -11L313.9 -12.73L315.4 -12.73L315.4 -15.39L317.7 -15.61L317.7 -12.73L320.5 -12.73L320.5 -11L317.7 -11L317.7 -3.938Q317.7 -2.422 317.9 -1.922Q318.2 -1.438 319 -1.438Q319.5 -1.438 319.8 -1.578L319.8 0.07812ZM320.4 0M330 -7.734Q330 -11.28 327.1 -11.28Q324.1 -11.28 323.8 -7.734L330 -7.734M332.3 -2.234L332.3 -0.4062Q330 0.2969 327.8 0.2969Q324.9 0.2969 323.1 -1.562Q321.4 -3.406 321.4 -6.516Q321.4 -9.5 322.9 -11.25Q324.5 -13.02 327.1 -13.02Q332.3 -13.02 332.3 -6.719L332.3 -6L323.8 -6Q324.1 -1.469 328.4 -1.469Q330.2 -1.469 332.3 -2.234ZM333.7 0M335.5 0L335.5 -12.73L337.8 -12.73L337.8 -10.34Q338.9 -11.97 339.6 -12.48Q340.4 -13.02 341.5 -13.02Q344 -13.02 344.9 -10.34Q346 -11.97 346.7 -12.48Q347.4 -13.02 348.6 -13.02Q352 -13.02 352 -9.266L352 0L349.7 0L349.7 -8.891Q349.7 -11.09 348 -11.09Q346.5 -11.09 344.9 -8.531L344.9 0L342.6 0L342.6 -8.891Q342.6 -11.09 340.9 -11.09Q339.4 -11.09 337.8 -8.531L337.8 0L335.5 0ZM353.7 0M355.1 -0.4531L355.1 -2.562Q357.4 -1.438 359.4 -1.438Q362 -1.438 362 -3.375Q362 -4.594 360.2 -5.219L358.1 -5.891Q355.2 -6.875 355.2 -9.438Q355.2 -13.02 360 -13.02Q361.4 -13.02 363.4 -12.64L363.4 -10.7Q361.7 -11.28 359.8 -11.28Q357.4 -11.28 357.4 -9.656Q357.4 -8.562 359.1 -8L360.9 -7.406Q364.4 -6.266 364.4 -3.562Q364.4 -1.766 363 -0.7344Q361.6 0.2969 359.3 0.2969Q357.4 0.2969 355.1 -0.4531ZM365.7 0M368.1 4.109L368.1 3.234Q369.2 2.922 369.2 0.2344L369.2 0L368.1 0L368.1 -2.891L371 -2.891L371 -0.3906Q371 4.109 368.1 4.109ZM380 0M389.1 -1.625Q387 0.2969 384.9 0.2969Q383.2 0.2969 382.1 -0.6875Q381.1 -1.656 381.1 -3.219Q381.1 -7.531 388.2 -7.531L388.7 -7.531L388.7 -9.062Q388.7 -11.28 386.3 -11.28Q384.3 -11.28 382.2 -10.16L382.2 -12.06Q384.5 -13.02 386.7 -13.02Q389 -13.02 390 -12.06Q391 -11.12 391 -9.062L391 -3.297Q391 -1.312 392.3 -1.312Q392.4 -1.312 392.7 -1.359L392.9 -0.07812Q392.1 0.2969 391.1 0.2969Q389.5 0.2969 389.1 -1.625M388.7 -2.875L388.7 -6.172L388 -6.188Q383.5 -6.188 383.5 -3.609Q383.5 -1.594 385.6 -1.594Q387.1 -1.594 388.7 -2.875ZM393.3 0M395.1 0L395.1 -12.73L397.4 -12.73L397.4 -10.34Q399.3 -13.02 401.8 -13.02Q405 -13.02 405 -9.141L405 0L402.7 0L402.7 -8.391Q402.7 -9.922 402.4 -10.48Q402 -11.03 401.2 -11.03Q399.2 -11.03 397.4 -8.234L397.4 0L395.1 0ZM406.7 0M415.9 -4.484L415.9 -10.98Q414.3 -11.28 413.5 -11.28Q410.2 -11.28 410.2 -6.203Q410.2 -4.141 410.8 -2.938Q411.5 -1.734 412.6 -1.734Q414.1 -1.734 415.9 -4.484M415.9 -2.375Q414.5 0.2969 412.1 0.2969Q410.1 0.2969 408.9 -1.438Q407.7 -3.172 407.7 -6Q407.7 -9.359 409.2 -11.19Q410.8 -13.02 413.7 -13.02Q414.8 -13.02 415.9 -12.73L415.9 -18.5L418.2 -18.5L418.2 0L415.9 0L415.9 -2.375ZM426.7 0M430.8 4.625L428.5 4.625L428.5 -12.73L430.8 -12.73L430.8 -10.34Q432.2 -13.02 434.6 -13.02Q436.6 -13.02 437.8 -11.28Q439 -9.562 439 -6.734Q439 -3.359 437.5 -1.531Q435.9 0.2969 433 0.2969Q431.9 0.2969 430.8 0L430.8 4.625M430.8 -8.234L430.8 -1.75Q432.4 -1.438 433.2 -1.438Q436.5 -1.438 436.5 -6.516Q436.5 -8.594 435.9 -9.781Q435.2 -11 434.1 -11Q432.6 -11 430.8 -8.234ZM440 0M444.1 -3.938Q444.1 -3.266 444.3 -2.797Q444.4 -2.328 444.6 -2.016Q444.9 -1.719 445.3 -1.578Q445.7 -1.438 446.2 -1.453L446.2 0.2188Q445.9 0.2969 445.5 0.2969Q444.7 0.2969 444 0.03125Q443.3 -0.2188 442.8 -0.7031Q442.4 -1.203 442.1 -1.906Q441.8 -2.609 441.8 -3.516L441.8 -18.5L444.1 -18.5L444.1 -3.938ZM446.5 0M455.5 -1.625Q453.4 0.2969 451.3 0.2969Q449.7 0.2969 448.6 -0.6875Q447.6 -1.656 447.6 -3.219Q447.6 -7.531 454.6 -7.531L455.2 -7.531L455.2 -9.062Q455.2 -11.28 452.8 -11.28Q450.8 -11.28 448.7 -10.16L448.7 -12.06Q451 -13.02 453.2 -13.02Q455.4 -13.02 456.5 -12.06Q457.5 -11.12 457.5 -9.062L457.5 -3.297Q457.5 -1.312 458.7 -1.312Q458.9 -1.312 459.2 -1.359L459.3 -0.07812Q458.5 0.2969 457.6 0.2969Q456 0.2969 455.5 -1.625M455.2 -2.875L455.2 -6.172L454.4 -6.188Q450 -6.188 450 -3.609Q450 -1.594 452.1 -1.594Q453.6 -1.594 455.2 -2.875ZM459.8 0M466 0.07812Q465.3 0.2969 464.7 0.2969Q461.6 0.2969 461.6 -3.516L461.6 -11L460.1 -11L460.1 -12.73L461.6 -12.73L461.6 -15.39L463.9 -15.61L463.9 -12.73L466.7 -12.73L466.7 -11L463.9 -11L463.9 -3.938Q463.9 -2.422 464.1 -1.922Q464.4 -1.438 465.2 -1.438Q465.7 -1.438 466 -1.578L466 0.07812ZM466.6 0M468.6 0L468.6 -11L466.9 -11L466.9 -12.73L468.6 -12.73L468.6 -14.25Q468.6 -18.8 472.3 -18.8Q473 -18.8 474 -18.5L474 -16.66Q473.1 -17.06 472.5 -17.06Q471.6 -17.06 471.3 -16.48Q471 -15.92 471 -14.5L471 -12.73L473.6 -12.73L473.6 -11L471 -11L471 0L468.6 0ZM473.2 0M479.8 0.2969Q477.3 0.2969 475.8 -1.516Q474.3 -3.312 474.3 -6.359Q474.3 -9.453 475.8 -11.23Q477.3 -13.02 479.9 -13.02Q482.5 -13.02 484.1 -11.23Q485.6 -9.453 485.6 -6.391Q485.6 -3.25 484.1 -1.484Q482.5 0.2969 479.8 0.2969M479.9 -1.438Q483.1 -1.438 483.1 -6.422Q483.1 -11.28 479.9 -11.28Q476.8 -11.28 476.8 -6.359Q476.8 -1.438 479.9 -1.438ZM486.6 0M488.4 0L488.4 -12.73L490.7 -12.73L490.7 -10.34Q491.8 -13.02 493.7 -13.02Q494 -13.02 494.4 -12.95L494.4 -10.8Q493.8 -11 493.5 -11Q492.1 -11 490.7 -8.391L490.7 0L488.4 0ZM494.6 0M496.4 0L496.4 -12.73L498.7 -12.73L498.7 -10.34Q499.8 -11.97 500.5 -12.48Q501.2 -13.02 502.4 -13.02Q504.9 -13.02 505.8 -10.34Q506.9 -11.97 507.6 -12.48Q508.3 -13.02 509.5 -13.02Q512.9 -13.02 512.9 -9.266L512.9 0L510.6 0L510.6 -8.891Q510.6 -11.09 508.9 -11.09Q507.4 -11.09 505.8 -8.531L505.8 0L503.5 0L503.5 -8.891Q503.5 -11.09 501.7 -11.09Q500.2 -11.09 498.7 -8.531L498.7 0L496.4 0ZM521.3 0M530.9 -7.734Q530.9 -11.28 528 -11.28Q525 -11.28 524.7 -7.734L530.9 -7.734M533.1 -2.234L533.1 -0.4062Q530.9 0.2969 528.7 0.2969Q525.8 0.2969 524 -1.562Q522.3 -3.406 522.3 -6.516Q522.3 -9.5 523.8 -11.25Q525.4 -13.02 528 -13.02Q533.2 -13.02 533.2 -6.719L533.2 -6L524.7 -6Q525 -1.469 529.3 -1.469Q531.1 -1.469 533.1 -2.234ZM534.6 0M536.4 0L536.4 -12.73L538.7 -12.73L538.7 -10.34Q540.6 -13.02 543 -13.02Q546.3 -13.02 546.3 -9.141L546.3 0L544 0L544 -8.391Q544 -9.922 543.6 -10.48Q543.3 -11.03 542.4 -11.03Q540.5 -11.03 538.7 -8.234L538.7 0L536.4 0ZM548 0M557.3 -5.062L557.3 -10.98Q555.7 -11.28 554.9 -11.28Q551.5 -11.28 551.5 -6.734Q551.5 -4.703 552.2 -3.5Q552.9 -2.312 554 -2.312Q555.5 -2.312 557.3 -5.062M557.3 -2.969Q555.9 -0.2969 553.5 -0.2969Q551.5 -0.2969 550.3 -2Q549 -3.703 549 -6.453Q549 -9.578 550.6 -11.28Q552.2 -13.02 555 -13.02Q556.2 -13.02 557.3 -12.73L559.6 -12.73L559.6 -3.469Q559.6 -0.4688 559.3 0.9688Q559 2.391 558.1 3.312Q556.6 4.922 553.4 4.922Q551.2 4.922 549.1 4.234L549.1 2.234Q551.6 3.172 553.4 3.172Q557.3 3.172 557.3 -0.9688L557.3 -2.969ZM561.3 0M563.1 0L563.1 -12.73L565.4 -12.73L565.4 0L563.1 0M563 -15.03L563 -17.58L565.5 -17.58L565.5 -15.03L563 -15.03ZM567.2 0M569 0L569 -12.73L571.3 -12.73L571.3 -10.34Q573.2 -13.02 575.6 -13.02Q578.9 -13.02 578.9 -9.141L578.9 0L576.6 0L576.6 -8.391Q576.6 -9.922 576.2 -10.48Q575.9 -11.03 575 -11.03Q573.1 -11.03 571.3 -8.234L571.3 0L569 0ZM580.6 0M590.2 -7.734Q590.2 -11.28 587.3 -11.28Q584.3 -11.28 584 -7.734L590.2 -7.734M592.4 -2.234L592.4 -0.4062Q590.2 0.2969 588 0.2969Q585.1 0.2969 583.3 -1.562Q581.6 -3.406 581.6 -6.516Q581.6 -9.5 583.1 -11.25Q584.7 -13.02 587.3 -13.02Q592.5 -13.02 592.5 -6.719L592.5 -6L584 -6Q584.3 -1.469 588.6 -1.469Q590.4 -1.469 592.4 -2.234ZM593.9 0M603.5 -7.734Q603.5 -11.28 600.6 -11.28Q597.7 -11.28 597.4 -7.734L603.5 -7.734M605.8 -2.234L605.8 -0.4062Q603.5 0.2969 601.4 0.2969Q598.4 0.2969 596.7 -1.562Q594.9 -3.406 594.9 -6.516Q594.9 -9.5 596.5 -11.25Q598 -13.02 600.7 -13.02Q605.8 -13.02 605.8 -6.719L605.8 -6L597.3 -6Q597.7 -1.469 601.9 -1.469Q603.7 -1.469 605.8 -2.234ZM607.2 0M609.1 0L609.1 -12.73L611.4 -12.73L611.4 -10.34Q612.4 -13.02 614.4 -13.02Q614.7 -13.02 615.1 -12.95L615.1 -10.8Q614.5 -11 614.1 -11Q612.8 -11 611.4 -8.391L611.4 0L609.1 0ZM615.2 0M617.1 0L617.1 -12.73L619.4 -12.73L619.4 0L617.1 0M616.9 -15.03L616.9 -17.58L619.5 -17.58L619.5 -15.03L616.9 -15.03ZM621.2 0M623 0L623 -12.73L625.3 -12.73L625.3 -10.34Q627.1 -13.02 629.6 -13.02Q632.9 -13.02 632.9 -9.141L632.9 0L630.5 0L630.5 -8.391Q630.5 -9.922 630.2 -10.48Q629.9 -11.03 629 -11.03Q627 -11.03 625.3 -8.234L625.3 0L623 0ZM634.5 0M643.8 -5.062L643.8 -10.98Q642.2 -11.28 641.4 -11.28Q638.1 -11.28 638.1 -6.734Q638.1 -4.703 638.8 -3.5Q639.4 -2.312 640.5 -2.312Q642 -2.312 643.8 -5.062M643.8 -2.969Q642.5 -0.2969 640 -0.2969Q638.1 -0.2969 636.8 -2Q635.6 -3.703 635.6 -6.453Q635.6 -9.578 637.2 -11.28Q638.7 -13.02 641.6 -13.02Q642.7 -13.02 643.8 -12.73L646.1 -12.73L646.1 -3.469Q646.1 -0.4688 645.8 0.9688Q645.5 2.391 644.7 3.312Q643.2 4.922 640 4.922Q637.7 4.922 635.7 4.234L635.7 2.234Q638.1 3.172 639.9 3.172Q643.8 3.172 643.8 -0.9688L643.8 -2.969Z" fill="#a78bfa" transform="translate(64,221.1)"/><rect x="64" y="526.8" width="134.5" height="39.2" fill="#c084fc" rx="8" ry="8"/><path d="M11.3 -5.625L11.3 -0.2812Q9.094 0.2969 7.281 0.2969Q5.344 0.2969 4.188 -0.07812Q3.031 -0.4531 2.188 -1.344Q0.625 -3 0.625 -5.797Q0.625 -8.484 2.094 -10.12Q2.938 -11.06 4.094 -11.45Q5.25 -11.86 7.141 -11.86Q9.406 -11.86 11.28 -11.41L11.28 -9.531Q8.906 -10.27 7.172 -10.27Q5.219 -10.27 4.203 -9.125Q3.188 -7.984 3.188 -5.781Q3.188 -3.641 4.266 -2.484Q5.359 -1.344 7.391 -1.344Q7.953 -1.344 8.891 -1.453L8.891 -4.031L6.938 -4.031L6.938 -5.625L11.3 -5.625ZM12.45 0M20.52 -1.922L20.52 -0.2969Q19.08 0.2031 17.64 0.2031Q15.5 0.2031 14.27 -1.031Q13.03 -2.266 13.03 -4.406Q13.03 -6.391 14.11 -7.578Q15.19 -8.781 16.97 -8.781Q18.81 -8.781 19.66 -7.594Q20.52 -6.406 20.52 -3.828L15.47 -3.828Q15.72 -1.375 18.05 -1.375Q19.14 -1.375 20.52 -1.922M15.45 -5.141L18.23 -5.141Q18.23 -7.328 17 -7.328Q15.69 -7.328 15.45 -5.141ZM21.36 0M26.56 -1.453L26.56 -0.01562Q25.67 0.2031 25.08 0.2031Q22.63 0.2031 22.63 -2.625L22.63 -7.141L21.69 -7.141L21.69 -8.578L22.63 -8.578L22.63 -10.27L24.94 -10.53L24.94 -8.578L26.58 -8.578L26.58 -7.141L24.94 -7.141L24.94 -2.922Q24.94 -1.953 25.11 -1.656Q25.27 -1.359 25.78 -1.359Q26.09 -1.359 26.56 -1.453ZM31.14 0M34.83 0L34.83 -9.906L31.45 -9.906L31.45 -11.56L40.61 -11.56L40.61 -9.906L37.23 -9.906L37.23 0L34.83 0ZM40.92 0M42.08 0L42.08 -8.578L44.39 -8.578L44.39 0L42.08 0M42 -10.14L42 -12.34L44.47 -12.34L44.47 -10.14L42 -10.14ZM45.55 0M53.8 -1.797L53.8 -0.1875Q52.14 0.2031 50.87 0.2031Q48.61 0.2031 47.36 -0.9844Q46.12 -2.156 46.12 -4.297Q46.12 -8.781 51.05 -8.781Q52.41 -8.781 53.73 -8.438L53.73 -6.766Q52.09 -7.234 51.2 -7.234Q48.59 -7.234 48.59 -4.312Q48.59 -2.922 49.34 -2.125Q50.09 -1.344 51.42 -1.344Q52.36 -1.344 53.8 -1.797ZM54.45 0M55.61 0L55.61 -12.34L57.92 -12.34L57.92 -4.578L58.08 -4.578L60.77 -8.578L62.69 -8.578L60.19 -4.859L63.28 0L60.81 0L58.08 -4.297L57.92 -4.297L57.92 0L55.61 0ZM63.36 0M71.42 -1.922L71.42 -0.2969Q69.98 0.2031 68.55 0.2031Q66.41 0.2031 65.17 -1.031Q63.94 -2.266 63.94 -4.406Q63.94 -6.391 65.02 -7.578Q66.09 -8.781 67.88 -8.781Q69.72 -8.781 70.56 -7.594Q71.42 -6.406 71.42 -3.828L66.38 -3.828Q66.63 -1.375 68.95 -1.375Q70.05 -1.375 71.42 -1.922M66.36 -5.141L69.14 -5.141Q69.14 -7.328 67.91 -7.328Q66.59 -7.328 66.36 -5.141ZM72.27 0M77.47 -1.453L77.47 -0.01562Q76.58 0.2031 75.98 0.2031Q73.53 0.2031 73.53 -2.625L73.53 -7.141L72.59 -7.141L72.59 -8.578L73.53 -8.578L73.53 -10.27L75.84 -10.53L75.84 -8.578L77.48 -8.578L77.48 -7.141L75.84 -7.141L75.84 -2.922Q75.84 -1.953 76.02 -1.656Q76.17 -1.359 76.69 -1.359Q77 -1.359 77.47 -1.453ZM77.59 0M78.56 -0.2812L78.56 -1.969Q80.36 -1.25 81.58 -1.25Q83.31 -1.25 83.31 -2.188Q83.31 -2.766 81.94 -3.312L81.16 -3.625Q79.56 -4.281 79.08 -4.75Q78.59 -5.234 78.59 -6.188Q78.59 -8.781 82.22 -8.781Q83.45 -8.781 85.02 -8.469L85.02 -6.891Q83.3 -7.328 82.5 -7.328Q80.87 -7.328 80.87 -6.453Q80.87 -5.922 82.14 -5.453L82.81 -5.188Q84.53 -4.547 85.11 -3.984Q85.69 -3.438 85.69 -2.469Q85.69 -1.25 84.61 -0.5312Q83.55 0.2031 81.73 0.2031Q80.14 0.2031 78.56 -0.2812Z" fill="#0c0a1a" transform="translate(88,551.9)"/><path d="M1.484 0L1.484 -11.56L9.875 -11.56L9.875 -10.34L3.125 -10.34L3.125 -6.625L9.094 -6.625L9.094 -5.422L3.125 -5.422L3.125 -1.234L10.22 -1.234L10.22 0L1.484 0ZM10.67 0M16.72 -1.078Q15.33 0.2031 13.92 0.2031Q12.81 0.2031 12.11 -0.4531Q11.42 -1.109 11.42 -2.141Q11.42 -5.016 16.14 -5.016L16.5 -5.016L16.5 -6.047Q16.5 -7.516 14.87 -7.516Q13.56 -7.516 12.16 -6.766L12.16 -8.047Q13.7 -8.672 15.14 -8.672Q16.66 -8.672 17.34 -8.047Q18.03 -7.422 18.03 -6.047L18.03 -2.203Q18.03 -0.875 18.84 -0.875Q18.95 -0.875 19.14 -0.9062L19.25 -0.0625Q18.72 0.2031 18.09 0.2031Q17.02 0.2031 16.72 -1.078M16.5 -1.922L16.5 -4.109L15.98 -4.125Q13.02 -4.125 13.02 -2.406Q13.02 -1.062 14.44 -1.062Q15.45 -1.062 16.5 -1.922ZM19.58 0M20.78 0L20.78 -8.484L22.33 -8.484L22.33 -6.891Q23.03 -8.672 24.36 -8.672Q24.53 -8.672 24.8 -8.641L24.8 -7.203Q24.41 -7.328 24.16 -7.328Q23.27 -7.328 22.33 -5.594L22.33 0L20.78 0ZM24.91 0M27.66 -2.625Q27.66 -2.188 27.73 -1.859Q27.81 -1.547 27.98 -1.344Q28.16 -1.156 28.41 -1.062Q28.67 -0.9688 29 -0.9688L29 0.1562Q28.83 0.2031 28.53 0.2031Q28.02 0.2031 27.56 0.03125Q27.11 -0.1562 26.78 -0.4688Q26.45 -0.7969 26.28 -1.266Q26.11 -1.75 26.11 -2.344L26.11 -12.34L27.66 -12.34L27.66 -2.625ZM29.19 0M32.34 0L29.34 -8.484L30.91 -8.484L33.2 -1.984L35.73 -8.484L37.09 -8.484L32.61 3.094L31.02 3.094L32.34 0ZM41.64 0M44.39 -5.5L44.39 -1.172Q45.45 -0.9688 45.98 -0.9688Q48.2 -0.9688 48.2 -4.344Q48.2 -5.734 47.77 -6.531Q47.33 -7.328 46.58 -7.328Q45.58 -7.328 44.39 -5.5M44.39 -6.891Q45.31 -8.672 46.92 -8.672Q48.25 -8.672 49.05 -7.531Q49.86 -6.375 49.86 -4.484Q49.86 -2.25 48.81 -1.031Q47.78 0.2031 45.86 0.2031Q45.12 0.2031 44.39 0L42.84 0.09375L42.84 -12.34L44.39 -12.34L44.39 -6.891ZM50.55 0M51.7 0L51.7 -8.578L54.02 -8.578L54.02 0L51.7 0M51.62 -10.14L51.62 -12.34L54.09 -12.34L54.09 -10.14L51.62 -10.14ZM55.17 0M56.37 0L56.37 -8.484L57.92 -8.484L57.92 -6.891Q58.62 -8.672 59.95 -8.672Q60.12 -8.672 60.39 -8.641L60.39 -7.203Q60 -7.328 59.75 -7.328Q58.86 -7.328 57.92 -5.594L57.92 0L56.37 0ZM60.5 0M66.66 -2.984L66.66 -7.328Q65.59 -7.516 65.06 -7.516Q62.84 -7.516 62.84 -4.141Q62.84 -2.766 63.27 -1.953Q63.7 -1.156 64.45 -1.156Q65.47 -1.156 66.66 -2.984M66.66 -1.594Q65.73 0.2031 64.12 0.2031Q62.8 0.2031 61.98 -0.9531Q61.17 -2.109 61.17 -4Q61.17 -6.234 62.22 -7.453Q63.27 -8.672 65.17 -8.672Q65.92 -8.672 66.66 -8.484L66.66 -12.34L68.19 -12.34L68.19 0L66.66 0L66.66 -1.594ZM73.86 0M76.61 3.094L75.06 3.094L75.06 -8.484L76.61 -8.484L76.61 -6.891Q77.53 -8.672 79.14 -8.672Q80.47 -8.672 81.27 -7.531Q82.08 -6.375 82.08 -4.484Q82.08 -2.25 81.03 -1.031Q80 0.2031 78.08 0.2031Q77.34 0.2031 76.61 0L76.61 3.094M76.61 -5.5L76.61 -1.172Q77.67 -0.9688 78.2 -0.9688Q80.42 -0.9688 80.42 -4.344Q80.42 -5.734 79.98 -6.531Q79.55 -7.328 78.8 -7.328Q77.8 -7.328 76.61 -5.5ZM82.77 0M83.97 0L83.97 -8.484L85.52 -8.484L85.52 -6.891Q86.22 -8.672 87.55 -8.672Q87.72 -8.672 87.98 -8.641L87.98 -7.203Q87.59 -7.328 87.34 -7.328Q86.45 -7.328 85.52 -5.594L85.52 0L83.97 0ZM88.09 0M89.25 0L89.25 -8.578L91.56 -8.578L91.56 0L89.25 0M89.17 -10.14L89.17 -12.34L91.64 -12.34L91.64 -10.14L89.17 -10.14ZM92.72 0M101 -1.797L101 -0.1875Q99.31 0.2031 98.05 0.2031Q95.78 0.2031 94.53 -0.9844Q93.3 -2.156 93.3 -4.297Q93.3 -8.781 98.22 -8.781Q99.58 -8.781 100.9 -8.438L100.9 -6.766Q99.27 -7.234 98.37 -7.234Q95.77 -7.234 95.77 -4.312Q95.77 -2.922 96.52 -2.125Q97.27 -1.344 98.59 -1.344Q99.53 -1.344 101 -1.797ZM101.6 0M102.8 0L102.8 -8.578L105.1 -8.578L105.1 0L102.8 0M102.7 -10.14L102.7 -12.34L105.2 -12.34L105.2 -10.14L102.7 -10.14ZM106.2 0M107.5 0L107.5 -8.484L109 -8.484L109 -6.891Q110.2 -8.672 111.9 -8.672Q114 -8.672 114 -6.094L114 0L112.5 0L112.5 -5.594Q112.5 -6.625 112.3 -6.984Q112.1 -7.359 111.5 -7.359Q110.2 -7.359 109 -5.5L109 0L107.5 0ZM115.2 0M121.4 -3.375L121.4 -7.328Q120.3 -7.516 119.8 -7.516Q117.5 -7.516 117.5 -4.484Q117.5 -3.141 118 -2.344Q118.4 -1.547 119.2 -1.547Q120.2 -1.547 121.4 -3.375M121.4 -1.984Q120.5 -0.2031 118.8 -0.2031Q117.5 -0.2031 116.7 -1.328Q115.9 -2.469 115.9 -4.297Q115.9 -6.391 116.9 -7.531Q118 -8.672 119.9 -8.672Q120.6 -8.672 121.4 -8.484L122.9 -8.484L122.9 -2.312Q122.9 -0.3125 122.7 0.6406Q122.5 1.594 121.9 2.203Q120.9 3.281 118.8 3.281Q117.3 3.281 115.9 2.828L115.9 1.484Q117.6 2.125 118.8 2.125Q121.4 2.125 121.4 -0.6406L121.4 -1.984ZM128.5 0M136.6 -1.922L136.6 -0.2969Q135.1 0.2031 133.7 0.2031Q131.6 0.2031 130.3 -1.031Q129.1 -2.266 129.1 -4.406Q129.1 -6.391 130.2 -7.578Q131.2 -8.781 133 -8.781Q134.9 -8.781 135.7 -7.594Q136.6 -6.406 136.6 -3.828L131.5 -3.828Q131.8 -1.375 134.1 -1.375Q135.2 -1.375 136.6 -1.922M131.5 -5.141L134.3 -5.141Q134.3 -7.328 133.1 -7.328Q131.7 -7.328 131.5 -5.141ZM137.4 0M138.6 0L138.6 -8.484L140.2 -8.484L140.2 -6.891Q141.4 -8.672 143 -8.672Q145.2 -8.672 145.2 -6.094L145.2 0L143.7 0L143.7 -5.594Q143.7 -6.625 143.5 -6.984Q143.2 -7.359 142.6 -7.359Q141.3 -7.359 140.2 -5.5L140.2 0L138.6 0ZM146.3 0M152.5 -2.984L152.5 -7.328Q151.4 -7.516 150.9 -7.516Q148.7 -7.516 148.7 -4.141Q148.7 -2.766 149.1 -1.953Q149.5 -1.156 150.3 -1.156Q151.3 -1.156 152.5 -2.984M152.5 -1.594Q151.6 0.2031 150 0.2031Q148.6 0.2031 147.8 -0.9531Q147 -2.109 147 -4Q147 -6.234 148 -7.453Q149.1 -8.672 151 -8.672Q151.8 -8.672 152.5 -8.484L152.5 -12.34L154 -12.34L154 0L152.5 0L152.5 -1.594ZM155.2 0M156.2 -0.2812L156.2 -1.969Q158 -1.25 159.2 -1.25Q161 -1.25 161 -2.188Q161 -2.766 159.6 -3.312L158.8 -3.625Q157.2 -4.281 156.7 -4.75Q156.2 -5.234 156.2 -6.188Q156.2 -8.781 159.9 -8.781Q161.1 -8.781 162.7 -8.469L162.7 -6.891Q160.9 -7.328 160.1 -7.328Q158.5 -7.328 158.5 -6.453Q158.5 -5.922 159.8 -5.453L160.5 -5.188Q162.2 -4.547 162.8 -3.984Q163.3 -3.438 163.3 -2.469Q163.3 -1.25 162.3 -0.5312Q161.2 0.2031 159.4 0.2031Q157.8 0.2031 156.2 -0.2812ZM168.6 0M169.9 0L169.9 -11.56L172.2 -11.56L175.3 -2.625L178.6 -11.56L180.6 -11.56L180.6 0L179.1 0L179.1 -9.406L176 -0.7812L174.4 -0.7812L171.3 -9.438L171.3 0L169.9 0ZM181.9 0M188 -1.078Q186.6 0.2031 185.2 0.2031Q184.1 0.2031 183.4 -0.4531Q182.7 -1.109 182.7 -2.141Q182.7 -5.016 187.4 -5.016L187.7 -5.016L187.7 -6.047Q187.7 -7.516 186.1 -7.516Q184.8 -7.516 183.4 -6.766L183.4 -8.047Q185 -8.672 186.4 -8.672Q187.9 -8.672 188.6 -8.047Q189.3 -7.422 189.3 -6.047L189.3 -2.203Q189.3 -0.875 190.1 -0.875Q190.2 -0.875 190.4 -0.9062L190.5 -0.0625Q190 0.2031 189.3 0.2031Q188.3 0.2031 188 -1.078M187.7 -1.922L187.7 -4.109L187.2 -4.125Q184.3 -4.125 184.3 -2.406Q184.3 -1.062 185.7 -1.062Q186.7 -1.062 187.7 -1.922ZM190.8 0M194 0L191 -8.484L192.5 -8.484L194.8 -1.984L197.4 -8.484L198.7 -8.484L194.3 3.094L192.7 3.094L194 0ZM203.3 0M204.9 0L204.9 -1.156L207.4 -1.156L207.4 -10.28L204.9 -9.672L204.9 -10.86L208.9 -11.86L208.9 -1.156L211.4 -1.156L211.4 0L204.9 0Z" fill="#a78bfa" transform="translate(214.5,551.9)"/></svg>