<svg xmlns="http://www.w3.org/2000/svg" width="1200" height="630" viewBox="0 0 1200 630"><rect x="0" y="0" width="1200" height="630" fill="#ffffff"/><defs><linearGradient id="lg1" x1="-8.88178e-15%" y1="0%" x2="100%" y2="100%" color-interpolation="linearRGB"><stop offset="0%" stop-color="rgba(59,130,246,1)"/><stop offset="100%" stop-color="rgba(139,92,246,1)"/></linearGradient></defs><rect x="64" y="56" width="40" height="40" fill="url(#lg1)" rx="10" ry="10"/><path d="M0.1094 0L5.156 -13.02L7.859 -13.02L12.89 0L10.11 0L8.797 -3.469L3.406 -3.469L2.078 0L0.1094 0M4.078 -5.203L8.125 -5.203L6.094 -10.39L4.078 -5.203ZM13 0M22.28 -2.016L22.28 -0.2188Q20.42 0.2188 18.98 0.2188Q16.44 0.2188 15.05 -1.094Q13.66 -2.422 13.66 -4.828Q13.66 -9.875 19.17 -9.875Q20.7 -9.875 22.2 -9.5L22.2 -7.609Q20.36 -8.125 19.36 -8.125Q16.42 -8.125 16.42 -4.844Q16.42 -3.281 17.27 -2.391Q18.11 -1.5 19.61 -1.5Q20.67 -1.5 22.28 -2.016ZM23.02 0M24.31 0L24.31 -9.656L26.92 -9.656L26.92 -8.047Q28.09 -9.875 29.87 -9.875Q31.81 -9.875 32.37 -8.031Q33.46 -9.875 35.35 -9.875Q37.83 -9.875 37.83 -6.828L37.83 0L35.22 0L35.22 -6.172Q35.22 -7.141 35.05 -7.484Q34.86 -7.828 34.35 -7.828Q33.22 -7.828 32.37 -6.297L32.37 0L29.78 0L29.78 -6.172Q29.78 -7.141 29.59 -7.484Q29.41 -7.828 28.89 -7.828Q27.77 -7.828 26.92 -6.297L26.92 0L24.31 0ZM39.02 0M48.08 -2.156L48.08 -0.3281Q46.47 0.2188 44.86 0.2188Q42.44 0.2188 41.05 -1.156Q39.67 -2.547 39.67 -4.953Q39.67 -7.188 40.87 -8.531Q42.08 -9.875 44.09 -9.875Q46.16 -9.875 47.12 -8.531Q48.08 -7.203 48.08 -4.312L42.41 -4.312Q42.69 -1.547 45.3 -1.547Q46.55 -1.547 48.08 -2.156M42.37 -5.781L45.52 -5.781Q45.52 -8.25 44.12 -8.25Q42.64 -8.25 42.37 -5.781ZM54.03 0M54.14 0L59.19 -13.02L61.89 -13.02L66.92 0L64.14 0L62.83 -3.469L57.44 -3.469L56.11 0L54.14 0M58.11 -5.203L62.16 -5.203L60.13 -10.39L58.11 -5.203ZM67.03 0M68.33 0L68.33 -9.656L70.94 -9.656L70.94 -8.047Q72.42 -9.875 74.22 -9.875Q76.84 -9.875 76.84 -6.828L76.84 0L74.23 0L74.23 -6.172Q74.23 -7.125 74.02 -7.469Q73.8 -7.828 73.19 -7.828Q72.14 -7.828 70.94 -6.297L70.94 0L68.33 0ZM78.03 0M87.48 -1.484L87.55 -0.03125Q86.72 0.2188 86.09 0.2188Q84.48 0.2188 84.03 -1.031L83.92 -1.031Q82.98 0.2188 81.5 0.2188Q80.22 0.2188 79.42 -0.5469Q78.64 -1.344 78.64 -2.609Q78.64 -5.891 83.22 -5.891L83.92 -5.891L83.92 -6.766Q83.92 -8.266 82.41 -8.266Q81.05 -8.266 79.48 -7.406L79.48 -9.203Q81.08 -9.875 82.83 -9.875Q86.42 -9.875 86.42 -6.859L86.42 -2.578Q86.42 -1.453 87.14 -1.453Q87.28 -1.453 87.48 -1.484M83.92 -2.438L83.92 -4.391L83.31 -4.391Q81.14 -4.391 81.14 -2.828Q81.14 -2.281 81.5 -1.906Q81.86 -1.547 82.42 -1.547Q83.33 -1.547 83.92 -2.438ZM88.05 0M93.23 -1.594L93.23 0Q92.66 0.2188 91.98 0.2188Q89.23 0.2188 89.23 -2.938L89.23 -13.88L91.83 -13.88L91.83 -3.281Q91.83 -2.203 92.02 -1.859Q92.2 -1.516 92.78 -1.516Q93.02 -1.516 93.23 -1.594ZM93.42 0M97.11 0L93.64 -9.656L96.39 -9.656L98.61 -3.406L101.3 -9.656L103.2 -9.656L97.58 3.469L94.92 3.469L97.11 0ZM103.4 0M109.3 -1.641L109.3 -0.01562Q108.3 0.2188 107.6 0.2188Q104.9 0.2188 104.9 -2.938L104.9 -8.031L103.8 -8.031L103.8 -9.656L104.9 -9.656L104.9 -11.55L107.5 -11.84L107.5 -9.656L109.3 -9.656L109.3 -8.031L107.5 -8.031L107.5 -3.281Q107.5 -2.203 107.6 -1.859Q107.8 -1.516 108.4 -1.516Q108.8 -1.516 109.3 -1.641ZM109.4 0M110.7 0L110.7 -9.656L113.3 -9.656L113.3 0L110.7 0M110.7 -11.41L110.7 -13.88L113.4 -13.88L113.4 -11.41L110.7 -11.41ZM114.6 0M123.9 -2.016L123.9 -0.2188Q122.1 0.2188 120.6 0.2188Q118.1 0.2188 116.7 -1.094Q115.3 -2.422 115.3 -4.828Q115.3 -9.875 120.8 -9.875Q122.3 -9.875 123.8 -9.5L123.8 -7.609Q122 -8.125 121 -8.125Q118.1 -8.125 118.1 -4.844Q118.1 -3.281 118.9 -2.391Q119.7 -1.5 121.2 -1.5Q122.3 -1.5 123.9 -2.016ZM124.7 0M125.7 -0.3125L125.7 -2.219Q127.8 -1.406 129.1 -1.406Q131.1 -1.406 131.1 -2.469Q131.1 -3.109 129.5 -3.734L128.7 -4.078Q126.9 -4.812 126.3 -5.344Q125.8 -5.875 125.8 -6.953Q125.8 -9.875 129.8 -9.875Q131.2 -9.875 133 -9.531L133 -7.75Q131.1 -8.25 130.2 -8.25Q128.3 -8.25 128.3 -7.266Q128.3 -6.656 129.8 -6.125L130.5 -5.844Q132.5 -5.109 133.1 -4.484Q133.8 -3.875 133.8 -2.781Q133.8 -1.406 132.5 -0.5938Q131.3 0.2188 129.3 0.2188Q127.5 0.2188 125.7 -0.3125Z" fill="#111827" transform="translate(116,82.2)"/><path d="M3.719 0L3.719 -31.8L17.58 -31.8Q27.27 -31.8 27.27 -23.91Q27.27 -17.62 21.09 -14.84L31.5 0L24.06 0L15.12 -13L9.953 -13L9.953 0L3.719 0M9.953 -17.36L13.42 -17.36Q20.62 -17.36 20.62 -23.19Q20.62 -27.44 14.2 -27.44L9.953 -27.44L9.953 -17.36ZM31.78 0M53.94 -5.266L53.94 -0.7969Q50 0.5312 46.05 0.5312Q40.14 0.5312 36.75 -2.844Q33.38 -6.234 33.38 -12.12Q33.38 -17.58 36.31 -20.84Q39.28 -24.12 44.17 -24.12Q49.25 -24.12 51.59 -20.86Q53.94 -17.62 53.94 -10.53L40.08 -10.53Q40.73 -3.781 47.14 -3.781Q50.17 -3.781 53.94 -5.266M40.02 -14.11L47.69 -14.11Q47.69 -20.16 44.26 -20.16Q40.66 -20.16 40.02 -14.11ZM56.25 0M79.37 -3.625L79.52 -0.0625Q77.5 0.5312 75.97 0.5312Q72.05 0.5312 70.92 -2.531L70.64 -2.531Q68.34 0.5312 64.72 0.5312Q61.58 0.5312 59.64 -1.359Q57.73 -3.266 57.73 -6.359Q57.73 -14.39 68.95 -14.39L70.64 -14.39L70.64 -16.55Q70.64 -20.22 66.95 -20.22Q63.62 -20.22 59.81 -18.11L59.81 -22.5Q63.7 -24.12 67.98 -24.12Q76.75 -24.12 76.75 -16.77L76.75 -6.312Q76.75 -3.547 78.52 -3.547Q78.86 -3.547 79.37 -3.625M70.64 -5.953L70.64 -10.75L69.14 -10.75Q63.83 -10.75 63.83 -6.922Q63.83 -5.562 64.72 -4.656Q65.62 -3.781 67 -3.781Q69.19 -3.781 70.64 -5.953ZM80.72 0M93.42 -3.906L93.42 0Q91.99 0.5312 90.34 0.5312Q83.62 0.5312 83.62 -7.203L83.62 -33.92L89.98 -33.92L89.98 -8.031Q89.98 -5.375 90.44 -4.531Q90.88 -3.719 92.3 -3.719Q92.88 -3.719 93.42 -3.906ZM93.84 0M117.3 -14.83L117.3 -10.64L96.08 -10.64L96.08 -14.83L117.3 -14.83ZM119.5 0M133.8 -4L133.8 -0.01562Q131.4 0.5312 129.7 0.5312Q123 0.5312 123 -7.203L123 -19.61L120.5 -19.61L120.5 -23.59L123 -23.59L123 -28.2L129.4 -28.94L129.4 -23.59L133.9 -23.59L133.9 -19.61L129.4 -19.61L129.4 -8.031Q129.4 -5.375 129.8 -4.531Q130.3 -3.719 131.7 -3.719Q132.6 -3.719 133.8 -4ZM134.2 0M137.4 0L137.4 -23.59L143.8 -23.59L143.8 0L137.4 0M137.2 -27.89L137.2 -33.92L144 -33.92L144 -27.89L137.2 -27.89ZM146.9 0M150.1 0L150.1 -23.59L156.5 -23.59L156.5 -19.69Q159.3 -24.12 163.7 -24.12Q168.4 -24.12 169.8 -19.61Q172.4 -24.12 177 -24.12Q183.1 -24.12 183.1 -16.67L183.1 0L176.8 0L176.8 -15.11Q176.8 -17.47 176.3 -18.28Q175.9 -19.12 174.6 -19.12Q171.9 -19.12 169.8 -15.39L169.8 0L163.4 0L163.4 -15.11Q163.4 -17.47 163 -18.28Q162.5 -19.12 161.3 -19.12Q158.5 -19.12 156.5 -15.39L156.5 0L150.1 0ZM186 0M208.2 -5.266L208.2 -0.7969Q204.3 0.5312 200.3 0.5312Q194.4 0.5312 191 -2.844Q187.6 -6.234 187.6 -12.12Q187.6 -17.58 190.6 -20.84Q193.5 -24.12 198.4 -24.12Q203.5 -24.12 205.9 -20.86Q208.2 -17.62 208.2 -10.53L194.3 -10.53Q195 -3.781 201.4 -3.781Q204.4 -3.781 208.2 -5.266M194.3 -14.11L202 -14.11Q202 -20.16 198.5 -20.16Q194.9 -20.16 194.3 -14.11Z" fill="#111827" transform="translate(64,249)"/><path d="M17.34 -3.906Q13.98 0.5312 9.953 0.5312Q6.25 0.5312 3.969 -2.672Q1.719 -5.891 1.719 -11.16Q1.719 -17.25 4.641 -20.69Q7.578 -24.12 12.81 -24.12Q14.55 -24.12 17.34 -23.59L17.34 -33.92L23.7 -33.92L23.7 0L17.34 0L17.34 -3.906M17.34 -19.81Q14.95 -20.22 13.77 -20.22Q8.484 -20.22 8.484 -12.03Q8.484 -4.453 12.33 -4.453Q14.91 -4.453 17.34 -8.203L17.34 -19.81ZM26.88 0M50 -3.625L50.14 -0.0625Q48.12 0.5312 46.59 0.5312Q42.67 0.5312 41.55 -2.531L41.27 -2.531Q38.97 0.5312 35.34 0.5312Q32.2 0.5312 30.27 -1.359Q28.36 -3.266 28.36 -6.359Q28.36 -14.39 39.58 -14.39L41.27 -14.39L41.27 -16.55Q41.27 -20.22 37.58 -20.22Q34.25 -20.22 30.44 -18.11L30.44 -22.5Q34.33 -24.12 38.61 -24.12Q47.38 -24.12 47.38 -16.77L47.38 -6.312Q47.38 -3.547 49.14 -3.547Q49.48 -3.547 50 -3.625M41.27 -5.953L41.27 -10.75L39.77 -10.75Q34.45 -10.75 34.45 -6.922Q34.45 -5.562 35.34 -4.656Q36.25 -3.781 37.62 -3.781Q39.81 -3.781 41.27 -5.953ZM51.34 0M53.98 -0.7812L53.98 -5.422Q58.92 -3.438 62.29 -3.438Q67.04 -3.438 67.04 -6.016Q67.04 -7.578 63.29 -9.109L61.14 -9.969Q56.73 -11.75 55.41 -13.06Q54.09 -14.38 54.09 -17Q54.09 -24.12 64.04 -24.12Q67.43 -24.12 71.73 -23.3L71.73 -18.92Q67 -20.16 64.81 -20.16Q60.37 -20.16 60.37 -17.75Q60.37 -16.28 63.82 -14.97L65.67 -14.27Q70.4 -12.48 71.98 -10.95Q73.61 -9.453 73.61 -6.797Q73.61 -3.438 70.64 -1.438Q67.68 0.5312 62.7 0.5312Q58.33 0.5312 53.98 -0.7812ZM75.81 0M79 0L79 -33.92L85.36 -33.92L85.36 -19.69Q88.98 -24.12 93.36 -24.12Q99.79 -24.12 99.79 -16.67L99.79 0L93.43 0L93.43 -15.11Q93.43 -17.41 92.87 -18.27Q92.33 -19.12 90.87 -19.12Q88.29 -19.12 85.36 -15.39L85.36 0L79 0ZM102.7 0M112.2 0L105.9 0L105.9 -33.92L112.2 -33.92L112.2 -19.69Q115.6 -24.12 119.6 -24.12Q123.3 -24.12 125.6 -20.91Q127.9 -17.7 127.9 -12.44Q127.9 -6.344 124.9 -2.906Q122 0.5312 116.8 0.5312Q115 0.5312 112.2 0M112.2 -3.781Q114.6 -3.375 115.8 -3.375Q121.1 -3.375 121.1 -11.56Q121.1 -19.14 117.2 -19.14Q114.7 -19.14 112.2 -15.39L112.2 -3.781ZM129.6 0M142.9 0.5312Q137.6 0.5312 134.4 -2.844Q131.2 -6.234 131.2 -11.8Q131.2 -17.42 134.4 -20.78Q137.6 -24.12 143 -24.12Q148.4 -24.12 151.6 -20.78Q154.8 -17.42 154.8 -11.84Q154.8 -6.141 151.6 -2.797Q148.4 0.5312 142.9 0.5312M143 -3.438Q145.4 -3.438 146.7 -5.672Q148.1 -7.922 148.1 -11.84Q148.1 -15.64 146.7 -17.89Q145.3 -20.16 143 -20.16Q140.7 -20.16 139.3 -17.89Q137.9 -15.64 137.9 -11.8Q137.9 -8 139.3 -5.719Q140.7 -3.438 143 -3.438ZM156.4 0M179.6 -3.625L179.7 -0.0625Q177.7 0.5312 176.2 0.5312Q172.2 0.5312 171.1 -2.531L170.8 -2.531Q168.5 0.5312 164.9 0.5312Q161.8 0.5312 159.8 -1.359Q157.9 -3.266 157.9 -6.359Q157.9 -14.39 169.1 -14.39L170.8 -14.39L170.8 -16.55Q170.8 -20.22 167.1 -20.22Q163.8 -20.22 160 -18.11L160 -22.5Q163.9 -24.12 168.2 -24.12Q176.9 -24.12 176.9 -16.77L176.9 -6.312Q176.9 -3.547 178.7 -3.547Q179 -3.547 179.6 -3.625M170.8 -5.953L170.8 -10.75L169.3 -10.75Q164 -10.75 164 -6.922Q164 -5.562 164.9 -4.656Q165.8 -3.781 167.2 -3.781Q169.4 -3.781 170.8 -5.953ZM180.9 0M184.6 0L184.6 -23.59L191 -23.59L191 -19.69Q192.8 -24.12 196.3 -24.12Q196.8 -24.12 197.3 -24L197.3 -18.33Q196.1 -18.83 195.3 -18.83Q192.8 -18.83 191 -15.52L191 0L184.6 0ZM198 0M215.4 -3.906Q212 0.5312 208 0.5312Q204.3 0.5312 202 -2.672Q199.8 -5.891 199.8 -11.16Q199.8 -17.25 202.7 -20.69Q205.6 -24.12 210.8 -24.12Q212.6 -24.12 215.4 -23.59L215.4 -33.92L221.7 -33.92L221.7 0L215.4 0L215.4 -3.906M215.4 -19.81Q213 -20.22 211.8 -20.22Q206.5 -20.22 206.5 -12.03Q206.5 -4.453 210.4 -4.453Q212.9 -4.453 215.4 -8.203L215.4 -19.81ZM224.9 0M227.5 -0.7812L227.5 -5.422Q232.5 -3.438 235.9 -3.438Q240.6 -3.438 240.6 -6.016Q240.6 -7.578 236.9 -9.109L234.7 -9.969Q230.3 -11.75 229 -13.06Q227.7 -14.38 227.7 -17Q227.7 -24.12 237.6 -24.12Q241 -24.12 245.3 -23.3L245.3 -18.92Q240.6 -20.16 238.4 -20.16Q233.9 -20.16 233.9 -17.75Q233.9 -16.28 237.4 -14.97L239.2 -14.27Q244 -12.48 245.5 -10.95Q247.2 -9.453 247.2 -6.797Q247.2 -3.438 244.2 -1.438Q241.2 0.5312 236.3 0.5312Q231.9 0.5312 227.5 -0.7812ZM261.6 0M265.2 0L265.2 -19.61L262.7 -19.61L262.7 -23.59L265.2 -23.59L265.2 -25.28Q265.2 -34.47 273.5 -34.47Q275.3 -34.47 277.4 -33.91L277.4 -29.78Q275.6 -30.48 274.3 -30.48Q271.5 -30.48 271.5 -25.53L271.5 -23.59L275.5 -23.59L275.5 -19.61L271.5 -19.61L271.5 0L265.2 0ZM276.2 0M289.6 0.5312Q284.3 0.5312 281 -2.844Q277.8 -6.234 277.8 -11.8Q277.8 -17.42 281.1 -20.78Q284.3 -24.12 289.7 -24.12Q295.1 -24.12 298.3 -20.78Q301.5 -17.42 301.5 -11.84Q301.5 -6.141 298.3 -2.797Q295.1 0.5312 289.6 0.5312M289.6 -3.438Q292.1 -3.438 293.4 -5.672Q294.8 -7.922 294.8 -11.84Q294.8 -15.64 293.4 -17.89Q292 -20.16 289.7 -20.16Q287.3 -20.16 286 -17.89Q284.6 -15.64 284.6 -11.8Q284.6 -8 286 -5.719Q287.3 -3.438 289.6 -3.438ZM303.1 0M306.8 0L306.8 -23.59L313.2 -23.59L313.2 -19.69Q315 -24.12 318.5 -24.12Q319 -24.12 319.6 -24L319.6 -18.33Q318.4 -18.83 317.5 -18.83Q315 -18.83 313.2 -15.52L313.2 0L306.8 0Z" fill="#111827" transform="translate(64,301.8)"/><path d="M9 0L0.5312 -23.59L7.234 -23.59L12.7 -8.344L19.19 -23.59L23.91 -23.59L10.16 8.484L3.672 8.484L9 0ZM24.47 0M37.77 0.5312Q32.48 0.5312 29.27 -2.844Q26.06 -6.234 26.06 -11.8Q26.06 -17.42 29.28 -20.78Q32.5 -24.12 37.89 -24.12Q43.3 -24.12 46.52 -20.78Q49.75 -17.42 49.75 -11.84Q49.75 -6.141 46.52 -2.797Q43.3 0.5312 37.77 0.5312M37.86 -3.438Q40.27 -3.438 41.64 -5.672Q43.02 -7.922 43.02 -11.84Q43.02 -15.64 41.61 -17.89Q40.24 -20.16 37.89 -20.16Q35.56 -20.16 34.19 -17.89Q32.81 -15.64 32.81 -11.8Q32.81 -8 34.19 -5.719Q35.56 -3.438 37.86 -3.438ZM51.34 0M68.7 0L68.7 -3.906Q65.07 0.5312 60.67 0.5312Q54.27 0.5312 54.27 -6.922L54.27 -23.59L60.62 -23.59L60.62 -8.484Q60.62 -6.188 61.16 -5.328Q61.7 -4.469 63.18 -4.469Q65.73 -4.469 68.7 -8.203L68.7 -23.59L75.06 -23.59L75.06 0L68.7 0ZM78.22 0M81.94 0L81.94 -23.59L88.3 -23.59L88.3 -19.69Q90.08 -24.12 93.58 -24.12Q94.08 -24.12 94.66 -24L94.66 -18.33Q93.45 -18.83 92.64 -18.83Q90.08 -18.83 88.3 -15.52L88.3 0L81.94 0ZM107.6 0M129.7 -5.266L129.7 -0.7969Q125.8 0.5312 121.8 0.5312Q115.9 0.5312 112.5 -2.844Q109.2 -6.234 109.2 -12.12Q109.2 -17.58 112.1 -20.84Q115.1 -24.12 120 -24.12Q125 -24.12 127.4 -20.86Q129.7 -17.62 129.7 -10.53L115.9 -10.53Q116.5 -3.781 122.9 -3.781Q126 -3.781 129.7 -5.266M115.8 -14.11L123.5 -14.11Q123.5 -20.16 120 -20.16Q116.4 -20.16 115.8 -14.11ZM132 0M135.2 0L135.2 -23.59L141.6 -23.59L141.6 -19.69Q145.2 -24.12 149.6 -24.12Q156 -24.12 156 -16.67L156 0L149.7 0L149.7 -15.11Q149.7 -17.41 149.1 -18.27Q148.6 -19.12 147.1 -19.12Q144.5 -19.12 141.6 -15.39L141.6 0L135.2 0ZM158.9 0M173.2 -4L173.2 -0.01562Q170.7 0.5312 169.1 0.5312Q162.4 0.5312 162.4 -7.203L162.4 -19.61L159.8 -19.61L159.8 -23.59L162.4 -23.59L162.4 -28.2L168.8 -28.94L168.8 -23.59L173.3 -23.59L173.3 -19.61L168.8 -19.61L168.8 -8.031Q168.8 -5.375 169.2 -4.531Q169.7 -3.719 171.1 -3.719Q171.9 -3.719 173.2 -4ZM173.6 0M176.8 0L176.8 -23.59L183.1 -23.59L183.1 0L176.8 0M176.5 -27.89L176.5 -33.92L183.3 -33.92L183.3 -27.89L176.5 -27.89ZM186.3 0M190 0L190 -23.59L196.4 -23.59L196.4 -19.69Q198.1 -24.12 201.6 -24.12Q202.1 -24.12 202.7 -24L202.7 -18.33Q201.5 -18.83 200.7 -18.83Q198.1 -18.83 196.4 -15.52L196.4 0L190 0ZM203.4 0M225.6 -5.266L225.6 -0.7969Q221.6 0.5312 217.7 0.5312Q211.8 0.5312 208.4 -2.844Q205 -6.234 205 -12.12Q205 -17.58 207.9 -20.84Q210.9 -24.12 215.8 -24.12Q220.9 -24.12 223.2 -20.86Q225.6 -17.62 225.6 -10.53L211.7 -10.53Q212.4 -3.781 218.8 -3.781Q221.8 -3.781 225.6 -5.266M211.6 -14.11L219.3 -14.11Q219.3 -20.16 215.9 -20.16Q212.3 -20.16 211.6 -14.11ZM240.1 0M254.4 -4L254.4 -0.01562Q251.9 0.5312 250.3 0.5312Q243.6 0.5312 243.6 -7.203L243.6 -19.61L241 -19.61L241 -23.59L243.6 -23.59L243.6 -28.2L249.9 -28.94L249.9 -23.59L254.5 -23.59L254.5 -19.61L249.9 -19.61L249.9 -8.031Q249.9 -5.375 250.4 -4.531Q250.8 -3.719 252.3 -3.719Q253.1 -3.719 254.4 -4ZM254.8 0M276.9 -5.266L276.9 -0.7969Q273 0.5312 269 0.5312Q263.1 0.5312 259.7 -2.844Q256.3 -6.234 256.3 -12.12Q256.3 -17.58 259.3 -20.84Q262.2 -24.12 267.1 -24.12Q272.2 -24.12 274.6 -20.86Q276.9 -17.62 276.9 -10.53L263 -10.53Q263.7 -3.781 270.1 -3.781Q273.1 -3.781 276.9 -5.266M263 -14.11L270.7 -14.11Q270.7 -20.16 267.2 -20.16Q263.6 -20.16 263 -14.11ZM279.2 0M302.3 -3.625L302.5 -0.0625Q300.5 0.5312 298.9 0.5312Q295 0.5312 293.9 -2.531L293.6 -2.531Q291.3 0.5312 287.7 0.5312Q284.5 0.5312 282.6 -1.359Q280.7 -3.266 280.7 -6.359Q280.7 -14.39 291.9 -14.39L293.6 -14.39L293.6 -16.55Q293.6 -20.22 289.9 -20.22Q286.6 -20.22 282.8 -18.11L282.8 -22.5Q286.7 -24.12 290.9 -24.12Q299.7 -24.12 299.7 -16.77L299.7 -6.312Q299.7 -3.547 301.5 -3.547Q301.8 -3.547 302.3 -3.625M293.6 -5.953L293.6 -10.75L292.1 -10.75Q286.8 -10.75 286.8 -6.922Q286.8 -5.562 287.7 -4.656Q288.6 -3.781 290 -3.781Q292.2 -3.781 293.6 -5.953ZM303.7 0M306.9 0L306.9 -23.59L313.2 -23.59L313.2 -19.69Q316.1 -24.12 320.5 -24.12Q325.2 -24.12 326.6 -19.61Q329.2 -24.12 333.8 -24.12Q339.9 -24.12 339.9 -16.67L339.9 0L333.5 0L333.5 -15.11Q333.5 -17.47 333.1 -18.28Q332.7 -19.12 331.4 -19.12Q328.6 -19.12 326.6 -15.39L326.6 0L320.2 0L320.2 -15.11Q320.2 -17.47 319.8 -18.28Q319.3 -19.12 318 -19.12Q315.3 -19.12 313.2 -15.39L313.2 0L306.9 0Z" fill="#111827" transform="translate(64,354.6)"/><path d="M4.312 0L4.312 -10.98L0.1719 -10.98L0.1719 -12.28L10.2 -12.28L10.2 -10.98L6.062 -10.98L6.062 0L4.312 0ZM10.39 0M11.67 0L11.67 -9.016L13.3 -9.016L13.3 -7.328Q14.05 -9.219 15.47 -9.219Q15.66 -9.219 15.94 -9.172L15.94 -7.641Q15.52 -7.781 15.25 -7.781Q14.3 -7.781 13.3 -5.938L13.3 0L11.67 0ZM16.05 0M22.47 -1.141Q21 0.2031 19.5 0.2031Q18.31 0.2031 17.58 -0.4844Q16.83 -1.172 16.83 -2.281Q16.83 -5.328 21.84 -5.328L22.23 -5.328L22.23 -6.422Q22.23 -7.984 20.52 -7.984Q19.11 -7.984 17.61 -7.188L17.61 -8.547Q19.27 -9.219 20.8 -9.219Q22.41 -9.219 23.14 -8.547Q23.86 -7.875 23.86 -6.422L23.86 -2.328Q23.86 -0.9375 24.73 -0.9375Q24.84 -0.9375 25.05 -0.9688L25.16 -0.0625Q24.59 0.2031 23.92 0.2031Q22.78 0.2031 22.47 -1.141M22.23 -2.031L22.23 -4.359L21.69 -4.391Q18.53 -4.391 18.53 -2.562Q18.53 -1.125 20.05 -1.125Q21.12 -1.125 22.23 -2.031ZM25.5 0M33.19 -0.2812Q31.77 0.2031 30.3 0.2031Q28.48 0.2031 27.34 -1.094Q26.22 -2.406 26.22 -4.484Q26.22 -6.719 27.38 -7.953Q28.53 -9.219 30.59 -9.219Q31.69 -9.219 33.09 -8.922L33.09 -7.547Q31.77 -7.953 30.92 -7.953Q28.02 -7.953 28.02 -4.484Q28.02 -2.875 28.77 -2Q29.53 -1.109 30.86 -1.109Q31.89 -1.109 33.19 -1.688L33.19 -0.2812ZM34 0M35.28 0L35.28 -13.11L36.91 -13.11L36.91 -4.641L39.94 -9.016L41.5 -9.016L38.61 -4.75L42.34 0L40.36 0L36.91 -4.625L36.91 0L35.28 0ZM47.22 0M48.5 0L48.5 -9.016L50.12 -9.016L50.12 -7.328Q50.89 -8.469 51.41 -8.844Q51.92 -9.219 52.75 -9.219Q54.53 -9.219 55.17 -7.328Q55.92 -8.469 56.44 -8.844Q56.95 -9.219 57.78 -9.219Q60.2 -9.219 60.2 -6.562L60.2 0L58.56 0L58.56 -6.297Q58.56 -7.859 57.33 -7.859Q56.27 -7.859 55.17 -6.047L55.17 0L53.53 0L53.53 -6.297Q53.53 -7.859 52.3 -7.859Q51.23 -7.859 50.12 -6.047L50.12 0L48.5 0ZM61.38 0M68.17 -5.484Q68.17 -8 66.12 -8Q64.03 -8 63.83 -5.484L68.17 -5.484M69.78 -1.578L69.78 -0.2969Q68.17 0.2031 66.66 0.2031Q64.58 0.2031 63.33 -1.109Q62.09 -2.422 62.09 -4.609Q62.09 -6.719 63.19 -7.969Q64.28 -9.219 66.16 -9.219Q69.83 -9.219 69.83 -4.75L69.83 -4.25L63.81 -4.25Q64.05 -1.031 67.03 -1.031Q68.33 -1.031 69.78 -1.578ZM70.83 0M75.23 0.04688Q74.75 0.2031 74.31 0.2031Q72.09 0.2031 72.09 -2.484L72.09 -7.781L71.03 -7.781L71.03 -9.016L72.09 -9.016L72.09 -10.91L73.72 -11.06L73.72 -9.016L75.72 -9.016L75.72 -7.781L73.72 -7.781L73.72 -2.797Q73.72 -1.703 73.91 -1.359Q74.09 -1.016 74.66 -1.016Q75 -1.016 75.23 -1.109L75.23 0.04688ZM75.64 0M76.92 0L76.92 -9.016L78.55 -9.016L78.55 -7.328Q79.3 -9.219 80.72 -9.219Q80.91 -9.219 81.19 -9.172L81.19 -7.641Q80.77 -7.781 80.5 -7.781Q79.55 -7.781 78.55 -5.938L78.55 0L76.92 0ZM81.3 0M82.58 0L82.58 -9.016L84.2 -9.016L84.2 0L82.58 0M82.5 -10.66L82.5 -12.45L84.3 -12.45L84.3 -10.66L82.5 -10.66ZM85.48 0M93.17 -0.2812Q91.75 0.2031 90.28 0.2031Q88.47 0.2031 87.33 -1.094Q86.2 -2.406 86.2 -4.484Q86.2 -6.719 87.36 -7.953Q88.52 -9.219 90.58 -9.219Q91.67 -9.219 93.08 -8.922L93.08 -7.547Q91.75 -7.953 90.91 -7.953Q88 -7.953 88 -4.484Q88 -2.875 88.75 -2Q89.52 -1.109 90.84 -1.109Q91.88 -1.109 93.17 -1.688L93.17 -0.2812ZM93.98 0M94.95 -0.3125L94.95 -1.812Q96.56 -1.016 97.98 -1.016Q99.88 -1.016 99.88 -2.391Q99.88 -3.25 98.56 -3.688L97.09 -4.172Q95 -4.875 95 -6.688Q95 -9.219 98.45 -9.219Q99.45 -9.219 100.8 -8.953L100.8 -7.578Q99.63 -7.984 98.28 -7.984Q96.61 -7.984 96.61 -6.844Q96.61 -6.062 97.78 -5.672L99.09 -5.25Q101.5 -4.438 101.5 -2.531Q101.5 -1.25 100.6 -0.5156Q99.59 0.2031 97.92 0.2031Q96.56 0.2031 94.95 -0.3125ZM102.5 0M104.1 2.906L104.1 2.297Q104.9 2.062 104.9 0.1719L104.9 0L104.1 0L104.1 -2.047L106.2 -2.047L106.2 -0.2812Q106.2 2.906 104.1 2.906ZM112.6 0M113.5 -0.3125L113.5 -1.812Q115.2 -1.016 116.6 -1.016Q118.5 -1.016 118.5 -2.391Q118.5 -3.25 117.2 -3.688L115.7 -4.172Q113.6 -4.875 113.6 -6.688Q113.6 -9.219 117 -9.219Q118 -9.219 119.4 -8.953L119.4 -7.578Q118.2 -7.984 116.9 -7.984Q115.2 -7.984 115.2 -6.844Q115.2 -6.062 116.4 -5.672L117.7 -5.25Q120.1 -4.438 120.1 -2.531Q120.1 -1.25 119.2 -0.5156Q118.2 0.2031 116.5 0.2031Q115.2 0.2031 113.5 -0.3125ZM121.1 0M127.9 -5.484Q127.9 -8 125.8 -8Q123.7 -8 123.5 -5.484L127.9 -5.484M129.5 -1.578L129.5 -0.2969Q127.9 0.2031 126.4 0.2031Q124.3 0.2031 123 -1.109Q121.8 -2.422 121.8 -4.609Q121.8 -6.719 122.9 -7.969Q124 -9.219 125.9 -9.219Q129.5 -9.219 129.5 -4.75L129.5 -4.25L123.5 -4.25Q123.8 -1.031 126.7 -1.031Q128 -1.031 129.5 -1.578ZM130.5 0M134.9 0.04688Q134.5 0.2031 134 0.2031Q131.8 0.2031 131.8 -2.484L131.8 -7.781L130.7 -7.781L130.7 -9.016L131.8 -9.016L131.8 -10.91L133.4 -11.06L133.4 -9.016L135.4 -9.016L135.4 -7.781L133.4 -7.781L133.4 -2.797Q133.4 -1.703 133.6 -1.359Q133.8 -1.016 134.4 -1.016Q134.7 -1.016 134.9 -1.109L134.9 0.04688ZM140.1 0M146.5 -1.141Q145 0.2031 143.5 0.2031Q142.3 0.2031 141.6 -0.4844Q140.8 -1.172 140.8 -2.281Q140.8 -5.328 145.9 -5.328L146.3 -5.328L146.3 -6.422Q146.3 -7.984 144.5 -7.984Q143.1 -7.984 141.6 -7.188L141.6 -8.547Q143.3 -9.219 144.8 -9.219Q146.4 -9.219 147.2 -8.547Q147.9 -7.875 147.9 -6.422L147.9 -2.328Q147.9 -0.9375 148.8 -0.9375Q148.9 -0.9375 149.1 -0.9688L149.2 -0.0625Q148.6 0.2031 147.9 0.2031Q146.8 0.2031 146.5 -1.141M146.3 -2.031L146.3 -4.359L145.7 -4.391Q142.5 -4.391 142.5 -2.562Q142.5 -1.125 144.1 -1.125Q145.1 -1.125 146.3 -2.031ZM149.5 0M152.4 -2.797Q152.4 -2.312 152.5 -1.969Q152.6 -1.641 152.8 -1.422Q153 -1.219 153.2 -1.125Q153.5 -1.016 153.9 -1.031L153.9 0.1562Q153.7 0.2031 153.4 0.2031Q152.8 0.2031 152.3 0.03125Q151.8 -0.1562 151.5 -0.5Q151.2 -0.8438 151 -1.344Q150.8 -1.844 150.8 -2.484L150.8 -13.11L152.4 -13.11L152.4 -2.797ZM154.1 0M160.9 -5.484Q160.9 -8 158.8 -8Q156.7 -8 156.5 -5.484L160.9 -5.484M162.5 -1.578L162.5 -0.2969Q160.9 0.2031 159.3 0.2031Q157.3 0.2031 156 -1.109Q154.8 -2.422 154.8 -4.609Q154.8 -6.719 155.9 -7.969Q157 -9.219 158.8 -9.219Q162.5 -9.219 162.5 -4.75L162.5 -4.25L156.5 -4.25Q156.7 -1.031 159.7 -1.031Q161 -1.031 162.5 -1.578ZM163.5 0M164.8 0L164.8 -9.016L166.4 -9.016L166.4 -7.328Q167.2 -9.219 168.6 -9.219Q168.8 -9.219 169.1 -9.172L169.1 -7.641Q168.6 -7.781 168.4 -7.781Q167.4 -7.781 166.4 -5.938L166.4 0L164.8 0ZM169.2 0M173.6 0.04688Q173.1 0.2031 172.7 0.2031Q170.4 0.2031 170.4 -2.484L170.4 -7.781L169.4 -7.781L169.4 -9.016L170.4 -9.016L170.4 -10.91L172.1 -11.06L172.1 -9.016L174.1 -9.016L174.1 -7.781L172.1 -7.781L172.1 -2.797Q172.1 -1.703 172.2 -1.359Q172.4 -1.016 173 -1.016Q173.3 -1.016 173.6 -1.109L173.6 0.04688ZM174 0M175 -0.3125L175 -1.812Q176.6 -1.016 178 -1.016Q179.9 -1.016 179.9 -2.391Q179.9 -3.25 178.6 -3.688L177.1 -4.172Q175 -4.875 175 -6.688Q175 -9.219 178.5 -9.219Q179.5 -9.219 180.8 -8.953L180.8 -7.578Q179.6 -7.984 178.3 -7.984Q176.6 -7.984 176.6 -6.844Q176.6 -6.062 177.8 -5.672L179.1 -5.25Q181.5 -4.438 181.5 -2.531Q181.5 -1.25 180.6 -0.5156Q179.6 0.2031 177.9 0.2031Q176.6 0.2031 175 -0.3125ZM182.5 0M184.1 2.906L184.1 2.297Q184.9 2.062 184.9 0.1719L184.9 0L184.1 0L184.1 -2.047L186.2 -2.047L186.2 -0.2812Q186.2 2.906 184.1 2.906ZM192.6 0M199 -1.141Q197.5 0.2031 196 0.2031Q194.8 0.2031 194.1 -0.4844Q193.4 -1.172 193.4 -2.281Q193.4 -5.328 198.4 -5.328L198.8 -5.328L198.8 -6.422Q198.8 -7.984 197 -7.984Q195.6 -7.984 194.1 -7.188L194.1 -8.547Q195.8 -9.219 197.3 -9.219Q198.9 -9.219 199.7 -8.547Q200.4 -7.875 200.4 -6.422L200.4 -2.328Q200.4 -0.9375 201.3 -0.9375Q201.4 -0.9375 201.6 -0.9688L201.7 -0.0625Q201.1 0.2031 200.5 0.2031Q199.3 0.2031 199 -1.141M198.8 -2.031L198.8 -4.359L198.2 -4.391Q195.1 -4.391 195.1 -2.562Q195.1 -1.125 196.6 -1.125Q197.7 -1.125 198.8 -2.031ZM202 0M203.3 0L203.3 -9.016L204.9 -9.016L204.9 -7.328Q206.3 -9.219 208 -9.219Q210.3 -9.219 210.3 -6.469L210.3 0L208.7 0L208.7 -5.938Q208.7 -7.031 208.4 -7.422Q208.2 -7.812 207.6 -7.812Q206.2 -7.812 204.9 -5.828L204.9 0L203.3 0ZM211.5 0M218 -3.172L218 -7.781Q216.9 -7.984 216.3 -7.984Q214 -7.984 214 -4.391Q214 -2.938 214.4 -2.078Q214.9 -1.234 215.7 -1.234Q216.8 -1.234 218 -3.172M218 -1.688Q217 0.2031 215.3 0.2031Q213.9 0.2031 213 -1.016Q212.2 -2.234 212.2 -4.25Q212.2 -6.625 213.3 -7.922Q214.4 -9.219 216.5 -9.219Q217.2 -9.219 218 -9.016L218 -13.11L219.7 -13.11L219.7 0L218 0L218 -1.688ZM225.7 0M226.6 -0.3125L226.6 -1.812Q228.2 -1.016 229.7 -1.016Q231.5 -1.016 231.5 -2.391Q231.5 -3.25 230.2 -3.688L228.8 -4.172Q226.7 -4.875 226.7 -6.688Q226.7 -9.219 230.1 -9.219Q231.1 -9.219 232.5 -8.953L232.5 -7.578Q231.3 -7.984 230 -7.984Q228.3 -7.984 228.3 -6.844Q228.3 -6.062 229.5 -5.672L230.8 -5.25Q233.2 -4.438 233.2 -2.531Q233.2 -1.25 232.2 -0.5156Q231.3 0.2031 229.6 0.2031Q228.2 0.2031 226.6 -0.3125ZM234.2 0M235.4 0L235.4 -13.11L237.1 -13.11L237.1 -7.328Q238.4 -9.219 240.1 -9.219Q242.4 -9.219 242.4 -6.469L242.4 0L240.8 0L240.8 -5.938Q240.8 -7.031 240.6 -7.422Q240.3 -7.812 239.7 -7.812Q238.3 -7.812 237.1 -5.828L237.1 0L235.4 0ZM243.6 0M250 -1.141Q248.6 0.2031 247.1 0.2031Q245.9 0.2031 245.1 -0.4844Q244.4 -1.172 244.4 -2.281Q244.4 -5.328 249.4 -5.328L249.8 -5.328L249.8 -6.422Q249.8 -7.984 248.1 -7.984Q246.7 -7.984 245.2 -7.188L245.2 -8.547Q246.8 -9.219 248.4 -9.219Q250 -9.219 250.7 -8.547Q251.4 -7.875 251.4 -6.422L251.4 -2.328Q251.4 -0.9375 252.3 -0.9375Q252.4 -0.9375 252.6 -0.9688L252.7 -0.0625Q252.2 0.2031 251.5 0.2031Q250.3 0.2031 250 -1.141M249.8 -2.031L249.8 -4.359L249.3 -4.391Q246.1 -4.391 246.1 -2.562Q246.1 -1.125 247.6 -1.125Q248.7 -1.125 249.8 -2.031ZM253.1 0M254.3 0L254.3 -9.016L256 -9.016L256 -7.328Q256.7 -9.219 258.1 -9.219Q258.3 -9.219 258.6 -9.172L258.6 -7.641Q258.2 -7.781 257.9 -7.781Q257 -7.781 256 -5.938L256 0L254.3 0ZM258.7 0M265.5 -5.484Q265.5 -8 263.5 -8Q261.4 -8 261.2 -5.484L265.5 -5.484M267.1 -1.578L267.1 -0.2969Q265.5 0.2031 264 0.2031Q261.9 0.2031 260.7 -1.109Q259.4 -2.422 259.4 -4.609Q259.4 -6.719 260.5 -7.969Q261.6 -9.219 263.5 -9.219Q267.2 -9.219 267.2 -4.75L267.2 -4.25L261.2 -4.25Q261.4 -1.031 264.4 -1.031Q265.7 -1.031 267.1 -1.578ZM272.9 0M274.2 0L274.2 -9.016L275.8 -9.016L275.8 0L274.2 0M274.1 -10.66L274.1 -12.45L275.9 -12.45L275.9 -10.66L274.1 -10.66ZM277.1 0M278.4 0L278.4 -9.016L280 -9.016L280 -7.328Q281.3 -9.219 283 -9.219Q285.4 -9.219 285.4 -6.469L285.4 0L283.7 0L283.7 -5.938Q283.7 -7.031 283.5 -7.422Q283.3 -7.812 282.6 -7.812Q281.2 -7.812 280 -5.828L280 0L278.4 0ZM286.5 0M287.5 -0.3125L287.5 -1.812Q289.1 -1.016 290.5 -1.016Q292.4 -1.016 292.4 -2.391Q292.4 -3.25 291.1 -3.688L289.6 -4.172Q287.5 -4.875 287.5 -6.688Q287.5 -9.219 291 -9.219Q292 -9.219 293.4 -8.953L293.4 -7.578Q292.2 -7.984 290.8 -7.984Q289.2 -7.984 289.2 -6.844Q289.2 -6.062 290.3 -5.672L291.6 -5.25Q294.1 -4.438 294.1 -2.531Q294.1 -1.25 293.1 -0.5156Q292.1 0.2031 290.5 0.2031Q289.1 0.2031 287.5 -0.3125ZM295 0M296.3 0L296.3 -9.016L297.9 -9.016L297.9 0L296.3 0M296.2 -10.66L296.2 -12.45L298 -12.45L298 -10.66L296.2 -10.66ZM299.2 0M305.8 -3.594L305.8 -7.781Q304.7 -7.984 304.1 -7.984Q301.8 -7.984 301.8 -4.766Q301.8 -3.328 302.2 -2.484Q302.7 -1.641 303.5 -1.641Q304.5 -1.641 305.8 -3.594M305.8 -2.094Q304.8 -0.2031 303.1 -0.2031Q301.7 -0.2031 300.9 -1.406Q300 -2.625 300 -4.562Q300 -6.781 301.1 -8Q302.2 -9.219 304.2 -9.219Q305 -9.219 305.8 -9.016L307.4 -9.016L307.4 -2.453Q307.4 -0.3281 307.2 0.6875Q307 1.688 306.4 2.344Q305.3 3.484 303.1 3.484Q301.5 3.484 300 3L300 1.578Q301.8 2.25 303 2.25Q305.8 2.25 305.8 -0.6875L305.8 -2.094ZM308.7 0M310 0L310 -13.11L311.6 -13.11L311.6 -7.328Q312.9 -9.219 314.6 -9.219Q317 -9.219 317 -6.469L317 0L315.3 0L315.3 -5.938Q315.3 -7.031 315.1 -7.422Q314.8 -7.812 314.2 -7.812Q312.8 -7.812 311.6 -5.828L311.6 0L310 0ZM318.1 0M322.5 0.04688Q322 0.2031 321.6 0.2031Q319.4 0.2031 319.4 -2.484L319.4 -7.781L318.3 -7.781L318.3 -9.016L319.4 -9.016L319.4 -10.91L321 -11.06L321 -9.016L323 -9.016L323 -7.781L321 -7.781L321 -2.797Q321 -1.703 321.2 -1.359Q321.4 -1.016 322 -1.016Q322.3 -1.016 322.5 -1.109L322.5 0.04688ZM322.9 0M323.9 -0.3125L323.9 -1.812Q325.5 -1.016 326.9 -1.016Q328.8 -1.016 328.8 -2.391Q328.8 -3.25 327.5 -3.688L326 -4.172Q324 -4.875 324 -6.688Q324 -9.219 327.4 -9.219Q328.4 -9.219 329.8 -8.953L329.8 -7.578Q328.6 -7.984 327.2 -7.984Q325.6 -7.984 325.6 -6.844Q325.6 -6.062 326.7 -5.672L328 -5.25Q330.5 -4.438 330.5 -2.531Q330.5 -1.25 329.5 -0.5156Q328.5 0.2031 326.9 0.2031Q325.5 0.2031 323.9 -0.3125Z" fill="#6b7280" transform="translate(64,395.9)"/><path d="M6.422 -1.141Q4.953 0.2031 3.453 0.2031Q2.266 0.2031 1.531 -0.4844Q0.7812 -1.172 0.7812 -2.281Q0.7812 -5.328 5.797 -5.328L6.188 -5.328L6.188 -6.422Q6.188 -7.984 4.469 -7.984Q3.062 -7.984 1.562 -7.188L1.562 -8.547Q3.219 -9.219 4.75 -9.219Q6.359 -9.219 7.094 -8.547Q7.812 -7.875 7.812 -6.422L7.812 -2.328Q7.812 -0.9375 8.688 -0.9375Q8.797 -0.9375 9 -0.9688L9.109 -0.0625Q8.547 0.2031 7.875 0.2031Q6.734 0.2031 6.422 -1.141M6.188 -2.031L6.188 -4.359L5.641 -4.391Q2.484 -4.391 2.484 -2.562Q2.484 -1.125 4 -1.125Q5.078 -1.125 6.188 -2.031ZM9.453 0M17.14 -0.2812Q15.72 0.2031 14.25 0.2031Q12.44 0.2031 11.3 -1.094Q10.17 -2.406 10.17 -4.484Q10.17 -6.719 11.33 -7.953Q12.48 -9.219 14.55 -9.219Q15.64 -9.219 17.05 -8.922L17.05 -7.547Q15.72 -7.953 14.88 -7.953Q11.97 -7.953 11.97 -4.484Q11.97 -2.875 12.72 -2Q13.48 -1.109 14.81 -1.109Q15.84 -1.109 17.14 -1.688L17.14 -0.2812ZM17.95 0M19.23 0L19.23 -9.016L20.86 -9.016L20.86 -7.328Q21.61 -9.219 23.03 -9.219Q23.22 -9.219 23.5 -9.172L23.5 -7.641Q23.08 -7.781 22.81 -7.781Q21.86 -7.781 20.86 -5.938L20.86 0L19.23 0ZM23.61 0M28.28 0.2031Q26.45 0.2031 25.39 -1.078Q24.33 -2.344 24.33 -4.5Q24.33 -6.688 25.39 -7.953Q26.47 -9.219 28.33 -9.219Q30.19 -9.219 31.27 -7.953Q32.34 -6.703 32.34 -4.531Q32.34 -2.297 31.27 -1.047Q30.19 0.2031 28.28 0.2031M28.3 -1.016Q30.58 -1.016 30.58 -4.547Q30.58 -7.984 28.33 -7.984Q26.09 -7.984 26.09 -4.5Q26.09 -1.016 28.3 -1.016ZM33.06 0M34.03 -0.3125L34.03 -1.812Q35.64 -1.016 37.06 -1.016Q38.95 -1.016 38.95 -2.391Q38.95 -3.25 37.64 -3.688L36.17 -4.172Q34.08 -4.875 34.08 -6.688Q34.08 -9.219 37.53 -9.219Q38.53 -9.219 39.91 -8.953L39.91 -7.578Q38.7 -7.984 37.36 -7.984Q35.69 -7.984 35.69 -6.844Q35.69 -6.062 36.86 -5.672L38.17 -5.25Q40.59 -4.438 40.59 -2.531Q40.59 -1.25 39.64 -0.5156Q38.67 0.2031 37 0.2031Q35.64 0.2031 34.03 -0.3125ZM41.56 0M42.53 -0.3125L42.53 -1.812Q44.14 -1.016 45.56 -1.016Q47.45 -1.016 47.45 -2.391Q47.45 -3.25 46.14 -3.688L44.67 -4.172Q42.58 -4.875 42.58 -6.688Q42.58 -9.219 46.03 -9.219Q47.03 -9.219 48.41 -8.953L48.41 -7.578Q47.2 -7.984 45.86 -7.984Q44.19 -7.984 44.19 -6.844Q44.19 -6.062 45.36 -5.672L46.67 -5.25Q49.09 -4.438 49.09 -2.531Q49.09 -1.25 48.14 -0.5156Q47.17 0.2031 45.5 0.2031Q44.14 0.2031 42.53 -0.3125ZM54.78 0M58.14 0L54.94 -9.016L56.59 -9.016L59.05 -2.094L61.73 -9.016L63.19 -9.016L58.42 3.281L56.72 3.281L58.14 0ZM63.28 0M67.95 0.2031Q66.13 0.2031 65.06 -1.078Q64 -2.344 64 -4.5Q64 -6.688 65.06 -7.953Q66.14 -9.219 68 -9.219Q69.86 -9.219 70.94 -7.953Q72.02 -6.703 72.02 -4.531Q72.02 -2.297 70.94 -1.047Q69.86 0.2031 67.95 0.2031M67.97 -1.016Q70.25 -1.016 70.25 -4.547Q70.25 -7.984 68 -7.984Q65.77 -7.984 65.77 -4.5Q65.77 -1.016 67.97 -1.016ZM72.73 0M79.27 0L79.27 -1.688Q77.97 0.2031 76.22 0.2031Q73.91 0.2031 73.91 -2.547L73.91 -9.016L75.55 -9.016L75.55 -3.078Q75.55 -1.984 75.77 -1.594Q76 -1.203 76.64 -1.203Q78.03 -1.203 79.27 -3.172L79.27 -9.016L80.91 -9.016L80.91 0L79.27 0ZM82.19 0M83.47 0L83.47 -9.016L85.09 -9.016L85.09 -7.328Q85.84 -9.219 87.27 -9.219Q87.45 -9.219 87.73 -9.172L87.73 -7.641Q87.31 -7.781 87.05 -7.781Q86.09 -7.781 85.09 -5.938L85.09 0L83.47 0ZM92.56 0M97.23 0.2031Q95.41 0.2031 94.34 -1.078Q93.28 -2.344 93.28 -4.5Q93.28 -6.688 94.34 -7.953Q95.42 -9.219 97.28 -9.219Q99.14 -9.219 100.2 -7.953Q101.3 -6.703 101.3 -4.531Q101.3 -2.297 100.2 -1.047Q99.14 0.2031 97.23 0.2031M97.25 -1.016Q99.53 -1.016 99.53 -4.547Q99.53 -7.984 97.28 -7.984Q95.05 -7.984 95.05 -4.5Q95.05 -1.016 97.25 -1.016ZM102 0M103.3 0L103.3 -9.016L104.9 -9.016L104.9 -7.328Q105.7 -9.219 107.1 -9.219Q107.3 -9.219 107.6 -9.172L107.6 -7.641Q107.1 -7.781 106.9 -7.781Q105.9 -7.781 104.9 -5.938L104.9 0L103.3 0ZM107.7 0M114.3 -3.594L114.3 -7.781Q113.1 -7.984 112.6 -7.984Q110.2 -7.984 110.2 -4.766Q110.2 -3.328 110.7 -2.484Q111.1 -1.641 111.9 -1.641Q113 -1.641 114.3 -3.594M114.3 -2.094Q113.3 -0.2031 111.6 -0.2031Q110.2 -0.2031 109.3 -1.406Q108.4 -2.625 108.4 -4.562Q108.4 -6.781 109.5 -8Q110.7 -9.219 112.7 -9.219Q113.5 -9.219 114.3 -9.016L115.9 -9.016L115.9 -2.453Q115.9 -0.3281 115.7 0.6875Q115.5 1.688 114.9 2.344Q113.8 3.484 111.5 3.484Q110 3.484 108.5 3L108.5 1.578Q110.2 2.25 111.5 2.25Q114.3 2.25 114.3 -0.6875L114.3 -2.094ZM117.1 0M123.5 -1.141Q122.1 0.2031 120.6 0.2031Q119.4 0.2031 118.7 -0.4844Q117.9 -1.172 117.9 -2.281Q117.9 -5.328 122.9 -5.328L123.3 -5.328L123.3 -6.422Q123.3 -7.984 121.6 -7.984Q120.2 -7.984 118.7 -7.188L118.7 -8.547Q120.3 -9.219 121.9 -9.219Q123.5 -9.219 124.2 -8.547Q124.9 -7.875 124.9 -6.422L124.9 -2.328Q124.9 -0.9375 125.8 -0.9375Q125.9 -0.9375 126.1 -0.9688L126.2 -0.0625Q125.7 0.2031 125 0.2031Q123.9 0.2031 123.5 -1.141M123.3 -2.031L123.3 -4.359L122.8 -4.391Q119.6 -4.391 119.6 -2.562Q119.6 -1.125 121.1 -1.125Q122.2 -1.125 123.3 -2.031ZM126.6 0M127.9 0L127.9 -9.016L129.5 -9.016L129.5 -7.328Q130.8 -9.219 132.5 -9.219Q134.9 -9.219 134.9 -6.469L134.9 0L133.2 0L133.2 -5.938Q133.2 -7.031 133 -7.422Q132.8 -7.812 132.1 -7.812Q130.7 -7.812 129.5 -5.828L129.5 0L127.9 0ZM136 0M137.3 0L137.3 -9.016L138.9 -9.016L138.9 0L137.3 0M137.2 -10.66L137.2 -12.45L139 -12.45L139 -10.66L137.2 -10.66ZM140.2 0M140.8 0L140.8 -1.234L146 -7.781L141.1 -7.781L141.1 -9.016L148 -9.016L148 -7.781L142.8 -1.234L148.1 -1.234L148.1 0L140.8 0ZM148.7 0M155.1 -1.141Q153.7 0.2031 152.2 0.2031Q151 0.2031 150.2 -0.4844Q149.5 -1.172 149.5 -2.281Q149.5 -5.328 154.5 -5.328L154.9 -5.328L154.9 -6.422Q154.9 -7.984 153.2 -7.984Q151.8 -7.984 150.3 -7.188L150.3 -8.547Q151.9 -9.219 153.5 -9.219Q155.1 -9.219 155.8 -8.547Q156.5 -7.875 156.5 -6.422L156.5 -2.328Q156.5 -0.9375 157.4 -0.9375Q157.5 -0.9375 157.7 -0.9688L157.8 -0.0625Q157.3 0.2031 156.6 0.2031Q155.5 0.2031 155.1 -1.141M154.9 -2.031L154.9 -4.359L154.4 -4.391Q151.2 -4.391 151.2 -2.562Q151.2 -1.125 152.7 -1.125Q153.8 -1.125 154.9 -2.031ZM158.2 0M162.6 0.04688Q162.1 0.2031 161.7 0.2031Q159.4 0.2031 159.4 -2.484L159.4 -7.781L158.4 -7.781L158.4 -9.016L159.4 -9.016L159.4 -10.91L161.1 -11.06L161.1 -9.016L163.1 -9.016L163.1 -7.781L161.1 -7.781L161.1 -2.797Q161.1 -1.703 161.2 -1.359Q161.4 -1.016 162 -1.016Q162.3 -1.016 162.6 -1.109L162.6 0.04688ZM163 0M164.3 0L164.3 -9.016L165.9 -9.016L165.9 0L164.3 0M164.2 -10.66L164.2 -12.45L166 -12.45L166 -10.66L164.2 -10.66ZM167.2 0M171.8 0.2031Q170 0.2031 169 -1.078Q167.9 -2.344 167.9 -4.5Q167.9 -6.688 169 -7.953Q170 -9.219 171.9 -9.219Q173.7 -9.219 174.8 -7.953Q175.9 -6.703 175.9 -4.531Q175.9 -2.297 174.8 -1.047Q173.7 0.2031 171.8 0.2031M171.9 -1.016Q174.1 -1.016 174.1 -4.547Q174.1 -7.984 171.9 -7.984Q169.7 -7.984 169.7 -4.5Q169.7 -1.016 171.9 -1.016ZM176.6 0M177.9 0L177.9 -9.016L179.5 -9.016L179.5 -7.328Q180.8 -9.219 182.6 -9.219Q184.9 -9.219 184.9 -6.469L184.9 0L183.2 0L183.2 -5.938Q183.2 -7.031 183 -7.422Q182.8 -7.812 182.2 -7.812Q180.8 -7.812 179.5 -5.828L179.5 0L177.9 0ZM186.1 0M187.7 0L187.7 -2.141L189.9 -2.141L189.9 0L187.7 0Z" fill="#6b7280" transform="translate(64,416.3)"/><defs><linearGradient id="lg2" x1="18.5335%" y1="-71.6518%" x2="81.4665%" y2="171.652%" color-interpolation="linearRGB"><stop offset="0%" stop-color="rgba(59,130,246,1)"/><stop offset="100%" stop-color="rgba(139,92,246,1)"/></linearGradient></defs><rect x="64" y="532" width="162.4" height="42" fill="url(#lg2)" rx="8" ry="8"/><path d="M0.75 -0.09375L0.75 -1.938Q2.828 -1.219 4.578 -1.219Q7.062 -1.219 7.062 -2.656Q7.062 -3.594 6.125 -4L5.125 -4.375L3.922 -4.828Q2.016 -5.562 1.375 -6.219Q0.7188 -6.875 0.7188 -8.094Q0.7188 -11.11 5.156 -11.11Q7.016 -11.11 8.688 -10.73L8.688 -9.031Q6.938 -9.625 5.312 -9.625Q3.984 -9.625 3.469 -9.344Q2.953 -9.062 2.953 -8.344Q2.953 -7.891 3.203 -7.641Q3.453 -7.391 4.172 -7.125L5 -6.797L6.25 -6.328Q8.062 -5.656 8.75 -4.938Q9.438 -4.219 9.438 -3.016Q9.438 -1.312 8.172 -0.5156Q6.922 0.2812 4.203 0.2812Q3.172 0.2812 1.906 0.07812L0.75 -0.09375ZM10 0M14.88 -1.359L14.88 0Q14.03 0.1875 13.48 0.1875Q11.19 0.1875 11.19 -2.453L11.19 -6.688L10.31 -6.688L10.31 -8.047L11.19 -8.047L11.19 -9.609L13.36 -9.859L13.36 -8.047L14.89 -8.047L14.89 -6.688L13.36 -6.688L13.36 -2.734Q13.36 -1.828 13.52 -1.547Q13.66 -1.266 14.14 -1.266Q14.44 -1.266 14.88 -1.359ZM15 0M22.88 -1.234L22.94 -0.01562Q22.25 0.1875 21.72 0.1875Q20.39 0.1875 20 -0.8594L19.91 -0.8594Q19.12 0.1875 17.89 0.1875Q16.81 0.1875 16.16 -0.4688Q15.5 -1.109 15.5 -2.172Q15.5 -4.906 19.33 -4.906L19.91 -4.906L19.91 -5.641Q19.91 -6.891 18.64 -6.891Q17.52 -6.891 16.22 -6.172L16.22 -7.672Q17.55 -8.219 19 -8.219Q21.98 -8.219 21.98 -5.719L21.98 -2.156Q21.98 -1.203 22.59 -1.203Q22.7 -1.203 22.88 -1.234M19.91 -2.031L19.91 -3.656L19.39 -3.656Q17.58 -3.656 17.58 -2.359Q17.58 -1.891 17.89 -1.594Q18.19 -1.297 18.66 -1.297Q19.41 -1.297 19.91 -2.031ZM23.34 0M24.61 0L24.61 -8.047L26.78 -8.047L26.78 -6.703Q27.39 -8.219 28.58 -8.219Q28.75 -8.219 28.95 -8.188L28.95 -6.25Q28.53 -6.422 28.27 -6.422Q27.39 -6.422 26.78 -5.281L26.78 0L24.61 0ZM29.19 0M34.06 -1.359L34.06 0Q33.22 0.1875 32.67 0.1875Q30.38 0.1875 30.38 -2.453L30.38 -6.688L29.5 -6.688L29.5 -8.047L30.38 -8.047L30.38 -9.609L32.55 -9.859L32.55 -8.047L34.08 -8.047L34.08 -6.688L32.55 -6.688L32.55 -2.734Q32.55 -1.828 32.7 -1.547Q32.84 -1.266 33.33 -1.266Q33.63 -1.266 34.06 -1.359ZM38.36 0M39.63 0L39.63 -10.84L47.19 -10.84L47.19 -9.359L41.88 -9.359L41.88 -6.062L46.38 -6.062L46.38 -4.562L41.88 -4.562L41.88 0L39.63 0ZM47.52 0M48.78 0L48.78 -8.047L50.95 -8.047L50.95 -6.703Q51.56 -8.219 52.75 -8.219Q52.92 -8.219 53.12 -8.188L53.12 -6.25Q52.7 -6.422 52.44 -6.422Q51.56 -6.422 50.95 -5.281L50.95 0L48.78 0ZM53.36 0M60.91 -1.797L60.91 -0.2656Q59.58 0.1875 58.22 0.1875Q56.2 0.1875 55.05 -0.9688Q53.91 -2.125 53.91 -4.125Q53.91 -5.984 54.91 -7.109Q55.92 -8.219 57.58 -8.219Q59.31 -8.219 60.11 -7.109Q60.91 -6 60.91 -3.594L56.19 -3.594Q56.41 -1.297 58.59 -1.297Q59.63 -1.297 60.91 -1.797M56.17 -4.812L58.78 -4.812Q58.78 -6.875 57.61 -6.875Q56.39 -6.875 56.17 -4.812ZM61.7 0M69.25 -1.797L69.25 -0.2656Q67.92 0.1875 66.56 0.1875Q64.55 0.1875 63.39 -0.9688Q62.25 -2.125 62.25 -4.125Q62.25 -5.984 63.25 -7.109Q64.27 -8.219 65.92 -8.219Q67.66 -8.219 68.45 -7.109Q69.25 -6 69.25 -3.594L64.53 -3.594Q64.75 -1.297 66.94 -1.297Q67.97 -1.297 69.25 -1.797M64.52 -4.812L67.13 -4.812Q67.13 -6.875 65.95 -6.875Q64.73 -6.875 64.52 -4.812ZM74.22 0M77.67 0L77.67 -9.281L74.52 -9.281L74.52 -10.84L83.09 -10.84L83.09 -9.281L79.94 -9.281L79.94 0L77.67 0ZM83.38 0M84.64 0L84.64 -8.047L86.81 -8.047L86.81 -6.703Q87.42 -8.219 88.61 -8.219Q88.78 -8.219 88.98 -8.188L88.98 -6.25Q88.56 -6.422 88.3 -6.422Q87.42 -6.422 86.81 -5.281L86.81 0L84.64 0ZM89.22 0M90.3 0L90.3 -8.047L92.47 -8.047L92.47 0L90.3 0M90.23 -9.5L90.23 -11.56L92.55 -11.56L92.55 -9.5L90.23 -9.5ZM93.56 0M101.4 -1.234L101.5 -0.01562Q100.8 0.1875 100.3 0.1875Q98.95 0.1875 98.56 -0.8594L98.47 -0.8594Q97.69 0.1875 96.45 0.1875Q95.37 0.1875 94.72 -0.4688Q94.06 -1.109 94.06 -2.172Q94.06 -4.906 97.89 -4.906L98.47 -4.906L98.47 -5.641Q98.47 -6.891 97.2 -6.891Q96.08 -6.891 94.78 -6.172L94.78 -7.672Q96.11 -8.219 97.56 -8.219Q100.5 -8.219 100.5 -5.719L100.5 -2.156Q100.5 -1.203 101.2 -1.203Q101.3 -1.203 101.4 -1.234M98.47 -2.031L98.47 -3.656L97.95 -3.656Q96.14 -3.656 96.14 -2.359Q96.14 -1.891 96.45 -1.594Q96.75 -1.297 97.22 -1.297Q97.97 -1.297 98.47 -2.031ZM101.9 0M106.2 -1.328L106.2 0Q105.8 0.1875 105.2 0.1875Q102.9 0.1875 102.9 -2.453L102.9 -11.56L105.1 -11.56L105.1 -2.734Q105.1 -1.828 105.2 -1.547Q105.4 -1.266 105.9 -1.266Q106 -1.266 106.2 -1.328Z" fill="#ffffff" transform="translate(92,558.2)"/><path d="M1.094 0L1.094 -9.391L2.812 -9.391L6.719 -2.984L6.719 -9.391L8.297 -9.391L8.297 0L6.547 0L2.672 -6.422L2.672 0L1.094 0ZM9.391 0M12.95 0.1562Q11.56 0.1562 10.75 -0.8125Q9.938 -1.797 9.938 -3.453Q9.938 -5.109 10.75 -6.078Q11.58 -7.047 13 -7.047Q14.42 -7.047 15.25 -6.078Q16.06 -5.125 16.06 -3.453Q16.06 -1.766 15.25 -0.7969Q14.42 0.1562 12.95 0.1562M12.98 -0.7812Q14.72 -0.7812 14.72 -3.484Q14.72 -6.109 13 -6.109Q11.28 -6.109 11.28 -3.453Q11.28 -0.7812 12.98 -0.7812ZM20.23 0M26.11 -0.2031Q25.02 0.1562 23.91 0.1562Q22.52 0.1562 21.66 -0.8438Q20.78 -1.844 20.78 -3.438Q20.78 -5.141 21.66 -6.094Q22.55 -7.047 24.13 -7.047Q24.97 -7.047 26.03 -6.812L26.03 -5.781Q25.02 -6.094 24.39 -6.094Q22.16 -6.094 22.16 -3.438Q22.16 -2.203 22.73 -1.531Q23.31 -0.8438 24.33 -0.8438Q25.11 -0.8438 26.11 -1.281L26.11 -0.2031ZM26.73 0M27.72 0L27.72 -6.891L28.97 -6.891L28.97 -5.594Q29.53 -7.047 30.61 -7.047Q30.77 -7.047 30.97 -7.016L30.97 -5.844Q30.66 -5.953 30.45 -5.953Q29.72 -5.953 28.97 -4.547L28.97 0L27.72 0ZM31.06 0M36.25 -4.188Q36.25 -6.109 34.7 -6.109Q33.09 -6.109 32.94 -4.188L36.25 -4.188M37.5 -1.219L37.5 -0.2188Q36.27 0.1562 35.09 0.1562Q33.5 0.1562 32.55 -0.8438Q31.61 -1.844 31.61 -3.531Q31.61 -5.141 32.45 -6.094Q33.3 -7.047 34.72 -7.047Q37.53 -7.047 37.53 -3.641L37.53 -3.25L32.92 -3.25Q33.09 -0.7969 35.39 -0.7969Q36.37 -0.7969 37.5 -1.219ZM38.3 0M43.3 -2.422L43.3 -5.953Q42.42 -6.109 42 -6.109Q40.19 -6.109 40.19 -3.359Q40.19 -2.234 40.55 -1.594Q40.91 -0.9375 41.52 -0.9375Q42.33 -0.9375 43.3 -2.422M43.3 -1.281Q42.55 0.1562 41.23 0.1562Q40.16 0.1562 39.5 -0.7812Q38.84 -1.719 38.84 -3.25Q38.84 -5.062 39.69 -6.062Q40.53 -7.047 42.09 -7.047Q42.7 -7.047 43.3 -6.891L43.3 -10.02L44.55 -10.02L44.55 0L43.3 0L43.3 -1.281ZM45.53 0M46.52 0L46.52 -6.891L47.77 -6.891L47.77 0L46.52 0M46.45 -8.141L46.45 -9.516L47.83 -9.516L47.83 -8.141L46.45 -8.141ZM48.73 0M52.09 0.03125Q51.73 0.1562 51.41 0.1562Q49.7 0.1562 49.7 -1.906L49.7 -5.953L48.89 -5.953L48.89 -6.891L49.7 -6.891L49.7 -8.328L50.95 -8.453L50.95 -6.891L52.47 -6.891L52.47 -5.953L50.95 -5.953L50.95 -2.141Q50.95 -1.312 51.09 -1.047Q51.23 -0.7812 51.67 -0.7812Q51.92 -0.7812 52.09 -0.8438L52.09 0.03125ZM56.02 0M61.89 -0.2031Q60.8 0.1562 59.69 0.1562Q58.3 0.1562 57.44 -0.8438Q56.56 -1.844 56.56 -3.438Q56.56 -5.141 57.44 -6.094Q58.33 -7.047 59.91 -7.047Q60.75 -7.047 61.81 -6.812L61.81 -5.781Q60.8 -6.094 60.17 -6.094Q57.94 -6.094 57.94 -3.438Q57.94 -2.203 58.52 -1.531Q59.09 -0.8438 60.11 -0.8438Q60.89 -0.8438 61.89 -1.281L61.89 -0.2031ZM62.52 0M67.42 -0.875Q66.3 0.1562 65.16 0.1562Q64.25 0.1562 63.69 -0.375Q63.13 -0.8906 63.13 -1.734Q63.13 -4.078 66.95 -4.078L67.25 -4.078L67.25 -4.906Q67.25 -6.109 65.94 -6.109Q64.86 -6.109 63.72 -5.5L63.72 -6.531Q64.98 -7.047 66.14 -7.047Q67.37 -7.047 67.94 -6.531Q68.5 -6.031 68.5 -4.906L68.5 -1.781Q68.5 -0.7188 69.16 -0.7188Q69.23 -0.7188 69.39 -0.7344L69.48 -0.04688Q69.05 0.1562 68.55 0.1562Q67.67 0.1562 67.42 -0.875M67.25 -1.562L67.25 -3.344L66.83 -3.359Q64.41 -3.359 64.41 -1.953Q64.41 -0.8594 65.58 -0.8594Q66.39 -0.8594 67.25 -1.562ZM69.75 0M70.73 0L70.73 -6.891L71.98 -6.891L71.98 -5.594Q72.55 -7.047 73.62 -7.047Q73.78 -7.047 73.98 -7.016L73.98 -5.844Q73.67 -5.953 73.47 -5.953Q72.73 -5.953 71.98 -4.547L71.98 0L70.73 0ZM74.08 0M79.08 -2.422L79.08 -5.953Q78.2 -6.109 77.78 -6.109Q75.97 -6.109 75.97 -3.359Q75.97 -2.234 76.33 -1.594Q76.69 -0.9375 77.3 -0.9375Q78.11 -0.9375 79.08 -2.422M79.08 -1.281Q78.33 0.1562 77.02 0.1562Q75.94 0.1562 75.28 -0.7812Q74.63 -1.719 74.63 -3.25Q74.63 -5.062 75.47 -6.062Q76.31 -7.047 77.88 -7.047Q78.48 -7.047 79.08 -6.891L79.08 -10.02L80.33 -10.02L80.33 0L79.08 0L79.08 -1.281ZM84.92 0M85.91 0L85.91 -6.891L87.16 -6.891L87.16 -5.594Q87.72 -7.047 88.8 -7.047Q88.95 -7.047 89.16 -7.016L89.16 -5.844Q88.84 -5.953 88.64 -5.953Q87.91 -5.953 87.16 -4.547L87.16 0L85.91 0ZM89.25 0M94.44 -4.188Q94.44 -6.109 92.89 -6.109Q91.28 -6.109 91.12 -4.188L94.44 -4.188M95.69 -1.219L95.69 -0.2188Q94.45 0.1562 93.28 0.1562Q91.69 0.1562 90.73 -0.8438Q89.8 -1.844 89.8 -3.531Q89.8 -5.141 90.64 -6.094Q91.48 -7.047 92.91 -7.047Q95.72 -7.047 95.72 -3.641L95.72 -3.25L91.11 -3.25Q91.28 -0.7969 93.58 -0.7969Q94.56 -0.7969 95.69 -1.219ZM96.48 0M101.5 -6.891L102.7 -6.891L102.7 2.5L101.5 2.5L101.5 -1.281Q100.7 0.1562 99.42 0.1562Q98.34 0.1562 97.69 -0.7812Q97.03 -1.719 97.03 -3.25Q97.03 -5.062 97.88 -6.062Q98.72 -7.047 100.3 -7.047Q100.9 -7.047 101.5 -6.891M101.5 -2.422L101.5 -5.953Q100.6 -6.109 100.2 -6.109Q98.38 -6.109 98.38 -3.359Q98.38 -2.234 98.73 -1.594Q99.09 -0.9375 99.7 -0.9375Q100.5 -0.9375 101.5 -2.422ZM103.7 0M108.7 0L108.7 -1.281Q107.7 0.1562 106.4 0.1562Q104.6 0.1562 104.6 -1.938L104.6 -6.891L105.9 -6.891L105.9 -2.344Q105.9 -1.516 106 -1.219Q106.2 -0.9219 106.7 -0.9219Q107.8 -0.9219 108.7 -2.422L108.7 -6.891L110 -6.891L110 0L108.7 0ZM111 0M111.9 0L111.9 -6.891L113.2 -6.891L113.2 0L111.9 0M111.9 -8.141L111.9 -9.516L113.3 -9.516L113.3 -8.141L111.9 -8.141ZM114.2 0M115.1 0L115.1 -6.891L116.4 -6.891L116.4 -5.594Q117 -7.047 118 -7.047Q118.2 -7.047 118.4 -7.016L118.4 -5.844Q118.1 -5.953 117.9 -5.953Q117.1 -5.953 116.4 -4.547L116.4 0L115.1 0ZM118.5 0M123.7 -4.188Q123.7 -6.109 122.1 -6.109Q120.5 -6.109 120.4 -4.188L123.7 -4.188M124.9 -1.219L124.9 -0.2188Q123.7 0.1562 122.5 0.1562Q120.9 0.1562 120 -0.8438Q119 -1.844 119 -3.531Q119 -5.141 119.9 -6.094Q120.7 -7.047 122.1 -7.047Q125 -7.047 125 -3.641L125 -3.25L120.3 -3.25Q120.5 -0.7969 122.8 -0.7969Q123.8 -0.7969 124.9 -1.219ZM125.7 0M130.7 -2.422L130.7 -5.953Q129.8 -6.109 129.4 -6.109Q127.6 -6.109 127.6 -3.359Q127.6 -2.234 128 -1.594Q128.3 -0.9375 128.9 -0.9375Q129.7 -0.9375 130.7 -2.422M130.7 -1.281Q130 0.1562 128.7 0.1562Q127.6 0.1562 126.9 -0.7812Q126.3 -1.719 126.3 -3.25Q126.3 -5.062 127.1 -6.062Q128 -7.047 129.5 -7.047Q130.1 -7.047 130.7 -6.891L130.7 -10.02L132 -10.02L132 0L130.7 0L130.7 -1.281Z" fill="#6b7280" transform="translate(238.4,557.5)"/><defs><linearGradient id="lg3" x1="-39.8148%" y1="15.3571%" x2="139.815%" y2="84.6429%" color-interpolation="linearRGB"><stop offset="0%" stop-color="rgba(239,246,255,1)"/><stop offset="100%" stop-color="rgba(245,243,255,1)"/></linearGradient></defs><rect x="660" y="0" width="243" height="630" fill="url(#lg3)"/><defs><filter id="shadow4" x="-50%" y="-50%" width="200%" height="200%"><feGaussianBlur in="SourceAlpha" stdDeviation="1.5"/><feOffset dx="0" dy="1" result="offsetBlur"/><feFlood flood-color="#000000" flood-opacity="0.08"/><feComposite in2="offsetBlur" operator="in"/><feMerge><feMergeNode/><feMergeNode in="SourceGraphic"/></feMerge></filter></defs><rect x="700" y="185.8" width="237.6" height="76.8" fill="rgba(0,0,0,0.08)" rx="12" filter="url(#shadow4)"/><rect x="700" y="185.8" width="237.6" height="76.8" fill="#ffffff" rx="12" ry="12"/><defs></defs><rect x="722" y="204.2" width="40" height="40" fill="#eff6ff" rx="10" ry="10"/><image href="data:image/svg+xml,%3Csvg xmlns=&apos;http://www.w3.org/2000/svg&apos; viewBox=&apos;0 0 24 24&apos;%3E%3Crect fill=&apos;%233b82f6&apos; x=&apos;4&apos; y=&apos;13&apos; width=&apos;4&apos; height=&apos;8&apos; rx=&apos;1&apos;/%3E%3Crect fill=&apos;%233b82f6&apos; x=&apos;10&apos; y=&apos;5&apos; width=&apos;4&apos; height=&apos;16&apos; rx=&apos;1&apos;/%3E%3Crect fill=&apos;%233b82f6&apos; x=&apos;16&apos; y=&apos;9&apos; width=&apos;4&apos; height=&apos;12&apos; rx=&apos;1&apos;/%3E%3C/svg%3E" x="731" y="213.2" width="22" height="22" preserveAspectRatio="none"/><path d="M0.9688 0L0.9688 -8.672L4.594 -8.672Q7.266 -8.672 7.266 -6.516Q7.266 -4.781 5.516 -4.062L8.406 0L6.891 0L4.422 -3.672L2.203 -3.672L2.203 0L0.9688 0M2.203 -4.594L3.578 -4.594Q4.828 -4.594 5.406 -5.016Q6 -5.453 6 -6.406Q6 -7.125 5.516 -7.438Q5.047 -7.75 3.953 -7.75L2.203 -7.75L2.203 -4.594ZM8.672 0M9.781 0L9.781 -8.672L16.08 -8.672L16.08 -7.75L11.02 -7.75L11.02 -4.969L15.5 -4.969L15.5 -4.062L11.02 -4.062L11.02 -0.9219L16.33 -0.9219L16.33 0L9.781 0ZM16.67 0M20.23 0L16.89 -8.672L18.16 -8.672L20.92 -1.547L23.56 -8.672L24.61 -8.672L21.39 0L20.23 0ZM24.67 0M25.78 0L25.78 -8.672L32.08 -8.672L32.08 -7.75L27.02 -7.75L27.02 -4.969L31.5 -4.969L31.5 -4.062L27.02 -4.062L27.02 -0.9219L32.33 -0.9219L32.33 0L25.78 0ZM32.67 0M33.64 0L33.64 -8.672L34.84 -8.672L39.31 -1.969L39.31 -8.672L40.36 -8.672L40.36 0L39.16 0L34.69 -6.703L34.69 0L33.64 0ZM41.34 0M42.31 -8.672L43.55 -8.672L43.55 -3.203Q43.55 -2.281 43.69 -1.844Q43.84 -1.406 44.27 -1.109Q44.84 -0.7031 45.84 -0.7031Q47.02 -0.7031 47.48 -1.25Q47.95 -1.797 47.95 -3.156L47.95 -8.672L49.03 -8.672L49.03 -3.172Q49.03 -2.016 48.8 -1.422Q48.58 -0.8281 47.95 -0.375Q47.14 0.2188 45.77 0.2188Q43.97 0.2188 43.14 -0.6094Q42.31 -1.422 42.31 -3.219L42.31 -8.672ZM50.02 0M51.12 0L51.12 -8.672L57.42 -8.672L57.42 -7.75L52.36 -7.75L52.36 -4.969L56.84 -4.969L56.84 -4.062L52.36 -4.062L52.36 -0.9219L57.67 -0.9219L57.67 0L51.12 0Z" fill="#6b7280" transform="translate(776,215.1)"/><path d="M5.156 1.719L5.156 -0.04688Q4.422 -0.03125 3.531 -0.2031Q2.625 -0.375 1.562 -0.6875L1.062 -0.8438L1.062 -3.188Q3.031 -2.094 5.156 -1.984L5.156 -7.188L4.281 -7.578Q3.328 -8.094 2.734 -8.594Q2.125 -9.094 1.781 -9.594Q1.453 -10.09 1.328 -10.64Q1.188 -11.2 1.188 -11.95Q1.188 -12.77 1.438 -13.45Q1.688 -14.14 2.156 -14.64Q2.625 -15.14 3.297 -15.45Q3.969 -15.78 5.156 -15.89L5.156 -17.62L6.875 -17.62L6.875 -15.89Q8.531 -15.8 10.03 -15.22L10.03 -13.05Q7.969 -14.03 6.875 -14.03L6.875 -9.109L7.469 -8.781Q10.88 -6.859 10.88 -4.391Q10.88 -3.594 10.59 -2.844Q10.31 -2.109 9.812 -1.516Q9.312 -0.9375 8.641 -0.5312Q7.969 -0.1406 6.875 -0.03125L6.875 1.719L5.156 1.719M6.547 -2.109Q8.359 -2.5 8.359 -4.047Q8.359 -5.312 6.547 -6.281L6.547 -2.109M5.484 -10.02L5.484 -13.94Q3.719 -13.62 3.719 -12.17Q3.719 -10.77 5.484 -10.02ZM12.23 0M13.06 0L13.06 -2.516Q13.94 -4.047 15.2 -5.344L16.3 -6.484L17.56 -7.766Q18.89 -9.125 19.3 -9.875Q19.7 -10.62 19.7 -11.77Q19.7 -14.25 17.34 -14.25Q15.8 -14.25 13.47 -13.06L13.47 -15.39Q15.89 -16.3 17.86 -16.3Q20.3 -16.3 21.69 -15.09Q23.07 -13.91 23.07 -11.8Q23.07 -10.42 22.4 -9.328Q21.73 -8.234 20 -6.734L18.94 -5.844Q16.88 -4.094 16.66 -2.516L23.03 -2.516L23.03 0L13.06 0ZM24.47 0M25.8 0L25.8 -3.453L29.25 -3.453L29.25 0L25.8 0ZM30.58 0M30.91 -4.25L30.91 -6.625L37.67 -15.91L40.6 -15.91L40.6 -6.625L42.05 -6.625L42.05 -4.25L40.6 -4.25L40.6 0L37.81 0L37.81 -4.25L30.91 -4.25M33.47 -6.625L37.88 -6.625L37.88 -12.86L33.47 -6.625ZM42.81 0M44.67 0L44.67 -15.91L49.05 -15.91L52.19 -4.719L55.45 -15.91L59.29 -15.91L59.29 0L56.23 0L56.23 -12L53.04 -1.062L50.39 -1.062L47.27 -12.16L47.27 0L44.67 0Z" fill="#111827" transform="translate(776,239)"/><rect x="845.1" y="222.2" width="57.03" height="18.4" fill="#f0fdf4" rx="4" ry="4"/><path d="M2.938 -0.5781L2.938 -2.906L0.6094 -2.906L0.6094 -4.047L2.938 -4.047L2.938 -6.359L4.078 -6.359L4.078 -4.047L6.391 -4.047L6.391 -2.906L4.078 -2.906L4.078 -0.5781L2.938 -0.5781ZM7.016 0M8.078 0L8.078 -1.016L9.813 -1.016L9.813 -7.406L8.078 -6.984L8.078 -8.016L11.55 -8.891L11.55 -1.016L13.28 -1.016L13.28 0L8.078 0ZM13.69 0M14.14 0L14.14 -1.375Q14.61 -2.203 15.31 -2.922L15.91 -3.531L16.59 -4.234Q17.33 -4.984 17.53 -5.391Q17.77 -5.797 17.77 -6.422Q17.77 -7.766 16.47 -7.766Q15.64 -7.766 14.36 -7.125L14.36 -8.391Q15.69 -8.891 16.77 -8.891Q18.09 -8.891 18.84 -8.234Q19.61 -7.578 19.61 -6.438Q19.61 -5.688 19.23 -5.094Q18.88 -4.484 17.92 -3.672L17.34 -3.188Q16.22 -2.234 16.11 -1.375L19.58 -1.375L19.58 0L14.14 0ZM20.36 0M21.09 0L21.09 -1.875L22.97 -1.875L22.97 0L21.09 0ZM23.69 0M24.53 -0.03125L24.53 -1.297Q24.97 -1.078 25.39 -0.9688Q25.81 -0.875 26.27 -0.875Q26.63 -0.875 26.91 -1Q27.19 -1.125 27.39 -1.344Q27.58 -1.562 27.69 -1.859Q27.8 -2.141 27.8 -2.469Q27.8 -2.938 27.66 -3.281Q27.52 -3.609 27.22 -3.828Q26.92 -4.047 26.47 -4.141Q26.02 -4.25 25.41 -4.25L24.69 -4.25L24.69 -8.672L29.47 -8.672L29.47 -7.297L25.92 -7.297L25.92 -5.297L26.11 -5.297Q26.84 -5.297 27.48 -5.156Q28.13 -5.016 28.61 -4.703Q29.08 -4.391 29.36 -3.859Q29.64 -3.344 29.64 -2.594Q29.64 -1.906 29.38 -1.375Q29.11 -0.8594 28.66 -0.5Q28.2 -0.1406 27.63 0.03125Q27.05 0.2188 26.44 0.2188Q26.05 0.2188 25.58 0.1562Q25.11 0.09375 24.53 -0.03125ZM30.36 0M31.7 0.2188L38.52 -8.891L39.69 -8.891L32.88 0.2188L31.7 0.2188M32.89 -4.344Q31.94 -4.344 31.39 -4.922Q30.86 -5.5 30.86 -6.5Q30.86 -7.516 31.39 -8.094Q31.95 -8.672 32.91 -8.672Q33.88 -8.672 34.42 -8.094Q34.97 -7.516 34.97 -6.516Q34.97 -5.484 34.42 -4.906Q33.88 -4.344 32.89 -4.344M32.89 -5.203Q33.67 -5.203 33.67 -6.516Q33.67 -7.812 32.91 -7.812Q32.16 -7.812 32.16 -6.5Q32.16 -5.203 32.89 -5.203M38.45 0Q37.5 0 36.95 -0.5938Q36.42 -1.172 36.42 -2.203Q36.42 -3.188 36.97 -3.766Q37.53 -4.344 38.47 -4.344Q39.44 -4.344 39.98 -3.75Q40.53 -3.188 40.53 -2.172Q40.53 -1.156 39.98 -0.5781Q39.44 0 38.45 0M38.47 -0.875Q39.23 -0.875 39.23 -2.172Q39.23 -3.469 38.47 -3.469Q37.72 -3.469 37.72 -2.172Q37.72 -0.875 38.47 -0.875Z" fill="#16a34a" transform="translate(853.1,235.5)"/><defs><filter id="shadow5" x="-50%" y="-50%" width="200%" height="200%"><feGaussianBlur in="SourceAlpha" stdDeviation="1.5"/><feOffset dx="0" dy="1" result="offsetBlur"/><feFlood flood-color="#000000" flood-opacity="0.08"/><feComposite in2="offsetBlur" operator="in"/><feMerge><feMergeNode/><feMergeNode in="SourceGraphic"/></feMerge></filter></defs><rect x="700" y="276.6" width="237.6" height="76.8" fill="rgba(0,0,0,0.08)" rx="12" filter="url(#shadow5)"/><rect x="700" y="276.6" width="237.6" height="76.8" fill="#ffffff" rx="12" ry="12"/><defs></defs><rect x="722" y="295" width="40" height="40" fill="#f5f3ff" rx="10" ry="10"/><image href="data:image/svg+xml,%3Csvg xmlns=&apos;http://www.w3.org/2000/svg&apos; viewBox=&apos;0 0 24 24&apos;%3E%3Cpath fill=&apos;%238b5cf6&apos; d=&apos;M16 11c1.66 0 2.99-1.34 2.99-3S17.66 5 16 5c-1.66 0-3 1.34-3 3s1.34 3 3 3zm-8 0c1.66 0 2.99-1.34 2.99-3S9.66 5 8 5C6.34 5 5 6.34 5 8s1.34 3 3 3zm0 2c-2.33 0-7 1.17-7 3.5V19h14v-2.5c0-2.33-4.67-3.5-7-3.5zm8 0c-.29 0-.62.02-.97.05 1.16.84 1.97 1.97 1.97 3.45V19h6v-2.5c0-2.33-4.67-3.5-7-3.5z&apos;/%3E%3C/svg%3E" x="731" y="304" width="22" height="22" preserveAspectRatio="none"/><path d="M0.1094 0L3.406 -8.672L4.625 -8.672L7.859 0L6.547 0L5.641 -2.406L2.156 -2.406L1.25 0L0.1094 0M2.516 -3.312L5.297 -3.312L3.906 -7.031L2.516 -3.312ZM8 0M15.92 -0.4531Q14.64 0.2188 13.06 0.2188Q10.91 0.2188 9.797 -0.9375Q8.688 -2.109 8.688 -4.328Q8.688 -6.547 9.812 -7.719Q10.95 -8.891 13.11 -8.891Q14.36 -8.891 15.91 -8.516L15.91 -7.359Q14.12 -7.969 13.06 -7.969Q11.56 -7.969 10.78 -7.031Q10 -6.094 10 -4.312Q10 -2.609 10.84 -1.672Q11.67 -0.75 13.2 -0.75Q14.52 -0.75 15.92 -1.5L15.92 -0.4531ZM16.67 0M19.72 0L19.72 -7.75L16.8 -7.75L16.8 -8.672L23.87 -8.672L23.87 -7.75L20.95 -7.75L20.95 0L19.72 0ZM24 0M24.73 0L24.73 -0.9219L25.78 -0.9219L25.78 -7.75L24.73 -7.75L24.73 -8.672L28.06 -8.672L28.06 -7.75L27 -7.75L27 -0.9219L28.06 -0.9219L28.06 0L24.73 0ZM28.78 0M32.34 0L29 -8.672L30.27 -8.672L33.03 -1.547L35.67 -8.672L36.72 -8.672L33.5 0L32.34 0ZM36.78 0M37.89 0L37.89 -8.672L44.19 -8.672L44.19 -7.75L39.13 -7.75L39.13 -4.969L43.61 -4.969L43.61 -4.062L39.13 -4.062L39.13 -0.9219L44.44 -0.9219L44.44 0L37.89 0ZM48.11 0M49.08 -8.672L50.31 -8.672L50.31 -3.203Q50.31 -2.281 50.45 -1.844Q50.61 -1.406 51.03 -1.109Q51.61 -0.7031 52.61 -0.7031Q53.78 -0.7031 54.25 -1.25Q54.72 -1.797 54.72 -3.156L54.72 -8.672L55.8 -8.672L55.8 -3.172Q55.8 -2.016 55.56 -1.422Q55.34 -0.8281 54.72 -0.375Q53.91 0.2188 52.53 0.2188Q50.73 0.2188 49.91 -0.6094Q49.08 -1.422 49.08 -3.219L49.08 -8.672ZM56.78 0M57.48 -0.3125L57.48 -1.531Q59.16 -0.7031 60.94 -0.7031Q62.8 -0.7031 62.8 -2.109Q62.8 -2.719 62.44 -3.047Q62.08 -3.375 60.98 -3.734L59.8 -4.125Q57.53 -4.875 57.53 -6.531Q57.53 -8.891 60.7 -8.891Q62.13 -8.891 63.53 -8.516L63.53 -7.391Q62.08 -7.969 60.63 -7.969Q58.72 -7.969 58.72 -6.688Q58.72 -6.156 59.08 -5.844Q59.44 -5.531 60.38 -5.219L61.59 -4.828Q62.95 -4.391 63.52 -3.812Q64.06 -3.234 64.06 -2.281Q64.06 -1.125 63.2 -0.4531Q62.36 0.2188 60.91 0.2188Q59.33 0.2188 57.48 -0.3125ZM64.78 0M65.89 0L65.89 -8.672L72.19 -8.672L72.19 -7.75L67.13 -7.75L67.13 -4.969L71.61 -4.969L71.61 -4.062L67.13 -4.062L67.13 -0.9219L72.44 -0.9219L72.44 0L65.89 0ZM72.78 0M73.75 0L73.75 -8.672L77.38 -8.672Q80.05 -8.672 80.05 -6.516Q80.05 -4.781 78.3 -4.062L81.19 0L79.67 0L77.2 -3.672L74.98 -3.672L74.98 0L73.75 0M74.98 -4.594L76.36 -4.594Q77.61 -4.594 78.19 -5.016Q78.78 -5.453 78.78 -6.406Q78.78 -7.125 78.3 -7.438Q77.83 -7.75 76.73 -7.75L74.98 -7.75L74.98 -4.594ZM81.45 0M82.16 -0.3125L82.16 -1.531Q83.83 -0.7031 85.61 -0.7031Q87.47 -0.7031 87.47 -2.109Q87.47 -2.719 87.11 -3.047Q86.75 -3.375 85.66 -3.734L84.47 -4.125Q82.2 -4.875 82.2 -6.531Q82.2 -8.891 85.38 -8.891Q86.8 -8.891 88.2 -8.516L88.2 -7.391Q86.75 -7.969 85.3 -7.969Q83.39 -7.969 83.39 -6.688Q83.39 -6.156 83.75 -5.844Q84.11 -5.531 85.05 -5.219L86.27 -4.828Q87.63 -4.391 88.19 -3.812Q88.73 -3.234 88.73 -2.281Q88.73 -1.125 87.88 -0.4531Q87.03 0.2188 85.58 0.2188Q84 0.2188 82.16 -0.3125Z" fill="#6b7280" transform="translate(776,305.9)"/><path d="M1.953 0L1.953 -1.859L5.141 -1.859L5.141 -13.59L1.953 -12.8L1.953 -14.7L8.312 -16.3L8.312 -1.859L11.5 -1.859L11.5 0L1.953 0ZM12.23 0M12.56 -4.25L12.56 -6.625L19.33 -15.91L22.25 -15.91L22.25 -6.625L23.7 -6.625L23.7 -4.25L22.25 -4.25L22.25 0L19.47 0L19.47 -4.25L12.56 -4.25M15.13 -6.625L19.53 -6.625L19.53 -12.86L15.13 -6.625ZM24.47 0M26.62 3.766L26.62 2.969Q27.66 2.672 27.66 0.2188L27.66 0L26.62 0L26.62 -2.656L29.27 -2.656L29.27 -0.3594Q29.27 3.766 26.62 3.766ZM31.44 0M35.31 -8.562Q34.08 -9.578 33.66 -10.31Q33.25 -11.05 33.25 -12.23Q33.25 -14.12 34.48 -15.22Q35.73 -16.3 37.92 -16.3Q39.92 -16.3 41.11 -15.31Q42.3 -14.34 42.3 -12.69Q42.3 -10.41 39.88 -8.734Q41.67 -7.578 42.35 -6.641Q43.02 -5.703 43.02 -4.359Q43.02 -2.25 41.49 -0.9219Q39.95 0.3906 37.52 0.3906Q35.14 0.3906 33.75 -0.7656Q32.36 -1.922 32.36 -3.906Q32.36 -5.328 33 -6.344Q33.66 -7.375 35.31 -8.562M38.23 -9.641Q39.55 -10.64 39.55 -12.3Q39.55 -14.31 37.8 -14.31Q36 -14.31 36 -12.56Q36 -11.36 37.66 -10.09Q37.84 -9.953 38.23 -9.641M36.91 -7.516Q35.38 -6.078 35.38 -4.219Q35.38 -1.562 37.84 -1.562Q38.84 -1.562 39.5 -2.156Q40.14 -2.766 40.14 -3.719Q40.14 -4.594 39.78 -5.078Q39.44 -5.578 38.06 -6.625L36.91 -7.516ZM43.67 0M45.3 -0.09375L45.3 -2.422Q47.37 -1.594 48.36 -1.594Q50.11 -1.594 51.06 -3Q52.03 -4.422 52.03 -6.969L52.03 -7.219Q50.7 -5.656 48.91 -5.656Q46.89 -5.656 45.7 -7Q44.52 -8.328 44.52 -10.61Q44.52 -13.34 45.84 -14.81Q47.16 -16.3 49.61 -16.3Q52.31 -16.3 53.83 -14.22Q55.36 -12.14 55.36 -8.438Q55.36 -4.391 53.52 -2Q51.67 0.3906 48.56 0.3906Q47.19 0.3906 45.3 -0.09375M47.44 -10.97Q47.44 -7.609 49.5 -7.609Q50.58 -7.609 51.22 -8.516Q51.87 -9.438 51.87 -10.92Q51.87 -12.48 51.25 -13.39Q50.61 -14.31 49.53 -14.31Q47.44 -14.31 47.44 -10.97ZM55.91 0M56.73 0L56.73 -2.516Q57.61 -4.047 58.88 -5.344L59.97 -6.484L61.23 -7.766Q62.56 -9.125 62.97 -9.875Q63.38 -10.62 63.38 -11.77Q63.38 -14.25 61.02 -14.25Q59.47 -14.25 57.14 -13.06L57.14 -15.39Q59.56 -16.3 61.53 -16.3Q63.97 -16.3 65.36 -15.09Q66.75 -13.91 66.75 -11.8Q66.75 -10.42 66.08 -9.328Q65.41 -8.234 63.67 -6.734L62.61 -5.844Q60.55 -4.094 60.33 -2.516L66.71 -2.516L66.71 0L56.73 0Z" fill="#111827" transform="translate(776,329.8)"/><rect x="851.3" y="313" width="50.36" height="18.4" fill="#f0fdf4" rx="4" ry="4"/><path d="M2.938 -0.5781L2.938 -2.906L0.6094 -2.906L0.6094 -4.047L2.938 -4.047L2.938 -6.359L4.078 -6.359L4.078 -4.047L6.391 -4.047L6.391 -2.906L4.078 -2.906L4.078 -0.5781L2.938 -0.5781ZM7.016 0M9.125 -4.672Q8.454 -5.234 8.235 -5.625Q8 -6.031 8 -6.672Q8 -7.703 8.688 -8.297Q9.36 -8.891 10.55 -8.891Q11.64 -8.891 12.3 -8.359Q12.94 -7.828 12.94 -6.922Q12.94 -5.672 11.62 -4.766Q12.59 -4.125 12.97 -3.625Q13.33 -3.109 13.33 -2.375Q13.33 -1.234 12.5 -0.5Q11.66 0.2188 10.33 0.2188Q9.032 0.2188 8.282 -0.4219Q7.516 -1.047 7.516 -2.141Q7.516 -2.906 7.875 -3.469Q8.235 -4.016 9.125 -4.672M10.72 -5.25Q11.44 -5.812 11.44 -6.703Q11.44 -7.812 10.48 -7.812Q9.5 -7.812 9.5 -6.844Q9.5 -6.203 10.41 -5.516Q10.52 -5.422 10.72 -5.25M10 -4.094Q9.172 -3.312 9.172 -2.297Q9.172 -0.8438 10.52 -0.8438Q11.06 -0.8438 11.41 -1.172Q11.77 -1.516 11.77 -2.031Q11.77 -2.5 11.56 -2.766Q11.37 -3.047 10.62 -3.609L10 -4.094ZM13.69 0M14.42 0L14.42 -1.875L16.3 -1.875L16.3 0L14.42 0ZM17.02 0M18.08 0L18.08 -1.016L19.81 -1.016L19.81 -7.406L18.08 -6.984L18.08 -8.016L21.55 -8.891L21.55 -1.016L23.28 -1.016L23.28 0L18.08 0ZM23.69 0M25.03 0.2188L31.84 -8.891L33.02 -8.891L26.2 0.2188L25.03 0.2188M26.22 -4.344Q25.27 -4.344 24.72 -4.922Q24.19 -5.5 24.19 -6.5Q24.19 -7.516 24.72 -8.094Q25.28 -8.672 26.23 -8.672Q27.2 -8.672 27.75 -8.094Q28.3 -7.516 28.3 -6.516Q28.3 -5.484 27.75 -4.906Q27.2 -4.344 26.22 -4.344M26.22 -5.203Q27 -5.203 27 -6.516Q27 -7.812 26.23 -7.812Q25.48 -7.812 25.48 -6.5Q25.48 -5.203 26.22 -5.203M31.78 0Q30.83 0 30.28 -0.5938Q29.75 -1.172 29.75 -2.203Q29.75 -3.188 30.3 -3.766Q30.86 -4.344 31.8 -4.344Q32.77 -4.344 33.31 -3.75Q33.86 -3.188 33.86 -2.172Q33.86 -1.156 33.31 -0.5781Q32.77 0 31.78 0M31.8 -0.875Q32.56 -0.875 32.56 -2.172Q32.56 -3.469 31.8 -3.469Q31.05 -3.469 31.05 -2.172Q31.05 -0.875 31.8 -0.875Z" fill="#16a34a" transform="translate(859.3,326.3)"/><defs><filter id="shadow6" x="-50%" y="-50%" width="200%" height="200%"><feGaussianBlur in="SourceAlpha" stdDeviation="1.5"/><feOffset dx="0" dy="1" result="offsetBlur"/><feFlood flood-color="#000000" flood-opacity="0.08"/><feComposite in2="offsetBlur" operator="in"/><feMerge><feMergeNode/><feMergeNode in="SourceGraphic"/></feMerge></filter></defs><rect x="700" y="367.4" width="237.6" height="76.8" fill="rgba(0,0,0,0.08)" rx="12" filter="url(#shadow6)"/><rect x="700" y="367.4" width="237.6" height="76.8" fill="#ffffff" rx="12" ry="12"/><defs></defs><rect x="722" y="385.8" width="40" height="40" fill="#fefce8" rx="10" ry="10"/><image href="data:image/svg+xml,%3Csvg xmlns=&apos;http://www.w3.org/2000/svg&apos; viewBox=&apos;0 0 24 24&apos;%3E%3Cpath fill=&apos;%23ca8a04&apos; d=&apos;M13 2L3 14h9l-1 8 10-12h-9l1-8z&apos;/%3E%3C/svg%3E" x="731" y="394.8" width="22" height="22" preserveAspectRatio="none"/><path d="M0.9688 -8.672L2.203 -8.672L2.203 -3.203Q2.203 -2.281 2.344 -1.844Q2.5 -1.406 2.922 -1.109Q3.5 -0.7031 4.5 -0.7031Q5.672 -0.7031 6.141 -1.25Q6.609 -1.797 6.609 -3.156L6.609 -8.672L7.688 -8.672L7.688 -3.172Q7.688 -2.016 7.453 -1.422Q7.234 -0.8281 6.609 -0.375Q5.797 0.2188 4.422 0.2188Q2.625 0.2188 1.797 -0.6094Q0.9688 -1.422 0.9688 -3.219L0.9688 -8.672ZM8.672 0M9.656 0L9.656 -8.672L12.81 -8.672Q14.16 -8.672 14.73 -8.516Q15.31 -8.375 15.7 -7.922Q16.16 -7.359 16.16 -6.344Q16.16 -3.328 12.45 -3.328L10.87 -3.328L10.87 0L9.656 0M10.87 -4.266L12.41 -4.266Q14.86 -4.266 14.86 -6.25Q14.86 -7.156 14.34 -7.453Q13.84 -7.75 12.42 -7.75L10.87 -7.75L10.87 -4.266ZM16.67 0M19.72 0L19.72 -7.75L16.8 -7.75L16.8 -8.672L23.87 -8.672L23.87 -7.75L20.95 -7.75L20.95 0L19.72 0ZM24 0M24.73 0L24.73 -0.9219L25.78 -0.9219L25.78 -7.75L24.73 -7.75L24.73 -8.672L28.06 -8.672L28.06 -7.75L27 -7.75L27 -0.9219L28.06 -0.9219L28.06 0L24.73 0ZM28.78 0M29.75 0L29.75 -8.672L31.45 -8.672L33.84 -1.969L36.28 -8.672L37.81 -8.672L37.81 0L36.66 0L36.66 -7.047L34.3 -0.5781L33.11 -0.5781L30.81 -7.078L30.81 0L29.75 0ZM38.78 0M39.89 0L39.89 -8.672L46.19 -8.672L46.19 -7.75L41.13 -7.75L41.13 -4.969L45.61 -4.969L45.61 -4.062L41.13 -4.062L41.13 -0.9219L46.44 -0.9219L46.44 0L39.89 0Z" fill="#6b7280" transform="translate(776,396.7)"/><path d="M1.625 -0.09375L1.625 -2.422Q3.703 -1.594 4.688 -1.594Q6.438 -1.594 7.391 -3Q8.359 -4.422 8.359 -6.969L8.359 -7.219Q7.031 -5.656 5.234 -5.656Q3.219 -5.656 2.031 -7Q0.8438 -8.328 0.8438 -10.61Q0.8438 -13.34 2.172 -14.81Q3.484 -16.3 5.938 -16.3Q8.641 -16.3 10.16 -14.22Q11.69 -12.14 11.69 -8.438Q11.69 -4.391 9.844 -2Q8 0.3906 4.891 0.3906Q3.516 0.3906 1.625 -0.09375M3.766 -10.97Q3.766 -7.609 5.828 -7.609Q6.906 -7.609 7.547 -8.516Q8.203 -9.438 8.203 -10.92Q8.203 -12.48 7.578 -13.39Q6.938 -14.31 5.859 -14.31Q3.766 -14.31 3.766 -10.97ZM12.23 0M13.86 -0.09375L13.86 -2.422Q15.94 -1.594 16.92 -1.594Q18.67 -1.594 19.63 -3Q20.59 -4.422 20.59 -6.969L20.59 -7.219Q19.27 -5.656 17.47 -5.656Q15.45 -5.656 14.27 -7Q13.08 -8.328 13.08 -10.61Q13.08 -13.34 14.41 -14.81Q15.72 -16.3 18.17 -16.3Q20.88 -16.3 22.39 -14.22Q23.92 -12.14 23.92 -8.438Q23.92 -4.391 22.08 -2Q20.23 0.3906 17.13 0.3906Q15.75 0.3906 13.86 -0.09375M16 -10.97Q16 -7.609 18.06 -7.609Q19.14 -7.609 19.78 -8.516Q20.44 -9.438 20.44 -10.92Q20.44 -12.48 19.81 -13.39Q19.17 -14.31 18.09 -14.31Q16 -14.31 16 -10.97ZM24.47 0M25.8 0L25.8 -3.453L29.25 -3.453L29.25 0L25.8 0ZM30.58 0M32.2 -0.09375L32.2 -2.422Q34.28 -1.594 35.27 -1.594Q37.02 -1.594 37.97 -3Q38.94 -4.422 38.94 -6.969L38.94 -7.219Q37.61 -5.656 35.81 -5.656Q33.8 -5.656 32.61 -7Q31.42 -8.328 31.42 -10.61Q31.42 -13.34 32.75 -14.81Q34.06 -16.3 36.52 -16.3Q39.22 -16.3 40.74 -14.22Q42.27 -12.14 42.27 -8.438Q42.27 -4.391 40.42 -2Q38.58 0.3906 35.47 0.3906Q34.09 0.3906 32.2 -0.09375M34.34 -10.97Q34.34 -7.609 36.41 -7.609Q37.48 -7.609 38.13 -8.516Q38.78 -9.438 38.78 -10.92Q38.78 -12.48 38.16 -13.39Q37.52 -14.31 36.44 -14.31Q34.34 -14.31 34.34 -10.97ZM42.81 0M46.69 -8.562Q45.45 -9.578 45.03 -10.31Q44.62 -11.05 44.62 -12.23Q44.62 -14.12 45.86 -15.22Q47.11 -16.3 49.3 -16.3Q51.3 -16.3 52.48 -15.31Q53.67 -14.34 53.67 -12.69Q53.67 -10.41 51.25 -8.734Q53.04 -7.578 53.72 -6.641Q54.39 -5.703 54.39 -4.359Q54.39 -2.25 52.86 -0.9219Q51.33 0.3906 48.89 0.3906Q46.52 0.3906 45.12 -0.7656Q43.73 -1.922 43.73 -3.906Q43.73 -5.328 44.37 -6.344Q45.03 -7.375 46.69 -8.562M49.61 -9.641Q50.92 -10.64 50.92 -12.3Q50.92 -14.31 49.17 -14.31Q47.37 -14.31 47.37 -12.56Q47.37 -11.36 49.03 -10.09Q49.22 -9.953 49.61 -9.641M48.28 -7.516Q46.75 -6.078 46.75 -4.219Q46.75 -1.562 49.22 -1.562Q50.22 -1.562 50.87 -2.156Q51.52 -2.766 51.52 -3.719Q51.52 -4.594 51.16 -5.078Q50.81 -5.578 49.44 -6.625L48.28 -7.516ZM55.05 0M57.5 0.3906L70 -16.3L72.16 -16.3L59.66 0.3906L57.5 0.3906M59.67 -7.953Q57.95 -7.953 56.95 -9.016Q55.95 -10.09 55.95 -11.92Q55.95 -13.78 56.95 -14.83Q57.95 -15.91 59.72 -15.91Q61.48 -15.91 62.48 -14.83Q63.5 -13.78 63.5 -11.94Q63.5 -10.06 62.48 -9Q61.48 -7.953 59.67 -7.953M59.7 -9.547Q61.11 -9.547 61.11 -11.94Q61.11 -14.31 59.72 -14.31Q58.33 -14.31 58.33 -11.92Q58.33 -9.547 59.7 -9.547M69.88 0Q68.14 0 67.14 -1.078Q66.16 -2.156 66.16 -4.031Q66.16 -5.844 67.17 -6.891Q68.19 -7.953 69.93 -7.953Q71.69 -7.953 72.71 -6.891Q73.71 -5.828 73.71 -3.984Q73.71 -2.109 72.71 -1.047Q71.69 0 69.88 0M69.91 -1.594Q71.33 -1.594 71.33 -3.984Q71.33 -6.359 69.93 -6.359Q68.55 -6.359 68.55 -3.969Q68.55 -1.594 69.91 -1.594Z" fill="#111827" transform="translate(776,420.6)"/><rect x="858.6" y="403.8" width="57.03" height="18.4" fill="#f0fdf4" rx="4" ry="4"/><path d="M2.938 -0.5781L2.938 -2.906L0.6094 -2.906L0.6094 -4.047L2.938 -4.047L2.938 -6.359L4.078 -6.359L4.078 -4.047L6.391 -4.047L6.391 -2.906L4.078 -2.906L4.078 -0.5781L2.938 -0.5781ZM7.016 0M10.36 0.2188Q9.047 0.2188 8.266 -1.031Q7.484 -2.297 7.484 -4.344Q7.484 -6.406 8.266 -7.641Q9.063 -8.891 10.36 -8.891Q11.66 -8.891 12.44 -7.641Q13.23 -6.406 13.23 -4.344Q13.23 -2.266 12.44 -1.016Q11.66 0.2188 10.36 0.2188M10.36 -0.875Q11.59 -0.875 11.59 -4.344Q11.59 -4.812 11.56 -5.219L9.219 -2.672Q9.469 -0.875 10.36 -0.875M10.36 -7.812Q9.125 -7.812 9.125 -4.344Q9.125 -3.875 9.141 -3.469L11.48 -6Q11.23 -7.812 10.36 -7.812ZM13.69 0M14.42 0L14.42 -1.875L16.3 -1.875L16.3 0L14.42 0ZM17.02 0M20.36 0.2188Q19.05 0.2188 18.27 -1.031Q17.48 -2.297 17.48 -4.344Q17.48 -6.406 18.27 -7.641Q19.06 -8.891 20.36 -8.891Q21.66 -8.891 22.44 -7.641Q23.23 -6.406 23.23 -4.344Q23.23 -2.266 22.44 -1.016Q21.66 0.2188 20.36 0.2188M20.36 -0.875Q21.59 -0.875 21.59 -4.344Q21.59 -4.812 21.56 -5.219L19.22 -2.672Q19.47 -0.875 20.36 -0.875M20.36 -7.812Q19.12 -7.812 19.12 -4.344Q19.12 -3.875 19.14 -3.469L21.48 -6Q21.23 -7.812 20.36 -7.812ZM23.69 0M24.14 0L24.14 -1.375Q24.61 -2.203 25.31 -2.922L25.91 -3.531L26.59 -4.234Q27.33 -4.984 27.53 -5.391Q27.77 -5.797 27.77 -6.422Q27.77 -7.766 26.47 -7.766Q25.64 -7.766 24.36 -7.125L24.36 -8.391Q25.69 -8.891 26.77 -8.891Q28.09 -8.891 28.84 -8.234Q29.61 -7.578 29.61 -6.438Q29.61 -5.688 29.23 -5.094Q28.88 -4.484 27.92 -3.672L27.34 -3.188Q26.22 -2.234 26.11 -1.375L29.58 -1.375L29.58 0L24.14 0ZM30.36 0M31.7 0.2188L38.52 -8.891L39.69 -8.891L32.88 0.2188L31.7 0.2188M32.89 -4.344Q31.94 -4.344 31.39 -4.922Q30.86 -5.5 30.86 -6.5Q30.86 -7.516 31.39 -8.094Q31.95 -8.672 32.91 -8.672Q33.88 -8.672 34.42 -8.094Q34.97 -7.516 34.97 -6.516Q34.97 -5.484 34.42 -4.906Q33.88 -4.344 32.89 -4.344M32.89 -5.203Q33.67 -5.203 33.67 -6.516Q33.67 -7.812 32.91 -7.812Q32.16 -7.812 32.16 -6.5Q32.16 -5.203 32.89 -5.203M38.45 0Q37.5 0 36.95 -0.5938Q36.42 -1.172 36.42 -2.203Q36.42 -3.188 36.97 -3.766Q37.53 -4.344 38.47 -4.344Q39.44 -4.344 39.98 -3.75Q40.53 -3.188 40.53 -2.172Q40.53 -1.156 39.98 -0.5781Q39.44 0 38.45 0M38.47 -0.875Q39.23 -0.875 39.23 -2.172Q39.23 -3.469 38.47 -3.469Q37.72 -3.469 37.72 -2.172Q37.72 -0.875 38.47 -0.875Z" fill="#16a34a" transform="translate(866.6,417.1)"/></svg>