<svg xmlns="http://www.w3.org/2000/svg" width="1200" height="630" viewBox="0 0 1200 630"><rect x="0" y="0" width="1200" height="630" fill="#fafafa"/><defs><linearGradient id="lg1" x1="0%" y1="8.07435e-15%" x2="100%" y2="100%"><stop offset="0%" stop-color="rgba(59,130,246,1)"/><stop offset="100%" stop-color="rgba(139,92,246,1)"/></linearGradient></defs><rect x="64" y="64" width="44" height="44" fill="url(#lg1)" rx="10" ry="10"/><path d="M0.125 0L6.297 -15.91L9.609 -15.91L15.75 0L12.36 0L10.75 -4.25L4.172 -4.25L2.547 0L0.125 0M4.984 -6.359L9.922 -6.359L7.453 -12.7L4.984 -6.359ZM15.89 0M27.23 -2.453L27.23 -0.2656Q24.95 0.2656 23.2 0.2656Q20.09 0.2656 18.39 -1.344Q16.69 -2.969 16.69 -5.906Q16.69 -12.06 23.44 -12.06Q25.31 -12.06 27.14 -11.61L27.14 -9.297Q24.89 -9.938 23.67 -9.938Q20.06 -9.938 20.06 -5.922Q20.06 -4 21.09 -2.922Q22.14 -1.844 23.97 -1.844Q25.27 -1.844 27.23 -2.453ZM28.12 0M29.72 0L29.72 -11.8L32.89 -11.8L32.89 -9.844Q34.33 -12.06 36.52 -12.06Q38.88 -12.06 39.56 -9.812Q40.88 -12.06 43.19 -12.06Q46.22 -12.06 46.22 -8.344L46.22 0L43.05 0L43.05 -7.547Q43.05 -8.734 42.83 -9.141Q42.61 -9.562 41.97 -9.562Q40.59 -9.562 39.56 -7.688L39.56 0L36.39 0L36.39 -7.547Q36.39 -8.734 36.16 -9.141Q35.94 -9.562 35.3 -9.562Q33.94 -9.562 32.89 -7.688L32.89 0L29.72 0ZM47.69 0M58.77 -2.625L58.77 -0.3906Q56.8 0.2656 54.83 0.2656Q51.86 0.2656 50.17 -1.422Q48.48 -3.109 48.48 -6.062Q48.48 -8.781 49.95 -10.42Q51.44 -12.06 53.89 -12.06Q56.42 -12.06 57.59 -10.44Q58.77 -8.812 58.77 -5.266L51.83 -5.266Q52.17 -1.891 55.38 -1.891Q56.89 -1.891 58.77 -2.625M51.8 -7.062L55.64 -7.062Q55.64 -10.08 53.92 -10.08Q52.13 -10.08 51.8 -7.062ZM66.03 0M66.16 0L72.33 -15.91L75.64 -15.91L81.78 0L78.39 0L76.78 -4.25L70.2 -4.25L68.58 0L66.16 0M71.02 -6.359L75.95 -6.359L73.48 -12.7L71.02 -6.359ZM81.92 0M83.52 0L83.52 -11.8L86.69 -11.8L86.69 -9.844Q88.5 -12.06 90.7 -12.06Q93.9 -12.06 93.9 -8.344L93.9 0L90.73 0L90.73 -7.547Q90.73 -8.703 90.45 -9.125Q90.19 -9.562 89.45 -9.562Q88.16 -9.562 86.69 -7.688L86.69 0L83.52 0ZM95.36 0M106.9 -1.812L107 -0.03125Q106 0.2656 105.2 0.2656Q103.3 0.2656 102.7 -1.266L102.6 -1.266Q101.4 0.2656 99.59 0.2656Q98.03 0.2656 97.06 -0.6719Q96.09 -1.641 96.09 -3.188Q96.09 -7.203 101.7 -7.203L102.6 -7.203L102.6 -8.266Q102.6 -10.11 100.7 -10.11Q99.05 -10.11 97.14 -9.062L97.14 -11.25Q99.09 -12.06 101.2 -12.06Q105.6 -12.06 105.6 -8.375L105.6 -3.156Q105.6 -1.766 106.5 -1.766Q106.7 -1.766 106.9 -1.812M102.6 -2.969L102.6 -5.375L101.8 -5.375Q99.16 -5.375 99.16 -3.453Q99.16 -2.781 99.59 -2.328Q100 -1.891 100.7 -1.891Q101.8 -1.891 102.6 -2.969ZM107.6 0M113.9 -1.953L113.9 0Q113.2 0.2656 112.4 0.2656Q109 0.2656 109 -3.594L109 -16.97L112.2 -16.97L112.2 -4.016Q112.2 -2.688 112.5 -2.266Q112.7 -1.859 113.4 -1.859Q113.7 -1.859 113.9 -1.953ZM114.2 0M118.7 0L114.4 -11.8L117.8 -11.8L120.5 -4.172L123.8 -11.8L126.1 -11.8L119.2 4.25L116 4.25L118.7 0ZM126.4 0M133.5 -2L133.5 -0.01562Q132.3 0.2656 131.5 0.2656Q128.1 0.2656 128.1 -3.594L128.1 -9.812L126.8 -9.812L126.8 -11.8L128.1 -11.8L128.1 -14.11L131.3 -14.47L131.3 -11.8L133.6 -11.8L133.6 -9.812L131.3 -9.812L131.3 -4.016Q131.3 -2.688 131.5 -2.266Q131.8 -1.859 132.5 -1.859Q132.9 -1.859 133.5 -2ZM133.7 0M135.3 0L135.3 -11.8L138.5 -11.8L138.5 0L135.3 0M135.2 -13.94L135.2 -16.97L138.6 -16.97L138.6 -13.94L135.2 -13.94ZM140.1 0M151.4 -2.453L151.4 -0.2656Q149.1 0.2656 147.4 0.2656Q144.3 0.2656 142.6 -1.344Q140.9 -2.969 140.9 -5.906Q140.9 -12.06 147.6 -12.06Q149.5 -12.06 151.3 -11.61L151.3 -9.297Q149.1 -9.938 147.9 -9.938Q144.3 -9.938 144.3 -5.922Q144.3 -4 145.3 -2.922Q146.3 -1.844 148.2 -1.844Q149.5 -1.844 151.4 -2.453ZM152.3 0M153.6 -0.3906L153.6 -2.703Q156.1 -1.719 157.8 -1.719Q160.2 -1.719 160.2 -3.016Q160.2 -3.797 158.3 -4.562L157.2 -4.984Q155 -5.875 154.3 -6.531Q153.7 -7.188 153.7 -8.5Q153.7 -12.06 158.7 -12.06Q160.4 -12.06 162.5 -11.64L162.5 -9.469Q160.1 -10.08 159 -10.08Q156.8 -10.08 156.8 -8.875Q156.8 -8.141 158.5 -7.484L159.5 -7.141Q161.8 -6.234 162.6 -5.484Q163.4 -4.734 163.4 -3.391Q163.4 -1.719 162 -0.7188Q160.5 0.2656 158 0.2656Q155.8 0.2656 153.6 -0.3906Z" fill="#111827" transform="translate(120,93.58)"/><path d="M4.391 0L4.391 -37.58L20.77 -37.58Q32.22 -37.58 32.22 -28.27Q32.22 -20.83 24.94 -17.55L37.22 0L28.44 0L17.88 -15.36L11.75 -15.36L11.75 0L4.391 0M11.75 -20.52L15.88 -20.52Q24.38 -20.52 24.38 -27.39Q24.38 -32.42 16.78 -32.42L11.75 -32.42L11.75 -20.52ZM37.55 0M63.72 -6.219L63.72 -0.9375Q59.08 0.6406 54.41 0.6406Q47.42 0.6406 43.41 -3.359Q39.42 -7.359 39.42 -14.33Q39.42 -20.77 42.91 -24.62Q46.41 -28.52 52.21 -28.52Q58.19 -28.52 60.96 -24.66Q63.72 -20.83 63.72 -12.44L47.34 -12.44Q48.14 -4.469 55.71 -4.469Q59.28 -4.469 63.72 -6.219M47.27 -16.69L56.35 -16.69Q56.35 -23.81 52.3 -23.81Q48.03 -23.81 47.27 -16.69ZM66.47 0M93.8 -4.297L93.97 -0.07812Q91.58 0.6406 89.78 0.6406Q85.13 0.6406 83.81 -3L83.49 -3Q80.77 0.6406 76.47 0.6406Q72.77 0.6406 70.48 -1.594Q68.22 -3.859 68.22 -7.516Q68.22 -17.02 81.47 -17.02L83.49 -17.02L83.49 -19.55Q83.49 -23.89 79.11 -23.89Q75.17 -23.89 70.69 -21.41L70.69 -26.58Q75.28 -28.52 80.33 -28.52Q90.69 -28.52 90.69 -19.81L90.69 -7.469Q90.69 -4.188 92.78 -4.188Q93.19 -4.188 93.8 -4.297M83.49 -7.031L83.49 -12.7L81.7 -12.7Q75.44 -12.7 75.44 -8.172Q75.44 -6.578 76.47 -5.516Q77.55 -4.469 79.17 -4.469Q81.75 -4.469 83.49 -7.031ZM95.39 0M110.4 -4.625L110.4 0Q108.7 0.6406 106.8 0.6406Q98.81 0.6406 98.81 -8.5L98.81 -40.09L106.3 -40.09L106.3 -9.5Q106.3 -6.344 106.9 -5.359Q107.4 -4.391 109.1 -4.391Q109.8 -4.391 110.4 -4.625ZM110.9 0M138.6 -17.52L138.6 -12.56L113.5 -12.56L113.5 -17.52L138.6 -17.52ZM141.3 0M158.2 -4.719L158.2 -0.03125Q155.3 0.6406 153.3 0.6406Q145.4 0.6406 145.4 -8.5L145.4 -23.19L142.3 -23.19L142.3 -27.88L145.4 -27.88L145.4 -33.34L152.9 -34.2L152.9 -27.88L158.3 -27.88L158.3 -23.19L152.9 -23.19L152.9 -9.5Q152.9 -6.344 153.4 -5.359Q154 -4.391 155.7 -4.391Q156.7 -4.391 158.2 -4.719ZM158.6 0M162.4 0L162.4 -27.88L169.9 -27.88L169.9 0L162.4 0M162.1 -32.95L162.1 -40.09L170.1 -40.09L170.1 -32.95L162.1 -32.95ZM173.6 0M177.4 0L177.4 -27.88L184.9 -27.88L184.9 -23.27Q188.3 -28.52 193.5 -28.52Q199 -28.52 200.7 -23.19Q203.8 -28.52 209.2 -28.52Q216.4 -28.52 216.4 -19.7L216.4 0L208.9 0L208.9 -17.84Q208.9 -20.64 208.4 -21.61Q207.9 -22.59 206.3 -22.59Q203.1 -22.59 200.7 -18.19L200.7 0L193.2 0L193.2 -17.84Q193.2 -20.64 192.6 -21.61Q192.1 -22.59 190.6 -22.59Q187.4 -22.59 184.9 -18.19L184.9 0L177.4 0ZM219.9 0M246 -6.219L246 -0.9375Q241.4 0.6406 236.7 0.6406Q229.7 0.6406 225.7 -3.359Q221.7 -7.359 221.7 -14.33Q221.7 -20.77 225.2 -24.62Q228.7 -28.52 234.5 -28.52Q240.5 -28.52 243.3 -24.66Q246 -20.83 246 -12.44L229.7 -12.44Q230.4 -4.469 238 -4.469Q241.6 -4.469 246 -6.219M229.6 -16.69L238.7 -16.69Q238.7 -23.81 234.6 -23.81Q230.3 -23.81 229.6 -16.69ZM263.2 0M283.7 -4.625Q279.8 0.6406 275 0.6406Q270.6 0.6406 267.9 -3.156Q265.3 -6.953 265.3 -13.17Q265.3 -20.39 268.7 -24.45Q272.2 -28.52 278.4 -28.52Q280.4 -28.52 283.7 -27.88L283.7 -40.09L291.2 -40.09L291.2 0L283.7 0L283.7 -4.625M283.7 -23.41Q280.9 -23.89 279.5 -23.89Q273.3 -23.89 273.3 -14.22Q273.3 -5.25 277.8 -5.25Q280.9 -5.25 283.7 -9.703L283.7 -23.41ZM295 0M322.3 -4.297L322.5 -0.07812Q320.1 0.6406 318.3 0.6406Q313.7 0.6406 312.3 -3L312 -3Q309.3 0.6406 305 0.6406Q301.3 0.6406 299 -1.594Q296.8 -3.859 296.8 -7.516Q296.8 -17.02 310 -17.02L312 -17.02L312 -19.55Q312 -23.89 307.6 -23.89Q303.7 -23.89 299.2 -21.41L299.2 -26.58Q303.8 -28.52 308.9 -28.52Q319.2 -28.52 319.2 -19.81L319.2 -7.469Q319.2 -4.188 321.3 -4.188Q321.7 -4.188 322.3 -4.297M312 -7.031L312 -12.7L310.2 -12.7Q304 -12.7 304 -8.172Q304 -6.578 305 -5.516Q306.1 -4.469 307.7 -4.469Q310.3 -4.469 312 -7.031ZM323.9 0M327 -0.9219L327 -6.406Q332.9 -4.062 336.9 -4.062Q342.5 -4.062 342.5 -7.109Q342.5 -8.969 338 -10.77L335.5 -11.78Q330.3 -13.89 328.7 -15.44Q327.2 -16.98 327.2 -20.08Q327.2 -28.52 338.9 -28.52Q342.9 -28.52 348 -27.53L348 -22.38Q342.4 -23.81 339.8 -23.81Q334.6 -23.81 334.6 -20.97Q334.6 -19.25 338.7 -17.7L340.9 -16.86Q346.4 -14.75 348.3 -12.95Q350.2 -11.17 350.2 -8.031Q350.2 -4.062 346.7 -1.703Q343.3 0.6406 337.4 0.6406Q332.2 0.6406 327 -0.9219ZM352.8 0M356.6 0L356.6 -40.09L364.1 -40.09L364.1 -23.27Q368.4 -28.52 373.6 -28.52Q381.2 -28.52 381.2 -19.7L381.2 0L373.7 0L373.7 -17.84Q373.7 -20.56 373 -21.58Q372.4 -22.59 370.6 -22.59Q367.6 -22.59 364.1 -18.19L364.1 0L356.6 0ZM384.6 0M395.9 0L388.4 0L388.4 -40.09L395.9 -40.09L395.9 -23.27Q399.9 -28.52 404.6 -28.52Q409 -28.52 411.7 -24.7Q414.4 -20.92 414.4 -14.7Q414.4 -7.484 410.9 -3.422Q407.4 0.6406 401.3 0.6406Q399.2 0.6406 395.9 0M395.9 -4.469Q398.7 -3.984 400.1 -3.984Q406.4 -3.984 406.4 -13.66Q406.4 -22.62 401.8 -22.62Q398.8 -22.62 395.9 -18.19L395.9 -4.469ZM416.4 0M432.1 0.6406Q425.8 0.6406 422 -3.359Q418.2 -7.359 418.2 -13.94Q418.2 -20.59 422.1 -24.55Q425.9 -28.52 432.3 -28.52Q438.6 -28.52 442.4 -24.55Q446.3 -20.59 446.3 -13.98Q446.3 -7.266 442.4 -3.297Q438.6 0.6406 432.1 0.6406M432.2 -4.062Q435 -4.062 436.7 -6.703Q438.3 -9.375 438.3 -13.98Q438.3 -18.48 436.6 -21.16Q435 -23.81 432.3 -23.81Q429.5 -23.81 427.9 -21.16Q426.2 -18.48 426.2 -13.94Q426.2 -9.453 427.9 -6.75Q429.5 -4.062 432.2 -4.062ZM448.1 0M475.5 -4.297L475.6 -0.07812Q473.3 0.6406 471.5 0.6406Q466.8 0.6406 465.5 -3L465.2 -3Q462.4 0.6406 458.1 0.6406Q454.4 0.6406 452.2 -1.594Q449.9 -3.859 449.9 -7.516Q449.9 -17.02 463.1 -17.02L465.2 -17.02L465.2 -19.55Q465.2 -23.89 460.8 -23.89Q456.8 -23.89 452.4 -21.41L452.4 -26.58Q457 -28.52 462 -28.52Q472.4 -28.52 472.4 -19.81L472.4 -7.469Q472.4 -4.188 474.5 -4.188Q474.9 -4.188 475.5 -4.297M465.2 -7.031L465.2 -12.7L463.4 -12.7Q457.1 -12.7 457.1 -8.172Q457.1 -6.578 458.1 -5.516Q459.2 -4.469 460.8 -4.469Q463.4 -4.469 465.2 -7.031ZM477.1 0M481.5 0L481.5 -27.88L489 -27.88L489 -23.27Q491.1 -28.52 495.2 -28.52Q495.8 -28.52 496.5 -28.36L496.5 -21.66Q495.1 -22.25 494.1 -22.25Q491.1 -22.25 489 -18.33L489 0L481.5 0ZM497.3 0M517.8 -4.625Q513.8 0.6406 509 0.6406Q504.7 0.6406 502 -3.156Q499.3 -6.953 499.3 -13.17Q499.3 -20.39 502.8 -24.45Q506.3 -28.52 512.4 -28.52Q514.5 -28.52 517.8 -27.88L517.8 -40.09L525.3 -40.09L525.3 0L517.8 0L517.8 -4.625M517.8 -23.41Q515 -23.89 513.6 -23.89Q507.3 -23.89 507.3 -14.22Q507.3 -5.25 511.9 -5.25Q514.9 -5.25 517.8 -9.703L517.8 -23.41ZM529.1 0M532.2 -0.9219L532.2 -6.406Q538 -4.062 542 -4.062Q547.6 -4.062 547.6 -7.109Q547.6 -8.969 543.2 -10.77L540.6 -11.78Q535.4 -13.89 533.9 -15.44Q532.3 -16.98 532.3 -20.08Q532.3 -28.52 544.1 -28.52Q548.1 -28.52 553.2 -27.53L553.2 -22.38Q547.6 -23.81 545 -23.81Q539.7 -23.81 539.7 -20.97Q539.7 -19.25 543.8 -17.7L546 -16.86Q551.6 -14.75 553.5 -12.95Q555.4 -11.17 555.4 -8.031Q555.4 -4.062 551.9 -1.703Q548.4 0.6406 542.5 0.6406Q537.3 0.6406 532.2 -0.9219ZM572.4 0M576.7 0L576.7 -23.19L573.8 -23.19L573.8 -27.88L576.7 -27.88L576.7 -29.89Q576.7 -40.73 586.6 -40.73Q588.7 -40.73 591.1 -40.06L591.1 -35.19Q589 -36.03 587.4 -36.03Q584.2 -36.03 584.2 -30.17L584.2 -27.88L588.9 -27.88L588.9 -23.19L584.2 -23.19L584.2 0L576.7 0ZM589.8 0M605.5 0.6406Q599.2 0.6406 595.4 -3.359Q591.6 -7.359 591.6 -13.94Q591.6 -20.59 595.4 -24.55Q599.2 -28.52 605.6 -28.52Q612 -28.52 615.8 -24.55Q619.6 -20.59 619.6 -13.98Q619.6 -7.266 615.8 -3.297Q612 0.6406 605.5 0.6406M605.6 -4.062Q608.4 -4.062 610 -6.703Q611.7 -9.375 611.7 -13.98Q611.7 -18.48 610 -21.16Q608.4 -23.81 605.6 -23.81Q602.9 -23.81 601.2 -21.16Q599.6 -18.48 599.6 -13.94Q599.6 -9.453 601.2 -6.75Q602.9 -4.062 605.6 -4.062ZM621.5 0M625.9 0L625.9 -27.88L633.4 -27.88L633.4 -23.27Q635.5 -28.52 639.7 -28.52Q640.2 -28.52 640.9 -28.36L640.9 -21.66Q639.5 -22.25 638.5 -22.25Q635.5 -22.25 633.4 -18.33L633.4 0L625.9 0ZM656.2 0M666.8 0L656.8 -27.88L664.8 -27.88L671.2 -9.859L678.9 -27.88L684.5 -27.88L668.2 10.03L660.5 10.03L666.8 0ZM685.1 0M700.8 0.6406Q694.6 0.6406 690.8 -3.359Q687 -7.359 687 -13.94Q687 -20.59 690.8 -24.55Q694.6 -28.52 701 -28.52Q707.4 -28.52 711.2 -24.55Q715 -20.59 715 -13.98Q715 -7.266 711.2 -3.297Q707.4 0.6406 700.8 0.6406M700.9 -4.062Q703.8 -4.062 705.4 -6.703Q707 -9.375 707 -13.98Q707 -18.48 705.4 -21.16Q703.8 -23.81 701 -23.81Q698.2 -23.81 696.6 -21.16Q695 -18.48 695 -13.94Q695 -9.453 696.6 -6.75Q698.2 -4.062 700.9 -4.062ZM716.9 0M737.4 0L737.4 -4.625Q733.1 0.6406 727.9 0.6406Q720.3 0.6406 720.3 -8.172L720.3 -27.88L727.9 -27.88L727.9 -10.03Q727.9 -7.312 728.5 -6.297Q729.1 -5.281 730.9 -5.281Q733.9 -5.281 737.4 -9.703L737.4 -27.88L744.9 -27.88L744.9 0L737.4 0ZM748.7 0M753 0L753 -27.88L760.6 -27.88L760.6 -23.27Q762.7 -28.52 766.8 -28.52Q767.4 -28.52 768.1 -28.36L768.1 -21.66Q766.7 -22.25 765.7 -22.25Q762.7 -22.25 760.6 -18.33L760.6 0L753 0ZM783.3 0M809.5 -6.219L809.5 -0.9375Q804.9 0.6406 800.2 0.6406Q793.2 0.6406 789.2 -3.359Q785.2 -7.359 785.2 -14.33Q785.2 -20.77 788.7 -24.62Q792.2 -28.52 798 -28.52Q804 -28.52 806.8 -24.66Q809.5 -20.83 809.5 -12.44L793.1 -12.44Q793.9 -4.469 801.5 -4.469Q805.1 -4.469 809.5 -6.219M793.1 -16.69L802.1 -16.69Q802.1 -23.81 798.1 -23.81Q793.8 -23.81 793.1 -16.69ZM812.3 0M816 0L816 -27.88L823.5 -27.88L823.5 -23.27Q827.8 -28.52 833 -28.52Q840.6 -28.52 840.6 -19.7L840.6 0L833.1 0L833.1 -17.84Q833.1 -20.56 832.4 -21.58Q831.8 -22.59 830.1 -22.59Q827 -22.59 823.5 -18.19L823.5 0L816 0ZM844 0M860.9 -4.719L860.9 -0.03125Q858 0.6406 856.1 0.6406Q848.1 0.6406 848.1 -8.5L848.1 -23.19L845.1 -23.19L845.1 -27.88L848.1 -27.88L848.1 -33.34L855.7 -34.2L855.7 -27.88L861 -27.88L861 -23.19L855.7 -23.19L855.7 -9.5Q855.7 -6.344 856.2 -5.359Q856.7 -4.391 858.4 -4.391Q859.4 -4.391 860.9 -4.719ZM861.3 0M865.1 0L865.1 -27.88L872.6 -27.88L872.6 0L865.1 0M864.8 -32.95L864.8 -40.09L872.9 -40.09L872.9 -32.95L864.8 -32.95ZM876.4 0M880.8 0L880.8 -27.88L888.3 -27.88L888.3 -23.27Q890.4 -28.52 894.5 -28.52Q895.1 -28.52 895.8 -28.36L895.8 -21.66Q894.4 -22.25 893.4 -22.25Q890.4 -22.25 888.3 -18.33L888.3 0L880.8 0ZM896.6 0M922.8 -6.219L922.8 -0.9375Q918.1 0.6406 913.5 0.6406Q906.5 0.6406 902.5 -3.359Q898.5 -7.359 898.5 -14.33Q898.5 -20.77 902 -24.62Q905.5 -28.52 911.3 -28.52Q917.2 -28.52 920 -24.66Q922.8 -20.83 922.8 -12.44L906.4 -12.44Q907.2 -4.469 914.8 -4.469Q918.3 -4.469 922.8 -6.219M906.3 -16.69L915.4 -16.69Q915.4 -23.81 911.4 -23.81Q907.1 -23.81 906.3 -16.69ZM940 0M956.9 -4.719L956.9 -0.03125Q954 0.6406 952 0.6406Q944.1 0.6406 944.1 -8.5L944.1 -23.19L941 -23.19L941 -27.88L944.1 -27.88L944.1 -33.34L951.6 -34.2L951.6 -27.88L957 -27.88L957 -23.19L951.6 -23.19L951.6 -9.5Q951.6 -6.344 952.1 -5.359Q952.7 -4.391 954.4 -4.391Q955.4 -4.391 956.9 -4.719ZM957.3 0M983.5 -6.219L983.5 -0.9375Q978.8 0.6406 974.2 0.6406Q967.2 0.6406 963.2 -3.359Q959.2 -7.359 959.2 -14.33Q959.2 -20.77 962.7 -24.62Q966.2 -28.52 972 -28.52Q977.9 -28.52 980.7 -24.66Q983.5 -20.83 983.5 -12.44L967.1 -12.44Q967.9 -4.469 975.5 -4.469Q979 -4.469 983.5 -6.219M967 -16.69L976.1 -16.69Q976.1 -23.81 972 -23.81Q967.8 -23.81 967 -16.69ZM986.2 0M1014 -4.297L1014 -0.07812Q1011 0.6406 1010 0.6406Q1005 0.6406 1004 -3L1003 -3Q1001 0.6406 996.2 0.6406Q992.5 0.6406 990.2 -1.594Q988 -3.859 988 -7.516Q988 -17.02 1001 -17.02L1003 -17.02L1003 -19.55Q1003 -23.89 998.9 -23.89Q994.9 -23.89 990.4 -21.41L990.4 -26.58Q995 -28.52 1000 -28.52Q1010 -28.52 1010 -19.81L1010 -7.469Q1010 -4.188 1013 -4.188Q1013 -4.188 1014 -4.297M1003 -7.031L1003 -12.7L1001 -12.7Q995.2 -12.7 995.2 -8.172Q995.2 -6.578 996.2 -5.516Q997.3 -4.469 998.9 -4.469Q1001 -4.469 1003 -7.031ZM1015 0M1019 0L1019 -27.88L1026 -27.88L1026 -23.27Q1030 -28.52 1035 -28.52Q1041 -28.52 1042 -23.19Q1045 -28.52 1051 -28.52Q1058 -28.52 1058 -19.7L1058 0L1050 0L1050 -17.84Q1050 -20.64 1050 -21.61Q1049 -22.59 1048 -22.59Q1045 -22.59 1042 -18.19L1042 0L1035 0L1035 -17.84Q1035 -20.64 1034 -21.61Q1034 -22.59 1032 -22.59Q1029 -22.59 1026 -18.19L1026 0L1019 0Z" fill="#111827" transform="translate(64,189.1)"/><path d="M5.594 0L5.594 -14.22L0.2188 -14.22L0.2188 -15.91L13.22 -15.91L13.22 -14.22L7.844 -14.22L7.844 0L5.594 0ZM13.44 0M15.09 0L15.09 -11.67L17.2 -11.67L17.2 -9.469Q18.17 -11.92 20 -11.92Q20.25 -11.92 20.61 -11.88L20.61 -9.891Q20.06 -10.08 19.72 -10.08Q18.5 -10.08 17.2 -7.688L17.2 0L15.09 0ZM20.77 0M32.33 -1.812L32.41 -0.03125Q31.39 0.2656 30.62 0.2656Q28.66 0.2656 28.11 -1.266L27.97 -1.266Q26.81 0.2656 25 0.2656Q23.44 0.2656 22.47 -0.6719Q21.5 -1.641 21.5 -3.188Q21.5 -7.203 27.11 -7.203L27.97 -7.203L27.97 -8.266Q27.97 -10.11 26.11 -10.11Q24.45 -10.11 22.55 -9.062L22.55 -11.25Q24.5 -12.06 26.62 -12.06Q31.02 -12.06 31.02 -8.375L31.02 -3.156Q31.02 -1.766 31.89 -1.766Q32.07 -1.766 32.33 -1.812M27.97 -2.969L27.97 -5.375L27.22 -5.375Q24.56 -5.375 24.56 -3.453Q24.56 -2.781 25 -2.328Q25.45 -1.891 26.14 -1.891Q27.23 -1.891 27.97 -2.969ZM33 0M44.34 -2.453L44.34 -0.2656Q42.06 0.2656 40.31 0.2656Q37.2 0.2656 35.5 -1.344Q33.8 -2.969 33.8 -5.906Q33.8 -12.06 40.55 -12.06Q42.42 -12.06 44.25 -11.61L44.25 -9.297Q42 -9.938 40.78 -9.938Q37.17 -9.938 37.17 -5.922Q37.17 -4 38.2 -2.922Q39.25 -1.844 41.08 -1.844Q42.38 -1.844 44.34 -2.453ZM45.23 0M46.89 0L46.89 -16.97L49 -16.97L49 -6L52.92 -11.67L54.94 -11.67L51.2 -6.156L56.04 0L53.47 0L49 -5.984L49 0L46.89 0ZM62.34 0M63.94 0L63.94 -11.8L67.11 -11.8L67.11 -9.844Q68.55 -12.06 70.73 -12.06Q73.09 -12.06 73.78 -9.812Q75.09 -12.06 77.4 -12.06Q80.43 -12.06 80.43 -8.344L80.43 0L77.26 0L77.26 -7.547Q77.26 -8.734 77.04 -9.141Q76.82 -9.562 76.18 -9.562Q74.81 -9.562 73.78 -7.688L73.78 0L70.61 0L70.61 -7.547Q70.61 -8.734 70.37 -9.141Q70.16 -9.562 69.52 -9.562Q68.16 -9.562 67.11 -7.688L67.11 0L63.94 0ZM81.91 0M92.99 -2.625L92.99 -0.3906Q91.02 0.2656 89.05 0.2656Q86.08 0.2656 84.39 -1.422Q82.7 -3.109 82.7 -6.062Q82.7 -8.781 84.17 -10.42Q85.66 -12.06 88.11 -12.06Q90.64 -12.06 91.81 -10.44Q92.99 -8.812 92.99 -5.266L86.05 -5.266Q86.39 -1.891 89.59 -1.891Q91.11 -1.891 92.99 -2.625M86.02 -7.062L89.86 -7.062Q89.86 -10.08 88.14 -10.08Q86.34 -10.08 86.02 -7.062ZM94.14 0M101.3 -2L101.3 -0.01562Q100.1 0.2656 99.25 0.2656Q95.87 0.2656 95.87 -3.594L95.87 -9.812L94.59 -9.812L94.59 -11.8L95.87 -11.8L95.87 -14.11L99.06 -14.47L99.06 -11.8L101.3 -11.8L101.3 -9.812L99.06 -9.812L99.06 -4.016Q99.06 -2.688 99.28 -2.266Q99.52 -1.859 100.2 -1.859Q100.7 -1.859 101.3 -2ZM101.5 0M103.1 0L103.1 -11.67L105.2 -11.67L105.2 -9.469Q106.2 -11.92 108 -11.92Q108.3 -11.92 108.6 -11.88L108.6 -9.891Q108.1 -10.08 107.7 -10.08Q106.5 -10.08 105.2 -7.688L105.2 0L103.1 0ZM108.8 0M110.4 0L110.4 -11.8L113.6 -11.8L113.6 0L110.4 0M110.3 -13.94L110.3 -16.97L113.7 -16.97L113.7 -13.94L110.3 -13.94ZM115.2 0M126.5 -2.453L126.5 -0.2656Q124.2 0.2656 122.5 0.2656Q119.4 0.2656 117.7 -1.344Q116 -2.969 116 -5.906Q116 -12.06 122.7 -12.06Q124.6 -12.06 126.4 -11.61L126.4 -9.297Q124.2 -9.938 122.9 -9.938Q119.3 -9.938 119.3 -5.922Q119.3 -4 120.4 -2.922Q121.4 -1.844 123.2 -1.844Q124.5 -1.844 126.5 -2.453ZM127.4 0M128.7 -0.3906L128.7 -2.703Q131.2 -1.719 132.9 -1.719Q135.2 -1.719 135.2 -3.016Q135.2 -3.797 133.4 -4.562L132.3 -4.984Q130.1 -5.875 129.4 -6.531Q128.8 -7.188 128.8 -8.5Q128.8 -12.06 133.7 -12.06Q135.4 -12.06 137.6 -11.64L137.6 -9.469Q135.2 -10.08 134.1 -10.08Q131.9 -10.08 131.9 -8.875Q131.9 -8.141 133.6 -7.484L134.6 -7.141Q136.9 -6.234 137.7 -5.484Q138.5 -4.734 138.5 -3.391Q138.5 -1.719 137 -0.7188Q135.6 0.2656 133.1 0.2656Q130.9 0.2656 128.7 -0.3906ZM139.6 0M141.8 3.766L141.8 2.969Q142.8 2.672 142.8 0.2188L142.8 0L141.8 0L141.8 -2.656L144.4 -2.656L144.4 -0.3594Q144.4 3.766 141.8 3.766ZM152.7 0M154 -0.3906L154 -2.703Q156.5 -1.719 158.2 -1.719Q160.6 -1.719 160.6 -3.016Q160.6 -3.797 158.7 -4.562L157.6 -4.984Q155.4 -5.875 154.7 -6.531Q154.1 -7.188 154.1 -8.5Q154.1 -12.06 159 -12.06Q160.8 -12.06 162.9 -11.64L162.9 -9.469Q160.5 -10.08 159.4 -10.08Q157.2 -10.08 157.2 -8.875Q157.2 -8.141 158.9 -7.484L159.9 -7.141Q162.2 -6.234 163 -5.484Q163.8 -4.734 163.8 -3.391Q163.8 -1.719 162.3 -0.7188Q160.9 0.2656 158.4 0.2656Q156.2 0.2656 154 -0.3906ZM164.9 0M176 -2.625L176 -0.3906Q174 0.2656 172.1 0.2656Q169.1 0.2656 167.4 -1.422Q165.7 -3.109 165.7 -6.062Q165.7 -8.781 167.2 -10.42Q168.7 -12.06 171.1 -12.06Q173.7 -12.06 174.8 -10.44Q176 -8.812 176 -5.266L169.1 -5.266Q169.4 -1.891 172.6 -1.891Q174.1 -1.891 176 -2.625M169 -7.062L172.9 -7.062Q172.9 -10.08 171.2 -10.08Q169.4 -10.08 169 -7.062ZM177.2 0M184.3 -2L184.3 -0.01562Q183.1 0.2656 182.3 0.2656Q178.9 0.2656 178.9 -3.594L178.9 -9.812L177.6 -9.812L177.6 -11.8L178.9 -11.8L178.9 -14.11L182.1 -14.47L182.1 -11.8L184.3 -11.8L184.3 -9.812L182.1 -9.812L182.1 -4.016Q182.1 -2.688 182.3 -2.266Q182.5 -1.859 183.2 -1.859Q183.7 -1.859 184.3 -2ZM190.6 0M202.2 -1.812L202.2 -0.03125Q201.2 0.2656 200.5 0.2656Q198.5 0.2656 198 -1.266L197.8 -1.266Q196.7 0.2656 194.8 0.2656Q193.3 0.2656 192.3 -0.6719Q191.3 -1.641 191.3 -3.188Q191.3 -7.203 197 -7.203L197.8 -7.203L197.8 -8.266Q197.8 -10.11 196 -10.11Q194.3 -10.11 192.4 -9.062L192.4 -11.25Q194.3 -12.06 196.5 -12.06Q200.9 -12.06 200.9 -8.375L200.9 -3.156Q200.9 -1.766 201.7 -1.766Q201.9 -1.766 202.2 -1.812M197.8 -2.969L197.8 -5.375L197.1 -5.375Q194.4 -5.375 194.4 -3.453Q194.4 -2.781 194.8 -2.328Q195.3 -1.891 196 -1.891Q197.1 -1.891 197.8 -2.969ZM202.8 0M209.2 -1.953L209.2 0Q208.5 0.2656 207.7 0.2656Q204.3 0.2656 204.3 -3.594L204.3 -16.97L207.5 -16.97L207.5 -4.016Q207.5 -2.688 207.7 -2.266Q207.9 -1.859 208.6 -1.859Q208.9 -1.859 209.2 -1.953ZM209.4 0M220.5 -2.625L220.5 -0.3906Q218.5 0.2656 216.5 0.2656Q213.6 0.2656 211.9 -1.422Q210.2 -3.109 210.2 -6.062Q210.2 -8.781 211.7 -10.42Q213.2 -12.06 215.6 -12.06Q218.1 -12.06 219.3 -10.44Q220.5 -8.812 220.5 -5.266L213.5 -5.266Q213.9 -1.891 217.1 -1.891Q218.6 -1.891 220.5 -2.625M213.5 -7.062L217.4 -7.062Q217.4 -10.08 215.6 -10.08Q213.8 -10.08 213.5 -7.062ZM221.6 0M223.3 0L223.3 -11.67L225.4 -11.67L225.4 -9.469Q226.4 -11.92 228.2 -11.92Q228.5 -11.92 228.8 -11.88L228.8 -9.891Q228.3 -10.08 227.9 -10.08Q226.7 -10.08 225.4 -7.688L225.4 0L223.3 0ZM229 0M236.1 -2L236.1 -0.01562Q234.9 0.2656 234.1 0.2656Q230.7 0.2656 230.7 -3.594L230.7 -9.812L229.4 -9.812L229.4 -11.8L230.7 -11.8L230.7 -14.11L233.9 -14.47L233.9 -11.8L236.1 -11.8L236.1 -9.812L233.9 -9.812L233.9 -4.016Q233.9 -2.688 234.1 -2.266Q234.3 -1.859 235 -1.859Q235.5 -1.859 236.1 -2ZM236.3 0M237.6 -0.3906L237.6 -2.703Q240.1 -1.719 241.8 -1.719Q244.2 -1.719 244.2 -3.016Q244.2 -3.797 242.3 -4.562L241.2 -4.984Q239 -5.875 238.3 -6.531Q237.7 -7.188 237.7 -8.5Q237.7 -12.06 242.6 -12.06Q244.3 -12.06 246.5 -11.64L246.5 -9.469Q244.1 -10.08 243 -10.08Q240.8 -10.08 240.8 -8.875Q240.8 -8.141 242.5 -7.484L243.5 -7.141Q245.8 -6.234 246.6 -5.484Q247.4 -4.734 247.4 -3.391Q247.4 -1.719 245.9 -0.7188Q244.5 0.2656 242 0.2656Q239.8 0.2656 237.6 -0.3906ZM248.5 0M250.7 3.766L250.7 2.969Q251.7 2.672 251.7 0.2188L251.7 0L250.7 0L250.7 -2.656L253.3 -2.656L253.3 -0.3594Q253.3 3.766 250.7 3.766ZM261.6 0M273.2 -1.812L273.2 -0.03125Q272.2 0.2656 271.5 0.2656Q269.5 0.2656 269 -1.266L268.8 -1.266Q267.7 0.2656 265.8 0.2656Q264.3 0.2656 263.3 -0.6719Q262.3 -1.641 262.3 -3.188Q262.3 -7.203 268 -7.203L268.8 -7.203L268.8 -8.266Q268.8 -10.11 267 -10.11Q265.3 -10.11 263.4 -9.062L263.4 -11.25Q265.3 -12.06 267.5 -12.06Q271.9 -12.06 271.9 -8.375L271.9 -3.156Q271.9 -1.766 272.7 -1.766Q272.9 -1.766 273.2 -1.812M268.8 -2.969L268.8 -5.375L268.1 -5.375Q265.4 -5.375 265.4 -3.453Q265.4 -2.781 265.8 -2.328Q266.3 -1.891 267 -1.891Q268.1 -1.891 268.8 -2.969ZM273.8 0M275.4 0L275.4 -11.8L278.6 -11.8L278.6 -9.844Q280.4 -12.06 282.6 -12.06Q285.8 -12.06 285.8 -8.344L285.8 0L282.7 0L282.7 -7.547Q282.7 -8.703 282.4 -9.125Q282.1 -9.562 281.4 -9.562Q280.1 -9.562 278.6 -7.688L278.6 0L275.4 0ZM287.3 0M295.7 -4.109L295.7 -10.06Q294.3 -10.33 293.5 -10.33Q290.5 -10.33 290.5 -5.688Q290.5 -3.797 291.1 -2.688Q291.7 -1.594 292.7 -1.594Q294.1 -1.594 295.7 -4.109M295.7 -2.188Q294.5 0.2656 292.3 0.2656Q290.4 0.2656 289.3 -1.312Q288.2 -2.906 288.2 -5.5Q288.2 -8.578 289.6 -10.25Q291.1 -11.92 293.7 -11.92Q294.7 -11.92 295.7 -11.67L295.7 -16.97L297.9 -16.97L297.9 0L295.7 0L295.7 -2.188ZM305.6 0M307 -0.3906L307 -2.703Q309.4 -1.719 311.1 -1.719Q313.5 -1.719 313.5 -3.016Q313.5 -3.797 311.6 -4.562L310.5 -4.984Q308.3 -5.875 307.7 -6.531Q307 -7.188 307 -8.5Q307 -12.06 312 -12.06Q313.7 -12.06 315.8 -11.64L315.8 -9.469Q313.5 -10.08 312.4 -10.08Q310.1 -10.08 310.1 -8.875Q310.1 -8.141 311.9 -7.484L312.8 -7.141Q315.2 -6.234 316 -5.484Q316.7 -4.734 316.7 -3.391Q316.7 -1.719 315.3 -0.7188Q313.8 0.2656 311.3 0.2656Q309.1 0.2656 307 -0.3906ZM317.9 0M319.5 0L319.5 -16.97L321.6 -16.97L321.6 -9.469Q323.3 -11.92 325.6 -11.92Q328.6 -11.92 328.6 -8.375L328.6 0L326.4 0L326.4 -7.688Q326.4 -9.094 326.1 -9.609Q325.9 -10.11 325 -10.11Q323.2 -10.11 321.6 -7.547L321.6 0L319.5 0ZM330.1 0M341.7 -1.812L341.7 -0.03125Q340.7 0.2656 340 0.2656Q338 0.2656 337.4 -1.266L337.3 -1.266Q336.1 0.2656 334.3 0.2656Q332.8 0.2656 331.8 -0.6719Q330.8 -1.641 330.8 -3.188Q330.8 -7.203 336.4 -7.203L337.3 -7.203L337.3 -8.266Q337.3 -10.11 335.4 -10.11Q333.8 -10.11 331.9 -9.062L331.9 -11.25Q333.8 -12.06 336 -12.06Q340.3 -12.06 340.3 -8.375L340.3 -3.156Q340.3 -1.766 341.2 -1.766Q341.4 -1.766 341.7 -1.812M337.3 -2.969L337.3 -5.375L336.5 -5.375Q333.9 -5.375 333.9 -3.453Q333.9 -2.781 334.3 -2.328Q334.8 -1.891 335.5 -1.891Q336.6 -1.891 337.3 -2.969ZM342.3 0M344 0L344 -11.67L346.1 -11.67L346.1 -9.469Q347.1 -11.92 348.9 -11.92Q349.1 -11.92 349.5 -11.88L349.5 -9.891Q349 -10.08 348.6 -10.08Q347.4 -10.08 346.1 -7.688L346.1 0L344 0ZM349.7 0M360.7 -2.625L360.7 -0.3906Q358.8 0.2656 356.8 0.2656Q353.8 0.2656 352.1 -1.422Q350.5 -3.109 350.5 -6.062Q350.5 -8.781 351.9 -10.42Q353.4 -12.06 355.9 -12.06Q358.4 -12.06 359.6 -10.44Q360.7 -8.812 360.7 -5.266L353.8 -5.266Q354.1 -1.891 357.3 -1.891Q358.9 -1.891 360.7 -2.625M353.8 -7.062L357.6 -7.062Q357.6 -10.08 355.9 -10.08Q354.1 -10.08 353.8 -7.062ZM368 0M369.6 0L369.6 -11.8L372.8 -11.8L372.8 0L369.6 0M369.5 -13.94L369.5 -16.97L372.9 -16.97L372.9 -13.94L369.5 -13.94ZM374.4 0M376 0L376 -11.8L379.1 -11.8L379.1 -9.844Q380.9 -12.06 383.1 -12.06Q386.3 -12.06 386.3 -8.344L386.3 0L383.2 0L383.2 -7.547Q383.2 -8.703 382.9 -9.125Q382.6 -9.562 381.9 -9.562Q380.6 -9.562 379.1 -7.688L379.1 0L376 0ZM387.8 0M389.1 -0.3906L389.1 -2.703Q391.6 -1.719 393.3 -1.719Q395.7 -1.719 395.7 -3.016Q395.7 -3.797 393.8 -4.562L392.7 -4.984Q390.5 -5.875 389.8 -6.531Q389.2 -7.188 389.2 -8.5Q389.2 -12.06 394.1 -12.06Q395.8 -12.06 398 -11.64L398 -9.469Q395.6 -10.08 394.5 -10.08Q392.3 -10.08 392.3 -8.875Q392.3 -8.141 394 -7.484L395 -7.141Q397.3 -6.234 398.1 -5.484Q398.9 -4.734 398.9 -3.391Q398.9 -1.719 397.4 -0.7188Q396 0.2656 393.5 0.2656Q391.3 0.2656 389.1 -0.3906ZM400 0M401.6 0L401.6 -11.8L404.8 -11.8L404.8 0L401.6 0M401.5 -13.94L401.5 -16.97L404.9 -16.97L404.9 -13.94L401.5 -13.94ZM406.4 0M414.9 -4.641L414.9 -10.06Q413.5 -10.33 412.7 -10.33Q409.7 -10.33 409.7 -6.172Q409.7 -4.312 410.3 -3.219Q410.9 -2.109 411.9 -2.109Q413.3 -2.109 414.9 -4.641M414.9 -2.719Q413.7 -0.2656 411.4 -0.2656Q409.6 -0.2656 408.5 -1.828Q407.4 -3.391 407.4 -5.906Q407.4 -8.781 408.8 -10.34Q410.3 -11.92 412.9 -11.92Q413.9 -11.92 414.9 -11.67L417 -11.67L417 -3.188Q417 -0.4375 416.8 0.875Q416.5 2.188 415.7 3.031Q414.3 4.516 411.4 4.516Q409.3 4.516 407.5 3.875L407.5 2.047Q409.7 2.906 411.4 2.906Q414.9 2.906 414.9 -0.875L414.9 -2.719ZM418.6 0M420.3 0L420.3 -16.97L422.4 -16.97L422.4 -9.469Q424.1 -11.92 426.3 -11.92Q429.3 -11.92 429.3 -8.375L429.3 0L427.2 0L427.2 -7.688Q427.2 -9.094 426.9 -9.609Q426.6 -10.11 425.8 -10.11Q424 -10.11 422.4 -7.547L422.4 0L420.3 0ZM430.9 0M438 -2L438 -0.01562Q436.8 0.2656 436 0.2656Q432.6 0.2656 432.6 -3.594L432.6 -9.812L431.3 -9.812L431.3 -11.8L432.6 -11.8L432.6 -14.11L435.8 -14.47L435.8 -11.8L438 -11.8L438 -9.812L435.8 -9.812L435.8 -4.016Q435.8 -2.688 436 -2.266Q436.2 -1.859 436.9 -1.859Q437.4 -1.859 438 -2ZM438.2 0M439.5 -0.3906L439.5 -2.703Q442 -1.719 443.7 -1.719Q446 -1.719 446 -3.016Q446 -3.797 444.2 -4.562L443.1 -4.984Q440.9 -5.875 440.2 -6.531Q439.6 -7.188 439.6 -8.5Q439.6 -12.06 444.5 -12.06Q446.2 -12.06 448.4 -11.64L448.4 -9.469Q446 -10.08 444.9 -10.08Q442.7 -10.08 442.7 -8.875Q442.7 -8.141 444.4 -7.484L445.4 -7.141Q447.7 -6.234 448.5 -5.484Q449.3 -4.734 449.3 -3.391Q449.3 -1.719 447.8 -0.7188Q446.4 0.2656 443.9 0.2656Q441.7 0.2656 439.5 -0.3906ZM450.4 0M452.6 0L452.6 -2.766L455.3 -2.766L455.3 0L452.6 0ZM463.5 0M465.3 0L465.3 -15.91L467.5 -15.91L475.7 -3.625L475.7 -15.91L477.6 -15.91L477.6 0L475.4 0L467.2 -12.28L467.2 0L465.3 0ZM479.4 0M485.4 0.2656Q483.1 0.2656 481.7 -1.391Q480.3 -3.047 480.3 -5.828Q480.3 -8.656 481.7 -10.3Q483.1 -11.92 485.5 -11.92Q487.9 -11.92 489.3 -10.3Q490.7 -8.672 490.7 -5.859Q490.7 -2.969 489.3 -1.359Q487.9 0.2656 485.4 0.2656M485.5 -1.328Q488.4 -1.328 488.4 -5.891Q488.4 -10.33 485.5 -10.33Q482.6 -10.33 482.6 -5.828Q482.6 -1.328 485.5 -1.328ZM497.7 0M499 -0.5625L499 -2.797Q502.1 -1.297 505.4 -1.297Q508.8 -1.297 508.8 -3.859Q508.8 -5 508.1 -5.594Q507.5 -6.188 505.4 -6.844L503.3 -7.547Q499.1 -8.922 499.1 -11.98Q499.1 -16.3 504.9 -16.3Q507.5 -16.3 510.1 -15.62L510.1 -13.55Q507.4 -14.61 504.8 -14.61Q501.3 -14.61 501.3 -12.25Q501.3 -11.3 501.9 -10.72Q502.6 -10.16 504.3 -9.578L506.5 -8.859Q509 -8.031 510.1 -6.984Q511.1 -5.938 511.1 -4.188Q511.1 -2.062 509.5 -0.8281Q508 0.3906 505.3 0.3906Q502.4 0.3906 499 -0.5625ZM512.4 0M530 1.391L528.6 3.188Q524.8 1.953 522.3 0.2969Q521.3 0.4062 520.7 0.4062Q517.5 0.4062 515.4 -1.922Q513.4 -4.266 513.4 -7.953Q513.4 -11.73 515.5 -14.02Q517.5 -16.3 520.9 -16.3Q524.4 -16.3 526.5 -14.02Q528.5 -11.75 528.5 -7.922Q528.5 -2.469 524.4 -0.3281Q527 0.875 530 1.391M526.1 -7.859Q526.1 -11.09 524.8 -12.84Q523.4 -14.61 520.9 -14.61Q518.5 -14.61 517.2 -12.84Q515.8 -11.08 515.8 -7.953Q515.8 -4.828 517.2 -3.047Q518.5 -1.297 520.9 -1.297Q523.4 -1.297 524.7 -3.031Q526.1 -4.766 526.1 -7.859ZM529.5 0M531.3 0L531.3 -15.91L533.5 -15.91L533.5 -1.688L541.3 -1.688L541.3 0L531.3 0ZM547.9 0M549.5 0L549.5 -11.67L551.6 -11.67L551.6 -9.469Q552.6 -11.92 554.4 -11.92Q554.7 -11.92 555 -11.88L555 -9.891Q554.5 -10.08 554.1 -10.08Q552.9 -10.08 551.6 -7.688L551.6 0L549.5 0ZM555.2 0M566.3 -2.625L566.3 -0.3906Q564.3 0.2656 562.3 0.2656Q559.4 0.2656 557.7 -1.422Q556 -3.109 556 -6.062Q556 -8.781 557.5 -10.42Q558.9 -12.06 561.4 -12.06Q563.9 -12.06 565.1 -10.44Q566.3 -8.812 566.3 -5.266L559.3 -5.266Q559.7 -1.891 562.9 -1.891Q564.4 -1.891 566.3 -2.625M559.3 -7.062L563.1 -7.062Q563.1 -10.08 561.4 -10.08Q559.6 -10.08 559.3 -7.062ZM567.4 0M575.9 -11.67L578 -11.67L578 4.25L575.9 4.25L575.9 -2.188Q574.6 0.2656 572.4 0.2656Q570.6 0.2656 569.5 -1.312Q568.3 -2.906 568.3 -5.5Q568.3 -8.578 569.8 -10.25Q571.2 -11.92 573.8 -11.92Q574.9 -11.92 575.9 -11.67M575.9 -4.109L575.9 -10.06Q574.4 -10.33 573.7 -10.33Q570.6 -10.33 570.6 -5.688Q570.6 -3.797 571.2 -2.688Q571.8 -1.594 572.9 -1.594Q574.2 -1.594 575.9 -4.109ZM579.7 0M588.1 0L588.1 -2.188Q586.4 0.2656 584.2 0.2656Q581.2 0.2656 581.2 -3.281L581.2 -11.67L583.3 -11.67L583.3 -3.969Q583.3 -2.562 583.6 -2.062Q583.9 -1.562 584.7 -1.562Q586.5 -1.562 588.1 -4.109L588.1 -11.67L590.2 -11.67L590.2 0L588.1 0ZM591.9 0M593.5 0L593.5 -11.8L596.7 -11.8L596.7 0L593.5 0M593.4 -13.94L593.4 -16.97L596.8 -16.97L596.8 -13.94L593.4 -13.94ZM598.2 0M599.9 0L599.9 -11.67L602 -11.67L602 -9.469Q603 -11.92 604.8 -11.92Q605.1 -11.92 605.4 -11.88L605.4 -9.891Q604.9 -10.08 604.5 -10.08Q603.3 -10.08 602 -7.688L602 0L599.9 0ZM605.6 0M616.7 -2.625L616.7 -0.3906Q614.7 0.2656 612.7 0.2656Q609.8 0.2656 608.1 -1.422Q606.4 -3.109 606.4 -6.062Q606.4 -8.781 607.8 -10.42Q609.3 -12.06 611.8 -12.06Q614.3 -12.06 615.5 -10.44Q616.7 -8.812 616.7 -5.266L609.7 -5.266Q610.1 -1.891 613.3 -1.891Q614.8 -1.891 616.7 -2.625M609.7 -7.062L613.5 -7.062Q613.5 -10.08 611.8 -10.08Q610 -10.08 609.7 -7.062ZM617.8 0M626.3 -4.109L626.3 -10.06Q624.8 -10.33 624.1 -10.33Q621 -10.33 621 -5.688Q621 -3.797 621.6 -2.688Q622.2 -1.594 623.3 -1.594Q624.6 -1.594 626.3 -4.109M626.3 -2.188Q625 0.2656 622.8 0.2656Q621 0.2656 619.8 -1.312Q618.7 -2.906 618.7 -5.5Q618.7 -8.578 620.2 -10.25Q621.6 -11.92 624.2 -11.92Q625.3 -11.92 626.3 -11.67L626.3 -16.97L628.4 -16.97L628.4 0L626.3 0L626.3 -2.188ZM630 0M632.2 0L632.2 -2.766L635 -2.766L635 0L632.2 0Z" fill="#6b7280" transform="translate(64,227.9)"/><rect x="64" y="526.8" width="161.5" height="39.2" fill="#3b82f6" rx="8" ry="8"/><path d="M0.7969 -0.1094L0.7969 -2.078Q3.016 -1.297 4.891 -1.297Q7.547 -1.297 7.547 -2.844Q7.547 -3.844 6.531 -4.266L5.469 -4.672L4.188 -5.156Q2.156 -5.938 1.469 -6.641Q0.7812 -7.344 0.7812 -8.641Q0.7812 -11.86 5.5 -11.86Q7.484 -11.86 9.266 -11.45L9.266 -9.625Q7.406 -10.27 5.672 -10.27Q4.25 -10.27 3.703 -9.969Q3.156 -9.672 3.156 -8.906Q3.156 -8.422 3.422 -8.156Q3.688 -7.875 4.453 -7.594L5.344 -7.25L6.672 -6.766Q8.594 -6.047 9.328 -5.281Q10.08 -4.516 10.08 -3.219Q10.08 -1.406 8.719 -0.5469Q7.375 0.2969 4.484 0.2969Q3.391 0.2969 2.031 0.09375L0.7969 -0.1094ZM10.67 0M15.87 -1.453L15.87 -0.01562Q14.98 0.2031 14.39 0.2031Q11.94 0.2031 11.94 -2.625L11.94 -7.141L11 -7.141L11 -8.578L11.94 -8.578L11.94 -10.27L14.25 -10.53L14.25 -8.578L15.89 -8.578L15.89 -7.141L14.25 -7.141L14.25 -2.922Q14.25 -1.953 14.42 -1.656Q14.58 -1.359 15.09 -1.359Q15.41 -1.359 15.87 -1.453ZM16 0M24.41 -1.328L24.47 -0.03125Q23.73 0.2031 23.17 0.2031Q21.75 0.2031 21.34 -0.9219L21.23 -0.9219Q20.41 0.2031 19.08 0.2031Q17.94 0.2031 17.23 -0.5Q16.55 -1.188 16.55 -2.312Q16.55 -5.234 20.62 -5.234L21.23 -5.234L21.23 -6.016Q21.23 -7.359 19.89 -7.359Q18.69 -7.359 17.3 -6.594L17.3 -8.188Q18.72 -8.781 20.27 -8.781Q23.45 -8.781 23.45 -6.094L23.45 -2.297Q23.45 -1.297 24.09 -1.297Q24.22 -1.297 24.41 -1.328M21.23 -2.172L21.23 -3.906L20.69 -3.906Q18.77 -3.906 18.77 -2.516Q18.77 -2.031 19.08 -1.703Q19.41 -1.375 19.91 -1.375Q20.7 -1.375 21.23 -2.172ZM24.91 0M26.27 0L26.27 -8.578L28.58 -8.578L28.58 -7.156Q29.22 -8.781 30.5 -8.781Q30.67 -8.781 30.89 -8.734L30.89 -6.672Q30.45 -6.844 30.16 -6.844Q29.22 -6.844 28.58 -5.641L28.58 0L26.27 0ZM31.14 0M36.34 -1.453L36.34 -0.01562Q35.45 0.2031 34.86 0.2031Q32.41 0.2031 32.41 -2.625L32.41 -7.141L31.47 -7.141L31.47 -8.578L32.41 -8.578L32.41 -10.27L34.72 -10.53L34.72 -8.578L36.36 -8.578L36.36 -7.141L34.72 -7.141L34.72 -2.922Q34.72 -1.953 34.89 -1.656Q35.05 -1.359 35.56 -1.359Q35.87 -1.359 36.34 -1.453ZM40.92 0M42.28 0L42.28 -11.56L50.34 -11.56L50.34 -9.984L44.69 -9.984L44.69 -6.469L49.47 -6.469L49.47 -4.875L44.69 -4.875L44.69 0L42.28 0ZM50.7 0M52.06 0L52.06 -8.578L54.38 -8.578L54.38 -7.156Q55.02 -8.781 56.3 -8.781Q56.47 -8.781 56.69 -8.734L56.69 -6.672Q56.25 -6.844 55.95 -6.844Q55.02 -6.844 54.38 -5.641L54.38 0L52.06 0ZM56.94 0M65 -1.922L65 -0.2969Q63.56 0.2031 62.13 0.2031Q59.98 0.2031 58.75 -1.031Q57.52 -2.266 57.52 -4.406Q57.52 -6.391 58.59 -7.578Q59.67 -8.781 61.45 -8.781Q63.3 -8.781 64.14 -7.594Q65 -6.406 65 -3.828L59.95 -3.828Q60.2 -1.375 62.53 -1.375Q63.63 -1.375 65 -1.922M59.94 -5.141L62.72 -5.141Q62.72 -7.328 61.48 -7.328Q60.17 -7.328 59.94 -5.141ZM65.84 0M73.91 -1.922L73.91 -0.2969Q72.47 0.2031 71.03 0.2031Q68.89 0.2031 67.66 -1.031Q66.42 -2.266 66.42 -4.406Q66.42 -6.391 67.5 -7.578Q68.58 -8.781 70.36 -8.781Q72.2 -8.781 73.05 -7.594Q73.91 -6.406 73.91 -3.828L68.86 -3.828Q69.11 -1.375 71.44 -1.375Q72.53 -1.375 73.91 -1.922M68.84 -5.141L71.62 -5.141Q71.62 -7.328 70.39 -7.328Q69.08 -7.328 68.84 -5.141ZM79.2 0M82.89 0L82.89 -9.906L79.52 -9.906L79.52 -11.56L88.67 -11.56L88.67 -9.906L85.3 -9.906L85.3 0L82.89 0ZM88.98 0M90.34 0L90.34 -8.578L92.66 -8.578L92.66 -7.156Q93.3 -8.781 94.58 -8.781Q94.75 -8.781 94.97 -8.734L94.97 -6.672Q94.53 -6.844 94.23 -6.844Q93.3 -6.844 92.66 -5.641L92.66 0L90.34 0ZM95.22 0M96.37 0L96.37 -8.578L98.69 -8.578L98.69 0L96.37 0M96.3 -10.14L96.3 -12.34L98.77 -12.34L98.77 -10.14L96.3 -10.14ZM99.84 0M108.2 -1.328L108.3 -0.03125Q107.6 0.2031 107 0.2031Q105.6 0.2031 105.2 -0.9219L105.1 -0.9219Q104.2 0.2031 102.9 0.2031Q101.8 0.2031 101.1 -0.5Q100.4 -1.188 100.4 -2.312Q100.4 -5.234 104.5 -5.234L105.1 -5.234L105.1 -6.016Q105.1 -7.359 103.7 -7.359Q102.5 -7.359 101.1 -6.594L101.1 -8.188Q102.6 -8.781 104.1 -8.781Q107.3 -8.781 107.3 -6.094L107.3 -2.297Q107.3 -1.297 107.9 -1.297Q108.1 -1.297 108.2 -1.328M105.1 -2.172L105.1 -3.906L104.5 -3.906Q102.6 -3.906 102.6 -2.516Q102.6 -2.031 102.9 -1.703Q103.2 -1.375 103.7 -1.375Q104.5 -1.375 105.1 -2.172ZM108.8 0M113.4 -1.422L113.4 0Q112.8 0.2031 112.2 0.2031Q109.8 0.2031 109.8 -2.625L109.8 -12.34L112.1 -12.34L112.1 -2.922Q112.1 -1.953 112.3 -1.656Q112.5 -1.359 113 -1.359Q113.2 -1.359 113.4 -1.422Z" fill="#ffffff" transform="translate(88,551.9)"/><path d="M1.297 0L1.297 -11.56L2.891 -11.56L8.859 -2.641L8.859 -11.56L10.27 -11.56L10.27 0L8.656 0L2.703 -8.938L2.703 0L1.297 0ZM11.56 0M15.95 0.2031Q14.25 0.2031 13.23 -1.016Q12.23 -2.219 12.23 -4.25Q12.23 -6.297 13.25 -7.484Q14.27 -8.672 16.02 -8.672Q17.75 -8.672 18.77 -7.484Q19.78 -6.312 19.78 -4.266Q19.78 -2.172 18.77 -0.9844Q17.75 0.2031 15.95 0.2031M15.98 -0.9688Q18.12 -0.9688 18.12 -4.281Q18.12 -7.516 16.02 -7.516Q13.91 -7.516 13.91 -4.25Q13.91 -0.9688 15.98 -0.9688ZM24.92 0M32.16 -0.2656Q30.81 0.2031 29.44 0.2031Q27.73 0.2031 26.67 -1.031Q25.59 -2.266 25.59 -4.234Q25.59 -6.328 26.69 -7.5Q27.78 -8.672 29.72 -8.672Q30.75 -8.672 32.06 -8.391L32.06 -7.109Q30.81 -7.5 30.03 -7.5Q27.3 -7.5 27.3 -4.234Q27.3 -2.719 28 -1.875Q28.72 -1.047 29.97 -1.047Q30.94 -1.047 32.16 -1.594L32.16 -0.2656ZM32.92 0M34.28 0L34.28 -8.578L36.59 -8.578L36.59 -7.156Q37.23 -8.781 38.52 -8.781Q38.69 -8.781 38.91 -8.734L38.91 -6.672Q38.47 -6.844 38.17 -6.844Q37.23 -6.844 36.59 -5.641L36.59 0L34.28 0ZM39.16 0M47.22 -1.922L47.22 -0.2969Q45.78 0.2031 44.34 0.2031Q42.2 0.2031 40.97 -1.031Q39.73 -2.266 39.73 -4.406Q39.73 -6.391 40.81 -7.578Q41.89 -8.781 43.67 -8.781Q45.52 -8.781 46.36 -7.594Q47.22 -6.406 47.22 -3.828L42.17 -3.828Q42.42 -1.375 44.75 -1.375Q45.84 -1.375 47.22 -1.922M42.16 -5.141L44.94 -5.141Q44.94 -7.328 43.7 -7.328Q42.39 -7.328 42.16 -5.141ZM48.06 0M54.22 -2.984L54.22 -7.328Q53.16 -7.516 52.62 -7.516Q50.41 -7.516 50.41 -4.141Q50.41 -2.766 50.83 -1.953Q51.27 -1.156 52.02 -1.156Q53.03 -1.156 54.22 -2.984M54.22 -1.594Q53.3 0.2031 51.69 0.2031Q50.36 0.2031 49.55 -0.9531Q48.73 -2.109 48.73 -4Q48.73 -6.234 49.78 -7.453Q50.83 -8.672 52.73 -8.672Q53.48 -8.672 54.22 -8.484L54.22 -12.34L55.75 -12.34L55.75 0L54.22 0L54.22 -1.594ZM56.97 0M58.12 0L58.12 -8.578L60.44 -8.578L60.44 0L58.12 0M58.05 -10.14L58.05 -12.34L60.52 -12.34L60.52 -10.14L58.05 -10.14ZM61.59 0M66.8 -1.453L66.8 -0.01562Q65.91 0.2031 65.31 0.2031Q62.86 0.2031 62.86 -2.625L62.86 -7.141L61.92 -7.141L61.92 -8.578L62.86 -8.578L62.86 -10.27L65.17 -10.53L65.17 -8.578L66.81 -8.578L66.81 -7.141L65.17 -7.141L65.17 -2.922Q65.17 -1.953 65.34 -1.656Q65.5 -1.359 66.02 -1.359Q66.33 -1.359 66.8 -1.453ZM71.38 0M78.61 -0.2656Q77.27 0.2031 75.89 0.2031Q74.19 0.2031 73.12 -1.031Q72.05 -2.266 72.05 -4.234Q72.05 -6.328 73.14 -7.5Q74.23 -8.672 76.17 -8.672Q77.2 -8.672 78.52 -8.391L78.52 -7.109Q77.27 -7.5 76.48 -7.5Q73.75 -7.5 73.75 -4.234Q73.75 -2.719 74.45 -1.875Q75.17 -1.047 76.42 -1.047Q77.39 -1.047 78.61 -1.594L78.61 -0.2656ZM79.38 0M87.78 -1.328L87.84 -0.03125Q87.11 0.2031 86.55 0.2031Q85.12 0.2031 84.72 -0.9219L84.61 -0.9219Q83.78 0.2031 82.45 0.2031Q81.31 0.2031 80.61 -0.5Q79.92 -1.188 79.92 -2.312Q79.92 -5.234 84 -5.234L84.61 -5.234L84.61 -6.016Q84.61 -7.359 83.27 -7.359Q82.06 -7.359 80.67 -6.594L80.67 -8.188Q82.09 -8.781 83.64 -8.781Q86.83 -8.781 86.83 -6.094L86.83 -2.297Q86.83 -1.297 87.47 -1.297Q87.59 -1.297 87.78 -1.328M84.61 -2.172L84.61 -3.906L84.06 -3.906Q82.14 -3.906 82.14 -2.516Q82.14 -2.031 82.45 -1.703Q82.78 -1.375 83.28 -1.375Q84.08 -1.375 84.61 -2.172ZM88.28 0M89.64 0L89.64 -8.578L91.95 -8.578L91.95 -7.156Q92.59 -8.781 93.88 -8.781Q94.05 -8.781 94.27 -8.734L94.27 -6.672Q93.83 -6.844 93.53 -6.844Q92.59 -6.844 91.95 -5.641L91.95 0L89.64 0ZM94.52 0M100.7 -2.984L100.7 -7.328Q99.61 -7.516 99.08 -7.516Q96.86 -7.516 96.86 -4.141Q96.86 -2.766 97.28 -1.953Q97.72 -1.156 98.47 -1.156Q99.48 -1.156 100.7 -2.984M100.7 -1.594Q99.75 0.2031 98.14 0.2031Q96.81 0.2031 96 -0.9531Q95.19 -2.109 95.19 -4Q95.19 -6.234 96.23 -7.453Q97.28 -8.672 99.19 -8.672Q99.94 -8.672 100.7 -8.484L100.7 -12.34L102.2 -12.34L102.2 0L100.7 0L100.7 -1.594ZM107.9 0M109.2 0L109.2 -8.578L111.5 -8.578L111.5 -7.156Q112.2 -8.781 113.5 -8.781Q113.6 -8.781 113.9 -8.734L113.9 -6.672Q113.4 -6.844 113.1 -6.844Q112.2 -6.844 111.5 -5.641L111.5 0L109.2 0ZM114.1 0M122.2 -1.922L122.2 -0.2969Q120.7 0.2031 119.3 0.2031Q117.2 0.2031 115.9 -1.031Q114.7 -2.266 114.7 -4.406Q114.7 -6.391 115.8 -7.578Q116.8 -8.781 118.6 -8.781Q120.5 -8.781 121.3 -7.594Q122.2 -6.406 122.2 -3.828L117.1 -3.828Q117.4 -1.375 119.7 -1.375Q120.8 -1.375 122.2 -1.922M117.1 -5.141L119.9 -5.141Q119.9 -7.328 118.7 -7.328Q117.3 -7.328 117.1 -5.141ZM123 0M129.2 -8.484L130.7 -8.484L130.7 3.094L129.2 3.094L129.2 -1.594Q128.2 0.2031 126.6 0.2031Q125.3 0.2031 124.5 -0.9531Q123.7 -2.109 123.7 -4Q123.7 -6.234 124.7 -7.453Q125.8 -8.672 127.7 -8.672Q128.4 -8.672 129.2 -8.484M129.2 -2.984L129.2 -7.328Q128.1 -7.516 127.6 -7.516Q125.4 -7.516 125.4 -4.141Q125.4 -2.766 125.8 -1.953Q126.2 -1.156 127 -1.156Q128 -1.156 129.2 -2.984ZM131.9 0M138.1 0L138.1 -1.594Q136.9 0.2031 135.2 0.2031Q133 0.2031 133 -2.391L133 -8.484L134.6 -8.484L134.6 -2.891Q134.6 -1.875 134.8 -1.5Q135 -1.141 135.6 -1.141Q136.9 -1.141 138.1 -2.984L138.1 -8.484L139.6 -8.484L139.6 0L138.1 0ZM140.8 0M142 0L142 -8.578L144.3 -8.578L144.3 0L142 0M141.9 -10.14L141.9 -12.34L144.4 -12.34L144.4 -10.14L141.9 -10.14ZM145.5 0M146.8 0L146.8 -8.578L149.1 -8.578L149.1 -7.156Q149.8 -8.781 151 -8.781Q151.2 -8.781 151.4 -8.734L151.4 -6.672Q151 -6.844 150.7 -6.844Q149.8 -6.844 149.1 -5.641L149.1 0L146.8 0ZM151.7 0M159.7 -1.922L159.7 -0.2969Q158.3 0.2031 156.9 0.2031Q154.7 0.2031 153.5 -1.031Q152.3 -2.266 152.3 -4.406Q152.3 -6.391 153.3 -7.578Q154.4 -8.781 156.2 -8.781Q158 -8.781 158.9 -7.594Q159.7 -6.406 159.7 -3.828L154.7 -3.828Q155 -1.375 157.3 -1.375Q158.4 -1.375 159.7 -1.922M154.7 -5.141L157.5 -5.141Q157.5 -7.328 156.2 -7.328Q154.9 -7.328 154.7 -5.141ZM160.6 0M166.7 -2.984L166.7 -7.328Q165.7 -7.516 165.2 -7.516Q162.9 -7.516 162.9 -4.141Q162.9 -2.766 163.4 -1.953Q163.8 -1.156 164.5 -1.156Q165.6 -1.156 166.7 -2.984M166.7 -1.594Q165.8 0.2031 164.2 0.2031Q162.9 0.2031 162.1 -0.9531Q161.3 -2.109 161.3 -4Q161.3 -6.234 162.3 -7.453Q163.4 -8.672 165.3 -8.672Q166 -8.672 166.7 -8.484L166.7 -12.34L168.3 -12.34L168.3 0L166.7 0L166.7 -1.594Z" fill="#6b7280" transform="translate(241.5,551.9)"/></svg>