<svg xmlns="http://www.w3.org/2000/svg" width="1200" height="630" viewBox="0 0 1200 630"><defs><linearGradient id="lg1" x1="11.875%" y1="-22.619%" x2="88.125%" y2="122.619%" color-interpolation="linearRGB"><stop offset="0%" stop-color="rgba(15,23,42,1)"/><stop offset="50%" stop-color="rgba(88,28,135,1)"/><stop offset="100%" stop-color="rgba(15,23,42,1)"/></linearGradient></defs><rect x="0" y="0" width="1200" height="630" fill="url(#lg1)"/><rect x="64" y="64" width="48" height="48" fill="#8b5cf6"/><path d="M5.531 0L5.531 -14.84L0.4688 -14.84L0.4688 -17.34L14.2 -17.34L14.2 -14.84L9.141 -14.84L9.141 0L5.531 0ZM14.66 0M27.27 -1.984L27.35 -0.03125Q26.25 0.2969 25.43 0.2969Q23.27 0.2969 22.66 -1.391L22.52 -1.391Q21.25 0.2969 19.28 0.2969Q17.56 0.2969 16.52 -0.7344Q15.47 -1.781 15.47 -3.469Q15.47 -7.859 21.58 -7.859L22.52 -7.859L22.52 -9.031Q22.52 -11.03 20.5 -11.03Q18.67 -11.03 16.61 -9.875L16.61 -12.27Q18.72 -13.16 21.06 -13.16Q25.85 -13.16 25.85 -9.141L25.85 -3.453Q25.85 -1.938 26.8 -1.938Q26.99 -1.938 27.27 -1.984M22.52 -3.25L22.52 -5.859L21.69 -5.859Q18.8 -5.859 18.8 -3.781Q18.8 -3.031 19.28 -2.547Q19.77 -2.062 20.52 -2.062Q21.72 -2.062 22.52 -3.25ZM28 0M29.73 0L29.73 -12.88L33.2 -12.88L33.2 0L29.73 0M29.62 -15.22L29.62 -18.5L33.33 -18.5L33.33 -15.22L29.62 -15.22ZM34.94 0M41.86 -2.141L41.86 0Q41.08 0.2969 40.19 0.2969Q36.52 0.2969 36.52 -3.922L36.52 -18.5L39.98 -18.5L39.98 -4.391Q39.98 -2.938 40.23 -2.469Q40.48 -2.031 41.25 -2.031Q41.58 -2.031 41.86 -2.141ZM42.09 0M45.94 0L42.83 -12.88L45.95 -12.88L48.12 -3.859L50.37 -12.88L53.37 -12.88L55.37 -3.812L57.71 -12.88L60.04 -12.88L56.7 0L53.37 0L51.45 -8.828L49.27 0L45.94 0ZM60.77 0M62.5 0L62.5 -12.88L65.97 -12.88L65.97 0L62.5 0M62.39 -15.22L62.39 -18.5L66.09 -18.5L66.09 -15.22L62.39 -15.22ZM67.7 0M69.44 0L69.44 -12.88L72.91 -12.88L72.91 -10.73Q74.89 -13.16 77.28 -13.16Q80.78 -13.16 80.78 -9.094L80.78 0L77.31 0L77.31 -8.234Q77.31 -9.5 77.02 -9.969Q76.72 -10.44 75.92 -10.44Q74.52 -10.44 72.91 -8.391L72.91 0L69.44 0ZM82.36 0M91.81 -2.141Q89.98 0.2969 87.78 0.2969Q85.77 0.2969 84.53 -1.453Q83.3 -3.219 83.3 -6.078Q83.3 -9.406 84.89 -11.28Q86.5 -13.16 89.34 -13.16Q90.3 -13.16 91.81 -12.88L91.81 -18.5L95.28 -18.5L95.28 0L91.81 0L91.81 -2.141M91.81 -10.81Q90.52 -11.03 89.88 -11.03Q86.98 -11.03 86.98 -6.562Q86.98 -2.422 89.09 -2.422Q90.5 -2.422 91.81 -4.484L91.81 -10.81ZM103.7 0M105.7 0L105.7 -17.34L118.4 -17.34L118.4 -14.97L109.3 -14.97L109.3 -10.12L117.1 -10.12L117.1 -7.812L109.3 -7.812L109.3 -2.469L119 -2.469L119 0L105.7 0ZM119.7 0M120.3 0L124.5 -6.453L120.5 -12.88L124.4 -12.88L127 -8.797L129.4 -12.88L132.2 -12.88L128.4 -6.547L132.5 0L128.5 0L125.9 -4.25L123.1 0L120.3 0ZM133 0M145.7 -1.984L145.7 -0.03125Q144.6 0.2969 143.8 0.2969Q141.7 0.2969 141 -1.391L140.9 -1.391Q139.6 0.2969 137.7 0.2969Q136 0.2969 134.9 -0.7344Q133.9 -1.781 133.9 -3.469Q133.9 -7.859 140 -7.859L140.9 -7.859L140.9 -9.031Q140.9 -11.03 138.9 -11.03Q137.1 -11.03 135 -9.875L135 -12.27Q137.1 -13.16 139.5 -13.16Q144.2 -13.16 144.2 -9.141L144.2 -3.453Q144.2 -1.938 145.2 -1.938Q145.4 -1.938 145.7 -1.984M140.9 -3.25L140.9 -5.859L140.1 -5.859Q137.2 -5.859 137.2 -3.781Q137.2 -3.031 137.7 -2.547Q138.2 -2.062 138.9 -2.062Q140.1 -2.062 140.9 -3.25ZM146.4 0M148.1 0L148.1 -12.88L151.6 -12.88L151.6 -10.73Q153.2 -13.16 155.5 -13.16Q158.1 -13.16 158.9 -10.7Q160.3 -13.16 162.8 -13.16Q166.1 -13.16 166.1 -9.094L166.1 0L162.7 0L162.7 -8.234Q162.7 -9.531 162.4 -9.969Q162.2 -10.44 161.5 -10.44Q160 -10.44 158.9 -8.391L158.9 0L155.4 0L155.4 -8.234Q155.4 -9.531 155.2 -9.969Q154.9 -10.44 154.2 -10.44Q152.7 -10.44 151.6 -8.391L151.6 0L148.1 0ZM167.7 0M172.9 4.625L169.5 4.625L169.5 -12.88L172.9 -12.88L172.9 -10.73Q174.8 -13.16 177 -13.16Q179 -13.16 180.2 -11.41Q181.5 -9.656 181.5 -6.781Q181.5 -3.453 179.9 -1.578Q178.3 0.2969 175.4 0.2969Q174.5 0.2969 172.9 0L172.9 4.625M172.9 -2.062Q174.3 -1.844 174.9 -1.844Q177.8 -1.844 177.8 -6.312Q177.8 -10.44 175.7 -10.44Q174.3 -10.44 172.9 -8.391L172.9 -2.062ZM182.4 0M189.3 -2.141L189.3 0Q188.5 0.2969 187.6 0.2969Q184 0.2969 184 -3.922L184 -18.5L187.4 -18.5L187.4 -4.391Q187.4 -2.938 187.7 -2.469Q187.9 -2.031 188.7 -2.031Q189 -2.031 189.3 -2.141ZM189.5 0M201.6 -2.875L201.6 -0.4375Q199.5 0.2969 197.3 0.2969Q194.1 0.2969 192.2 -1.547Q190.4 -3.406 190.4 -6.609Q190.4 -9.594 192 -11.38Q193.6 -13.16 196.3 -13.16Q199.1 -13.16 200.4 -11.38Q201.6 -9.609 201.6 -5.75L194.1 -5.75Q194.4 -2.062 197.9 -2.062Q199.6 -2.062 201.6 -2.875M194 -7.703L198.2 -7.703Q198.2 -11 196.4 -11Q194.4 -11 194 -7.703Z" fill="#ffffff" transform="translate(128,96.27)"/><path d="M4.062 0L4.062 -34.69L20.84 -34.69Q31.53 -34.69 31.53 -26.98Q31.53 -20.72 23.2 -18.12Q32.95 -15.78 32.95 -8.578Q32.95 -4.438 30.09 -2.203Q27.27 0 21.92 0L4.062 0M10.86 -20.25L17.56 -20.25Q20.61 -20.25 22.39 -21.75Q24.19 -23.28 24.19 -25.83Q24.19 -28.2 22.73 -29.06Q21.31 -29.94 17.3 -29.94L10.86 -29.94L10.86 -20.25M10.86 -4.922L17.39 -4.922Q21.94 -4.922 23.66 -5.891Q25.39 -6.875 25.39 -9.422Q25.39 -12.09 23.06 -13.86Q20.77 -15.61 17.25 -15.61L10.86 -15.61L10.86 -4.922ZM34.67 0M53.61 0L53.61 -4.266Q49.65 0.5938 44.84 0.5938Q37.86 0.5938 37.86 -7.547L37.86 -25.73L44.79 -25.73L44.79 -9.266Q44.79 -6.75 45.39 -5.812Q45.97 -4.875 47.59 -4.875Q50.37 -4.875 53.61 -8.953L53.61 -25.73L60.55 -25.73L60.55 0L53.61 0ZM64 0M67.47 0L67.47 -25.73L74.41 -25.73L74.41 0L67.47 0M67.23 -30.42L67.23 -37.02L74.64 -37.02L74.64 -30.42L67.23 -30.42ZM77.88 0M91.73 -4.266L91.73 0Q90.16 0.5938 88.38 0.5938Q81.05 0.5938 81.05 -7.859L81.05 -37.02L87.98 -37.02L87.98 -8.766Q87.98 -5.859 88.47 -4.953Q88.97 -4.062 90.52 -4.062Q91.14 -4.062 91.73 -4.266ZM92.2 0M111.1 -4.266Q107.5 0.5938 103.1 0.5938Q99.03 0.5938 96.55 -2.906Q94.08 -6.422 94.08 -12.17Q94.08 -18.83 97.27 -22.58Q100.5 -26.33 106.2 -26.33Q108.1 -26.33 111.1 -25.73L111.1 -37.02L118.1 -37.02L118.1 0L111.1 0L111.1 -4.266M111.1 -21.61Q108.5 -22.06 107.2 -22.06Q101.5 -22.06 101.5 -13.12Q101.5 -4.859 105.7 -4.859Q108.5 -4.859 111.1 -8.953L111.1 -21.61ZM134.9 0M142.6 0L136.3 -25.73L142.6 -25.73L146.9 -7.719L151.5 -25.73L157.5 -25.73L161.4 -7.625L166.1 -25.73L170.8 -25.73L164.1 0L157.5 0L153.6 -17.66L149.2 0L142.6 0ZM172.2 0M175.7 0L175.7 -25.73L182.6 -25.73L182.6 0L175.7 0M175.5 -30.42L175.5 -37.02L182.9 -37.02L182.9 -30.42L175.5 -30.42ZM186.1 0M201.7 -4.359L201.7 -0.03125Q199 0.5938 197.2 0.5938Q189.9 0.5938 189.9 -7.859L189.9 -21.41L187.1 -21.41L187.1 -25.73L189.9 -25.73L189.9 -30.78L196.8 -31.58L196.8 -25.73L201.8 -25.73L201.8 -21.41L196.8 -21.41L196.8 -8.766Q196.8 -5.859 197.3 -4.953Q197.8 -4.062 199.4 -4.062Q200.3 -4.062 201.7 -4.359ZM202.1 0M205.5 0L205.5 -37.02L212.5 -37.02L212.5 -21.47Q216.5 -26.33 221.2 -26.33Q228.2 -26.33 228.2 -18.19L228.2 0L221.3 0L221.3 -16.48Q221.3 -18.98 220.7 -19.92Q220.1 -20.86 218.5 -20.86Q215.7 -20.86 212.5 -16.78L212.5 0L205.5 0ZM244.8 0M263.7 0L263.7 -4.266Q259.7 0.5938 254.9 0.5938Q247.9 0.5938 247.9 -7.547L247.9 -25.73L254.9 -25.73L254.9 -9.266Q254.9 -6.75 255.5 -5.812Q256.1 -4.875 257.7 -4.875Q260.4 -4.875 263.7 -8.953L263.7 -25.73L270.6 -25.73L270.6 0L263.7 0ZM274.1 0M289.7 -4.359L289.7 -0.03125Q287 0.5938 285.2 0.5938Q277.9 0.5938 277.9 -7.859L277.9 -21.41L275.1 -21.41L275.1 -25.73L277.9 -25.73L277.9 -30.78L284.8 -31.58L284.8 -25.73L289.7 -25.73L289.7 -21.41L284.8 -21.41L284.8 -8.766Q284.8 -5.859 285.3 -4.953Q285.8 -4.062 287.3 -4.062Q288.3 -4.062 289.7 -4.359ZM290.1 0M293.5 0L293.5 -25.73L300.5 -25.73L300.5 0L293.5 0M293.3 -30.42L293.3 -37.02L300.7 -37.02L300.7 -30.42L293.3 -30.42ZM303.9 0M317.8 -4.266L317.8 0Q316.2 0.5938 314.4 0.5938Q307.1 0.5938 307.1 -7.859L307.1 -37.02L314 -37.02L314 -8.766Q314 -5.859 314.5 -4.953Q315 -4.062 316.6 -4.062Q317.2 -4.062 317.8 -4.266ZM318.3 0M321.7 0L321.7 -25.73L328.7 -25.73L328.7 0L321.7 0M321.5 -30.42L321.5 -37.02L328.9 -37.02L328.9 -30.42L321.5 -30.42ZM332.1 0M347.7 -4.359L347.7 -0.03125Q345.1 0.5938 343.3 0.5938Q335.9 0.5938 335.9 -7.859L335.9 -21.41L333.1 -21.41L333.1 -25.73L335.9 -25.73L335.9 -30.78L342.9 -31.58L342.9 -25.73L347.8 -25.73L347.8 -21.41L342.9 -21.41L342.9 -8.766Q342.9 -5.859 343.4 -4.953Q343.9 -4.062 345.4 -4.062Q346.3 -4.062 347.7 -4.359ZM348.1 0M358 0L348.7 -25.73L356 -25.73L362 -9.094L369.1 -25.73L374.2 -25.73L359.2 9.266L352.1 9.266L358 0ZM388.2 0M412.9 -5.375L412.9 -0.5625Q408 0.5938 404.1 0.5938Q397.3 0.5938 393.6 -2.938Q389.9 -6.469 389.9 -12.89Q389.9 -26.33 404.7 -26.33Q408.7 -26.33 412.7 -25.31L412.7 -20.3Q407.8 -21.69 405.1 -21.69Q397.3 -21.69 397.3 -12.92Q397.3 -8.75 399.6 -6.375Q401.8 -4.016 405.8 -4.016Q408.6 -4.016 412.9 -5.375ZM414.9 0M428.7 -4.266L428.7 0Q427.2 0.5938 425.4 0.5938Q418 0.5938 418 -7.859L418 -37.02L425 -37.02L425 -8.766Q425 -5.859 425.5 -4.953Q426 -4.062 427.5 -4.062Q428.1 -4.062 428.7 -4.266ZM429.2 0M454.4 -3.969L454.6 -0.07812Q452.4 0.5938 450.7 0.5938Q446.4 0.5938 445.2 -2.766L444.9 -2.766Q442.4 0.5938 438.4 0.5938Q435 0.5938 432.9 -1.484Q430.8 -3.562 430.8 -6.938Q430.8 -15.7 443.1 -15.7L444.9 -15.7L444.9 -18.05Q444.9 -22.06 440.9 -22.06Q437.3 -22.06 433.1 -19.77L433.1 -24.55Q437.3 -26.33 442 -26.33Q451.6 -26.33 451.6 -18.28L451.6 -6.891Q451.6 -3.875 453.5 -3.875Q453.9 -3.875 454.4 -3.969M444.9 -6.5L444.9 -11.72L443.3 -11.72Q437.5 -11.72 437.5 -7.547Q437.5 -6.078 438.4 -5.094Q439.4 -4.125 440.9 -4.125Q443.3 -4.125 444.9 -6.5ZM455.9 0M458.8 -0.8438L458.8 -5.906Q464.2 -3.75 467.9 -3.75Q473 -3.75 473 -6.562Q473 -8.281 468.9 -9.938L466.6 -10.88Q461.8 -12.83 460.3 -14.25Q458.9 -15.69 458.9 -18.55Q458.9 -26.33 469.8 -26.33Q473.5 -26.33 478.2 -25.41L478.2 -20.66Q473 -21.98 470.6 -21.98Q465.8 -21.98 465.8 -19.36Q465.8 -17.77 469.5 -16.34L471.5 -15.56Q476.7 -13.62 478.4 -11.95Q480.2 -10.31 480.2 -7.406Q480.2 -3.75 477 -1.578Q473.7 0.5938 468.3 0.5938Q463.5 0.5938 458.8 -0.8438ZM482.6 0M485.5 -0.8438L485.5 -5.906Q490.9 -3.75 494.6 -3.75Q499.7 -3.75 499.7 -6.562Q499.7 -8.281 495.6 -9.938L493.3 -10.88Q488.5 -12.83 487 -14.25Q485.6 -15.69 485.6 -18.55Q485.6 -26.33 496.5 -26.33Q500.2 -26.33 504.9 -25.41L504.9 -20.66Q499.7 -21.98 497.3 -21.98Q492.5 -21.98 492.5 -19.36Q492.5 -17.77 496.2 -16.34L498.2 -15.56Q503.4 -13.62 505.1 -11.95Q506.9 -10.31 506.9 -7.406Q506.9 -3.75 503.7 -1.578Q500.4 0.5938 495 0.5938Q490.2 0.5938 485.5 -0.8438ZM509.3 0M533.5 -5.75L533.5 -0.875Q529.2 0.5938 524.9 0.5938Q518.4 0.5938 514.7 -3.094Q511 -6.797 511 -13.22Q511 -19.17 514.3 -22.73Q517.5 -26.33 522.8 -26.33Q528.4 -26.33 530.9 -22.77Q533.5 -19.22 533.5 -11.48L518.4 -11.48Q519.1 -4.125 526.1 -4.125Q529.4 -4.125 533.5 -5.75M518.3 -15.41L526.7 -15.41Q526.7 -21.98 522.9 -21.98Q519 -21.98 518.3 -15.41ZM536 0M538.9 -0.8438L538.9 -5.906Q544.3 -3.75 548 -3.75Q553.2 -3.75 553.2 -6.562Q553.2 -8.281 549 -9.938L546.7 -10.88Q541.9 -12.83 540.5 -14.25Q539 -15.69 539 -18.55Q539 -26.33 549.9 -26.33Q553.6 -26.33 558.3 -25.41L558.3 -20.66Q553.1 -21.98 550.7 -21.98Q545.9 -21.98 545.9 -19.36Q545.9 -17.77 549.6 -16.34L551.7 -15.56Q556.8 -13.62 558.5 -11.95Q560.3 -10.31 560.3 -7.406Q560.3 -3.75 557.1 -1.578Q553.9 0.5938 548.4 0.5938Q543.6 0.5938 538.9 -0.8438Z" fill="#ffffff" transform="translate(64,315)"/><path d="M1.609 0L1.609 -14.45L3.609 -14.45L11.06 -3.297L11.06 -14.45L12.83 -14.45L12.83 0L10.81 0L3.375 -11.16L3.375 0L1.609 0ZM14.44 0M19.92 0.25Q17.78 0.25 16.53 -1.266Q15.28 -2.766 15.28 -5.297Q15.28 -7.875 16.53 -9.359Q17.81 -10.84 20 -10.84Q22.17 -10.84 23.44 -9.359Q24.72 -7.875 24.72 -5.328Q24.72 -2.703 23.44 -1.234Q22.17 0.25 19.92 0.25M19.95 -1.203Q22.63 -1.203 22.63 -5.359Q22.63 -9.391 20 -9.391Q17.36 -9.391 17.36 -5.297Q17.36 -1.203 19.95 -1.203ZM31.12 0M32.62 0L32.62 -10.61L34.55 -10.61L34.55 0L32.62 0M32.53 -12.53L32.53 -14.66L34.66 -14.66L34.66 -12.53L32.53 -12.53ZM36.06 0M37.56 0L37.56 -10.61L39.48 -10.61L39.48 -8.609Q41.03 -10.84 43.08 -10.84Q45.8 -10.84 45.8 -7.625L45.8 0L43.86 0L43.86 -7Q43.86 -8.266 43.59 -8.734Q43.33 -9.188 42.59 -9.188Q40.95 -9.188 39.48 -6.859L39.48 0L37.56 0ZM47.19 0M50.61 -3.281Q50.61 -2.719 50.72 -2.328Q50.81 -1.938 51.03 -1.688Q51.25 -1.438 51.56 -1.312Q51.89 -1.203 52.3 -1.219L52.3 0.1875Q52.08 0.25 51.7 0.25Q51.08 0.25 50.5 0.03125Q49.94 -0.1875 49.52 -0.5938Q49.13 -1 48.91 -1.578Q48.69 -2.172 48.69 -2.938L48.69 -15.42L50.61 -15.42L50.61 -3.281ZM52.55 0M54.05 0L54.05 -10.61L55.97 -10.61L55.97 0L54.05 0M53.95 -12.53L53.95 -14.66L56.08 -14.66L56.08 -12.53L53.95 -12.53ZM57.48 0M58.98 0L58.98 -10.61L60.91 -10.61L60.91 -8.609Q62.45 -10.84 64.5 -10.84Q67.22 -10.84 67.22 -7.625L67.22 0L65.28 0L65.28 -7Q65.28 -8.266 65.02 -8.734Q64.75 -9.188 64.02 -9.188Q62.38 -9.188 60.91 -6.859L60.91 0L58.98 0ZM68.61 0M76.59 -6.453Q76.59 -9.406 74.2 -9.406Q71.73 -9.406 71.5 -6.453L76.59 -6.453M78.5 -1.859L78.5 -0.3438Q76.61 0.25 74.83 0.25Q72.38 0.25 70.91 -1.297Q69.45 -2.844 69.45 -5.438Q69.45 -7.906 70.73 -9.375Q72.03 -10.84 74.23 -10.84Q78.56 -10.84 78.56 -5.594L78.55 -5L71.47 -5Q71.75 -1.219 75.27 -1.219Q76.8 -1.219 78.5 -1.859ZM85.3 0M86.44 -0.375L86.44 -2.141Q88.33 -1.203 90 -1.203Q92.23 -1.203 92.23 -2.812Q92.23 -3.828 90.67 -4.344L88.95 -4.906Q86.48 -5.734 86.48 -7.859Q86.48 -10.84 90.56 -10.84Q91.73 -10.84 93.36 -10.53L93.36 -8.922Q91.94 -9.391 90.36 -9.391Q88.39 -9.391 88.39 -8.047Q88.39 -7.125 89.77 -6.672L91.3 -6.172Q94.17 -5.219 94.17 -2.969Q94.17 -1.469 93.03 -0.6094Q91.91 0.25 89.92 0.25Q88.33 0.25 86.44 -0.375ZM95.3 0M100.5 0.0625Q99.91 0.25 99.41 0.25Q96.78 0.25 96.78 -2.938L96.78 -9.156L95.55 -9.156L95.55 -10.61L96.78 -10.61L96.78 -12.83L98.7 -13.02L98.7 -10.61L101 -10.61L101 -9.156L98.7 -9.156L98.7 -3.281Q98.7 -2.016 98.92 -1.609Q99.14 -1.203 99.81 -1.203Q100.2 -1.203 100.5 -1.312L100.5 0.0625ZM101 0M104.9 0L101.1 -10.61L103.1 -10.61L106 -2.469L109.1 -10.61L110.8 -10.61L105.2 3.859L103.2 3.859L104.9 0ZM111 0M114.4 -3.281Q114.4 -2.719 114.5 -2.328Q114.6 -1.938 114.8 -1.688Q115 -1.438 115.3 -1.312Q115.7 -1.203 116.1 -1.219L116.1 0.1875Q115.8 0.25 115.5 0.25Q114.8 0.25 114.3 0.03125Q113.7 -0.1875 113.3 -0.5938Q112.9 -1 112.7 -1.578Q112.5 -2.172 112.5 -2.938L112.5 -15.42L114.4 -15.42L114.4 -3.281ZM116.3 0M124.3 -6.453Q124.3 -9.406 121.9 -9.406Q119.4 -9.406 119.2 -6.453L124.3 -6.453M126.2 -1.859L126.2 -0.3438Q124.3 0.25 122.5 0.25Q120.1 0.25 118.6 -1.297Q117.2 -2.844 117.2 -5.438Q117.2 -7.906 118.4 -9.375Q119.7 -10.84 121.9 -10.84Q126.3 -10.84 126.3 -5.594L126.3 -5L119.2 -5Q119.5 -1.219 123 -1.219Q124.5 -1.219 126.2 -1.859ZM127.4 0M128.6 -0.375L128.6 -2.141Q130.5 -1.203 132.1 -1.203Q134.4 -1.203 134.4 -2.812Q134.4 -3.828 132.8 -4.344L131.1 -4.906Q128.6 -5.734 128.6 -7.859Q128.6 -10.84 132.7 -10.84Q133.9 -10.84 135.5 -10.53L135.5 -8.922Q134.1 -9.391 132.5 -9.391Q130.5 -9.391 130.5 -8.047Q130.5 -7.125 131.9 -6.672L133.4 -6.172Q136.3 -5.219 136.3 -2.969Q136.3 -1.469 135.2 -0.6094Q134 0.25 132.1 0.25Q130.5 0.25 128.6 -0.375ZM143 0M144.5 0L144.5 -10.61L146.4 -10.61L146.4 -8.609Q148 -10.84 150 -10.84Q152.7 -10.84 152.7 -7.625L152.7 0L150.8 0L150.8 -7Q150.8 -8.266 150.5 -8.734Q150.3 -9.188 149.5 -9.188Q147.9 -9.188 146.4 -6.859L146.4 0L144.5 0ZM154.1 0M162.1 -6.453Q162.1 -9.406 159.7 -9.406Q157.2 -9.406 157 -6.453L162.1 -6.453M164 -1.859L164 -0.3438Q162.1 0.25 160.3 0.25Q157.9 0.25 156.4 -1.297Q155 -2.844 155 -5.438Q155 -7.906 156.2 -9.375Q157.5 -10.84 159.8 -10.84Q164.1 -10.84 164.1 -5.594L164.1 -5L157 -5Q157.3 -1.219 160.8 -1.219Q162.3 -1.219 164 -1.859ZM165.2 0M173.2 -6.453Q173.2 -9.406 170.8 -9.406Q168.4 -9.406 168.1 -6.453L173.2 -6.453M175.1 -1.859L175.1 -0.3438Q173.2 0.25 171.5 0.25Q169 0.25 167.5 -1.297Q166.1 -2.844 166.1 -5.438Q166.1 -7.906 167.4 -9.375Q168.7 -10.84 170.9 -10.84Q175.2 -10.84 175.2 -5.594L175.2 -5L168.1 -5Q168.4 -1.219 171.9 -1.219Q173.4 -1.219 175.1 -1.859ZM176.4 0M184.1 -3.734L184.1 -9.156Q182.7 -9.391 182.1 -9.391Q179.3 -9.391 179.3 -5.172Q179.3 -3.453 179.8 -2.438Q180.4 -1.453 181.3 -1.453Q182.6 -1.453 184.1 -3.734M184.1 -1.984Q182.9 0.25 180.9 0.25Q179.2 0.25 178.2 -1.188Q177.2 -2.641 177.2 -5Q177.2 -7.797 178.5 -9.312Q179.8 -10.84 182.2 -10.84Q183.1 -10.84 184.1 -10.61L184.1 -15.42L186 -15.42L186 0L184.1 0L184.1 -1.984ZM187.5 0M195.5 -6.453Q195.5 -9.406 193.1 -9.406Q190.6 -9.406 190.4 -6.453L195.5 -6.453M197.4 -1.859L197.4 -0.3438Q195.5 0.25 193.7 0.25Q191.3 0.25 189.8 -1.297Q188.3 -2.844 188.3 -5.438Q188.3 -7.906 189.6 -9.375Q190.9 -10.84 193.1 -10.84Q197.5 -10.84 197.5 -5.594L197.4 -5L190.4 -5Q190.6 -1.219 194.2 -1.219Q195.7 -1.219 197.4 -1.859ZM198.6 0M206.3 -3.734L206.3 -9.156Q205 -9.391 204.3 -9.391Q201.5 -9.391 201.5 -5.172Q201.5 -3.453 202.1 -2.438Q202.6 -1.453 203.6 -1.453Q204.8 -1.453 206.3 -3.734M206.3 -1.984Q205.2 0.25 203.1 0.25Q201.5 0.25 200.5 -1.188Q199.5 -2.641 199.5 -5Q199.5 -7.797 200.8 -9.312Q202.1 -10.84 204.5 -10.84Q205.4 -10.84 206.3 -10.61L206.3 -15.42L208.2 -15.42L208.2 0L206.3 0L206.3 -1.984ZM209.8 0M211 0L211 -3.141L214.1 -3.141L214.1 0L211 0ZM220.9 0M228.5 0.3594Q225.3 0.3594 223.5 -1.672Q221.7 -3.719 221.7 -7.234Q221.7 -10.8 223.5 -12.8Q225.4 -14.81 228.7 -14.81Q231.9 -14.81 233.8 -12.8Q235.7 -10.8 235.7 -7.25Q235.7 -3.641 233.8 -1.641Q231.9 0.3594 228.5 0.3594M228.6 -1.625Q230.5 -1.625 231.5 -3.094Q232.5 -4.547 232.5 -7.266Q232.5 -9.891 231.5 -11.36Q230.5 -12.83 228.7 -12.83Q226.9 -12.83 225.8 -11.36Q224.8 -9.891 224.8 -7.234Q224.8 -4.594 225.8 -3.109Q226.8 -1.625 228.6 -1.625ZM236.4 0M244.2 -4.219L244.2 -9.156Q242.9 -9.391 242.2 -9.391Q239.4 -9.391 239.4 -5.609Q239.4 -3.922 240 -2.922Q240.5 -1.922 241.5 -1.922Q242.7 -1.922 244.2 -4.219M244.2 -2.469Q243 -0.25 241 -0.25Q239.4 -0.25 238.4 -1.656Q237.3 -3.094 237.3 -5.375Q237.3 -7.984 238.6 -9.406Q240 -10.84 242.3 -10.84Q243.3 -10.84 244.2 -10.61L246.1 -10.61L246.1 -2.891Q246.1 -0.3906 245.9 0.7969Q245.6 2 244.9 2.75Q243.6 4.109 241 4.109Q239.1 4.109 237.4 3.531L237.4 1.859Q239.5 2.641 241 2.641Q244.2 2.641 244.2 -0.7969L244.2 -2.469ZM247.6 0M249.1 0L249.1 -10.61L251 -10.61L251 -8.609Q251.9 -10.84 253.5 -10.84Q253.8 -10.84 254.1 -10.8L254.1 -9Q253.6 -9.156 253.3 -9.156Q252.2 -9.156 251 -7L251 0L249.1 0ZM254.2 0M262.2 -6.453Q262.2 -9.406 259.8 -9.406Q257.3 -9.406 257.1 -6.453L262.2 -6.453M264.1 -1.859L264.1 -0.3438Q262.2 0.25 260.4 0.25Q258 0.25 256.5 -1.297Q255.1 -2.844 255.1 -5.438Q255.1 -7.906 256.3 -9.375Q257.6 -10.84 259.8 -10.84Q264.2 -10.84 264.2 -5.594L264.2 -5L257.1 -5Q257.4 -1.219 260.9 -1.219Q262.4 -1.219 264.1 -1.859ZM270.9 0M272.4 0L272.4 -10.61L274.3 -10.61L274.3 -8.609Q275.2 -10.84 276.9 -10.84Q277.1 -10.84 277.4 -10.8L277.4 -9Q276.9 -9.156 276.6 -9.156Q275.5 -9.156 274.3 -7L274.3 0L272.4 0ZM277.6 0M285.5 -6.453Q285.5 -9.406 283.2 -9.406Q280.7 -9.406 280.5 -6.453L285.5 -6.453M287.5 -1.859L287.5 -0.3438Q285.6 0.25 283.8 0.25Q281.3 0.25 279.9 -1.297Q278.4 -2.844 278.4 -5.438Q278.4 -7.906 279.7 -9.375Q281 -10.84 283.2 -10.84Q287.5 -10.84 287.5 -5.594L287.5 -5L280.4 -5Q280.7 -1.219 284.2 -1.219Q285.8 -1.219 287.5 -1.859ZM288.7 0M289.8 -0.375L289.8 -2.141Q291.7 -1.203 293.4 -1.203Q295.6 -1.203 295.6 -2.812Q295.6 -3.828 294.1 -4.344L292.3 -4.906Q289.9 -5.734 289.9 -7.859Q289.9 -10.84 294 -10.84Q295.1 -10.84 296.7 -10.53L296.7 -8.922Q295.3 -9.391 293.7 -9.391Q291.8 -9.391 291.8 -8.047Q291.8 -7.125 293.2 -6.672L294.7 -6.172Q297.6 -5.219 297.6 -2.969Q297.6 -1.469 296.4 -0.6094Q295.3 0.25 293.3 0.25Q291.7 0.25 289.8 -0.375ZM298.7 0M304.2 0.25Q302 0.25 300.8 -1.266Q299.5 -2.766 299.5 -5.297Q299.5 -7.875 300.8 -9.359Q302.1 -10.84 304.2 -10.84Q306.4 -10.84 307.7 -9.359Q309 -7.875 309 -5.328Q309 -2.703 307.7 -1.234Q306.4 0.25 304.2 0.25M304.2 -1.203Q306.9 -1.203 306.9 -5.359Q306.9 -9.391 304.2 -9.391Q301.6 -9.391 301.6 -5.297Q301.6 -1.203 304.2 -1.203ZM309.8 0M313.2 -3.281Q313.2 -2.719 313.3 -2.328Q313.4 -1.938 313.7 -1.688Q313.9 -1.438 314.2 -1.312Q314.5 -1.203 314.9 -1.219L314.9 0.1875Q314.7 0.25 314.3 0.25Q313.7 0.25 313.1 0.03125Q312.6 -0.1875 312.1 -0.5938Q311.8 -1 311.5 -1.578Q311.3 -2.172 311.3 -2.938L311.3 -15.42L313.2 -15.42L313.2 -3.281ZM315.2 0M319.1 0L315.4 -10.61L317.3 -10.61L320.2 -2.359L323.3 -10.61L325.1 -10.61L321 0L319.1 0ZM325.2 0M333.2 -6.453Q333.2 -9.406 330.8 -9.406Q328.3 -9.406 328.1 -6.453L333.2 -6.453M335.1 -1.859L335.1 -0.3438Q333.2 0.25 331.4 0.25Q328.9 0.25 327.5 -1.297Q326 -2.844 326 -5.438Q326 -7.906 327.3 -9.375Q328.6 -10.84 330.8 -10.84Q335.1 -10.84 335.1 -5.594L335.1 -5L328 -5Q328.3 -1.219 331.8 -1.219Q333.4 -1.219 335.1 -1.859ZM336.3 0M337.4 -0.375L337.4 -2.141Q339.3 -1.203 341 -1.203Q343.2 -1.203 343.2 -2.812Q343.2 -3.828 341.7 -4.344L340 -4.906Q337.5 -5.734 337.5 -7.859Q337.5 -10.84 341.6 -10.84Q342.7 -10.84 344.4 -10.53L344.4 -8.922Q342.9 -9.391 341.4 -9.391Q339.4 -9.391 339.4 -8.047Q339.4 -7.125 340.8 -6.672L342.3 -6.172Q345.2 -5.219 345.2 -2.969Q345.2 -1.469 344 -0.6094Q342.9 0.25 340.9 0.25Q339.3 0.25 337.4 -0.375ZM351.9 0M356.9 0L356.9 -12.92L352.1 -12.92L352.1 -14.45L363.9 -14.45L363.9 -12.92L359 -12.92L359 0L356.9 0ZM364.1 0M371.6 -1.344Q369.9 0.25 368.1 0.25Q366.8 0.25 365.9 -0.5625Q365 -1.375 365 -2.672Q365 -6.266 370.9 -6.266L371.4 -6.266L371.4 -7.547Q371.4 -9.391 369.3 -9.391Q367.7 -9.391 365.9 -8.453L365.9 -10.05Q367.9 -10.84 369.7 -10.84Q371.6 -10.84 372.4 -10.05Q373.3 -9.266 373.3 -7.547L373.3 -2.75Q373.3 -1.094 374.3 -1.094Q374.4 -1.094 374.7 -1.141L374.8 -0.0625Q374.1 0.25 373.3 0.25Q372 0.25 371.6 -1.344M371.4 -2.391L371.4 -5.141L370.7 -5.156Q367 -5.156 367 -3.016Q367 -1.328 368.8 -1.328Q370 -1.328 371.4 -2.391ZM375.2 0M376.7 0L376.7 -10.61L378.6 -10.61L378.6 0L376.7 0M376.6 -12.53L376.6 -14.66L378.7 -14.66L378.7 -12.53L376.6 -12.53ZM380.1 0M383.6 -3.281Q383.6 -2.719 383.7 -2.328Q383.8 -1.938 384 -1.688Q384.2 -1.438 384.5 -1.312Q384.8 -1.203 385.2 -1.219L385.2 0.1875Q385 0.25 384.7 0.25Q384 0.25 383.5 0.03125Q382.9 -0.1875 382.5 -0.5938Q382.1 -1 381.9 -1.578Q381.6 -2.172 381.6 -2.938L381.6 -15.42L383.6 -15.42L383.6 -3.281ZM385.5 0M388.2 0L385.6 -10.61L387.5 -10.61L389.4 -2.625L391.8 -10.61L393.8 -10.61L395.9 -2.594L398.1 -10.61L399.8 -10.61L396.8 0L394.9 0L392.7 -8.219L390.1 0L388.2 0ZM399.9 0M401.4 0L401.4 -10.61L403.4 -10.61L403.4 0L401.4 0M401.3 -12.53L401.3 -14.66L403.5 -14.66L403.5 -12.53L401.3 -12.53ZM404.9 0M406.4 0L406.4 -10.61L408.3 -10.61L408.3 -8.609Q409.8 -10.84 411.9 -10.84Q414.6 -10.84 414.6 -7.625L414.6 0L412.7 0L412.7 -7Q412.7 -8.266 412.4 -8.734Q412.1 -9.188 411.4 -9.188Q409.8 -9.188 408.3 -6.859L408.3 0L406.4 0ZM416 0M423.7 -3.734L423.7 -9.156Q422.4 -9.391 421.7 -9.391Q418.9 -9.391 418.9 -5.172Q418.9 -3.453 419.5 -2.438Q420 -1.453 420.9 -1.453Q422.2 -1.453 423.7 -3.734M423.7 -1.984Q422.5 0.25 420.5 0.25Q418.9 0.25 417.8 -1.188Q416.8 -2.641 416.8 -5Q416.8 -7.797 418.1 -9.312Q419.5 -10.84 421.8 -10.84Q422.8 -10.84 423.7 -10.61L423.7 -15.42L425.6 -15.42L425.6 0L423.7 0L423.7 -1.984ZM432.7 0M436.6 0L432.9 -10.61L434.8 -10.61L437.7 -2.359L440.9 -10.61L442.6 -10.61L438.6 0L436.6 0ZM442.7 0M444.2 -0.1094L444.2 -1.906Q444.5 -1.781 444.6 -1.734Q446.2 -1.078 447.1 -1.078Q450.1 -1.078 450.1 -3.938Q450.1 -5.422 449.1 -6.219Q448.1 -7.016 446.3 -7.016L445.5 -7.016L445.5 -8.328L446.2 -8.328Q447.8 -8.328 448.8 -9.094Q449.7 -9.859 449.7 -11.2Q449.7 -13.38 447.3 -13.38Q446.1 -13.38 444.4 -12.56L444.4 -14.23Q446.1 -14.81 447.4 -14.81Q451.6 -14.81 451.6 -11.45Q451.6 -8.922 448.6 -7.828Q452.1 -7.031 452.1 -4Q452.1 -2.016 450.8 -0.8281Q449.5 0.3594 447.4 0.3594Q446.2 0.3594 444.2 -0.1094ZM459.4 0M468.4 -0.3281Q466.7 0.25 465 0.25Q462.9 0.25 461.5 -1.297Q460.2 -2.828 460.2 -5.281Q460.2 -7.906 461.6 -9.359Q462.9 -10.84 465.4 -10.84Q466.7 -10.84 468.3 -10.48L468.3 -8.891Q466.7 -9.359 465.8 -9.359Q462.3 -9.359 462.3 -5.281Q462.3 -3.391 463.2 -2.344Q464.1 -1.312 465.7 -1.312Q466.9 -1.312 468.4 -1.984L468.4 -0.3281ZM469.4 0M472.8 -3.281Q472.8 -2.719 472.9 -2.328Q473 -1.938 473.2 -1.688Q473.4 -1.438 473.8 -1.312Q474.1 -1.203 474.5 -1.219L474.5 0.1875Q474.3 0.25 473.9 0.25Q473.3 0.25 472.7 0.03125Q472.1 -0.1875 471.7 -0.5938Q471.3 -1 471.1 -1.578Q470.9 -2.172 470.9 -2.938L470.9 -15.42L472.8 -15.42L472.8 -3.281ZM474.7 0M482.3 -1.344Q480.6 0.25 478.8 0.25Q477.4 0.25 476.5 -0.5625Q475.7 -1.375 475.7 -2.672Q475.7 -6.266 481.6 -6.266L482 -6.266L482 -7.547Q482 -9.391 480 -9.391Q478.3 -9.391 476.6 -8.453L476.6 -10.05Q478.5 -10.84 480.3 -10.84Q482.2 -10.84 483.1 -10.05Q483.9 -9.266 483.9 -7.547L483.9 -2.75Q483.9 -1.094 485 -1.094Q485.1 -1.094 485.3 -1.141L485.5 -0.0625Q484.8 0.25 484 0.25Q482.7 0.25 482.3 -1.344M482 -2.391L482 -5.141L481.4 -5.156Q477.7 -5.156 477.7 -3.016Q477.7 -1.328 479.4 -1.328Q480.7 -1.328 482 -2.391ZM485.9 0M487 -0.375L487 -2.141Q488.9 -1.203 490.6 -1.203Q492.8 -1.203 492.8 -2.812Q492.8 -3.828 491.2 -4.344L489.5 -4.906Q487 -5.734 487 -7.859Q487 -10.84 491.1 -10.84Q492.3 -10.84 493.9 -10.53L493.9 -8.922Q492.5 -9.391 490.9 -9.391Q489 -9.391 489 -8.047Q489 -7.125 490.3 -6.672L491.9 -6.172Q494.7 -5.219 494.7 -2.969Q494.7 -1.469 493.6 -0.6094Q492.5 0.25 490.5 0.25Q488.9 0.25 487 -0.375ZM495.9 0M497 -0.375L497 -2.141Q498.9 -1.203 500.6 -1.203Q502.8 -1.203 502.8 -2.812Q502.8 -3.828 501.2 -4.344L499.5 -4.906Q497 -5.734 497 -7.859Q497 -10.84 501.1 -10.84Q502.3 -10.84 503.9 -10.53L503.9 -8.922Q502.5 -9.391 500.9 -9.391Q499 -9.391 499 -8.047Q499 -7.125 500.3 -6.672L501.9 -6.172Q504.7 -5.219 504.7 -2.969Q504.7 -1.469 503.6 -0.6094Q502.5 0.25 500.5 0.25Q498.9 0.25 497 -0.375ZM505.9 0M513.8 -6.453Q513.8 -9.406 511.5 -9.406Q509 -9.406 508.8 -6.453L513.8 -6.453M515.8 -1.859L515.8 -0.3438Q513.9 0.25 512.1 0.25Q509.6 0.25 508.2 -1.297Q506.7 -2.844 506.7 -5.438Q506.7 -7.906 508 -9.375Q509.3 -10.84 511.5 -10.84Q515.8 -10.84 515.8 -5.594L515.8 -5L508.7 -5Q509 -1.219 512.5 -1.219Q514 -1.219 515.8 -1.859ZM517 0M518.1 -0.375L518.1 -2.141Q520 -1.203 521.7 -1.203Q523.9 -1.203 523.9 -2.812Q523.9 -3.828 522.4 -4.344L520.6 -4.906Q518.2 -5.734 518.2 -7.859Q518.2 -10.84 522.3 -10.84Q523.4 -10.84 525 -10.53L525 -8.922Q523.6 -9.391 522 -9.391Q520.1 -9.391 520.1 -8.047Q520.1 -7.125 521.5 -6.672L523 -6.172Q525.9 -5.219 525.9 -2.969Q525.9 -1.469 524.7 -0.6094Q523.6 0.25 521.6 0.25Q520 0.25 518.1 -0.375ZM532.5 0M540.1 -1.344Q538.4 0.25 536.6 0.25Q535.2 0.25 534.3 -0.5625Q533.5 -1.375 533.5 -2.672Q533.5 -6.266 539.4 -6.266L539.8 -6.266L539.8 -7.547Q539.8 -9.391 537.8 -9.391Q536.2 -9.391 534.4 -8.453L534.4 -10.05Q536.3 -10.84 538.1 -10.84Q540 -10.84 540.9 -10.05Q541.7 -9.266 541.7 -7.547L541.7 -2.75Q541.7 -1.094 542.8 -1.094Q542.9 -1.094 543.1 -1.141L543.3 -0.0625Q542.6 0.25 541.8 0.25Q540.5 0.25 540.1 -1.344M539.8 -2.391L539.8 -5.141L539.2 -5.156Q535.5 -5.156 535.5 -3.016Q535.5 -1.328 537.2 -1.328Q538.5 -1.328 539.8 -2.391ZM543.7 0M548.8 0.0625Q548.3 0.25 547.8 0.25Q545.2 0.25 545.2 -2.938L545.2 -9.156L543.9 -9.156L543.9 -10.61L545.2 -10.61L545.2 -12.83L547.1 -13.02L547.1 -10.61L549.4 -10.61L549.4 -9.156L547.1 -9.156L547.1 -3.281Q547.1 -2.016 547.3 -1.609Q547.5 -1.203 548.2 -1.203Q548.6 -1.203 548.8 -1.312L548.8 0.0625ZM554.9 0M556.4 0L556.4 -10.61L558.3 -10.61L558.3 -8.609Q559.2 -10.84 560.9 -10.84Q561.1 -10.84 561.4 -10.8L561.4 -9Q560.9 -9.156 560.6 -9.156Q559.5 -9.156 558.3 -7L558.3 0L556.4 0ZM561.5 0M569.5 -6.453Q569.5 -9.406 567.1 -9.406Q564.7 -9.406 564.4 -6.453L569.5 -6.453M571.4 -1.859L571.4 -0.3438Q569.5 0.25 567.8 0.25Q565.3 0.25 563.8 -1.297Q562.4 -2.844 562.4 -5.438Q562.4 -7.906 563.7 -9.375Q565 -10.84 567.2 -10.84Q571.5 -10.84 571.5 -5.594L571.5 -5L564.4 -5Q564.7 -1.219 568.2 -1.219Q569.7 -1.219 571.4 -1.859ZM572.7 0M574.2 0L574.2 -10.61L576.1 -10.61L576.1 -8.609Q577.6 -10.84 579.7 -10.84Q582.4 -10.84 582.4 -7.625L582.4 0L580.5 0L580.5 -7Q580.5 -8.266 580.2 -8.734Q579.9 -9.188 579.2 -9.188Q577.6 -9.188 576.1 -6.859L576.1 0L574.2 0ZM583.8 0M591.5 -3.734L591.5 -9.156Q590.2 -9.391 589.5 -9.391Q586.7 -9.391 586.7 -5.172Q586.7 -3.453 587.2 -2.438Q587.8 -1.453 588.7 -1.453Q590 -1.453 591.5 -3.734M591.5 -1.984Q590.3 0.25 588.3 0.25Q586.7 0.25 585.6 -1.188Q584.6 -2.641 584.6 -5Q584.6 -7.797 585.9 -9.312Q587.2 -10.84 589.6 -10.84Q590.6 -10.84 591.5 -10.61L591.5 -15.42L593.4 -15.42L593.4 0L591.5 0L591.5 -1.984ZM594.9 0M602.9 -6.453Q602.9 -9.406 600.5 -9.406Q598 -9.406 597.8 -6.453L602.9 -6.453M604.8 -1.859L604.8 -0.3438Q602.9 0.25 601.1 0.25Q598.7 0.25 597.2 -1.297Q595.8 -2.844 595.8 -5.438Q595.8 -7.906 597 -9.375Q598.3 -10.84 600.5 -10.84Q604.9 -10.84 604.9 -5.594L604.9 -5L597.8 -5Q598.1 -1.219 601.6 -1.219Q603.1 -1.219 604.8 -1.859ZM606 0M607.5 0L607.5 -10.61L609.5 -10.61L609.5 -8.609Q610.4 -10.84 612 -10.84Q612.2 -10.84 612.6 -10.8L612.6 -9Q612.1 -9.156 611.8 -9.156Q610.6 -9.156 609.5 -7L609.5 0L607.5 0ZM618.3 0M623.4 0.0625Q622.9 0.25 622.4 0.25Q619.7 0.25 619.7 -2.938L619.7 -9.156L618.5 -9.156L618.5 -10.61L619.7 -10.61L619.7 -12.83L621.7 -13.02L621.7 -10.61L624 -10.61L624 -9.156L621.7 -9.156L621.7 -3.281Q621.7 -2.016 621.9 -1.609Q622.1 -1.203 622.8 -1.203Q623.2 -1.203 623.4 -1.312L623.4 0.0625ZM623.9 0M625.4 0L625.4 -10.61L627.3 -10.61L627.3 0L625.4 0M625.3 -12.53L625.3 -14.66L627.5 -14.66L627.5 -12.53L625.3 -12.53ZM628.9 0M630.4 0L630.4 -10.61L632.3 -10.61L632.3 -8.609Q633.2 -9.969 633.8 -10.41Q634.4 -10.84 635.4 -10.84Q637.5 -10.84 638.2 -8.609Q639.1 -9.969 639.7 -10.41Q640.3 -10.84 641.3 -10.84Q644.1 -10.84 644.1 -7.719L644.1 0L642.2 0L642.2 -7.406Q642.2 -9.234 640.7 -9.234Q639.5 -9.234 638.2 -7.109L638.2 0L636.3 0L636.3 -7.406Q636.3 -9.234 634.8 -9.234Q633.6 -9.234 632.3 -7.109L632.3 0L630.4 0ZM645.5 0M653.5 -6.453Q653.5 -9.406 651.1 -9.406Q648.6 -9.406 648.4 -6.453L653.5 -6.453M655.4 -1.859L655.4 -0.3438Q653.5 0.25 651.7 0.25Q649.3 0.25 647.8 -1.297Q646.4 -2.844 646.4 -5.438Q646.4 -7.906 647.6 -9.375Q648.9 -10.84 651.1 -10.84Q655.5 -10.84 655.5 -5.594L655.5 -5L648.4 -5Q648.7 -1.219 652.2 -1.219Q653.7 -1.219 655.4 -1.859ZM662.2 0M664.9 0L662.3 -10.61L664.2 -10.61L666.1 -2.625L668.5 -10.61L670.5 -10.61L672.6 -2.594L674.8 -10.61L676.5 -10.61L673.5 0L671.6 0L669.4 -8.219L666.8 0L664.9 0ZM676.6 0M678.1 0L678.1 -10.61L680.1 -10.61L680.1 0L678.1 0M678 -12.53L678 -14.66L680.2 -14.66L680.2 -12.53L678 -12.53ZM681.6 0M686.8 0.0625Q686.2 0.25 685.7 0.25Q683.1 0.25 683.1 -2.938L683.1 -9.156L681.8 -9.156L681.8 -10.61L683.1 -10.61L683.1 -12.83L685 -13.02L685 -10.61L687.3 -10.61L687.3 -9.156L685 -9.156L685 -3.281Q685 -2.016 685.2 -1.609Q685.4 -1.203 686.1 -1.203Q686.5 -1.203 686.8 -1.312L686.8 0.0625ZM687.2 0M688.7 0L688.7 -15.42L690.7 -15.42L690.7 -8.609Q692.2 -10.84 694.3 -10.84Q697 -10.84 697 -7.625L697 0L695 0L695 -7Q695 -8.266 694.8 -8.734Q694.5 -9.188 693.8 -9.188Q692.1 -9.188 690.7 -6.859L690.7 0L688.7 0ZM703.9 0M704.6 0L704.6 -1.453L710.7 -9.156L705 -9.156L705 -10.61L713.1 -10.61L713.1 -9.156L707 -1.453L713.2 -1.453L713.2 0L704.6 0ZM713.9 0M721.9 -6.453Q721.9 -9.406 719.5 -9.406Q717 -9.406 716.8 -6.453L721.9 -6.453M723.8 -1.859L723.8 -0.3438Q721.9 0.25 720.1 0.25Q717.7 0.25 716.2 -1.297Q714.8 -2.844 714.8 -5.438Q714.8 -7.906 716 -9.375Q717.3 -10.84 719.5 -10.84Q723.9 -10.84 723.9 -5.594L723.9 -5L716.8 -5Q717.1 -1.219 720.6 -1.219Q722.1 -1.219 723.8 -1.859ZM725 0M726.5 0L726.5 -10.61L728.5 -10.61L728.5 -8.609Q729.4 -10.84 731 -10.84Q731.2 -10.84 731.6 -10.8L731.6 -9Q731.1 -9.156 730.8 -9.156Q729.6 -9.156 728.5 -7L728.5 0L726.5 0ZM731.7 0M737.2 0.25Q735 0.25 733.8 -1.266Q732.5 -2.766 732.5 -5.297Q732.5 -7.875 733.8 -9.359Q735.1 -10.84 737.3 -10.84Q739.4 -10.84 740.7 -9.359Q742 -7.875 742 -5.328Q742 -2.703 740.7 -1.234Q739.4 0.25 737.2 0.25M737.2 -1.203Q739.9 -1.203 739.9 -5.359Q739.9 -9.391 737.3 -9.391Q734.6 -9.391 734.6 -5.297Q734.6 -1.203 737.2 -1.203ZM748.4 0M751.8 -6.859L751.8 -1.453Q753.1 -1.203 753.8 -1.203Q756.6 -1.203 756.6 -5.438Q756.6 -7.156 756 -8.156Q755.5 -9.156 754.6 -9.156Q753.3 -9.156 751.8 -6.859M751.8 -8.609Q753 -10.84 755 -10.84Q756.6 -10.84 757.7 -9.406Q758.7 -7.969 758.7 -5.609Q758.7 -2.797 757.4 -1.281Q756.1 0.25 753.7 0.25Q752.7 0.25 751.8 0L749.9 0.125L749.9 -15.42L751.8 -15.42L751.8 -8.609ZM759.5 0M767.2 0L767.2 -1.984Q765.7 0.25 763.6 0.25Q760.9 0.25 760.9 -2.984L760.9 -10.61L762.8 -10.61L762.8 -3.609Q762.8 -2.328 763.1 -1.875Q763.4 -1.422 764.1 -1.422Q765.7 -1.422 767.2 -3.734L767.2 -10.61L769.1 -10.61L769.1 0L767.2 0ZM770.6 0M772.1 0L772.1 -10.61L774.1 -10.61L774.1 0L772.1 0M772 -12.53L772 -14.66L774.2 -14.66L774.2 -12.53L772 -12.53ZM775.6 0M779 -3.281Q779 -2.719 779.1 -2.328Q779.2 -1.938 779.4 -1.688Q779.6 -1.438 780 -1.312Q780.3 -1.203 780.7 -1.219L780.7 0.1875Q780.5 0.25 780.1 0.25Q779.5 0.25 778.9 0.03125Q778.3 -0.1875 777.9 -0.5938Q777.5 -1 777.3 -1.578Q777.1 -2.172 777.1 -2.938L777.1 -15.42L779 -15.42L779 -3.281ZM780.9 0M788.6 -3.734L788.6 -9.156Q787.3 -9.391 786.6 -9.391Q783.9 -9.391 783.9 -5.172Q783.9 -3.453 784.4 -2.438Q784.9 -1.453 785.9 -1.453Q787.1 -1.453 788.6 -3.734M788.6 -1.984Q787.5 0.25 785.5 0.25Q783.8 0.25 782.8 -1.188Q781.8 -2.641 781.8 -5Q781.8 -7.797 783.1 -9.312Q784.4 -10.84 786.8 -10.84Q787.7 -10.84 788.6 -10.61L788.6 -15.42L790.5 -15.42L790.5 0L788.6 0L788.6 -1.984ZM797.6 0M798.8 -0.375L798.8 -2.141Q800.7 -1.203 802.3 -1.203Q804.6 -1.203 804.6 -2.812Q804.6 -3.828 803 -4.344L801.3 -4.906Q798.8 -5.734 798.8 -7.859Q798.8 -10.84 802.9 -10.84Q804.1 -10.84 805.7 -10.53L805.7 -8.922Q804.3 -9.391 802.7 -9.391Q800.7 -9.391 800.7 -8.047Q800.7 -7.125 802.1 -6.672L803.6 -6.172Q806.5 -5.219 806.5 -2.969Q806.5 -1.469 805.4 -0.6094Q804.2 0.25 802.2 0.25Q800.7 0.25 798.8 -0.375ZM807.6 0M812.8 0.0625Q812.2 0.25 811.7 0.25Q809.1 0.25 809.1 -2.938L809.1 -9.156L807.9 -9.156L807.9 -10.61L809.1 -10.61L809.1 -12.83L811 -13.02L811 -10.61L813.4 -10.61L813.4 -9.156L811 -9.156L811 -3.281Q811 -2.016 811.2 -1.609Q811.5 -1.203 812.1 -1.203Q812.5 -1.203 812.8 -1.312L812.8 0.0625ZM813.3 0M821.3 -6.453Q821.3 -9.406 818.9 -9.406Q816.4 -9.406 816.2 -6.453L821.3 -6.453M823.2 -1.859L823.2 -0.3438Q821.3 0.25 819.5 0.25Q817 0.25 815.6 -1.297Q814.1 -2.844 814.1 -5.438Q814.1 -7.906 815.4 -9.375Q816.7 -10.84 818.9 -10.84Q823.2 -10.84 823.2 -5.594L823.2 -5L816.1 -5Q816.4 -1.219 819.9 -1.219Q821.5 -1.219 823.2 -1.859ZM824.4 0M827.8 3.859L825.9 3.859L825.9 -10.61L827.8 -10.61L827.8 -8.609Q829 -10.84 831 -10.84Q832.7 -10.84 833.7 -9.406Q834.7 -7.969 834.7 -5.609Q834.7 -2.797 833.4 -1.281Q832.1 0.25 829.7 0.25Q828.8 0.25 827.8 0L827.8 3.859M827.8 -6.859L827.8 -1.453Q829.2 -1.203 829.8 -1.203Q832.6 -1.203 832.6 -5.438Q832.6 -7.156 832 -8.156Q831.5 -9.156 830.6 -9.156Q829.3 -9.156 827.8 -6.859ZM835.5 0M836.8 0L836.8 -3.141L839.9 -3.141L839.9 0L836.8 0Z" fill="#94a3b8" transform="translate(64,358.1)"/><rect x="64" y="521.8" width="142.3" height="43.2" fill="#8b5cf6"/><path d="M11.3 -5.625L11.3 -0.2812Q9.094 0.2969 7.281 0.2969Q5.344 0.2969 4.188 -0.07812Q3.031 -0.4531 2.188 -1.344Q0.625 -3 0.625 -5.797Q0.625 -8.484 2.094 -10.12Q2.938 -11.06 4.094 -11.45Q5.25 -11.86 7.141 -11.86Q9.406 -11.86 11.28 -11.41L11.28 -9.531Q8.906 -10.27 7.172 -10.27Q5.219 -10.27 4.203 -9.125Q3.188 -7.984 3.188 -5.781Q3.188 -3.641 4.266 -2.484Q5.359 -1.344 7.391 -1.344Q7.953 -1.344 8.891 -1.453L8.891 -4.031L6.938 -4.031L6.938 -5.625L11.3 -5.625ZM12.45 0M20.52 -1.922L20.52 -0.2969Q19.08 0.2031 17.64 0.2031Q15.5 0.2031 14.27 -1.031Q13.03 -2.266 13.03 -4.406Q13.03 -6.391 14.11 -7.578Q15.19 -8.781 16.97 -8.781Q18.81 -8.781 19.66 -7.594Q20.52 -6.406 20.52 -3.828L15.47 -3.828Q15.72 -1.375 18.05 -1.375Q19.14 -1.375 20.52 -1.922M15.45 -5.141L18.23 -5.141Q18.23 -7.328 17 -7.328Q15.69 -7.328 15.45 -5.141ZM21.36 0M26.56 -1.453L26.56 -0.01562Q25.67 0.2031 25.08 0.2031Q22.63 0.2031 22.63 -2.625L22.63 -7.141L21.69 -7.141L21.69 -8.578L22.63 -8.578L22.63 -10.27L24.94 -10.53L24.94 -8.578L26.58 -8.578L26.58 -7.141L24.94 -7.141L24.94 -2.922Q24.94 -1.953 25.11 -1.656Q25.27 -1.359 25.78 -1.359Q26.09 -1.359 26.56 -1.453ZM31.14 0M31.94 -0.1094L31.94 -2.078Q34.16 -1.297 36.03 -1.297Q38.69 -1.297 38.69 -2.844Q38.69 -3.844 37.67 -4.266L36.61 -4.672L35.33 -5.156Q33.3 -5.938 32.61 -6.641Q31.92 -7.344 31.92 -8.641Q31.92 -11.86 36.64 -11.86Q38.62 -11.86 40.41 -11.45L40.41 -9.625Q38.55 -10.27 36.81 -10.27Q35.39 -10.27 34.84 -9.969Q34.3 -9.672 34.3 -8.906Q34.3 -8.422 34.56 -8.156Q34.83 -7.875 35.59 -7.594L36.48 -7.25L37.81 -6.766Q39.73 -6.047 40.47 -5.281Q41.22 -4.516 41.22 -3.219Q41.22 -1.406 39.86 -0.5469Q38.52 0.2969 35.62 0.2969Q34.53 0.2969 33.17 0.09375L31.94 -0.1094ZM41.81 0M47.02 -1.453L47.02 -0.01562Q46.12 0.2031 45.53 0.2031Q43.08 0.2031 43.08 -2.625L43.08 -7.141L42.14 -7.141L42.14 -8.578L43.08 -8.578L43.08 -10.27L45.39 -10.53L45.39 -8.578L47.03 -8.578L47.03 -7.141L45.39 -7.141L45.39 -2.922Q45.39 -1.953 45.56 -1.656Q45.72 -1.359 46.23 -1.359Q46.55 -1.359 47.02 -1.453ZM47.14 0M55.55 -1.328L55.61 -0.03125Q54.87 0.2031 54.31 0.2031Q52.89 0.2031 52.48 -0.9219L52.37 -0.9219Q51.55 0.2031 50.22 0.2031Q49.08 0.2031 48.37 -0.5Q47.69 -1.188 47.69 -2.312Q47.69 -5.234 51.77 -5.234L52.37 -5.234L52.37 -6.016Q52.37 -7.359 51.03 -7.359Q49.83 -7.359 48.44 -6.594L48.44 -8.188Q49.86 -8.781 51.41 -8.781Q54.59 -8.781 54.59 -6.094L54.59 -2.297Q54.59 -1.297 55.23 -1.297Q55.36 -1.297 55.55 -1.328M52.37 -2.172L52.37 -3.906L51.83 -3.906Q49.91 -3.906 49.91 -2.516Q49.91 -2.031 50.22 -1.703Q50.55 -1.375 51.05 -1.375Q51.84 -1.375 52.37 -2.172ZM56.05 0M57.41 0L57.41 -8.578L59.72 -8.578L59.72 -7.156Q60.36 -8.781 61.64 -8.781Q61.81 -8.781 62.03 -8.734L62.03 -6.672Q61.59 -6.844 61.3 -6.844Q60.36 -6.844 59.72 -5.641L59.72 0L57.41 0ZM62.28 0M67.48 -1.453L67.48 -0.01562Q66.59 0.2031 66 0.2031Q63.55 0.2031 63.55 -2.625L63.55 -7.141L62.61 -7.141L62.61 -8.578L63.55 -8.578L63.55 -10.27L65.86 -10.53L65.86 -8.578L67.5 -8.578L67.5 -7.141L65.86 -7.141L65.86 -2.922Q65.86 -1.953 66.03 -1.656Q66.19 -1.359 66.7 -1.359Q67.02 -1.359 67.48 -1.453ZM67.61 0M75.67 -1.922L75.67 -0.2969Q74.23 0.2031 72.8 0.2031Q70.66 0.2031 69.42 -1.031Q68.19 -2.266 68.19 -4.406Q68.19 -6.391 69.27 -7.578Q70.34 -8.781 72.13 -8.781Q73.97 -8.781 74.81 -7.594Q75.67 -6.406 75.67 -3.828L70.63 -3.828Q70.88 -1.375 73.2 -1.375Q74.3 -1.375 75.67 -1.922M70.61 -5.141L73.39 -5.141Q73.39 -7.328 72.16 -7.328Q70.84 -7.328 70.61 -5.141ZM76.52 0M82.83 -1.422Q81.61 0.2031 80.14 0.2031Q78.8 0.2031 77.97 -0.9688Q77.14 -2.141 77.14 -4.062Q77.14 -6.281 78.2 -7.531Q79.28 -8.781 81.17 -8.781Q81.81 -8.781 82.83 -8.578L82.83 -12.34L85.14 -12.34L85.14 0L82.83 0L82.83 -1.422M82.83 -7.203Q81.95 -7.359 81.53 -7.359Q79.61 -7.359 79.61 -4.375Q79.61 -1.625 81 -1.625Q81.94 -1.625 82.83 -2.984L82.83 -7.203Z" fill="#ffffff" transform="translate(92,548.9)"/><path d="M4.75 0L0.2812 -11.56L1.969 -11.56L5.656 -2.078L9.188 -11.56L10.59 -11.56L6.297 0L4.75 0ZM10.67 0M11.87 0L11.87 -8.484L13.42 -8.484L13.42 0L11.87 0M11.8 -10.03L11.8 -11.72L13.5 -11.72L13.5 -10.03L11.8 -10.03ZM14.62 0M22.69 -1.922L22.69 -0.2969Q21.25 0.2031 19.81 0.2031Q17.67 0.2031 16.44 -1.031Q15.2 -2.266 15.2 -4.406Q15.2 -6.391 16.28 -7.578Q17.36 -8.781 19.14 -8.781Q20.98 -8.781 21.83 -7.594Q22.69 -6.406 22.69 -3.828L17.64 -3.828Q17.89 -1.375 20.22 -1.375Q21.31 -1.375 22.69 -1.922M17.62 -5.141L20.41 -5.141Q20.41 -7.328 19.17 -7.328Q17.86 -7.328 17.62 -5.141ZM23.53 0M25.67 0L23.62 -8.484L25.13 -8.484L26.66 -2.094L28.61 -8.484L30.16 -8.484L31.88 -2.078L33.65 -8.484L34.98 -8.484L32.59 0L31.05 0L29.25 -6.578L27.22 0L25.67 0ZM39.55 0M40.84 0L40.84 -11.56L44.55 -11.56Q50.38 -11.56 50.38 -6.062Q50.38 -3.172 48.86 -1.594Q47.34 0 44.56 0L40.84 0M42.48 -1.234L44.45 -1.234Q46.56 -1.234 47.59 -2.375Q48.62 -3.531 48.62 -5.906Q48.62 -7.938 47.64 -9.109Q47.03 -9.812 46.2 -10.08Q45.36 -10.34 43.69 -10.34L42.48 -10.34L42.48 -1.234ZM51.11 0M55.5 0.2031Q53.8 0.2031 52.78 -1.016Q51.78 -2.219 51.78 -4.25Q51.78 -6.297 52.8 -7.484Q53.81 -8.672 55.56 -8.672Q57.3 -8.672 58.31 -7.484Q59.33 -6.312 59.33 -4.266Q59.33 -2.172 58.31 -0.9844Q57.3 0.2031 55.5 0.2031M55.53 -0.9688Q57.67 -0.9688 57.67 -4.281Q57.67 -7.516 55.56 -7.516Q53.45 -7.516 53.45 -4.25Q53.45 -0.9688 55.53 -0.9688ZM60.02 0M67.25 -0.2656Q65.91 0.2031 64.53 0.2031Q62.83 0.2031 61.77 -1.031Q60.69 -2.266 60.69 -4.234Q60.69 -6.328 61.78 -7.5Q62.87 -8.672 64.81 -8.672Q65.84 -8.672 67.16 -8.391L67.16 -7.109Q65.91 -7.5 65.12 -7.5Q62.39 -7.5 62.39 -4.234Q62.39 -2.719 63.09 -1.875Q63.81 -1.047 65.06 -1.047Q66.03 -1.047 67.25 -1.594L67.25 -0.2656ZM68.02 0M68.92 -0.2969L68.92 -1.719Q70.44 -0.9688 71.78 -0.9688Q73.56 -0.9688 73.56 -2.25Q73.56 -3.062 72.33 -3.484L70.95 -3.938Q68.97 -4.594 68.97 -6.297Q68.97 -8.672 72.23 -8.672Q73.17 -8.672 74.47 -8.422L74.47 -7.141Q73.33 -7.516 72.06 -7.516Q70.5 -7.516 70.5 -6.438Q70.5 -5.703 71.59 -5.344L72.83 -4.938Q75.11 -4.188 75.11 -2.375Q75.11 -1.188 74.2 -0.5Q73.3 0.2031 71.72 0.2031Q70.45 0.2031 68.92 -0.2969Z" fill="#cbd5e1" transform="translate(259.3,548.9)"/><rect x="392.6" y="539.4" width="8" height="8" fill="#34d399"/><path d="M1.125 0L1.125 -10.12L2.531 -10.12L7.75 -2.297L7.75 -10.12L8.969 -10.12L8.969 0L7.562 0L2.359 -7.812L2.359 0L1.125 0ZM10.11 0M13.95 0.1719Q12.45 0.1719 11.58 -0.875Q10.7 -1.938 10.7 -3.719Q10.7 -5.516 11.58 -6.547Q12.47 -7.594 14 -7.594Q15.53 -7.594 16.41 -6.547Q17.3 -5.516 17.3 -3.719Q17.3 -1.891 16.41 -0.8594Q15.53 0.1719 13.95 0.1719M13.97 -0.8438Q15.84 -0.8438 15.84 -3.75Q15.84 -6.578 14 -6.578Q12.16 -6.578 12.16 -3.719Q12.16 -0.8438 13.97 -0.8438ZM21.78 0M24.19 -4.812L24.19 -1.016Q25.11 -0.8438 25.58 -0.8438Q27.52 -0.8438 27.52 -3.797Q27.52 -5.016 27.14 -5.703Q26.77 -6.406 26.11 -6.406Q25.22 -6.406 24.19 -4.812M24.19 -6.031Q24.98 -7.594 26.39 -7.594Q27.56 -7.594 28.27 -6.578Q28.97 -5.578 28.97 -3.922Q28.97 -1.969 28.06 -0.8906Q27.14 0.1719 25.47 0.1719Q24.83 0.1719 24.19 0L22.83 0.07812L22.83 -10.8L24.19 -10.8L24.19 -6.031ZM29.56 0M34.94 0L34.94 -1.391Q33.87 0.1719 32.44 0.1719Q30.53 0.1719 30.53 -2.094L30.53 -7.422L31.87 -7.422L31.87 -2.531Q31.87 -1.641 32.06 -1.312Q32.25 -0.9844 32.78 -0.9844Q33.92 -0.9844 34.94 -2.609L34.94 -7.422L36.3 -7.422L36.3 0L34.94 0ZM37.34 0M38.36 0L38.36 -7.5L40.37 -7.5L40.37 0L38.36 0M38.28 -8.875L38.28 -10.8L40.45 -10.8L40.45 -8.875L38.28 -8.875ZM41.39 0M43.8 -2.297Q43.8 -1.906 43.86 -1.625Q43.92 -1.359 44.08 -1.172Q44.23 -1 44.45 -0.9219Q44.67 -0.8438 44.97 -0.8438L44.97 0.125Q44.81 0.1719 44.56 0.1719Q44.11 0.1719 43.7 0.01562Q43.31 -0.125 43.03 -0.4062Q42.75 -0.7031 42.59 -1.109Q42.44 -1.531 42.44 -2.047L42.44 -10.8L43.8 -10.8L43.8 -2.297ZM45.14 0M50.52 -2.609L50.52 -6.406Q49.59 -6.578 49.12 -6.578Q47.19 -6.578 47.19 -3.609Q47.19 -2.406 47.56 -1.703Q47.94 -1.016 48.59 -1.016Q49.48 -1.016 50.52 -2.609M50.52 -1.391Q49.72 0.1719 48.31 0.1719Q47.14 0.1719 46.44 -0.8281Q45.73 -1.844 45.73 -3.5Q45.73 -5.453 46.64 -6.516Q47.55 -7.594 49.23 -7.594Q49.87 -7.594 50.52 -7.422L50.52 -10.8L51.87 -10.8L51.87 0L50.52 0L50.52 -1.391ZM56.81 0M57.61 -0.2656L57.61 -1.5Q58.94 -0.8438 60.09 -0.8438Q61.67 -0.8438 61.67 -1.969Q61.67 -2.688 60.58 -3.047L59.37 -3.438Q57.64 -4.016 57.64 -5.5Q57.64 -7.594 60.5 -7.594Q61.31 -7.594 62.45 -7.375L62.45 -6.234Q61.47 -6.578 60.36 -6.578Q58.98 -6.578 58.98 -5.641Q58.98 -4.984 59.94 -4.672L61.02 -4.328Q63.02 -3.656 63.02 -2.078Q63.02 -1.031 62.23 -0.4375Q61.44 0.1719 60.05 0.1719Q58.94 0.1719 57.61 -0.2656ZM63.81 0M67.44 0.04688Q67.05 0.1719 66.69 0.1719Q64.86 0.1719 64.86 -2.047L64.86 -6.406L63.98 -6.406L63.98 -7.422L64.86 -7.422L64.86 -8.969L66.2 -9.109L66.2 -7.422L67.84 -7.422L67.84 -6.406L66.2 -6.406L66.2 -2.297Q66.2 -1.406 66.34 -1.125Q66.5 -0.8438 66.97 -0.8438Q67.25 -0.8438 67.44 -0.9219L67.44 0.04688ZM67.77 0M74.81 -1.672L74.81 -0.25Q73.56 0.1719 72.31 0.1719Q70.42 0.1719 69.34 -0.9062Q68.27 -1.984 68.27 -3.859Q68.27 -5.594 69.2 -6.625Q70.16 -7.672 71.7 -7.672Q73.33 -7.672 74.06 -6.641Q74.81 -5.609 74.81 -3.344L70.41 -3.344Q70.61 -1.203 72.66 -1.203Q73.62 -1.203 74.81 -1.672M70.39 -4.484L72.83 -4.484Q72.83 -6.406 71.73 -6.406Q70.59 -6.406 70.39 -4.484ZM75.55 0M78.58 2.703L76.56 2.703L76.56 -7.5L78.58 -7.5L78.58 -6.266Q79.66 -7.672 80.94 -7.672Q82.11 -7.672 82.83 -6.656Q83.56 -5.641 83.56 -3.953Q83.56 -2.016 82.62 -0.9219Q81.69 0.1719 80.03 0.1719Q79.48 0.1719 78.58 0L78.58 2.703M78.58 -1.203Q79.34 -1.078 79.72 -1.078Q81.41 -1.078 81.41 -3.672Q81.41 -6.094 80.19 -6.094Q79.36 -6.094 78.58 -4.891L78.58 -1.203ZM87.98 0M89.17 0L89.17 -7.5L91.19 -7.5L91.19 -6.266Q91.77 -7.672 92.88 -7.672Q93.03 -7.672 93.22 -7.641L93.22 -5.828Q92.83 -5.984 92.58 -5.984Q91.77 -5.984 91.19 -4.938L91.19 0L89.17 0ZM93.44 0M100.5 -1.672L100.5 -0.25Q99.23 0.1719 97.98 0.1719Q96.09 0.1719 95.02 -0.9062Q93.94 -1.984 93.94 -3.859Q93.94 -5.594 94.88 -6.625Q95.83 -7.672 97.38 -7.672Q99 -7.672 99.73 -6.641Q100.5 -5.609 100.5 -3.344L96.08 -3.344Q96.28 -1.203 98.33 -1.203Q99.3 -1.203 100.5 -1.672M96.06 -4.484L98.5 -4.484Q98.5 -6.406 97.41 -6.406Q96.27 -6.406 96.06 -4.484ZM101.2 0M106.6 -7.422L108 -7.422L108 2.703L106.6 2.703L106.6 -1.391Q105.8 0.1719 104.4 0.1719Q103.2 0.1719 102.5 -0.8281Q101.8 -1.844 101.8 -3.5Q101.8 -5.453 102.7 -6.516Q103.6 -7.594 105.3 -7.594Q106 -7.594 106.6 -7.422M106.6 -2.609L106.6 -6.406Q105.7 -6.578 105.2 -6.578Q103.3 -6.578 103.3 -3.609Q103.3 -2.406 103.6 -1.703Q104 -1.016 104.7 -1.016Q105.6 -1.016 106.6 -2.609ZM109 0M114.4 0L114.4 -1.391Q113.3 0.1719 111.9 0.1719Q110 0.1719 110 -2.094L110 -7.422L111.3 -7.422L111.3 -2.531Q111.3 -1.641 111.5 -1.312Q111.7 -0.9844 112.2 -0.9844Q113.4 -0.9844 114.4 -2.609L114.4 -7.422L115.7 -7.422L115.7 0L114.4 0ZM116.8 0M117.8 0L117.8 -7.5L119.8 -7.5L119.8 0L117.8 0M117.7 -8.875L117.7 -10.8L119.9 -10.8L119.9 -8.875L117.7 -8.875ZM120.8 0M122 0L122 -7.5L124 -7.5L124 -6.266Q124.6 -7.672 125.7 -7.672Q125.9 -7.672 126.1 -7.641L126.1 -5.828Q125.7 -5.984 125.4 -5.984Q124.6 -5.984 124 -4.938L124 0L122 0ZM126.3 0M133.3 -1.672L133.3 -0.25Q132.1 0.1719 130.8 0.1719Q128.9 0.1719 127.9 -0.9062Q126.8 -1.984 126.8 -3.859Q126.8 -5.594 127.7 -6.625Q128.7 -7.672 130.2 -7.672Q131.8 -7.672 132.6 -6.641Q133.3 -5.609 133.3 -3.344L128.9 -3.344Q129.1 -1.203 131.2 -1.203Q132.1 -1.203 133.3 -1.672M128.9 -4.484L131.3 -4.484Q131.3 -6.406 130.3 -6.406Q129.1 -6.406 128.9 -4.484ZM134.1 0M139.4 -2.609L139.4 -6.406Q138.5 -6.578 138 -6.578Q136.1 -6.578 136.1 -3.609Q136.1 -2.406 136.5 -1.703Q136.9 -1.016 137.5 -1.016Q138.4 -1.016 139.4 -2.609M139.4 -1.391Q138.6 0.1719 137.2 0.1719Q136.1 0.1719 135.4 -0.8281Q134.7 -1.844 134.7 -3.5Q134.7 -5.453 135.6 -6.516Q136.5 -7.594 138.2 -7.594Q138.8 -7.594 139.4 -7.422L139.4 -10.8L140.8 -10.8L140.8 0L139.4 0L139.4 -1.391Z" fill="#64748b" transform="translate(408.6,548.2)"/></svg>