<svg xmlns="http://www.w3.org/2000/svg" width="1200" height="630" viewBox="0 0 1200 630"><defs><linearGradient id="lg1" x1="11.875%" y1="-22.619%" x2="88.125%" y2="122.619%" color-interpolation="linearRGB"><stop offset="0%" stop-color="rgba(24,24,27,1)"/><stop offset="100%" stop-color="rgba(39,39,42,1)"/></linearGradient></defs><rect x="0" y="0" width="1200" height="630" fill="url(#lg1)"/><path d="M2.797 -0.3594L2.797 -7.25Q10.56 -4.547 17.09 -4.547Q26.39 -4.547 26.39 -9.922Q26.39 -13.42 22.86 -14.94L19.11 -16.36L14.66 -18.05Q7.516 -20.75 5.109 -23.22Q2.703 -25.67 2.703 -30.22Q2.703 -41.48 19.22 -41.48Q26.17 -41.48 32.44 -40.09L32.44 -33.69Q25.92 -35.94 19.83 -35.94Q14.88 -35.94 12.97 -34.89Q11.05 -33.86 11.05 -31.17Q11.05 -29.48 11.98 -28.52Q12.91 -27.56 15.56 -26.58L18.67 -25.38L23.33 -23.66Q30.08 -21.14 32.66 -18.45Q35.25 -15.78 35.25 -11.23Q35.25 -4.891 30.52 -1.922Q25.81 1.047 15.67 1.047Q11.88 1.047 7.109 0.2969L2.797 -0.3594ZM37.36 0M41.41 0L41.41 -43.17L49.5 -43.17L49.5 -25.05Q54.13 -30.7 59.7 -30.7Q67.88 -30.7 67.88 -21.22L67.88 0L59.78 0L59.78 -19.22Q59.78 -22.16 59.08 -23.25Q58.39 -24.34 56.53 -24.34Q53.25 -24.34 49.5 -19.58L49.5 0L41.41 0ZM71.56 0M75.61 0L75.61 -30.03L83.7 -30.03L83.7 0L75.61 0M75.34 -35.5L75.34 -43.17L83.98 -43.17L83.98 -35.5L75.34 -35.5ZM87.75 0M99.89 10.8L91.8 10.8L91.8 -30.03L99.89 -30.03L99.89 -25.05Q104.2 -30.7 109.3 -30.7Q114 -30.7 116.9 -26.61Q119.8 -22.53 119.8 -15.83Q119.8 -8.062 116 -3.688Q112.3 0.6875 105.7 0.6875Q103.5 0.6875 99.89 0L99.89 10.8M99.89 -4.812Q103 -4.297 104.5 -4.297Q111.2 -4.297 111.2 -14.72Q111.2 -24.36 106.3 -24.36Q103 -24.36 99.89 -19.58L99.89 -4.812ZM137.5 0M142.1 0L142.1 -24.97L138.9 -24.97L138.9 -30.03L142.1 -30.03L142.1 -32.19Q142.1 -43.86 152.7 -43.86Q155 -43.86 157.6 -43.16L157.6 -37.91Q155.4 -38.8 153.6 -38.8Q150.2 -38.8 150.2 -32.48L150.2 -30.03L155.2 -30.03L155.2 -24.97L150.2 -24.97L150.2 0L142.1 0ZM156.2 0M185.6 -4.625L185.8 -0.07812Q183.2 0.6875 181.3 0.6875Q176.3 0.6875 174.8 -3.234L174.5 -3.234Q171.6 0.6875 167 0.6875Q163 0.6875 160.5 -1.719Q158.1 -4.156 158.1 -8.094Q158.1 -18.33 172.3 -18.33L174.5 -18.33L174.5 -21.06Q174.5 -25.73 169.8 -25.73Q165.5 -25.73 160.7 -23.05L160.7 -28.62Q165.7 -30.7 171.1 -30.7Q182.3 -30.7 182.3 -21.33L182.3 -8.047Q182.3 -4.516 184.5 -4.516Q184.9 -4.516 185.6 -4.625M174.5 -7.578L174.5 -13.67L172.6 -13.67Q165.8 -13.67 165.8 -8.812Q165.8 -7.078 167 -5.938Q168.1 -4.812 169.8 -4.812Q172.6 -4.812 174.5 -7.578ZM187.3 0M190.7 -0.9844L190.7 -6.891Q197 -4.375 201.3 -4.375Q207.3 -4.375 207.3 -7.656Q207.3 -9.656 202.5 -11.59L199.8 -12.69Q194.2 -14.95 192.5 -16.62Q190.8 -18.3 190.8 -21.62Q190.8 -30.7 203.5 -30.7Q207.8 -30.7 213.3 -29.64L213.3 -24.09Q207.3 -25.66 204.5 -25.66Q198.8 -25.66 198.8 -22.59Q198.8 -20.73 203.2 -19.06L205.5 -18.16Q211.6 -15.89 213.6 -13.95Q215.6 -12.03 215.6 -8.641Q215.6 -4.375 211.9 -1.828Q208.1 0.6875 201.8 0.6875Q196.2 0.6875 190.7 -0.9844ZM218.5 0M236.6 -5.094L236.6 -0.03125Q233.5 0.6875 231.4 0.6875Q222.9 0.6875 222.9 -9.156L222.9 -24.97L219.6 -24.97L219.6 -30.03L222.9 -30.03L222.9 -35.91L231 -36.83L231 -30.03L236.7 -30.03L236.7 -24.97L231 -24.97L231 -10.23Q231 -6.844 231.5 -5.766Q232.1 -4.734 233.9 -4.734Q235 -4.734 236.6 -5.094ZM237.1 0M265.3 -6.703L265.3 -1.016Q260.3 0.6875 255.3 0.6875Q247.7 0.6875 243.4 -3.609Q239.1 -7.938 239.1 -15.42Q239.1 -22.38 242.9 -26.53Q246.7 -30.7 252.9 -30.7Q259.3 -30.7 262.3 -26.55Q265.3 -22.42 265.3 -13.41L247.7 -13.41Q248.5 -4.812 256.7 -4.812Q260.5 -4.812 265.3 -6.703M247.6 -17.97L257.3 -17.97Q257.3 -25.66 253 -25.66Q248.4 -25.66 247.6 -17.97ZM268.2 0M273 0L273 -30.03L281.1 -30.03L281.1 -25.05Q283.3 -30.7 287.8 -30.7Q288.4 -30.7 289.2 -30.55L289.2 -23.33Q287.6 -23.95 286.6 -23.95Q283.3 -23.95 281.1 -19.75L281.1 0L273 0Z" fill="#ffffff" transform="translate(64,116.9)"/><image href="https://cdn.jsdelivr.net/gh/twitter/twemoji@latest/assets/svg/1f680.svg" x="369.6" y="64" width="56" height="56"/><path d="M1.766 0L1.766 -15.91L6.859 -15.91Q14.89 -15.91 14.89 -8.328Q14.89 -4.359 12.8 -2.188Q10.7 0 6.891 0L1.766 0M4.031 -1.688L6.734 -1.688Q9.641 -1.688 11.05 -3.266Q12.47 -4.859 12.47 -8.109Q12.47 -10.92 11.12 -12.52Q10.3 -13.5 9.141 -13.84Q8 -14.22 5.688 -14.22L4.031 -14.22L4.031 -1.688ZM15.89 0M24.67 -7.094Q24.67 -10.34 22.05 -10.34Q19.33 -10.34 19.08 -7.094L24.67 -7.094M26.77 -2.047L26.77 -0.375Q24.69 0.2656 22.72 0.2656Q20.03 0.2656 18.42 -1.422Q16.81 -3.125 16.81 -5.969Q16.81 -8.703 18.23 -10.31Q19.66 -11.92 22.08 -11.92Q26.84 -11.92 26.84 -6.156L26.83 -5.5L19.03 -5.5Q19.34 -1.344 23.22 -1.344Q24.89 -1.344 26.77 -2.047ZM28.12 0M31.89 4.25L29.78 4.25L29.78 -11.67L31.89 -11.67L31.89 -9.469Q33.16 -11.92 35.38 -11.92Q37.2 -11.92 38.31 -10.34Q39.42 -8.766 39.42 -6.172Q39.42 -3.078 37.98 -1.406Q36.56 0.2656 33.92 0.2656Q32.91 0.2656 31.89 0L31.89 4.25M31.89 -7.547L31.89 -1.594Q33.36 -1.328 34.09 -1.328Q37.14 -1.328 37.14 -5.969Q37.14 -7.875 36.53 -8.969Q35.95 -10.08 34.92 -10.08Q33.53 -10.08 31.89 -7.547ZM40.36 0M44.13 -3.609Q44.13 -3 44.23 -2.562Q44.34 -2.125 44.58 -1.844Q44.83 -1.578 45.17 -1.453Q45.53 -1.328 45.98 -1.328L45.98 0.2031Q45.73 0.2656 45.33 0.2656Q44.64 0.2656 44 0.03125Q43.38 -0.2031 42.92 -0.6406Q42.48 -1.094 42.25 -1.734Q42.02 -2.391 42.02 -3.219L42.02 -16.97L44.13 -16.97L44.13 -3.609ZM46.25 0M52.28 0.2656Q49.94 0.2656 48.55 -1.391Q47.17 -3.047 47.17 -5.828Q47.17 -8.656 48.56 -10.3Q49.95 -11.92 52.36 -11.92Q54.77 -11.92 56.16 -10.3Q57.55 -8.672 57.55 -5.859Q57.55 -2.969 56.16 -1.359Q54.77 0.2656 52.28 0.2656M52.31 -1.328Q55.27 -1.328 55.27 -5.891Q55.27 -10.33 52.36 -10.33Q49.47 -10.33 49.47 -5.828Q49.47 -1.328 52.31 -1.328ZM58.48 0M62.83 0L58.69 -11.67L60.84 -11.67L64 -2.719L67.48 -11.67L69.36 -11.67L63.19 4.25L60.98 4.25L62.83 0ZM75.59 0M78.53 0L75.72 -11.67L77.78 -11.67L79.89 -2.875L82.58 -11.67L84.69 -11.67L87.06 -2.844L89.5 -11.67L91.32 -11.67L88.06 0L85.92 0L83.45 -9.031L80.67 0L78.53 0ZM91.48 0M93.14 0L93.14 -11.67L95.25 -11.67L95.25 0L93.14 0M93.03 -13.78L93.03 -16.11L95.36 -16.11L95.36 -13.78L93.03 -13.78ZM96.91 0M102.6 0.0625Q102 0.2656 101.4 0.2656Q98.55 0.2656 98.55 -3.219L98.55 -10.08L97.17 -10.08L97.17 -11.67L98.55 -11.67L98.55 -14.11L100.7 -14.31L100.7 -11.67L103.2 -11.67L103.2 -10.08L100.7 -10.08L100.7 -3.609Q100.7 -2.219 100.9 -1.766Q101.1 -1.328 101.9 -1.328Q102.3 -1.328 102.6 -1.438L102.6 0.0625ZM103.1 0M104.8 0L104.8 -16.97L106.9 -16.97L106.9 -9.469Q108.6 -11.92 110.8 -11.92Q113.8 -11.92 113.8 -8.375L113.8 0L111.7 0L111.7 -7.688Q111.7 -9.094 111.4 -9.609Q111.1 -10.11 110.3 -10.11Q108.5 -10.11 106.9 -7.547L106.9 0L104.8 0ZM121.5 0M131.4 -0.3594Q129.6 0.2656 127.7 0.2656Q125.3 0.2656 123.9 -1.422Q122.4 -3.109 122.4 -5.812Q122.4 -8.688 123.9 -10.3Q125.4 -11.92 128 -11.92Q129.5 -11.92 131.3 -11.53L131.3 -9.781Q129.6 -10.3 128.5 -10.3Q124.7 -10.3 124.7 -5.812Q124.7 -3.734 125.7 -2.578Q126.7 -1.438 128.4 -1.438Q129.7 -1.438 131.4 -2.188L131.4 -0.3594ZM132.5 0M138.5 0.2656Q136.2 0.2656 134.8 -1.391Q133.4 -3.047 133.4 -5.828Q133.4 -8.656 134.8 -10.3Q136.2 -11.92 138.6 -11.92Q141 -11.92 142.4 -10.3Q143.8 -8.672 143.8 -5.859Q143.8 -2.969 142.4 -1.359Q141 0.2656 138.5 0.2656M138.5 -1.328Q141.5 -1.328 141.5 -5.891Q141.5 -10.33 138.6 -10.33Q135.7 -10.33 135.7 -5.828Q135.7 -1.328 138.5 -1.328ZM144.7 0M146.4 0L146.4 -11.67L148.5 -11.67L148.5 -9.469Q150.2 -11.92 152.4 -11.92Q155.4 -11.92 155.4 -8.375L155.4 0L153.3 0L153.3 -7.688Q153.3 -9.094 153 -9.609Q152.7 -10.11 151.9 -10.11Q150.1 -10.11 148.5 -7.547L148.5 0L146.4 0ZM156.9 0M158.8 0L158.8 -10.08L157.3 -10.08L157.3 -11.67L158.8 -11.67L158.8 -13.06Q158.8 -17.23 162.2 -17.23Q162.8 -17.23 163.7 -16.95L163.7 -15.27Q162.9 -15.64 162.4 -15.64Q161.6 -15.64 161.2 -15.11Q160.9 -14.59 160.9 -13.28L160.9 -11.67L163.4 -11.67L163.4 -10.08L160.9 -10.08L160.9 0L158.8 0ZM163 0M164.7 0L164.7 -11.67L166.8 -11.67L166.8 0L164.7 0M164.6 -13.78L164.6 -16.11L166.9 -16.11L166.9 -13.78L164.6 -13.78ZM168.5 0M176.9 -4.109L176.9 -10.06Q175.5 -10.33 174.7 -10.33Q171.7 -10.33 171.7 -5.688Q171.7 -3.797 172.3 -2.688Q172.9 -1.594 173.9 -1.594Q175.3 -1.594 176.9 -4.109M176.9 -2.188Q175.7 0.2656 173.4 0.2656Q171.6 0.2656 170.5 -1.312Q169.4 -2.906 169.4 -5.5Q169.4 -8.578 170.8 -10.25Q172.3 -11.92 174.9 -11.92Q175.9 -11.92 176.9 -11.67L176.9 -16.97L179 -16.97L179 0L176.9 0L176.9 -2.188ZM180.7 0M189.5 -7.094Q189.5 -10.34 186.9 -10.34Q184.1 -10.34 183.9 -7.094L189.5 -7.094M191.6 -2.047L191.6 -0.375Q189.5 0.2656 187.5 0.2656Q184.8 0.2656 183.2 -1.422Q181.6 -3.125 181.6 -5.969Q181.6 -8.703 183 -10.31Q184.5 -11.92 186.9 -11.92Q191.7 -11.92 191.7 -6.156L191.6 -5.5L183.8 -5.5Q184.2 -1.344 188 -1.344Q189.7 -1.344 191.6 -2.047ZM192.9 0M194.6 0L194.6 -11.67L196.7 -11.67L196.7 -9.469Q198.4 -11.92 200.7 -11.92Q203.6 -11.92 203.6 -8.375L203.6 0L201.5 0L201.5 -7.688Q201.5 -9.094 201.2 -9.609Q200.9 -10.11 200.1 -10.11Q198.3 -10.11 196.7 -7.547L196.7 0L194.6 0ZM205.2 0M215.1 -0.3594Q213.3 0.2656 211.4 0.2656Q209 0.2656 207.6 -1.422Q206.1 -3.109 206.1 -5.812Q206.1 -8.688 207.6 -10.3Q209.1 -11.92 211.7 -11.92Q213.2 -11.92 215 -11.53L215 -9.781Q213.3 -10.3 212.2 -10.3Q208.4 -10.3 208.4 -5.812Q208.4 -3.734 209.4 -2.578Q210.4 -1.438 212.1 -1.438Q213.4 -1.438 215.1 -2.188L215.1 -0.3594ZM216.2 0M225 -7.094Q225 -10.34 222.3 -10.34Q219.6 -10.34 219.4 -7.094L225 -7.094M227.1 -2.047L227.1 -0.375Q225 0.2656 223 0.2656Q220.3 0.2656 218.7 -1.422Q217.1 -3.125 217.1 -5.969Q217.1 -8.703 218.5 -10.31Q219.9 -11.92 222.4 -11.92Q227.1 -11.92 227.1 -6.156L227.1 -5.5L219.3 -5.5Q219.6 -1.344 223.5 -1.344Q225.2 -1.344 227.1 -2.047Z" fill="#a1a1aa" transform="translate(64,168)"/><image href="https://cdn.jsdelivr.net/gh/twitter/twemoji@latest/assets/svg/2728.svg" x="298.5" y="147.2" width="22" height="22"/><path d="M6.109 0M7.968 0L7.968 -15.91L12.34 -15.91L15.48 -4.719L18.75 -15.91L22.59 -15.91L22.59 0L19.53 0L19.53 -12L16.34 -1.062L13.69 -1.062L10.56 -12.16L10.56 0L7.968 0ZM24.44 0M30.47 0.2656Q28.13 0.2656 26.73 -1.391Q25.36 -3.047 25.36 -5.828Q25.36 -8.656 26.75 -10.3Q28.14 -11.92 30.55 -11.92Q32.95 -11.92 34.34 -10.3Q35.74 -8.672 35.74 -5.859Q35.74 -2.969 34.34 -1.359Q32.95 0.2656 30.47 0.2656M30.5 -1.328Q33.45 -1.328 33.45 -5.891Q33.45 -10.33 30.55 -10.33Q27.66 -10.33 27.66 -5.828Q27.66 -1.328 30.5 -1.328ZM36.67 0M38.33 0L38.33 -11.67L40.44 -11.67L40.44 -9.469Q42.12 -11.92 44.39 -11.92Q47.37 -11.92 47.37 -8.375L47.37 0L45.25 0L45.25 -7.688Q45.25 -9.094 44.95 -9.609Q44.67 -10.11 43.84 -10.11Q42.05 -10.11 40.44 -7.547L40.44 0L38.33 0ZM48.91 0M50.56 0L50.56 -11.67L52.67 -11.67L52.67 0L50.56 0M50.45 -13.78L50.45 -16.11L52.78 -16.11L52.78 -13.78L50.45 -13.78ZM54.33 0M60.02 0.0625Q59.41 0.2656 58.84 0.2656Q55.97 0.2656 55.97 -3.219L55.97 -10.08L54.59 -10.08L54.59 -11.67L55.97 -11.67L55.97 -14.11L58.08 -14.31L58.08 -11.67L60.66 -11.67L60.66 -10.08L58.08 -10.08L58.08 -3.609Q58.08 -2.219 58.31 -1.766Q58.55 -1.328 59.3 -1.328Q59.73 -1.328 60.02 -1.438L60.02 0.0625ZM60.55 0M66.58 0.2656Q64.23 0.2656 62.84 -1.391Q61.47 -3.047 61.47 -5.828Q61.47 -8.656 62.86 -10.3Q64.25 -11.92 66.66 -11.92Q69.06 -11.92 70.45 -10.3Q71.85 -8.672 71.85 -5.859Q71.85 -2.969 70.45 -1.359Q69.06 0.2656 66.58 0.2656M66.61 -1.328Q69.56 -1.328 69.56 -5.891Q69.56 -10.33 66.66 -10.33Q63.77 -10.33 63.77 -5.828Q63.77 -1.328 66.61 -1.328ZM72.78 0M74.44 0L74.44 -11.67L76.55 -11.67L76.55 -9.469Q77.52 -11.92 79.34 -11.92Q79.59 -11.92 79.95 -11.88L79.95 -9.891Q79.41 -10.08 79.06 -10.08Q77.84 -10.08 76.55 -7.688L76.55 0L74.44 0ZM86.22 0M87.87 0L87.87 -11.67L89.98 -11.67L89.98 0L87.87 0M87.77 -13.78L87.77 -16.11L90.09 -16.11L90.09 -13.78L87.77 -13.78ZM91.64 0M93.3 0L93.3 -11.67L95.41 -11.67L95.41 -9.469Q97.09 -11.92 99.36 -11.92Q102.3 -11.92 102.3 -8.375L102.3 0L100.2 0L100.2 -7.688Q100.2 -9.094 99.92 -9.609Q99.64 -10.11 98.81 -10.11Q97.02 -10.11 95.41 -7.547L95.41 0L93.3 0ZM110 0M111.6 0L111.6 -11.67L113.8 -11.67L113.8 -9.469Q114.7 -11.92 116.5 -11.92Q116.8 -11.92 117.2 -11.88L117.2 -9.891Q116.6 -10.08 116.3 -10.08Q115 -10.08 113.8 -7.688L113.8 0L111.6 0ZM117.3 0M126.1 -7.094Q126.1 -10.34 123.5 -10.34Q120.8 -10.34 120.5 -7.094L126.1 -7.094M128.2 -2.047L128.2 -0.375Q126.1 0.2656 124.1 0.2656Q121.5 0.2656 119.8 -1.422Q118.2 -3.125 118.2 -5.969Q118.2 -8.703 119.7 -10.31Q121.1 -11.92 123.5 -11.92Q128.3 -11.92 128.3 -6.156L128.3 -5.5L120.5 -5.5Q120.8 -1.344 124.6 -1.344Q126.3 -1.344 128.2 -2.047ZM129.5 0M137.9 -1.484Q136 0.2656 134 0.2656Q132.5 0.2656 131.5 -0.625Q130.6 -1.516 130.6 -2.938Q130.6 -6.891 137.1 -6.891L137.5 -6.891L137.5 -8.297Q137.5 -10.33 135.3 -10.33Q133.5 -10.33 131.6 -9.297L131.6 -11.05Q133.7 -11.92 135.7 -11.92Q137.8 -11.92 138.7 -11.05Q139.7 -10.19 139.7 -8.297L139.7 -3.016Q139.7 -1.203 140.8 -1.203Q140.9 -1.203 141.2 -1.25L141.3 -0.07812Q140.6 0.2656 139.7 0.2656Q138.3 0.2656 137.9 -1.484M137.5 -2.625L137.5 -5.656L136.9 -5.672Q132.8 -5.672 132.8 -3.312Q132.8 -1.469 134.7 -1.469Q136.1 -1.469 137.5 -2.625ZM141.8 0M145.5 -3.609Q145.5 -3 145.7 -2.562Q145.8 -2.125 146 -1.844Q146.3 -1.578 146.6 -1.453Q147 -1.328 147.4 -1.328L147.4 0.2031Q147.2 0.2656 146.8 0.2656Q146.1 0.2656 145.4 0.03125Q144.8 -0.2031 144.3 -0.6406Q143.9 -1.094 143.7 -1.734Q143.4 -2.391 143.4 -3.219L143.4 -16.97L145.5 -16.97L145.5 -3.609ZM147.7 0M148.8 -5.562L148.8 -7.156L159.4 -7.156L159.4 -5.562L148.8 -5.562ZM160.5 0M166.2 0.0625Q165.6 0.2656 165 0.2656Q162.2 0.2656 162.2 -3.219L162.2 -10.08L160.8 -10.08L160.8 -11.67L162.2 -11.67L162.2 -14.11L164.3 -14.31L164.3 -11.67L166.8 -11.67L166.8 -10.08L164.3 -10.08L164.3 -3.609Q164.3 -2.219 164.5 -1.766Q164.7 -1.328 165.5 -1.328Q165.9 -1.328 166.2 -1.438L166.2 0.0625ZM166.7 0M168.4 0L168.4 -11.67L170.5 -11.67L170.5 0L168.4 0M168.3 -13.78L168.3 -16.11L170.6 -16.11L170.6 -13.78L168.3 -13.78ZM172.2 0M173.8 0L173.8 -11.67L175.9 -11.67L175.9 -9.469Q176.9 -10.97 177.6 -11.44Q178.2 -11.92 179.3 -11.92Q181.6 -11.92 182.5 -9.469Q183.4 -10.97 184.1 -11.44Q184.7 -11.92 185.8 -11.92Q189 -11.92 189 -8.484L189 0L186.8 0L186.8 -8.156Q186.8 -10.16 185.2 -10.16Q183.9 -10.16 182.5 -7.828L182.5 0L180.3 0L180.3 -8.156Q180.3 -10.16 178.7 -10.16Q177.3 -10.16 175.9 -7.828L175.9 0L173.8 0ZM190.5 0M199.3 -7.094Q199.3 -10.34 196.6 -10.34Q193.9 -10.34 193.7 -7.094L199.3 -7.094M201.4 -2.047L201.4 -0.375Q199.3 0.2656 197.3 0.2656Q194.6 0.2656 193 -1.422Q191.4 -3.125 191.4 -5.969Q191.4 -8.703 192.8 -10.31Q194.3 -11.92 196.7 -11.92Q201.4 -11.92 201.4 -6.156L201.4 -5.5L193.6 -5.5Q193.9 -1.344 197.8 -1.344Q199.5 -1.344 201.4 -2.047Z" fill="#a1a1aa" transform="translate(320.5,168)"/><image href="https://cdn.jsdelivr.net/gh/twitter/twemoji@latest/assets/svg/1f4ca.svg" x="529.3" y="147.2" width="22" height="22"/><rect x="64" y="494.8" width="346.7" height="71.2" fill="rgba(255,255,255,0.06)" rx="12" ry="12"/><rect x="64.5" y="495.3" width="345.7" height="70.2" fill="none" stroke="rgba(255,255,255,0.08)" stroke-width="1" rx="12" ry="12"/><image href="https://cdn.jsdelivr.net/gh/twitter/twemoji@latest/assets/svg/1f30d.svg" x="89" y="518.4" width="20" height="20"/><path d="M0.2656 -3.469L0.2656 -5.422L5.812 -13.02L8.188 -13.02L8.188 -5.422L9.391 -5.422L9.391 -3.469L8.188 -3.469L8.188 0L5.922 0L5.922 -3.469L0.2656 -3.469M2.359 -5.422L5.969 -5.422L5.969 -10.52L2.359 -5.422ZM10.02 0M10.69 0L10.69 -2.062Q11.41 -3.312 12.44 -4.375L13.34 -5.297L14.37 -6.359Q15.47 -7.469 15.8 -8.078Q16.12 -8.688 16.12 -9.625Q16.12 -11.66 14.19 -11.66Q12.94 -11.66 11.03 -10.69L11.03 -12.59Q13.02 -13.33 14.62 -13.33Q16.61 -13.33 17.75 -12.34Q18.89 -11.38 18.89 -9.656Q18.89 -8.531 18.34 -7.625Q17.8 -6.734 16.37 -5.516L15.5 -4.781Q13.81 -3.344 13.64 -2.062L18.84 -2.062L18.84 0L10.69 0ZM25.03 0M26.39 0L26.39 -9.547L28.11 -9.547L28.11 -7.75Q28.91 -9.75 30.41 -9.75Q30.61 -9.75 30.91 -9.719L30.91 -8.094Q30.45 -8.25 30.17 -8.25Q29.17 -8.25 28.11 -6.297L28.11 0L26.39 0ZM31.03 0M40.09 -2.156L40.09 -0.3281Q38.48 0.2188 36.88 0.2188Q34.45 0.2188 33.06 -1.156Q31.69 -2.547 31.69 -4.953Q31.69 -7.188 32.89 -8.531Q34.09 -9.875 36.11 -9.875Q38.17 -9.875 39.14 -8.531Q40.09 -7.203 40.09 -4.312L34.42 -4.312Q34.7 -1.547 37.31 -1.547Q38.56 -1.547 40.09 -2.156M34.39 -5.781L37.53 -5.781Q37.53 -8.25 36.14 -8.25Q34.66 -8.25 34.39 -5.781ZM41.05 0M48.03 -3.797L48.03 -8.234Q46.83 -8.453 46.23 -8.453Q43.73 -8.453 43.73 -5.047Q43.73 -3.531 44.23 -2.625Q44.72 -1.734 45.56 -1.734Q46.69 -1.734 48.03 -3.797M48.03 -2.219Q47 -0.2188 45.17 -0.2188Q43.7 -0.2188 42.78 -1.5Q41.86 -2.781 41.86 -4.828Q41.86 -7.188 43.03 -8.469Q44.22 -9.75 46.34 -9.75Q47.2 -9.75 48.03 -9.547L49.75 -9.547L49.75 -2.609Q49.75 -0.3594 49.52 0.7188Q49.3 1.797 48.66 2.484Q47.53 3.688 45.14 3.688Q43.47 3.688 41.92 3.172L41.92 1.672Q43.77 2.375 45.11 2.375Q48.03 2.375 48.03 -0.7188L48.03 -2.219ZM51.06 0M52.36 0L52.36 -9.656L54.97 -9.656L54.97 0L52.36 0M52.28 -11.41L52.28 -13.88L55.05 -13.88L55.05 -11.41L52.28 -11.41ZM56.27 0M61.2 0.2188Q59.28 0.2188 58.14 -1.141Q57.02 -2.484 57.02 -4.766Q57.02 -7.078 58.16 -8.422Q59.3 -9.75 61.27 -9.75Q63.23 -9.75 64.37 -8.422Q65.52 -7.094 65.52 -4.797Q65.52 -2.438 64.37 -1.109Q63.23 0.2188 61.2 0.2188M61.23 -1.078Q63.64 -1.078 63.64 -4.812Q63.64 -8.453 61.27 -8.453Q58.89 -8.453 58.89 -4.766Q58.89 -1.078 61.23 -1.078ZM66.28 0M67.58 0L67.58 -9.656L70.19 -9.656L70.19 -8.047Q71.67 -9.875 73.47 -9.875Q76.09 -9.875 76.09 -6.828L76.09 0L73.48 0L73.48 -6.172Q73.48 -7.125 73.27 -7.469Q73.05 -7.828 72.44 -7.828Q71.39 -7.828 70.19 -6.297L70.19 0L67.58 0ZM77.28 0M78.36 -0.3125L78.36 -2.219Q80.39 -1.406 81.77 -1.406Q83.7 -1.406 83.7 -2.469Q83.7 -3.109 82.17 -3.734L81.3 -4.078Q79.48 -4.812 78.94 -5.344Q78.41 -5.875 78.41 -6.953Q78.41 -9.875 82.47 -9.875Q83.86 -9.875 85.63 -9.531L85.63 -7.75Q83.69 -8.25 82.8 -8.25Q80.97 -8.25 80.97 -7.266Q80.97 -6.656 82.39 -6.125L83.14 -5.844Q85.08 -5.109 85.73 -4.484Q86.39 -3.875 86.39 -2.781Q86.39 -1.406 85.17 -0.5938Q83.97 0.2188 81.94 0.2188Q80.14 0.2188 78.36 -0.3125Z" fill="#ffffff" transform="translate(119,528.8)"/><path d="M8.922 -4.375L8.922 -0.25Q7.25 0.2344 5.516 0.2344Q0.5938 0.2344 0.5938 -4.672Q0.5938 -7.062 1.859 -8.344Q3.141 -9.625 5.516 -9.625Q7.188 -9.625 8.906 -9.203L8.906 -7.969Q6.906 -8.641 5.516 -8.641Q2.016 -8.641 2.016 -4.703Q2.016 -2.797 2.984 -1.781Q3.938 -0.7656 5.734 -0.7656Q6.469 -0.7656 7.594 -1L7.594 -3.391L6.031 -3.391L6.031 -4.375L8.922 -4.375ZM10.11 0M12.34 -2.141Q12.34 -1.766 12.41 -1.516Q12.47 -1.25 12.61 -1.094Q12.75 -0.9375 12.95 -0.8594Q13.16 -0.7812 13.42 -0.7812L13.42 0.125Q13.3 0.1562 13.05 0.1562Q12.64 0.1562 12.27 0.01562Q11.89 -0.125 11.63 -0.375Q11.36 -0.6406 11.23 -1.031Q11.09 -1.422 11.09 -1.906L11.09 -10.02L12.34 -10.02L12.34 -2.141ZM13.59 0M17.16 0.1562Q15.77 0.1562 14.95 -0.8125Q14.14 -1.797 14.14 -3.453Q14.14 -5.109 14.95 -6.078Q15.78 -7.047 17.2 -7.047Q18.62 -7.047 19.45 -6.078Q20.27 -5.125 20.27 -3.453Q20.27 -1.766 19.45 -0.7969Q18.62 0.1562 17.16 0.1562M17.19 -0.7812Q18.92 -0.7812 18.92 -3.484Q18.92 -6.109 17.2 -6.109Q15.48 -6.109 15.48 -3.453Q15.48 -0.7812 17.19 -0.7812ZM20.83 0M23.06 -4.469L23.06 -0.9531Q23.92 -0.7812 24.36 -0.7812Q26.16 -0.7812 26.16 -3.531Q26.16 -4.656 25.8 -5.297Q25.45 -5.953 24.84 -5.953Q24.02 -5.953 23.06 -4.469M23.06 -5.594Q23.81 -7.047 25.11 -7.047Q26.19 -7.047 26.84 -6.109Q27.5 -5.188 27.5 -3.641Q27.5 -1.828 26.66 -0.8281Q25.81 0.1562 24.25 0.1562Q23.66 0.1562 23.06 0L21.81 0.07812L21.81 -10.02L23.06 -10.02L23.06 -5.594ZM28.06 0M32.97 -0.875Q31.84 0.1562 30.7 0.1562Q29.8 0.1562 29.23 -0.375Q28.67 -0.8906 28.67 -1.734Q28.67 -4.078 32.5 -4.078L32.8 -4.078L32.8 -4.906Q32.8 -6.109 31.48 -6.109Q30.41 -6.109 29.27 -5.5L29.27 -6.531Q30.53 -7.047 31.69 -7.047Q32.92 -7.047 33.48 -6.531Q34.05 -6.031 34.05 -4.906L34.05 -1.781Q34.05 -0.7188 34.7 -0.7188Q34.78 -0.7188 34.94 -0.7344L35.03 -0.04688Q34.59 0.1562 34.09 0.1562Q33.22 0.1562 32.97 -0.875M32.8 -1.562L32.8 -3.344L32.37 -3.359Q29.95 -3.359 29.95 -1.953Q29.95 -0.8594 31.12 -0.8594Q31.94 -0.8594 32.8 -1.562ZM35.3 0M37.53 -2.141Q37.53 -1.766 37.59 -1.516Q37.66 -1.25 37.8 -1.094Q37.94 -0.9375 38.14 -0.8594Q38.34 -0.7812 38.61 -0.7812L38.61 0.125Q38.48 0.1562 38.23 0.1562Q37.83 0.1562 37.45 0.01562Q37.08 -0.125 36.81 -0.375Q36.55 -0.6406 36.42 -1.031Q36.28 -1.422 36.28 -1.906L36.28 -10.02L37.53 -10.02L37.53 -2.141ZM42.39 0M47.58 -4.188Q47.58 -6.109 46.03 -6.109Q44.42 -6.109 44.27 -4.188L47.58 -4.188M48.83 -1.219L48.83 -0.2188Q47.59 0.1562 46.42 0.1562Q44.83 0.1562 43.87 -0.8438Q42.94 -1.844 42.94 -3.531Q42.94 -5.141 43.78 -6.094Q44.62 -7.047 46.05 -7.047Q48.86 -7.047 48.86 -3.641L48.86 -3.25L44.25 -3.25Q44.42 -0.7969 46.72 -0.7969Q47.7 -0.7969 48.83 -1.219ZM49.62 0M54.62 -2.422L54.62 -5.953Q53.75 -6.109 53.33 -6.109Q51.52 -6.109 51.52 -3.359Q51.52 -2.234 51.88 -1.594Q52.23 -0.9375 52.84 -0.9375Q53.66 -0.9375 54.62 -2.422M54.62 -1.281Q53.88 0.1562 52.56 0.1562Q51.48 0.1562 50.83 -0.7812Q50.17 -1.719 50.17 -3.25Q50.17 -5.062 51.02 -6.062Q51.86 -7.047 53.42 -7.047Q54.03 -7.047 54.62 -6.891L54.62 -10.02L55.88 -10.02L55.88 0L54.62 0L54.62 -1.281ZM56.86 0M61.91 -2.75L61.91 -5.953Q61.03 -6.109 60.61 -6.109Q58.8 -6.109 58.8 -3.641Q58.8 -2.547 59.16 -1.891Q59.52 -1.25 60.11 -1.25Q60.94 -1.25 61.91 -2.75M61.91 -1.609Q61.16 -0.1562 59.84 -0.1562Q58.78 -0.1562 58.11 -1.078Q57.45 -2 57.45 -3.484Q57.45 -5.188 58.3 -6.109Q59.14 -7.047 60.69 -7.047Q61.3 -7.047 61.91 -6.891L63.16 -6.891L63.16 -1.875Q63.16 -0.25 62.98 0.5156Q62.81 1.297 62.36 1.797Q61.53 2.672 59.81 2.672Q58.61 2.672 57.5 2.297L57.5 1.203Q58.83 1.719 59.8 1.719Q61.91 1.719 61.91 -0.5156L61.91 -1.609ZM64.09 0M69.28 -4.188Q69.28 -6.109 67.73 -6.109Q66.12 -6.109 65.97 -4.188L69.28 -4.188M70.53 -1.219L70.53 -0.2188Q69.3 0.1562 68.12 0.1562Q66.53 0.1562 65.58 -0.8438Q64.64 -1.844 64.64 -3.531Q64.64 -5.141 65.48 -6.094Q66.33 -7.047 67.75 -7.047Q70.56 -7.047 70.56 -3.641L70.56 -3.25L65.95 -3.25Q66.12 -0.7969 68.42 -0.7969Q69.41 -0.7969 70.53 -1.219ZM74.94 0M75.92 0L75.92 -6.891L77.17 -6.891L77.17 -5.594Q78.16 -7.047 79.5 -7.047Q81.27 -7.047 81.27 -4.953L81.27 0L80.02 0L80.02 -4.547Q80.02 -5.375 79.83 -5.672Q79.66 -5.969 79.17 -5.969Q78.13 -5.969 77.17 -4.469L77.17 0L75.92 0ZM82.17 0M87.36 -4.188Q87.36 -6.109 85.81 -6.109Q84.2 -6.109 84.05 -4.188L87.36 -4.188M88.61 -1.219L88.61 -0.2188Q87.37 0.1562 86.2 0.1562Q84.61 0.1562 83.66 -0.8438Q82.72 -1.844 82.72 -3.531Q82.72 -5.141 83.56 -6.094Q84.41 -7.047 85.83 -7.047Q88.64 -7.047 88.64 -3.641L88.64 -3.25L84.03 -3.25Q84.2 -0.7969 86.5 -0.7969Q87.48 -0.7969 88.61 -1.219ZM89.41 0M92.77 0.03125Q92.41 0.1562 92.08 0.1562Q90.38 0.1562 90.38 -1.906L90.38 -5.953L89.56 -5.953L89.56 -6.891L90.38 -6.891L90.38 -8.328L91.63 -8.453L91.63 -6.891L93.14 -6.891L93.14 -5.953L91.63 -5.953L91.63 -2.141Q91.63 -1.312 91.77 -1.047Q91.91 -0.7812 92.34 -0.7812Q92.59 -0.7812 92.77 -0.8438L92.77 0.03125ZM93.08 0M94.81 0L93.14 -6.891L94.38 -6.891L95.63 -1.703L97.2 -6.891L98.45 -6.891L99.84 -1.688L101.3 -6.891L102.4 -6.891L100.4 0L99.19 0L97.72 -5.344L96.08 0L94.81 0ZM102.5 0M106 0.1562Q104.6 0.1562 103.8 -0.8125Q103 -1.797 103 -3.453Q103 -5.109 103.8 -6.078Q104.7 -7.047 106.1 -7.047Q107.5 -7.047 108.3 -6.078Q109.1 -5.125 109.1 -3.453Q109.1 -1.766 108.3 -0.7969Q107.5 0.1562 106 0.1562M106.1 -0.7812Q107.8 -0.7812 107.8 -3.484Q107.8 -6.109 106.1 -6.109Q104.4 -6.109 104.4 -3.453Q104.4 -0.7812 106.1 -0.7812ZM109.7 0M110.7 0L110.7 -6.891L111.9 -6.891L111.9 -5.594Q112.5 -7.047 113.6 -7.047Q113.7 -7.047 113.9 -7.016L113.9 -5.844Q113.6 -5.953 113.4 -5.953Q112.7 -5.953 111.9 -4.547L111.9 0L110.7 0ZM114 0M115 0L115 -10.02L116.3 -10.02L116.3 -3.547L118.6 -6.891L119.8 -6.891L117.6 -3.641L120.4 0L118.9 0L116.3 -3.531L116.3 0L115 0Z" fill="#71717a" transform="translate(119,545.7)"/><rect x="426.7" y="494.8" width="346.7" height="71.2" fill="rgba(255,255,255,0.06)" rx="12" ry="12"/><rect x="427.2" y="495.3" width="345.7" height="70.2" fill="none" stroke="rgba(255,255,255,0.08)" stroke-width="1" rx="12" ry="12"/><image href="https://cdn.jsdelivr.net/gh/twitter/twemoji@latest/assets/svg/26a1.svg" x="451.7" y="518.4" width="20" height="20"/><path d="M9.594 -0.875L0.9219 -5.203L9.594 -9.547L9.594 -7.625L4.766 -5.219L4.766 -5.188L9.594 -2.781L9.594 -0.875ZM10.52 0M11.78 -0.04688L11.78 -1.938Q12.44 -1.625 13.06 -1.453Q13.7 -1.297 14.39 -1.297Q14.92 -1.297 15.34 -1.5Q15.77 -1.688 16.06 -2.016Q16.36 -2.344 16.52 -2.781Q16.67 -3.203 16.67 -3.688Q16.67 -4.406 16.45 -4.906Q16.25 -5.422 15.81 -5.734Q15.37 -6.062 14.69 -6.219Q14.02 -6.359 13.08 -6.359L12.02 -6.359L12.02 -13.02L19.19 -13.02L19.19 -10.95L13.86 -10.95L13.86 -7.953L14.14 -7.953Q15.25 -7.953 16.22 -7.75Q17.17 -7.531 17.89 -7.047Q18.61 -6.578 19.03 -5.797Q19.45 -5.016 19.45 -3.891Q19.45 -2.859 19.05 -2.062Q18.64 -1.281 17.95 -0.75Q17.3 -0.2188 16.42 0.04688Q15.56 0.3281 14.64 0.3281Q14.06 0.3281 13.34 0.2344Q12.64 0.1562 11.78 -0.04688ZM20.53 0M25.55 0.3281Q23.58 0.3281 22.41 -1.562Q21.23 -3.438 21.23 -6.516Q21.23 -9.609 22.41 -11.47Q23.59 -13.33 25.55 -13.33Q27.48 -13.33 28.66 -11.47Q29.84 -9.609 29.84 -6.516Q29.84 -3.391 28.67 -1.531Q27.5 0.3281 25.55 0.3281M25.55 -1.297Q27.39 -1.297 27.39 -6.516Q27.39 -7.219 27.36 -7.828L23.84 -4.016Q24.2 -1.297 25.55 -1.297M25.55 -11.7Q23.7 -11.7 23.7 -6.516Q23.7 -5.812 23.72 -5.203L27.23 -9.016Q26.88 -11.7 25.55 -11.7ZM30.55 0M31.84 0L31.84 -9.656L34.45 -9.656L34.45 -8.047Q35.62 -9.875 37.41 -9.875Q39.34 -9.875 39.91 -8.031Q40.99 -9.875 42.88 -9.875Q45.36 -9.875 45.36 -6.828L45.36 0L42.75 0L42.75 -6.172Q42.75 -7.141 42.58 -7.484Q42.39 -7.828 41.88 -7.828Q40.75 -7.828 39.91 -6.297L39.91 0L37.31 0L37.31 -6.172Q37.31 -7.141 37.12 -7.484Q36.94 -7.828 36.42 -7.828Q35.3 -7.828 34.45 -6.297L34.45 0L31.84 0ZM46.55 0M47.62 -0.3125L47.62 -2.219Q49.66 -1.406 51.03 -1.406Q52.97 -1.406 52.97 -2.469Q52.97 -3.109 51.44 -3.734L50.56 -4.078Q48.75 -4.812 48.2 -5.344Q47.67 -5.875 47.67 -6.953Q47.67 -9.875 51.73 -9.875Q53.12 -9.875 54.89 -9.531L54.89 -7.75Q52.95 -8.25 52.06 -8.25Q50.23 -8.25 50.23 -7.266Q50.23 -6.656 51.66 -6.125L52.41 -5.844Q54.34 -5.109 55 -4.484Q55.66 -3.875 55.66 -2.781Q55.66 -1.406 54.44 -0.5938Q53.23 0.2188 51.2 0.2188Q49.41 0.2188 47.62 -0.3125Z" fill="#ffffff" transform="translate(481.7,528.8)"/><path d="M0.125 0L3.688 -9.391L5.016 -9.391L8.516 0L7.078 0L6.109 -2.609L2.344 -2.609L1.359 0L0.125 0M2.719 -3.594L5.734 -3.594L4.234 -7.625L2.719 -3.594ZM8.672 0M11.23 0L8.797 -6.891L10.06 -6.891L11.97 -1.531L13.98 -6.891L15.09 -6.891L12.48 0L11.23 0ZM15.17 0M20.36 -4.188Q20.36 -6.109 18.81 -6.109Q17.2 -6.109 17.05 -4.188L20.36 -4.188M21.61 -1.219L21.61 -0.2188Q20.37 0.1562 19.2 0.1562Q17.61 0.1562 16.66 -0.8438Q15.72 -1.844 15.72 -3.531Q15.72 -5.141 16.56 -6.094Q17.41 -7.047 18.83 -7.047Q21.64 -7.047 21.64 -3.641L21.64 -3.25L17.03 -3.25Q17.2 -0.7969 19.5 -0.7969Q20.48 -0.7969 21.61 -1.219ZM22.41 0M23.39 0L23.39 -6.891L24.64 -6.891L24.64 -5.594Q25.2 -7.047 26.28 -7.047Q26.44 -7.047 26.64 -7.016L26.64 -5.844Q26.33 -5.953 26.13 -5.953Q25.39 -5.953 24.64 -4.547L24.64 0L23.39 0ZM26.73 0M31.64 -0.875Q30.52 0.1562 29.38 0.1562Q28.47 0.1562 27.91 -0.375Q27.34 -0.8906 27.34 -1.734Q27.34 -4.078 31.17 -4.078L31.47 -4.078L31.47 -4.906Q31.47 -6.109 30.16 -6.109Q29.08 -6.109 27.94 -5.5L27.94 -6.531Q29.2 -7.047 30.36 -7.047Q31.59 -7.047 32.16 -6.531Q32.72 -6.031 32.72 -4.906L32.72 -1.781Q32.72 -0.7188 33.38 -0.7188Q33.45 -0.7188 33.61 -0.7344L33.7 -0.04688Q33.27 0.1562 32.77 0.1562Q31.89 0.1562 31.64 -0.875M31.47 -1.562L31.47 -3.344L31.05 -3.359Q28.63 -3.359 28.63 -1.953Q28.63 -0.8594 29.8 -0.8594Q30.61 -0.8594 31.47 -1.562ZM33.97 0M39.02 -2.75L39.02 -5.953Q38.14 -6.109 37.72 -6.109Q35.91 -6.109 35.91 -3.641Q35.91 -2.547 36.27 -1.891Q36.62 -1.25 37.22 -1.25Q38.05 -1.25 39.02 -2.75M39.02 -1.609Q38.27 -0.1562 36.95 -0.1562Q35.89 -0.1562 35.22 -1.078Q34.56 -2 34.56 -3.484Q34.56 -5.188 35.41 -6.109Q36.25 -7.047 37.8 -7.047Q38.41 -7.047 39.02 -6.891L40.27 -6.891L40.27 -1.875Q40.27 -0.25 40.09 0.5156Q39.92 1.297 39.47 1.797Q38.64 2.672 36.92 2.672Q35.72 2.672 34.61 2.297L34.61 1.203Q35.94 1.719 36.91 1.719Q39.02 1.719 39.02 -0.5156L39.02 -1.609ZM41.2 0M46.39 -4.188Q46.39 -6.109 44.84 -6.109Q43.23 -6.109 43.08 -4.188L46.39 -4.188M47.64 -1.219L47.64 -0.2188Q46.41 0.1562 45.23 0.1562Q43.64 0.1562 42.69 -0.8438Q41.75 -1.844 41.75 -3.531Q41.75 -5.141 42.59 -6.094Q43.44 -7.047 44.86 -7.047Q47.67 -7.047 47.67 -3.641L47.67 -3.25L43.06 -3.25Q43.23 -0.7969 45.53 -0.7969Q46.52 -0.7969 47.64 -1.219ZM52.05 0M54.28 -2.141Q54.28 -1.766 54.34 -1.516Q54.41 -1.25 54.55 -1.094Q54.69 -0.9375 54.89 -0.8594Q55.09 -0.7812 55.36 -0.7812L55.36 0.125Q55.23 0.1562 54.98 0.1562Q54.58 0.1562 54.2 0.01562Q53.83 -0.125 53.56 -0.375Q53.3 -0.6406 53.17 -1.031Q53.03 -1.422 53.03 -1.906L53.03 -10.02L54.28 -10.02L54.28 -2.141ZM55.53 0M60.44 -0.875Q59.31 0.1562 58.17 0.1562Q57.27 0.1562 56.7 -0.375Q56.14 -0.8906 56.14 -1.734Q56.14 -4.078 59.97 -4.078L60.27 -4.078L60.27 -4.906Q60.27 -6.109 58.95 -6.109Q57.88 -6.109 56.73 -5.5L56.73 -6.531Q58 -7.047 59.16 -7.047Q60.39 -7.047 60.95 -6.531Q61.52 -6.031 61.52 -4.906L61.52 -1.781Q61.52 -0.7188 62.17 -0.7188Q62.25 -0.7188 62.41 -0.7344L62.5 -0.04688Q62.06 0.1562 61.56 0.1562Q60.69 0.1562 60.44 -0.875M60.27 -1.562L60.27 -3.344L59.84 -3.359Q57.42 -3.359 57.42 -1.953Q57.42 -0.8594 58.59 -0.8594Q59.41 -0.8594 60.27 -1.562ZM62.77 0M66.12 0.03125Q65.77 0.1562 65.44 0.1562Q63.73 0.1562 63.73 -1.906L63.73 -5.953L62.92 -5.953L62.92 -6.891L63.73 -6.891L63.73 -8.328L64.98 -8.453L64.98 -6.891L66.5 -6.891L66.5 -5.953L64.98 -5.953L64.98 -2.141Q64.98 -1.312 65.12 -1.047Q65.27 -0.7812 65.7 -0.7812Q65.95 -0.7812 66.12 -0.8438L66.12 0.03125ZM66.44 0M71.63 -4.188Q71.63 -6.109 70.08 -6.109Q68.47 -6.109 68.31 -4.188L71.63 -4.188M72.88 -1.219L72.88 -0.2188Q71.64 0.1562 70.47 0.1562Q68.88 0.1562 67.92 -0.8438Q66.98 -1.844 66.98 -3.531Q66.98 -5.141 67.83 -6.094Q68.67 -7.047 70.09 -7.047Q72.91 -7.047 72.91 -3.641L72.91 -3.25L68.3 -3.25Q68.47 -0.7969 70.77 -0.7969Q71.75 -0.7969 72.88 -1.219ZM73.67 0M74.66 0L74.66 -6.891L75.91 -6.891L75.91 -5.594Q76.89 -7.047 78.23 -7.047Q80 -7.047 80 -4.953L80 0L78.75 0L78.75 -4.547Q78.75 -5.375 78.56 -5.672Q78.39 -5.969 77.91 -5.969Q76.86 -5.969 75.91 -4.469L75.91 0L74.66 0ZM80.91 0M86.78 -0.2031Q85.69 0.1562 84.58 0.1562Q83.19 0.1562 82.33 -0.8438Q81.45 -1.844 81.45 -3.438Q81.45 -5.141 82.33 -6.094Q83.22 -7.047 84.8 -7.047Q85.64 -7.047 86.7 -6.812L86.7 -5.781Q85.69 -6.094 85.06 -6.094Q82.83 -6.094 82.83 -3.438Q82.83 -2.203 83.41 -1.531Q83.98 -0.8438 85 -0.8438Q85.78 -0.8438 86.78 -1.281L86.78 -0.2031ZM87.41 0M89.97 0L87.53 -6.891L88.8 -6.891L90.67 -1.609L92.72 -6.891L93.83 -6.891L90.19 2.5L88.89 2.5L89.97 0Z" fill="#71717a" transform="translate(481.7,545.7)"/><rect x="789.3" y="494.8" width="346.7" height="71.2" fill="rgba(255,255,255,0.06)" rx="12" ry="12"/><rect x="789.8" y="495.3" width="345.7" height="70.2" fill="none" stroke="rgba(255,255,255,0.08)" stroke-width="1" rx="12" ry="12"/><image href="https://cdn.jsdelivr.net/gh/twitter/twemoji@latest/assets/svg/1f512.svg" x="814.3" y="518.4" width="20" height="20"/><path d="M0.8906 -0.1094L0.8906 -2.328Q3.391 -1.453 5.5 -1.453Q8.484 -1.453 8.484 -3.188Q8.484 -4.312 7.344 -4.797L6.141 -5.25L4.719 -5.797Q2.422 -6.672 1.641 -7.469Q0.875 -8.25 0.875 -9.719Q0.875 -13.33 6.172 -13.33Q8.406 -13.33 10.42 -12.89L10.42 -10.83Q8.328 -11.55 6.375 -11.55Q4.781 -11.55 4.172 -11.22Q3.547 -10.88 3.547 -10.02Q3.547 -9.469 3.844 -9.172Q4.156 -8.859 5 -8.547L6 -8.156L7.5 -7.609Q9.672 -6.797 10.5 -5.938Q11.33 -5.078 11.33 -3.609Q11.33 -1.578 9.812 -0.6094Q8.297 0.3281 5.031 0.3281Q3.812 0.3281 2.281 0.09375L0.8906 -0.1094ZM12 0M18.91 0.3281Q16.03 0.3281 14.36 -1.5Q12.7 -3.344 12.7 -6.5Q12.7 -9.719 14.38 -11.52Q16.05 -13.33 19 -13.33Q21.95 -13.33 23.62 -11.52Q25.3 -9.719 25.3 -6.531Q25.3 -3.281 23.62 -1.484Q21.94 0.3281 18.91 0.3281M18.95 -1.469Q20.62 -1.469 21.52 -2.781Q22.42 -4.094 22.42 -6.547Q22.42 -8.906 21.52 -10.22Q20.62 -11.55 19 -11.55Q17.38 -11.55 16.47 -10.22Q15.58 -8.906 15.58 -6.5Q15.58 -4.141 16.47 -2.797Q17.38 -1.469 18.95 -1.469ZM26 0M38.36 -2.516L38.36 -0.5156Q36.47 0.3281 33.66 0.3281Q30.31 0.3281 28.5 -1.438Q26.7 -3.219 26.7 -6.5Q26.7 -9.859 28.52 -11.59Q30.34 -13.33 33.84 -13.33Q36.12 -13.33 38.25 -12.83L38.25 -10.72Q35.84 -11.55 34.09 -11.55Q29.58 -11.55 29.58 -6.547Q29.58 -1.547 34.34 -1.547Q36.41 -1.547 38.36 -2.516ZM44 0M44.67 0L44.67 -2.062Q45.39 -3.312 46.42 -4.375L47.33 -5.297L48.36 -6.359Q49.45 -7.469 49.78 -8.078Q50.11 -8.688 50.11 -9.625Q50.11 -11.66 48.17 -11.66Q46.92 -11.66 45.02 -10.69L45.02 -12.59Q47 -13.33 48.61 -13.33Q50.59 -13.33 51.73 -12.34Q52.88 -11.38 52.88 -9.656Q52.88 -8.531 52.33 -7.625Q51.78 -6.734 50.36 -5.516L49.48 -4.781Q47.8 -3.344 47.62 -2.062L52.83 -2.062L52.83 0L44.67 0Z" fill="#ffffff" transform="translate(844.3,528.8)"/><path d="M8.578 -0.4844Q7.188 0.2344 5.484 0.2344Q3.156 0.2344 1.938 -1.016Q0.7344 -2.281 0.7344 -4.688Q0.7344 -7.094 1.969 -8.359Q3.203 -9.625 5.531 -9.625Q6.875 -9.625 8.562 -9.219L8.562 -7.969Q6.625 -8.641 5.484 -8.641Q3.859 -8.641 3.016 -7.625Q2.172 -6.609 2.172 -4.672Q2.172 -2.828 3.078 -1.812Q3.984 -0.8125 5.641 -0.8125Q7.047 -0.8125 8.578 -1.625L8.578 -0.4844ZM9.391 0M14.58 -4.188Q14.58 -6.109 13.03 -6.109Q11.42 -6.109 11.27 -4.188L14.58 -4.188M15.83 -1.219L15.83 -0.2188Q14.59 0.1562 13.42 0.1562Q11.83 0.1562 10.87 -0.8438Q9.938 -1.844 9.938 -3.531Q9.938 -5.141 10.78 -6.094Q11.62 -7.047 13.05 -7.047Q15.86 -7.047 15.86 -3.641L15.86 -3.25L11.25 -3.25Q11.42 -0.7969 13.72 -0.7969Q14.7 -0.7969 15.83 -1.219ZM16.62 0M17.61 0L17.61 -6.891L18.86 -6.891L18.86 -5.594Q19.42 -7.047 20.5 -7.047Q20.66 -7.047 20.86 -7.016L20.86 -5.844Q20.55 -5.953 20.34 -5.953Q19.61 -5.953 18.86 -4.547L18.86 0L17.61 0ZM20.95 0M24.31 0.03125Q23.95 0.1562 23.63 0.1562Q21.92 0.1562 21.92 -1.906L21.92 -5.953L21.11 -5.953L21.11 -6.891L21.92 -6.891L21.92 -8.328L23.17 -8.453L23.17 -6.891L24.69 -6.891L24.69 -5.953L23.17 -5.953L23.17 -2.141Q23.17 -1.312 23.31 -1.047Q23.45 -0.7812 23.89 -0.7812Q24.14 -0.7812 24.31 -0.8438L24.31 0.03125ZM24.62 0M25.61 0L25.61 -6.891L26.86 -6.891L26.86 0L25.61 0M25.55 -8.141L25.55 -9.516L26.92 -9.516L26.92 -8.141L25.55 -8.141ZM27.83 0M28.94 0L28.94 -5.953L28.03 -5.953L28.03 -6.891L28.94 -6.891L28.94 -7.719Q28.94 -10.19 30.91 -10.19Q31.31 -10.19 31.83 -10.02L31.83 -9.016Q31.36 -9.25 31.03 -9.25Q30.56 -9.25 30.38 -8.938Q30.2 -8.625 30.2 -7.859L30.2 -6.891L31.63 -6.891L31.63 -5.953L30.2 -5.953L30.2 0L28.94 0ZM31.44 0M32.42 0L32.42 -6.891L33.67 -6.891L33.67 0L32.42 0M32.36 -8.141L32.36 -9.516L33.73 -9.516L33.73 -8.141L32.36 -8.141ZM34.64 0M39.83 -4.188Q39.83 -6.109 38.28 -6.109Q36.67 -6.109 36.52 -4.188L39.83 -4.188M41.08 -1.219L41.08 -0.2188Q39.84 0.1562 38.67 0.1562Q37.08 0.1562 36.12 -0.8438Q35.19 -1.844 35.19 -3.531Q35.19 -5.141 36.03 -6.094Q36.87 -7.047 38.3 -7.047Q41.11 -7.047 41.11 -3.641L41.11 -3.25L36.5 -3.25Q36.67 -0.7969 38.97 -0.7969Q39.95 -0.7969 41.08 -1.219ZM41.88 0M46.88 -2.422L46.88 -5.953Q46 -6.109 45.58 -6.109Q43.77 -6.109 43.77 -3.359Q43.77 -2.234 44.12 -1.594Q44.48 -0.9375 45.09 -0.9375Q45.91 -0.9375 46.88 -2.422M46.88 -1.281Q46.12 0.1562 44.81 0.1562Q43.73 0.1562 43.08 -0.7812Q42.42 -1.719 42.42 -3.25Q42.42 -5.062 43.27 -6.062Q44.11 -7.047 45.67 -7.047Q46.28 -7.047 46.88 -6.891L46.88 -10.02L48.12 -10.02L48.12 0L46.88 0L46.88 -1.281Z" fill="#71717a" transform="translate(844.3,545.7)"/></svg>