<svg xmlns="http://www.w3.org/2000/svg" width="1200" height="630" viewBox="0 0 1200 630"><defs><linearGradient id="lg1" x1="11.875%" y1="-22.619%" x2="88.125%" y2="122.619%" color-interpolation="linearRGB"><stop offset="0%" stop-color="rgba(24,24,27,1)"/><stop offset="100%" stop-color="rgba(39,39,42,1)"/></linearGradient></defs><rect x="0" y="0" width="1200" height="630" fill="url(#lg1)"/><path d="M2.797 -0.3594L2.797 -7.25Q10.56 -4.547 17.09 -4.547Q26.39 -4.547 26.39 -9.922Q26.39 -13.42 22.86 -14.94L19.11 -16.36L14.66 -18.05Q7.516 -20.75 5.109 -23.22Q2.703 -25.67 2.703 -30.22Q2.703 -41.48 19.22 -41.48Q26.17 -41.48 32.44 -40.09L32.44 -33.69Q25.92 -35.94 19.83 -35.94Q14.88 -35.94 12.97 -34.89Q11.05 -33.86 11.05 -31.17Q11.05 -29.48 11.98 -28.52Q12.91 -27.56 15.56 -26.58L18.67 -25.38L23.33 -23.66Q30.08 -21.14 32.66 -18.45Q35.25 -15.78 35.25 -11.23Q35.25 -4.891 30.52 -1.922Q25.81 1.047 15.67 1.047Q11.88 1.047 7.109 0.2969L2.797 -0.3594ZM37.36 0M41.41 0L41.41 -43.17L49.5 -43.17L49.5 -25.05Q54.13 -30.7 59.7 -30.7Q67.88 -30.7 67.88 -21.22L67.88 0L59.78 0L59.78 -19.22Q59.78 -22.16 59.08 -23.25Q58.39 -24.34 56.53 -24.34Q53.25 -24.34 49.5 -19.58L49.5 0L41.41 0ZM71.56 0M75.61 0L75.61 -30.03L83.7 -30.03L83.7 0L75.61 0M75.34 -35.5L75.34 -43.17L83.98 -43.17L83.98 -35.5L75.34 -35.5ZM87.75 0M99.89 10.8L91.8 10.8L91.8 -30.03L99.89 -30.03L99.89 -25.05Q104.2 -30.7 109.3 -30.7Q114 -30.7 116.9 -26.61Q119.8 -22.53 119.8 -15.83Q119.8 -8.062 116 -3.688Q112.3 0.6875 105.7 0.6875Q103.5 0.6875 99.89 0L99.89 10.8M99.89 -4.812Q103 -4.297 104.5 -4.297Q111.2 -4.297 111.2 -14.72Q111.2 -24.36 106.3 -24.36Q103 -24.36 99.89 -19.58L99.89 -4.812ZM137.5 0M142.1 0L142.1 -24.97L138.9 -24.97L138.9 -30.03L142.1 -30.03L142.1 -32.19Q142.1 -43.86 152.7 -43.86Q155 -43.86 157.6 -43.16L157.6 -37.91Q155.4 -38.8 153.6 -38.8Q150.2 -38.8 150.2 -32.48L150.2 -30.03L155.2 -30.03L155.2 -24.97L150.2 -24.97L150.2 0L142.1 0ZM156.2 0M185.6 -4.625L185.8 -0.07812Q183.2 0.6875 181.3 0.6875Q176.3 0.6875 174.8 -3.234L174.5 -3.234Q171.6 0.6875 167 0.6875Q163 0.6875 160.5 -1.719Q158.1 -4.156 158.1 -8.094Q158.1 -18.33 172.3 -18.33L174.5 -18.33L174.5 -21.06Q174.5 -25.73 169.8 -25.73Q165.5 -25.73 160.7 -23.05L160.7 -28.62Q165.7 -30.7 171.1 -30.7Q182.3 -30.7 182.3 -21.33L182.3 -8.047Q182.3 -4.516 184.5 -4.516Q184.9 -4.516 185.6 -4.625M174.5 -7.578L174.5 -13.67L172.6 -13.67Q165.8 -13.67 165.8 -8.812Q165.8 -7.078 167 -5.938Q168.1 -4.812 169.8 -4.812Q172.6 -4.812 174.5 -7.578ZM187.3 0M190.7 -0.9844L190.7 -6.891Q197 -4.375 201.3 -4.375Q207.3 -4.375 207.3 -7.656Q207.3 -9.656 202.5 -11.59L199.8 -12.69Q194.2 -14.95 192.5 -16.62Q190.8 -18.3 190.8 -21.62Q190.8 -30.7 203.5 -30.7Q207.8 -30.7 213.3 -29.64L213.3 -24.09Q207.3 -25.66 204.5 -25.66Q198.8 -25.66 198.8 -22.59Q198.8 -20.73 203.2 -19.06L205.5 -18.16Q211.6 -15.89 213.6 -13.95Q215.6 -12.03 215.6 -8.641Q215.6 -4.375 211.9 -1.828Q208.1 0.6875 201.8 0.6875Q196.2 0.6875 190.7 -0.9844ZM218.5 0M236.6 -5.094L236.6 -0.03125Q233.5 0.6875 231.4 0.6875Q222.9 0.6875 222.9 -9.156L222.9 -24.97L219.6 -24.97L219.6 -30.03L222.9 -30.03L222.9 -35.91L231 -36.83L231 -30.03L236.7 -30.03L236.7 -24.97L231 -24.97L231 -10.23Q231 -6.844 231.5 -5.766Q232.1 -4.734 233.9 -4.734Q235 -4.734 236.6 -5.094ZM237.1 0M265.3 -6.703L265.3 -1.016Q260.3 0.6875 255.3 0.6875Q247.7 0.6875 243.4 -3.609Q239.1 -7.938 239.1 -15.42Q239.1 -22.38 242.9 -26.53Q246.7 -30.7 252.9 -30.7Q259.3 -30.7 262.3 -26.55Q265.3 -22.42 265.3 -13.41L247.7 -13.41Q248.5 -4.812 256.7 -4.812Q260.5 -4.812 265.3 -6.703M247.6 -17.97L257.3 -17.97Q257.3 -25.66 253 -25.66Q248.4 -25.66 247.6 -17.97ZM268.2 0M273 0L273 -30.03L281.1 -30.03L281.1 -25.05Q283.3 -30.7 287.8 -30.7Q288.4 -30.7 289.2 -30.55L289.2 -23.33Q287.6 -23.95 286.6 -23.95Q283.3 -23.95 281.1 -19.75L281.1 0L273 0Z" fill="#ffffff" transform="translate(64,116.9)"/><image href="https://cdn.jsdelivr.net/gh/twitter/twemoji@latest/assets/svg/1f680.svg" x="369.6" y="64" width="56" height="56"/><path d="M1.766 0L1.766 -15.91L6.859 -15.91Q14.89 -15.91 14.89 -8.328Q14.89 -4.359 12.8 -2.188Q10.7 0 6.891 0L1.766 0M4.031 -1.688L6.734 -1.688Q9.641 -1.688 11.05 -3.266Q12.47 -4.859 12.47 -8.109Q12.47 -10.92 11.12 -12.52Q10.3 -13.5 9.141 -13.84Q8 -14.22 5.688 -14.22L4.031 -14.22L4.031 -1.688ZM15.89 0M24.67 -7.094Q24.67 -10.34 22.05 -10.34Q19.33 -10.34 19.08 -7.094L24.67 -7.094M26.77 -2.047L26.77 -0.375Q24.69 0.2656 22.72 0.2656Q20.03 0.2656 18.42 -1.422Q16.81 -3.125 16.81 -5.969Q16.81 -8.703 18.23 -10.31Q19.66 -11.92 22.08 -11.92Q26.84 -11.92 26.84 -6.156L26.83 -5.5L19.03 -5.5Q19.34 -1.344 23.22 -1.344Q24.89 -1.344 26.77 -2.047ZM28.12 0M31.89 4.25L29.78 4.25L29.78 -11.67L31.89 -11.67L31.89 -9.469Q33.16 -11.92 35.38 -11.92Q37.2 -11.92 38.31 -10.34Q39.42 -8.766 39.42 -6.172Q39.42 -3.078 37.98 -1.406Q36.56 0.2656 33.92 0.2656Q32.91 0.2656 31.89 0L31.89 4.25M31.89 -7.547L31.89 -1.594Q33.36 -1.328 34.09 -1.328Q37.14 -1.328 37.14 -5.969Q37.14 -7.875 36.53 -8.969Q35.95 -10.08 34.92 -10.08Q33.53 -10.08 31.89 -7.547ZM40.36 0M44.13 -3.609Q44.13 -3 44.23 -2.562Q44.34 -2.125 44.58 -1.844Q44.83 -1.578 45.17 -1.453Q45.53 -1.328 45.98 -1.328L45.98 0.2031Q45.73 0.2656 45.33 0.2656Q44.64 0.2656 44 0.03125Q43.38 -0.2031 42.92 -0.6406Q42.48 -1.094 42.25 -1.734Q42.02 -2.391 42.02 -3.219L42.02 -16.97L44.13 -16.97L44.13 -3.609ZM46.25 0M52.28 0.2656Q49.94 0.2656 48.55 -1.391Q47.17 -3.047 47.17 -5.828Q47.17 -8.656 48.56 -10.3Q49.95 -11.92 52.36 -11.92Q54.77 -11.92 56.16 -10.3Q57.55 -8.672 57.55 -5.859Q57.55 -2.969 56.16 -1.359Q54.77 0.2656 52.28 0.2656M52.31 -1.328Q55.27 -1.328 55.27 -5.891Q55.27 -10.33 52.36 -10.33Q49.47 -10.33 49.47 -5.828Q49.47 -1.328 52.31 -1.328ZM58.48 0M62.83 0L58.69 -11.67L60.84 -11.67L64 -2.719L67.48 -11.67L69.36 -11.67L63.19 4.25L60.98 4.25L62.83 0ZM75.59 0M78.53 0L75.72 -11.67L77.78 -11.67L79.89 -2.875L82.58 -11.67L84.69 -11.67L87.06 -2.844L89.5 -11.67L91.32 -11.67L88.06 0L85.92 0L83.45 -9.031L80.67 0L78.53 0ZM91.48 0M93.14 0L93.14 -11.67L95.25 -11.67L95.25 0L93.14 0M93.03 -13.78L93.03 -16.11L95.36 -16.11L95.36 -13.78L93.03 -13.78ZM96.91 0M102.6 0.0625Q102 0.2656 101.4 0.2656Q98.55 0.2656 98.55 -3.219L98.55 -10.08L97.17 -10.08L97.17 -11.67L98.55 -11.67L98.55 -14.11L100.7 -14.31L100.7 -11.67L103.2 -11.67L103.2 -10.08L100.7 -10.08L100.7 -3.609Q100.7 -2.219 100.9 -1.766Q101.1 -1.328 101.9 -1.328Q102.3 -1.328 102.6 -1.438L102.6 0.0625ZM103.1 0M104.8 0L104.8 -16.97L106.9 -16.97L106.9 -9.469Q108.6 -11.92 110.8 -11.92Q113.8 -11.92 113.8 -8.375L113.8 0L111.7 0L111.7 -7.688Q111.7 -9.094 111.4 -9.609Q111.1 -10.11 110.3 -10.11Q108.5 -10.11 106.9 -7.547L106.9 0L104.8 0ZM121.5 0M131.4 -0.3594Q129.6 0.2656 127.7 0.2656Q125.3 0.2656 123.9 -1.422Q122.4 -3.109 122.4 -5.812Q122.4 -8.688 123.9 -10.3Q125.4 -11.92 128 -11.92Q129.5 -11.92 131.3 -11.53L131.3 -9.781Q129.6 -10.3 128.5 -10.3Q124.7 -10.3 124.7 -5.812Q124.7 -3.734 125.7 -2.578Q126.7 -1.438 128.4 -1.438Q129.7 -1.438 131.4 -2.188L131.4 -0.3594ZM132.5 0M138.5 0.2656Q136.2 0.2656 134.8 -1.391Q133.4 -3.047 133.4 -5.828Q133.4 -8.656 134.8 -10.3Q136.2 -11.92 138.6 -11.92Q141 -11.92 142.4 -10.3Q143.8 -8.672 143.8 -5.859Q143.8 -2.969 142.4 -1.359Q141 0.2656 138.5 0.2656M138.5 -1.328Q141.5 -1.328 141.5 -5.891Q141.5 -10.33 138.6 -10.33Q135.7 -10.33 135.7 -5.828Q135.7 -1.328 138.5 -1.328ZM144.7 0M146.4 0L146.4 -11.67L148.5 -11.67L148.5 -9.469Q150.2 -11.92 152.4 -11.92Q155.4 -11.92 155.4 -8.375L155.4 0L153.3 0L153.3 -7.688Q153.3 -9.094 153 -9.609Q152.7 -10.11 151.9 -10.11Q150.1 -10.11 148.5 -7.547L148.5 0L146.4 0ZM156.9 0M158.8 0L158.8 -10.08L157.3 -10.08L157.3 -11.67L158.8 -11.67L158.8 -13.06Q158.8 -17.23 162.2 -17.23Q162.8 -17.23 163.7 -16.95L163.7 -15.27Q162.9 -15.64 162.4 -15.64Q161.6 -15.64 161.2 -15.11Q160.9 -14.59 160.9 -13.28L160.9 -11.67L163.4 -11.67L163.4 -10.08L160.9 -10.08L160.9 0L158.8 0ZM163 0M164.7 0L164.7 -11.67L166.8 -11.67L166.8 0L164.7 0M164.6 -13.78L164.6 -16.11L166.9 -16.11L166.9 -13.78L164.6 -13.78ZM168.5 0M176.9 -4.109L176.9 -10.06Q175.5 -10.33 174.7 -10.33Q171.7 -10.33 171.7 -5.688Q171.7 -3.797 172.3 -2.688Q172.9 -1.594 173.9 -1.594Q175.3 -1.594 176.9 -4.109M176.9 -2.188Q175.7 0.2656 173.4 0.2656Q171.6 0.2656 170.5 -1.312Q169.4 -2.906 169.4 -5.5Q169.4 -8.578 170.8 -10.25Q172.3 -11.92 174.9 -11.92Q175.9 -11.92 176.9 -11.67L176.9 -16.97L179 -16.97L179 0L176.9 0L176.9 -2.188ZM180.7 0M189.5 -7.094Q189.5 -10.34 186.9 -10.34Q184.1 -10.34 183.9 -7.094L189.5 -7.094M191.6 -2.047L191.6 -0.375Q189.5 0.2656 187.5 0.2656Q184.8 0.2656 183.2 -1.422Q181.6 -3.125 181.6 -5.969Q181.6 -8.703 183 -10.31Q184.5 -11.92 186.9 -11.92Q191.7 -11.92 191.7 -6.156L191.6 -5.5L183.8 -5.5Q184.2 -1.344 188 -1.344Q189.7 -1.344 191.6 -2.047ZM192.9 0M194.6 0L194.6 -11.67L196.7 -11.67L196.7 -9.469Q198.4 -11.92 200.7 -11.92Q203.6 -11.92 203.6 -8.375L203.6 0L201.5 0L201.5 -7.688Q201.5 -9.094 201.2 -9.609Q200.9 -10.11 200.1 -10.11Q198.3 -10.11 196.7 -7.547L196.7 0L194.6 0ZM205.2 0M215.1 -0.3594Q213.3 0.2656 211.4 0.2656Q209 0.2656 207.6 -1.422Q206.1 -3.109 206.1 -5.812Q206.1 -8.688 207.6 -10.3Q209.1 -11.92 211.7 -11.92Q213.2 -11.92 215 -11.53L215 -9.781Q213.3 -10.3 212.2 -10.3Q208.4 -10.3 208.4 -5.812Q208.4 -3.734 209.4 -2.578Q210.4 -1.438 212.1 -1.438Q213.4 -1.438 215.1 -2.188L215.1 -0.3594ZM216.2 0M225 -7.094Q225 -10.34 222.3 -10.34Q219.6 -10.34 219.4 -7.094L225 -7.094M227.1 -2.047L227.1 -0.375Q225 0.2656 223 0.2656Q220.3 0.2656 218.7 -1.422Q217.1 -3.125 217.1 -5.969Q217.1 -8.703 218.5 -10.31Q219.9 -11.92 222.4 -11.92Q227.1 -11.92 227.1 -6.156L227.1 -5.5L219.3 -5.5Q219.6 -1.344 223.5 -1.344Q225.2 -1.344 227.1 -2.047Z" fill="#a1a1aa" transform="translate(64,168)"/><image href="https://cdn.jsdelivr.net/gh/twitter/twemoji@latest/assets/svg/2728.svg" x="298.5" y="147.2" width="22" height="22"/><path d="M6.109 0M7.968 0L7.968 -15.91L12.34 -15.91L15.48 -4.719L18.75 -15.91L22.59 -15.91L22.59 0L19.53 0L19.53 -12L16.34 -1.062L13.69 -1.062L10.56 -12.16L10.56 0L7.968 0ZM24.44 0M30.47 0.2656Q28.13 0.2656 26.73 -1.391Q25.36 -3.047 25.36 -5.828Q25.36 -8.656 26.75 -10.3Q28.14 -11.92 30.55 -11.92Q32.95 -11.92 34.34 -10.3Q35.74 -8.672 35.74 -5.859Q35.74 -2.969 34.34 -1.359Q32.95 0.2656 30.47 0.2656M30.5 -1.328Q33.45 -1.328 33.45 -5.891Q33.45 -10.33 30.55 -10.33Q27.66 -10.33 27.66 -5.828Q27.66 -1.328 30.5 -1.328ZM36.67 0M38.33 0L38.33 -11.67L40.44 -11.67L40.44 -9.469Q42.12 -11.92 44.39 -11.92Q47.37 -11.92 47.37 -8.375L47.37 0L45.25 0L45.25 -7.688Q45.25 -9.094 44.95 -9.609Q44.67 -10.11 43.84 -10.11Q42.05 -10.11 40.44 -7.547L40.44 0L38.33 0ZM48.91 0M50.56 0L50.56 -11.67L52.67 -11.67L52.67 0L50.56 0M50.45 -13.78L50.45 -16.11L52.78 -16.11L52.78 -13.78L50.45 -13.78ZM54.33 0M60.02 0.0625Q59.41 0.2656 58.84 0.2656Q55.97 0.2656 55.97 -3.219L55.97 -10.08L54.59 -10.08L54.59 -11.67L55.97 -11.67L55.97 -14.11L58.08 -14.31L58.08 -11.67L60.66 -11.67L60.66 -10.08L58.08 -10.08L58.08 -3.609Q58.08 -2.219 58.31 -1.766Q58.55 -1.328 59.3 -1.328Q59.73 -1.328 60.02 -1.438L60.02 0.0625ZM60.55 0M66.58 0.2656Q64.23 0.2656 62.84 -1.391Q61.47 -3.047 61.47 -5.828Q61.47 -8.656 62.86 -10.3Q64.25 -11.92 66.66 -11.92Q69.06 -11.92 70.45 -10.3Q71.85 -8.672 71.85 -5.859Q71.85 -2.969 70.45 -1.359Q69.06 0.2656 66.58 0.2656M66.61 -1.328Q69.56 -1.328 69.56 -5.891Q69.56 -10.33 66.66 -10.33Q63.77 -10.33 63.77 -5.828Q63.77 -1.328 66.61 -1.328ZM72.78 0M74.44 0L74.44 -11.67L76.55 -11.67L76.55 -9.469Q77.52 -11.92 79.34 -11.92Q79.59 -11.92 79.95 -11.88L79.95 -9.891Q79.41 -10.08 79.06 -10.08Q77.84 -10.08 76.55 -7.688L76.55 0L74.44 0ZM86.22 0M87.87 0L87.87 -11.67L89.98 -11.67L89.98 0L87.87 0M87.77 -13.78L87.77 -16.11L90.09 -16.11L90.09 -13.78L87.77 -13.78ZM91.64 0M93.3 0L93.3 -11.67L95.41 -11.67L95.41 -9.469Q97.09 -11.92 99.36 -11.92Q102.3 -11.92 102.3 -8.375L102.3 0L100.2 0L100.2 -7.688Q100.2 -9.094 99.92 -9.609Q99.64 -10.11 98.81 -10.11Q97.02 -10.11 95.41 -7.547L95.41 0L93.3 0ZM110 0M111.6 0L111.6 -11.67L113.8 -11.67L113.8 -9.469Q114.7 -11.92 116.5 -11.92Q116.8 -11.92 117.2 -11.88L117.2 -9.891Q116.6 -10.08 116.3 -10.08Q115 -10.08 113.8 -7.688L113.8 0L111.6 0ZM117.3 0M126.1 -7.094Q126.1 -10.34 123.5 -10.34Q120.8 -10.34 120.5 -7.094L126.1 -7.094M128.2 -2.047L128.2 -0.375Q126.1 0.2656 124.1 0.2656Q121.5 0.2656 119.8 -1.422Q118.2 -3.125 118.2 -5.969Q118.2 -8.703 119.7 -10.31Q121.1 -11.92 123.5 -11.92Q128.3 -11.92 128.3 -6.156L128.3 -5.5L120.5 -5.5Q120.8 -1.344 124.6 -1.344Q126.3 -1.344 128.2 -2.047ZM129.5 0M137.9 -1.484Q136 0.2656 134 0.2656Q132.5 0.2656 131.5 -0.625Q130.6 -1.516 130.6 -2.938Q130.6 -6.891 137.1 -6.891L137.5 -6.891L137.5 -8.297Q137.5 -10.33 135.3 -10.33Q133.5 -10.33 131.6 -9.297L131.6 -11.05Q133.7 -11.92 135.7 -11.92Q137.8 -11.92 138.7 -11.05Q139.7 -10.19 139.7 -8.297L139.7 -3.016Q139.7 -1.203 140.8 -1.203Q140.9 -1.203 141.2 -1.25L141.3 -0.07812Q140.6 0.2656 139.7 0.2656Q138.3 0.2656 137.9 -1.484M137.5 -2.625L137.5 -5.656L136.9 -5.672Q132.8 -5.672 132.8 -3.312Q132.8 -1.469 134.7 -1.469Q136.1 -1.469 137.5 -2.625ZM141.8 0M145.5 -3.609Q145.5 -3 145.7 -2.562Q145.8 -2.125 146 -1.844Q146.3 -1.578 146.6 -1.453Q147 -1.328 147.4 -1.328L147.4 0.2031Q147.2 0.2656 146.8 0.2656Q146.1 0.2656 145.4 0.03125Q144.8 -0.2031 144.3 -0.6406Q143.9 -1.094 143.7 -1.734Q143.4 -2.391 143.4 -3.219L143.4 -16.97L145.5 -16.97L145.5 -3.609ZM147.7 0M148.8 -5.562L148.8 -7.156L159.4 -7.156L159.4 -5.562L148.8 -5.562ZM160.5 0M166.2 0.0625Q165.6 0.2656 165 0.2656Q162.2 0.2656 162.2 -3.219L162.2 -10.08L160.8 -10.08L160.8 -11.67L162.2 -11.67L162.2 -14.11L164.3 -14.31L164.3 -11.67L166.8 -11.67L166.8 -10.08L164.3 -10.08L164.3 -3.609Q164.3 -2.219 164.5 -1.766Q164.7 -1.328 165.5 -1.328Q165.9 -1.328 166.2 -1.438L166.2 0.0625ZM166.7 0M168.4 0L168.4 -11.67L170.5 -11.67L170.5 0L168.4 0M168.3 -13.78L168.3 -16.11L170.6 -16.11L170.6 -13.78L168.3 -13.78ZM172.2 0M173.8 0L173.8 -11.67L175.9 -11.67L175.9 -9.469Q176.9 -10.97 177.6 -11.44Q178.2 -11.92 179.3 -11.92Q181.6 -11.92 182.5 -9.469Q183.4 -10.97 184.1 -11.44Q184.7 -11.92 185.8 -11.92Q189 -11.92 189 -8.484L189 0L186.8 0L186.8 -8.156Q186.8 -10.16 185.2 -10.16Q183.9 -10.16 182.5 -7.828L182.5 0L180.3 0L180.3 -8.156Q180.3 -10.16 178.7 -10.16Q177.3 -10.16 175.9 -7.828L175.9 0L173.8 0ZM190.5 0M199.3 -7.094Q199.3 -10.34 196.6 -10.34Q193.9 -10.34 193.7 -7.094L199.3 -7.094M201.4 -2.047L201.4 -0.375Q199.3 0.2656 197.3 0.2656Q194.6 0.2656 193 -1.422Q191.4 -3.125 191.4 -5.969Q191.4 -8.703 192.8 -10.31Q194.3 -11.92 196.7 -11.92Q201.4 -11.92 201.4 -6.156L201.4 -5.5L193.6 -5.5Q193.9 -1.344 197.8 -1.344Q199.5 -1.344 201.4 -2.047Z" fill="#a1a1aa" transform="translate(320.5,168)"/><image href="https://cdn.jsdelivr.net/gh/twitter/twemoji@latest/assets/svg/1f4ca.svg" x="529.3" y="147.2" width="22" height="22"/><rect x="64" y="491.2" width="189.7" height="74.8" fill="rgba(255,255,255,0.06)" rx="12" ry="12"/><rect x="64.5" y="491.7" width="188.7" height="73.8" fill="none" stroke="rgba(255,255,255,0.08)" stroke-width="1" rx="12" ry="12"/><image href="https://cdn.jsdelivr.net/gh/twitter/twemoji@latest/assets/svg/1f30d.svg" x="89" y="509.4" width="32" height="32"/><path d="M0.2969 -3.859L0.2969 -6.031L6.453 -14.45L9.109 -14.45L9.109 -6.031L10.44 -6.031L10.44 -3.859L9.109 -3.859L9.109 0L6.578 0L6.578 -3.859L0.2969 -3.859M2.625 -6.031L6.625 -6.031L6.625 -11.69L2.625 -6.031ZM11.12 0M12.12 0L12.12 -1.688Q12.78 -3.25 14.38 -4.906L15.42 -5.984L16.38 -6.953Q18.27 -8.891 18.27 -10.73Q18.27 -13.38 15.91 -13.38Q14.52 -13.38 12.48 -12.2L12.48 -13.91Q14.39 -14.81 16.19 -14.81Q18.06 -14.81 19.19 -13.72Q20.31 -12.62 20.31 -10.75Q20.31 -9.484 19.73 -8.5Q19.16 -7.516 17.55 -6.062L16.88 -5.453Q14.84 -3.609 14.45 -1.688L20.23 -1.688L20.23 0L12.12 0ZM27.81 0M29.31 0L29.31 -10.61L31.23 -10.61L31.23 -8.609Q32.12 -10.84 33.78 -10.84Q34 -10.84 34.34 -10.8L34.34 -9Q33.84 -9.156 33.53 -9.156Q32.41 -9.156 31.23 -7L31.23 0L29.31 0ZM34.47 0M42.45 -6.453Q42.45 -9.406 40.06 -9.406Q37.59 -9.406 37.36 -6.453L42.45 -6.453M44.36 -1.859L44.36 -0.3438Q42.47 0.25 40.69 0.25Q38.23 0.25 36.77 -1.297Q35.31 -2.844 35.31 -5.438Q35.31 -7.906 36.59 -9.375Q37.89 -10.84 40.09 -10.84Q44.42 -10.84 44.42 -5.594L44.41 -5L37.33 -5Q37.61 -1.219 41.12 -1.219Q42.66 -1.219 44.36 -1.859ZM45.59 0M53.34 -4.219L53.34 -9.156Q52.02 -9.391 51.36 -9.391Q48.58 -9.391 48.58 -5.609Q48.58 -3.922 49.12 -2.922Q49.67 -1.922 50.61 -1.922Q51.86 -1.922 53.34 -4.219M53.34 -2.469Q52.2 -0.25 50.19 -0.25Q48.55 -0.25 47.52 -1.656Q46.5 -3.094 46.5 -5.375Q46.5 -7.984 47.8 -9.406Q49.11 -10.84 51.48 -10.84Q52.44 -10.84 53.34 -10.61L55.27 -10.61L55.27 -2.891Q55.27 -0.3906 55.02 0.7969Q54.75 2 54.05 2.75Q52.8 4.109 50.14 4.109Q48.28 4.109 46.58 3.531L46.58 1.859Q48.61 2.641 50.11 2.641Q53.34 2.641 53.34 -0.7969L53.34 -2.469ZM56.72 0M58.22 0L58.22 -10.61L60.14 -10.61L60.14 0L58.22 0M58.12 -12.53L58.12 -14.66L60.25 -14.66L60.25 -12.53L58.12 -12.53ZM61.66 0M67.14 0.25Q65 0.25 63.75 -1.266Q62.5 -2.766 62.5 -5.297Q62.5 -7.875 63.75 -9.359Q65.03 -10.84 67.22 -10.84Q69.39 -10.84 70.66 -9.359Q71.94 -7.875 71.94 -5.328Q71.94 -2.703 70.66 -1.234Q69.39 0.25 67.14 0.25M67.17 -1.203Q69.84 -1.203 69.84 -5.359Q69.84 -9.391 67.22 -9.391Q64.58 -9.391 64.58 -5.297Q64.58 -1.203 67.17 -1.203ZM72.78 0M74.28 0L74.28 -10.61L76.2 -10.61L76.2 -8.609Q77.75 -10.84 79.8 -10.84Q82.52 -10.84 82.52 -7.625L82.52 0L80.58 0L80.58 -7Q80.58 -8.266 80.31 -8.734Q80.05 -9.188 79.31 -9.188Q77.67 -9.188 76.2 -6.859L76.2 0L74.28 0ZM83.91 0M85.05 -0.375L85.05 -2.141Q86.94 -1.203 88.61 -1.203Q90.84 -1.203 90.84 -2.812Q90.84 -3.828 89.28 -4.344L87.56 -4.906Q85.09 -5.734 85.09 -7.859Q85.09 -10.84 89.17 -10.84Q90.34 -10.84 91.97 -10.53L91.97 -8.922Q90.55 -9.391 88.97 -9.391Q87 -9.391 87 -8.047Q87 -7.125 88.38 -6.672L89.91 -6.172Q92.78 -5.219 92.78 -2.969Q92.78 -1.469 91.64 -0.6094Q90.52 0.25 88.53 0.25Q86.94 0.25 85.05 -0.375Z" fill="#ffffff" transform="translate(99,527.1)"/><path d="M9.609 -4.703L9.609 -0.2812Q7.797 0.25 5.938 0.25Q0.6406 0.25 0.6406 -5.031Q0.6406 -7.609 2.016 -8.984Q3.391 -10.38 5.938 -10.38Q7.734 -10.38 9.594 -9.906L9.594 -8.594Q7.438 -9.297 5.938 -9.297Q2.172 -9.297 2.172 -5.062Q2.172 -3.016 3.203 -1.922Q4.25 -0.8281 6.188 -0.8281Q6.969 -0.8281 8.172 -1.078L8.172 -3.656L6.484 -3.656L6.484 -4.703L9.609 -4.703ZM10.89 0M13.3 -2.297Q13.3 -1.906 13.36 -1.625Q13.42 -1.359 13.58 -1.172Q13.73 -1 13.95 -0.9219Q14.17 -0.8438 14.47 -0.8438L14.47 0.125Q14.31 0.1719 14.06 0.1719Q13.61 0.1719 13.2 0.01562Q12.81 -0.125 12.53 -0.4062Q12.25 -0.7031 12.09 -1.109Q11.94 -1.531 11.94 -2.047L11.94 -10.8L13.3 -10.8L13.3 -2.297ZM14.64 0M18.48 0.1719Q16.98 0.1719 16.11 -0.875Q15.23 -1.938 15.23 -3.719Q15.23 -5.516 16.11 -6.547Q17 -7.594 18.53 -7.594Q20.06 -7.594 20.94 -6.547Q21.83 -5.516 21.83 -3.719Q21.83 -1.891 20.94 -0.8594Q20.06 0.1719 18.48 0.1719M18.5 -0.8438Q20.37 -0.8438 20.37 -3.75Q20.37 -6.578 18.53 -6.578Q16.69 -6.578 16.69 -3.719Q16.69 -0.8438 18.5 -0.8438ZM22.42 0M24.83 -4.812L24.83 -1.016Q25.75 -0.8438 26.22 -0.8438Q28.16 -0.8438 28.16 -3.797Q28.16 -5.016 27.78 -5.703Q27.41 -6.406 26.75 -6.406Q25.86 -6.406 24.83 -4.812M24.83 -6.031Q25.62 -7.594 27.03 -7.594Q28.2 -7.594 28.91 -6.578Q29.61 -5.578 29.61 -3.922Q29.61 -1.969 28.7 -0.8906Q27.78 0.1719 26.11 0.1719Q25.47 0.1719 24.83 0L23.47 0.07812L23.47 -10.8L24.83 -10.8L24.83 -6.031ZM30.2 0M35.5 -0.9375Q34.28 0.1719 33.05 0.1719Q32.06 0.1719 31.47 -0.3906Q30.86 -0.9688 30.86 -1.875Q30.86 -4.391 34.98 -4.391L35.3 -4.391L35.3 -5.281Q35.3 -6.578 33.88 -6.578Q32.72 -6.578 31.5 -5.922L31.5 -7.031Q32.86 -7.594 34.11 -7.594Q35.44 -7.594 36.05 -7.031Q36.64 -6.484 36.64 -5.281L36.64 -1.922Q36.64 -0.7656 37.36 -0.7656Q37.44 -0.7656 37.61 -0.7969L37.7 -0.04688Q37.25 0.1719 36.69 0.1719Q35.75 0.1719 35.5 -0.9375M35.3 -1.672L35.3 -3.594L34.86 -3.609Q32.25 -3.609 32.25 -2.109Q32.25 -0.9375 33.5 -0.9375Q34.38 -0.9375 35.3 -1.672ZM37.98 0M40.39 -2.297Q40.39 -1.906 40.45 -1.625Q40.52 -1.359 40.67 -1.172Q40.83 -1 41.05 -0.9219Q41.27 -0.8438 41.56 -0.8438L41.56 0.125Q41.41 0.1719 41.16 0.1719Q40.7 0.1719 40.3 0.01562Q39.91 -0.125 39.63 -0.4062Q39.34 -0.7031 39.19 -1.109Q39.03 -1.531 39.03 -2.047L39.03 -10.8L40.39 -10.8L40.39 -2.297ZM45.62 0M52.67 -1.672L52.67 -0.25Q51.42 0.1719 50.17 0.1719Q48.28 0.1719 47.2 -0.9062Q46.12 -1.984 46.12 -3.859Q46.12 -5.594 47.06 -6.625Q48.02 -7.672 49.56 -7.672Q51.19 -7.672 51.92 -6.641Q52.67 -5.609 52.67 -3.344L48.27 -3.344Q48.47 -1.203 50.52 -1.203Q51.48 -1.203 52.67 -1.672M48.25 -4.484L50.69 -4.484Q50.69 -6.406 49.59 -6.406Q48.45 -6.406 48.25 -4.484ZM53.41 0M58.78 -2.609L58.78 -6.406Q57.86 -6.578 57.39 -6.578Q55.45 -6.578 55.45 -3.609Q55.45 -2.406 55.83 -1.703Q56.2 -1.016 56.86 -1.016Q57.75 -1.016 58.78 -2.609M58.78 -1.391Q57.98 0.1719 56.58 0.1719Q55.41 0.1719 54.7 -0.8281Q54 -1.844 54 -3.5Q54 -5.453 54.91 -6.516Q55.81 -7.594 57.5 -7.594Q58.14 -7.594 58.78 -7.422L58.78 -10.8L60.14 -10.8L60.14 0L58.78 0L58.78 -1.391ZM61.19 0M66.7 -6.297Q65.95 -6.438 65.56 -6.438Q63.89 -6.438 63.89 -3.906Q63.89 -1.578 65.11 -1.578Q65.94 -1.578 66.7 -2.781L66.7 -6.297M66.7 -1.422Q65.64 0 64.36 0Q63.19 0 62.45 -1.016Q61.73 -2.031 61.73 -3.641Q61.73 -5.516 62.67 -6.594Q63.63 -7.672 65.27 -7.672Q65.81 -7.672 66.7 -7.5L68.73 -7.5L68.73 -1.781Q68.73 -0.0625 68.52 0.7031Q68.31 1.453 67.7 1.984Q66.7 2.875 64.86 2.875Q63.55 2.875 62.03 2.328L62.03 0.8438Q63.52 1.438 64.59 1.438Q65.7 1.438 66.2 0.9531Q66.7 0.4844 66.7 -0.5938L66.7 -1.422ZM69.73 0M76.78 -1.672L76.78 -0.25Q75.53 0.1719 74.28 0.1719Q72.39 0.1719 71.31 -0.9062Q70.23 -1.984 70.23 -3.859Q70.23 -5.594 71.17 -6.625Q72.13 -7.672 73.67 -7.672Q75.3 -7.672 76.03 -6.641Q76.78 -5.609 76.78 -3.344L72.38 -3.344Q72.58 -1.203 74.63 -1.203Q75.59 -1.203 76.78 -1.672M72.36 -4.484L74.8 -4.484Q74.8 -6.406 73.7 -6.406Q72.56 -6.406 72.36 -4.484ZM81.41 0M82.42 0L82.42 -7.5L84.44 -7.5L84.44 -6.266Q85.59 -7.672 86.98 -7.672Q89.03 -7.672 89.03 -5.312L89.03 0L87.02 0L87.02 -4.812Q87.02 -5.531 86.83 -5.812Q86.66 -6.078 86.2 -6.078Q85.38 -6.078 84.44 -4.891L84.44 0L82.42 0ZM89.95 0M97 -1.672L97 -0.25Q95.75 0.1719 94.5 0.1719Q92.61 0.1719 91.53 -0.9062Q90.45 -1.984 90.45 -3.859Q90.45 -5.594 91.39 -6.625Q92.34 -7.672 93.89 -7.672Q95.52 -7.672 96.25 -6.641Q97 -5.609 97 -3.344L92.59 -3.344Q92.8 -1.203 94.84 -1.203Q95.81 -1.203 97 -1.672M92.58 -4.484L95.02 -4.484Q95.02 -6.406 93.92 -6.406Q92.78 -6.406 92.58 -4.484ZM97.73 0M101.4 0.04688Q101 0.1719 100.6 0.1719Q98.78 0.1719 98.78 -2.047L98.78 -6.406L97.91 -6.406L97.91 -7.422L98.78 -7.422L98.78 -8.969L100.1 -9.109L100.1 -7.422L101.8 -7.422L101.8 -6.406L100.1 -6.406L100.1 -2.297Q100.1 -1.406 100.3 -1.125Q100.4 -0.8438 100.9 -0.8438Q101.2 -0.8438 101.4 -0.9219L101.4 0.04688ZM101.7 0M103.5 0L101.8 -7.422L103.1 -7.422L104.4 -1.828L106.1 -7.422L107.5 -7.422L109 -1.812L110.5 -7.422L111.7 -7.422L109.6 0L108.3 0L106.7 -5.75L104.9 0L103.5 0ZM111.8 0M115.6 0.1719Q114.1 0.1719 113.3 -0.875Q112.4 -1.938 112.4 -3.719Q112.4 -5.516 113.3 -6.547Q114.2 -7.594 115.7 -7.594Q117.2 -7.594 118.1 -6.547Q119 -5.516 119 -3.719Q119 -1.891 118.1 -0.8594Q117.2 0.1719 115.6 0.1719M115.7 -0.8438Q117.5 -0.8438 117.5 -3.75Q117.5 -6.578 115.7 -6.578Q113.8 -6.578 113.8 -3.719Q113.8 -0.8438 115.7 -0.8438ZM119.6 0M120.8 0L120.8 -7.5L122.8 -7.5L122.8 -6.266Q123.4 -7.672 124.5 -7.672Q124.6 -7.672 124.8 -7.641L124.8 -5.828Q124.4 -5.984 124.2 -5.984Q123.4 -5.984 122.8 -4.938L122.8 0L120.8 0ZM125 0M126 0L126 -10.8L128.1 -10.8L128.1 -4L128.2 -4L130.6 -7.5L132.2 -7.5L130 -4.25L132.8 0L130.6 0L128.2 -3.75L128.1 -3.75L128.1 0L126 0Z" fill="#71717a" transform="translate(99,545.4)"/><rect x="269.7" y="491.2" width="161.1" height="74.8" fill="rgba(255,255,255,0.06)" rx="12" ry="12"/><rect x="270.2" y="491.7" width="160.1" height="73.8" fill="none" stroke="rgba(255,255,255,0.08)" stroke-width="1" rx="12" ry="12"/><image href="https://cdn.jsdelivr.net/gh/twitter/twemoji@latest/assets/svg/26a1.svg" x="294.7" y="509.4" width="32" height="32"/><path d="M10.66 -0.9688L1.016 -5.781L10.66 -10.61L10.66 -8.484L5.297 -5.797L5.297 -5.766L10.66 -3.094L10.66 -0.9688ZM11.69 0M13.09 -0.0625L13.09 -2.156Q13.83 -1.797 14.52 -1.625Q15.22 -1.453 16 -1.453Q16.58 -1.453 17.05 -1.656Q17.52 -1.875 17.84 -2.234Q18.19 -2.609 18.36 -3.094Q18.53 -3.562 18.53 -4.109Q18.53 -4.906 18.3 -5.453Q18.06 -6.031 17.56 -6.375Q17.08 -6.734 16.33 -6.906Q15.58 -7.078 14.55 -7.078L13.34 -7.078L13.34 -14.45L21.31 -14.45L21.31 -12.17L15.41 -12.17L15.41 -8.844L15.72 -8.844Q16.94 -8.844 18.02 -8.609Q19.09 -8.375 19.88 -7.828Q20.69 -7.312 21.14 -6.438Q21.61 -5.578 21.61 -4.312Q21.61 -3.172 21.16 -2.297Q20.72 -1.422 19.95 -0.8281Q19.22 -0.25 18.25 0.0625Q17.3 0.3594 16.27 0.3594Q15.63 0.3594 14.83 0.2656Q14.05 0.1719 13.09 -0.0625ZM22.81 0M28.37 0.3594Q26.2 0.3594 24.89 -1.734Q23.59 -3.812 23.59 -7.234Q23.59 -10.67 24.91 -12.75Q26.22 -14.81 28.37 -14.81Q30.53 -14.81 31.84 -12.75Q33.17 -10.69 33.17 -7.234Q33.17 -3.766 31.86 -1.703Q30.55 0.3594 28.37 0.3594M28.37 -1.453Q30.44 -1.453 30.44 -7.234Q30.44 -8.016 30.39 -8.688L26.48 -4.469Q26.89 -1.453 28.37 -1.453M28.37 -13.02Q26.33 -13.02 26.33 -7.234Q26.33 -6.453 26.36 -5.781L30.27 -10.02Q29.86 -13.02 28.37 -13.02ZM33.94 0M35.44 0L35.44 -10.61L37.36 -10.61L37.36 -8.609Q38.25 -9.969 38.86 -10.41Q39.47 -10.84 40.44 -10.84Q42.55 -10.84 43.3 -8.609Q44.19 -9.969 44.78 -10.41Q45.39 -10.84 46.36 -10.84Q49.22 -10.84 49.22 -7.719L49.22 0L47.28 0L47.28 -7.406Q47.28 -9.234 45.83 -9.234Q44.58 -9.234 43.3 -7.109L43.3 0L41.36 0L41.36 -7.406Q41.36 -9.234 39.91 -9.234Q38.66 -9.234 37.36 -7.109L37.36 0L35.44 0ZM50.59 0M51.73 -0.375L51.73 -2.141Q53.62 -1.203 55.3 -1.203Q57.53 -1.203 57.53 -2.812Q57.53 -3.828 55.97 -4.344L54.25 -4.906Q51.78 -5.734 51.78 -7.859Q51.78 -10.84 55.86 -10.84Q57.03 -10.84 58.66 -10.53L58.66 -8.922Q57.23 -9.391 55.66 -9.391Q53.69 -9.391 53.69 -8.047Q53.69 -7.125 55.06 -6.672L56.59 -6.172Q59.47 -5.219 59.47 -2.969Q59.47 -1.469 58.33 -0.6094Q57.2 0.25 55.22 0.25Q53.62 0.25 51.73 -0.375Z" fill="#ffffff" transform="translate(304.7,527.1)"/><path d="M0.125 0L3.969 -10.12L5.391 -10.12L9.172 0L7.625 0L6.578 -2.797L2.516 -2.797L1.469 0L0.125 0M2.922 -3.875L6.188 -3.875L4.562 -8.203L2.922 -3.875ZM9.344 0M12.11 0L9.469 -7.422L10.83 -7.422L12.89 -1.641L15.06 -7.422L16.27 -7.422L13.45 0L12.11 0ZM16.34 0M23.39 -1.672L23.39 -0.25Q22.14 0.1719 20.89 0.1719Q19 0.1719 17.92 -0.9062Q16.84 -1.984 16.84 -3.859Q16.84 -5.594 17.78 -6.625Q18.73 -7.672 20.28 -7.672Q21.91 -7.672 22.64 -6.641Q23.39 -5.609 23.39 -3.344L18.98 -3.344Q19.19 -1.203 21.23 -1.203Q22.2 -1.203 23.39 -1.672M18.97 -4.484L21.41 -4.484Q21.41 -6.406 20.31 -6.406Q19.17 -6.406 18.97 -4.484ZM24.12 0M25.31 0L25.31 -7.5L27.33 -7.5L27.33 -6.266Q27.91 -7.672 29.02 -7.672Q29.17 -7.672 29.36 -7.641L29.36 -5.828Q28.97 -5.984 28.72 -5.984Q27.91 -5.984 27.33 -4.938L27.33 0L25.31 0ZM29.58 0M34.88 -0.9375Q33.66 0.1719 32.42 0.1719Q31.44 0.1719 30.84 -0.3906Q30.23 -0.9688 30.23 -1.875Q30.23 -4.391 34.36 -4.391L34.67 -4.391L34.67 -5.281Q34.67 -6.578 33.25 -6.578Q32.09 -6.578 30.88 -5.922L30.88 -7.031Q32.23 -7.594 33.48 -7.594Q34.81 -7.594 35.42 -7.031Q36.02 -6.484 36.02 -5.281L36.02 -1.922Q36.02 -0.7656 36.73 -0.7656Q36.81 -0.7656 36.98 -0.7969L37.08 -0.04688Q36.63 0.1719 36.06 0.1719Q35.13 0.1719 34.88 -0.9375M34.67 -1.672L34.67 -3.594L34.23 -3.609Q31.63 -3.609 31.63 -2.109Q31.63 -0.9375 32.88 -0.9375Q33.75 -0.9375 34.67 -1.672ZM37.36 0M42.88 -6.297Q42.13 -6.438 41.73 -6.438Q40.06 -6.438 40.06 -3.906Q40.06 -1.578 41.28 -1.578Q42.11 -1.578 42.88 -2.781L42.88 -6.297M42.88 -1.422Q41.81 0 40.53 0Q39.36 0 38.63 -1.016Q37.91 -2.031 37.91 -3.641Q37.91 -5.516 38.84 -6.594Q39.8 -7.672 41.44 -7.672Q41.98 -7.672 42.88 -7.5L44.91 -7.5L44.91 -1.781Q44.91 -0.0625 44.69 0.7031Q44.48 1.453 43.88 1.984Q42.88 2.875 41.03 2.875Q39.72 2.875 38.2 2.328L38.2 0.8438Q39.69 1.438 40.77 1.438Q41.88 1.438 42.38 0.9531Q42.88 0.4844 42.88 -0.5938L42.88 -1.422ZM45.91 0M52.95 -1.672L52.95 -0.25Q51.7 0.1719 50.45 0.1719Q48.56 0.1719 47.48 -0.9062Q46.41 -1.984 46.41 -3.859Q46.41 -5.594 47.34 -6.625Q48.3 -7.672 49.84 -7.672Q51.47 -7.672 52.2 -6.641Q52.95 -5.609 52.95 -3.344L48.55 -3.344Q48.75 -1.203 50.8 -1.203Q51.77 -1.203 52.95 -1.672M48.53 -4.484L50.97 -4.484Q50.97 -6.406 49.88 -6.406Q48.73 -6.406 48.53 -4.484ZM57.58 0M59.98 -2.297Q59.98 -1.906 60.05 -1.625Q60.11 -1.359 60.27 -1.172Q60.42 -1 60.64 -0.9219Q60.86 -0.8438 61.16 -0.8438L61.16 0.125Q61 0.1719 60.75 0.1719Q60.3 0.1719 59.89 0.01562Q59.5 -0.125 59.22 -0.4062Q58.94 -0.7031 58.78 -1.109Q58.63 -1.531 58.63 -2.047L58.63 -10.8L59.98 -10.8L59.98 -2.297ZM61.33 0M66.63 -0.9375Q65.41 0.1719 64.17 0.1719Q63.19 0.1719 62.59 -0.3906Q61.98 -0.9688 61.98 -1.875Q61.98 -4.391 66.11 -4.391L66.42 -4.391L66.42 -5.281Q66.42 -6.578 65 -6.578Q63.84 -6.578 62.63 -5.922L62.63 -7.031Q63.98 -7.594 65.23 -7.594Q66.56 -7.594 67.17 -7.031Q67.77 -6.484 67.77 -5.281L67.77 -1.922Q67.77 -0.7656 68.48 -0.7656Q68.56 -0.7656 68.73 -0.7969L68.83 -0.04688Q68.38 0.1719 67.81 0.1719Q66.88 0.1719 66.63 -0.9375M66.42 -1.672L66.42 -3.594L65.98 -3.609Q63.38 -3.609 63.38 -2.109Q63.38 -0.9375 64.63 -0.9375Q65.5 -0.9375 66.42 -1.672ZM69.11 0M72.73 0.04688Q72.34 0.1719 71.98 0.1719Q70.16 0.1719 70.16 -2.047L70.16 -6.406L69.28 -6.406L69.28 -7.422L70.16 -7.422L70.16 -8.969L71.5 -9.109L71.5 -7.422L73.14 -7.422L73.14 -6.406L71.5 -6.406L71.5 -2.297Q71.5 -1.406 71.64 -1.125Q71.8 -0.8438 72.27 -0.8438Q72.55 -0.8438 72.73 -0.9219L72.73 0.04688ZM73.06 0M80.11 -1.672L80.11 -0.25Q78.86 0.1719 77.61 0.1719Q75.72 0.1719 74.64 -0.9062Q73.56 -1.984 73.56 -3.859Q73.56 -5.594 74.5 -6.625Q75.45 -7.672 77 -7.672Q78.62 -7.672 79.36 -6.641Q80.11 -5.609 80.11 -3.344L75.7 -3.344Q75.91 -1.203 77.95 -1.203Q78.92 -1.203 80.11 -1.672M75.69 -4.484L78.12 -4.484Q78.12 -6.406 77.03 -6.406Q75.89 -6.406 75.69 -4.484ZM80.84 0M81.86 0L81.86 -7.5L83.87 -7.5L83.87 -6.266Q85.03 -7.672 86.42 -7.672Q88.47 -7.672 88.47 -5.312L88.47 0L86.45 0L86.45 -4.812Q86.45 -5.531 86.27 -5.812Q86.09 -6.078 85.64 -6.078Q84.81 -6.078 83.87 -4.891L83.87 0L81.86 0ZM89.39 0M95.72 -0.2188Q94.55 0.1719 93.34 0.1719Q91.86 0.1719 90.92 -0.9062Q89.98 -1.984 89.98 -3.703Q89.98 -5.531 90.92 -6.562Q91.89 -7.594 93.58 -7.594Q94.48 -7.594 95.64 -7.344L95.64 -6.219Q94.55 -6.562 93.86 -6.562Q91.47 -6.562 91.47 -3.703Q91.47 -2.375 92.08 -1.641Q92.7 -0.9219 93.8 -0.9219Q94.64 -0.9219 95.72 -1.391L95.72 -0.2188ZM96.39 0M99.25 0L96.56 -7.5L98.69 -7.5L100.4 -2.656L102.5 -7.5L104 -7.5L99.62 2.703L97.56 2.703L99.25 0Z" fill="#71717a" transform="translate(304.7,545.4)"/><rect x="446.8" y="491.2" width="120" height="74.8" fill="rgba(255,255,255,0.06)" rx="12" ry="12"/><rect x="447.3" y="491.7" width="119" height="73.8" fill="none" stroke="rgba(255,255,255,0.08)" stroke-width="1" rx="12" ry="12"/><image href="https://cdn.jsdelivr.net/gh/twitter/twemoji@latest/assets/svg/1f512.svg" x="471.8" y="509.4" width="32" height="32"/><path d="M1 -0.125L1 -2.594Q3.766 -1.625 6.109 -1.625Q9.422 -1.625 9.422 -3.547Q9.422 -4.797 8.172 -5.328L6.828 -5.844L5.234 -6.453Q2.688 -7.406 1.828 -8.297Q0.9688 -9.172 0.9688 -10.8Q0.9688 -14.81 6.859 -14.81Q9.344 -14.81 11.58 -14.31L11.58 -12.03Q9.266 -12.83 7.078 -12.83Q5.312 -12.83 4.625 -12.47Q3.953 -12.09 3.953 -11.14Q3.953 -10.53 4.281 -10.19Q4.609 -9.844 5.562 -9.5L6.672 -9.062L8.328 -8.453Q10.75 -7.547 11.66 -6.594Q12.59 -5.641 12.59 -4.016Q12.59 -1.75 10.91 -0.6875Q9.219 0.375 5.594 0.375Q4.234 0.375 2.547 0.1094L1 -0.125ZM13.34 0M21.02 0.3594Q17.81 0.3594 15.97 -1.672Q14.12 -3.719 14.12 -7.234Q14.12 -10.8 15.98 -12.8Q17.84 -14.81 21.12 -14.81Q24.4 -14.81 26.25 -12.8Q28.12 -10.8 28.12 -7.25Q28.12 -3.641 26.25 -1.641Q24.39 0.3594 21.02 0.3594M21.06 -1.625Q22.92 -1.625 23.92 -3.094Q24.92 -4.547 24.92 -7.266Q24.92 -9.891 23.92 -11.36Q22.92 -12.83 21.12 -12.83Q19.33 -12.83 18.31 -11.36Q17.31 -9.891 17.31 -7.234Q17.31 -4.594 18.31 -3.109Q19.31 -1.625 21.06 -1.625ZM28.91 0M42.64 -2.797L42.64 -0.5781Q40.53 0.3594 37.41 0.3594Q33.69 0.3594 31.69 -1.609Q29.69 -3.578 29.69 -7.234Q29.69 -10.95 31.7 -12.88Q33.73 -14.81 37.63 -14.81Q40.16 -14.81 42.52 -14.27L42.52 -11.91Q39.85 -12.83 37.89 -12.83Q32.88 -12.83 32.88 -7.266Q32.88 -1.719 38.17 -1.719Q40.47 -1.719 42.64 -2.797ZM48.91 0M49.91 0L49.91 -1.688Q50.56 -3.25 52.16 -4.906L53.2 -5.984L54.16 -6.953Q56.05 -8.891 56.05 -10.73Q56.05 -13.38 53.69 -13.38Q52.3 -13.38 50.27 -12.2L50.27 -13.91Q52.17 -14.81 53.97 -14.81Q55.84 -14.81 56.97 -13.72Q58.09 -12.62 58.09 -10.75Q58.09 -9.484 57.52 -8.5Q56.94 -7.516 55.33 -6.062L54.66 -5.453Q52.63 -3.609 52.23 -1.688L58.02 -1.688L58.02 0L49.91 0Z" fill="#ffffff" transform="translate(481.8,527.1)"/><path d="M9.25 -0.5156Q7.75 0.25 5.906 0.25Q3.391 0.25 2.094 -1.094Q0.7969 -2.453 0.7969 -5.047Q0.7969 -7.641 2.125 -9Q3.453 -10.38 5.953 -10.38Q7.406 -10.38 9.234 -9.922L9.234 -8.578Q7.141 -9.297 5.906 -9.297Q4.156 -9.297 3.25 -8.203Q2.328 -7.109 2.328 -5.031Q2.328 -3.047 3.312 -1.953Q4.281 -0.875 6.078 -0.875Q7.594 -0.875 9.25 -1.75L9.25 -0.5156ZM10.11 0M17.16 -1.672L17.16 -0.25Q15.91 0.1719 14.66 0.1719Q12.77 0.1719 11.69 -0.9062Q10.61 -1.984 10.61 -3.859Q10.61 -5.594 11.55 -6.625Q12.5 -7.672 14.05 -7.672Q15.67 -7.672 16.41 -6.641Q17.16 -5.609 17.16 -3.344L12.75 -3.344Q12.95 -1.203 15 -1.203Q15.97 -1.203 17.16 -1.672M12.73 -4.484L15.17 -4.484Q15.17 -6.406 14.08 -6.406Q12.94 -6.406 12.73 -4.484ZM17.89 0M19.08 0L19.08 -7.5L21.09 -7.5L21.09 -6.266Q21.67 -7.672 22.78 -7.672Q22.94 -7.672 23.12 -7.641L23.12 -5.828Q22.73 -5.984 22.48 -5.984Q21.67 -5.984 21.09 -4.938L21.09 0L19.08 0ZM23.34 0M26.97 0.04688Q26.58 0.1719 26.22 0.1719Q24.39 0.1719 24.39 -2.047L24.39 -6.406L23.52 -6.406L23.52 -7.422L24.39 -7.422L24.39 -8.969L25.73 -9.109L25.73 -7.422L27.37 -7.422L27.37 -6.406L25.73 -6.406L25.73 -2.297Q25.73 -1.406 25.87 -1.125Q26.03 -0.8438 26.5 -0.8438Q26.78 -0.8438 26.97 -0.9219L26.97 0.04688ZM27.3 0M28.31 0L28.31 -7.5L30.33 -7.5L30.33 0L28.31 0M28.23 -8.875L28.23 -10.8L30.41 -10.8L30.41 -8.875L28.23 -8.875ZM31.34 0M32.55 0L32.55 -6.406L31.56 -6.406L31.56 -7.422L32.55 -7.422L32.55 -8.312Q32.55 -10.97 34.67 -10.97Q35.09 -10.97 35.66 -10.78L35.66 -9.719Q35.16 -9.953 34.8 -9.953Q34.3 -9.953 34.09 -9.625Q33.89 -9.297 33.89 -8.453L33.89 -7.422L35.44 -7.422L35.44 -6.406L33.89 -6.406L33.89 0L32.55 0ZM35.23 0M36.25 0L36.25 -7.5L38.27 -7.5L38.27 0L36.25 0M36.17 -8.875L36.17 -10.8L38.34 -10.8L38.34 -8.875L36.17 -8.875ZM39.28 0M46.33 -1.672L46.33 -0.25Q45.08 0.1719 43.83 0.1719Q41.94 0.1719 40.86 -0.9062Q39.78 -1.984 39.78 -3.859Q39.78 -5.594 40.72 -6.625Q41.67 -7.672 43.22 -7.672Q44.84 -7.672 45.58 -6.641Q46.33 -5.609 46.33 -3.344L41.92 -3.344Q42.13 -1.203 44.17 -1.203Q45.14 -1.203 46.33 -1.672M41.91 -4.484L44.34 -4.484Q44.34 -6.406 43.25 -6.406Q42.11 -6.406 41.91 -4.484ZM47.06 0M52.44 -2.609L52.44 -6.406Q51.52 -6.578 51.05 -6.578Q49.11 -6.578 49.11 -3.609Q49.11 -2.406 49.48 -1.703Q49.86 -1.016 50.52 -1.016Q51.41 -1.016 52.44 -2.609M52.44 -1.391Q51.64 0.1719 50.23 0.1719Q49.06 0.1719 48.36 -0.8281Q47.66 -1.844 47.66 -3.5Q47.66 -5.453 48.56 -6.516Q49.47 -7.594 51.16 -7.594Q51.8 -7.594 52.44 -7.422L52.44 -10.8L53.8 -10.8L53.8 0L52.44 0L52.44 -1.391Z" fill="#71717a" transform="translate(481.8,545.4)"/></svg>