<svg xmlns="http://www.w3.org/2000/svg" width="1200" height="630" viewBox="0 0 1200 630"><defs><linearGradient id="lg1" x1="11.875%" y1="-22.619%" x2="88.125%" y2="122.619%" color-interpolation="linearRGB"><stop offset="0%" stop-color="rgba(15,23,42,1)"/><stop offset="50%" stop-color="rgba(88,28,135,1)"/><stop offset="100%" stop-color="rgba(15,23,42,1)"/></linearGradient></defs><rect x="0" y="0" width="1200" height="630" fill="url(#lg1)"/><rect x="64" y="64" width="48" height="48" fill="#8b5cf6"/><path d="M2.031 0L2.031 -17.34L5.203 -17.34L12.41 -5.5L12.41 -17.34L15.31 -17.34L15.31 0L12.08 0L4.922 -11.84L4.922 0L2.031 0ZM17.33 0M29.41 -2.875L29.41 -0.4375Q27.27 0.2969 25.11 0.2969Q21.89 0.2969 20.03 -1.547Q18.2 -3.406 18.2 -6.609Q18.2 -9.594 19.8 -11.38Q21.42 -13.16 24.09 -13.16Q26.86 -13.16 28.14 -11.38Q29.41 -9.609 29.41 -5.75L21.86 -5.75Q22.22 -2.062 25.7 -2.062Q27.36 -2.062 29.41 -2.875M21.81 -7.703L26 -7.703Q26 -11 24.14 -11Q22.17 -11 21.81 -7.703ZM30.67 0M35.87 0L32.41 0L32.41 -18.5L35.87 -18.5L35.87 -10.73Q37.72 -13.16 39.92 -13.16Q41.94 -13.16 43.17 -11.41Q44.4 -9.656 44.4 -6.781Q44.4 -3.453 42.79 -1.578Q41.2 0.2969 38.36 0.2969Q37.41 0.2969 35.87 0M35.87 -2.062Q37.19 -1.844 37.83 -1.844Q40.72 -1.844 40.72 -6.312Q40.72 -10.44 38.62 -10.44Q37.22 -10.44 35.87 -8.391L35.87 -2.062ZM45.33 0M54.8 0L54.8 -2.141Q52.81 0.2969 50.42 0.2969Q46.92 0.2969 46.92 -3.781L46.92 -12.88L50.39 -12.88L50.39 -4.625Q50.39 -3.375 50.69 -2.906Q50.98 -2.438 51.78 -2.438Q53.19 -2.438 54.8 -4.484L54.8 -12.88L58.27 -12.88L58.27 0L54.8 0ZM59.98 0M66.91 -2.141L66.91 0Q66.13 0.2969 65.23 0.2969Q61.56 0.2969 61.56 -3.922L61.56 -18.5L65.03 -18.5L65.03 -4.391Q65.03 -2.938 65.28 -2.469Q65.53 -2.031 66.3 -2.031Q66.63 -2.031 66.91 -2.141ZM67.14 0M79.75 -1.984L79.83 -0.03125Q78.73 0.2969 77.91 0.2969Q75.75 0.2969 75.14 -1.391L75 -1.391Q73.73 0.2969 71.77 0.2969Q70.05 0.2969 69 -0.7344Q67.95 -1.781 67.95 -3.469Q67.95 -7.859 74.06 -7.859L75 -7.859L75 -9.031Q75 -11.03 72.98 -11.03Q71.16 -11.03 69.09 -9.875L69.09 -12.27Q71.2 -13.16 73.55 -13.16Q78.33 -13.16 78.33 -9.141L78.33 -3.453Q78.33 -1.938 79.28 -1.938Q79.47 -1.938 79.75 -1.984M75 -3.25L75 -5.859L74.17 -5.859Q71.28 -5.859 71.28 -3.781Q71.28 -3.031 71.77 -2.547Q72.25 -2.062 73 -2.062Q74.2 -2.062 75 -3.25Z" fill="#ffffff" transform="translate(128,96.27)"/><path d="M1.297 0L1.297 -11.56L5 -11.56Q10.83 -11.56 10.83 -6.062Q10.83 -3.172 9.312 -1.594Q7.797 0 5.016 0L1.297 0M2.938 -1.234L4.906 -1.234Q7.016 -1.234 8.047 -2.375Q9.078 -3.531 9.078 -5.906Q9.078 -7.938 8.094 -9.109Q7.484 -9.812 6.656 -10.08Q5.812 -10.34 4.141 -10.34L2.938 -10.34L2.938 -1.234ZM11.56 0M19.62 -1.922L19.62 -0.2969Q18.19 0.2031 16.75 0.2031Q14.61 0.2031 13.37 -1.031Q12.14 -2.266 12.14 -4.406Q12.14 -6.391 13.22 -7.578Q14.3 -8.781 16.08 -8.781Q17.92 -8.781 18.77 -7.594Q19.62 -6.406 19.62 -3.828L14.58 -3.828Q14.83 -1.375 17.16 -1.375Q18.25 -1.375 19.62 -1.922M14.56 -5.141L17.34 -5.141Q17.34 -7.328 16.11 -7.328Q14.8 -7.328 14.56 -5.141ZM20.47 0M23.62 0L20.62 -8.484L22.17 -8.484L24.53 -1.891L27.02 -8.484L28.37 -8.484L25.17 0L23.62 0ZM28.47 0M36.53 -1.922L36.53 -0.2969Q35.09 0.2031 33.66 0.2031Q31.52 0.2031 30.28 -1.031Q29.05 -2.266 29.05 -4.406Q29.05 -6.391 30.12 -7.578Q31.2 -8.781 32.98 -8.781Q34.83 -8.781 35.67 -7.594Q36.53 -6.406 36.53 -3.828L31.48 -3.828Q31.73 -1.375 34.06 -1.375Q35.16 -1.375 36.53 -1.922M31.47 -5.141L34.25 -5.141Q34.25 -7.328 33.02 -7.328Q31.7 -7.328 31.47 -5.141ZM37.38 0M40.12 -2.625Q40.12 -2.188 40.2 -1.859Q40.28 -1.547 40.45 -1.344Q40.62 -1.156 40.88 -1.062Q41.14 -0.9688 41.47 -0.9688L41.47 0.1562Q41.3 0.2031 41 0.2031Q40.48 0.2031 40.03 0.03125Q39.58 -0.1562 39.25 -0.4688Q38.92 -0.7969 38.75 -1.266Q38.58 -1.75 38.58 -2.344L38.58 -12.34L40.12 -12.34L40.12 -2.625ZM41.66 0M46.05 0.2031Q44.34 0.2031 43.33 -1.016Q42.33 -2.219 42.33 -4.25Q42.33 -6.297 43.34 -7.484Q44.36 -8.672 46.11 -8.672Q47.84 -8.672 48.86 -7.484Q49.88 -6.312 49.88 -4.266Q49.88 -2.172 48.86 -0.9844Q47.84 0.2031 46.05 0.2031M46.08 -0.9688Q48.22 -0.9688 48.22 -4.281Q48.22 -7.516 46.11 -7.516Q44 -7.516 44 -4.25Q44 -0.9688 46.08 -0.9688ZM50.56 0M53.31 3.094L51.77 3.094L51.77 -8.484L53.31 -8.484L53.31 -6.891Q54.23 -8.672 55.84 -8.672Q57.17 -8.672 57.97 -7.531Q58.78 -6.375 58.78 -4.484Q58.78 -2.25 57.73 -1.031Q56.7 0.2031 54.78 0.2031Q54.05 0.2031 53.31 0L53.31 3.094M53.31 -5.5L53.31 -1.172Q54.37 -0.9688 54.91 -0.9688Q57.12 -0.9688 57.12 -4.344Q57.12 -5.734 56.69 -6.531Q56.25 -7.328 55.5 -7.328Q54.5 -7.328 53.31 -5.5ZM59.47 0M67.53 -1.922L67.53 -0.2969Q66.09 0.2031 64.66 0.2031Q62.52 0.2031 61.28 -1.031Q60.05 -2.266 60.05 -4.406Q60.05 -6.391 61.12 -7.578Q62.2 -8.781 63.98 -8.781Q65.83 -8.781 66.67 -7.594Q67.53 -6.406 67.53 -3.828L62.48 -3.828Q62.73 -1.375 65.06 -1.375Q66.16 -1.375 67.53 -1.922M62.47 -5.141L65.25 -5.141Q65.25 -7.328 64.02 -7.328Q62.7 -7.328 62.47 -5.141ZM68.38 0M69.73 0L69.73 -8.578L72.05 -8.578L72.05 -7.156Q72.69 -8.781 73.97 -8.781Q74.14 -8.781 74.36 -8.734L74.36 -6.672Q73.92 -6.844 73.62 -6.844Q72.69 -6.844 72.05 -5.641L72.05 0L69.73 0ZM79.06 0M80.37 0L80.37 -11.56L84.59 -11.56Q86.37 -11.56 87.14 -11.36Q87.92 -11.16 88.44 -10.56Q89.05 -9.812 89.05 -8.453Q89.05 -4.438 84.11 -4.438L82.02 -4.438L82.02 0L80.37 0M82.02 -5.688L84.03 -5.688Q87.31 -5.688 87.31 -8.344Q87.31 -9.531 86.64 -9.938Q85.97 -10.34 84.08 -10.34L82.02 -10.34L82.02 -5.688ZM89.73 0M92.48 -2.625Q92.48 -2.188 92.56 -1.859Q92.64 -1.547 92.81 -1.344Q92.98 -1.156 93.23 -1.062Q93.5 -0.9688 93.83 -0.9688L93.83 0.1562Q93.66 0.2031 93.36 0.2031Q92.84 0.2031 92.39 0.03125Q91.94 -0.1562 91.61 -0.4688Q91.28 -0.7969 91.11 -1.266Q90.94 -1.75 90.94 -2.344L90.94 -12.34L92.48 -12.34L92.48 -2.625ZM94.02 0M102.4 -1.328L102.5 -0.03125Q101.7 0.2031 101.2 0.2031Q99.77 0.2031 99.36 -0.9219L99.25 -0.9219Q98.42 0.2031 97.09 0.2031Q95.95 0.2031 95.25 -0.5Q94.56 -1.188 94.56 -2.312Q94.56 -5.234 98.64 -5.234L99.25 -5.234L99.25 -6.016Q99.25 -7.359 97.91 -7.359Q96.7 -7.359 95.31 -6.594L95.31 -8.188Q96.73 -8.781 98.28 -8.781Q101.5 -8.781 101.5 -6.094L101.5 -2.297Q101.5 -1.297 102.1 -1.297Q102.2 -1.297 102.4 -1.328M99.25 -2.172L99.25 -3.906L98.7 -3.906Q96.78 -3.906 96.78 -2.516Q96.78 -2.031 97.09 -1.703Q97.42 -1.375 97.92 -1.375Q98.72 -1.375 99.25 -2.172ZM102.9 0M107.1 0.04688Q106.6 0.2031 106.2 0.2031Q104.1 0.2031 104.1 -2.344L104.1 -7.328L103.1 -7.328L103.1 -8.484L104.1 -8.484L104.1 -10.27L105.7 -10.41L105.7 -8.484L107.5 -8.484L107.5 -7.328L105.7 -7.328L105.7 -2.625Q105.7 -1.609 105.8 -1.281Q106 -0.9688 106.5 -0.9688Q106.9 -0.9688 107.1 -1.047L107.1 0.04688ZM107.5 0M108.8 0L108.8 -7.328L107.7 -7.328L107.7 -8.484L108.8 -8.484L108.8 -9.5Q108.8 -12.53 111.3 -12.53Q111.8 -12.53 112.4 -12.33L112.4 -11.11Q111.8 -11.38 111.4 -11.38Q110.8 -11.38 110.6 -11Q110.4 -10.62 110.4 -9.672L110.4 -8.484L112.1 -8.484L112.1 -7.328L110.4 -7.328L110.4 0L108.8 0ZM111.9 0M116.3 0.2031Q114.6 0.2031 113.6 -1.016Q112.6 -2.219 112.6 -4.25Q112.6 -6.297 113.6 -7.484Q114.6 -8.672 116.4 -8.672Q118.1 -8.672 119.1 -7.484Q120.1 -6.312 120.1 -4.266Q120.1 -2.172 119.1 -0.9844Q118.1 0.2031 116.3 0.2031M116.3 -0.9688Q118.5 -0.9688 118.5 -4.281Q118.5 -7.516 116.4 -7.516Q114.3 -7.516 114.3 -4.25Q114.3 -0.9688 116.3 -0.9688ZM120.8 0M122.2 0L122.2 -8.578L124.5 -8.578L124.5 -7.156Q125.1 -8.781 126.4 -8.781Q126.6 -8.781 126.8 -8.734L126.8 -6.672Q126.4 -6.844 126.1 -6.844Q125.1 -6.844 124.5 -5.641L124.5 0L122.2 0ZM127 0M128.2 0L128.2 -8.484L129.8 -8.484L129.8 -6.891Q130.5 -7.984 131 -8.328Q131.5 -8.672 132.2 -8.672Q133.9 -8.672 134.5 -6.891Q135.2 -7.984 135.7 -8.328Q136.2 -8.672 137 -8.672Q139.3 -8.672 139.3 -6.172L139.3 0L137.7 0L137.7 -5.938Q137.7 -7.391 136.6 -7.391Q135.6 -7.391 134.5 -5.688L134.5 0L133 0L133 -5.938Q133 -7.391 131.8 -7.391Q130.8 -7.391 129.8 -5.688L129.8 0L128.2 0Z" fill="#64748b" transform="translate(224.5,93.53)"/><path d="M4.062 0L4.062 -34.69L16.12 -34.69Q24.19 -34.69 28.48 -30.41Q32.8 -26.14 32.8 -18.08Q32.8 -9.5 28.25 -4.734Q23.7 0 15.5 0L4.062 0M11.28 -4.922L13.83 -4.922Q19.53 -4.922 22.31 -8.062Q25.12 -11.23 25.12 -17.66Q25.12 -23.39 22.31 -26.66Q19.5 -29.94 14.56 -29.94L11.28 -29.94L11.28 -4.922ZM34.67 0M58.84 -5.75L58.84 -0.875Q54.55 0.5938 50.23 0.5938Q43.8 0.5938 40.09 -3.094Q36.41 -6.797 36.41 -13.22Q36.41 -19.17 39.62 -22.73Q42.86 -26.33 48.2 -26.33Q53.73 -26.33 56.28 -22.77Q58.84 -19.22 58.84 -11.48L43.72 -11.48Q44.45 -4.125 51.44 -4.125Q54.73 -4.125 58.84 -5.75M43.66 -15.41L52.01 -15.41Q52.01 -21.98 48.29 -21.98Q44.36 -21.98 43.66 -15.41ZM61.38 0M71.78 9.266L64.84 9.266L64.84 -25.73L71.78 -25.73L71.78 -21.47Q75.47 -26.33 79.88 -26.33Q83.91 -26.33 86.36 -22.81Q88.84 -19.31 88.84 -13.58Q88.84 -6.922 85.64 -3.172Q82.45 0.5938 76.75 0.5938Q74.86 0.5938 71.78 0L71.78 9.266M71.78 -4.125Q74.41 -3.688 75.7 -3.688Q81.47 -3.688 81.47 -12.61Q81.47 -20.89 77.27 -20.89Q74.45 -20.89 71.78 -16.78L71.78 -4.125ZM90.7 0M104.6 -4.266L104.6 0Q103 0.5938 101.2 0.5938Q93.88 0.5938 93.88 -7.859L93.88 -37.02L100.8 -37.02L100.8 -8.766Q100.8 -5.859 101.3 -4.953Q101.8 -4.062 103.3 -4.062Q104 -4.062 104.6 -4.266ZM105 0M119.6 0.5938Q113.8 0.5938 110.3 -3.094Q106.8 -6.797 106.8 -12.88Q106.8 -19.02 110.3 -22.67Q113.8 -26.33 119.7 -26.33Q125.6 -26.33 129.1 -22.67Q132.6 -19.02 132.6 -12.92Q132.6 -6.703 129.1 -3.047Q125.6 0.5938 119.6 0.5938M119.6 -3.75Q122.3 -3.75 123.8 -6.188Q125.3 -8.656 125.3 -12.92Q125.3 -17.06 123.7 -19.53Q122.2 -21.98 119.7 -21.98Q117.1 -21.98 115.6 -19.53Q114.1 -17.06 114.1 -12.88Q114.1 -8.719 115.6 -6.234Q117.1 -3.75 119.6 -3.75ZM134.4 0M144.2 0L135 -25.73L142.3 -25.73L148.2 -9.094L155.3 -25.73L160.4 -25.73L145.4 9.266L138.4 9.266L144.2 0ZM174.4 0M199.6 -3.969L199.8 -0.07812Q197.6 0.5938 195.9 0.5938Q191.6 0.5938 190.4 -2.766L190.1 -2.766Q187.6 0.5938 183.6 0.5938Q180.2 0.5938 178.1 -1.484Q176 -3.562 176 -6.938Q176 -15.7 188.3 -15.7L190.1 -15.7L190.1 -18.05Q190.1 -22.06 186.1 -22.06Q182.5 -22.06 178.3 -19.77L178.3 -24.55Q182.5 -26.33 187.2 -26.33Q196.8 -26.33 196.8 -18.28L196.8 -6.891Q196.8 -3.875 198.7 -3.875Q199.1 -3.875 199.6 -3.969M190.1 -6.5L190.1 -11.72L188.5 -11.72Q182.7 -11.72 182.7 -7.547Q182.7 -6.078 183.6 -5.094Q184.6 -4.125 186.1 -4.125Q188.5 -4.125 190.1 -6.5ZM201.1 0M204.6 0L204.6 -25.73L211.5 -25.73L211.5 -21.47Q215.5 -26.33 220.3 -26.33Q227.3 -26.33 227.3 -18.19L227.3 0L220.3 0L220.3 -16.48Q220.3 -18.98 219.7 -19.92Q219.1 -20.86 217.5 -20.86Q214.7 -20.86 211.5 -16.78L211.5 0L204.6 0ZM230.4 0M240.3 0L231 -25.73L238.3 -25.73L244.3 -9.094L251.4 -25.73L256.5 -25.73L241.5 9.266L234.5 9.266L240.3 0ZM257.1 0M264.8 0L258.6 -25.73L264.9 -25.73L269.2 -7.719L273.7 -25.73L279.7 -25.73L283.7 -7.625L288.4 -25.73L293.1 -25.73L286.3 0L279.7 0L275.9 -17.66L271.5 0L264.8 0ZM294.5 0M298 0L298 -37.02L304.9 -37.02L304.9 -21.47Q308.9 -26.33 313.6 -26.33Q320.6 -26.33 320.6 -18.19L320.6 0L313.7 0L313.7 -16.48Q313.7 -18.98 313.1 -19.92Q312.5 -20.86 310.9 -20.86Q308.1 -20.86 304.9 -16.78L304.9 0L298 0ZM323.8 0M348 -5.75L348 -0.875Q343.7 0.5938 339.4 0.5938Q332.9 0.5938 329.2 -3.094Q325.5 -6.797 325.5 -13.22Q325.5 -19.17 328.8 -22.73Q332 -26.33 337.3 -26.33Q342.9 -26.33 345.4 -22.77Q348 -19.22 348 -11.48L332.9 -11.48Q333.6 -4.125 340.6 -4.125Q343.9 -4.125 348 -5.75M332.8 -15.41L341.2 -15.41Q341.2 -21.98 337.4 -21.98Q333.5 -21.98 332.8 -15.41ZM350.5 0M354.6 0L354.6 -25.73L361.5 -25.73L361.5 -21.47Q363.5 -26.33 367.3 -26.33Q367.8 -26.33 368.5 -26.19L368.5 -20Q367.1 -20.53 366.2 -20.53Q363.5 -20.53 361.5 -16.92L361.5 0L354.6 0ZM369.2 0M393.4 -5.75L393.4 -0.875Q389.1 0.5938 384.8 0.5938Q378.3 0.5938 374.6 -3.094Q370.9 -6.797 370.9 -13.22Q370.9 -19.17 374.2 -22.73Q377.4 -26.33 382.7 -26.33Q388.3 -26.33 390.8 -22.77Q393.4 -19.22 393.4 -11.48L378.3 -11.48Q379 -4.125 386 -4.125Q389.3 -4.125 393.4 -5.75M378.2 -15.41L386.5 -15.41Q386.5 -21.98 382.8 -21.98Q378.9 -21.98 378.2 -15.41ZM409.2 0M412.7 0L412.7 -25.73L419.7 -25.73L419.7 0L412.7 0M412.5 -30.42L412.5 -37.02L419.9 -37.02L419.9 -30.42L412.5 -30.42ZM423.1 0M426.6 0L426.6 -25.73L433.5 -25.73L433.5 -21.47Q437.5 -26.33 442.3 -26.33Q449.3 -26.33 449.3 -18.19L449.3 0L442.3 0L442.3 -16.48Q442.3 -18.98 441.7 -19.92Q441.2 -20.86 439.6 -20.86Q436.7 -20.86 433.5 -16.78L433.5 0L426.6 0ZM465.8 0M468.7 -0.8438L468.7 -5.906Q474.1 -3.75 477.7 -3.75Q482.9 -3.75 482.9 -6.562Q482.9 -8.281 478.8 -9.938L476.5 -10.88Q471.7 -12.83 470.2 -14.25Q468.8 -15.69 468.8 -18.55Q468.8 -26.33 479.7 -26.33Q483.4 -26.33 488 -25.41L488 -20.66Q482.9 -21.98 480.5 -21.98Q475.6 -21.98 475.6 -19.36Q475.6 -17.77 479.4 -16.34L481.4 -15.56Q486.6 -13.62 488.3 -11.95Q490.1 -10.31 490.1 -7.406Q490.1 -3.75 486.8 -1.578Q483.6 0.5938 478.2 0.5938Q473.4 0.5938 468.7 -0.8438ZM492.5 0M516.7 -5.75L516.7 -0.875Q512.4 0.5938 508.1 0.5938Q501.6 0.5938 497.9 -3.094Q494.2 -6.797 494.2 -13.22Q494.2 -19.17 497.5 -22.73Q500.7 -26.33 506 -26.33Q511.6 -26.33 514.1 -22.77Q516.7 -19.22 516.7 -11.48L501.5 -11.48Q502.3 -4.125 509.3 -4.125Q512.6 -4.125 516.7 -5.75M501.5 -15.41L509.8 -15.41Q509.8 -21.98 506.1 -21.98Q502.2 -21.98 501.5 -15.41ZM519.2 0M544 -5.375L544 -0.5625Q539 0.5938 535.2 0.5938Q528.4 0.5938 524.6 -2.938Q520.9 -6.469 520.9 -12.89Q520.9 -26.33 535.7 -26.33Q539.8 -26.33 543.8 -25.31L543.8 -20.3Q538.8 -21.69 536.2 -21.69Q528.3 -21.69 528.3 -12.92Q528.3 -8.75 530.6 -6.375Q532.8 -4.016 536.8 -4.016Q539.6 -4.016 544 -5.375ZM545.9 0M560.4 0.5938Q554.7 0.5938 551.1 -3.094Q547.6 -6.797 547.6 -12.88Q547.6 -19.02 551.2 -22.67Q554.7 -26.33 560.6 -26.33Q566.4 -26.33 570 -22.67Q573.5 -19.02 573.5 -12.92Q573.5 -6.703 570 -3.047Q566.4 0.5938 560.4 0.5938M560.5 -3.75Q563.1 -3.75 564.6 -6.188Q566.1 -8.656 566.1 -12.92Q566.1 -17.06 564.6 -19.53Q563.1 -21.98 560.6 -21.98Q558 -21.98 556.5 -19.53Q555 -17.06 555 -12.88Q555 -8.719 556.5 -6.234Q558 -3.75 560.5 -3.75ZM575.2 0M578.7 0L578.7 -25.73L585.6 -25.73L585.6 -21.47Q589.6 -26.33 594.4 -26.33Q601.4 -26.33 601.4 -18.19L601.4 0L594.5 0L594.5 -16.48Q594.5 -18.98 593.8 -19.92Q593.3 -20.86 591.7 -20.86Q588.9 -20.86 585.6 -16.78L585.6 0L578.7 0ZM604.6 0M623.5 -4.266Q619.8 0.5938 615.4 0.5938Q611.4 0.5938 608.9 -2.906Q606.4 -6.422 606.4 -12.17Q606.4 -18.83 609.6 -22.58Q612.8 -26.33 618.5 -26.33Q620.4 -26.33 623.5 -25.73L623.5 -37.02L630.4 -37.02L630.4 0L623.5 0L623.5 -4.266M623.5 -21.61Q620.9 -22.06 619.6 -22.06Q613.8 -22.06 613.8 -13.12Q613.8 -4.859 618 -4.859Q620.8 -4.859 623.5 -8.953L623.5 -21.61ZM633.9 0M636.8 -0.8438L636.8 -5.906Q642.2 -3.75 645.8 -3.75Q651 -3.75 651 -6.562Q651 -8.281 646.9 -9.938L644.6 -10.88Q639.8 -12.83 638.3 -14.25Q636.9 -15.69 636.9 -18.55Q636.9 -26.33 647.8 -26.33Q651.5 -26.33 656.1 -25.41L656.1 -20.66Q651 -21.98 648.6 -21.98Q643.7 -21.98 643.7 -19.36Q643.7 -17.77 647.5 -16.34L649.5 -15.56Q654.7 -13.62 656.4 -11.95Q658.2 -10.31 658.2 -7.406Q658.2 -3.75 654.9 -1.578Q651.7 0.5938 646.3 0.5938Q641.5 0.5938 636.8 -0.8438Z" fill="#ffffff" transform="translate(64,315)"/><path d="M1.625 0L1.625 -14.45L6.906 -14.45Q9.125 -14.45 10.09 -14.2Q11.08 -13.95 11.7 -13.19Q12.48 -12.25 12.48 -10.56Q12.48 -5.547 6.297 -5.547L3.688 -5.547L3.688 0L1.625 0M3.688 -7.094L6.219 -7.094Q10.31 -7.094 10.31 -10.42Q10.31 -11.92 9.469 -12.41Q8.625 -12.92 6.266 -12.92L3.688 -12.92L3.688 -7.094ZM13.34 0M21.03 0L21.03 -1.984Q19.5 0.25 17.45 0.25Q14.73 0.25 14.73 -2.984L14.73 -10.61L16.66 -10.61L16.66 -3.609Q16.66 -2.328 16.92 -1.875Q17.19 -1.422 17.94 -1.422Q19.58 -1.422 21.03 -3.734L21.03 -10.61L22.95 -10.61L22.95 0L21.03 0ZM24.47 0M25.61 -0.375L25.61 -2.141Q27.5 -1.203 29.17 -1.203Q31.41 -1.203 31.41 -2.812Q31.41 -3.828 29.84 -4.344L28.12 -4.906Q25.66 -5.734 25.66 -7.859Q25.66 -10.84 29.73 -10.84Q30.91 -10.84 32.53 -10.53L32.53 -8.922Q31.11 -9.391 29.53 -9.391Q27.56 -9.391 27.56 -8.047Q27.56 -7.125 28.94 -6.672L30.47 -6.172Q33.34 -5.219 33.34 -2.969Q33.34 -1.469 32.2 -0.6094Q31.08 0.25 29.09 0.25Q27.5 0.25 25.61 -0.375ZM34.47 0M35.97 0L35.97 -15.42L37.89 -15.42L37.89 -8.609Q39.44 -10.84 41.48 -10.84Q44.2 -10.84 44.2 -7.625L44.2 0L42.27 0L42.27 -7Q42.27 -8.266 42 -8.734Q41.73 -9.188 41 -9.188Q39.36 -9.188 37.89 -6.859L37.89 0L35.97 0ZM51.16 0M55.11 0L51.34 -10.61L53.3 -10.61L56.17 -2.469L59.34 -10.61L61.05 -10.61L55.44 3.859L53.44 3.859L55.11 0ZM61.16 0M66.64 0.25Q64.5 0.25 63.25 -1.266Q62 -2.766 62 -5.297Q62 -7.875 63.25 -9.359Q64.53 -10.84 66.72 -10.84Q68.89 -10.84 70.16 -9.359Q71.44 -7.875 71.44 -5.328Q71.44 -2.703 70.16 -1.234Q68.89 0.25 66.64 0.25M66.67 -1.203Q69.34 -1.203 69.34 -5.359Q69.34 -9.391 66.72 -9.391Q64.08 -9.391 64.08 -5.297Q64.08 -1.203 66.67 -1.203ZM72.28 0M79.97 0L79.97 -1.984Q78.44 0.25 76.39 0.25Q73.67 0.25 73.67 -2.984L73.67 -10.61L75.59 -10.61L75.59 -3.609Q75.59 -2.328 75.86 -1.875Q76.13 -1.422 76.88 -1.422Q78.52 -1.422 79.97 -3.734L79.97 -10.61L81.89 -10.61L81.89 0L79.97 0ZM83.41 0M84.91 0L84.91 -10.61L86.83 -10.61L86.83 -8.609Q87.72 -10.84 89.38 -10.84Q89.59 -10.84 89.94 -10.8L89.94 -9Q89.44 -9.156 89.13 -9.156Q88 -9.156 86.83 -7L86.83 0L84.91 0ZM95.62 0M104.7 -0.3281Q103 0.25 101.3 0.25Q99.14 0.25 97.8 -1.297Q96.47 -2.828 96.47 -5.281Q96.47 -7.906 97.83 -9.359Q99.19 -10.84 101.6 -10.84Q102.9 -10.84 104.5 -10.48L104.5 -8.891Q103 -9.359 102 -9.359Q98.58 -9.359 98.58 -5.281Q98.58 -3.391 99.47 -2.344Q100.4 -1.312 101.9 -1.312Q103.1 -1.312 104.7 -1.984L104.7 -0.3281ZM105.6 0M111.1 0.25Q109 0.25 107.7 -1.266Q106.5 -2.766 106.5 -5.297Q106.5 -7.875 107.7 -9.359Q109 -10.84 111.2 -10.84Q113.4 -10.84 114.6 -9.359Q115.9 -7.875 115.9 -5.328Q115.9 -2.703 114.6 -1.234Q113.4 0.25 111.1 0.25M111.1 -1.203Q113.8 -1.203 113.8 -5.359Q113.8 -9.391 111.2 -9.391Q108.5 -9.391 108.5 -5.297Q108.5 -1.203 111.1 -1.203ZM116.8 0M124.4 -3.734L124.4 -9.156Q123.1 -9.391 122.4 -9.391Q119.7 -9.391 119.7 -5.172Q119.7 -3.453 120.2 -2.438Q120.8 -1.453 121.7 -1.453Q123 -1.453 124.4 -3.734M124.4 -1.984Q123.3 0.25 121.3 0.25Q119.6 0.25 118.6 -1.188Q117.6 -2.641 117.6 -5Q117.6 -7.797 118.9 -9.312Q120.2 -10.84 122.6 -10.84Q123.5 -10.84 124.4 -10.61L124.4 -15.42L126.4 -15.42L126.4 0L124.4 0L124.4 -1.984ZM127.9 0M135.9 -6.453Q135.9 -9.406 133.5 -9.406Q131 -9.406 130.8 -6.453L135.9 -6.453M137.8 -1.859L137.8 -0.3438Q135.9 0.25 134.1 0.25Q131.6 0.25 130.2 -1.297Q128.7 -2.844 128.7 -5.438Q128.7 -7.906 130 -9.375Q131.3 -10.84 133.5 -10.84Q137.8 -10.84 137.8 -5.594L137.8 -5L130.7 -5Q131 -1.219 134.5 -1.219Q136.1 -1.219 137.8 -1.859ZM139 0M140.2 0L140.2 -3.141L143.3 -3.141L143.3 0L140.2 0ZM150.1 0M154.1 0L150.4 -14.45L152.3 -14.45L155.3 -3.031L158.7 -14.45L160.7 -14.45L163.9 -3.141L167.1 -14.45L168.8 -14.45L164.7 0L162.7 0L159.5 -11.14L156.1 0L154.1 0ZM169 0M177 -6.453Q177 -9.406 174.6 -9.406Q172.1 -9.406 171.9 -6.453L177 -6.453M178.9 -1.859L178.9 -0.3438Q177 0.25 175.2 0.25Q172.8 0.25 171.3 -1.297Q169.8 -2.844 169.8 -5.438Q169.8 -7.906 171.1 -9.375Q172.4 -10.84 174.6 -10.84Q179 -10.84 179 -5.594L178.9 -5L171.9 -5Q172.1 -1.219 175.7 -1.219Q177.2 -1.219 178.9 -1.859ZM185.7 0M187.2 0L187.2 -15.42L189.1 -15.42L189.1 -8.609Q190.7 -10.84 192.7 -10.84Q195.4 -10.84 195.4 -7.625L195.4 0L193.5 0L193.5 -7Q193.5 -8.266 193.2 -8.734Q193 -9.188 192.2 -9.188Q190.6 -9.188 189.1 -6.859L189.1 0L187.2 0ZM196.8 0M204.4 -1.344Q202.6 0.25 200.9 0.25Q199.5 0.25 198.6 -0.5625Q197.7 -1.375 197.7 -2.672Q197.7 -6.266 203.6 -6.266L204.1 -6.266L204.1 -7.547Q204.1 -9.391 202.1 -9.391Q200.4 -9.391 198.7 -8.453L198.7 -10.05Q200.6 -10.84 202.4 -10.84Q204.3 -10.84 205.2 -10.05Q206 -9.266 206 -7.547L206 -2.75Q206 -1.094 207 -1.094Q207.2 -1.094 207.4 -1.141L207.5 -0.0625Q206.9 0.25 206.1 0.25Q204.8 0.25 204.4 -1.344M204.1 -2.391L204.1 -5.141L203.5 -5.156Q199.7 -5.156 199.7 -3.016Q199.7 -1.328 201.5 -1.328Q202.8 -1.328 204.1 -2.391ZM207.9 0M209.4 0L209.4 -10.61L211.4 -10.61L211.4 -8.609Q212.9 -10.84 215 -10.84Q217.7 -10.84 217.7 -7.625L217.7 0L215.7 0L215.7 -7Q215.7 -8.266 215.5 -8.734Q215.2 -9.188 214.5 -9.188Q212.8 -9.188 211.4 -6.859L211.4 0L209.4 0ZM219.1 0M226.8 -3.734L226.8 -9.156Q225.4 -9.391 224.8 -9.391Q222 -9.391 222 -5.172Q222 -3.453 222.5 -2.438Q223.1 -1.453 224 -1.453Q225.3 -1.453 226.8 -3.734M226.8 -1.984Q225.6 0.25 223.6 0.25Q221.9 0.25 220.9 -1.188Q219.9 -2.641 219.9 -5Q219.9 -7.797 221.2 -9.312Q222.5 -10.84 224.9 -10.84Q225.8 -10.84 226.8 -10.61L226.8 -15.42L228.7 -15.42L228.7 0L226.8 0L226.8 -1.984ZM230.2 0M233.6 -3.281Q233.6 -2.719 233.7 -2.328Q233.8 -1.938 234 -1.688Q234.2 -1.438 234.6 -1.312Q234.9 -1.203 235.3 -1.219L235.3 0.1875Q235.1 0.25 234.7 0.25Q234.1 0.25 233.5 0.03125Q232.9 -0.1875 232.5 -0.5938Q232.1 -1 231.9 -1.578Q231.7 -2.172 231.7 -2.938L231.7 -15.42L233.6 -15.42L233.6 -3.281ZM235.5 0M243.5 -6.453Q243.5 -9.406 241.1 -9.406Q238.7 -9.406 238.4 -6.453L243.5 -6.453M245.4 -1.859L245.4 -0.3438Q243.5 0.25 241.8 0.25Q239.3 0.25 237.8 -1.297Q236.4 -2.844 236.4 -5.438Q236.4 -7.906 237.7 -9.375Q239 -10.84 241.2 -10.84Q245.5 -10.84 245.5 -5.594L245.5 -5L238.4 -5Q238.7 -1.219 242.2 -1.219Q243.7 -1.219 245.4 -1.859ZM252.2 0M257.4 0.0625Q256.8 0.25 256.3 0.25Q253.7 0.25 253.7 -2.938L253.7 -9.156L252.5 -9.156L252.5 -10.61L253.7 -10.61L253.7 -12.83L255.6 -13.02L255.6 -10.61L258 -10.61L258 -9.156L255.6 -9.156L255.6 -3.281Q255.6 -2.016 255.9 -1.609Q256.1 -1.203 256.8 -1.203Q257.1 -1.203 257.4 -1.312L257.4 0.0625ZM257.9 0M259.4 0L259.4 -15.42L261.3 -15.42L261.3 -8.609Q262.9 -10.84 264.9 -10.84Q267.6 -10.84 267.6 -7.625L267.6 0L265.7 0L265.7 -7Q265.7 -8.266 265.4 -8.734Q265.2 -9.188 264.4 -9.188Q262.8 -9.188 261.3 -6.859L261.3 0L259.4 0ZM269 0M277 -6.453Q277 -9.406 274.6 -9.406Q272.1 -9.406 271.9 -6.453L277 -6.453M278.9 -1.859L278.9 -0.3438Q277 0.25 275.2 0.25Q272.8 0.25 271.3 -1.297Q269.9 -2.844 269.9 -5.438Q269.9 -7.906 271.1 -9.375Q272.4 -10.84 274.6 -10.84Q279 -10.84 279 -5.594L279 -5L271.9 -5Q272.2 -1.219 275.7 -1.219Q277.2 -1.219 278.9 -1.859ZM285.7 0M287.2 0L287.2 -10.61L289.1 -10.61L289.1 0L287.2 0M287.1 -12.53L287.1 -14.66L289.2 -14.66L289.2 -12.53L287.1 -12.53ZM290.6 0M292.1 0L292.1 -10.61L294.1 -10.61L294.1 -8.609Q295.6 -10.84 297.7 -10.84Q300.4 -10.84 300.4 -7.625L300.4 0L298.4 0L298.4 -7Q298.4 -8.266 298.2 -8.734Q297.9 -9.188 297.2 -9.188Q295.5 -9.188 294.1 -6.859L294.1 0L292.1 0ZM301.8 0M303.5 0L303.5 -9.156L302.1 -9.156L302.1 -10.61L303.5 -10.61L303.5 -11.88Q303.5 -15.67 306.5 -15.67Q307.1 -15.67 307.9 -15.41L307.9 -13.88Q307.2 -14.22 306.7 -14.22Q306 -14.22 305.7 -13.73Q305.4 -13.27 305.4 -12.08L305.4 -10.61L307.6 -10.61L307.6 -9.156L305.4 -9.156L305.4 0L303.5 0ZM307.3 0M308.8 0L308.8 -10.61L310.8 -10.61L310.8 -8.609Q311.6 -10.84 313.3 -10.84Q313.5 -10.84 313.9 -10.8L313.9 -9Q313.4 -9.156 313 -9.156Q311.9 -9.156 310.8 -7L310.8 0L308.8 0ZM314 0M321.5 -1.344Q319.8 0.25 318 0.25Q316.7 0.25 315.8 -0.5625Q314.9 -1.375 314.9 -2.672Q314.9 -6.266 320.8 -6.266L321.3 -6.266L321.3 -7.547Q321.3 -9.391 319.2 -9.391Q317.6 -9.391 315.8 -8.453L315.8 -10.05Q317.8 -10.84 319.6 -10.84Q321.5 -10.84 322.3 -10.05Q323.2 -9.266 323.2 -7.547L323.2 -2.75Q323.2 -1.094 324.2 -1.094Q324.3 -1.094 324.6 -1.141L324.7 -0.0625Q324 0.25 323.3 0.25Q321.9 0.25 321.5 -1.344M321.3 -2.391L321.3 -5.141L320.6 -5.156Q316.9 -5.156 316.9 -3.016Q316.9 -1.328 318.7 -1.328Q320 -1.328 321.3 -2.391ZM325.1 0M326.3 -0.375L326.3 -2.141Q328.1 -1.203 329.8 -1.203Q332 -1.203 332 -2.812Q332 -3.828 330.5 -4.344L328.8 -4.906Q326.3 -5.734 326.3 -7.859Q326.3 -10.84 330.4 -10.84Q331.5 -10.84 333.2 -10.53L333.2 -8.922Q331.8 -9.391 330.2 -9.391Q328.2 -9.391 328.2 -8.047Q328.2 -7.125 329.6 -6.672L331.1 -6.172Q334 -5.219 334 -2.969Q334 -1.469 332.8 -0.6094Q331.7 0.25 329.7 0.25Q328.1 0.25 326.3 -0.375ZM335.1 0M340.3 0.0625Q339.7 0.25 339.2 0.25Q336.6 0.25 336.6 -2.938L336.6 -9.156L335.4 -9.156L335.4 -10.61L336.6 -10.61L336.6 -12.83L338.5 -13.02L338.5 -10.61L340.9 -10.61L340.9 -9.156L338.5 -9.156L338.5 -3.281Q338.5 -2.016 338.7 -1.609Q339 -1.203 339.6 -1.203Q340 -1.203 340.3 -1.312L340.3 0.0625ZM340.8 0M342.3 0L342.3 -10.61L344.2 -10.61L344.2 -8.609Q345.1 -10.84 346.7 -10.84Q347 -10.84 347.3 -10.8L347.3 -9Q346.8 -9.156 346.5 -9.156Q345.4 -9.156 344.2 -7L344.2 0L342.3 0ZM347.4 0M355.1 0L355.1 -1.984Q353.6 0.25 351.5 0.25Q348.8 0.25 348.8 -2.984L348.8 -10.61L350.7 -10.61L350.7 -3.609Q350.7 -2.328 351 -1.875Q351.3 -1.422 352 -1.422Q353.7 -1.422 355.1 -3.734L355.1 -10.61L357 -10.61L357 0L355.1 0ZM358.5 0M367.6 -0.3281Q365.9 0.25 364.2 0.25Q362.1 0.25 360.7 -1.297Q359.4 -2.828 359.4 -5.281Q359.4 -7.906 360.7 -9.359Q362.1 -10.84 364.5 -10.84Q365.8 -10.84 367.5 -10.48L367.5 -8.891Q365.9 -9.359 364.9 -9.359Q361.5 -9.359 361.5 -5.281Q361.5 -3.391 362.4 -2.344Q363.3 -1.312 364.8 -1.312Q366.1 -1.312 367.6 -1.984L367.6 -0.3281ZM368.5 0M373.7 0.0625Q373.2 0.25 372.7 0.25Q370 0.25 370 -2.938L370 -9.156L368.8 -9.156L368.8 -10.61L370 -10.61L370 -12.83L372 -13.02L372 -10.61L374.3 -10.61L374.3 -9.156L372 -9.156L372 -3.281Q372 -2.016 372.2 -1.609Q372.4 -1.203 373.1 -1.203Q373.5 -1.203 373.7 -1.312L373.7 0.0625ZM374.2 0M381.9 0L381.9 -1.984Q380.4 0.25 378.3 0.25Q375.6 0.25 375.6 -2.984L375.6 -10.61L377.5 -10.61L377.5 -3.609Q377.5 -2.328 377.8 -1.875Q378 -1.422 378.8 -1.422Q380.4 -1.422 381.9 -3.734L381.9 -10.61L383.8 -10.61L383.8 0L381.9 0ZM385.3 0M386.8 0L386.8 -10.61L388.8 -10.61L388.8 -8.609Q389.6 -10.84 391.3 -10.84Q391.5 -10.84 391.9 -10.8L391.9 -9Q391.4 -9.156 391 -9.156Q389.9 -9.156 388.8 -7L388.8 0L386.8 0ZM392 0M400 -6.453Q400 -9.406 397.6 -9.406Q395.1 -9.406 394.9 -6.453L400 -6.453M401.9 -1.859L401.9 -0.3438Q400 0.25 398.2 0.25Q395.8 0.25 394.3 -1.297Q392.8 -2.844 392.8 -5.438Q392.8 -7.906 394.1 -9.375Q395.4 -10.84 397.6 -10.84Q401.9 -10.84 401.9 -5.594L401.9 -5L394.8 -5Q395.1 -1.219 398.6 -1.219Q400.2 -1.219 401.9 -1.859ZM403.1 0M405.1 3.422L405.1 2.703Q406 2.438 406 0.2031L406 0L405.1 0L405.1 -2.406L407.5 -2.406L407.5 -0.3281Q407.5 3.422 405.1 3.422ZM415 0M416.1 -0.375L416.1 -2.141Q418 -1.203 419.7 -1.203Q421.9 -1.203 421.9 -2.812Q421.9 -3.828 420.4 -4.344L418.7 -4.906Q416.2 -5.734 416.2 -7.859Q416.2 -10.84 420.3 -10.84Q421.4 -10.84 423.1 -10.53L423.1 -8.922Q421.6 -9.391 420.1 -9.391Q418.1 -9.391 418.1 -8.047Q418.1 -7.125 419.5 -6.672L421 -6.172Q423.9 -5.219 423.9 -2.969Q423.9 -1.469 422.7 -0.6094Q421.6 0.25 419.6 0.25Q418 0.25 416.1 -0.375ZM425 0M434 -0.3281Q432.4 0.25 430.6 0.25Q428.5 0.25 427.2 -1.297Q425.8 -2.828 425.8 -5.281Q425.8 -7.906 427.2 -9.359Q428.6 -10.84 431 -10.84Q432.3 -10.84 433.9 -10.48L433.9 -8.891Q432.4 -9.359 431.4 -9.359Q428 -9.359 428 -5.281Q428 -3.391 428.8 -2.344Q429.7 -1.312 431.3 -1.312Q432.5 -1.312 434 -1.984L434 -0.3281ZM435 0M442.6 -1.344Q440.8 0.25 439.1 0.25Q437.7 0.25 436.8 -0.5625Q435.9 -1.375 435.9 -2.672Q435.9 -6.266 441.8 -6.266L442.3 -6.266L442.3 -7.547Q442.3 -9.391 440.2 -9.391Q438.6 -9.391 436.8 -8.453L436.8 -10.05Q438.8 -10.84 440.6 -10.84Q442.5 -10.84 443.3 -10.05Q444.2 -9.266 444.2 -7.547L444.2 -2.75Q444.2 -1.094 445.2 -1.094Q445.3 -1.094 445.6 -1.141L445.7 -0.0625Q445.1 0.25 444.3 0.25Q442.9 0.25 442.6 -1.344M442.3 -2.391L442.3 -5.141L441.6 -5.156Q437.9 -5.156 437.9 -3.016Q437.9 -1.328 439.7 -1.328Q441 -1.328 442.3 -2.391ZM446.1 0M449.5 -3.281Q449.5 -2.719 449.7 -2.328Q449.8 -1.938 450 -1.688Q450.2 -1.438 450.5 -1.312Q450.8 -1.203 451.2 -1.219L451.2 0.1875Q451 0.25 450.6 0.25Q450 0.25 449.4 0.03125Q448.9 -0.1875 448.5 -0.5938Q448.1 -1 447.8 -1.578Q447.6 -2.172 447.6 -2.938L447.6 -15.42L449.5 -15.42L449.5 -3.281ZM451.5 0M453 0L453 -10.61L454.9 -10.61L454.9 0L453 0M452.9 -12.53L452.9 -14.66L455 -14.66L455 -12.53L452.9 -12.53ZM456.4 0M457.9 0L457.9 -10.61L459.8 -10.61L459.8 -8.609Q461.4 -10.84 463.4 -10.84Q466.2 -10.84 466.2 -7.625L466.2 0L464.2 0L464.2 -7Q464.2 -8.266 464 -8.734Q463.7 -9.188 463 -9.188Q461.3 -9.188 459.8 -6.859L459.8 0L457.9 0ZM467.5 0M475.3 -4.219L475.3 -9.156Q474 -9.391 473.3 -9.391Q470.5 -9.391 470.5 -5.609Q470.5 -3.922 471.1 -2.922Q471.6 -1.922 472.6 -1.922Q473.8 -1.922 475.3 -4.219M475.3 -2.469Q474.2 -0.25 472.1 -0.25Q470.5 -0.25 469.5 -1.656Q468.5 -3.094 468.5 -5.375Q468.5 -7.984 469.7 -9.406Q471.1 -10.84 473.4 -10.84Q474.4 -10.84 475.3 -10.61L477.2 -10.61L477.2 -2.891Q477.2 -0.3906 477 0.7969Q476.7 2 476 2.75Q474.7 4.109 472.1 4.109Q470.2 4.109 468.5 3.531L468.5 1.859Q470.6 2.641 472.1 2.641Q475.3 2.641 475.3 -0.7969L475.3 -2.469ZM478.7 0M480.6 3.422L480.6 2.703Q481.6 2.438 481.6 0.2031L481.6 0L480.6 0L480.6 -2.406L483 -2.406L483 -0.3281Q483 3.422 480.6 3.422ZM490.6 0M498.1 -1.344Q496.4 0.25 494.6 0.25Q493.2 0.25 492.4 -0.5625Q491.5 -1.375 491.5 -2.672Q491.5 -6.266 497.4 -6.266L497.8 -6.266L497.8 -7.547Q497.8 -9.391 495.8 -9.391Q494.2 -9.391 492.4 -8.453L492.4 -10.05Q494.4 -10.84 496.2 -10.84Q498 -10.84 498.9 -10.05Q499.8 -9.266 499.8 -7.547L499.8 -2.75Q499.8 -1.094 500.8 -1.094Q500.9 -1.094 501.2 -1.141L501.3 -0.0625Q500.6 0.25 499.8 0.25Q498.5 0.25 498.1 -1.344M497.8 -2.391L497.8 -5.141L497.2 -5.156Q493.5 -5.156 493.5 -3.016Q493.5 -1.328 495.3 -1.328Q496.5 -1.328 497.8 -2.391ZM501.7 0M503.2 0L503.2 -10.61L505.1 -10.61L505.1 -8.609Q506.7 -10.84 508.7 -10.84Q511.4 -10.84 511.4 -7.625L511.4 0L509.5 0L509.5 -7Q509.5 -8.266 509.2 -8.734Q509 -9.188 508.2 -9.188Q506.6 -9.188 505.1 -6.859L505.1 0L503.2 0ZM512.8 0M520.5 -3.734L520.5 -9.156Q519.2 -9.391 518.5 -9.391Q515.7 -9.391 515.7 -5.172Q515.7 -3.453 516.3 -2.438Q516.8 -1.453 517.8 -1.453Q519 -1.453 520.5 -3.734M520.5 -1.984Q519.3 0.25 517.3 0.25Q515.7 0.25 514.7 -1.188Q513.7 -2.641 513.7 -5Q513.7 -7.797 515 -9.312Q516.3 -10.84 518.7 -10.84Q519.6 -10.84 520.5 -10.61L520.5 -15.42L522.4 -15.42L522.4 0L520.5 0L520.5 -1.984ZM529.5 0M531 0L531 -10.61L532.9 -10.61L532.9 -8.609Q533.8 -9.969 534.4 -10.41Q535 -10.84 536 -10.84Q538.1 -10.84 538.9 -8.609Q539.8 -9.969 540.3 -10.41Q541 -10.84 541.9 -10.84Q544.8 -10.84 544.8 -7.719L544.8 0L542.8 0L542.8 -7.406Q542.8 -9.234 541.4 -9.234Q540.1 -9.234 538.9 -7.109L538.9 0L536.9 0L536.9 -7.406Q536.9 -9.234 535.5 -9.234Q534.2 -9.234 532.9 -7.109L532.9 0L531 0ZM546.2 0M551.6 0.25Q549.5 0.25 548.3 -1.266Q547 -2.766 547 -5.297Q547 -7.875 548.3 -9.359Q549.5 -10.84 551.7 -10.84Q553.9 -10.84 555.2 -9.359Q556.4 -7.875 556.4 -5.328Q556.4 -2.703 555.2 -1.234Q553.9 0.25 551.6 0.25M551.7 -1.203Q554.3 -1.203 554.3 -5.359Q554.3 -9.391 551.7 -9.391Q549.1 -9.391 549.1 -5.297Q549.1 -1.203 551.7 -1.203ZM557.3 0M558.8 0L558.8 -10.61L560.7 -10.61L560.7 -8.609Q562.3 -10.84 564.3 -10.84Q567 -10.84 567 -7.625L567 0L565.1 0L565.1 -7Q565.1 -8.266 564.8 -8.734Q564.5 -9.188 563.8 -9.188Q562.2 -9.188 560.7 -6.859L560.7 0L558.8 0ZM568.4 0M569.9 0L569.9 -10.61L571.8 -10.61L571.8 0L569.9 0M569.8 -12.53L569.8 -14.66L571.9 -14.66L571.9 -12.53L569.8 -12.53ZM573.3 0M578.5 0.0625Q578 0.25 577.5 0.25Q574.8 0.25 574.8 -2.938L574.8 -9.156L573.6 -9.156L573.6 -10.61L574.8 -10.61L574.8 -12.83L576.7 -13.02L576.7 -10.61L579.1 -10.61L579.1 -9.156L576.7 -9.156L576.7 -3.281Q576.7 -2.016 577 -1.609Q577.2 -1.203 577.9 -1.203Q578.2 -1.203 578.5 -1.312L578.5 0.0625ZM579 0M584.5 0.25Q582.3 0.25 581.1 -1.266Q579.8 -2.766 579.8 -5.297Q579.8 -7.875 581.1 -9.359Q582.4 -10.84 584.6 -10.84Q586.7 -10.84 588 -9.359Q589.3 -7.875 589.3 -5.328Q589.3 -2.703 588 -1.234Q586.7 0.25 584.5 0.25M584.5 -1.203Q587.2 -1.203 587.2 -5.359Q587.2 -9.391 584.6 -9.391Q581.9 -9.391 581.9 -5.297Q581.9 -1.203 584.5 -1.203ZM590.1 0M591.6 0L591.6 -10.61L593.5 -10.61L593.5 -8.609Q594.4 -10.84 596.1 -10.84Q596.3 -10.84 596.7 -10.8L596.7 -9Q596.2 -9.156 595.8 -9.156Q594.7 -9.156 593.5 -7L593.5 0L591.6 0ZM596.8 0M598.3 0L598.3 -10.61L600.2 -10.61L600.2 0L598.3 0M598.2 -12.53L598.2 -14.66L600.3 -14.66L600.3 -12.53L598.2 -12.53ZM601.7 0M603.2 0L603.2 -10.61L605.1 -10.61L605.1 -8.609Q606.7 -10.84 608.7 -10.84Q611.5 -10.84 611.5 -7.625L611.5 0L609.5 0L609.5 -7Q609.5 -8.266 609.2 -8.734Q609 -9.188 608.2 -9.188Q606.6 -9.188 605.1 -6.859L605.1 0L603.2 0ZM612.8 0M620.6 -4.219L620.6 -9.156Q619.3 -9.391 618.6 -9.391Q615.8 -9.391 615.8 -5.609Q615.8 -3.922 616.4 -2.922Q616.9 -1.922 617.9 -1.922Q619.1 -1.922 620.6 -4.219M620.6 -2.469Q619.5 -0.25 617.4 -0.25Q615.8 -0.25 614.8 -1.656Q613.7 -3.094 613.7 -5.375Q613.7 -7.984 615 -9.406Q616.4 -10.84 618.7 -10.84Q619.7 -10.84 620.6 -10.61L622.5 -10.61L622.5 -2.891Q622.5 -0.3906 622.3 0.7969Q622 2 621.3 2.75Q620 4.109 617.4 4.109Q615.5 4.109 613.8 3.531L613.8 1.859Q615.9 2.641 617.4 2.641Q620.6 2.641 620.6 -0.7969L620.6 -2.469ZM629.5 0M630.7 -0.375L630.7 -2.141Q632.6 -1.203 634.2 -1.203Q636.5 -1.203 636.5 -2.812Q636.5 -3.828 634.9 -4.344L633.2 -4.906Q630.7 -5.734 630.7 -7.859Q630.7 -10.84 634.8 -10.84Q636 -10.84 637.6 -10.53L637.6 -8.922Q636.2 -9.391 634.6 -9.391Q632.6 -9.391 632.6 -8.047Q632.6 -7.125 634 -6.672L635.5 -6.172Q638.4 -5.219 638.4 -2.969Q638.4 -1.469 637.3 -0.6094Q636.1 0.25 634.2 0.25Q632.6 0.25 630.7 -0.375ZM639.5 0M645 0.25Q642.9 0.25 641.6 -1.266Q640.4 -2.766 640.4 -5.297Q640.4 -7.875 641.6 -9.359Q642.9 -10.84 645.1 -10.84Q647.3 -10.84 648.5 -9.359Q649.8 -7.875 649.8 -5.328Q649.8 -2.703 648.5 -1.234Q647.3 0.25 645 0.25M645 -1.203Q647.7 -1.203 647.7 -5.359Q647.7 -9.391 645.1 -9.391Q642.5 -9.391 642.5 -5.297Q642.5 -1.203 645 -1.203ZM656.2 0M660.2 0L656.4 -10.61L658.4 -10.61L661.2 -2.469L664.4 -10.61L666.1 -10.61L660.5 3.859L658.5 3.859L660.2 0ZM666.2 0M671.7 0.25Q669.6 0.25 668.3 -1.266Q667.1 -2.766 667.1 -5.297Q667.1 -7.875 668.3 -9.359Q669.6 -10.84 671.8 -10.84Q674 -10.84 675.2 -9.359Q676.5 -7.875 676.5 -5.328Q676.5 -2.703 675.2 -1.234Q674 0.25 671.7 0.25M671.7 -1.203Q674.4 -1.203 674.4 -5.359Q674.4 -9.391 671.8 -9.391Q669.1 -9.391 669.1 -5.297Q669.1 -1.203 671.7 -1.203ZM677.3 0M685 0L685 -1.984Q683.5 0.25 681.5 0.25Q678.7 0.25 678.7 -2.984L678.7 -10.61L680.7 -10.61L680.7 -3.609Q680.7 -2.328 680.9 -1.875Q681.2 -1.422 681.9 -1.422Q683.6 -1.422 685 -3.734L685 -10.61L687 -10.61L687 0L685 0ZM694 0M703.1 -0.3281Q701.4 0.25 699.7 0.25Q697.5 0.25 696.2 -1.297Q694.9 -2.828 694.9 -5.281Q694.9 -7.906 696.2 -9.359Q697.6 -10.84 700 -10.84Q701.3 -10.84 703 -10.48L703 -8.891Q701.4 -9.359 700.4 -9.359Q697 -9.359 697 -5.281Q697 -3.391 697.9 -2.344Q698.8 -1.312 700.3 -1.312Q701.5 -1.312 703.1 -1.984L703.1 -0.3281ZM704 0M711.6 -1.344Q709.9 0.25 708.1 0.25Q706.7 0.25 705.8 -0.5625Q705 -1.375 705 -2.672Q705 -6.266 710.9 -6.266L711.3 -6.266L711.3 -7.547Q711.3 -9.391 709.3 -9.391Q707.6 -9.391 705.9 -8.453L705.9 -10.05Q707.8 -10.84 709.6 -10.84Q711.5 -10.84 712.4 -10.05Q713.2 -9.266 713.2 -7.547L713.2 -2.75Q713.2 -1.094 714.3 -1.094Q714.4 -1.094 714.6 -1.141L714.8 -0.0625Q714.1 0.25 713.3 0.25Q712 0.25 711.6 -1.344M711.3 -2.391L711.3 -5.141L710.7 -5.156Q707 -5.156 707 -3.016Q707 -1.328 708.7 -1.328Q710 -1.328 711.3 -2.391ZM715.2 0M716.7 0L716.7 -10.61L718.6 -10.61L718.6 -8.609Q720.1 -10.84 722.2 -10.84Q724.9 -10.84 724.9 -7.625L724.9 0L723 0L723 -7Q723 -8.266 722.7 -8.734Q722.4 -9.188 721.7 -9.188Q720 -9.188 718.6 -6.859L718.6 0L716.7 0ZM731.8 0M733.5 0L733.5 -9.156L732.1 -9.156L732.1 -10.61L733.5 -10.61L733.5 -11.88Q733.5 -15.67 736.6 -15.67Q737.2 -15.67 738 -15.41L738 -13.88Q737.3 -14.22 736.8 -14.22Q736 -14.22 735.8 -13.73Q735.5 -13.27 735.5 -12.08L735.5 -10.61L737.7 -10.61L737.7 -9.156L735.5 -9.156L735.5 0L733.5 0ZM737.4 0M742.9 0.25Q740.8 0.25 739.5 -1.266Q738.3 -2.766 738.3 -5.297Q738.3 -7.875 739.5 -9.359Q740.8 -10.84 743 -10.84Q745.1 -10.84 746.4 -9.359Q747.7 -7.875 747.7 -5.328Q747.7 -2.703 746.4 -1.234Q745.1 0.25 742.9 0.25M742.9 -1.203Q745.6 -1.203 745.6 -5.359Q745.6 -9.391 743 -9.391Q740.3 -9.391 740.3 -5.297Q740.3 -1.203 742.9 -1.203ZM748.5 0M757.6 -0.3281Q755.9 0.25 754.2 0.25Q752 0.25 750.7 -1.297Q749.4 -2.828 749.4 -5.281Q749.4 -7.906 750.7 -9.359Q752.1 -10.84 754.5 -10.84Q755.8 -10.84 757.5 -10.48L757.5 -8.891Q755.9 -9.359 754.9 -9.359Q751.5 -9.359 751.5 -5.281Q751.5 -3.391 752.4 -2.344Q753.3 -1.312 754.8 -1.312Q756 -1.312 757.6 -1.984L757.6 -0.3281ZM758.5 0M766.2 0L766.2 -1.984Q764.7 0.25 762.6 0.25Q759.9 0.25 759.9 -2.984L759.9 -10.61L761.8 -10.61L761.8 -3.609Q761.8 -2.328 762.1 -1.875Q762.4 -1.422 763.1 -1.422Q764.8 -1.422 766.2 -3.734L766.2 -10.61L768.1 -10.61L768.1 0L766.2 0ZM769.7 0M770.8 -0.375L770.8 -2.141Q772.7 -1.203 774.4 -1.203Q776.6 -1.203 776.6 -2.812Q776.6 -3.828 775 -4.344L773.3 -4.906Q770.8 -5.734 770.8 -7.859Q770.8 -10.84 774.9 -10.84Q776.1 -10.84 777.7 -10.53L777.7 -8.922Q776.3 -9.391 774.7 -9.391Q772.8 -9.391 772.8 -8.047Q772.8 -7.125 774.1 -6.672L775.7 -6.172Q778.5 -5.219 778.5 -2.969Q778.5 -1.469 777.4 -0.6094Q776.3 0.25 774.3 0.25Q772.7 0.25 770.8 -0.375ZM785.2 0M790.7 0.25Q788.6 0.25 787.3 -1.266Q786.1 -2.766 786.1 -5.297Q786.1 -7.875 787.3 -9.359Q788.6 -10.84 790.8 -10.84Q793 -10.84 794.2 -9.359Q795.5 -7.875 795.5 -5.328Q795.5 -2.703 794.2 -1.234Q793 0.25 790.7 0.25M790.7 -1.203Q793.4 -1.203 793.4 -5.359Q793.4 -9.391 790.8 -9.391Q788.1 -9.391 788.1 -5.297Q788.1 -1.203 790.7 -1.203ZM796.3 0M797.8 0L797.8 -10.61L799.8 -10.61L799.8 -8.609Q801.3 -10.84 803.4 -10.84Q806.1 -10.84 806.1 -7.625L806.1 0L804.1 0L804.1 -7Q804.1 -8.266 803.9 -8.734Q803.6 -9.188 802.9 -9.188Q801.2 -9.188 799.8 -6.859L799.8 0L797.8 0ZM813 0M814.2 -0.375L814.2 -2.141Q816.1 -1.203 817.7 -1.203Q820 -1.203 820 -2.812Q820 -3.828 818.4 -4.344L816.7 -4.906Q814.2 -5.734 814.2 -7.859Q814.2 -10.84 818.3 -10.84Q819.5 -10.84 821.1 -10.53L821.1 -8.922Q819.7 -9.391 818.1 -9.391Q816.1 -9.391 816.1 -8.047Q816.1 -7.125 817.5 -6.672L819 -6.172Q821.9 -5.219 821.9 -2.969Q821.9 -1.469 820.8 -0.6094Q819.6 0.25 817.7 0.25Q816.1 0.25 814.2 -0.375ZM823 0M824.5 0L824.5 -15.42L826.5 -15.42L826.5 -8.609Q828 -10.84 830 -10.84Q832.8 -10.84 832.8 -7.625L832.8 0L830.8 0L830.8 -7Q830.8 -8.266 830.6 -8.734Q830.3 -9.188 829.6 -9.188Q827.9 -9.188 826.5 -6.859L826.5 0L824.5 0ZM834.2 0M835.7 0L835.7 -10.61L837.6 -10.61L837.6 0L835.7 0M835.6 -12.53L835.6 -14.66L837.7 -14.66L837.7 -12.53L835.6 -12.53ZM839.1 0M842.5 3.859L840.6 3.859L840.6 -10.61L842.5 -10.61L842.5 -8.609Q843.7 -10.84 845.7 -10.84Q847.3 -10.84 848.4 -9.406Q849.4 -7.969 849.4 -5.609Q849.4 -2.797 848.1 -1.281Q846.8 0.25 844.4 0.25Q843.4 0.25 842.5 0L842.5 3.859M842.5 -6.859L842.5 -1.453Q843.8 -1.203 844.5 -1.203Q847.3 -1.203 847.3 -5.438Q847.3 -7.156 846.7 -8.156Q846.2 -9.156 845.3 -9.156Q844 -9.156 842.5 -6.859ZM850.2 0M853.6 3.859L851.7 3.859L851.7 -10.61L853.6 -10.61L853.6 -8.609Q854.8 -10.84 856.8 -10.84Q858.5 -10.84 859.5 -9.406Q860.5 -7.969 860.5 -5.609Q860.5 -2.797 859.2 -1.281Q857.9 0.25 855.5 0.25Q854.6 0.25 853.6 0L853.6 3.859M853.6 -6.859L853.6 -1.453Q855 -1.203 855.7 -1.203Q858.4 -1.203 858.4 -5.438Q858.4 -7.156 857.9 -8.156Q857.3 -9.156 856.4 -9.156Q855.1 -9.156 853.6 -6.859ZM861.3 0M862.8 0L862.8 -10.61L864.8 -10.61L864.8 0L862.8 0M862.7 -12.53L862.7 -14.66L864.9 -14.66L864.9 -12.53L862.7 -12.53ZM866.3 0M867.8 0L867.8 -10.61L869.7 -10.61L869.7 -8.609Q871.3 -10.84 873.3 -10.84Q876 -10.84 876 -7.625L876 0L874.1 0L874.1 -7Q874.1 -8.266 873.8 -8.734Q873.5 -9.188 872.8 -9.188Q871.2 -9.188 869.7 -6.859L869.7 0L867.8 0ZM877.4 0M885.2 -4.219L885.2 -9.156Q883.8 -9.391 883.2 -9.391Q880.4 -9.391 880.4 -5.609Q880.4 -3.922 880.9 -2.922Q881.5 -1.922 882.4 -1.922Q883.7 -1.922 885.2 -4.219M885.2 -2.469Q884 -0.25 882 -0.25Q880.4 -0.25 879.3 -1.656Q878.3 -3.094 878.3 -5.375Q878.3 -7.984 879.6 -9.406Q880.9 -10.84 883.3 -10.84Q884.3 -10.84 885.2 -10.61L887.1 -10.61L887.1 -2.891Q887.1 -0.3906 886.8 0.7969Q886.6 2 885.9 2.75Q884.6 4.109 882 4.109Q880.1 4.109 878.4 3.531L878.4 1.859Q880.4 2.641 881.9 2.641Q885.2 2.641 885.2 -0.7969L885.2 -2.469ZM888.5 0M889.8 0L889.8 -3.141L892.9 -3.141L892.9 0L889.8 0Z" fill="#94a3b8" transform="translate(64,358.1)"/><rect x="64" y="521.8" width="161.6" height="43.2" fill="#8b5cf6"/><path d="M0.7969 -0.1094L0.7969 -2.078Q3.016 -1.297 4.891 -1.297Q7.547 -1.297 7.547 -2.844Q7.547 -3.844 6.531 -4.266L5.469 -4.672L4.188 -5.156Q2.156 -5.938 1.469 -6.641Q0.7812 -7.344 0.7812 -8.641Q0.7812 -11.86 5.5 -11.86Q7.484 -11.86 9.266 -11.45L9.266 -9.625Q7.406 -10.27 5.672 -10.27Q4.25 -10.27 3.703 -9.969Q3.156 -9.672 3.156 -8.906Q3.156 -8.422 3.422 -8.156Q3.688 -7.875 4.453 -7.594L5.344 -7.25L6.672 -6.766Q8.594 -6.047 9.328 -5.281Q10.08 -4.516 10.08 -3.219Q10.08 -1.406 8.719 -0.5469Q7.375 0.2969 4.484 0.2969Q3.391 0.2969 2.031 0.09375L0.7969 -0.1094ZM10.67 0M14.81 0.04688Q14.36 0.2031 13.95 0.2031Q11.86 0.2031 11.86 -2.344L11.86 -7.328L10.87 -7.328L10.87 -8.484L11.86 -8.484L11.86 -10.27L13.41 -10.41L13.41 -8.484L15.28 -8.484L15.28 -7.328L13.41 -7.328L13.41 -2.625Q13.41 -1.609 13.58 -1.281Q13.75 -0.9688 14.28 -0.9688Q14.61 -0.9688 14.81 -1.047L14.81 0.04688ZM15.2 0M23.61 -1.328L23.67 -0.03125Q22.94 0.2031 22.38 0.2031Q20.95 0.2031 20.55 -0.9219L20.44 -0.9219Q19.61 0.2031 18.28 0.2031Q17.14 0.2031 16.44 -0.5Q15.75 -1.188 15.75 -2.312Q15.75 -5.234 19.83 -5.234L20.44 -5.234L20.44 -6.016Q20.44 -7.359 19.09 -7.359Q17.89 -7.359 16.5 -6.594L16.5 -8.188Q17.92 -8.781 19.47 -8.781Q22.66 -8.781 22.66 -6.094L22.66 -2.297Q22.66 -1.297 23.3 -1.297Q23.42 -1.297 23.61 -1.328M20.44 -2.172L20.44 -3.906L19.89 -3.906Q17.97 -3.906 17.97 -2.516Q17.97 -2.031 18.28 -1.703Q18.61 -1.375 19.11 -1.375Q19.91 -1.375 20.44 -2.172ZM24.11 0M25.47 0L25.47 -8.578L27.78 -8.578L27.78 -7.156Q28.42 -8.781 29.7 -8.781Q29.88 -8.781 30.09 -8.734L30.09 -6.672Q29.66 -6.844 29.36 -6.844Q28.42 -6.844 27.78 -5.641L27.78 0L25.47 0ZM30.34 0M34.48 0.04688Q34.03 0.2031 33.62 0.2031Q31.53 0.2031 31.53 -2.344L31.53 -7.328L30.55 -7.328L30.55 -8.484L31.53 -8.484L31.53 -10.27L33.08 -10.41L33.08 -8.484L34.95 -8.484L34.95 -7.328L33.08 -7.328L33.08 -2.625Q33.08 -1.609 33.25 -1.281Q33.42 -0.9688 33.95 -0.9688Q34.28 -0.9688 34.48 -1.047L34.48 0.04688ZM39.33 0M40.69 0L40.69 -11.56L46.28 -11.56Q49.85 -11.56 49.85 -9Q49.85 -6.906 47.06 -6.047Q50.31 -5.266 50.31 -2.859Q50.31 -1.484 49.36 -0.7344Q48.42 0 46.64 0L40.69 0M42.95 -6.75L45.19 -6.75Q46.2 -6.75 46.8 -7.25Q47.39 -7.766 47.39 -8.609Q47.39 -9.406 46.91 -9.688Q46.44 -9.984 45.09 -9.984L42.95 -9.984L42.95 -6.75M42.95 -1.641L45.13 -1.641Q46.64 -1.641 47.22 -1.969Q47.8 -2.297 47.8 -3.141Q47.8 -4.031 47.02 -4.625Q46.25 -5.203 45.08 -5.203L42.95 -5.203L42.95 -1.641ZM50.89 0M57.2 0L57.2 -1.422Q55.89 0.2031 54.28 0.2031Q51.95 0.2031 51.95 -2.516L51.95 -8.578L54.27 -8.578L54.27 -3.094Q54.27 -2.25 54.47 -1.938Q54.66 -1.625 55.2 -1.625Q56.12 -1.625 57.2 -2.984L57.2 -8.578L59.52 -8.578L59.52 0L57.2 0ZM60.67 0M61.83 0L61.83 -8.578L64.14 -8.578L64.14 0L61.83 0M61.75 -10.14L61.75 -12.34L64.22 -12.34L64.22 -10.14L61.75 -10.14ZM65.3 0M68.05 -2.625Q68.05 -2.188 68.12 -1.859Q68.2 -1.547 68.37 -1.344Q68.55 -1.156 68.8 -1.062Q69.06 -0.9688 69.39 -0.9688L69.39 0.1562Q69.22 0.2031 68.92 0.2031Q68.41 0.2031 67.95 0.03125Q67.5 -0.1562 67.17 -0.4688Q66.84 -0.7969 66.67 -1.266Q66.5 -1.75 66.5 -2.344L66.5 -12.34L68.05 -12.34L68.05 -2.625ZM69.58 0M75.89 -1.422Q74.67 0.2031 73.2 0.2031Q71.86 0.2031 71.03 -0.9688Q70.2 -2.141 70.2 -4.062Q70.2 -6.281 71.27 -7.531Q72.34 -8.781 74.23 -8.781Q74.88 -8.781 75.89 -8.578L75.89 -12.34L78.2 -12.34L78.2 0L75.89 0L75.89 -1.422M75.89 -7.203Q75.02 -7.359 74.59 -7.359Q72.67 -7.359 72.67 -4.375Q72.67 -1.625 74.06 -1.625Q75 -1.625 75.89 -2.984L75.89 -7.203ZM79.36 0M80.52 0L80.52 -8.578L82.83 -8.578L82.83 0L80.52 0M80.44 -10.14L80.44 -12.34L82.91 -12.34L82.91 -10.14L80.44 -10.14ZM83.98 0M85.14 0L85.14 -8.578L87.45 -8.578L87.45 -7.156Q88.78 -8.781 90.38 -8.781Q92.7 -8.781 92.7 -6.062L92.7 0L90.39 0L90.39 -5.5Q90.39 -6.328 90.19 -6.641Q90 -6.953 89.47 -6.953Q88.53 -6.953 87.45 -5.594L87.45 0L85.14 0ZM93.77 0M100.1 -7.203Q99.2 -7.359 98.78 -7.359Q96.86 -7.359 96.86 -4.469Q96.86 -1.812 98.25 -1.812Q99.19 -1.812 100.1 -3.188L100.1 -7.203M100.1 -1.625Q98.86 0 97.39 0Q96.06 0 95.22 -1.156Q94.39 -2.312 94.39 -4.156Q94.39 -6.297 95.47 -7.531Q96.55 -8.781 98.42 -8.781Q99.06 -8.781 100.1 -8.578L102.4 -8.578L102.4 -2.031Q102.4 -0.07812 102.2 0.7969Q101.9 1.672 101.2 2.281Q100.1 3.281 97.97 3.281Q96.47 3.281 94.73 2.672L94.73 0.9688Q96.44 1.641 97.66 1.641Q98.94 1.641 99.5 1.094Q100.1 0.5469 100.1 -0.6875L100.1 -1.625Z" fill="#ffffff" transform="translate(92,548.9)"/><path d="M4.75 0L0.2812 -11.56L1.969 -11.56L5.656 -2.078L9.188 -11.56L10.59 -11.56L6.297 0L4.75 0ZM10.67 0M11.83 0L11.83 -8.578L14.14 -8.578L14.14 0L11.83 0M11.75 -10.14L11.75 -12.34L14.22 -12.34L14.22 -10.14L11.75 -10.14ZM15.3 0M23.36 -1.922L23.36 -0.2969Q21.92 0.2031 20.48 0.2031Q18.34 0.2031 17.11 -1.031Q15.87 -2.266 15.87 -4.406Q15.87 -6.391 16.95 -7.578Q18.03 -8.781 19.81 -8.781Q21.66 -8.781 22.5 -7.594Q23.36 -6.406 23.36 -3.828L18.31 -3.828Q18.56 -1.375 20.89 -1.375Q21.98 -1.375 23.36 -1.922M18.3 -5.141L21.08 -5.141Q21.08 -7.328 19.84 -7.328Q18.53 -7.328 18.3 -5.141ZM24.2 0M26.34 0L24.3 -8.484L25.8 -8.484L27.33 -2.094L29.28 -8.484L30.83 -8.484L32.55 -2.078L34.32 -8.484L35.65 -8.484L33.27 0L31.72 0L29.92 -6.578L27.89 0L26.34 0ZM40.22 0M41.53 0L41.53 -11.56L45.75 -11.56Q47.53 -11.56 48.3 -11.36Q49.08 -11.16 49.59 -10.56Q50.2 -9.812 50.2 -8.453Q50.2 -4.438 45.27 -4.438L43.17 -4.438L43.17 0L41.53 0M43.17 -5.688L45.19 -5.688Q48.47 -5.688 48.47 -8.344Q48.47 -9.531 47.8 -9.938Q47.12 -10.34 45.23 -10.34L43.17 -10.34L43.17 -5.688ZM50.89 0M52.25 0L52.25 -8.578L54.56 -8.578L54.56 -7.156Q55.2 -8.781 56.48 -8.781Q56.66 -8.781 56.87 -8.734L56.87 -6.672Q56.44 -6.844 56.14 -6.844Q55.2 -6.844 54.56 -5.641L54.56 0L52.25 0ZM57.12 0M58.28 0L58.28 -8.578L60.59 -8.578L60.59 0L58.28 0M58.2 -10.14L58.2 -12.34L60.67 -12.34L60.67 -10.14L58.2 -10.14ZM61.75 0M68.98 -0.2656Q67.64 0.2031 66.27 0.2031Q64.56 0.2031 63.5 -1.031Q62.42 -2.266 62.42 -4.234Q62.42 -6.328 63.52 -7.5Q64.61 -8.672 66.55 -8.672Q67.58 -8.672 68.89 -8.391L68.89 -7.109Q67.64 -7.5 66.86 -7.5Q64.12 -7.5 64.12 -4.234Q64.12 -2.719 64.83 -1.875Q65.55 -1.047 66.8 -1.047Q67.77 -1.047 68.98 -1.594L68.98 -0.2656ZM69.75 0M70.91 0L70.91 -8.578L73.22 -8.578L73.22 0L70.91 0M70.83 -10.14L70.83 -12.34L73.3 -12.34L73.3 -10.14L70.83 -10.14ZM74.38 0M75.53 0L75.53 -8.578L77.84 -8.578L77.84 -7.156Q79.17 -8.781 80.77 -8.781Q83.09 -8.781 83.09 -6.062L83.09 0L80.78 0L80.78 -5.5Q80.78 -6.328 80.58 -6.641Q80.39 -6.953 79.86 -6.953Q78.92 -6.953 77.84 -5.594L77.84 0L75.53 0ZM84.16 0M90.47 -7.203Q89.59 -7.359 89.17 -7.359Q87.25 -7.359 87.25 -4.469Q87.25 -1.812 88.64 -1.812Q89.58 -1.812 90.47 -3.188L90.47 -7.203M90.47 -1.625Q89.25 0 87.78 0Q86.45 0 85.61 -1.156Q84.78 -2.312 84.78 -4.156Q84.78 -6.297 85.86 -7.531Q86.94 -8.781 88.81 -8.781Q89.45 -8.781 90.47 -8.578L92.78 -8.578L92.78 -2.031Q92.78 -0.07812 92.55 0.7969Q92.31 1.672 91.61 2.281Q90.45 3.281 88.36 3.281Q86.86 3.281 85.13 2.672L85.13 0.9688Q86.83 1.641 88.05 1.641Q89.33 1.641 89.89 1.094Q90.47 0.5469 90.47 -0.6875L90.47 -1.625Z" fill="#cbd5e1" transform="translate(278.6,548.9)"/><rect x="427.4" y="539.4" width="8" height="8" fill="#34d399"/><path d="M5.562 -4.797Q4.656 -3.625 3.266 -3.625Q2.016 -3.625 1.297 -4.469Q0.5781 -5.312 0.5781 -6.797Q0.5781 -8.516 1.375 -9.438Q2.188 -10.38 3.703 -10.38Q5.25 -10.38 6.125 -9.047Q7.016 -7.719 7.016 -5.406Q7.016 -2.734 5.969 -1.234Q4.906 0.2656 3.016 0.2656Q2.125 0.2656 1.109 -0.125L1.109 -1.297Q2.328 -0.7656 3.016 -0.7656Q5.562 -0.7656 5.562 -4.797M1.906 -7.109Q1.906 -4.594 3.594 -4.594Q4.469 -4.594 4.984 -5.188Q5.516 -5.766 5.516 -6.766Q5.516 -7.891 4.969 -8.625Q4.422 -9.359 3.578 -9.359Q1.906 -9.359 1.906 -7.109ZM7.781 0M13.34 -4.797Q12.44 -3.625 11.05 -3.625Q9.797 -3.625 9.078 -4.469Q8.359 -5.312 8.359 -6.797Q8.359 -8.516 9.156 -9.438Q9.969 -10.38 11.48 -10.38Q13.03 -10.38 13.91 -9.047Q14.8 -7.719 14.8 -5.406Q14.8 -2.734 13.75 -1.234Q12.69 0.2656 10.8 0.2656Q9.906 0.2656 8.89 -0.125L8.89 -1.297Q10.11 -0.7656 10.8 -0.7656Q13.34 -0.7656 13.34 -4.797M9.687 -7.109Q9.687 -4.594 11.38 -4.594Q12.25 -4.594 12.77 -5.188Q13.3 -5.766 13.3 -6.766Q13.3 -7.891 12.75 -8.625Q12.2 -9.359 11.36 -9.359Q9.687 -9.359 9.687 -7.109ZM15.56 0M16.94 0L16.94 -1.75L18.69 -1.75L18.69 0L16.94 0ZM20 0M25.56 -4.797Q24.66 -3.625 23.27 -3.625Q22.02 -3.625 21.3 -4.469Q20.58 -5.312 20.58 -6.797Q20.58 -8.516 21.38 -9.438Q22.19 -10.38 23.7 -10.38Q25.25 -10.38 26.12 -9.047Q27.02 -7.719 27.02 -5.406Q27.02 -2.734 25.97 -1.234Q24.91 0.2656 23.02 0.2656Q22.12 0.2656 21.11 -0.125L21.11 -1.297Q22.33 -0.7656 23.02 -0.7656Q25.56 -0.7656 25.56 -4.797M21.91 -7.109Q21.91 -4.594 23.59 -4.594Q24.47 -4.594 24.98 -5.188Q25.52 -5.766 25.52 -6.766Q25.52 -7.891 24.97 -8.625Q24.42 -9.359 23.58 -9.359Q21.91 -9.359 21.91 -7.109ZM27.78 0M33.34 -4.797Q32.44 -3.625 31.05 -3.625Q29.8 -3.625 29.08 -4.469Q28.36 -5.312 28.36 -6.797Q28.36 -8.516 29.16 -9.438Q29.97 -10.38 31.48 -10.38Q33.03 -10.38 33.91 -9.047Q34.8 -7.719 34.8 -5.406Q34.8 -2.734 33.75 -1.234Q32.69 0.2656 30.8 0.2656Q29.91 0.2656 28.89 -0.125L28.89 -1.297Q30.11 -0.7656 30.8 -0.7656Q33.34 -0.7656 33.34 -4.797M29.69 -7.109Q29.69 -4.594 31.38 -4.594Q32.25 -4.594 32.77 -5.188Q33.3 -5.766 33.3 -6.766Q33.3 -7.891 32.75 -8.625Q32.2 -9.359 31.36 -9.359Q29.69 -9.359 29.69 -7.109ZM35.56 0M37.27 0L45.14 -10.12L46.2 -10.12L38.33 0L37.27 0M36.39 -7.625Q36.39 -8.766 36.97 -9.438Q37.56 -10.12 38.62 -10.12Q39.69 -10.12 40.27 -9.438Q40.86 -8.766 40.86 -7.594Q40.86 -6.422 40.27 -5.734Q39.69 -5.062 38.62 -5.062Q37.53 -5.062 36.95 -5.75Q36.39 -6.422 36.39 -7.625M37.5 -7.625Q37.5 -6.828 37.81 -6.312Q38.11 -5.797 38.62 -5.797Q39.12 -5.797 39.44 -6.312Q39.73 -6.828 39.73 -7.594Q39.73 -8.359 39.44 -8.859Q39.12 -9.375 38.62 -9.375Q38.12 -9.375 37.81 -8.875Q37.5 -8.375 37.5 -7.625M42.78 -2.828Q42.78 -3.969 43.41 -4.641Q44.03 -5.312 45.03 -5.312Q46.03 -5.312 46.64 -4.625Q47.26 -3.953 47.26 -2.781Q47.26 -1.609 46.67 -0.9375Q46.09 -0.25 45.03 -0.25Q43.94 -0.25 43.36 -0.9375Q42.78 -1.625 42.78 -2.828M43.91 -2.75Q43.91 -2.031 44.2 -1.516Q44.52 -1 45.03 -1Q45.52 -1 45.83 -1.5Q46.14 -2.016 46.14 -2.719Q46.14 -3.562 45.83 -4.062Q45.52 -4.578 45.03 -4.578Q44.52 -4.578 44.2 -4.062Q43.91 -3.562 43.91 -2.75ZM51.91 0M57.28 0L57.28 -1.391Q56.22 0.1719 54.78 0.1719Q52.88 0.1719 52.88 -2.094L52.88 -7.422L54.22 -7.422L54.22 -2.531Q54.22 -1.641 54.41 -1.312Q54.59 -0.9844 55.13 -0.9844Q56.27 -0.9844 57.28 -2.609L57.28 -7.422L58.64 -7.422L58.64 0L57.28 0ZM59.69 0M62.72 2.703L60.7 2.703L60.7 -7.5L62.72 -7.5L62.72 -6.266Q63.8 -7.672 65.08 -7.672Q66.25 -7.672 66.97 -6.656Q67.7 -5.641 67.7 -3.953Q67.7 -2.016 66.77 -0.9219Q65.83 0.1719 64.17 0.1719Q63.63 0.1719 62.72 0L62.72 2.703M62.72 -1.203Q63.48 -1.078 63.86 -1.078Q65.55 -1.078 65.55 -3.672Q65.55 -6.094 64.33 -6.094Q63.5 -6.094 62.72 -4.891L62.72 -1.203ZM68.23 0M71.86 0.04688Q71.47 0.1719 71.11 0.1719Q69.28 0.1719 69.28 -2.047L69.28 -6.406L68.41 -6.406L68.41 -7.422L69.28 -7.422L69.28 -8.969L70.63 -9.109L70.63 -7.422L72.27 -7.422L72.27 -6.406L70.63 -6.406L70.63 -2.297Q70.63 -1.406 70.77 -1.125Q70.92 -0.8438 71.39 -0.8438Q71.67 -0.8438 71.86 -0.9219L71.86 0.04688ZM72.19 0M73.2 0L73.2 -7.5L75.22 -7.5L75.22 0L73.2 0M73.12 -8.875L73.12 -10.8L75.3 -10.8L75.3 -8.875L73.12 -8.875ZM76.23 0M77.28 0L77.28 -7.422L78.64 -7.422L78.64 -6.031Q79.25 -6.984 79.69 -7.281Q80.11 -7.594 80.78 -7.594Q82.25 -7.594 82.78 -6.031Q83.41 -6.984 83.83 -7.281Q84.25 -7.594 84.94 -7.594Q86.92 -7.594 86.92 -5.406L86.92 0L85.58 0L85.58 -5.188Q85.58 -6.469 84.56 -6.469Q83.69 -6.469 82.78 -4.984L82.78 0L81.44 0L81.44 -5.188Q81.44 -6.469 80.41 -6.469Q79.53 -6.469 78.64 -4.984L78.64 0L77.28 0ZM87.89 0M94.94 -1.672L94.94 -0.25Q93.69 0.1719 92.44 0.1719Q90.55 0.1719 89.47 -0.9062Q88.39 -1.984 88.39 -3.859Q88.39 -5.594 89.33 -6.625Q90.28 -7.672 91.83 -7.672Q93.45 -7.672 94.19 -6.641Q94.94 -5.609 94.94 -3.344L90.53 -3.344Q90.73 -1.203 92.78 -1.203Q93.75 -1.203 94.94 -1.672M90.52 -4.484L92.95 -4.484Q92.95 -6.406 91.86 -6.406Q90.72 -6.406 90.52 -4.484ZM99.56 0M100.4 -0.3594L100.4 -1.781Q102.3 -0.8281 104.4 -0.8281Q106.6 -0.8281 106.6 -2.453Q106.6 -3.172 106.2 -3.562Q105.8 -3.938 104.5 -4.359L103.1 -4.812Q100.4 -5.688 100.4 -7.625Q100.4 -10.38 104.1 -10.38Q105.8 -10.38 107.4 -9.938L107.4 -8.625Q105.7 -9.297 104 -9.297Q101.8 -9.297 101.8 -7.797Q101.8 -7.188 102.2 -6.828Q102.7 -6.453 103.8 -6.094L105.2 -5.641Q106.8 -5.109 107.4 -4.438Q108.1 -3.781 108.1 -2.672Q108.1 -1.312 107.1 -0.5312Q106.1 0.25 104.4 0.25Q102.5 0.25 100.4 -0.3594ZM108.9 0M110 0L110 -10.12L111.5 -10.12L111.5 -1.078L116.4 -1.078L116.4 0L110 0ZM116.7 0M116.8 0L120.7 -10.12L122.1 -10.12L125.9 0L124.3 0L123.3 -2.797L119.2 -2.797L118.2 0L116.8 0M119.6 -3.875L122.9 -3.875L121.2 -8.203L119.6 -3.875Z" fill="#64748b" transform="translate(443.4,548.2)"/></svg>