<svg xmlns="http://www.w3.org/2000/svg" width="1200" height="630" viewBox="0 0 1200 630"><rect x="0" y="0" width="1200" height="630" fill="#1a1a2e"/><path d="M4.062 0L4.062 -34.69L11.28 -34.69L11.28 -20.61L23.39 -20.61L23.39 -34.69L30.61 -34.69L30.61 0L23.39 0L23.39 -15.83L11.28 -15.83L11.28 0L4.062 0ZM34.67 0M58.84 -5.75L58.84 -0.875Q54.55 0.5938 50.23 0.5938Q43.8 0.5938 40.09 -3.094Q36.41 -6.797 36.41 -13.22Q36.41 -19.17 39.62 -22.73Q42.86 -26.33 48.2 -26.33Q53.73 -26.33 56.28 -22.77Q58.84 -19.22 58.84 -11.48L43.72 -11.48Q44.45 -4.125 51.44 -4.125Q54.73 -4.125 58.84 -5.75M43.66 -15.41L52.01 -15.41Q52.01 -21.98 48.29 -21.98Q44.36 -21.98 43.66 -15.41ZM61.38 0M75.23 -4.266L75.23 0Q73.66 0.5938 71.88 0.5938Q64.55 0.5938 64.55 -7.859L64.55 -37.02L71.48 -37.02L71.48 -8.766Q71.48 -5.859 71.97 -4.953Q72.47 -4.062 74.02 -4.062Q74.64 -4.062 75.23 -4.266ZM75.7 0M89.56 -4.266L89.56 0Q87.98 0.5938 86.2 0.5938Q78.88 0.5938 78.88 -7.859L78.88 -37.02L85.81 -37.02L85.81 -8.766Q85.81 -5.859 86.29 -4.953Q86.79 -4.062 88.34 -4.062Q88.97 -4.062 89.56 -4.266ZM90.03 0M104.6 0.5938Q98.78 0.5938 95.27 -3.094Q91.77 -6.797 91.77 -12.88Q91.77 -19.02 95.28 -22.67Q98.8 -26.33 104.7 -26.33Q110.6 -26.33 114.1 -22.67Q117.6 -19.02 117.6 -12.92Q117.6 -6.703 114.1 -3.047Q110.6 0.5938 104.6 0.5938M104.6 -3.75Q107.3 -3.75 108.8 -6.188Q110.3 -8.656 110.3 -12.92Q110.3 -17.06 108.7 -19.53Q107.2 -21.98 104.7 -21.98Q102.1 -21.98 100.6 -19.53Q99.13 -17.06 99.13 -12.88Q99.13 -8.719 100.6 -6.234Q102.1 -3.75 104.6 -3.75ZM132.7 0M135.1 -0.3125L135.1 -6.219Q141.8 -3.891 147.4 -3.891Q155.3 -3.891 155.3 -8.516Q155.3 -11.52 152.3 -12.8L149.1 -14.02L145.3 -15.47Q139.2 -17.8 137.1 -19.91Q135 -22.02 135 -25.91Q135 -35.56 149.2 -35.56Q155.1 -35.56 160.5 -34.36L160.5 -28.88Q154.9 -30.8 149.7 -30.8Q145.5 -30.8 143.8 -29.91Q142.2 -29.02 142.2 -26.72Q142.2 -25.27 143 -24.45Q143.8 -23.62 146 -22.78L148.7 -21.75L152.7 -20.28Q158.5 -18.12 160.7 -15.83Q162.9 -13.53 162.9 -9.641Q162.9 -4.203 158.9 -1.641Q154.8 0.8906 146.1 0.8906Q142.9 0.8906 138.8 0.2656L135.1 -0.3125ZM164.7 0M189.9 -3.969L190.1 -0.07812Q187.9 0.5938 186.2 0.5938Q181.9 0.5938 180.7 -2.766L180.4 -2.766Q177.9 0.5938 174 0.5938Q170.5 0.5938 168.4 -1.484Q166.3 -3.562 166.3 -6.938Q166.3 -15.7 178.6 -15.7L180.4 -15.7L180.4 -18.05Q180.4 -22.06 176.4 -22.06Q172.8 -22.06 168.6 -19.77L168.6 -24.55Q172.9 -26.33 177.5 -26.33Q187.1 -26.33 187.1 -18.28L187.1 -6.891Q187.1 -3.875 189 -3.875Q189.4 -3.875 189.9 -3.969M180.4 -6.5L180.4 -11.72L178.8 -11.72Q173 -11.72 173 -7.547Q173 -6.078 174 -5.094Q174.9 -4.125 176.4 -4.125Q178.8 -4.125 180.4 -6.5ZM191.4 0M207 -4.359L207 -0.03125Q204.3 0.5938 202.6 0.5938Q195.2 0.5938 195.2 -7.859L195.2 -21.41L192.4 -21.41L192.4 -25.73L195.2 -25.73L195.2 -30.78L202.2 -31.58L202.2 -25.73L207.1 -25.73L207.1 -21.41L202.2 -21.41L202.2 -8.766Q202.2 -5.859 202.7 -4.953Q203.1 -4.062 204.7 -4.062Q205.6 -4.062 207 -4.359ZM207.4 0M221.9 0.5938Q216.2 0.5938 212.6 -3.094Q209.1 -6.797 209.1 -12.88Q209.1 -19.02 212.7 -22.67Q216.2 -26.33 222.1 -26.33Q227.9 -26.33 231.5 -22.67Q235 -19.02 235 -12.92Q235 -6.703 231.5 -3.047Q227.9 0.5938 221.9 0.5938M222 -3.75Q224.6 -3.75 226.1 -6.188Q227.6 -8.656 227.6 -12.92Q227.6 -17.06 226.1 -19.53Q224.6 -21.98 222.1 -21.98Q219.5 -21.98 218 -19.53Q216.5 -17.06 216.5 -12.88Q216.5 -8.719 218 -6.234Q219.5 -3.75 222 -3.75ZM236.7 0M255.7 -21.61Q253 -22.06 251.8 -22.06Q246 -22.06 246 -13.39Q246 -5.422 250.2 -5.422Q253 -5.422 255.7 -9.547L255.7 -21.61M255.7 -4.859Q252 0 247.6 0Q243.6 0 241.1 -3.469Q238.6 -6.938 238.6 -12.47Q238.6 -18.89 241.8 -22.59Q245.1 -26.33 250.7 -26.33Q252.6 -26.33 255.7 -25.73L262.6 -25.73L262.6 -6.094Q262.6 -0.2188 261.9 2.391Q261.2 5 259.1 6.828Q255.6 9.844 249.3 9.844Q244.8 9.844 239.6 8L239.6 2.891Q244.7 4.922 248.4 4.922Q252.2 4.922 253.9 3.281Q255.7 1.641 255.7 -2.047L255.7 -4.859ZM266.1 0M280.6 0.5938Q274.8 0.5938 271.3 -3.094Q267.8 -6.797 267.8 -12.88Q267.8 -19.02 271.3 -22.67Q274.8 -26.33 280.7 -26.33Q286.6 -26.33 290.1 -22.67Q293.7 -19.02 293.7 -12.92Q293.7 -6.703 290.1 -3.047Q286.6 0.5938 280.6 0.5938M280.7 -3.75Q283.3 -3.75 284.8 -6.188Q286.3 -8.656 286.3 -12.92Q286.3 -17.06 284.8 -19.53Q283.3 -21.98 280.7 -21.98Q278.2 -21.98 276.7 -19.53Q275.2 -17.06 275.2 -12.88Q275.2 -8.719 276.7 -6.234Q278.2 -3.75 280.7 -3.75Z" fill="#ffffff" transform="translate(452.3,293.2)"/><path d="M1.953 0L1.953 -17.34L8.281 -17.34Q10.95 -17.34 12.12 -17.05Q13.3 -16.73 14.05 -15.83Q14.98 -14.7 14.98 -12.69Q14.98 -6.656 7.562 -6.656L4.422 -6.656L4.422 0L1.953 0M4.422 -8.516L7.453 -8.516Q12.38 -8.516 12.38 -12.5Q12.38 -14.3 11.36 -14.89Q10.34 -15.5 7.516 -15.5L4.422 -15.5L4.422 -8.516ZM16.02 0M25.23 0L25.23 -2.375Q23.41 0.2969 20.94 0.2969Q17.69 0.2969 17.69 -3.594L17.69 -12.73L19.98 -12.73L19.98 -4.344Q19.98 -2.797 20.31 -2.25Q20.64 -1.703 21.53 -1.703Q23.5 -1.703 25.23 -4.484L25.23 -12.73L27.55 -12.73L27.55 0L25.23 0ZM29.36 0M31.17 0L31.17 -12.73L33.47 -12.73L33.47 -10.34Q34.53 -13.02 36.52 -13.02Q36.8 -13.02 37.19 -12.95L37.19 -10.8Q36.59 -11 36.22 -11Q34.88 -11 33.47 -8.391L33.47 0L31.17 0ZM37.36 0M46.95 -7.734Q46.95 -11.28 44.08 -11.28Q41.11 -11.28 40.83 -7.734L46.95 -7.734M49.24 -2.234L49.24 -0.4062Q46.95 0.2969 44.81 0.2969Q41.88 0.2969 40.11 -1.562Q38.38 -3.406 38.38 -6.516Q38.38 -9.5 39.92 -11.25Q41.47 -13.02 44.11 -13.02Q49.3 -13.02 49.3 -6.719L49.3 -6L40.8 -6Q41.13 -1.469 45.36 -1.469Q47.19 -1.469 49.24 -2.234ZM57.38 0M73.84 -8.062L73.84 -0.4688Q70.75 0.4375 67.55 0.4375Q58.47 0.4375 58.47 -8.641Q58.47 -13.05 60.83 -15.41Q63.17 -17.78 67.55 -17.78Q70.64 -17.78 73.81 -17L73.81 -14.72Q70.14 -15.94 67.55 -15.94Q61.11 -15.94 61.11 -8.672Q61.11 -5.156 62.88 -3.281Q64.66 -1.406 67.97 -1.406Q69.33 -1.406 71.39 -1.844L71.39 -6.266L68.5 -6.266L68.5 -8.062L73.84 -8.062ZM76.05 0M82.64 0.2969Q80.06 0.2969 78.56 -1.516Q77.06 -3.312 77.06 -6.359Q77.06 -9.453 78.56 -11.23Q80.09 -13.02 82.72 -13.02Q85.33 -13.02 86.86 -11.23Q88.38 -9.453 88.38 -6.391Q88.38 -3.25 86.86 -1.484Q85.33 0.2969 82.64 0.2969M82.67 -1.438Q85.87 -1.438 85.87 -6.422Q85.87 -11.28 82.72 -11.28Q79.55 -11.28 79.55 -6.359Q79.55 -1.438 82.67 -1.438ZM96.06 0M105.3 0.4375Q101.6 0.4375 99.37 -2.062Q97.16 -4.562 97.16 -8.672Q97.16 -12.83 99.39 -15.31Q101.6 -17.78 105.4 -17.78Q109.2 -17.78 111.4 -15.31Q113.7 -12.83 113.7 -8.703Q113.7 -4.484 111.4 -2.031Q109.2 0.4375 105.3 0.4375M105.3 -1.406Q108 -1.406 109.5 -3.312Q111 -5.219 111 -8.703Q111 -12.12 109.5 -14.03Q108 -15.94 105.4 -15.94Q102.8 -15.94 101.3 -14.03Q99.8 -12.12 99.8 -8.672Q99.8 -5.281 101.3 -3.344Q102.7 -1.406 105.3 -1.406ZM114.7 0M131.2 -8.062L131.2 -0.4688Q128.1 0.4375 124.9 0.4375Q115.8 0.4375 115.8 -8.641Q115.8 -13.05 118.2 -15.41Q120.5 -17.78 124.9 -17.78Q128 -17.78 131.2 -17L131.2 -14.72Q127.5 -15.94 124.9 -15.94Q118.5 -15.94 118.5 -8.672Q118.5 -5.156 120.2 -3.281Q122 -1.406 125.3 -1.406Q126.7 -1.406 128.8 -1.844L128.8 -6.266L125.9 -6.266L125.9 -8.062L131.2 -8.062ZM140.1 0M141.5 0L141.5 -1.844L143.6 -1.844L143.6 -15.5L141.5 -15.5L141.5 -17.34L148.2 -17.34L148.2 -15.5L146.1 -15.5L146.1 -1.844L148.2 -1.844L148.2 0L141.5 0ZM149.7 0M151.5 0L151.5 -12.73L153.8 -12.73L153.8 -10.34Q154.8 -11.97 155.6 -12.48Q156.3 -13.02 157.5 -13.02Q160 -13.02 160.9 -10.34Q162 -11.97 162.7 -12.48Q163.4 -13.02 164.6 -13.02Q168 -13.02 168 -9.266L168 0L165.7 0L165.7 -8.891Q165.7 -11.09 163.9 -11.09Q162.4 -11.09 160.9 -8.531L160.9 0L158.6 0L158.6 -8.891Q158.6 -11.09 156.8 -11.09Q155.3 -11.09 153.8 -8.531L153.8 0L151.5 0ZM169.7 0M178.7 -1.625Q176.6 0.2969 174.5 0.2969Q172.9 0.2969 171.8 -0.6875Q170.8 -1.656 170.8 -3.219Q170.8 -7.531 177.8 -7.531L178.4 -7.531L178.4 -9.062Q178.4 -11.28 176 -11.28Q174 -11.28 171.9 -10.16L171.9 -12.06Q174.2 -13.02 176.4 -13.02Q178.6 -13.02 179.7 -12.06Q180.7 -11.12 180.7 -9.062L180.7 -3.297Q180.7 -1.312 181.9 -1.312Q182.1 -1.312 182.4 -1.359L182.5 -0.07812Q181.7 0.2969 180.8 0.2969Q179.2 0.2969 178.7 -1.625M178.4 -2.875L178.4 -6.172L177.6 -6.188Q173.2 -6.188 173.2 -3.609Q173.2 -1.594 175.3 -1.594Q176.8 -1.594 178.4 -2.875ZM183 0M192.3 -5.062L192.3 -10.98Q190.7 -11.28 189.9 -11.28Q186.6 -11.28 186.6 -6.734Q186.6 -4.703 187.2 -3.5Q187.9 -2.312 189 -2.312Q190.5 -2.312 192.3 -5.062M192.3 -2.969Q190.9 -0.2969 188.5 -0.2969Q186.5 -0.2969 185.3 -2Q184.1 -3.703 184.1 -6.453Q184.1 -9.578 185.7 -11.28Q187.2 -13.02 190.1 -13.02Q191.2 -13.02 192.3 -12.73L194.6 -12.73L194.6 -3.469Q194.6 -0.4688 194.3 0.9688Q194 2.391 193.2 3.312Q191.6 4.922 188.5 4.922Q186.2 4.922 184.2 4.234L184.2 2.234Q186.6 3.172 188.4 3.172Q192.3 3.172 192.3 -0.9688L192.3 -2.969ZM196.3 0M205.9 -7.734Q205.9 -11.28 203.1 -11.28Q200.1 -11.28 199.8 -7.734L205.9 -7.734M208.2 -2.234L208.2 -0.4062Q205.9 0.2969 203.8 0.2969Q200.9 0.2969 199.1 -1.562Q197.4 -3.406 197.4 -6.516Q197.4 -9.5 198.9 -11.25Q200.5 -13.02 203.1 -13.02Q208.3 -13.02 208.3 -6.719L208.3 -6L199.8 -6Q200.1 -1.469 204.3 -1.469Q206.2 -1.469 208.2 -2.234ZM216.4 0M232.8 -8.062L232.8 -0.4688Q229.7 0.4375 226.5 0.4375Q217.5 0.4375 217.5 -8.641Q217.5 -13.05 219.8 -15.41Q222.2 -17.78 226.5 -17.78Q229.6 -17.78 232.8 -17L232.8 -14.72Q229.1 -15.94 226.5 -15.94Q220.1 -15.94 220.1 -8.672Q220.1 -5.156 221.9 -3.281Q223.6 -1.406 226.9 -1.406Q228.3 -1.406 230.4 -1.844L230.4 -6.266L227.5 -6.266L227.5 -8.062L232.8 -8.062ZM235 0M244.6 -7.734Q244.6 -11.28 241.8 -11.28Q238.8 -11.28 238.5 -7.734L244.6 -7.734M246.9 -2.234L246.9 -0.4062Q244.6 0.2969 242.5 0.2969Q239.5 0.2969 237.8 -1.562Q236 -3.406 236 -6.516Q236 -9.5 237.6 -11.25Q239.1 -13.02 241.8 -13.02Q247 -13.02 247 -6.719L247 -6L238.5 -6Q238.8 -1.469 243 -1.469Q244.9 -1.469 246.9 -2.234ZM248.4 0M250.2 0L250.2 -12.73L252.5 -12.73L252.5 -10.34Q254.3 -13.02 256.8 -13.02Q260.1 -13.02 260.1 -9.141L260.1 0L257.7 0L257.7 -8.391Q257.7 -9.922 257.4 -10.48Q257.1 -11.03 256.2 -11.03Q254.2 -11.03 252.5 -8.234L252.5 0L250.2 0ZM261.7 0M271.3 -7.734Q271.3 -11.28 268.4 -11.28Q265.5 -11.28 265.2 -7.734L271.3 -7.734M273.6 -2.234L273.6 -0.4062Q271.3 0.2969 269.2 0.2969Q266.2 0.2969 264.5 -1.562Q262.7 -3.406 262.7 -6.516Q262.7 -9.5 264.3 -11.25Q265.8 -13.02 268.5 -13.02Q273.7 -13.02 273.7 -6.719L273.7 -6L265.2 -6Q265.5 -1.469 269.7 -1.469Q271.5 -1.469 273.6 -2.234ZM275.1 0M276.9 0L276.9 -12.73L279.2 -12.73L279.2 -10.34Q280.2 -13.02 282.2 -13.02Q282.5 -13.02 282.9 -12.95L282.9 -10.8Q282.3 -11 281.9 -11Q280.6 -11 279.2 -8.391L279.2 0L276.9 0ZM283.1 0M292.1 -1.625Q290 0.2969 287.9 0.2969Q286.3 0.2969 285.2 -0.6875Q284.2 -1.656 284.2 -3.219Q284.2 -7.531 291.3 -7.531L291.8 -7.531L291.8 -9.062Q291.8 -11.28 289.4 -11.28Q287.4 -11.28 285.3 -10.16L285.3 -12.06Q287.6 -13.02 289.8 -13.02Q292 -13.02 293.1 -12.06Q294.1 -11.12 294.1 -9.062L294.1 -3.297Q294.1 -1.312 295.3 -1.312Q295.5 -1.312 295.8 -1.359L295.9 -0.07812Q295.1 0.2969 294.2 0.2969Q292.6 0.2969 292.1 -1.625M291.8 -2.875L291.8 -6.172L291 -6.188Q286.6 -6.188 286.6 -3.609Q286.6 -1.594 288.7 -1.594Q290.2 -1.594 291.8 -2.875ZM296.4 0M302.6 0.07812Q301.9 0.2969 301.3 0.2969Q298.2 0.2969 298.2 -3.516L298.2 -11L296.7 -11L296.7 -12.73L298.2 -12.73L298.2 -15.39L300.5 -15.61L300.5 -12.73L303.3 -12.73L303.3 -11L300.5 -11L300.5 -3.938Q300.5 -2.422 300.8 -1.922Q301 -1.438 301.8 -1.438Q302.3 -1.438 302.6 -1.578L302.6 0.07812ZM303.2 0M309.8 0.2969Q307.2 0.2969 305.7 -1.516Q304.2 -3.312 304.2 -6.359Q304.2 -9.453 305.7 -11.23Q307.2 -13.02 309.9 -13.02Q312.5 -13.02 314 -11.23Q315.5 -9.453 315.5 -6.391Q315.5 -3.25 314 -1.484Q312.5 0.2969 309.8 0.2969M309.8 -1.438Q313 -1.438 313 -6.422Q313 -11.28 309.9 -11.28Q306.7 -11.28 306.7 -6.359Q306.7 -1.438 309.8 -1.438ZM316.5 0M318.3 0L318.3 -12.73L320.6 -12.73L320.6 -10.34Q321.7 -13.02 323.7 -13.02Q324 -13.02 324.4 -12.95L324.4 -10.8Q323.8 -11 323.4 -11Q322 -11 320.6 -8.391L320.6 0L318.3 0Z" fill="#a0a0a0" transform="translate(437.7,384.2)"/></svg>